<svg width="91" height="24" viewBox="0 0 91 24" fill="none" xmlns="http://www.w3.org/2000/svg">
<path d="M33.6079 4.90833H28.6341C28.4694 4.90822 28.3101 4.96693 28.1849 5.07387C28.0597 5.18081 27.9768 5.32895 27.9512 5.4916L25.9395 18.2458C25.9303 18.305 25.934 18.3654 25.9504 18.4231C25.9667 18.4807 25.9954 18.5341 26.0344 18.5796C26.0734 18.625 26.1217 18.6615 26.1762 18.6865C26.2306 18.7115 26.2898 18.7244 26.3497 18.7243H28.7243C28.889 18.7244 29.0484 18.6656 29.1736 18.5585C29.2988 18.4514 29.3817 18.3031 29.4072 18.1403L29.9497 14.7003C29.9752 14.5377 30.0579 14.3895 30.183 14.2824C30.3081 14.1753 30.4673 14.1164 30.6319 14.1163H32.2065C35.4828 14.1163 37.3737 12.5309 37.8675 9.38905C38.0901 8.01451 37.877 6.93451 37.2334 6.17814C36.5265 5.3476 35.2726 4.90833 33.6079 4.90833ZM34.1817 9.56651C33.9097 11.3512 32.5461 11.3512 31.2275 11.3512H30.477L31.0035 8.01814C31.019 7.92063 31.0687 7.83182 31.1437 7.76769C31.2188 7.70356 31.3143 7.66833 31.413 7.66833H31.757C32.6552 7.66833 33.5024 7.66833 33.9403 8.18033C34.2014 8.48578 34.2814 8.9396 34.1817 9.56651ZM48.4755 9.50905H46.0937C45.995 9.50905 45.8995 9.54429 45.8245 9.60842C45.7494 9.67255 45.6997 9.76136 45.6843 9.85887L45.5788 10.5251L45.4123 10.2836C44.8966 9.53523 43.7468 9.28505 42.5992 9.28505C39.9672 9.28505 37.7192 11.2785 37.2814 14.0749C37.0537 15.4698 37.3774 16.8036 38.1686 17.7338C38.8945 18.5891 39.933 18.9454 41.1686 18.9454C43.2894 18.9454 44.4654 17.5818 44.4654 17.5818L44.3592 18.2436C44.3497 18.3028 44.3532 18.3633 44.3694 18.421C44.3856 18.4787 44.4141 18.5322 44.4529 18.5778C44.4918 18.6234 44.54 18.6601 44.5944 18.6853C44.6488 18.7104 44.708 18.7235 44.7679 18.7236H46.9134C47.0781 18.7237 47.2375 18.6649 47.3627 18.5578C47.4879 18.4507 47.5708 18.3024 47.5963 18.1396L48.8835 9.9876C48.893 9.92856 48.8896 9.86817 48.8734 9.81059C48.8573 9.75302 48.8288 9.69964 48.79 9.65413C48.7512 9.60863 48.703 9.57209 48.6487 9.54705C48.5944 9.522 48.5353 9.50903 48.4755 9.50905ZM45.1555 14.1447C44.9257 15.5054 43.8457 16.4189 42.4683 16.4189C41.7766 16.4189 41.2239 16.1971 40.869 15.7767C40.517 15.3592 40.3832 14.7651 40.4952 14.1032C40.7097 12.7541 41.8079 11.8109 43.1643 11.8109C43.8406 11.8109 44.3905 12.0356 44.7526 12.4596C45.1155 12.888 45.2595 13.4858 45.1555 14.1447ZM61.1606 9.50905H58.7672C58.6543 9.50923 58.5432 9.53695 58.4434 9.5898C58.3437 9.64264 58.2584 9.71903 58.1948 9.81233L54.8937 14.6749L53.4945 10.0021C53.4515 9.85963 53.3638 9.73472 53.2444 9.64592C53.1249 9.55711 52.98 9.50912 52.8312 9.50905H50.4792C50.4132 9.50888 50.3481 9.52447 50.2893 9.55454C50.2305 9.58461 50.1798 9.62829 50.1413 9.68193C50.1028 9.73557 50.0777 9.79763 50.068 9.86294C50.0583 9.92825 50.0644 9.99493 50.0857 10.0574L52.7221 17.7941L50.2435 21.2931C50.1995 21.3551 50.1734 21.428 50.168 21.5039C50.1627 21.5798 50.1783 21.6557 50.2133 21.7233C50.2482 21.7909 50.301 21.8476 50.366 21.8872C50.431 21.9267 50.5056 21.9476 50.5817 21.9476H52.9723C53.0839 21.9478 53.1939 21.9208 53.2928 21.8692C53.3917 21.8175 53.4766 21.7426 53.5403 21.6509L61.501 10.16C61.5441 10.0978 61.5695 10.025 61.5742 9.94947C61.5789 9.87395 61.5629 9.79857 61.5278 9.73151C61.4927 9.66445 61.44 9.60826 61.3753 9.56905C61.3105 9.52984 61.2363 9.50909 61.1606 9.50905Z" fill="#253B80"/>
<path d="M69.0851 4.90832H64.1105C63.946 4.90839 63.7869 4.96717 63.6618 5.0741C63.5368 5.18102 63.454 5.32907 63.4283 5.49159L61.4167 18.2458C61.4074 18.3049 61.4109 18.3653 61.4272 18.4228C61.4434 18.4804 61.4719 18.5338 61.5108 18.5793C61.5496 18.6247 61.5979 18.6613 61.6522 18.6863C61.7065 18.7114 61.7656 18.7243 61.8254 18.7243H64.3782C64.4933 18.7242 64.6047 18.6829 64.6921 18.608C64.7796 18.533 64.8374 18.4294 64.8553 18.3156L65.4262 14.7003C65.4516 14.5377 65.5344 14.3894 65.6594 14.2824C65.7845 14.1753 65.9437 14.1164 66.1084 14.1163H67.6822C70.9593 14.1163 72.8494 12.5309 73.344 9.38905C73.5673 8.0145 73.3527 6.9345 72.7091 6.17814C72.0029 5.34759 70.7498 4.90832 69.0851 4.90832ZM69.6589 9.5665C69.3876 11.3512 68.024 11.3512 66.7047 11.3512H65.9549L66.4822 8.01814C66.4973 7.92062 66.5468 7.83174 66.6218 7.76757C66.6968 7.70341 66.7922 7.6682 66.8909 7.66832H67.2349C68.1323 7.66832 68.9803 7.66832 69.4182 8.18032C69.6793 8.48577 69.7585 8.93959 69.6589 9.5665ZM83.952 9.50905H81.5716C81.4729 9.50878 81.3774 9.54393 81.3024 9.60812C81.2274 9.67232 81.1779 9.76129 81.1629 9.85887L81.0574 10.525L80.8902 10.2836C80.3745 9.53523 79.2254 9.28505 78.0778 9.28505C75.4458 9.28505 73.1985 11.2785 72.7607 14.0749C72.5338 15.4698 72.856 16.8036 73.6473 17.7338C74.3745 18.589 75.4116 18.9454 76.6473 18.9454C78.768 18.9454 79.944 17.5818 79.944 17.5818L79.8378 18.2436C79.8283 18.3029 79.8318 18.3635 79.8481 18.4213C79.8644 18.4791 79.893 18.5327 79.932 18.5784C79.971 18.624 80.0195 18.6606 80.074 18.6857C80.1286 18.7108 80.1879 18.7237 80.248 18.7236H82.3927C82.5574 18.7235 82.7165 18.6646 82.8416 18.5575C82.9667 18.4505 83.0494 18.3023 83.0749 18.1396L84.3629 9.98759C84.372 9.92837 84.3682 9.86787 84.3518 9.81025C84.3353 9.75263 84.3066 9.69925 84.2675 9.65379C84.2285 9.60832 84.1801 9.57185 84.1256 9.54686C84.0711 9.52188 84.0119 9.50898 83.952 9.50905ZM80.632 14.1447C80.4036 15.5054 79.3222 16.4189 77.9447 16.4189C77.2545 16.4189 76.7003 16.197 76.3454 15.7767C75.9934 15.3592 75.8611 14.765 75.9716 14.1032C76.1876 12.7541 77.2843 11.8109 78.6407 11.8109C79.3171 11.8109 79.8669 12.0356 80.2291 12.4596C80.5934 12.888 80.7374 13.4858 80.632 14.1447ZM86.76 5.25814L84.7185 18.2458C84.7092 18.3049 84.7127 18.3653 84.729 18.4228C84.7452 18.4804 84.7737 18.5338 84.8126 18.5793C84.8514 18.6247 84.8997 18.6613 84.954 18.6863C85.0083 18.7114 85.0674 18.7243 85.1273 18.7243H87.1796C87.5207 18.7243 87.8102 18.477 87.8625 18.1403L89.8756 5.38687C89.885 5.32775 89.8814 5.26731 89.8652 5.2097C89.8489 5.15209 89.8204 5.09868 89.7816 5.05314C89.7427 5.0076 89.6945 4.97101 89.6402 4.94589C89.5859 4.92076 89.5267 4.9077 89.4669 4.90759H87.1687C87.07 4.90794 86.9747 4.94341 86.8998 5.00764C86.8249 5.07188 86.7754 5.16068 86.76 5.25814Z" fill="#179BD7"/>
<path d="M5.28446 21.2029L5.66482 18.7869L4.81755 18.7673H0.771729L3.58336 0.939663C3.59174 0.885192 3.6194 0.835542 3.66132 0.799764C3.70324 0.763987 3.75662 0.744464 3.81173 0.744754H10.6335C12.8983 0.744754 14.4612 1.21603 15.2772 2.14621C15.6597 2.58257 15.9034 3.03857 16.0212 3.54039C16.1448 4.06694 16.147 4.69603 16.0263 5.4633L16.0175 5.5193V6.01094L16.4001 6.22766C16.6921 6.37562 16.9546 6.57576 17.1746 6.81821C17.5019 7.1913 17.7135 7.66548 17.803 8.22766C17.8954 8.80585 17.8648 9.49385 17.7135 10.2728C17.539 11.1688 17.2568 11.9491 16.8757 12.5877C16.5395 13.1597 16.0874 13.6551 15.5485 14.0422C15.0423 14.4015 14.4408 14.6742 13.7608 14.8488C13.1019 15.0204 12.3506 15.1069 11.5266 15.1069H10.9957C10.6161 15.1069 10.2474 15.2437 9.95791 15.4888C9.66887 15.7365 9.47712 16.0787 9.41682 16.4546L9.37682 16.672L8.70482 20.9302L8.67427 21.0866C8.66627 21.136 8.65246 21.1608 8.63209 21.1775C8.61237 21.1936 8.58775 21.2026 8.56227 21.2029H5.28446Z" fill="#253B80"/>
<path d="M16.7623 5.57605C16.7419 5.70623 16.7187 5.83932 16.6925 5.97605C15.7928 10.595 12.715 12.1906 8.78411 12.1906H6.78266C6.30193 12.1906 5.89684 12.5397 5.82193 13.0139L4.7972 19.5128L4.50702 21.355C4.49546 21.428 4.49987 21.5027 4.51996 21.5739C4.54004 21.6451 4.57531 21.7112 4.62335 21.7674C4.67139 21.8237 4.73105 21.8689 4.79823 21.8999C4.8654 21.9309 4.93849 21.9469 5.01248 21.947H8.56229C8.98266 21.947 9.33975 21.6415 9.40593 21.227L9.44084 21.0466L10.1092 16.8051L10.1521 16.5724C10.2176 16.1564 10.5754 15.851 10.9957 15.851H11.5267C14.9659 15.851 17.6583 14.4546 18.4452 10.4139C18.7739 8.72587 18.6037 7.31641 17.7339 6.32514C17.4582 6.0185 17.129 5.76465 16.7623 5.57605Z" fill="#179BD7"/>
<path d="M15.8211 5.20073C15.5338 5.11763 15.2416 5.05278 14.9461 5.00655C14.3624 4.91683 13.7724 4.87379 13.1818 4.87782H7.83487C7.63138 4.87767 7.43455 4.95031 7.27996 5.08263C7.12537 5.21495 7.02321 5.3982 6.99196 5.59928L5.8545 12.8036L5.82178 13.0138C5.85721 12.7845 5.97356 12.5754 6.14978 12.4244C6.326 12.2734 6.55044 12.1904 6.7825 12.1905H8.78396C12.7149 12.1905 15.7927 10.5942 16.6923 5.976C16.7192 5.83928 16.7418 5.70619 16.7621 5.576C16.5247 5.45152 16.2773 5.34715 16.0225 5.264C15.9557 5.24184 15.8885 5.22074 15.8211 5.20073Z" fill="#222D65"/>
<path d="M6.99193 5.59927C7.02292 5.39814 7.12502 5.2148 7.27969 5.08255C7.43436 4.9503 7.63134 4.87791 7.83484 4.87855H13.1818C13.8152 4.87855 14.4065 4.92 14.9461 5.00727C15.3113 5.06466 15.6714 5.1505 16.0232 5.264C16.2887 5.352 16.5352 5.456 16.7628 5.576C17.0305 3.86909 16.7607 2.70691 15.8378 1.65455C14.8203 0.496 12.9839 0 10.6341 0H3.8123C3.3323 0 2.92284 0.349091 2.84866 0.824L0.00720706 18.8349C-0.00602796 18.9185 -0.000992484 19.004 0.0219671 19.0855C0.0449267 19.167 0.0852655 19.2426 0.140209 19.307C0.195152 19.3714 0.263396 19.4231 0.340245 19.4586C0.417095 19.4942 0.500727 19.5126 0.585389 19.5127H4.79703L5.85448 12.8036L6.99193 5.59927Z" fill="#253B80"/>
</svg>
