<svg width="40" height="40" viewBox="0 0 40 40" fill="none" xmlns="http://www.w3.org/2000/svg">
<path fill-rule="evenodd" clip-rule="evenodd" d="M40 33.4174V28.8571C40 28.2877 39.5384 27.8261 38.969 27.8261C38.3996 27.8261 37.938 28.2877 37.938 28.8571V33.4174C37.938 35.91 35.91 37.938 33.4174 37.938H28.8571C28.2877 37.938 27.8261 38.3996 27.8261 38.969C27.8261 39.5384 28.2877 40 28.8571 40H33.4174C37.047 40 40 37.047 40 33.4174ZM27.1412 29.6361C27.5666 29.2451 27.5929 28.5849 27.2 28.1616C26.807 27.7382 26.1438 27.712 25.7184 28.103C24.2049 29.4945 22.2358 30.2608 20.1739 30.2608C18.112 30.2608 16.1429 29.4945 14.6294 28.103C14.204 27.712 13.5408 27.7382 13.1479 28.1616C12.755 28.5849 12.7813 29.2451 13.2066 29.6361C15.1087 31.3848 17.583 32.3478 20.1739 32.3478C22.7648 32.3478 25.2391 31.3848 27.1412 29.6361ZM12.1739 38.969C12.1739 38.3996 11.7123 37.938 11.1429 37.938H6.58264C4.09 37.938 2.06203 35.91 2.06203 33.4174V28.8571C2.06203 28.2877 1.60041 27.8261 1.03102 27.8261C0.461617 27.8261 0 28.2877 0 28.8571V33.4174C0 37.047 2.95299 40 6.58264 40H11.1429C11.7123 40 12.1739 39.5384 12.1739 38.969ZM29.2174 18.091V14.9524C29.2174 14.3784 28.7502 13.913 28.1739 13.913C27.5976 13.913 27.1304 14.3784 27.1304 14.9524V18.091C27.1304 18.6651 27.5976 19.1304 28.1739 19.1304C28.7502 19.1304 29.2174 18.6651 29.2174 18.091ZM22.2609 22.3768V14.9565C22.2609 14.3802 21.7977 13.913 21.2262 13.913C20.6548 13.913 20.1916 14.3802 20.1916 14.9565V22.3768C20.1916 22.6965 19.9337 22.9565 19.6168 22.9565H18.7738C18.2023 22.9565 17.7391 23.4237 17.7391 24C17.7391 24.5763 18.2023 25.0435 18.7738 25.0435H19.6168C21.0748 25.0435 22.2609 23.8472 22.2609 22.3768ZM11.8261 19.1304C11.2498 19.1304 10.7826 18.6651 10.7826 18.091V14.9524C10.7826 14.3784 11.2498 13.913 11.8261 13.913C12.4024 13.913 12.8696 14.3784 12.8696 14.9524V18.091C12.8696 18.6651 12.4024 19.1304 11.8261 19.1304ZM40 11.1429V6.58264C40 2.95295 37.047 0 33.4174 0H28.8571C28.2877 0 27.8261 0.461617 27.8261 1.03102C27.8261 1.60041 28.2877 2.06203 28.8571 2.06203H33.4174C35.91 2.06203 37.938 4.08996 37.938 6.58264V11.1429C37.938 11.7123 38.3996 12.1739 38.969 12.1739C39.5384 12.1739 40 11.7123 40 11.1429ZM2.06203 11.1429V6.58264C2.06203 4.08996 4.09 2.06203 6.58264 2.06203H11.1429C11.7123 2.06203 12.1739 1.60041 12.1739 1.03102C12.1739 0.461617 11.7123 0 11.1429 0H6.58264C2.95299 0 0 2.95295 0 6.58264V11.1429C0 11.7123 0.461617 12.1739 1.03102 12.1739C1.60041 12.1739 2.06203 11.7123 2.06203 11.1429Z" fill="black"/>
</svg>
