<svg width="40" height="40" viewBox="0 0 40 40" fill="none" xmlns="http://www.w3.org/2000/svg">
<path d="M39.484 15.7051C37.161 5.07626 26.7317 -1.7605 16.0272 0.39793C15.7754 0.448704 15.6124 0.693996 15.6632 0.945805C15.7139 1.19761 15.9592 1.36058 16.211 1.30981C26.52 -0.768869 36.5613 5.90277 38.64 16.2122C38.646 16.2419 38.6547 16.2705 38.6658 16.2976L38.7483 16.7322C38.8991 17.6029 38.9892 18.4772 39.0189 19.3509C39.0276 19.6076 39.2428 19.8086 39.4995 19.7999C39.7563 19.7912 39.9573 19.576 39.9486 19.3193C39.9112 18.2198 39.7827 17.1195 39.5623 16.0264C39.5556 15.993 39.5455 15.9612 39.5324 15.9313L39.484 15.7051Z" fill="#FB7B7B"/>
<path d="M13.7261 1.48881C13.6384 1.24738 13.3715 1.12277 13.1301 1.21049C3.90572 4.56213 -1.56288 14.2057 0.396506 23.9235C0.403305 23.9572 0.413591 23.9893 0.426913 24.0196L0.498464 24.3508L0.598065 24.7735C0.659713 25.0229 0.911842 25.1751 1.16121 25.1134C1.41058 25.0518 1.56276 24.7997 1.50111 24.5503C1.43518 24.2836 1.37448 24.0128 1.3189 23.7376C1.31253 23.706 1.30312 23.6759 1.29103 23.6474L1.24539 23.4127C-0.436519 14.2591 4.75786 5.24225 13.4478 2.0848C13.6892 1.99708 13.8138 1.73024 13.7261 1.48881Z" fill="#FB7B7B"/>
<path d="M20.4354 19.883C20.3846 19.6312 20.1393 19.4682 19.8875 19.519C19.6357 19.5698 19.4727 19.815 19.5235 20.0669C20.5207 25.0125 19.7556 30.0391 17.4342 34.4014C17.3136 34.6281 17.3996 34.9098 17.6264 35.0305C17.8531 35.1511 18.1348 35.0651 18.2555 34.8384C20.6771 30.2876 21.4756 25.0418 20.4354 19.883Z" fill="#FB7B7B"/>
<path d="M17.238 35.697C17.0212 35.5592 16.7338 35.6233 16.596 35.8401C15.9971 36.7827 15.3259 37.6779 14.5889 38.5168C14.4193 38.7097 14.4383 39.0036 14.6313 39.1732C14.8243 39.3427 15.1181 39.3237 15.2877 39.1307C16.0564 38.2558 16.7565 37.3221 17.3812 36.339C17.5189 36.1222 17.4548 35.8348 17.238 35.697Z" fill="#FB7B7B"/>
<path d="M19.398 17.1161C20.979 16.7973 22.517 17.822 22.8258 19.4011C23.4348 22.4208 23.4789 25.4763 22.9766 28.4505C22.9338 28.7038 22.6938 28.8744 22.4405 28.8317C22.1872 28.7889 22.0166 28.5489 22.0593 28.2956C22.5427 25.4332 22.5003 22.4926 21.9134 19.5823C21.7032 18.5075 20.6578 17.811 19.5819 18.028C18.5067 18.2449 17.8108 19.2923 18.0275 20.3666C19.366 26.917 17.3363 33.5811 12.7496 38.2846C12.5702 38.4685 12.2758 38.4723 12.0919 38.2929C11.908 38.1136 11.9042 37.8191 12.0836 37.6352C16.4574 33.1499 18.3922 26.7977 17.1158 20.5517C16.7974 18.9726 17.8192 17.4346 19.398 17.1161Z" fill="#FB7B7B"/>
<path d="M22.1653 30.102C22.4136 30.1679 22.5615 30.4225 22.4957 30.6708C21.6319 33.9281 20.1108 36.9803 18.0356 39.6358C17.8775 39.8382 17.5851 39.874 17.3827 39.7159C17.1803 39.5577 17.1445 39.2654 17.3027 39.063C19.3006 36.5063 20.7651 33.5678 21.5965 30.4324C21.6551 30.2117 21.8628 30.0703 22.0826 30.0879L22.1653 30.102Z" fill="#FB7B7B"/>
<path d="M25.2162 18.9192C24.6383 16.0204 21.8158 14.1431 18.9165 14.7278C18.6647 14.7786 18.5017 15.0239 18.5525 15.2757C18.6033 15.5275 18.8486 15.6905 19.1004 15.6397C21.4955 15.1566 23.8266 16.7072 24.3041 19.1021C25.3154 24.1176 24.8532 29.2078 23.0348 33.8713C22.9415 34.1107 23.0598 34.3803 23.2991 34.4736C23.5385 34.567 23.8081 34.4486 23.9015 34.2093C25.7841 29.3809 26.2628 24.1098 25.2162 18.9192Z" fill="#FB7B7B"/>
<path d="M17.0758 15.4734C17.2918 15.3343 17.5796 15.3966 17.7187 15.6125C17.8578 15.8285 17.7956 16.1163 17.5796 16.2554C16.0618 17.2333 15.2762 19.0495 15.6388 20.8477C16.5084 25.0809 15.7791 29.3936 13.6607 33.0701C13.5325 33.2927 13.2481 33.3692 13.0255 33.2409C12.803 33.1127 12.7265 32.8283 12.8547 32.6057C14.8608 29.1241 15.5509 25.0428 14.7273 21.0333C14.288 18.855 15.2388 16.6569 17.0758 15.4734Z" fill="#FB7B7B"/>
<path d="M12.6859 33.7729C12.4759 33.625 12.1858 33.6754 12.0379 33.8854C11.3801 34.8195 10.6282 35.6841 9.79413 36.4644C9.60655 36.6399 9.59675 36.9343 9.77225 37.1218C9.94774 37.3094 10.2421 37.3192 10.4297 37.1437C11.3102 36.3199 12.1041 35.4071 12.7984 34.421C12.9463 34.211 12.896 33.9208 12.6859 33.7729Z" fill="#FB7B7B"/>
<path d="M23.0336 35.0986C22.8003 34.9912 22.5241 35.0932 22.4166 35.3265C21.793 36.6806 21.0557 37.9804 20.2136 39.211C20.0685 39.423 20.1228 39.7124 20.3348 39.8575C20.5468 40.0026 20.8362 39.9483 20.9813 39.7363C21.8529 38.4626 22.616 37.1173 23.2615 35.7157C23.369 35.4823 23.267 35.2061 23.0336 35.0986Z" fill="#FB7B7B"/>
<path d="M27.6101 18.4357L27.6856 18.8101L27.6798 18.8125L27.7676 19.2997C28.966 26.2845 27.6386 33.3385 24.1089 39.3556C23.9789 39.5772 23.694 39.6515 23.4724 39.5215C23.2508 39.3915 23.1766 39.1065 23.3066 38.885C26.867 32.8155 28.114 25.6591 26.6947 18.621L26.6495 18.3967C25.8036 14.8103 22.2575 12.5176 18.6188 13.2514C15.0487 13.9713 12.6896 17.342 13.178 20.9009L13.2642 21.3288C14.353 26.7292 12.4239 32.2076 8.33432 35.7495C8.14015 35.9176 7.84641 35.8966 7.67824 35.7024C7.51007 35.5082 7.53115 35.2145 7.72533 35.0463C11.4517 31.819 13.2665 26.8803 12.4348 21.9577L12.4285 21.9588L12.3389 21.515C11.4884 17.2977 14.2176 13.1899 18.435 12.3395C22.652 11.4891 26.7597 14.2184 27.6101 18.4357Z" fill="#FB7B7B"/>
<path d="M27.391 38.3888C30.459 32.0912 31.4105 24.9653 29.9971 17.9553C28.8823 12.4182 23.4901 8.83475 17.9535 9.95113C12.5063 11.0496 8.95015 16.2874 9.89999 21.729L9.95035 21.9967C10.8296 26.3019 9.22643 30.6688 5.88314 33.4072C5.68441 33.57 5.65527 33.863 5.81804 34.0617C5.98081 34.2604 6.27386 34.2896 6.47258 34.1268C10 31.2376 11.733 26.6664 10.9213 22.1216L10.862 21.8117C9.84749 16.78 13.1045 11.8779 18.1374 10.863C23.1702 9.84819 28.0718 13.1055 29.0852 18.1391C30.4579 24.9473 29.5341 31.8657 26.5548 37.9814C26.4423 38.2123 26.5383 38.4907 26.7692 38.6032C27.0001 38.7157 27.2785 38.6197 27.391 38.3888Z" fill="#FB7B7B"/>
<path d="M17.4718 7.56287C21.3245 6.78598 25.243 7.83481 28.1807 10.3315C28.3765 10.4978 28.4003 10.7914 28.2339 10.9871C28.0676 11.1828 27.774 11.2067 27.5783 11.0403C24.8555 8.72627 21.226 7.7548 17.6557 8.47475C11.7144 9.67276 7.6782 15.1953 8.30351 21.1804C8.3302 21.4359 8.14472 21.6647 7.88924 21.6914C7.63375 21.718 7.405 21.5326 7.37831 21.2771C6.70328 14.8161 11.0593 8.8559 17.4718 7.56287Z" fill="#FB7B7B"/>
<path d="M29.6156 11.7633C29.4488 11.5679 29.1553 11.5447 28.9598 11.7114C28.7644 11.8781 28.7412 12.1717 28.9079 12.3671C30.1902 13.87 31.0755 15.6759 31.475 17.6566C32.0705 20.6086 32.268 23.587 32.0748 26.5355C32.058 26.7918 32.2522 27.0132 32.5086 27.03C32.7649 27.0468 32.9863 26.8526 33.0031 26.5963C33.2016 23.566 32.9986 20.5054 32.3868 17.4727C31.9559 15.336 30.9999 13.3857 29.6156 11.7633Z" fill="#FB7B7B"/>
<path d="M8.12564 22.8825C8.38122 22.8567 8.60932 23.0429 8.63513 23.2985C8.98461 26.7601 7.5389 30.1418 4.85295 32.2995C4.65269 32.4604 4.35993 32.4285 4.19905 32.2282C4.03818 32.028 4.0701 31.7352 4.27036 31.5743C6.71276 29.6122 8.02719 26.5376 7.7096 23.392C7.6838 23.1364 7.87006 22.9083 8.12564 22.8825Z" fill="#FB7B7B"/>
<path d="M32.3639 27.7072L32.4478 27.7092C32.703 27.7382 32.8865 27.9686 32.8575 28.2238C32.5296 31.1135 31.8365 33.9446 30.7998 36.6549C30.708 36.8948 30.4391 37.0149 30.1992 36.9231C29.9592 36.8314 29.8391 36.5625 29.9309 36.3226C30.9398 33.6852 31.6142 30.9305 31.9332 28.1189C31.959 27.892 32.1439 27.7219 32.3639 27.7072Z" fill="#FB7B7B"/>
<path d="M34.778 16.9915C33.1268 8.8163 25.1644 3.52645 16.9903 5.17451C16.7385 5.22528 16.5755 5.47057 16.6263 5.72238C16.677 5.97419 16.9223 6.13717 17.1741 6.0864C24.8447 4.53986 32.3167 9.50387 33.8661 17.1755C34.0192 17.9349 34.1479 18.6964 34.252 19.4591C34.2868 19.7136 34.5213 19.8917 34.7758 19.857C35.0303 19.8222 35.2084 19.5877 35.1737 19.3332C35.0669 18.5511 34.935 17.7703 34.778 16.9915Z" fill="#FB7B7B"/>
<path d="M14.5338 5.8885C14.7735 5.79622 15.0427 5.91576 15.135 6.1555C15.2272 6.39523 15.1077 6.66437 14.868 6.75664C8.56628 9.18212 4.83086 15.7719 6.02544 22.4614L6.13575 23.0473C6.59322 25.7709 5.56948 28.5028 3.48527 30.2688C3.28929 30.4348 2.9958 30.4106 2.82973 30.2146C2.66367 30.0186 2.68793 29.7251 2.88391 29.5591C4.71569 28.0069 5.6169 25.6098 5.22084 23.2165L5.11252 22.6406C3.83109 15.5054 7.8124 8.47553 14.5338 5.8885Z" fill="#FB7B7B"/>
<path d="M34.9114 21.1366C35.1676 21.1172 35.3909 21.3092 35.4102 21.5654C35.7236 25.7165 35.3324 29.8548 34.2708 33.8365C34.2047 34.0847 33.9498 34.2323 33.7016 34.1661C33.4534 34.0999 33.3058 33.8451 33.372 33.5968C34.4068 29.7156 34.7881 25.6819 34.4826 21.6354C34.4633 21.3792 34.6553 21.1559 34.9114 21.1366Z" fill="#FB7B7B"/>
<path d="M16.5088 2.78626C22.568 1.56453 28.7198 3.61348 32.8468 8.06304C33.0215 8.25138 33.0105 8.54566 32.8221 8.72035C32.6338 8.89503 32.3395 8.88397 32.1648 8.69563C28.2558 4.48118 22.431 2.54111 16.6926 3.69814C11.2947 4.78655 6.87712 8.43069 4.72945 13.3896C4.62736 13.6253 4.35351 13.7336 4.1178 13.6316C3.88208 13.5295 3.77375 13.2556 3.87584 13.0199C6.14329 7.78442 10.8091 3.93551 16.5088 2.78626Z" fill="#FB7B7B"/>
<path d="M34.5057 10.15C34.3617 9.93733 34.0725 9.88167 33.8598 10.0257C33.6471 10.1697 33.5914 10.4589 33.7355 10.6716C34.9569 12.4753 35.8153 14.5107 36.2565 16.6936C36.5441 18.1195 36.7506 19.5518 36.8765 20.986C36.8989 21.2419 37.1246 21.4312 37.3805 21.4087C37.6364 21.3862 37.8256 21.1606 37.8032 20.9047C37.6742 19.4361 37.4628 17.9695 37.1684 16.5095C36.7025 14.2052 35.7959 12.0552 34.5057 10.15Z" fill="#FB7B7B"/>
<path d="M3.54586 15.3024C3.79471 15.3661 3.9448 15.6195 3.8811 15.8683C3.2675 18.2652 3.19668 20.7776 3.69649 23.2563C4.04719 24.9641 3.54128 26.7034 2.37579 27.9608C2.20117 28.1492 1.90688 28.1604 1.71849 27.9857C1.53009 27.8111 1.51893 27.5168 1.69355 27.3284C2.65738 26.2886 3.07482 24.8535 2.78494 23.4418C2.25698 20.8234 2.33179 18.1694 2.97993 15.6376C3.03655 15.4164 3.24304 15.2733 3.46301 15.2889L3.54586 15.3024Z" fill="#FB7B7B"/>
<path d="M37.4697 23.0377C37.7266 23.0321 37.9393 23.2358 37.9449 23.4926C37.9867 25.4058 37.8887 27.313 37.6535 29.2022C37.6217 29.4571 37.3894 29.638 37.1345 29.6063C36.8796 29.5745 36.6986 29.3422 36.7304 29.0873C36.96 27.2428 37.0557 25.3808 37.0149 23.5129C37.0093 23.2561 37.2129 23.0433 37.4697 23.0377Z" fill="#FB7B7B"/>
</svg>
