<svg width="61" height="24" viewBox="0 0 61 24" fill="none" xmlns="http://www.w3.org/2000/svg">
<g clip-path="url(#clip0_9540_2337)">
<path d="M28.5841 18.7601H26.3523V1.3863H32.2715C32.9781 1.37154 33.6806 1.49685 34.3384 1.755C34.9963 2.01315 35.5965 2.39903 36.1045 2.89037C36.6176 3.35188 37.0259 3.91787 37.3021 4.5503C37.5783 5.18273 37.7158 5.86696 37.7056 6.55698C37.7203 7.2507 37.5848 7.93939 37.3085 8.57585C37.0321 9.21231 36.6214 9.78149 36.1045 10.2444C35.0694 11.2314 33.7918 11.7244 32.2715 11.7235H28.5841V18.7601ZM28.5841 9.59008H32.327C32.7373 9.60224 33.1457 9.52863 33.5259 9.37395C33.9062 9.21927 34.25 8.98693 34.5353 8.69179C34.8191 8.41584 35.0447 8.08578 35.1988 7.72113C35.3529 7.35647 35.4322 6.96463 35.4322 6.56876C35.4322 6.1729 35.3529 5.78105 35.1988 5.4164C35.0447 5.05174 34.8191 4.72168 34.5353 4.44573C34.2535 4.14438 33.9109 3.90634 33.5302 3.74741C33.1495 3.58849 32.7394 3.51229 32.327 3.52388H28.5841V9.59008Z" fill="#5F6368"/>
<path d="M42.8486 6.4849C44.4982 6.4849 45.8003 6.92572 46.755 7.80737C47.7097 8.68902 48.1865 9.89782 48.1856 11.4338V18.7601H46.0508V17.1104H45.9538C45.0296 18.469 43.8005 19.1482 42.2663 19.1482C40.9568 19.1482 39.8612 18.7601 38.9796 17.9838C38.5565 17.6275 38.2182 17.1813 37.9894 16.6776C37.7606 16.174 37.6471 15.6257 37.6571 15.0727C37.6571 13.8426 38.1219 12.8644 39.0517 12.138C39.9814 11.4116 41.2225 11.0475 42.7751 11.0456C44.1003 11.0456 45.1918 11.2882 46.0494 11.7734V11.2633C46.0519 10.8862 45.9705 10.5134 45.8111 10.1717C45.6516 9.83002 45.4181 9.52812 45.1276 9.28788C44.5374 8.75539 43.7682 8.46485 42.9733 8.47415C41.7266 8.47415 40.7401 9 40.0137 10.0517L38.048 8.81378C39.1293 7.26119 40.7295 6.4849 42.8486 6.4849ZM39.961 15.1212C39.9595 15.4052 40.0259 15.6855 40.1547 15.9387C40.2835 16.1919 40.4709 16.4106 40.7013 16.5767C41.1949 16.965 41.8076 17.1707 42.4355 17.159C43.3773 17.1574 44.2801 16.7825 44.946 16.1165C45.6853 15.4206 46.0549 14.6041 46.0549 13.667C45.3591 13.1125 44.3887 12.8353 43.1438 12.8353C42.2372 12.8353 41.4813 13.0538 40.8759 13.491C40.2646 13.9346 39.961 14.4738 39.961 15.1212Z" fill="#5F6368"/>
<path d="M60.44 6.87304L52.9875 24.0001H50.6836L53.4492 18.0073L48.5488 6.87304H50.9747L54.5166 15.4123H54.5651L58.0099 6.87304H60.44Z" fill="#5F6368"/>
<path d="M19.5654 10.2083C19.5663 9.52813 19.5088 8.84916 19.3935 8.17883H9.98096V12.0229H15.372C15.2617 12.6368 15.0282 13.2221 14.6856 13.7434C14.343 14.2646 13.8984 14.7112 13.3786 15.056V17.5512H16.5961C18.48 15.8143 19.5654 13.2455 19.5654 10.2083Z" fill="#4285F4"/>
<path d="M9.98092 19.9618C12.6744 19.9618 14.9423 19.0774 16.5961 17.5525L13.3786 15.0573C12.4831 15.6645 11.3297 16.011 9.98092 16.011C7.37756 16.011 5.16789 14.256 4.37774 11.8911H1.06323V14.4626C1.89396 16.1157 3.16779 17.5053 4.74251 18.4764C6.31723 19.4474 8.13086 19.9617 9.98092 19.9618Z" fill="#34A853"/>
<path d="M4.37778 11.8912C3.96006 10.652 3.96006 9.30998 4.37778 8.07075V5.49927H1.06328C0.364443 6.88988 0.000488281 8.42465 0.000488281 9.98099C0.000488281 11.5373 0.364443 13.0721 1.06328 14.4627L4.37778 11.8912Z" fill="#FBBC04"/>
<path d="M9.98092 3.95071C11.4043 3.92746 12.7797 4.46525 13.8097 5.44785L16.6584 2.59913C14.8521 0.902471 12.459 -0.029021 9.98092 -7.75786e-05C8.13086 6.73981e-06 6.31723 0.514294 4.74251 1.48537C3.16779 2.45644 1.89396 3.84608 1.06323 5.49915L4.37774 8.07062C5.16789 5.7057 7.37756 3.95071 9.98092 3.95071Z" fill="#EA4335"/>
</g>
<defs>
<clipPath id="clip0_9540_2337">
<rect width="61" height="24" fill="white"/>
</clipPath>
</defs>
</svg>
