<svg width="136" height="40" viewBox="0 0 136 40" fill="none" xmlns="http://www.w3.org/2000/svg">
<rect x="0.5" y="0.5" width="135" height="39" rx="4.5" fill="white" stroke="#121212"/>
<path d="M104.854 7.5H103.973L103.973 13.7607H104.862V11.1309C104.834 10.8219 104.945 10.5165 105.163 10.2964C105.382 10.0763 105.686 9.96389 105.996 9.98925C106.623 9.98925 106.958 10.3535 106.958 11.0728V13.7607H107.848V10.8535C107.907 10.4155 107.767 9.97406 107.467 9.64943C107.168 9.3248 106.738 9.1508 106.297 9.17481C105.715 9.12759 105.166 9.45017 104.924 9.98145H104.854V7.5Z" fill="#121212"/>
<path d="M30.3057 11.2739C31.1172 10.2997 31.517 9.0475 31.4202 7.78327C30.1804 7.91349 29.0351 8.50605 28.2126 9.44288C27.4004 10.3672 26.989 11.5764 27.0689 12.8043C28.3254 12.8172 29.5183 12.2532 30.3057 11.2739Z" fill="#121212"/>
<path fill-rule="evenodd" clip-rule="evenodd" d="M46.0946 7.794C46.8836 7.73738 47.6563 8.03755 48.2002 8.61187C48.7441 9.1862 49.0017 9.97414 48.9022 10.7588C48.9022 12.6651 47.872 13.7608 46.0946 13.7608H43.9393V7.794H46.0946ZM44.8661 12.917H45.9911C46.5549 12.9507 47.1039 12.7286 47.4856 12.3123C47.8674 11.8959 48.0412 11.3298 47.9589 10.771C48.0352 10.2145 47.8589 9.65305 47.4781 9.24013C47.0973 8.82722 46.5519 8.60609 45.9911 8.63721H44.8661V12.917Z" fill="#121212"/>
<path d="M101.784 8.13673V9.27833H102.759V10.0269H101.784V12.3423C101.784 12.814 101.978 13.0205 102.42 13.0205C102.534 13.0202 102.647 13.0133 102.759 13V13.7402C102.6 13.7688 102.438 13.784 102.276 13.7857C101.287 13.7857 100.894 13.438 100.894 12.5698V10.0268H100.179V9.27829H100.894V8.13673H101.784Z" fill="#121212"/>
<path d="M92.9379 9.25782H93.7933V9.97315H93.8598C94.0907 9.44648 94.6303 9.12431 95.2035 9.1709C95.6473 9.13753 96.0822 9.30779 96.3854 9.6336C96.6886 9.95941 96.8272 10.4054 96.7621 10.8457V13.7607H95.8734V11.0689C95.8734 10.3452 95.559 9.98536 94.9017 9.98536C94.6007 9.97134 94.3086 10.0895 94.1019 10.3088C93.8952 10.5282 93.7947 10.8268 93.8265 11.1265V13.7607H92.9379V9.25782Z" fill="#121212"/>
<path fill-rule="evenodd" clip-rule="evenodd" d="M113.03 12.5449C112.78 13.3943 111.959 13.9431 111.078 13.8477C110.478 13.8635 109.901 13.6146 109.5 13.1671C109.1 12.7195 108.916 12.1185 108.998 11.5234C108.918 10.9268 109.101 10.3248 109.5 9.87345C109.898 9.42209 110.473 9.16578 111.075 9.17091C112.328 9.17091 113.083 10.0269 113.083 11.4409V11.751H109.904V11.8008C109.876 12.1349 109.99 12.4654 110.218 12.711C110.446 12.9566 110.768 13.0945 111.103 13.0908C111.538 13.143 111.961 12.9273 112.174 12.5449L113.03 12.5449ZM109.904 11.0938H112.178C112.201 10.7882 112.093 10.4872 111.882 10.2651C111.671 10.0429 111.376 9.92024 111.07 9.92726C110.759 9.92336 110.46 10.045 110.241 10.2646C110.021 10.4843 109.9 10.7833 109.904 11.0938Z" fill="#121212"/>
<path fill-rule="evenodd" clip-rule="evenodd" d="M70.4851 9.49152C69.7961 9.91904 69.4091 10.7002 69.4862 11.5073C69.4076 12.3154 69.7944 13.098 70.4839 13.5264C71.1735 13.9548 72.0465 13.9548 72.736 13.5264C73.4256 13.098 73.8124 12.3154 73.7338 11.5073C73.8109 10.7002 73.4238 9.91904 72.7349 9.49152C72.0459 9.064 71.1741 9.064 70.4851 9.49152ZM71.6112 9.96047C72.3807 9.96047 72.8192 10.5313 72.8192 11.5073C72.8192 12.4873 72.3807 13.0576 71.6112 13.0576C70.8388 13.0576 70.4042 12.4912 70.4042 11.5073C70.4042 10.5313 70.8388 9.96047 71.6112 9.96047Z" fill="#121212"/>
<path fill-rule="evenodd" clip-rule="evenodd" d="M74.6693 12.4873C74.6693 11.6768 75.2728 11.2095 76.3441 11.1431L77.5639 11.0728V10.6841C77.5639 10.2085 77.2494 9.93996 76.642 9.93996C76.1459 9.93996 75.8021 10.1221 75.7035 10.4405H74.8432C74.934 9.66701 75.6615 9.17092 76.683 9.17092C77.8119 9.17092 78.4486 9.73292 78.4486 10.6841V13.7608H77.5932V13.128H77.5228C77.2323 13.5901 76.7156 13.8602 76.1703 13.8349C75.788 13.8747 75.4068 13.7509 75.1208 13.4942C74.8348 13.2374 74.6708 12.8716 74.6693 12.4873ZM77.5639 12.1026V11.7261L76.4642 11.7964C75.8441 11.8379 75.5629 12.0488 75.5629 12.4458C75.5629 12.8511 75.9144 13.0869 76.3979 13.0869C76.6841 13.1159 76.9697 13.0275 77.1895 12.8419C77.4093 12.6564 77.5444 12.3895 77.5639 12.1026Z" fill="#121212"/>
<path fill-rule="evenodd" clip-rule="evenodd" d="M87.4984 11.5073C87.4212 10.7002 87.8082 9.91911 88.4972 9.4916C89.1861 9.06408 90.0578 9.06408 90.7468 9.4916C91.4357 9.91911 91.8227 10.7002 91.7455 11.5073C91.8242 12.3153 91.4375 13.098 90.748 13.5264C90.0584 13.9548 89.1855 13.9548 88.4959 13.5264C87.8064 13.098 87.4197 12.3153 87.4984 11.5073ZM90.8314 11.5073C90.8314 10.5313 90.3929 9.96047 89.6234 9.96047C88.851 9.96047 88.4164 10.5313 88.4164 11.5073C88.4164 12.4912 88.851 13.0576 89.6234 13.0576C90.393 13.0576 90.8314 12.4873 90.8314 11.5073Z" fill="#121212"/>
<path d="M59.8417 13.7608H58.9198L57.9892 10.4443H57.9188L56.9921 13.7608H56.079L54.8378 9.25782H55.7392L56.5458 12.6938H56.6122L57.538 9.25782H58.3905L59.3163 12.6938H59.3866L60.1893 9.25782H61.078L59.8417 13.7608Z" fill="#121212"/>
<path d="M35.3939 15.2116C33.9485 16.1002 33.0592 17.6672 33.0373 19.3637C33.0394 21.283 34.1888 23.0152 35.9565 23.7628C35.6166 24.8673 35.1041 25.911 34.4381 26.8554C33.5437 28.1933 32.606 29.5003 31.1176 29.5245C30.4098 29.5408 29.9319 29.3373 29.434 29.1252C28.9147 28.9039 28.3735 28.6734 27.5266 28.6734C26.6285 28.6734 26.063 28.9114 25.5177 29.1409C25.0465 29.3392 24.5902 29.5312 23.9472 29.5579C22.5298 29.6104 21.4465 28.1299 20.5196 26.8046C18.667 24.098 17.2244 19.1769 19.1584 15.8285C20.0666 14.1965 21.7646 13.1609 23.6313 13.1006C24.4352 13.0841 25.2066 13.3939 25.883 13.6656C26.4002 13.8734 26.8618 14.0588 27.2398 14.0588C27.5721 14.0588 28.0208 13.8807 28.5438 13.6731C29.3676 13.3462 30.3755 12.9461 31.4027 13.0539C32.9988 13.1039 34.4779 13.9035 35.3939 15.2116Z" fill="#121212"/>
<path d="M79.9789 26.0991C80.1166 27.3306 81.3129 28.1391 82.9476 28.1391C84.5141 28.1391 85.641 27.3305 85.641 26.2202C85.641 25.2563 84.9613 24.6792 83.3519 24.2837L81.7426 23.896C79.4623 23.3452 78.4037 22.2788 78.4037 20.5483C78.4037 18.4057 80.2709 16.934 82.9223 16.934C85.5462 16.934 87.3451 18.4057 87.4057 20.5483H85.5297C85.4174 19.309 84.3929 18.561 82.8959 18.561C81.3988 18.561 80.3744 19.3178 80.3744 20.4194C80.3744 21.2973 81.0287 21.8139 82.6293 22.2094L83.9974 22.5453C86.5453 23.1479 87.6039 24.1713 87.6039 25.9877C87.6039 28.311 85.7533 29.766 82.8099 29.766C80.056 29.766 78.1966 28.3451 78.0765 26.099L79.9789 26.0991Z" fill="#121212"/>
<path fill-rule="evenodd" clip-rule="evenodd" d="M50.5707 26.2027H45.8373L44.7006 29.5591H42.6957L47.1791 17.1411H49.2621L53.7455 29.5591H51.7064L50.5707 26.2027ZM46.3275 24.6538H50.0795L48.2299 19.2065H48.1782L46.3275 24.6538Z" fill="#121212"/>
<path d="M91.6146 18.3628V20.5054H93.3363V21.9771H91.6146V26.9683C91.6146 27.7437 91.9594 28.105 92.7162 28.105C92.9206 28.1014 93.1246 28.0871 93.3275 28.062V29.5249C92.9873 29.5885 92.6414 29.6173 92.2953 29.6108C90.4623 29.6108 89.7474 28.9223 89.7474 27.1665V21.9771H88.431V20.5054H89.7474V18.3628H91.6146Z" fill="#121212"/>
<path fill-rule="evenodd" clip-rule="evenodd" d="M117.653 26.8999C117.403 28.5435 115.802 29.6714 113.754 29.6714C111.12 29.6714 109.486 27.9067 109.486 25.0757C109.486 22.2358 111.129 20.394 113.676 20.394C116.181 20.394 117.756 22.1147 117.756 24.8599V25.4966H111.362V25.6089C111.302 26.2829 111.535 26.9501 112.001 27.4408C112.467 27.9314 113.121 28.1982 113.797 28.1733C114.699 28.2578 115.549 27.74 115.888 26.8999L117.653 26.8999ZM111.37 24.1978L115.897 24.1978C115.931 23.5921 115.71 22.9998 115.289 22.5636C114.867 22.1274 114.283 21.8869 113.676 21.8999C113.065 21.8963 112.478 22.1369 112.045 22.5684C111.612 22.9999 111.369 23.5865 111.37 24.1978Z" fill="#121212"/>
<path fill-rule="evenodd" clip-rule="evenodd" d="M98.6274 20.3941C96.0111 20.3941 94.3334 22.1841 94.3334 25.0327C94.3334 27.8892 95.9945 29.6714 98.6274 29.6714C101.261 29.6714 102.922 27.8892 102.922 25.0327C102.922 22.1841 101.252 20.3941 98.6274 20.3941ZM98.6274 21.9253C100.133 21.9253 101.029 23.0786 101.029 25.0327C101.029 26.9946 100.133 28.1392 98.6274 28.1392C97.1215 28.1392 96.227 26.9946 96.227 25.0327C96.227 23.0874 97.1215 21.9253 98.6274 21.9253Z" fill="#121212"/>
<path fill-rule="evenodd" clip-rule="evenodd" d="M63.4281 25.0327C63.4281 27.8462 61.9223 29.6538 59.6498 29.6538C58.4752 29.7153 57.3688 29.1 56.8012 28.0698H56.7582V32.5542H54.8998V20.5054H56.6986V22.0112H56.7328C57.3256 20.9875 58.4332 20.3725 59.6156 20.4106C61.9134 20.4107 63.4281 22.2271 63.4281 25.0327ZM61.518 25.0327C61.518 23.1997 60.5707 21.9946 59.1254 21.9946C57.7055 21.9946 56.7504 23.2251 56.7504 25.0327C56.7504 26.8569 57.7055 28.0786 59.1254 28.0786C60.5707 28.0786 61.518 26.8823 61.518 25.0327Z" fill="#121212"/>
<path fill-rule="evenodd" clip-rule="evenodd" d="M69.6146 29.6538C71.8871 29.6538 73.393 27.8462 73.393 25.0327C73.393 22.2271 71.8783 20.4107 69.5804 20.4107C68.398 20.3725 67.2904 20.9875 66.6976 22.0112H66.6634V20.5054H64.8646V32.5542H66.723V28.0698H66.766C67.3336 29.1 68.44 29.7153 69.6146 29.6538ZM69.0902 21.9946C70.5355 21.9946 71.4828 23.1997 71.4828 25.0327C71.4828 26.8823 70.5355 28.0786 69.0902 28.0786C67.6703 28.0786 66.7152 26.8569 66.7152 25.0327C66.7152 23.2251 67.6703 21.9946 69.0902 21.9946Z" fill="#121212"/>
<path d="M104.454 20.5054H106.227V22.0464H106.27C106.517 21.0544 107.426 20.3716 108.448 20.4106C108.662 20.4099 108.875 20.4332 109.084 20.48V22.2183C108.814 22.1356 108.532 22.0977 108.249 22.106C107.703 22.0838 107.174 22.3015 106.802 22.702C106.43 23.1025 106.251 23.6457 106.313 24.189V29.5591H104.454L104.454 20.5054Z" fill="#121212"/>
<path fill-rule="evenodd" clip-rule="evenodd" d="M50.9478 9.4916C50.2589 9.91911 49.8719 10.7002 49.9491 11.5073C49.8704 12.3153 50.2571 13.098 50.9466 13.5264C51.6362 13.9548 52.5091 13.9548 53.1986 13.5264C53.8882 13.098 54.2749 12.3153 54.1962 11.5073C54.2734 10.7002 53.8864 9.91911 53.1974 9.4916C52.5085 9.06408 51.6368 9.06408 50.9478 9.4916ZM52.0741 9.96047C52.8436 9.96047 53.2821 10.5313 53.2821 11.5073C53.2821 12.4873 52.8436 13.0576 52.0741 13.0576C51.3017 13.0576 50.8671 12.4912 50.8671 11.5073C50.8671 10.5313 51.3016 9.96047 52.0741 9.96047Z" fill="#121212"/>
<path d="M62.9774 9.25782H62.122L62.122 13.7607H63.0106V11.1265C62.9787 10.8268 63.0793 10.5282 63.286 10.3088C63.4926 10.0895 63.7848 9.97134 64.0858 9.98536C64.7431 9.98536 65.0575 10.3452 65.0575 11.0689V13.7607H65.9462V10.8457C66.0113 10.4054 65.8727 9.95941 65.5695 9.6336C65.2663 9.30779 64.8314 9.13753 64.3876 9.1709C63.8144 9.12431 63.2748 9.44648 63.0438 9.97315H62.9774V9.25782Z" fill="#121212"/>
<path fill-rule="evenodd" clip-rule="evenodd" d="M81.4857 9.18312C80.348 9.18312 79.6166 10.0845 79.6166 11.5073C79.6166 12.9336 80.3402 13.835 81.4857 13.8349C82.0665 13.8564 82.6112 13.5537 82.8998 13.0493H82.9701V13.7607H83.8217V7.5H82.933V9.97312H82.8666C82.5983 9.46447 82.0602 9.15665 81.4857 9.18312ZM81.7377 13.0371C80.9848 13.0371 80.5346 12.4624 80.5346 11.5073C80.5346 10.5601 80.9896 9.98146 81.7377 9.98146C82.4818 9.98146 82.9496 10.5728 82.9496 11.5113C82.9496 12.4541 82.4867 13.0371 81.7377 13.0371Z" fill="#121212"/>
<path d="M68.2509 7.5H67.3622V13.7607H68.2509V7.5Z" fill="#121212"/>
</svg>
