<svg width="39" height="43" viewBox="0 0 39 43" fill="none" xmlns="http://www.w3.org/2000/svg">
<rect width="39" height="43" fill="#FAFAFA"/>
<path d="M38.6301 4.77L37.8501 4.41C32.1014 1.77742 25.8528 0.414719 19.5301 0.414719C13.2073 0.414719 6.95873 1.77742 1.21005 4.41L0.430054 4.77V6.05C0.442961 13.0159 2.10957 19.8791 5.29277 26.0752C8.47597 32.2712 13.0848 37.6229 18.7401 41.69L19.5301 42.26L20.3201 41.69C25.9772 37.624 30.5879 32.2727 33.7729 26.0766C36.9579 19.8806 38.626 13.0167 38.6401 6.05L38.6301 4.77ZM19.5301 38.9V3.12C25.1732 3.10497 30.758 4.26278 35.9301 6.52C35.8466 12.8105 34.3254 18.9985 31.4828 24.6107C28.6403 30.223 24.5518 35.1107 19.5301 38.9Z" fill="#2E42CC"/>
<rect x="-1266.5" y="-34.5" width="1619.53" height="156.6" rx="4.5" stroke="#7B61FF" stroke-dasharray="10 5"/>
</svg>
