<svg width="133" height="41" viewBox="0 0 133 41" fill="none" xmlns="http://www.w3.org/2000/svg">
<path d="M43.5945 12.3185H46.2544V28.837H43.5945V12.3185Z" fill="#2E42CC"/>
<path d="M54.2714 12.3185C59.0003 12.3185 62.9903 15.6519 62.9903 20.6148C62.9903 25.5778 59.0003 28.9482 54.2714 28.9482H48.5819V12.3185H54.2714ZM54.2714 26.3185C57.5964 26.3185 60.3303 24.0963 60.3303 20.6148C60.3303 17.1333 57.5225 14.9111 54.2714 14.9111H51.3158V26.3185H54.2714Z" fill="#2E42CC"/>
<path d="M69.1231 26.6148C70.3792 26.6148 72.6697 26.0963 72.6697 24.4667C72.6697 20.9111 63.877 22.6889 63.877 16.763C63.877 13.3556 67.2758 12.0963 70.1575 12.0963C71.8465 12.1555 73.5057 12.5587 75.0342 13.2815L74.0736 15.6519C72.8424 15.0808 71.5126 14.7538 70.1575 14.6889C68.7536 14.6889 66.6108 14.9852 66.6108 16.837C66.6108 20.4667 75.4036 18.6148 75.4036 24.5407C75.4036 27.8741 72.0047 29.2815 69.1231 29.2815C67.3063 29.1718 65.5264 28.7195 63.877 27.9481L64.9114 25.5778C66.2532 26.1401 67.6741 26.4899 69.1231 26.6148Z" fill="#2E42CC"/>
<path d="M79.6153 19.0593C79.8903 18.3718 80.3731 17.7879 80.9959 17.3894C81.6187 16.9909 82.3503 16.7977 83.0881 16.837C86.1914 16.837 87.3736 19.5037 87.3736 22.2445V28.9111H84.7875V22.3185C84.7875 20.6148 83.9747 19.2815 82.2014 19.2815C80.4281 19.2815 79.6153 20.6148 79.6153 22.3185V28.9482H77.0292V12.3185H79.6153V19.0593Z" fill="#2E42CC"/>
<path d="M88.9991 12.3185H91.6222V15.2815H89.0361L88.9991 12.3185ZM88.9991 17.0593H91.6222V28.9482H89.0361L88.9991 17.0593Z" fill="#2E42CC"/>
<path d="M92.8414 23.0222C92.8414 22.2246 92.9981 21.4347 93.3026 20.6978C93.6071 19.9608 94.0534 19.2912 94.616 18.7272C95.1786 18.1632 95.8465 17.7158 96.5816 17.4105C97.3167 17.1053 98.1046 16.9482 98.9003 16.9482C99.6959 16.9482 100.484 17.1053 101.219 17.4105C101.954 17.7158 102.622 18.1632 103.185 18.7272C103.747 19.2912 104.193 19.9608 104.498 20.6978C104.802 21.4347 104.959 22.2246 104.959 23.0222C104.971 23.4187 104.947 23.8155 104.885 24.2074H95.5014C95.6899 24.9824 96.1372 25.6694 96.7689 26.1544C97.4005 26.6395 98.1787 26.8934 98.9741 26.8741C99.5911 26.8805 100.202 26.7512 100.764 26.4952C101.325 26.2392 101.824 25.8628 102.225 25.3926L103.999 26.9482C100.23 31.1704 92.8414 28.9852 92.8414 23.0222ZM102.299 21.9852C101.412 18.4296 96.2403 18.4296 95.5753 21.9852H102.299Z" fill="#2E42CC"/>
<path d="M106.4 12.3185H108.986V28.837H106.4V12.3185Z" fill="#2E42CC"/>
<path d="M115.673 29.1333C114.886 29.117 114.11 28.9447 113.39 28.6263C112.67 28.3079 112.02 27.8497 111.477 27.2781C110.934 26.7066 110.51 26.033 110.228 25.2962C109.947 24.5594 109.813 23.7739 109.836 22.9852C109.836 19.8 112.348 16.837 115.673 16.837C116.446 16.8315 117.208 17.018 117.892 17.3799C118.575 17.7419 119.158 18.2679 119.589 18.9111V12.3185H122.175V28.837H119.589V26.9852C119.174 27.6488 118.596 28.1947 117.91 28.5708C117.225 28.9468 116.454 29.1405 115.673 29.1333ZM116.043 26.6889C116.525 26.6921 117.003 26.5978 117.449 26.4119C117.894 26.2259 118.298 25.952 118.636 25.6065C118.974 25.2609 119.239 24.8508 119.415 24.4005C119.592 23.9502 119.676 23.4688 119.663 22.9852C119.67 22.5031 119.581 22.0245 119.403 21.5769C119.224 21.1293 118.959 20.7216 118.622 20.3772C118.286 20.0329 117.885 19.7588 117.442 19.5708C116.999 19.3827 116.523 19.2844 116.043 19.2815C115.063 19.2815 114.123 19.6717 113.43 20.3663C112.737 21.0609 112.348 22.0029 112.348 22.9852C112.348 23.9675 112.737 24.9095 113.43 25.6041C114.123 26.2987 115.063 26.6889 116.043 26.6889Z" fill="#2E42CC"/>
<path d="M125.5 12.6889H124.909V14.1704H124.614V12.6889H124.023V12.3926H125.796L126.461 13.2815L127.126 12.3926H127.348V14.1704H127.089V12.9852L126.498 13.8L125.907 12.9852V14.1704H125.611L125.537 12.6889H125.5Z" fill="#2E42CC"/>
<path d="M33.8781 8.54074L33.2869 8.24445C29.0532 6.26822 24.4354 5.25634 19.7653 5.28149C15.0714 5.25616 10.4295 6.26779 6.16972 8.24445L5.57861 8.54074V9.50371C5.59222 14.6683 6.82437 19.7564 9.1744 24.3524C11.5244 28.9484 14.9257 32.9218 19.1003 35.9482L19.6914 36.3926L20.2825 35.9482C24.4689 32.9333 27.8789 28.9622 30.2302 24.3636C32.5816 19.7651 33.8067 14.6712 33.8042 9.50371L33.8781 8.54074ZM19.7653 33.8V7.28148C23.9362 7.2581 28.0652 8.11626 31.8831 9.8C31.8148 14.4605 30.6881 19.0441 28.5884 23.2027C26.4887 27.3613 23.4712 30.9855 19.7653 33.8Z" fill="#2E42CC"/>
</svg>
