<svg width="133" height="41" viewBox="0 0 133 41" fill="none" xmlns="http://www.w3.org/2000/svg">
<path d="M43.5944 12.3185H46.2544V28.837H43.5944V12.3185Z" fill="#2E42CC"/>
<path d="M54.2714 12.3185C59.0003 12.3185 62.9903 15.6519 62.9903 20.6148C62.9903 25.5778 59.0003 28.9482 54.2714 28.9482H48.582V12.3185H54.2714ZM54.2714 26.3185C57.5964 26.3185 60.3303 24.0963 60.3303 20.6148C60.3303 17.1333 57.5225 14.9111 54.2714 14.9111H51.3159V26.3185H54.2714Z" fill="#2E42CC"/>
<path d="M69.1231 26.6148C70.3792 26.6148 72.6697 26.0963 72.6697 24.4667C72.6697 20.9111 63.877 22.6889 63.877 16.763C63.877 13.3556 67.2758 12.0963 70.1575 12.0963C71.8465 12.1555 73.5057 12.5587 75.0342 13.2815L74.0736 15.6519C72.8424 15.0808 71.5126 14.7538 70.1575 14.6889C68.7536 14.6889 66.6108 14.9852 66.6108 16.837C66.6108 20.4667 75.4036 18.6148 75.4036 24.5407C75.4036 27.8741 72.0047 29.2815 69.1231 29.2815C67.3063 29.1718 65.5264 28.7195 63.877 27.9481L64.9114 25.5778C66.2532 26.1401 67.6741 26.4899 69.1231 26.6148Z" fill="#2E42CC"/>
<path d="M79.6153 19.0593C79.8903 18.3718 80.3731 17.7879 80.9959 17.3894C81.6187 16.9909 82.3503 16.7977 83.0881 16.837C86.1914 16.837 87.3736 19.5037 87.3736 22.2445V28.9111H84.7875V22.3185C84.7875 20.6148 83.9747 19.2815 82.2014 19.2815C80.4281 19.2815 79.6153 20.6148 79.6153 22.3185V28.9482H77.0292V12.3185H79.6153V19.0593Z" fill="#2E42CC"/>
<path d="M88.9991 12.3185H91.6222V15.2815H89.0361L88.9991 12.3185ZM88.9991 17.0593H91.6222V28.9482H89.0361L88.9991 17.0593Z" fill="#2E42CC"/>
<path d="M92.8414 23.0222C92.8414 22.2246 92.9981 21.4347 93.3026 20.6978C93.6071 19.9608 94.0534 19.2912 94.616 18.7272C95.1786 18.1632 95.8465 17.7158 96.5816 17.4105C97.3167 17.1053 98.1046 16.9482 98.9003 16.9482C99.6959 16.9482 100.484 17.1053 101.219 17.4105C101.954 17.7158 102.622 18.1632 103.185 18.7272C103.747 19.2912 104.193 19.9608 104.498 20.6978C104.802 21.4347 104.959 22.2246 104.959 23.0222C104.971 23.4187 104.947 23.8155 104.885 24.2074H95.5014C95.6899 24.9824 96.1372 25.6694 96.7689 26.1544C97.4005 26.6395 98.1787 26.8934 98.9741 26.8741C99.5911 26.8805 100.202 26.7512 100.764 26.4952C101.325 26.2392 101.824 25.8628 102.225 25.3926L103.999 26.9482C100.23 31.1704 92.8414 28.9852 92.8414 23.0222ZM102.299 21.9852C101.412 18.4296 96.2403 18.4296 95.5753 21.9852H102.299Z" fill="#2E42CC"/>
<path d="M106.4 12.3185H108.986V28.837H106.4V12.3185Z" fill="#2E42CC"/>
<path d="M115.673 29.1333C114.886 29.117 114.11 28.9447 113.39 28.6263C112.67 28.3079 112.02 27.8497 111.477 27.2781C110.934 26.7066 110.51 26.033 110.228 25.2962C109.947 24.5594 109.813 23.7739 109.836 22.9852C109.836 19.8 112.348 16.837 115.673 16.837C116.446 16.8315 117.208 17.018 117.892 17.3799C118.575 17.7419 119.158 18.2679 119.589 18.9111V12.3185H122.175V28.837H119.589V26.9852C119.174 27.6488 118.596 28.1947 117.91 28.5708C117.225 28.9468 116.454 29.1405 115.673 29.1333ZM116.043 26.6889C116.525 26.6921 117.003 26.5978 117.449 26.4119C117.894 26.2259 118.298 25.952 118.636 25.6065C118.974 25.2609 119.239 24.8508 119.415 24.4005C119.592 23.9502 119.676 23.4688 119.663 22.9852C119.67 22.5031 119.581 22.0245 119.403 21.5769C119.224 21.1293 118.959 20.7216 118.622 20.3772C118.286 20.0329 117.885 19.7588 117.442 19.5708C116.999 19.3827 116.523 19.2844 116.043 19.2815C115.063 19.2815 114.123 19.6717 113.43 20.3663C112.737 21.0609 112.348 22.0029 112.348 22.9852C112.348 23.9675 112.737 24.9095 113.43 25.6041C114.123 26.2987 115.063 26.6889 116.043 26.6889Z" fill="#2E42CC"/>
<path d="M125.5 12.6889H124.909V14.1704H124.614V12.6889H124.023V12.3926H125.796L126.461 13.2815L127.126 12.3926H127.348V14.1704H127.089V12.9852L126.498 13.8L125.907 12.9852V14.1704H125.611L125.537 12.6889H125.5Z" fill="#2E42CC"/>
<path d="M33.8781 8.54074L33.2869 8.24445C29.0532 6.26822 24.4354 5.25634 19.7653 5.28149C15.0714 5.25616 10.4295 6.26779 6.16972 8.24445L5.57861 8.54074V9.50371C5.59222 14.6683 6.82437 19.7564 9.1744 24.3524C11.5244 28.9484 14.9257 32.9218 19.1003 35.9482L19.6914 36.3926L20.2825 35.9482C24.4689 32.9333 27.8789 28.9622 30.2302 24.3636C32.5816 19.7651 33.8067 14.6712 33.8042 9.50371L33.8781 8.54074ZM19.7653 33.8V7.28148C23.9362 7.2581 28.0652 8.11626 31.8831 9.8C31.8148 14.4605 30.6881 19.0441 28.5884 23.2027C26.4887 27.3613 23.4712 30.9855 19.7653 33.8Z" fill="#2E42CC"/>
<path d="M92.4646 36.5259C92.4857 36.5256 92.5067 36.5301 92.5259 36.5391C92.5451 36.5481 92.562 36.5613 92.5754 36.5778L92.8783 36.9111C92.6451 37.1815 92.3549 37.3965 92.0286 37.5407C91.6499 37.6998 91.2422 37.778 90.8316 37.7704C90.4491 37.7749 90.0696 37.7018 89.7159 37.5556C89.3901 37.4204 89.0976 37.2157 88.8588 36.9556C88.6173 36.6889 88.4314 36.3767 88.312 36.037C88.1783 35.6565 88.1133 35.2552 88.1199 34.8519C88.1137 34.4497 88.1839 34.05 88.3268 33.6741C88.4563 33.3287 88.655 33.0136 88.9105 32.7482C89.1657 32.487 89.4728 32.2826 89.812 32.1482C90.1838 32.0024 90.5801 31.9295 90.9794 31.9333C91.3489 31.9246 91.7162 31.9927 92.0582 32.1333C92.3572 32.2563 92.6305 32.4348 92.8636 32.6593L92.6197 33.0148L92.5532 33.0815C92.5194 33.091 92.4836 33.091 92.4498 33.0815C92.4139 33.0939 92.3749 33.0939 92.339 33.0815L92.206 32.9926C92.1453 32.9457 92.081 32.9036 92.0138 32.8667C91.9329 32.8215 91.849 32.7819 91.7626 32.7482C91.6523 32.708 91.5385 32.6783 91.4227 32.6593C91.2743 32.6307 91.1231 32.6183 90.972 32.6222C90.6863 32.6196 90.4028 32.6725 90.1371 32.7778C89.8906 32.8766 89.6686 33.0283 89.4868 33.2222C89.2925 33.4354 89.1463 33.688 89.0583 33.963C88.9518 34.2624 88.8993 34.5784 88.9031 34.8963C88.898 35.2215 88.9506 35.5451 89.0583 35.8519C89.1453 36.1241 89.286 36.376 89.4721 36.5926C89.6454 36.7844 89.8603 36.9339 90.1001 37.0296C90.3339 37.1294 90.5849 37.1823 90.839 37.1852C90.9915 37.1975 91.1447 37.1975 91.2971 37.1852C91.4255 37.1654 91.5517 37.1331 91.674 37.0889C91.7869 37.0496 91.8938 36.9947 91.9917 36.9259C92.0996 36.859 92.201 36.7821 92.2946 36.6963C92.3027 36.6541 92.3232 36.6154 92.3535 36.585C92.3838 36.5546 92.4225 36.534 92.4646 36.5259Z" fill="#2E42CC"/>
<path d="M99.048 37.7037H98.4569C98.3958 37.7085 98.3351 37.6899 98.287 37.6519C98.2452 37.6154 98.2123 37.5697 98.1909 37.5185L97.6589 36.1407H95.1098L94.5778 37.5185C94.5571 37.5702 94.5241 37.6159 94.4817 37.6519C94.4329 37.6887 94.3727 37.7071 94.3118 37.7037H93.7206L95.9964 32H96.7944L99.048 37.7037ZM95.3166 35.6148H97.4373L96.5432 33.2963C96.477 33.1192 96.4203 32.9387 96.3733 32.7556C96.3733 32.8667 96.3142 32.963 96.292 33.0593L96.2107 33.2963L95.3166 35.6148Z" fill="#2E42CC"/>
<path d="M100.644 32C100.695 31.9905 100.748 31.9905 100.799 32C100.842 32.0311 100.879 32.0686 100.91 32.1111L104.183 36.4296C104.18 36.363 104.18 36.2963 104.183 36.2296C104.183 36.163 104.183 36.1037 104.183 36.037V32H104.863V37.7037H104.472C104.42 37.7157 104.367 37.7157 104.316 37.7037C104.27 37.675 104.23 37.6372 104.198 37.5926L100.903 33.2963C100.906 33.3629 100.906 33.4297 100.903 33.4963C100.903 33.5556 100.903 33.6148 100.903 33.6667V37.7333H100.223V32.0296L100.644 32Z" fill="#2E42CC"/>
<path d="M111.41 37.7037H110.833C110.772 37.7085 110.712 37.6899 110.663 37.6519C110.619 37.6174 110.586 37.5712 110.567 37.5185L110.035 36.1407H107.479L106.947 37.5185C106.929 37.5732 106.895 37.6207 106.848 37.6541C106.801 37.6875 106.745 37.7049 106.688 37.7037H106.09L108.365 32H109.149L111.41 37.7037ZM107.678 35.6148H109.806L108.912 33.2963C108.843 33.1204 108.786 32.9397 108.742 32.7556C108.742 32.8667 108.683 32.963 108.654 33.0593C108.633 33.1404 108.606 33.2197 108.572 33.2963L107.678 35.6148Z" fill="#2E42CC"/>
<path d="M117.535 34.8741C117.54 35.2731 117.472 35.6697 117.336 36.0444C117.209 36.3791 117.015 36.6842 116.767 36.9407C116.514 37.1932 116.212 37.39 115.88 37.5185C115.515 37.6618 115.126 37.7322 114.735 37.7259H112.607V32.0222H114.735C115.126 32.0159 115.515 32.0864 115.88 32.2296C116.219 32.354 116.527 32.551 116.782 32.8069C117.037 33.0627 117.234 33.3713 117.358 33.7111C117.487 34.0847 117.547 34.4788 117.535 34.8741ZM116.744 34.8741C116.75 34.5549 116.703 34.2369 116.604 33.9333C116.518 33.6755 116.38 33.4384 116.198 33.237C116.024 33.0417 115.806 32.8917 115.562 32.8C115.3 32.6932 115.018 32.6403 114.735 32.6444H113.383V37.0889H114.735C115.018 37.093 115.3 37.0401 115.562 36.9333C115.806 36.8416 116.024 36.6916 116.198 36.4963C116.381 36.296 116.52 36.0585 116.604 35.8C116.702 35.5013 116.749 35.1884 116.744 34.8741Z" fill="#2E42CC"/>
<path d="M123.579 37.7037H122.981C122.922 37.7073 122.864 37.6888 122.818 37.6519C122.774 37.6174 122.741 37.5712 122.722 37.5185L122.19 36.1407H119.634L119.102 37.5185C119.083 37.5716 119.05 37.618 119.005 37.6519C118.96 37.6888 118.902 37.7073 118.843 37.7037H118.222L120.498 32H121.281L123.579 37.7037ZM119.848 35.6148H121.976L121.082 33.2963C121.012 33.1204 120.955 32.9397 120.912 32.7556C120.912 32.8667 120.853 32.963 120.823 33.0593C120.794 33.1556 120.771 33.2296 120.742 33.2963L119.848 35.6148Z" fill="#2E42CC"/>
</svg>
