<svg width="40" height="43" viewBox="0 0 40 43" fill="none" xmlns="http://www.w3.org/2000/svg">
<rect width="40" height="43" fill="white"/>
<path d="M39.1 5L38.32 4.64C32.5713 2.00742 26.3228 0.644722 20 0.644722C13.6772 0.644722 7.4287 2.00742 1.68002 4.64L0.900024 5V6.27C0.912932 13.2359 2.57954 20.0991 5.76274 26.2952C8.94594 32.4912 13.5548 37.8429 19.21 41.91L20 42.47L20.79 41.91C26.4471 37.844 31.0579 32.4927 34.2429 26.2966C37.4278 20.1006 39.096 13.2367 39.11 6.27L39.1 5ZM20 39.11V3.34C25.6432 3.32498 31.2279 4.48279 36.4 6.74C36.318 13.0293 34.7974 19.2164 31.9547 24.8273C29.112 30.4381 25.0227 35.3238 20 39.11Z" fill="#C80000"/>
<rect x="-1053.5" y="-34.5" width="1619.53" height="156.6" rx="4.5" stroke="#7B61FF" stroke-dasharray="10 5"/>
</svg>
