<svg width="167" height="41" viewBox="0 0 167 41" fill="none" xmlns="http://www.w3.org/2000/svg">
<path d="M50.8422 25.563H45.4834V11.6H42.7891V28.1333H52.6161C51.8651 27.398 51.2629 26.5254 50.8422 25.563Z" fill="#C80000"/>
<path d="M52.1559 22.237C52.1559 20.6241 52.798 19.0773 53.9407 17.9368C55.0835 16.7963 56.6335 16.1556 58.2496 16.1556C59.8657 16.1556 61.4157 16.7963 62.5585 17.9368C63.7012 19.0773 64.3432 20.6241 64.3432 22.237C64.3419 22.631 64.3146 23.0244 64.2616 23.4148H54.8428C55.0402 24.1867 55.4959 24.8682 56.1343 25.3464C56.7728 25.8246 57.5557 26.0709 58.3535 26.0445C58.9738 26.047 59.5872 25.9159 60.1521 25.6602C60.717 25.4046 61.22 25.0303 61.6267 24.563L63.4155 26.1333C59.5262 30.4296 52.1559 28.2074 52.1559 22.237ZM61.6044 21.1778C60.7509 17.5926 55.5331 17.637 54.828 21.1778H61.6044Z" fill="#C80000"/>
<path d="M71.1791 28.363C70.3923 28.3534 69.6153 28.1879 68.8932 27.8761C68.171 27.5642 67.5182 27.1122 66.9726 26.5464C66.4271 25.9805 65.9996 25.3121 65.7152 24.5799C65.4307 23.8478 65.2949 23.0665 65.3156 22.2815C65.3156 19.0889 67.8614 16.1333 71.1494 16.1333C71.921 16.1175 72.684 16.2974 73.3669 16.6563C74.0497 17.0152 74.6301 17.5412 75.0535 18.1852V16.3556H77.6216V26.7852C77.6216 30.7333 75.625 33.3037 71.5131 33.3037C70.2958 33.3399 69.0937 33.027 68.0491 32.402C67.0046 31.7771 66.1615 30.8664 65.6199 29.7778L67.8465 28.6C68.149 29.3075 68.659 29.9071 69.3096 30.3196C69.9601 30.7322 70.7206 30.9384 71.4909 30.9111C74.0886 30.9111 75.0016 29.1333 75.0313 26.7852V26.2963C74.6133 26.9346 74.0418 27.4581 73.3688 27.8191C72.6959 28.1801 71.9431 28.3671 71.1791 28.363ZM71.5725 25.9407C72.3065 25.9407 73.024 25.7235 73.6343 25.3166C74.2446 24.9096 74.7202 24.3312 75.0011 23.6544C75.282 22.9776 75.3555 22.2329 75.2123 21.5145C75.0691 20.796 74.7157 20.1361 74.1966 19.6181C73.6776 19.1002 73.0164 18.7474 72.2965 18.6045C71.5766 18.4616 70.8304 18.5349 70.1523 18.8153C69.4742 19.0956 68.8946 19.5703 68.4868 20.1794C68.079 20.7884 67.8614 21.5045 67.8614 22.237C67.8544 22.7254 67.9456 23.2101 68.1296 23.6626C68.3136 24.1151 68.5867 24.5262 68.9328 24.8715C69.2788 25.2168 69.6907 25.4894 70.1441 25.673C70.5975 25.8567 71.0832 25.9477 71.5725 25.9407Z" fill="#C80000"/>
<path d="M84.8583 28.363C84.074 28.3495 83.3002 28.1812 82.5815 27.8676C81.8628 27.554 81.2135 27.1014 80.671 26.5359C80.1286 25.9705 79.7038 25.3034 79.4212 24.5731C79.1386 23.8429 79.0037 23.064 79.0244 22.2815C79.0244 19.0889 81.5628 16.1333 84.8583 16.1333C85.6296 16.1188 86.3921 16.2994 87.0747 16.6581C87.7574 17.0169 88.3379 17.5422 88.7624 18.1852V16.3556H91.2933V28.1333H88.7327V26.2963C88.3127 26.9377 87.7376 27.4633 87.0605 27.8245C86.3834 28.1856 85.626 28.3708 84.8583 28.363ZM85.2517 25.9407C85.9856 25.9407 86.7031 25.7235 87.3134 25.3166C87.9237 24.9096 88.3994 24.3311 88.6803 23.6544C88.9612 22.9776 89.0346 22.2329 88.8915 21.5145C88.7483 20.796 88.3948 20.1361 87.8758 19.6181C87.3568 19.1001 86.6955 18.7474 85.9757 18.6045C85.2558 18.4616 84.5096 18.5349 83.8315 18.8153C83.1534 19.0956 82.5738 19.5703 82.166 20.1794C81.7582 20.7884 81.5405 21.5045 81.5405 22.237C81.5325 22.7256 81.623 23.2108 81.8067 23.6638C81.9903 24.1168 82.2634 24.5283 82.6096 24.8738C82.9558 25.2193 83.3681 25.4918 83.822 25.6751C84.2759 25.8584 84.7621 25.9487 85.2517 25.9407Z" fill="#C80000"/>
<path d="M93.8169 11.6H96.3776V28.1333H93.8169V11.6Z" fill="#C80000"/>
<path d="M32.9398 7.80001L32.3609 7.53335C28.0981 5.5877 23.4656 4.58066 18.7782 4.58066C14.0908 4.58066 9.45832 5.5877 5.19556 7.53335L4.61662 7.80001V8.74816C4.62281 13.9055 5.85524 18.9878 8.21262 23.5772C10.57 28.1667 13.985 32.1323 18.177 35.1482L18.7634 35.563L19.3497 35.1482C23.5486 32.1363 26.9708 28.1724 29.3347 23.5827C31.6987 18.993 32.9368 13.9087 32.9472 8.74816L32.9398 7.80001ZM18.7708 33.0741V6.57779C22.9592 6.56752 27.1041 7.42512 30.9432 9.09631C30.8824 13.7551 29.7537 18.3381 27.6438 22.4943C25.5339 26.6505 22.4987 30.2695 18.7708 33.0741Z" fill="#C80000"/>
<path d="M103.911 25.7852C105.173 25.7852 107.474 25.2667 107.474 23.637C107.474 20.0815 98.6413 21.8593 98.6413 15.9333C98.6413 12.5259 102.056 11.2667 104.95 11.2667C106.647 11.3258 108.314 11.7291 109.849 12.4518L108.884 14.8222C107.647 14.2511 106.311 13.9241 104.95 13.8593C103.54 13.8593 101.388 14.1556 101.388 16.0074C101.388 19.637 110.22 17.7852 110.22 23.7111C110.22 27.0444 106.806 28.4518 103.911 28.4518C102.086 28.3422 100.298 27.8898 98.6413 27.1185L99.6804 24.7481C101.028 25.3104 102.456 25.6603 103.911 25.7852Z" fill="#C80000"/>
<path d="M114.473 18.2296C114.749 17.5422 115.234 16.9583 115.86 16.5597C116.485 16.1612 117.22 15.9681 117.961 16.0074C121.079 16.0074 122.266 18.6741 122.266 21.4148V28.0815H119.668V21.4889C119.668 19.7852 118.852 18.4519 117.071 18.4519C115.289 18.4519 114.473 19.7852 114.473 21.4889V28.0815H111.875V11.4889H114.473V18.2296Z" fill="#C80000"/>
<path d="M123.899 11.4889H126.497V14.4519H123.899V11.4889ZM123.899 16.2296H126.497V28.0815H123.899V16.2296Z" fill="#C80000"/>
<path d="M127.759 22.1556C127.759 20.5446 128.4 18.9996 129.541 17.8605C130.683 16.7214 132.231 16.0815 133.845 16.0815C135.459 16.0815 137.007 16.7214 138.149 17.8605C139.29 18.9996 139.931 20.5446 139.931 22.1556C139.943 22.5521 139.919 22.9488 139.857 23.3407H130.431C130.62 24.1157 131.069 24.8027 131.704 25.2878C132.338 25.7728 133.12 26.0268 133.919 26.0074C134.539 26.0138 135.153 25.8845 135.717 25.6285C136.281 25.3726 136.782 24.9962 137.185 24.5259L138.966 26.0815C135.181 30.3037 127.759 28.1556 127.759 22.1556ZM137.259 21.1185C136.368 17.563 131.173 17.563 130.505 21.1185H137.259Z" fill="#C80000"/>
<path d="M141.341 11.4889H143.939V28.0074H141.341V11.4889Z" fill="#C80000"/>
<path d="M150.671 28.3037C149.881 28.2874 149.101 28.1151 148.378 27.7967C147.654 27.4783 147.001 27.0201 146.456 26.4485C145.911 25.8769 145.485 25.2033 145.202 24.4665C144.919 23.7297 144.785 22.9443 144.808 22.1556C144.808 18.9704 147.331 16.0074 150.671 16.0074C151.447 16.0018 152.213 16.1884 152.9 16.5503C153.586 16.9122 154.172 17.4383 154.605 18.0815V11.4889H157.203V28.0074H154.605V26.1556C154.188 26.8192 153.607 27.3651 152.918 27.7411C152.23 28.1172 151.456 28.3109 150.671 28.3037ZM151.042 25.8593C151.527 25.8624 152.007 25.7682 152.455 25.5823C152.903 25.3963 153.308 25.1224 153.647 24.7769C153.987 24.4313 154.253 24.0212 154.43 23.5708C154.607 23.1205 154.692 22.6392 154.679 22.1556C154.686 21.6735 154.597 21.1949 154.418 20.7473C154.238 20.2997 153.972 19.8919 153.634 19.5476C153.296 19.2033 152.893 18.9292 152.448 18.7411C152.003 18.5531 151.525 18.4547 151.042 18.4519C150.058 18.4519 149.114 18.8421 148.418 19.5366C147.722 20.2312 147.331 21.1733 147.331 22.1556C147.331 23.1378 147.722 24.0799 148.418 24.7745C149.114 25.4691 150.058 25.8593 151.042 25.8593Z" fill="#C80000"/>
<path d="M160.565 11.8593H159.971V13.3408H159.674V11.8593H159.081V11.563H160.862L161.53 12.4519L162.198 11.563H162.421V13.3408H162.124V12.1556L161.53 12.9704L160.936 12.1556V13.3408H160.639L160.565 11.8593Z" fill="#C80000"/>
<path d="M127.38 35.6889C127.422 35.6918 127.462 35.7103 127.492 35.7407L127.796 36.0741C127.562 36.3444 127.27 36.5595 126.942 36.7037C126.196 37.0002 125.365 37.0002 124.619 36.7037C124.294 36.5685 124 36.3667 123.758 36.1111C123.516 35.8417 123.329 35.527 123.209 35.1852C123.074 34.8074 123.009 34.4084 123.016 34.0074C123.009 33.6028 123.08 33.2005 123.224 32.8222C123.354 32.4769 123.553 32.1618 123.81 31.8963C124.066 31.6352 124.375 31.4307 124.716 31.2963C125.09 31.1531 125.488 31.0827 125.888 31.0889C126.259 31.078 126.628 31.1436 126.972 31.2815C127.272 31.4045 127.547 31.5829 127.781 31.8074L127.536 32.163L127.469 32.2296C127.435 32.2391 127.399 32.2391 127.365 32.2296C127.324 32.2281 127.285 32.2124 127.254 32.1852L127.12 32.0963C127.059 32.0519 126.995 32.0123 126.927 31.9778C126.848 31.9296 126.763 31.8899 126.675 31.8593C126.565 31.8165 126.45 31.7842 126.334 31.763C126.183 31.7504 126.032 31.7504 125.881 31.763C125.594 31.7604 125.309 31.8132 125.042 31.9185C124.793 32.0172 124.569 32.1718 124.389 32.3704C124.199 32.5733 124.053 32.8128 123.959 33.0741C123.752 33.6868 123.752 34.3502 123.959 34.963C124.049 35.2229 124.19 35.4622 124.374 35.6667C124.55 35.8585 124.765 36.0102 125.005 36.1111C125.253 36.21 125.518 36.2603 125.784 36.2593C125.938 36.2715 126.091 36.2715 126.245 36.2593C126.373 36.2383 126.499 36.2086 126.623 36.1704C126.735 36.128 126.842 36.0734 126.942 36.0074C127.051 35.9378 127.153 35.8584 127.247 35.7704C127.279 35.7274 127.327 35.6984 127.38 35.6889Z" fill="#C80000"/>
<path d="M133.993 36.8667H133.4C133.338 36.8714 133.277 36.8529 133.229 36.8148C133.187 36.7812 133.154 36.738 133.132 36.6889L132.598 35.3111H130.037L129.503 36.6889C129.48 36.7371 129.447 36.78 129.406 36.8148C129.357 36.8517 129.297 36.87 129.236 36.8667H128.642L130.928 31.1704H131.67L133.993 36.8667ZM130.282 34.7482H132.412L131.514 32.4296C131.446 32.2533 131.389 32.0727 131.344 31.8889L131.262 32.1926C131.262 32.2815 131.203 32.363 131.18 32.437L130.282 34.7482Z" fill="#C80000"/>
<path d="M135.597 31.1704C135.648 31.1569 135.701 31.1569 135.752 31.1704C135.795 31.1983 135.833 31.2334 135.864 31.2741L139.174 35.5704C139.17 35.5038 139.17 35.437 139.174 35.3704C139.174 35.3037 139.174 35.2445 139.174 35.1852V31.1704H139.857V36.8741H139.464C139.412 36.8861 139.359 36.8861 139.308 36.8741C139.263 36.846 139.223 36.811 139.189 36.7704L135.827 32.437C135.83 32.5012 135.83 32.5655 135.827 32.6296C135.827 32.6963 135.827 32.7482 135.827 32.8074V36.8667H135.144V31.1704H135.597Z" fill="#C80000"/>
<path d="M146.411 36.8667H145.817C145.756 36.8714 145.695 36.8529 145.646 36.8148C145.602 36.7832 145.569 36.7394 145.55 36.6889L145.015 35.3111H142.447L141.913 36.6889C141.895 36.7401 141.861 36.7843 141.816 36.8148C141.77 36.8518 141.712 36.8703 141.653 36.8667H141.022L143.308 31.163H144.095L146.411 36.8667ZM142.7 34.7481H144.837L143.939 32.4296C143.867 32.2545 143.81 32.0736 143.768 31.8889C143.768 32 143.709 32.1037 143.679 32.1926C143.658 32.2758 143.63 32.3575 143.598 32.437L142.7 34.7481Z" fill="#C80000"/>
<path d="M152.564 34.0222C152.569 34.4188 152.501 34.813 152.363 35.1852C152.238 35.5207 152.043 35.8261 151.792 36.0815C151.537 36.3338 151.234 36.5328 150.901 36.6667C150.533 36.8039 150.143 36.8717 149.751 36.8667H147.613V31.1704H149.751C150.144 31.1641 150.535 31.2345 150.901 31.3778C151.235 31.5063 151.539 31.7031 151.792 31.9556C152.042 32.2148 152.236 32.5223 152.363 32.8593C152.501 33.2315 152.568 33.6256 152.564 34.0222ZM151.777 34.0222C151.781 33.7025 151.731 33.3844 151.629 33.0815C151.544 32.8207 151.405 32.5808 151.22 32.3778C151.044 32.1848 150.826 32.0352 150.582 31.9407C150.318 31.834 150.035 31.7811 149.751 31.7852H148.392V36.2296H149.751C150.035 36.2325 150.317 36.1823 150.582 36.0815C150.824 35.9843 151.042 35.8351 151.22 35.6444C151.41 35.4306 151.549 35.1776 151.629 34.9037C151.725 34.6197 151.775 34.3221 151.777 34.0222Z" fill="#C80000"/>
<path d="M158.635 36.8667H158.034C157.975 36.8703 157.917 36.8518 157.871 36.8148C157.827 36.7832 157.793 36.7394 157.774 36.6889L157.24 35.3111H154.672L154.137 36.6889C154.117 36.7386 154.084 36.7821 154.041 36.8148C153.995 36.8518 153.937 36.8703 153.878 36.8667H153.276L155.562 31.163H156.349L158.635 36.8667ZM154.924 34.7481H157.062L156.164 32.4296C156.092 32.2545 156.034 32.0736 155.993 31.8889C155.993 32 155.933 32.1037 155.904 32.1926C155.874 32.2815 155.852 32.363 155.822 32.437L154.924 34.7481Z" fill="#C80000"/>
</svg>
