<svg xmlns="http://www.w3.org/2000/svg" width="164" height="40" viewBox="0 0 164 40"><defs><style>.cls-1{fill:#8231d4;}</style></defs><g id="Layer_1" data-name="Layer 1"><path class="cls-1" d="M49.5631,24.7565h-5.294V10.9537H41.6135V27.2983h9.6958A7.9477,7.9477,0,0,1,49.5631,24.7565Z"/><path class="cls-1" d="M50.8542,21.4741a6.0129,6.0129,0,1,1,12.0249,0,7.9382,7.9382,0,0,1-.08,1.1623H53.51a3.4594,3.4594,0,0,0,3.4651,2.599,4.2575,4.2575,0,0,0,3.2257-1.4478l1.7667,1.55C58.1262,29.5322,50.8542,27.3894,50.8542,21.4741Zm9.3576-1.0489c-.8433-3.5446-5.9952-3.499-6.6907,0Z"/><path class="cls-1" d="M69.6305,27.5261a5.8623,5.8623,0,0,1-5.7558-6.0408A6.0031,6.0031,0,0,1,69.6305,15.41a4.4957,4.4957,0,0,1,3.8523,2.0289V15.6267h2.5307V25.9649c0,3.91-1.9718,6.4513-6.03,6.4513a6.2927,6.2927,0,0,1-5.813-3.4879l2.2228-1.1628a3.7589,3.7589,0,0,0,3.59,2.28c2.5645,0,3.4651-1.7551,3.499-4.08V25.486A4.52,4.52,0,0,1,69.6305,27.5261Zm.3877-2.3935a3.67,3.67,0,1,0-3.6246-3.6585A3.6027,3.6027,0,0,0,70.0182,25.1326Z"/><path class="cls-1" d="M83.1259,27.5261A5.8623,5.8623,0,0,1,77.37,21.4853,6.0031,6.0031,0,0,1,83.1259,15.41a4.4957,4.4957,0,0,1,3.8523,2.0289V15.6267h2.5307V27.2983H86.9782V25.486A4.52,4.52,0,0,1,83.1259,27.5261Zm.3877-2.3935a3.67,3.67,0,1,0-3.6246-3.6585A3.6027,3.6027,0,0,0,83.5136,25.1326Z"/><path class="cls-1" d="M91.9668,10.9537h2.53V27.2983h-2.53Z"/><path class="cls-1" d="M31.8936,7.1972l-.5712-.2632a32.1481,32.1481,0,0,0-26.8351,0l-.5713.2632-.01.9384a32.1813,32.1813,0,0,0,13.4208,26.1l.578.4139.578-.4139a32.1831,32.1831,0,0,0,13.4206-26.1ZM17.9153,32.1887l-.01-.008V5.9854h0A29.8525,29.8525,0,0,1,29.9163,8.4792,30.1954,30.1954,0,0,1,17.9153,32.1887Z"/><path class="cls-1" d="M101.9523,24.9771c1.2451,0,3.5156-.5127,3.5156-2.124,0-3.5156-8.7157-1.7578-8.7157-7.6171,0-3.3691,3.3691-4.6142,6.2255-4.6142a12.3425,12.3425,0,0,1,4.8339,1.1718l-.9521,2.3438a10.428,10.428,0,0,0-3.8818-.9522c-1.3916,0-3.5156.293-3.5156,2.124,0,3.5888,8.7157,1.7578,8.7157,7.6171,0,3.2959-3.3691,4.6875-6.2255,4.6875a14.3387,14.3387,0,0,1-5.2-1.3184l1.0254-2.3437A13.9508,13.9508,0,0,0,101.9523,24.9771Z"/><path class="cls-1" d="M112.3526,17.5065a3.51,3.51,0,0,1,3.4423-2.1973c3.0762,0,4.2481,2.6367,4.2481,5.3466v6.5918H117.48V20.7291c0-1.6846-.8057-3.0029-2.5634-3.0029s-2.5635,1.3183-2.5635,3.0029v6.5185h-2.5634V10.8415h2.5634Z"/><path class="cls-1" d="M121.6543,10.8415h2.5634v2.93h-2.5634Zm0,4.6874h2.5634V27.2476h-2.5634Z"/><path class="cls-1" d="M125.4628,21.3883a6.0062,6.0062,0,1,1,12.0116,0,6.2946,6.2946,0,0,1-.0733,1.1718H128.1a3.46,3.46,0,0,0,3.4423,2.6367,4.18,4.18,0,0,0,3.2226-1.4648l1.7578,1.538C132.7869,29.4448,125.4628,27.3208,125.4628,21.3883Zm9.3749-1.0254c-.8789-3.5156-6.0058-3.5156-6.665,0Z"/><path class="cls-1" d="M138.866,10.8415h2.5634V27.1743H138.866Z"/><path class="cls-1" d="M148.0944,27.4673a5.9119,5.9119,0,0,1-5.7861-6.079,6.005,6.005,0,0,1,5.7861-6.0791,4.6361,4.6361,0,0,1,3.8818,2.0508V10.8415H154.54V27.1743h-2.5634v-1.831A4.5332,4.5332,0,0,1,148.0944,27.4673Zm.3662-2.417a3.5655,3.5655,0,0,0,3.5888-3.662,3.611,3.611,0,0,0-3.5888-3.6621,3.6621,3.6621,0,1,0,0,7.3241Z"/><path class="cls-1" d="M157.8355,11.2077H157.25v1.4648h-.293V11.2077h-.5859v-.293h1.7577l.6592.8789.6592-.8789h.22v1.7578h-.293V11.5007l-.5859.8056-.5859-.8056v1.1718h-.293l-.0732-1.4648Z"/><path class="cls-1" d="M126.7607,35.19a.82.82,0,0,1-.5117-.1513.7033.7033,0,0,1-.25-.4649,1.4665,1.4665,0,0,1-.5078.4668,1.2671,1.2671,0,0,1-.5879.1416.9889.9889,0,0,1-.4189-.083.8175.8175,0,0,1-.2959-.23.9721.9721,0,0,1-.1768-.3486,1.55,1.55,0,0,1-.0586-.4346,1.9425,1.9425,0,0,1,.1309-.6914,1.9031,1.9031,0,0,1,.3887-.6279,1.9789,1.9789,0,0,1,.6425-.458,2.1,2.1,0,0,1,.8877-.1768,2.34,2.34,0,0,1,.4737.042,1.8976,1.8976,0,0,1,.3847.1231l-.375,1.4541a2.1222,2.1222,0,0,0-.0761.5.6712.6712,0,0,0,.0361.2392.3632.3632,0,0,0,.0986.1494.3429.3429,0,0,0,.1455.0742.7194.7194,0,0,0,.1748.0206.6874.6874,0,0,0,.375-.1133,1.0449,1.0449,0,0,0,.3116-.3184,1.72,1.72,0,0,0,.2138-.4932,2.4105,2.4105,0,0,0,.0782-.6386,2.4679,2.4679,0,0,0-.1788-.9746,1.9667,1.9667,0,0,0-.4912-.6993,2.0508,2.0508,0,0,0-.7373-.4189,2.9279,2.9279,0,0,0-.917-.1387,2.5074,2.5074,0,0,0-1.0107.2051,2.5574,2.5574,0,0,0-.8223.5684,2.6606,2.6606,0,0,0-.5517.8584,2.8443,2.8443,0,0,0-.2012,1.0791,3.1085,3.1085,0,0,0,.2158,1.2021,2.415,2.415,0,0,0,1.4619,1.3965,3.2131,3.2131,0,0,0,1.0782.1768,3.9631,3.9631,0,0,0,1.081-.1329,3.3163,3.3163,0,0,0,.8115-.3388.2278.2278,0,0,1,.1094-.0362.134.134,0,0,1,.125.0967l.1006.2666a3.6085,3.6085,0,0,1-.9815.4551,4.3547,4.3547,0,0,1-1.246.165,3.7283,3.7283,0,0,1-1.2979-.2216,3.0141,3.0141,0,0,1-1.041-.6387,2.925,2.925,0,0,1-.6924-1.02,3.5322,3.5322,0,0,1-.252-1.37,3.2217,3.2217,0,0,1,.9063-2.25,3.03,3.03,0,0,1,.6279-.4991,3.1114,3.1114,0,0,1,.7451-.3222,2.98,2.98,0,0,1,.834-.1153,3.2665,3.2665,0,0,1,.7256.0811,3.0054,3.0054,0,0,1,.6709.2373,2.762,2.762,0,0,1,.582.3887,2.4639,2.4639,0,0,1,.4571.5322,2.5937,2.5937,0,0,1,.2978.668,2.8639,2.8639,0,0,1,.1065.8,2.5528,2.5528,0,0,1-.1221.8037,2.0514,2.0514,0,0,1-.3389.6387,1.5807,1.5807,0,0,1-.5078.4228A1.3293,1.3293,0,0,1,126.7607,35.19Zm-1.7158-.4834a.8356.8356,0,0,0,.251-.04.72.72,0,0,0,.2461-.1416,1.0289,1.0289,0,0,0,.2178-.2734,1.85,1.85,0,0,0,.167-.4356l.3056-1.1885a1.5639,1.5639,0,0,0-.3418-.0361,1.2056,1.2056,0,0,0-.5537.127,1.44,1.44,0,0,0-.4336.332,1.58,1.58,0,0,0-.2842.4717,1.5021,1.5021,0,0,0-.1025.5439.7523.7523,0,0,0,.1328.4648A.4653.4653,0,0,0,125.0449,34.707Z"/><path class="cls-1" d="M129.2217,30.167h.6484a.2763.2763,0,0,1,.1729.0527.25.25,0,0,1,.0927.1328l1.1924,4.0118c.0215.0722.041.15.0586.2334s.0342.1709.05.2627c.02-.0918.0381-.18.0567-.2647a2.0543,2.0543,0,0,1,.0644-.2314l1.3574-4.0118a.2988.2988,0,0,1,.0948-.1269.26.26,0,0,1,.1718-.0586h.2256a.2665.2665,0,0,1,.1709.0527.2833.2833,0,0,1,.0948.1328l1.35,4.0118a4.1464,4.1464,0,0,1,.1289.48c.0156-.0889.03-.1729.0439-.254a1.8425,1.8425,0,0,1,.0527-.2255l1.1963-4.0118a.245.245,0,0,1,.0909-.1289.2611.2611,0,0,1,.1709-.0566h.6084L135.5137,35.94h-.7012l-1.4619-4.4034a2.4965,2.4965,0,0,1-.0811-.29q-.019.0806-.0381.1553t-.038.1347L131.7227,35.94h-.7Z"/><path class="cls-1" d="M143.9209,33.0557a3.3319,3.3319,0,0,1-.2051,1.1894,2.739,2.739,0,0,1-.58.9326,2.59,2.59,0,0,1-.9.6065,3.2318,3.2318,0,0,1-2.3223,0,2.5908,2.5908,0,0,1-.8985-.6065,2.71,2.71,0,0,1-.58-.9326,3.5382,3.5382,0,0,1,0-2.38,2.7372,2.7372,0,0,1,.58-.9345,2.5867,2.5867,0,0,1,.8985-.61,3.2041,3.2041,0,0,1,2.3223,0,2.5856,2.5856,0,0,1,.9.61,2.7668,2.7668,0,0,1,.58.9345A3.338,3.338,0,0,1,143.9209,33.0557Zm-.8018,0a2.9368,2.9368,0,0,0-.1445-.9551,2.0231,2.0231,0,0,0-.4111-.7149,1.7817,1.7817,0,0,0-.6446-.4492,2.3429,2.3429,0,0,0-1.6875,0,1.78,1.78,0,0,0-.6464.4492,1.9954,1.9954,0,0,0-.4131.7149,3.1977,3.1977,0,0,0,0,1.9072,2.002,2.002,0,0,0,.4131.7129,1.7634,1.7634,0,0,0,.6464.4473,2.3711,2.3711,0,0,0,1.6875,0,1.765,1.765,0,0,0,.6446-.4473,2.03,2.03,0,0,0,.4111-.7129A2.91,2.91,0,0,0,143.1191,33.0557Z"/><path class="cls-1" d="M146.3291,33.53V35.94h-.7773V30.167h1.6318a3.5893,3.5893,0,0,1,.9463.11,1.8236,1.8236,0,0,1,.6592.32,1.2943,1.2943,0,0,1,.3847.5058,1.6934,1.6934,0,0,1,.1241.6631,1.6565,1.6565,0,0,1-.0967.5713,1.5049,1.5049,0,0,1-.2793.4775,1.6683,1.6683,0,0,1-.4473.36,2.1912,2.1912,0,0,1-.5986.2256.8279.8279,0,0,1,.2578.2461l1.6846,2.292h-.6934a.3415.3415,0,0,1-.3145-.1651l-1.498-2.0625a.4312.4312,0,0,0-.1494-.1387.5326.5326,0,0,0-.2412-.0429Zm0-.5674h.8184a1.998,1.998,0,0,0,.6015-.083,1.2212,1.2212,0,0,0,.4356-.2334.9574.9574,0,0,0,.2636-.36,1.1683,1.1683,0,0,0,.0889-.4638.9189.9189,0,0,0-.3408-.7774,1.6421,1.6421,0,0,0-1.0127-.2617h-.8545Z"/><path class="cls-1" d="M152.001,32.6963h.2939a.6426.6426,0,0,0,.2442-.0381.4754.4754,0,0,0,.1709-.1309l1.9218-2.1748a.6065.6065,0,0,1,.1709-.1435.4657.4657,0,0,1,.2119-.042h.6641L153.48,32.6523a1.97,1.97,0,0,1-.1592.1573.6908.6908,0,0,1-.1592.1045.5563.5563,0,0,1,.1973.1093,1.5692,1.5692,0,0,1,.1777.1807L155.832,35.94h-.6767a.6043.6043,0,0,1-.1289-.0118.4457.4457,0,0,1-.0909-.0322.3035.3035,0,0,1-.07-.0527c-.0214-.0215-.0429-.044-.0644-.0684l-1.9942-2.292c-.0293-.0322-.0566-.0595-.082-.083a.4152.4152,0,0,0-.0889-.0586.4274.4274,0,0,0-.1171-.0342,1.2617,1.2617,0,0,0-.1631-.01h-.3545V35.94h-.7774V30.167h.7774Z"/></g></svg>