<svg xmlns="http://www.w3.org/2000/svg" xmlns:xlink="http://www.w3.org/1999/xlink" width="444" height="59" viewBox="0 0 444 59"><defs><style>.cls-1{fill:#8124bb;}.cls-2{fill:url(#linear-gradient);}.cls-3{fill:#3050f0;}.cls-4{fill:url(#linear-gradient-2);}</style><linearGradient id="linear-gradient" x1="11.82241" y1="33.91044" x2="34.67309" y2="20.4344" gradientUnits="userSpaceOnUse"><stop offset="0.30274" stop-color="#8124bb"/><stop offset="0.80625" stop-color="#3050f0"/></linearGradient><linearGradient id="linear-gradient-2" x1="274.49351" y1="44.0465" x2="289.55342" y2="13.92669" xlink:href="#linear-gradient"/></defs><g id="Comparisons"><path class="cls-1" d="M83.27823,39.16606H73.86391V14.58713H69.13068V43.69067H86.3946A14.40821,14.40821,0,0,1,83.27823,39.16606Z"/><path class="cls-1" d="M85.58616,33.31145a10.7052,10.7052,0,0,1,21.4104-.0096v.0096a15.83064,15.83064,0,0,1-.14343,2.07323H90.30636a6.15452,6.15452,0,0,0,6.16756,4.62893,7.5758,7.5758,0,0,0,5.75029-2.60785l3.14246,2.76432C98.53411,47.73282,85.58616,43.82106,85.58616,33.31145Zm16.59893-1.86461c-1.49951-6.311-10.66608-6.23275-11.9048,0Z"/><path class="cls-1" d="M119.00569,44.09488A10.43137,10.43137,0,0,1,108.70186,33.5375q.00088-.07392.00284-.14782c0-5.6199,4.47246-10.82255,10.24883-10.82255a8.00607,8.00607,0,0,1,6.85863,3.61187V22.95831h4.51157V41.31753c0,6.94991-3.50755,11.47451-10.73127,11.47451a11.18765,11.18765,0,0,1-10.35314-6.20666l3.91176-2.07324a6.70214,6.70214,0,0,0,6.40226,4.06823c4.56373,0,6.16756-3.12941,6.21971-7.26284v-.86059A8.03217,8.03217,0,0,1,119.00569,44.09488Zm.69107-4.26383a6.51961,6.51961,0,1,0-6.5196-6.51961,6.42832,6.42832,0,0,0,6.33574,6.51961Q119.60482,39.83237,119.69676,39.83105Z"/><path class="cls-1" d="M143.037,44.09488A10.43138,10.43138,0,0,1,132.786,33.48613l.0021-.09645c0-5.6199,4.45941-10.82255,10.24883-10.82255A8.03215,8.03215,0,0,1,149.8956,26.179V22.95831H154.342V43.69067h-4.49853V40.45694A8.03213,8.03213,0,0,1,143.037,44.09488Zm.69108-4.26383a6.51961,6.51961,0,1,0-6.51961-6.51961,6.41528,6.41528,0,0,0,6.30925,6.51961Q143.62287,39.83278,143.72805,39.83105Z"/><path class="cls-1" d="M158.77531,14.58713h4.49853V43.69067h-4.49853Z"/><path class="cls-2" d="M51.82763,7.898,50.81057,7.4286a57.37257,57.37257,0,0,0-47.72354,0L2.07,7.898V9.567A57.37257,57.37257,0,0,0,25.89262,56.0388l1.0301.7302,1.0301-.7302A57.37257,57.37257,0,0,0,51.84067,9.567ZM26.93576,52.38782h0V5.74654h0a53.16077,53.16077,0,0,1,21.38432,4.43333A53.73459,53.73459,0,0,1,26.93576,52.38782Z"/><path class="cls-1" d="M176.50864,39.55723c2.21666,0,6.25883-.91274,6.25883-3.78137,0-6.25883-15.51666-3.12941-15.51666-13.56079,0-5.998,5.99805-8.21471,11.08333-8.21471a21.9712,21.9712,0,0,1,8.6059,2.08628l-1.69511,4.17255a18.568,18.568,0,0,0-6.91079-1.6951c-2.47744,0-6.25883.52157-6.25883,3.78137,0,6.38922,15.51667,3.12942,15.51667,13.56079,0,5.86765-5.99805,8.3451-11.08334,8.3451a25.53086,25.53086,0,0,1-9.25785-2.34705l1.82548-4.17256A24.77454,24.77454,0,0,0,176.50864,39.55723Z"/><path class="cls-1" d="M195.06344,26.25723a6.2458,6.2458,0,0,1,6.12843-3.91177c5.47647,0,7.56275,4.69412,7.56275,9.51864V43.59939H204.1909V31.99449c0-2.999-1.43433-5.34608-4.56373-5.34608s-4.56373,2.34706-4.56373,5.34608v11.6049h-4.56372V14.39154h4.56372Z"/><path class="cls-1" d="M211.62325,14.39154H216.187v5.21569h-4.56372Zm0,8.3451H216.187V43.59939h-4.56372Z"/><path class="cls-1" d="M218.40366,33.168A10.69216,10.69216,0,1,1,239.788,33.15V33.168a11.21344,11.21344,0,0,1-.1304,2.08627H223.09776a6.15451,6.15451,0,0,0,6.12843,4.69412,7.4454,7.4454,0,0,0,5.73725-2.60785l3.12941,2.73824C231.44288,47.51116,218.40366,43.72978,218.40366,33.168Zm16.6902-1.82549c-1.5647-6.25883-10.69215-6.25883-11.8657,0Z"/><path class="cls-1" d="M242.26541,14.39154h4.56373V43.469h-4.56373Z"/><path class="cls-1" d="M265.56652,40.20919v3.07755A8.12842,8.12842,0,0,0,270.1301,39.698V14.39156h-4.56358V25.99643a8.25351,8.25351,0,0,0-6.91084-3.651c-5.86756,0-10.301,5.21567-10.301,10.82251-.00078.0283-.00157.0565-.002.0848a10.52226,10.52226,0,0,0,10.303,10.73772A8.07165,8.07165,0,0,0,265.56652,40.20919Zm-6.25884-.52164c-4.79077,0-8.37457-5.16725-5.48221-10.23244a5.769,5.769,0,0,1,5.09133-2.81072l1.09967.01114a4.40162,4.40162,0,0,1,1.98281.44837,7.25223,7.25223,0,0,1,3.69977,6.27511A6.35015,6.35015,0,0,1,259.30768,39.68755Z"/><path class="cls-3" d="M293.06946,18.75782V43.52419h4.6748V14.86192A9.71613,9.71613,0,0,0,293.06946,18.75782Z"/><path class="cls-3" d="M311.83291,14.56761c8.31043,0,15.32235,5.84327,15.32235,14.54325S320.14334,43.719,311.83291,43.719h-9.99848V14.56761Zm0,24.54173c5.84327,0,10.64773-3.89551,10.64773-9.99848s-4.93432-9.99849-10.64773-9.99849h-5.194v19.997Z"/><path class="cls-3" d="M337.93285,39.62874c2.20746,0,6.23283-.909,6.23283-3.76566,0-6.23283-15.4522-3.11641-15.4522-13.50445,0-5.97312,5.97311-8.18058,11.03728-8.18058a21.88,21.88,0,0,1,8.57013,2.07761l-1.68806,4.15522a18.49061,18.49061,0,0,0-6.88208-1.68806c-2.46716,0-6.23282.5194-6.23282,3.76566,0,6.36267,15.4522,3.11641,15.4522,13.50445,0,5.84327-5.97312,8.31043-11.03729,8.31043a25.42465,25.42465,0,0,1-9.21937-2.33731l1.8179-4.15521A24.6719,24.6719,0,0,0,337.93285,39.62874Z"/><path class="cls-3" d="M356.37161,26.384a6.21985,6.21985,0,0,1,6.103-3.89552c5.45371,0,7.53133,4.67462,7.53133,9.47909V43.65411h-4.54477V32.09742c0-2.98656-1.42835-5.32387-4.54476-5.32387s-4.54477,2.33731-4.54477,5.32387V43.719h-4.54476V14.56761h4.54476Z"/><path class="cls-3" d="M372.86261,14.56761h4.6097v5.194h-4.54477Zm0,8.31043h4.6097V43.719h-4.54477Z"/><path class="cls-3" d="M379.61484,33.331a10.64774,10.64774,0,0,1,21.29548,0,11.16774,11.16774,0,0,1-.12986,2.07761h-16.491a6.12892,6.12892,0,0,0,6.103,4.67462,7.41447,7.41447,0,0,0,5.71341-2.597l3.11641,2.72686C392.59988,47.61454,379.61484,43.784,379.61484,33.331Zm16.62085-1.8179c-1.5582-6.23282-10.64773-6.23282-11.8164,0Z"/><path class="cls-3" d="M403.4424,14.56761h4.54476V43.52425H403.4424Z"/><path class="cls-3" d="M419.73863,44.04366a10.47892,10.47892,0,0,1-10.26026-10.69313l.00208-.08446c0-5.58357,4.41491-10.77758,10.25818-10.77758a8.21953,8.21953,0,0,1,6.88208,3.63581V14.56761h4.54476V43.52425h-4.54476V40.278A8.03776,8.03776,0,0,1,419.73863,44.04366Zm.64925-4.28507a6.32369,6.32369,0,0,0,6.36478-6.28237q.00069-.10509-.00212-.21015a6.40162,6.40162,0,0,0-6.31-6.492l-.05269-.00053a6.49252,6.49252,0,0,0,0,12.985Z"/><path class="cls-3" d="M438.68379,15.21686H437.645v2.597h-.51939v-2.597h-1.03881v-.5194h3.1164l1.16865,1.5582,1.16864-1.5582H441.93v3.11641h-.45447V15.73626l-1.0388,1.42836L439.398,15.73626v2.07761h-.5194l-.12985-2.597Z"/><path class="cls-4" d="M285.4491,28.13731l-6.9165,14.1389a2.85481,2.85481,0,0,1-1.10792,1.19027,3.1727,3.1727,0,0,1-1.62655.44394h-2.04361l-4.79253,0s2.53518.43693,6.09937-6.8491,3.56468-7.28443,3.56468-7.28443l6.917-14.13729a2.85482,2.85482,0,0,1,1.10792-1.19027,3.17266,3.17266,0,0,1,1.62656-.44394h6.83614s-2.53518-.43692-6.09938,6.84911l-3.56419,7.286"/></g></svg>