<svg xmlns="http://www.w3.org/2000/svg" width="164" height="40" viewBox="0 0 164 40"><defs><style>.cls-1{fill:#8231d4;}</style></defs><g id="Layer_1" data-name="Layer 1"><path class="cls-1" d="M49.5631,24.7565h-5.294V10.9537H41.6135V27.2983h9.6958A7.9477,7.9477,0,0,1,49.5631,24.7565Z"/><path class="cls-1" d="M50.8542,21.4741a6.0129,6.0129,0,1,1,12.0249,0,7.9382,7.9382,0,0,1-.08,1.1623H53.51a3.4594,3.4594,0,0,0,3.4651,2.599,4.2575,4.2575,0,0,0,3.2257-1.4478l1.7667,1.55C58.1262,29.5322,50.8542,27.3894,50.8542,21.4741Zm9.3576-1.0489c-.8433-3.5446-5.9952-3.499-6.6907,0Z"/><path class="cls-1" d="M69.6305,27.5261a5.8623,5.8623,0,0,1-5.7558-6.0408A6.0031,6.0031,0,0,1,69.6305,15.41a4.4957,4.4957,0,0,1,3.8523,2.0289V15.6267h2.5307V25.9649c0,3.91-1.9718,6.4513-6.03,6.4513a6.2927,6.2927,0,0,1-5.813-3.4879l2.2228-1.1628a3.7589,3.7589,0,0,0,3.59,2.28c2.5645,0,3.4651-1.7551,3.499-4.08V25.486A4.52,4.52,0,0,1,69.6305,27.5261Zm.3877-2.3935a3.67,3.67,0,1,0-3.6246-3.6585A3.6027,3.6027,0,0,0,70.0182,25.1326Z"/><path class="cls-1" d="M83.1259,27.5261A5.8623,5.8623,0,0,1,77.37,21.4853,6.0031,6.0031,0,0,1,83.1259,15.41a4.4957,4.4957,0,0,1,3.8523,2.0289V15.6267h2.5307V27.2983H86.9782V25.486A4.52,4.52,0,0,1,83.1259,27.5261Zm.3877-2.3935a3.67,3.67,0,1,0-3.6246-3.6585A3.6027,3.6027,0,0,0,83.5136,25.1326Z"/><path class="cls-1" d="M91.9668,10.9537h2.53V27.2983h-2.53Z"/><path class="cls-1" d="M31.8936,7.1972l-.5712-.2632a32.1481,32.1481,0,0,0-26.8351,0l-.5713.2632-.01.9384a32.1813,32.1813,0,0,0,13.4208,26.1l.578.4139.578-.4139a32.1831,32.1831,0,0,0,13.4206-26.1ZM17.9153,32.1887l-.01-.008V5.9854h0A29.8525,29.8525,0,0,1,29.9163,8.4792,30.1954,30.1954,0,0,1,17.9153,32.1887Z"/><path class="cls-1" d="M101.9523,24.9771c1.2451,0,3.5156-.5127,3.5156-2.124,0-3.5156-8.7157-1.7578-8.7157-7.6171,0-3.3691,3.3691-4.6142,6.2255-4.6142a12.3425,12.3425,0,0,1,4.8339,1.1718l-.9521,2.3438a10.428,10.428,0,0,0-3.8818-.9522c-1.3916,0-3.5156.293-3.5156,2.124,0,3.5888,8.7157,1.7578,8.7157,7.6171,0,3.2959-3.3691,4.6875-6.2255,4.6875a14.3387,14.3387,0,0,1-5.2-1.3184l1.0254-2.3437A13.9508,13.9508,0,0,0,101.9523,24.9771Z"/><path class="cls-1" d="M112.3526,17.5065a3.51,3.51,0,0,1,3.4423-2.1973c3.0762,0,4.2481,2.6367,4.2481,5.3466v6.5918H117.48V20.7291c0-1.6846-.8057-3.0029-2.5634-3.0029s-2.5635,1.3183-2.5635,3.0029v6.5185h-2.5634V10.8415h2.5634Z"/><path class="cls-1" d="M121.6543,10.8415h2.5634v2.93h-2.5634Zm0,4.6874h2.5634V27.2476h-2.5634Z"/><path class="cls-1" d="M125.4628,21.3883a6.0062,6.0062,0,1,1,12.0116,0,6.2946,6.2946,0,0,1-.0733,1.1718H128.1a3.46,3.46,0,0,0,3.4423,2.6367,4.18,4.18,0,0,0,3.2226-1.4648l1.7578,1.538C132.7869,29.4448,125.4628,27.3208,125.4628,21.3883Zm9.3749-1.0254c-.8789-3.5156-6.0058-3.5156-6.665,0Z"/><path class="cls-1" d="M138.866,10.8415h2.5634V27.1743H138.866Z"/><path class="cls-1" d="M148.0944,27.4673a5.9119,5.9119,0,0,1-5.7861-6.079,6.005,6.005,0,0,1,5.7861-6.0791,4.6361,4.6361,0,0,1,3.8818,2.0508V10.8415H154.54V27.1743h-2.5634v-1.831A4.5332,4.5332,0,0,1,148.0944,27.4673Zm.3662-2.417a3.5655,3.5655,0,0,0,3.5888-3.662,3.611,3.611,0,0,0-3.5888-3.6621,3.6621,3.6621,0,1,0,0,7.3241Z"/><path class="cls-1" d="M157.8355,11.2077H157.25v1.4648h-.293V11.2077h-.5859v-.293h1.7577l.6592.8789.6592-.8789h.22v1.7578h-.293V11.5007l-.5859.8056-.5859-.8056v1.1718h-.293l-.0732-1.4648Z"/><path class="cls-1" d="M115.2754,35.94h-.7813V30.167h.7813Z"/><path class="cls-1" d="M117.709,30.167a.3466.3466,0,0,1,.1553.0264.4055.4055,0,0,1,.1152.1064l3.3428,4.3506c-.0078-.0693-.0127-.1377-.0157-.2031s-.0039-.13-.0039-.1914V30.167h.6846V35.94h-.3945a.3326.3326,0,0,1-.1553-.0323.3863.3863,0,0,1-.123-.1084l-3.34-4.3467c.0059.0674.01.1329.0127.1973s.0039.1231.0039.1768V35.94h-.6846V30.167Z"/><path class="cls-1" d="M127.8125,30.167v.6562h-1.8652V35.94h-.7813V30.8232h-1.874V30.167Z"/><path class="cls-1" d="M132.6738,30.167v.6367h-2.7715v1.917h2.2442v.6123h-2.2442v1.97h2.7715V35.94h-3.5566V30.167Z"/><path class="cls-1" d="M135.1387,33.53V35.94h-.7774V30.167h1.6319a3.59,3.59,0,0,1,.9463.11,1.8223,1.8223,0,0,1,.6591.32,1.2936,1.2936,0,0,1,.3848.5058,1.6934,1.6934,0,0,1,.124.6631,1.6542,1.6542,0,0,1-.0967.5713,1.5011,1.5011,0,0,1-.2793.4775,1.6663,1.6663,0,0,1-.4472.36,2.1907,2.1907,0,0,1-.5987.2256.8282.8282,0,0,1,.2579.2461l1.6845,2.292h-.6933a.3415.3415,0,0,1-.3145-.1651l-1.498-2.0625a.4312.4312,0,0,0-.1494-.1387.5331.5331,0,0,0-.2413-.0429Zm0-.5674h.8183a1.9987,1.9987,0,0,0,.6016-.083,1.2207,1.2207,0,0,0,.4355-.2334.9577.9577,0,0,0,.2637-.36,1.1683,1.1683,0,0,0,.0889-.4638.9189.9189,0,0,0-.3408-.7774,1.6421,1.6421,0,0,0-1.0127-.2617h-.8545Z"/><path class="cls-1" d="M140.3555,30.167a.3461.3461,0,0,1,.1552.0264.4056.4056,0,0,1,.1153.1064l3.3428,4.3506c-.0079-.0693-.0127-.1377-.0157-.2031s-.0039-.13-.0039-.1914V30.167h.6846V35.94h-.3945a.3326.3326,0,0,1-.1553-.0323.3876.3876,0,0,1-.1231-.1084l-3.34-4.3467c.0059.0674.01.1329.0127.1973s.0039.1231.0039.1768V35.94h-.6846V30.167Z"/><path class="cls-1" d="M151.2764,35.94h-.6045a.2588.2588,0,0,1-.169-.0528.3179.3179,0,0,1-.0967-.1328l-.54-1.3935h-2.59l-.54,1.3935a.3042.3042,0,0,1-.0967.1289.2539.2539,0,0,1-.1689.0567h-.6045l2.3086-5.7725h.793Zm-3.7823-2.1426h2.1553l-.9072-2.3487a4.5461,4.5461,0,0,1-.1729-.5439c-.0293.11-.0586.2109-.0869.3037s-.0556.1738-.082.2441Z"/><path class="cls-1" d="M153.2705,35.2832h2.4971V35.94h-3.2783V30.167h.7812Z"/></g></svg>