<svg xmlns="http://www.w3.org/2000/svg" width="164" height="40" viewBox="0 0 164 40"><defs><style>.cls-1{fill:#8231d4;}</style></defs><g id="Layer_1" data-name="Layer 1"><path class="cls-1" d="M49.5631,24.7565h-5.294V10.9537H41.6135V27.2983h9.6958A7.9477,7.9477,0,0,1,49.5631,24.7565Z"/><path class="cls-1" d="M50.8542,21.4741a6.0129,6.0129,0,1,1,12.0249,0,7.9382,7.9382,0,0,1-.08,1.1623H53.51a3.4594,3.4594,0,0,0,3.4651,2.599,4.2575,4.2575,0,0,0,3.2257-1.4478l1.7667,1.55C58.1262,29.5322,50.8542,27.3894,50.8542,21.4741Zm9.3576-1.0489c-.8433-3.5446-5.9952-3.499-6.6907,0Z"/><path class="cls-1" d="M69.6305,27.5261a5.8623,5.8623,0,0,1-5.7558-6.0408A6.0031,6.0031,0,0,1,69.6305,15.41a4.4957,4.4957,0,0,1,3.8523,2.0289V15.6267h2.5307V25.9649c0,3.91-1.9718,6.4513-6.03,6.4513a6.2927,6.2927,0,0,1-5.813-3.4879l2.2228-1.1628a3.7589,3.7589,0,0,0,3.59,2.28c2.5645,0,3.4651-1.7551,3.499-4.08V25.486A4.52,4.52,0,0,1,69.6305,27.5261Zm.3877-2.3935a3.67,3.67,0,1,0-3.6246-3.6585A3.6027,3.6027,0,0,0,70.0182,25.1326Z"/><path class="cls-1" d="M83.1259,27.5261A5.8623,5.8623,0,0,1,77.37,21.4853,6.0031,6.0031,0,0,1,83.1259,15.41a4.4957,4.4957,0,0,1,3.8523,2.0289V15.6267h2.5307V27.2983H86.9782V25.486A4.52,4.52,0,0,1,83.1259,27.5261Zm.3877-2.3935a3.67,3.67,0,1,0-3.6246-3.6585A3.6027,3.6027,0,0,0,83.5136,25.1326Z"/><path class="cls-1" d="M91.9668,10.9537h2.53V27.2983h-2.53Z"/><path class="cls-1" d="M31.8936,7.1972l-.5712-.2632a32.1481,32.1481,0,0,0-26.8351,0l-.5713.2632-.01.9384a32.1813,32.1813,0,0,0,13.4208,26.1l.578.4139.578-.4139a32.1831,32.1831,0,0,0,13.4206-26.1ZM17.9153,32.1887l-.01-.008V5.9854h0A29.8525,29.8525,0,0,1,29.9163,8.4792,30.1954,30.1954,0,0,1,17.9153,32.1887Z"/><path class="cls-1" d="M101.9523,24.9771c1.2451,0,3.5156-.5127,3.5156-2.124,0-3.5156-8.7157-1.7578-8.7157-7.6171,0-3.3691,3.3691-4.6142,6.2255-4.6142a12.3425,12.3425,0,0,1,4.8339,1.1718l-.9521,2.3438a10.428,10.428,0,0,0-3.8818-.9522c-1.3916,0-3.5156.293-3.5156,2.124,0,3.5888,8.7157,1.7578,8.7157,7.6171,0,3.2959-3.3691,4.6875-6.2255,4.6875a14.3387,14.3387,0,0,1-5.2-1.3184l1.0254-2.3437A13.9508,13.9508,0,0,0,101.9523,24.9771Z"/><path class="cls-1" d="M112.3526,17.5065a3.51,3.51,0,0,1,3.4423-2.1973c3.0762,0,4.2481,2.6367,4.2481,5.3466v6.5918H117.48V20.7291c0-1.6846-.8057-3.0029-2.5634-3.0029s-2.5635,1.3183-2.5635,3.0029v6.5185h-2.5634V10.8415h2.5634Z"/><path class="cls-1" d="M121.6543,10.8415h2.5634v2.93h-2.5634Zm0,4.6874h2.5634V27.2476h-2.5634Z"/><path class="cls-1" d="M125.4628,21.3883a6.0062,6.0062,0,1,1,12.0116,0,6.2946,6.2946,0,0,1-.0733,1.1718H128.1a3.46,3.46,0,0,0,3.4423,2.6367,4.18,4.18,0,0,0,3.2226-1.4648l1.7578,1.538C132.7869,29.4448,125.4628,27.3208,125.4628,21.3883Zm9.3749-1.0254c-.8789-3.5156-6.0058-3.5156-6.665,0Z"/><path class="cls-1" d="M138.866,10.8415h2.5634V27.1743H138.866Z"/><path class="cls-1" d="M148.0944,27.4673a5.9119,5.9119,0,0,1-5.7861-6.079,6.005,6.005,0,0,1,5.7861-6.0791,4.6361,4.6361,0,0,1,3.8818,2.0508V10.8415H154.54V27.1743h-2.5634v-1.831A4.5332,4.5332,0,0,1,148.0944,27.4673Zm.3662-2.417a3.5655,3.5655,0,0,0,3.5888-3.662,3.611,3.611,0,0,0-3.5888-3.6621,3.6621,3.6621,0,1,0,0,7.3241Z"/><path class="cls-1" d="M157.8355,11.2077H157.25v1.4648h-.293V11.2077h-.5859v-.293h1.7577l.6592.8789.6592-.8789h.22v1.7578h-.293V11.5007l-.5859.8056-.5859-.8056v1.1718h-.293l-.0732-1.4648Z"/><path class="cls-1" d="M109.3174,33.78V35.94H108.54V30.167h1.7041a3.1935,3.1935,0,0,1,.9532.1269,1.8384,1.8384,0,0,1,.67.36,1.4559,1.4559,0,0,1,.3974.5645,1.9871,1.9871,0,0,1,.1309.7363,1.8663,1.8663,0,0,1-.1416.7373,1.5825,1.5825,0,0,1-.4121.5762,1.92,1.92,0,0,1-.6748.3769,2.9038,2.9038,0,0,1-.9229.1348Zm0-.62h.9267a1.7831,1.7831,0,0,0,.59-.0889,1.2037,1.2037,0,0,0,.43-.2481,1.0317,1.0317,0,0,0,.2617-.38,1.3166,1.3166,0,0,0,.0889-.4883,1.1071,1.1071,0,0,0-.3409-.8613,1.4839,1.4839,0,0,0-1.0293-.3106h-.9267Z"/><path class="cls-1" d="M114.7236,33.53V35.94h-.7773V30.167h1.6318a3.5888,3.5888,0,0,1,.9463.11,1.8228,1.8228,0,0,1,.6592.32,1.2945,1.2945,0,0,1,.3848.5058,1.6934,1.6934,0,0,1,.124.6631,1.6542,1.6542,0,0,1-.0967.5713,1.503,1.503,0,0,1-.2793.4775,1.6683,1.6683,0,0,1-.4473.36,2.19,2.19,0,0,1-.5986.2256.8279.8279,0,0,1,.2578.2461l1.6846,2.292H117.52a.3415.3415,0,0,1-.3144-.1651l-1.4981-2.0625a.4312.4312,0,0,0-.1494-.1387.5326.5326,0,0,0-.2412-.0429Zm0-.5674h.8184a1.9992,1.9992,0,0,0,.6016-.083,1.2216,1.2216,0,0,0,.4355-.2334.9577.9577,0,0,0,.2637-.36,1.17,1.17,0,0,0,.0888-.4638.9186.9186,0,0,0-.3408-.7774,1.6417,1.6417,0,0,0-1.0127-.2617h-.8545Z"/><path class="cls-1" d="M124.7139,33.0557a3.3319,3.3319,0,0,1-.2051,1.1894,2.74,2.74,0,0,1-.58.9326,2.5892,2.5892,0,0,1-.9.6065,3.2315,3.2315,0,0,1-2.3222,0,2.59,2.59,0,0,1-.8985-.6065,2.7116,2.7116,0,0,1-.58-.9326,3.54,3.54,0,0,1,0-2.38,2.739,2.739,0,0,1,.58-.9345,2.5858,2.5858,0,0,1,.8985-.61,3.2038,3.2038,0,0,1,2.3222,0,2.5851,2.5851,0,0,1,.9.61,2.7684,2.7684,0,0,1,.58.9345A3.338,3.338,0,0,1,124.7139,33.0557Zm-.8018,0a2.9368,2.9368,0,0,0-.1445-.9551,2.0218,2.0218,0,0,0-.4112-.7149,1.78,1.78,0,0,0-.6445-.4492,2.3429,2.3429,0,0,0-1.6875,0,1.7812,1.7812,0,0,0-.6465.4492,1.9969,1.9969,0,0,0-.4131.7149,3.1977,3.1977,0,0,0,0,1.9072,2.0035,2.0035,0,0,0,.4131.7129,1.7646,1.7646,0,0,0,.6465.4473,2.3711,2.3711,0,0,0,1.6875,0,1.7638,1.7638,0,0,0,.6445-.4473,2.0286,2.0286,0,0,0,.4112-.7129A2.91,2.91,0,0,0,123.9121,33.0557Z"/><path class="cls-1" d="M125.3867,30.167h.624a.26.26,0,0,1,.17.0527.3169.3169,0,0,1,.0966.1328l1.6309,4.0723a2.63,2.63,0,0,1,.1025.2979c.0313.1074.0616.2187.0909.3349.0244-.1162.0507-.2275.0791-.3349a2.3063,2.3063,0,0,1,.0986-.2979l1.623-4.0723a.3316.3316,0,0,1,.0967-.1269.2523.2523,0,0,1,.169-.0586h.6289L128.4443,35.94h-.705Z"/><path class="cls-1" d="M132.9434,35.94h-.7813V30.167h.7813Z"/><path class="cls-1" d="M139.9766,33.0557a3.256,3.256,0,0,1-.2051,1.18,2.6338,2.6338,0,0,1-.58.91,2.5932,2.5932,0,0,1-.8984.5869,3.1406,3.1406,0,0,1-1.16.2071h-2.1592V30.167h2.1592a3.1406,3.1406,0,0,1,1.16.207,2.5852,2.5852,0,0,1,.8984.5889,2.6508,2.6508,0,0,1,.58.9121A3.2572,3.2572,0,0,1,139.9766,33.0557Zm-.8018,0a2.9,2.9,0,0,0-.1445-.9512,2.0116,2.0116,0,0,0-.4112-.709,1.7665,1.7665,0,0,0-.6445-.4434,2.24,2.24,0,0,0-.8418-.1523h-1.374v4.5068h1.374a2.2381,2.2381,0,0,0,.8418-.1523,1.7727,1.7727,0,0,0,.6445-.4414,1.9937,1.9937,0,0,0,.4112-.707A2.8941,2.8941,0,0,0,139.1748,33.0557Z"/><path class="cls-1" d="M145.08,30.167v.6367h-2.7715v1.917h2.2441v.6123h-2.2441v1.97H145.08V35.94h-3.5567V30.167Z"/><path class="cls-1" d="M147.5449,33.53V35.94h-.7773V30.167h1.6318a3.5893,3.5893,0,0,1,.9463.11,1.8228,1.8228,0,0,1,.6592.32,1.2933,1.2933,0,0,1,.3847.5058,1.6916,1.6916,0,0,1,.1241.6631,1.6565,1.6565,0,0,1-.0967.5713,1.503,1.503,0,0,1-.2793.4775,1.6683,1.6683,0,0,1-.4473.36,2.1912,2.1912,0,0,1-.5986.2256.8279.8279,0,0,1,.2578.2461l1.6846,2.292h-.6934a.3414.3414,0,0,1-.3144-.1651l-1.4981-2.0625a.4312.4312,0,0,0-.1494-.1387.5326.5326,0,0,0-.2412-.0429Zm0-.5674h.8184a1.998,1.998,0,0,0,.6015-.083,1.2212,1.2212,0,0,0,.4356-.2334.9577.9577,0,0,0,.2637-.36,1.17,1.17,0,0,0,.0888-.4638.9189.9189,0,0,0-.3408-.7774,1.6419,1.6419,0,0,0-1.0127-.2617h-.8545Z"/><path class="cls-1" d="M155.3154,31.0693a.3032.3032,0,0,1-.0761.0909.1727.1727,0,0,1-.1045.03.2835.2835,0,0,1-.1592-.0683,2.41,2.41,0,0,0-.2295-.1514,1.8968,1.8968,0,0,0-.335-.1514,1.43,1.43,0,0,0-.4726-.0683,1.4075,1.4075,0,0,0-.4639.07.9918.9918,0,0,0-.3359.1914.7862.7862,0,0,0-.2032.2842.897.897,0,0,0-.0693.3525.6493.6493,0,0,0,.1192.4,1.0246,1.0246,0,0,0,.3144.2725,2.3777,2.3777,0,0,0,.4434.1953c.165.0547.3339.1123.5068.1709s.3428.126.5078.1992a1.8263,1.8263,0,0,1,.4434.28,1.2958,1.2958,0,0,1,.3144.415,1.3841,1.3841,0,0,1,.1182.6045,1.9509,1.9509,0,0,1-.1289.7109,1.6424,1.6424,0,0,1-.376.5782,1.785,1.785,0,0,1-.6084.3867,2.2443,2.2443,0,0,1-.82.1406,2.5,2.5,0,0,1-1.02-.2031,2.41,2.41,0,0,1-.7881-.55l.2256-.3711a.2856.2856,0,0,1,.0791-.0742.1782.1782,0,0,1,.1025-.03.3193.3193,0,0,1,.1934.0908,3.1312,3.1312,0,0,0,.2715.1992,2.0912,2.0912,0,0,0,.3955.1992,1.5513,1.5513,0,0,0,.5654.0909,1.4885,1.4885,0,0,0,.4951-.0762,1.0614,1.0614,0,0,0,.3692-.2158.934.934,0,0,0,.2314-.3321,1.1146,1.1146,0,0,0,.0811-.4316.7224.7224,0,0,0-.1192-.4287.9877.9877,0,0,0-.3125-.28,2.198,2.198,0,0,0-.44-.1914q-.249-.0775-.5078-.1611a4.8123,4.8123,0,0,1-.5078-.1914,1.6493,1.6493,0,0,1-.4414-.2813,1.3055,1.3055,0,0,1-.3116-.4336,1.656,1.656,0,0,1,0-1.2343,1.5235,1.5235,0,0,1,.3438-.5079,1.6785,1.6785,0,0,1,.5586-.3544,2.0361,2.0361,0,0,1,.7627-.1329,2.4381,2.4381,0,0,1,.8828.1534,2.0183,2.0183,0,0,1,.6963.4423Z"/></g></svg>