<svg width="136" height="40" viewBox="0 0 136 40" fill="none" xmlns="http://www.w3.org/2000/svg">
<rect x="0.5" y="0.5" width="135" height="39" rx="4.5" fill="#121212" stroke="#A0A0A0"/>
<path d="M106.893 30.153H108.759V17.6512H106.893V30.153ZM123.7 22.155L121.561 27.5748H121.497L119.277 22.155H117.267L120.597 29.73L118.698 33.9439H120.644L125.775 22.1553L123.7 22.155ZM113.117 28.7329C112.507 28.7329 111.654 28.427 111.654 27.6712C111.654 26.7064 112.716 26.3365 113.632 26.3365C114.452 26.3365 114.839 26.513 115.337 26.7544C115.192 27.9126 114.195 28.7329 113.117 28.7329L113.117 28.7329ZM113.343 21.8815C111.992 21.8815 110.593 22.4768 110.014 23.7956L111.67 24.487C112.024 23.7956 112.683 23.5706 113.375 23.5706C114.34 23.5706 115.321 24.1491 115.337 25.1788V25.3073C114.999 25.1143 114.275 24.8249 113.391 24.8249C111.605 24.8249 109.788 25.8057 109.788 27.6392C109.788 29.3119 111.252 30.3895 112.892 30.3895C114.146 30.3895 114.839 29.8266 115.272 29.167H115.337V30.1325H117.139V25.3392C117.139 23.1198 115.481 21.8815 113.343 21.8815V21.8815ZM101.811 23.6768H99.1571V19.3918H101.811C103.206 19.3918 103.998 20.5465 103.998 21.5342C103.998 22.503 103.206 23.6768 101.811 23.6768ZM101.763 17.6515H97.292V30.1533H99.1572V25.4171H101.763C103.831 25.4171 105.864 23.9202 105.864 21.5347C105.864 19.1496 103.831 17.652 101.763 17.652L101.763 17.6515ZM77.3827 28.735C76.0935 28.735 75.0147 27.6553 75.0147 26.1738C75.0147 24.675 76.0935 23.58 77.3827 23.58C78.6553 23.58 79.6541 24.675 79.6541 26.1738C79.6541 27.6553 78.6553 28.735 77.3827 28.735ZM79.5252 22.8548H79.4607C79.042 22.3555 78.2361 21.9044 77.2217 21.9044C75.0948 21.9044 73.1456 23.7735 73.1456 26.1738C73.1456 28.5577 75.0948 30.4104 77.2217 30.4104C78.2361 30.4104 79.042 29.9592 79.4607 29.444H79.5252V30.0557C79.5252 31.6834 78.6553 32.5529 77.2537 32.5529C76.1103 32.5529 75.4014 31.7314 75.1112 31.0388L73.4844 31.7154C73.9511 32.8426 75.1913 34.2286 77.2538 34.2286C79.4452 34.2286 81.2978 32.9395 81.2978 29.7978V22.162H79.5253L79.5252 22.8548ZM82.5869 30.1526H84.4548V17.6508H82.5869V30.1526ZM87.2099 26.0285C87.1618 24.3852 88.4832 23.5476 89.4333 23.5476C90.1747 23.5476 90.8023 23.9183 91.0126 24.4496L87.2099 26.0285ZM93.0094 24.6105C92.6551 23.6606 91.5758 21.9044 89.3688 21.9044C87.1774 21.9044 85.3572 23.6281 85.3572 26.1574C85.3572 28.5418 87.1618 30.4105 89.5778 30.4105C91.527 30.4105 92.6551 29.2187 93.1226 28.5257L91.6726 27.559C91.1891 28.2679 90.529 28.7351 89.5778 28.7351C88.6279 28.7351 87.9509 28.3 87.5166 27.4462L93.2027 25.0942L93.0094 24.6105ZM47.7023 23.2094V25.0137H52.0197C51.8908 26.0286 51.5525 26.7695 51.0369 27.2851C50.4084 27.9132 49.4257 28.6062 47.7023 28.6062C45.044 28.6062 42.966 26.4637 42.966 23.8055C42.966 21.1473 45.044 19.0045 47.7023 19.0045C49.1361 19.0045 50.1831 19.5685 50.9564 20.2934L52.2294 19.0205C51.1497 17.9896 49.7162 17.2002 47.7023 17.2002C44.0608 17.2002 41 20.1645 41 23.8055C41 27.4461 44.0608 30.4105 47.7023 30.4105C49.6674 30.4105 51.1498 29.766 52.3095 28.5578C53.5018 27.3656 53.8724 25.6902 53.8724 24.3368C53.8724 23.9184 53.8399 23.5317 53.7755 23.2094H47.7023ZM58.7814 28.735C57.4923 28.735 56.3806 27.6718 56.3806 26.1574C56.3806 24.627 57.4923 23.5801 58.7814 23.5801C60.07 23.5801 61.1817 24.627 61.1817 26.1574C61.1817 27.6718 60.07 28.735 58.7814 28.735ZM58.7814 21.9044C56.4286 21.9044 54.5119 23.6925 54.5119 26.1574C54.5119 28.6062 56.4286 30.4105 58.7814 30.4105C61.1333 30.4105 63.0504 28.6062 63.0504 26.1574C63.0504 23.6925 61.1333 21.9044 58.7814 21.9044ZM68.0942 28.735C66.806 28.735 65.694 27.6718 65.694 26.1574C65.694 24.627 66.8061 23.5801 68.0942 23.5801C69.3833 23.5801 70.4946 24.627 70.4946 26.1574C70.4946 27.6718 69.3833 28.735 68.0942 28.735ZM68.0942 21.9044C65.7424 21.9044 63.8256 23.6925 63.8256 26.1574C63.8256 28.6062 65.7424 30.4105 68.0942 30.4105C70.447 30.4105 72.3638 28.6062 72.3638 26.1574C72.3638 23.6925 70.447 21.9044 68.0942 21.9044Z" fill="white"/>
<path d="M47.3523 9.93421H44.4351V10.6561H46.6211C46.5617 11.2452 46.3273 11.7077 45.932 12.0436C45.5367 12.3796 45.032 12.5483 44.4351 12.5483C43.7805 12.5483 43.2258 12.3202 42.7712 11.8671C42.3258 11.4046 42.0993 10.8327 42.0993 10.1437C42.0993 9.4547 42.3258 8.88277 42.7712 8.42032C43.2258 7.96723 43.7805 7.74064 44.4351 7.74064C44.7711 7.74064 45.0914 7.79844 45.3851 7.92503C45.6789 8.05153 45.9148 8.22813 46.0992 8.45472L46.6539 7.90004C46.4023 7.61404 46.0836 7.39534 45.6882 7.23595C45.2929 7.07655 44.8804 7.00005 44.4351 7.00005C43.5617 7.00005 42.8211 7.30314 42.2164 7.90786C41.6117 8.51405 41.3086 9.26094 41.3086 10.1437C41.3086 11.0265 41.6117 11.775 42.2164 12.3797C42.8211 12.9843 43.5617 13.2875 44.4351 13.2875C45.3522 13.2875 46.0835 12.9937 46.646 12.3968C47.1413 11.9 47.3944 11.2281 47.3944 10.3875C47.3944 10.2453 47.3772 10.0937 47.3522 9.93433L47.3523 9.93421ZM48.4824 7.1343V13.153H51.9963V12.4139H49.2558V10.5046H51.7277V9.78275H49.2558V7.87496H51.9963V7.13427L48.4824 7.1343ZM56.9237 7.87499V7.1343H52.7878V7.87499H54.4691V13.153H55.2425V7.87499H56.9237ZM60.6681 7.1343H59.8947V13.153H60.6681V7.1343ZM65.7731 7.87499V7.1343H61.6372V7.87499H63.3184V13.153H64.0918V7.87499H65.7731ZM73.5776 7.91718C72.9807 7.3031 72.2495 7 71.376 7C70.5011 7 69.7699 7.30309 69.173 7.90781C68.5761 8.5047 68.2824 9.25309 68.2824 10.1436C68.2824 11.0342 68.5761 11.7827 69.173 12.3796C69.7699 12.9842 70.5011 13.2874 71.376 13.2874C72.2416 13.2874 72.9807 12.9842 73.5776 12.3796C74.1745 11.7827 74.4682 11.0343 74.4682 10.1436C74.4682 9.26089 74.1745 8.51396 73.5776 7.91718ZM69.7277 8.42027C70.173 7.96718 70.7199 7.74058 71.376 7.74058C72.0307 7.74058 72.5776 7.96718 73.0151 8.42027C73.4604 8.86556 73.6791 9.44673 73.6791 10.1436C73.6791 10.8421 73.4604 11.4217 73.0151 11.8671C72.5776 12.3202 72.0307 12.5483 71.376 12.5483C70.7199 12.5483 70.173 12.3202 69.7277 11.8671C69.2917 11.4124 69.073 10.8421 69.073 10.1436C69.073 9.44674 69.2917 8.87492 69.7277 8.42027ZM76.3057 9.40465L76.2729 8.24364H76.3057L79.365 13.1529H80.1728V7.13424H79.3994V10.656L79.4321 11.817H79.3994L76.4744 7.13424H75.5323V13.1529H76.3057V9.40465Z" fill="white"/>
<path d="M20.7384 19.4162L10.0989 30.8391C10.0993 30.8415 10.1001 30.8435 10.1005 30.8459C10.4268 32.0863 11.5468 32.9996 12.8761 32.9996C13.4075 32.9996 13.9064 32.8543 14.3343 32.5992L14.3683 32.5791L26.345 25.5885L20.7389 19.416" fill="#EB3131"/>
<path d="M31.5032 17.4717L31.493 17.4646L26.3223 14.4326L20.4968 19.676L26.3425 25.5882L31.486 22.5863C32.3877 22.0939 32.9999 21.1323 32.9999 20.0235C32.9999 18.9226 32.396 17.9658 31.5031 17.4718" fill="#F6B60B"/>
<path d="M10.0976 9.15918C10.0336 9.39775 10 9.64765 10 9.90715V30.0926C10 30.3516 10.0332 30.6024 10.098 30.8401L21.1048 19.709L10.098 9.15947" fill="#5778C5"/>
<path d="M20.8171 20.0004L26.3245 14.4314L14.3612 7.41548C13.9264 7.15204 13.4189 7 12.8758 7C11.5465 7 10.4249 7.91499 10.0985 9.15684C10.0981 9.15806 10.0981 9.15889 10.0981 9.15995L20.8171 20.0007" fill="#3BAD49"/>
</svg>
