<?xml version="1.0" encoding="utf-8"?>
<svg width="55px" height="37px" viewBox="0 0 55 40" xmlns="http://www.w3.org/2000/svg">
  <defs>
    <style>.cls-1{fill:#8231d4;stroke:#8231d4;stroke-miterlimit:10;}.cls-2{fill:url(#radial-gradient);}.cls-3{fill:url(#radial-gradient-2);}.cls-4{fill:#13027d;}.cls-5{fill:#fff;}.cls-6{fill:#b3b3b3;}</style>
    <radialGradient id="radial-gradient" cx="14.52784" cy="37.38443" r="43.23577" gradientTransform="translate(42.71551 49.98118) rotate(-153.63561)" gradientUnits="userSpaceOnUse">
      <stop offset="0" stop-color="#5900a1"/>
      <stop offset="0.8217" stop-color="#9400a1"/>
    </radialGradient>
    <radialGradient id="radial-gradient-2" cx="43.22022" cy="37.42668" r="46.15771" gradientTransform="translate(60.47863 25.82303) rotate(153.60082)" gradientUnits="userSpaceOnUse">
      <stop offset="0" stop-color="#009db9"/>
      <stop offset="0.7716" stop-color="#45bdd6"/>
    </radialGradient>
  </defs>
  <g id="Layer_1" data-name="Layer 1">
    <path class="cls-2" d="M5.00032,8.98022h40.2654a4.15607,4.15607,0,0,1,4.15607,4.15607V30.99613a0,0,0,0,1,0,0H9.15639a4.15607,4.15607,0,0,1-4.15607-4.15607V8.98022a0,0,0,0,1,0,0Z" transform="translate(60.46814 25.8135) rotate(153.63561)"/>
    <path class="cls-3" d="M9.15638,8.9959h40.2654a0,0,0,0,1,0,0V26.85573a4.15607,4.15607,0,0,1-4.15607,4.15607H5.00031a0,0,0,0,1,0,0V13.152A4.15607,4.15607,0,0,1,9.15638,8.9959Z" transform="translate(42.69031 50.02031) rotate(-153.60082)"/>
    <polygon class="cls-4" points="52 20.027999877929688 27.231000900268555 7.73199987411499 2.4539999961853027 20.01300048828125 27.222999572753906 32.30799865722656 52 20.027999877929688"/>
    <path class="cls-5" d="M15.861,17.1609h2.29008a2.14275,2.14275,0,1,1,0,4.27536h-.68055v1.78622H15.861ZM18.88813,19.293a.6762.6762,0,0,0-.737-.64688h-.68055V19.951l.68055.00381A.68072.68072,0,0,0,18.88813,19.293Z"/>
    <path class="cls-5" d="M21.43394,17.1609H23.724a2.14275,2.14275,0,1,1,0,4.27536h-.68055v1.78622H21.43394ZM24.46108,19.293a.6762.6762,0,0,0-.73706-.64688h-.68055V19.951l.68055.00381A.68073.68073,0,0,0,24.46108,19.293Z"/>
    <path class="cls-5" d="M30.93649,21.71089v1.51159h-3.9296V17.1609h1.60952v4.55Z"/>
    <path class="cls-5" d="M31.61338,22.19587l.97407-.955a1.47724,1.47724,0,0,0,1.22949.59784c.34226,0,.67689-.12413.67689-.37226,0-.31209-.62038-.58657-1.21456-.84977A1.94222,1.94222,0,0,1,31.854,18.86806a1.9795,1.9795,0,0,1,2.1472-1.79748,1.94252,1.94252,0,0,1,1.884,1.03407l-.92882.895a1.144,1.144,0,0,0-.93644-.45877c-.33083,0-.56768.16922-.56768.37607,0,.27828.42861.36845,1.083.64292.94756.39861,1.57556.97772,1.57556,1.87273a2.06283,2.06283,0,0,1-2.29007,1.87257A2.3911,2.3911,0,0,1,31.61338,22.19587Z"/>
    <path class="cls-5" d="M37.15632,17.1609h1.60952v6.06158H37.15632Z"/>
    <path class="cls-6" d="M47.97368,5.05117v.1399h-.2399V5.84H47.5659v-.649H47.326v-.1399Zm.55049.43163.01519.03536a.28482.28482,0,0,1,.01279.03535l.01193-.03535a.18393.18393,0,0,1,.016-.03536l.22515-.40365a.06785.06785,0,0,1,.02277-.02278.07452.07452,0,0,1,.03189-.0052h.1412V5.84h-.14663V5.35353l.01215-.09977-.244.44768a.05976.05976,0,0,1-.05857.03731H48.54a.05733.05733,0,0,1-.05727-.03731l-.2451-.44378.01063.09587V5.84h-.14662V5.05117h.1412a.07108.07108,0,0,1,.0321.0052.10807.10807,0,0,1,.02386.02278Z"/>
  </g>
</svg>