<svg xmlns="http://www.w3.org/2000/svg" xmlns:xlink="http://www.w3.org/1999/xlink" width="164" height="40" viewBox="0 0 164 40"><defs><style>.cls-1{fill:#8231d4;stroke:#8231d4;stroke-miterlimit:10;}.cls-2{fill:url(#radial-gradient);}.cls-3{fill:url(#radial-gradient-2);}.cls-4{fill:#13027d;}.cls-5{fill:#fff;}.cls-6{fill:#b3b3b3;}</style><radialGradient id="radial-gradient" cx="14.52784" cy="37.38443" r="43.23577" gradientTransform="translate(42.71551 49.98118) rotate(-153.63561)" gradientUnits="userSpaceOnUse"><stop offset="0" stop-color="#5900a1"/><stop offset="0.82172" stop-color="#9400a1"/></radialGradient><radialGradient id="radial-gradient-2" cx="43.22022" cy="37.42668" r="46.15771" gradientTransform="translate(60.47863 25.82303) rotate(153.60082)" gradientUnits="userSpaceOnUse"><stop offset="0" stop-color="#009db9"/><stop offset="0.77162" stop-color="#45bdd6"/></radialGradient></defs><g id="Layer_1" data-name="Layer 1"><path class="cls-1" d="M60.64844,21.18506v7.624h-.30567V11.01953H64.3584a6.95308,6.95308,0,0,1,4.4668,1.25781A4.62749,4.62749,0,0,1,70.38184,16.102a4.74238,4.74238,0,0,1-.43848,2.03955A4.66473,4.66473,0,0,1,68.7041,19.749a5.91149,5.91149,0,0,1-1.90625,1.05469,7.44478,7.44478,0,0,1-2.43945.38135Zm0-.2544h3.71a7.03392,7.03392,0,0,0,2.36328-.37451,5.44694,5.44694,0,0,0,1.79785-1.02929,4.605,4.605,0,0,0,1.15039-1.53125,4.43917,4.43917,0,0,0,.40625-1.89356,4.48817,4.48817,0,0,0-1.42871-3.60254,6.44615,6.44615,0,0,0-4.28906-1.22607h-3.71Z"/><path class="cls-1" d="M85.96094,11.01953v.2793H75.87109v8.33594h8.56446v.27929H75.87109V28.5293H85.98633l-.02539.27978H75.56641V11.01953Z"/><path class="cls-1" d="M107.12988,19.91406a11.13386,11.13386,0,0,1-.60351,3.78662,8.27345,8.27345,0,0,1-1.68946,2.853,7.3269,7.3269,0,0,1-2.59863,1.8042,8.62159,8.62159,0,0,1-3.34277.62891,8.53535,8.53535,0,0,1-3.32227-.62891,7.33929,7.33929,0,0,1-2.59277-1.8042,8.27343,8.27343,0,0,1-1.68945-2.853,11.13361,11.13361,0,0,1-.60352-3.78662,11.15,11.15,0,0,1,.60352-3.78027,8.33434,8.33434,0,0,1,1.68945-2.86524,7.36551,7.36551,0,0,1,2.59277-1.81689,8.45787,8.45787,0,0,1,3.32227-.63574,8.6217,8.6217,0,0,1,3.34277.62939,7.28118,7.28118,0,0,1,2.59863,1.81055,8.33431,8.33431,0,0,1,1.68946,2.86523A11.19154,11.19154,0,0,1,107.12988,19.91406Zm-.33008,0a11.13181,11.13181,0,0,0-.57812-3.71045,8.05992,8.05992,0,0,0-1.62012-2.78271,6.93116,6.93116,0,0,0-2.49707-1.74707,8.29339,8.29339,0,0,0-3.209-.60352,8.18283,8.18283,0,0,0-3.17676.60352,6.99528,6.99528,0,0,0-2.49609,1.74707A8.14318,8.14318,0,0,0,91.583,16.20361a10.90534,10.90534,0,0,0-.59082,3.71045,10.84781,10.84781,0,0,0,.59082,3.7041,8.07478,8.07478,0,0,0,1.63965,2.77,7.02948,7.02948,0,0,0,2.49609,1.74121,8.18283,8.18283,0,0,0,3.17676.60352,8.29339,8.29339,0,0,0,3.209-.60352,6.96469,6.96469,0,0,0,2.49707-1.74121,7.992,7.992,0,0,0,1.62012-2.77A11.073,11.073,0,0,0,106.7998,19.91406Z"/><path class="cls-1" d="M113.915,21.18506v7.624h-.30566V11.01953H117.625a6.95308,6.95308,0,0,1,4.4668,1.25781,4.62746,4.62746,0,0,1,1.55664,3.82471A4.74238,4.74238,0,0,1,123.21,18.1416,4.66473,4.66473,0,0,1,121.9707,19.749a5.91149,5.91149,0,0,1-1.90625,1.05469,7.44478,7.44478,0,0,1-2.43945.38135Zm0-.2544h3.71a7.03388,7.03388,0,0,0,2.36328-.37451,5.44674,5.44674,0,0,0,1.79785-1.02929,4.6049,4.6049,0,0,0,1.15039-1.53125,4.43917,4.43917,0,0,0,.40625-1.89356,4.48817,4.48817,0,0,0-1.42871-3.60254,6.44615,6.44615,0,0,0-4.28906-1.22607h-3.71Z"/><path class="cls-1" d="M129.1377,28.5293h9.07324v.27978H128.833V11.01953h.30469Z"/><path class="cls-1" d="M153.17969,11.01953v.2793H143.08984v8.33594h8.56446v.27929h-8.56446V28.5293h10.11524l-.02539.27978H142.78516V11.01953Z"/><path class="cls-2" d="M5.00032,8.98022h40.2654a4.15607,4.15607,0,0,1,4.15607,4.15607V30.99613a0,0,0,0,1,0,0H9.15639a4.15607,4.15607,0,0,1-4.15607-4.15607V8.98022a0,0,0,0,1,0,0Z" transform="translate(60.46814 25.8135) rotate(153.63561)"/><path class="cls-3" d="M9.15638,8.9959h40.2654a0,0,0,0,1,0,0V26.85573a4.15607,4.15607,0,0,1-4.15607,4.15607H5.00031a0,0,0,0,1,0,0V13.152A4.15607,4.15607,0,0,1,9.15638,8.9959Z" transform="translate(42.69031 50.02031) rotate(-153.60082)"/><polygon class="cls-4" points="52 20.028 27.231 7.732 2.454 20.013 27.223 32.308 52 20.028"/><path class="cls-5" d="M15.861,17.1609h2.29008a2.14275,2.14275,0,1,1,0,4.27536h-.68055v1.78622H15.861ZM18.88813,19.293a.6762.6762,0,0,0-.737-.64688h-.68055V19.951l.68055.00381A.68072.68072,0,0,0,18.88813,19.293Z"/><path class="cls-5" d="M21.43394,17.1609H23.724a2.14275,2.14275,0,1,1,0,4.27536h-.68055v1.78622H21.43394ZM24.46108,19.293a.6762.6762,0,0,0-.73706-.64688h-.68055V19.951l.68055.00381A.68073.68073,0,0,0,24.46108,19.293Z"/><path class="cls-5" d="M30.93649,21.71089v1.51159h-3.9296V17.1609h1.60952v4.55Z"/><path class="cls-5" d="M31.61338,22.19587l.97407-.955a1.47724,1.47724,0,0,0,1.22949.59784c.34226,0,.67689-.12413.67689-.37226,0-.31209-.62038-.58657-1.21456-.84977A1.94222,1.94222,0,0,1,31.854,18.86806a1.9795,1.9795,0,0,1,2.1472-1.79748,1.94252,1.94252,0,0,1,1.884,1.03407l-.92882.895a1.144,1.144,0,0,0-.93644-.45877c-.33083,0-.56768.16922-.56768.37607,0,.27828.42861.36845,1.083.64292.94756.39861,1.57556.97772,1.57556,1.87273a2.06283,2.06283,0,0,1-2.29007,1.87257A2.3911,2.3911,0,0,1,31.61338,22.19587Z"/><path class="cls-5" d="M37.15632,17.1609h1.60952v6.06158H37.15632Z"/><path class="cls-6" d="M47.97368,5.05117v.1399h-.2399V5.84H47.5659v-.649H47.326v-.1399Zm.55049.43163.01519.03536a.28482.28482,0,0,1,.01279.03535l.01193-.03535a.18393.18393,0,0,1,.016-.03536l.22515-.40365a.06785.06785,0,0,1,.02277-.02278.07452.07452,0,0,1,.03189-.0052h.1412V5.84h-.14663V5.35353l.01215-.09977-.244.44768a.05976.05976,0,0,1-.05857.03731H48.54a.05733.05733,0,0,1-.05727-.03731l-.2451-.44378.01063.09587V5.84h-.14662V5.05117h.1412a.07108.07108,0,0,1,.0321.0052.10807.10807,0,0,1,.02386.02278Z"/></g></svg>