<svg id="Layer_1" data-name="Layer 1" xmlns="http://www.w3.org/2000/svg" xmlns:xlink="http://www.w3.org/1999/xlink" viewBox="0 0 446.59 77.95"><defs><style>.cls-1{fill:url(#radial-gradient);}.cls-2{fill:url(#radial-gradient-2);}.cls-3{fill:url(#radial-gradient-15);}</style><radialGradient id="radial-gradient" cx="2795.27" cy="-260.18" r="778.03" gradientTransform="translate(-848.09 188.88) scale(0.43 0.67)" gradientUnits="userSpaceOnUse"><stop offset="0" stop-color="#0fddfc"/><stop offset="0.1" stop-color="#45bdd6"/><stop offset="1" stop-color="#5900a1"/></radialGradient><radialGradient id="radial-gradient-2" cx="-2670.64" cy="2204.09" r="763.16" gradientTransform="translate(-1060.06 1513.84) rotate(180) scale(0.56 0.65)" xlink:href="#radial-gradient"/><radialGradient id="radial-gradient-15" cx="-2640.45" cy="2215.24" r="763.16" gradientTransform="translate(-1060.06 1513.84) rotate(180) scale(0.56 0.65)" xlink:href="#radial-gradient"/></defs><polygon class="cls-1" points="444.36 18.66 442.68 16.42 438.2 16.42 438.2 17.17 439.69 17.17 439.69 20.9 440.44 20.9 440.44 17.17 441.93 17.17 441.93 17.17 441.93 17.17 442.12 20.9 442.86 20.9 442.86 17.91 444.36 19.96 445.85 17.91 445.85 20.9 446.59 20.9 446.59 16.42 446.03 16.42 444.36 18.66"/><path d="M102.75,29.1c0-4.66,5.4-5.4,8.94-5.4a26.42,26.42,0,0,1,9.87,2.42l2.42-6a31.32,31.32,0,0,0-12.29-3c-7.26,0-15.83,3.17-15.83,11.73,0,14.9,22.16,10.43,22.16,19.37,0,4.09-5.77,5.4-8.94,5.4-3.35,0-7.45-1.49-10.61-2.61l-2.61,6c4.1,1.67,8.75,3.35,13.22,3.35,7.26,0,15.83-3.54,15.83-11.92C124.91,33.57,102.75,38.22,102.75,29.1Z"/><path class="cls-2" d="M102.75,29.1c0-4.66,5.4-5.4,8.94-5.4a26.42,26.42,0,0,1,9.87,2.42l2.42-6a31.32,31.32,0,0,0-12.29-3c-7.26,0-15.83,3.17-15.83,11.73,0,14.9,22.16,10.43,22.16,19.37,0,4.09-5.77,5.4-8.94,5.4-3.35,0-7.45-1.49-10.61-2.61l-2.61,6c4.1,1.67,8.75,3.35,13.22,3.35,7.26,0,15.83-3.54,15.83-11.92C124.91,33.57,102.75,38.22,102.75,29.1Z"/><path d="M144.27,29.1c-3.91,0-7.26,1.86-8.75,5.58V17.74H129V59.45h6.51V42.88c0-4.29,2-7.64,6.52-7.64s6.52,3.35,6.52,7.64V59.45h6.51V42.69C155.07,35.8,152.09,29.1,144.27,29.1Z"/><path class="cls-2" d="M144.27,29.1c-3.91,0-7.26,1.86-8.75,5.58V17.74H129V59.45h6.51V42.88c0-4.29,2-7.64,6.52-7.64s6.52,3.35,6.52,7.64V59.45h6.51V42.69C155.07,35.8,152.09,29.1,144.27,29.1Z"/><rect x="159.17" y="29.66" width="6.52" height="29.79"/><rect class="cls-2" x="159.17" y="29.66" width="6.52" height="29.79"/><rect x="159.17" y="17.74" width="6.52" height="7.45"/><rect class="cls-2" x="159.17" y="17.74" width="6.52" height="7.45"/><path d="M184.12,29.1a15.26,15.26,0,0,0-15.27,15.45c0,15.08,18.62,20.48,28.12,9.87l-4.47-3.91a10.63,10.63,0,0,1-8.19,3.72,8.78,8.78,0,0,1-8.75-6.7H199.2a15.71,15.71,0,0,0,.19-3A15.26,15.26,0,0,0,184.12,29.1Zm-8.38,12.84c1.68-8.93,14.71-8.93,16.95,0Z"/><path class="cls-2" d="M184.12,29.1a15.26,15.26,0,0,0-15.27,15.45c0,15.08,18.62,20.48,28.12,9.87l-4.47-3.91a10.63,10.63,0,0,1-8.19,3.72,8.78,8.78,0,0,1-8.75-6.7H199.2a15.71,15.71,0,0,0,.19-3A15.26,15.26,0,0,0,184.12,29.1Zm-8.38,12.84c1.68-8.93,14.71-8.93,16.95,0Z"/><rect x="202.93" y="17.74" width="6.52" height="41.52"/><rect class="cls-2" x="202.93" y="17.74" width="6.52" height="41.52"/><path d="M236.26,34.31a11.78,11.78,0,0,0-9.87-5.21c-8.38,0-14.71,7.45-14.71,15.45C211.68,52.93,218,60,226.39,60a11.54,11.54,0,0,0,9.87-5.4v4.65h6.51V17.74h-6.51Zm-8.94,19.55a9.31,9.31,0,0,1,0-18.62,9.18,9.18,0,0,1,9.12,9.31A9.06,9.06,0,0,1,227.32,53.86Z"/><path class="cls-2" d="M236.26,34.31a11.78,11.78,0,0,0-9.87-5.21c-8.38,0-14.71,7.45-14.71,15.45C211.68,52.93,218,60,226.39,60a11.54,11.54,0,0,0,9.87-5.4v4.65h6.51V17.74h-6.51Zm-8.94,19.55a9.31,9.31,0,0,1,0-18.62,9.18,9.18,0,0,1,9.12,9.31A9.06,9.06,0,0,1,227.32,53.86Z"/><path d="M262.79,18.59,249,59.26h5.43l4.22-12.79h14.42l4.35,12.79H283L269.13,18.59Zm-3.07,23.78,4-11.77c.78-2.47,1.45-5,2.05-7.36h.12c.6,2.35,1.21,4.77,2.11,7.42l4,11.71Z"/><path class="cls-2" d="M262.79,18.59,249,59.26h5.43l4.22-12.79h14.42l4.35,12.79H283L269.13,18.59Zm-3.07,23.78,4-11.77c.78-2.47,1.45-5,2.05-7.36h.12c.6,2.35,1.21,4.77,2.11,7.42l4,11.71Z"/><path d="M294.6,21.67l-5.19,1.39v7h-4.53v4h4.53V50c0,3.44.54,6,2,7.6a7.36,7.36,0,0,0,5.73,2.23,13.11,13.11,0,0,0,4.71-.72l-.24-4a11.92,11.92,0,0,1-3.08.36c-3,0-4-2.05-4-5.67V34.1h7.6v-4h-7.6Z"/><path class="cls-2" d="M294.6,21.67l-5.19,1.39v7h-4.53v4h4.53V50c0,3.44.54,6,2,7.6a7.36,7.36,0,0,0,5.73,2.23,13.11,13.11,0,0,0,4.71-.72l-.24-4a11.92,11.92,0,0,1-3.08.36c-3,0-4-2.05-4-5.67V34.1h7.6v-4h-7.6Z"/><path d="M343.59,39.11c-1.26,5.07-2.41,9.59-3.25,14.06h-.13c-.6-4.29-1.69-9.11-2.83-13.94l-4.95-20.64h-5.49l-5.43,20.52c-1.39,5.25-2.66,10.08-3.32,14.12h-.12c-.72-3.92-1.81-9-3-14.06l-4.82-20.58h-5.56L315,59.26h5.49l5.8-21.18a128.09,128.09,0,0,0,3.13-13.27h.12a123.7,123.7,0,0,0,2.66,13.27l5.13,21.18h5.49l11.52-40.67H349Z"/><path class="cls-2" d="M343.59,39.11c-1.26,5.07-2.41,9.59-3.25,14.06h-.13c-.6-4.29-1.69-9.11-2.83-13.94l-4.95-20.64h-5.49l-5.43,20.52c-1.39,5.25-2.66,10.08-3.32,14.12h-.12c-.72-3.92-1.81-9-3-14.06l-4.82-20.58h-5.56L315,59.26h5.49l5.8-21.18a128.09,128.09,0,0,0,3.13-13.27h.12a123.7,123.7,0,0,0,2.66,13.27l5.13,21.18h5.49l11.52-40.67H349Z"/><path d="M369.6,29.39c-8.08,0-14.48,5.74-14.48,15.51,0,9.23,6.1,15,14,15,7.06,0,14.54-4.71,14.54-15.51C383.66,35.49,378,29.39,369.6,29.39Zm-.24,26.55c-5.19,0-8.87-4.82-8.87-11.22,0-5.55,2.72-11.34,9-11.34s8.75,6.27,8.75,11.22C378.23,51.18,374.43,55.94,369.36,55.94Z"/><path class="cls-2" d="M369.6,29.39c-8.08,0-14.48,5.74-14.48,15.51,0,9.23,6.1,15,14,15,7.06,0,14.54-4.71,14.54-15.51C383.66,35.49,378,29.39,369.6,29.39Zm-.24,26.55c-5.19,0-8.87-4.82-8.87-11.22,0-5.55,2.72-11.34,9-11.34s8.75,6.27,8.75,11.22C378.23,51.18,374.43,55.94,369.36,55.94Z"/><path d="M395.19,35.79H395l-.18-5.73h-4.65c.18,2.71.24,5.67.24,9.11V59.26h5.25V43.69a15.1,15.1,0,0,1,.24-2.47c.73-4,3.38-6.82,7.12-6.82a8,8,0,0,1,1.81.18v-5a5.71,5.71,0,0,0-1.5-.18C399.72,29.39,396.52,31.87,395.19,35.79Z"/><path class="cls-2" d="M395.19,35.79H395l-.18-5.73h-4.65c.18,2.71.24,5.67.24,9.11V59.26h5.25V43.69a15.1,15.1,0,0,1,.24-2.47c.73-4,3.38-6.82,7.12-6.82a8,8,0,0,1,1.81.18v-5a5.71,5.71,0,0,0-1.5-.18C399.72,29.39,396.52,31.87,395.19,35.79Z"/><path d="M433.27,30.06h-6.4L418.3,40.13c-.84,1-1.87,2.3-2.59,3.32h-.12v-27h-5.25V59.26h5.25v-11l2.71-3,10.08,14h6.46L422,42.07Z"/><path class="cls-2" d="M433.27,30.06h-6.4L418.3,40.13c-.84,1-1.87,2.3-2.59,3.32h-.12v-27h-5.25V59.26h5.25v-11l2.71-3,10.08,14h6.46L422,42.07Z"/><path d="M69.7,7.46c-1.34-.62-2.7-1.2-4.06-1.74-2.08-.83-4.2-1.55-6.33-2.2A81,81,0,0,0,35.59,0,82,82,0,0,0,18.12,1.89,81,81,0,0,0,5.54,5.72c-1.37.54-2.72,1.12-4.06,1.74L0,8.13l0,2.38a81.5,81.5,0,0,0,1.6,16A81.93,81.93,0,0,0,8,45.59a82.45,82.45,0,0,0,5.47,9.69,82.64,82.64,0,0,0,9.58,12c.79.81,1.59,1.63,2.41,2.41a82.45,82.45,0,0,0,8.66,7.2l1.47,1,1.47-1a81.66,81.66,0,0,0,8.6-7.19h.05A89.71,89.71,0,0,0,56,57.76H49.76a85.53,85.53,0,0,1-7,7.73c-.82.8-1.67,1.58-2.53,2.34-1.5,1.33-3,2.62-4.64,3.83l0,0,0,0c-1.35-1-2.65-2.09-3.93-3.19a77.76,77.76,0,0,1-6.19-6A76.92,76.92,0,0,1,7.1,28,76.38,76.38,0,0,1,5.27,16.19c-.12-1.59-.2-3.19-.22-4.8,1.49-.65,3-1.23,4.5-1.78a75.37,75.37,0,0,1,26-4.56h0A76.34,76.34,0,0,1,56,7.82,74.3,74.3,0,0,1,65.19,11c.31.13.63.24.94.38,0,0,0,.16,0,.39s0,.7,0,1.05v0a106.07,106.07,0,0,1-1.91,14.84c-.06.3-.13.59-.19.88,0,.14-.07.27-.1.41a47.34,47.34,0,0,1-1.38,4.86c-.09.27-.18.5-.27.75a38.53,38.53,0,0,1-1.82,4.26c-.21.44-.43.86-.67,1.26s-.29.5-.43.73a.21.21,0,0,1,0,.06c-.27.43-.52.78-.76,1.1,0,0,0,0,0,0-2.71,4.25-6.11,3.83-7.68,3.33a2.49,2.49,0,0,1-.39-.14,2.82,2.82,0,0,1-.48-.27c-2-1.28-2.52-4.82-1.28-11.08L52.19,15a27.48,27.48,0,0,0-11.14-2.18A24.58,24.58,0,0,0,16.38,37.47c0,8.23,5.2,13.12,11.24,13.12,6.25,0,11-3,14.68-9.16h.41c-.31,6.35,3.54,9.16,7.71,9.16A15.46,15.46,0,0,0,55,49.86h0l.1,0h0l.77-.26h0l.06,0h0a15.77,15.77,0,0,0,1.72-.8l.08,0a18.56,18.56,0,0,0,8.32-9.91q1.38-3.72,2.4-7.56a81,81,0,0,0,2.7-20.71l0-2.38ZM43.22,30.76c-3,9.34-5.66,11.3-10.23,13.91s-14.76-1.41-7.92-16S45,19.05,45,19.05,46.24,21.42,43.22,30.76Z"/><path class="cls-3" d="M69.7,7.46c-1.34-.62-2.7-1.2-4.06-1.74-2.08-.83-4.2-1.55-6.33-2.2A81,81,0,0,0,35.59,0,82,82,0,0,0,18.12,1.89,81,81,0,0,0,5.54,5.72c-1.37.54-2.72,1.12-4.06,1.74L0,8.13l0,2.38a81.5,81.5,0,0,0,1.6,16A81.93,81.93,0,0,0,8,45.59a82.45,82.45,0,0,0,5.47,9.69,82.64,82.64,0,0,0,9.58,12c.79.81,1.59,1.63,2.41,2.41a82.45,82.45,0,0,0,8.66,7.2l1.47,1,1.47-1a81.66,81.66,0,0,0,8.6-7.19h.05A89.71,89.71,0,0,0,56,57.76H49.76a85.53,85.53,0,0,1-7,7.73c-.82.8-1.67,1.58-2.53,2.34-1.5,1.33-3,2.62-4.64,3.83l0,0,0,0c-1.35-1-2.65-2.09-3.93-3.19a77.76,77.76,0,0,1-6.19-6A76.92,76.92,0,0,1,7.1,28,76.38,76.38,0,0,1,5.27,16.19c-.12-1.59-.2-3.19-.22-4.8,1.49-.65,3-1.23,4.5-1.78a75.37,75.37,0,0,1,26-4.56h0A76.34,76.34,0,0,1,56,7.82,74.3,74.3,0,0,1,65.19,11c.31.13.63.24.94.38,0,0,0,.16,0,.39s0,.7,0,1.05v0a106.07,106.07,0,0,1-1.91,14.84c-.06.3-.13.59-.19.88,0,.14-.07.27-.1.41a47.34,47.34,0,0,1-1.38,4.86c-.09.27-.18.5-.27.75a38.53,38.53,0,0,1-1.82,4.26c-.21.44-.43.86-.67,1.26s-.29.5-.43.73a.21.21,0,0,1,0,.06c-.27.43-.52.78-.76,1.1,0,0,0,0,0,0-2.71,4.25-6.11,3.83-7.68,3.33a2.49,2.49,0,0,1-.39-.14,2.82,2.82,0,0,1-.48-.27c-2-1.28-2.52-4.82-1.28-11.08L52.19,15a27.48,27.48,0,0,0-11.14-2.18A24.58,24.58,0,0,0,16.38,37.47c0,8.23,5.2,13.12,11.24,13.12,6.25,0,11-3,14.68-9.16h.41c-.31,6.35,3.54,9.16,7.71,9.16A15.46,15.46,0,0,0,55,49.86h0l.1,0h0l.77-.26h0l.06,0h0a15.77,15.77,0,0,0,1.72-.8l.08,0a18.56,18.56,0,0,0,8.32-9.91q1.38-3.72,2.4-7.56a81,81,0,0,0,2.7-20.71l0-2.38ZM43.22,30.76c-3,9.34-5.66,11.3-10.23,13.91s-14.76-1.41-7.92-16S45,19.05,45,19.05,46.24,21.42,43.22,30.76Z"/></svg>