<?xml version="1.0" encoding="utf-8"?>
<!-- Generator: Adobe Illustrator 26.0.3, SVG Export Plug-In . SVG Version: 6.00 Build 0)  -->
<svg version="1.1" id="Layer_1" xmlns="http://www.w3.org/2000/svg" xmlns:xlink="http://www.w3.org/1999/xlink" x="0px" y="0px"
	 viewBox="0 0 89 91.2" style="enable-background:new 0 0 89 91.2;" xml:space="preserve">
<style type="text/css">
	.st0{fill:url(#SVGID_1_);}
	.st1{fill:url(#SVGID_00000072282170231782718810000002023115175066323597_);}
	.st2{fill:url(#SVGID_00000119116003700832013130000017142546407631239047_);}
</style>
<radialGradient id="SVGID_1_" cx="-3859.8108" cy="933.7079" r="1139.4857" gradientTransform="matrix(-7.890071e-02 0 0 0.4775 -215.8546 -354.6555)" gradientUnits="userSpaceOnUse">
	<stop  offset="0" style="stop-color:#0FDDFC"/>
	<stop  offset="9.835150e-02" style="stop-color:#45BDD6"/>
	<stop  offset="0.4117" style="stop-color:#4C77C2"/>
	<stop  offset="0.8157" style="stop-color:#5522AA"/>
	<stop  offset="1" style="stop-color:#5900A1"/>
</radialGradient>
<polygon class="st0" points="82,17.9 81.3,17 79.2,17 79.2,17.3 79.9,17.3 79.9,18.9 80.3,18.9 80.3,17.3 81,17.3 81,18.9 
	81.4,18.9 81.4,17.6 82,18.5 82.7,17.6 82.7,18.9 83,18.9 83,17 82.8,17 "/>
<linearGradient id="SVGID_00000007401720929746765760000018075372152532862353_" gradientUnits="userSpaceOnUse" x1="86.7467" y1="16.0033" x2="11.3764" y2="91.3736" gradientTransform="matrix(1 0 0 -1 0 94)">
	<stop  offset="0" style="stop-color:#45BDD6"/>
	<stop  offset="3.859234e-02" style="stop-color:#499BCD"/>
	<stop  offset="8.870083e-02" style="stop-color:#4C77C2"/>
	<stop  offset="0.1451" style="stop-color:#5057B9"/>
	<stop  offset="0.2074" style="stop-color:#533BB2"/>
	<stop  offset="0.2778" style="stop-color:#5525AB"/>
	<stop  offset="0.3601" style="stop-color:#5714A7"/>
	<stop  offset="0.4617" style="stop-color:#5809A3"/>
	<stop  offset="0.6043" style="stop-color:#5902A2"/>
	<stop  offset="1" style="stop-color:#5900A1"/>
</linearGradient>
<path style="fill:url(#SVGID_00000007401720929746765760000018075372152532862353_);" d="M71.7,12.4c-2.1-0.8-4.2-1.6-6.3-2.2
	c-7.7-2.3-15.7-3.5-23.7-3.5c-5.9,0-11.7,0.6-17.5,1.9c-4.3,0.9-8.5,2.2-12.6,3.8c-1.4,0.5-2.7,1.1-4.1,1.7L6,14.7v2.4
	c0,5.4,0.5,10.7,1.6,16c1.3,6.6,3.5,13,6.4,19.1c1.6,3.3,3.4,6.6,5.5,9.7c2.8,4.3,6,8.3,9.6,12c0.8,0.8,1.6,1.6,2.4,2.4
	c2.7,2.6,5.6,5,8.7,7.2l1.5,1l1.5-1c3-2.2,5.9-4.6,8.6-7.2c3.8-3.7,7.2-7.7,10.3-11.9h-6.2c-2.2,2.7-4.5,5.3-7,7.7
	c-0.8,0.8-1.7,1.6-2.5,2.3c-1.5,1.3-3,2.6-4.6,3.8c-1.3-1-2.7-2.1-3.9-3.2c-2.2-1.9-4.2-3.9-6.2-6c-9-9.7-15.3-21.6-18.4-34.5
	c-0.9-3.9-1.5-7.8-1.8-11.8c-0.1-1.6-0.2-3.2-0.2-4.8c1.5-0.6,3-1.2,4.5-1.8c8.3-3,17.1-4.6,26-4.6c6.9,0,13.8,0.9,20.4,2.8
	c3.1,0.9,6.2,1.9,9.2,3.2c0.3,0.1,0.6,0.2,0.9,0.4c0,0,0,0.2,0,0.4s0,0.7,0,1.1c-0.3,5-0.9,9.9-1.9,14.8c-0.1,0.3-0.1,0.6-0.2,0.9
	c0,0.1-0.1,0.3-0.1,0.4c-0.4,1.6-0.8,3.3-1.4,4.9c-0.1,0.3-0.2,0.5-0.3,0.8c-0.5,1.5-1.1,2.9-1.8,4.3c-0.2,0.4-0.4,0.9-0.7,1.3
	c-0.3,0.4-0.3,0.5-0.4,0.7c0,0,0,0,0,0.1c-0.3,0.4-0.5,0.8-0.8,1.1C62,53,58.6,52.6,57,52.1c-0.1,0-0.3-0.1-0.4-0.1
	c-0.2-0.1-0.3-0.2-0.5-0.3c-2-1.3-2.5-4.8-1.3-11.1l3.4-18.8c-3.5-1.5-7.3-2.2-11.1-2.2c-13.6,0-24.6,10.9-24.7,24.5
	c0,0.1,0,0.1,0,0.2c0,8.2,5.2,13.1,11.2,13.1c6.2,0,11-3,14.7-9.2h0.4c-0.3,6.3,3.5,9.2,7.7,9.2c1.6,0,3.1-0.3,4.6-0.7h0.2l0.8-0.3
	h0.1c0.6-0.2,1.2-0.5,1.7-0.8h0.1c3.9-2.2,6.8-5.7,8.3-9.9c0.9-2.5,1.7-5,2.4-7.6c1.8-6.8,2.7-13.7,2.7-20.7V15l-1.5-1
	C74.5,13.5,73.1,12.9,71.7,12.4z M49.4,37.4c-3,9.3-5.7,11.3-10.2,13.9c-4.5,2.6-14.8-1.4-7.9-16s19.9-9.6,19.9-9.6
	S52.4,28,49.4,37.4z"/>
<radialGradient id="SVGID_00000067935493848270471040000011281223874564515225_" cx="-3859.8108" cy="929.5195" r="1139.4857" gradientTransform="matrix(-7.890071e-02 0 0 0.4775 -215.8546 -354.6555)" gradientUnits="userSpaceOnUse">
	<stop  offset="0" style="stop-color:#0FDDFC"/>
	<stop  offset="9.835150e-02" style="stop-color:#45BDD6"/>
	<stop  offset="0.4117" style="stop-color:#4C77C2"/>
	<stop  offset="0.8157" style="stop-color:#5522AA"/>
	<stop  offset="1" style="stop-color:#5900A1"/>
</radialGradient>
<path style="fill:url(#SVGID_00000067935493848270471040000011281223874564515225_);" d="M71.7,12.4c-2.1-0.8-4.2-1.6-6.3-2.2
	c-7.7-2.3-15.7-3.5-23.7-3.5c-5.9,0-11.7,0.6-17.5,1.9c-4.3,0.9-8.5,2.2-12.6,3.8c-1.4,0.5-2.7,1.1-4.1,1.7L6,14.7v2.4
	c0,5.4,0.5,10.7,1.6,16c1.3,6.6,3.5,13,6.4,19.1c1.6,3.3,3.4,6.6,5.5,9.7c2.8,4.3,6,8.3,9.6,12c0.8,0.8,1.6,1.6,2.4,2.4
	c2.7,2.6,5.6,5,8.7,7.2l1.5,1l1.5-1c3-2.2,5.9-4.6,8.6-7.2c3.8-3.7,7.2-7.7,10.3-11.9h-6.2c-2.2,2.7-4.5,5.3-7,7.7
	c-0.8,0.8-1.7,1.6-2.5,2.3c-1.5,1.3-3,2.6-4.6,3.8c-1.3-1-2.7-2.1-3.9-3.2c-2.2-1.9-4.2-3.9-6.2-6c-9-9.7-15.3-21.6-18.4-34.5
	c-0.9-3.9-1.5-7.8-1.8-11.8c-0.1-1.6-0.2-3.2-0.2-4.8c1.5-0.6,3-1.2,4.5-1.8c8.3-3,17.1-4.6,26-4.6c6.9,0,13.8,0.9,20.4,2.8
	c3.1,0.9,6.2,1.9,9.2,3.2c0.3,0.1,0.6,0.2,0.9,0.4c0,0,0,0.2,0,0.4s0,0.7,0,1.1c-0.3,5-0.9,9.9-1.9,14.8c-0.1,0.3-0.1,0.6-0.2,0.9
	c0,0.1-0.1,0.3-0.1,0.4c-0.4,1.6-0.8,3.3-1.4,4.9c-0.1,0.3-0.2,0.5-0.3,0.8c-0.5,1.5-1.1,2.9-1.8,4.3c-0.2,0.4-0.4,0.9-0.7,1.3
	c-0.3,0.4-0.3,0.5-0.4,0.7c0,0,0,0,0,0.1c-0.3,0.4-0.5,0.8-0.8,1.1C62,53,58.6,52.6,57,52.1c-0.1,0-0.3-0.1-0.4-0.1
	c-0.2-0.1-0.3-0.2-0.5-0.3c-2-1.3-2.5-4.8-1.3-11.1l3.4-18.8c-3.5-1.5-7.3-2.2-11.1-2.2c-13.6,0-24.6,10.9-24.7,24.5
	c0,0.1,0,0.1,0,0.2c0,8.2,5.2,13.1,11.2,13.1c6.2,0,11-3,14.7-9.2h0.4c-0.3,6.3,3.5,9.2,7.7,9.2c1.6,0,3.1-0.3,4.6-0.7h0.2l0.8-0.3
	h0.1c0.6-0.2,1.2-0.5,1.7-0.8h0.1c3.9-2.2,6.8-5.7,8.3-9.9c0.9-2.5,1.7-5,2.4-7.6c1.8-6.8,2.7-13.7,2.7-20.7V15l-1.5-1
	C74.5,13.5,73.1,12.9,71.7,12.4z M49.4,37.4c-3,9.3-5.7,11.3-10.2,13.9c-4.5,2.6-14.8-1.4-7.9-16s19.9-9.6,19.9-9.6
	S52.4,28,49.4,37.4z"/>
</svg>
