<svg width="24" height="24" viewBox="0 0 24 24" fill="none" xmlns="http://www.w3.org/2000/svg">
<path fill-rule="evenodd" clip-rule="evenodd" d="M7.78486 4.3522C7.79758 4.35899 7.81034 4.36579 7.82313 4.37261L17.861 9.72615C18.2581 9.93788 18.6149 10.1282 18.8862 10.3064C19.1574 10.4846 19.4987 10.7462 19.6906 11.1621C19.9359 11.6938 19.9359 12.3063 19.6906 12.838C19.4987 13.2539 19.1574 13.5155 18.8862 13.6937C18.6149 13.8719 18.2581 14.0622 17.8612 14.2739L7.78446 19.6481C7.42896 19.8378 7.10404 20.0111 6.82831 20.1273C6.5453 20.2465 6.16895 20.3718 5.74416 20.317C5.19132 20.2457 4.6933 19.9469 4.37019 19.4926C4.12199 19.1437 4.05535 18.7526 4.02731 18.4467C3.99994 18.1481 3.99997 17.7789 4 17.375L4 6.66671C4 6.65279 4 6.63892 4 6.62508C3.99997 6.22116 3.99994 5.85205 4.02732 5.55339C4.05535 5.24751 4.122 4.85648 4.37019 4.50753C4.69331 4.05322 5.19134 3.75447 5.74416 3.68317C6.16891 3.62839 6.54523 3.75363 6.82826 3.87286C7.10412 3.98906 7.42918 4.16246 7.78486 4.3522ZM6.02219 5.7038C6.0211 5.71374 6.02002 5.72444 6.01897 5.73594C6.00101 5.9319 6 6.20732 6 6.66671V17.3334C6 17.7928 6.00101 18.0682 6.01897 18.2642C6.02002 18.2757 6.0211 18.2864 6.02219 18.2963C6.03139 18.2927 6.04125 18.2886 6.05179 18.2842C6.23312 18.2078 6.47649 18.0791 6.88196 17.8628L16.882 12.5295C17.3292 12.2909 17.6029 12.1438 17.7879 12.0222C17.7999 12.0144 17.8109 12.007 17.821 12.0001C17.8109 11.9931 17.7999 11.9857 17.7879 11.9779C17.6029 11.8563 17.3292 11.7092 16.882 11.4707L6.88196 6.13732C6.47651 5.92108 6.23314 5.79237 6.05183 5.71599C6.04127 5.71155 6.0314 5.70749 6.02219 5.7038Z" fill="#121212"/>
</svg>
