<svg width="24" height="24" viewBox="0 0 24 24" fill="none" xmlns="http://www.w3.org/2000/svg">
<path fill-rule="evenodd" clip-rule="evenodd" d="M6.41618 2.00004C6.44387 2.00007 6.47184 2.00009 6.50009 2.00009C6.52833 2.00009 6.55629 2.00007 6.58397 2.00004C6.96467 1.99974 7.2925 1.99948 7.58536 2.05773C8.77521 2.29441 9.70602 3.22457 9.94279 4.41486C10.0008 4.70648 10.0005 5.03338 10.0001 5.41065C10.0001 5.44015 10.0001 5.46996 10.0001 5.50009V18.5001C10.0001 18.5302 10.0001 18.56 10.0001 18.5895C10.0005 18.9668 10.0008 19.2937 9.94279 19.5854C9.70601 20.7757 8.77517 21.7058 7.58536 21.9424C7.2925 22.0007 6.96424 22.0004 6.58356 22.0001C6.55586 22.0001 6.5279 22.0001 6.49964 22.0001C6.4714 22.0001 6.44345 22.0001 6.41577 22.0001C6.03507 22.0004 5.70723 22.0007 5.41437 21.9424C4.224 21.7056 3.29439 20.7751 3.05773 19.5854C2.99948 19.2925 2.99974 18.9647 3.00004 18.584C3.00007 18.5563 3.00009 18.5283 3.00009 18.5001V5.50009C3.00009 5.47184 3.00007 5.44389 3.00004 5.41621C2.99974 5.03551 2.99948 4.70771 3.05773 4.41486C3.29438 3.22514 4.22395 2.29452 5.41437 2.05773C5.70723 1.99948 6.03549 1.99974 6.41618 2.00004ZM6.50009 4.00009C5.98744 4.00009 5.87679 4.00493 5.80455 4.0193C5.40821 4.09814 5.09828 4.408 5.0193 4.80504C5.00493 4.87729 5.00009 4.98751 5.00009 5.50009V18.5001C5.00009 19.0127 5.00493 19.1229 5.0193 19.1952C5.09827 19.5922 5.40816 19.902 5.80455 19.9809C5.8768 19.9952 5.98706 20.0001 6.49964 20.0001C7.01228 20.0001 7.12294 19.9952 7.19518 19.9809C7.59213 19.9019 7.90236 19.5916 7.98122 19.1952C7.99553 19.1232 8.00009 19.014 8.00009 18.5001V5.50009C8.00009 4.98616 7.99553 4.87701 7.98122 4.80504C7.90235 4.40857 7.59208 4.09825 7.19518 4.0193C7.12293 4.00493 7.01267 4.00009 6.50009 4.00009ZM17.4162 2.00004C17.4439 2.00007 17.4718 2.00009 17.5001 2.00009C17.5283 2.00009 17.5563 2.00007 17.584 2.00004C17.9647 1.99974 18.2925 1.99948 18.5854 2.05773C19.7752 2.29441 20.706 3.22457 20.9428 4.41486C21.0008 4.70648 21.0005 5.03338 21.0001 5.41066C21.0001 5.44016 21.0001 5.46997 21.0001 5.50009V18.5001C21.0001 18.5302 21.0001 18.56 21.0001 18.5895C21.0005 18.9668 21.0008 19.2937 20.9428 19.5854C20.706 20.7757 19.7752 21.7058 18.5854 21.9424C18.2925 22.0007 17.9642 22.0004 17.5836 22.0001C17.5559 22.0001 17.5279 22.0001 17.4996 22.0001C17.4714 22.0001 17.4434 22.0001 17.4158 22.0001C17.0351 22.0004 16.7072 22.0007 16.4144 21.9424C15.224 21.7056 14.2944 20.7751 14.0577 19.5854C13.9995 19.2925 13.9997 18.9647 14 18.584C14.0001 18.5563 14.0001 18.5283 14.0001 18.5001V5.50009C14.0001 5.47184 14.0001 5.44388 14 5.4162C13.9997 5.03551 13.9995 4.70771 14.0577 4.41486C14.2944 3.22514 15.224 2.29452 16.4144 2.05773C16.7072 1.99948 17.0355 1.99974 17.4162 2.00004ZM17.5001 4.00009C16.9874 4.00009 16.8768 4.00493 16.8046 4.0193C16.4082 4.09814 16.0983 4.408 16.0193 4.80504C16.0049 4.87729 16.0001 4.98751 16.0001 5.50009V18.5001C16.0001 19.0127 16.0049 19.1229 16.0193 19.1952C16.0983 19.5922 16.4082 19.902 16.8046 19.9809C16.8768 19.9952 16.9871 20.0001 17.4996 20.0001C18.0123 20.0001 18.1229 19.9952 18.1952 19.9809C18.5921 19.9019 18.9024 19.5916 18.9812 19.1952C18.9955 19.1232 19.0001 19.014 19.0001 18.5001V5.50009C19.0001 4.98616 18.9955 4.87701 18.9812 4.80504C18.9024 4.40857 18.5921 4.09825 18.1952 4.0193C18.1229 4.00493 18.0127 4.00009 17.5001 4.00009Z" fill="#121212"/>
</svg>
