<svg width="24" height="24" viewBox="0 0 24 24" fill="none" xmlns="http://www.w3.org/2000/svg">
<path fill-rule="evenodd" clip-rule="evenodd" d="M6.16169 2H17.8388C18.3659 1.99998 18.8206 1.99997 19.1951 2.03057C19.5904 2.06288 19.9835 2.13422 20.3618 2.32698C20.9259 2.61439 21.3854 3.07316 21.6733 3.63805C21.8661 4.01653 21.9373 4.40983 21.9696 4.80511C22.0001 5.17899 22 5.63286 22 6.1588V17.841C22 18.367 22.0001 18.8209 21.9696 19.1949C21.9373 19.5902 21.8661 19.9835 21.6733 20.362C21.3854 20.927 20.9258 21.3856 20.3618 21.673C19.9835 21.8657 19.5904 21.9371 19.1951 21.9694C18.8205 22 18.3657 22 17.8384 22H6.1621C5.63474 22 5.17975 22 4.80498 21.9694C4.4096 21.9371 4.01625 21.8658 3.63782 21.673C3.07319 21.3853 2.61454 20.9264 2.327 20.362C2.1342 19.9836 2.06289 19.5904 2.03059 19.195C1.99998 18.8204 2 18.3656 2.00002 17.8385V6.1614C2 5.63426 1.99998 5.17951 2.03059 4.80496C2.06289 4.40962 2.13421 4.01642 2.327 3.63805C2.61449 3.07382 3.07308 2.61473 3.63782 2.32698C4.01626 2.13416 4.40963 2.06286 4.805 2.03057C5.17967 1.99997 5.63452 1.99998 6.16169 2ZM4.96782 4.02393C4.69597 4.04614 4.59519 4.08383 4.54581 4.109C4.3579 4.20474 4.20502 4.35761 4.10901 4.54603C4.08381 4.59549 4.04614 4.6962 4.02395 4.96783C4.0008 5.25115 4.00002 5.6234 4.00002 6.19995V17.8C4.00002 18.3765 4.0008 18.7488 4.02395 19.0322C4.04614 19.3039 4.08383 19.4046 4.10901 19.454C4.20496 19.6424 4.35779 19.7952 4.54581 19.891C4.59521 19.9161 4.696 19.9538 4.96784 19.9761C5.25129 19.9992 5.62368 20 6.20021 20H17.8002C18.3768 20 18.7489 19.9992 19.0321 19.9761C19.3036 19.9539 19.4043 19.9162 19.4538 19.891C19.6425 19.7948 19.7956 19.6417 19.8912 19.454C19.9164 19.4047 19.954 19.3041 19.9762 19.0323C19.9993 18.7489 20 18.3766 20 17.8V6.19995C20 5.6233 19.9993 5.25105 19.9762 4.96767C19.954 4.69598 19.9164 4.59537 19.8912 4.54603C19.7956 4.35828 19.6424 4.20508 19.4538 4.109C19.4043 4.08377 19.3036 4.04612 19.0322 4.02393C18.7489 4.00078 18.3768 4 17.8002 4H6.20021C5.62367 4 5.25127 4.00078 4.96782 4.02393Z" fill="#121212"/>
<path fill-rule="evenodd" clip-rule="evenodd" d="M8.98911 11.5717C8.98509 11.5756 8.98083 11.5797 8.97635 11.5841C8.87716 11.6813 8.75068 11.8275 8.52725 12.0882L3.75927 17.6508C3.39985 18.0701 2.76855 18.1187 2.34923 17.7593C1.9299 17.3999 1.88134 16.7686 2.24076 16.3492L7.00874 10.7866C7.01621 10.7779 7.02368 10.7692 7.03113 10.7605C7.22334 10.5362 7.40702 10.3218 7.57607 10.1561C7.75831 9.97736 7.99716 9.779 8.32105 9.66417C8.76248 9.50767 9.24461 9.51112 9.68365 9.67366C10.0059 9.79299 10.242 9.99466 10.4217 10.1759C10.5883 10.3439 10.7689 10.5606 10.9578 10.7873L13.6466 14.0139C13.8521 14.2605 13.9669 14.397 14.0571 14.4883C14.0609 14.4922 14.0646 14.4958 14.068 14.4992C14.0718 14.4961 14.0757 14.4928 14.0799 14.4893C14.178 14.4065 14.3047 14.281 14.5317 14.054L15.0528 13.5329C15.2506 13.335 15.441 13.1446 15.6144 12.9984C15.8028 12.8396 16.0452 12.6671 16.3624 12.5756C16.7973 12.4501 17.2621 12.4758 17.6805 12.6486C17.9858 12.7747 18.2077 12.9729 18.3773 13.1516C18.5333 13.3158 18.7012 13.5257 18.8756 13.7438L21.7809 17.3754C22.1259 17.8067 22.056 18.436 21.6247 18.781C21.1934 19.126 20.5641 19.0561 20.2191 18.6248L17.3358 15.0207C17.1317 14.7655 17.0173 14.6238 16.927 14.5287C16.9231 14.5246 16.9194 14.5208 16.9159 14.5172C16.912 14.5204 16.9079 14.5238 16.9035 14.5275C16.8034 14.612 16.674 14.7401 16.443 14.9711L15.9221 15.492C15.7279 15.6862 15.5407 15.8735 15.3699 16.0177C15.1839 16.1746 14.9453 16.3447 14.6332 16.4368C14.2043 16.5634 13.7455 16.5426 13.3298 16.3777C13.0273 16.2577 12.8051 16.0668 12.6341 15.8937C12.4769 15.7345 12.3073 15.5309 12.1314 15.3197L9.44371 12.0945C9.2239 11.8308 9.09949 11.6829 9.00167 11.5842C8.99725 11.5798 8.99307 11.5756 8.98911 11.5717Z" fill="#121212"/>
<path fill-rule="evenodd" clip-rule="evenodd" d="M13 8C13 6.89543 13.8954 6 15 6C16.1046 6 17 6.89543 17 8C17 9.10457 16.1046 10 15 10C13.8954 10 13 9.10457 13 8Z" fill="#121212"/>
</svg>
