<svg width="24" height="24" viewBox="0 0 24 24" fill="none" xmlns="http://www.w3.org/2000/svg">
<path fill-rule="evenodd" clip-rule="evenodd" d="M2 12C2 6.47715 6.47715 2 12 2C17.5228 2 22 6.47715 22 12C22 17.5228 17.5228 22 12 22C6.47715 22 2 17.5228 2 12Z" fill="#121212"/>
<path fill-rule="evenodd" clip-rule="evenodd" d="M10.9502 8C10.9502 7.44772 11.3979 7 11.9502 7H12.0498C12.6021 7 13.0498 7.44772 13.0498 8V8.1C13.0498 8.36526 12.9444 8.61965 12.7568 8.80719C12.5692 8.99474 12.3148 9.10007 12.0496 9.1L11.95 9.09998C11.3978 9.09984 10.9502 8.65217 10.9502 8.09998V8ZM12 10C12.5523 10 13 10.4477 13 11V16C13 16.5523 12.5523 17 12 17C11.4477 17 11 16.5523 11 16V11C11 10.4477 11.4477 10 12 10Z" fill="white"/>
</svg>
