<svg width="24" height="24" viewBox="0 0 24 24" fill="none" xmlns="http://www.w3.org/2000/svg">
<path fill-rule="evenodd" clip-rule="evenodd" d="M2 12C2 6.47715 6.47715 2 12 2C17.5228 2 22 6.47715 22 12C22 17.5228 17.5228 22 12 22C6.47715 22 2 17.5228 2 12Z" fill="#8231D4"/>
<path fill-rule="evenodd" clip-rule="evenodd" d="M16.6647 8.2526C17.0775 8.61952 17.1147 9.25159 16.7477 9.66437L11.4144 15.6644C11.2247 15.8779 10.9527 16 10.667 16C10.3814 16 10.1094 15.8779 9.91963 15.6644L7.25264 12.6644C6.8857 12.2517 6.92284 11.6196 7.3356 11.2526C7.74836 10.8857 8.38044 10.9228 8.74738 11.3356L10.667 13.4949L15.2529 8.33565C15.6198 7.92286 16.2519 7.88568 16.6647 8.2526Z" fill="white"/>
</svg>
