<svg width="24" height="24" viewBox="0 0 24 24" fill="none" xmlns="http://www.w3.org/2000/svg">
<path d="M10.7796 3.25936C11.5563 2.91355 12.4435 2.91355 13.2202 3.25936C13.7687 3.50356 14.1594 3.9489 14.4907 4.41786C14.8192 4.88268 15.1795 5.50686 15.6138 6.25905L15.6138 6.25909L20.5112 14.7417C20.9454 15.4936 21.3056 16.1175 21.5439 16.6342C21.7843 17.1556 21.9746 17.7165 21.9118 18.3136C21.8229 19.1594 21.3791 19.9275 20.6914 20.4271C20.2057 20.78 19.6248 20.8957 19.053 20.9481C18.4867 21.0001 17.7666 21.0001 16.8988 21.0001H7.10144C6.23362 21.0001 5.51346 21.0001 4.94713 20.9481C4.37536 20.8957 3.7944 20.78 3.30867 20.4271C2.62098 19.9275 2.17716 19.1594 2.08826 18.3136C2.02551 17.7165 2.21578 17.1556 2.45622 16.6342C2.69446 16.1175 3.05469 15.4936 3.48882 14.7417L8.38797 6.25615L8.38798 6.25614C8.82144 5.50532 9.18122 4.88214 9.5091 4.41797C9.84036 3.94903 10.231 3.5036 10.7796 3.25936Z" fill="#FFD60A"/>
<path fill-rule="evenodd" clip-rule="evenodd" d="M12 8C12.5523 8 13 8.44772 13 9V13C13 13.5523 12.5523 14 12 14C11.4477 14 11 13.5523 11 13V9C11 8.44772 11.4477 8 12 8ZM10.9502 16C10.9502 15.4477 11.3979 15 11.9502 15H12.0498C12.6021 15 13.0498 15.4477 13.0498 16V16.1C13.0498 16.3653 12.9444 16.6197 12.7568 16.8072C12.5692 16.9947 12.3148 17.1001 12.0496 17.1L11.9499 17.1C11.3978 17.0998 10.9502 16.6522 10.9502 16.1V16Z" fill="#121212"/>
</svg>
