<svg width="99" height="24" viewBox="0 0 99 24" fill="none" xmlns="http://www.w3.org/2000/svg">
<path d="M4.65315 10.7591C1.84498 16.4081 3.85315 20.4244 4.70213 21.5999C4.71845 21.6163 4.6858 21.6489 4.66947 21.6326C-1.19175 16.9632 2.57968 6.05709 11.347 4.5877C11.3797 4.5877 11.3797 4.62035 11.3634 4.63668C11.0695 4.75097 10.7756 4.88158 10.4817 5.01219C8.01641 6.1877 5.92662 8.22852 4.65315 10.7591ZM6.66131 18.0244C6.43274 16.5877 6.43274 15.1183 6.66131 13.7142C7.11845 10.8897 8.48988 8.29382 10.4491 6.36729C10.8083 6.00811 11.2001 5.68158 11.6082 5.37137C11.6246 5.35505 11.6083 5.3224 11.5919 5.3224C7.00417 7.37954 4.35927 12.4897 4.70213 17.1428C4.88172 19.2653 5.7307 23.1999 9.81233 23.9673C9.84499 23.9673 9.84499 23.9346 9.82866 23.9183C8.14703 22.7918 6.97152 20.0816 6.66131 18.0244ZM0.996005 7.52648C3.05315 4.63668 7.24907 2.6775 11.3634 3.18362C11.396 3.18362 11.396 3.15097 11.3797 3.13464C8.24498 2.22036 4.97968 2.84076 2.98784 4.44076C2.12254 5.1428 1.46947 6.33464 0.963352 7.51015C0.947025 7.52648 0.979678 7.5428 0.996005 7.52648ZM24.1634 11.1346C23.6246 4.50607 17.6491 -0.522503 11.0205 0.0815782C8.71845 0.293823 6.25315 1.24076 4.42458 2.79178C4.40825 2.80811 4.42458 2.84076 4.45723 2.82443C6.02458 1.92647 8.196 1.9428 9.46947 2.08974C10.1389 2.17137 10.8082 2.30199 11.445 2.51423C12.0817 2.71015 12.7185 2.97138 13.3062 3.28158C13.6164 3.44484 13.9103 3.62443 14.2042 3.80403C15.2817 3.31423 16.4246 3.00403 17.5838 2.84076C17.6654 2.82443 17.747 2.87342 17.7797 2.95505C17.8123 3.05301 17.747 3.16729 17.6491 3.18362C17.0287 3.31423 16.4246 3.49382 15.8368 3.72239C15.8042 3.73872 15.8205 3.77138 15.8531 3.77138C16.6858 3.77138 17.5348 3.86934 18.3348 4.0326C18.4001 4.04893 18.4654 4.09791 18.4817 4.17954C18.498 4.29382 18.4001 4.39178 18.2858 4.37545C17.5674 4.26117 16.8491 4.22852 16.1307 4.24484C16.098 4.24484 16.098 4.29382 16.1307 4.29382C16.4736 4.39178 16.8001 4.52239 17.1266 4.65301C17.747 4.8979 18.3348 5.20811 18.8899 5.55097C18.9389 5.58362 18.9715 5.64893 18.9715 5.71423C18.9552 5.84484 18.8246 5.91015 18.7103 5.84484C18.1552 5.53464 17.5674 5.27342 16.9634 5.06117C16.7185 4.97954 16.4572 4.8979 16.196 4.81627C16.1634 4.79995 16.147 4.84892 16.1797 4.86525C16.6042 5.12647 17.0123 5.42036 17.3878 5.74689C17.894 6.17138 18.3674 6.64485 18.7919 7.13464C18.8409 7.18362 18.8409 7.24892 18.8246 7.31423C18.7593 7.44484 18.6123 7.44484 18.547 7.36321C18.1225 6.88974 17.6491 6.44893 17.1429 6.05709C16.8491 5.82852 16.5389 5.61627 16.2123 5.42036C16.1797 5.40403 16.1634 5.43668 16.1797 5.45301C16.2776 5.55096 16.3593 5.64893 16.4409 5.74689C16.8817 6.25301 17.2736 6.77546 17.6164 7.34688C17.9593 7.91831 18.2368 8.50607 18.4654 9.12648C18.4817 9.19178 18.4817 9.25709 18.4327 9.30607C18.3348 9.40403 18.1878 9.37138 18.1389 9.25709C17.894 8.66934 17.6164 8.0979 17.2736 7.55913C16.9307 7.02035 16.5389 6.51423 16.1144 6.04076C15.6736 5.56729 15.2001 5.1428 14.694 4.76729C14.547 4.65301 14.3348 4.50607 14.2531 4.45709C4.27764 10.0081 7.73886 24.604 14.9389 23.853C20.6368 22.5142 24.6532 17.1591 24.1634 11.1346ZM2.51437 9.3224C4.81641 5.68158 8.81641 4.11423 11.2654 3.86934C11.298 3.86934 11.298 3.82035 11.2654 3.82035C10.2531 3.73872 9.30621 3.80403 8.08172 4.04892C6.8409 4.32647 5.64907 4.81627 4.57152 5.51831C3.49396 6.20403 2.54703 7.08566 1.77968 8.11423C1.76335 8.13056 1.76335 8.13056 1.76335 8.14688C0.277637 10.1224 -0.195832 12.6857 0.391923 15.0857C0.457229 15.3632 0.653148 15.9346 0.767434 16.2938C0.78376 16.3265 0.816413 16.3102 0.816413 16.2775C0.522536 13.4367 1.35519 11.1673 2.51437 9.3224ZM38.9225 19.1183L39.445 17.4204H34.4491V7.46117H32.2776V19.1183H38.9225ZM43.8042 14.7265H47.3797L45.6001 10.3346L43.8042 14.7265ZM39.9348 19.1183L44.898 7.46117H46.5307L51.494 19.1183H49.1919L48.0817 16.4081H43.1348L42.0246 19.1183H39.9348ZM54.3838 19.1183L50.5144 7.46117H52.898L55.4123 16.0489L58.2042 7.7877H59.7878L62.8083 16.1959L65.3552 7.46117H67.4776L63.6083 19.1183H61.8776L58.9389 10.8897L56.147 19.1183H54.3838ZM71.445 19.3469C70.8572 19.3469 70.2695 19.2816 69.7144 19.151C69.1593 19.0204 68.6858 18.8408 68.294 18.5959L68.5389 16.9469C69.4042 17.453 70.3511 17.6979 71.347 17.6979C72.0654 17.6979 72.6368 17.5183 73.0613 17.1591C73.4695 16.7999 73.6817 16.3102 73.6817 15.6897C73.6817 15.151 73.4858 14.7265 73.094 14.4326C72.7021 14.1387 72.147 13.9918 71.445 13.9918H70.1552V12.4244H71.445C72.0654 12.4244 72.5552 12.2612 72.8817 11.951C73.2246 11.6408 73.3878 11.1836 73.3878 10.5795C73.3878 10.1224 73.2083 9.76321 72.8654 9.50199C72.5225 9.24076 72.0491 9.11015 71.4613 9.11015C70.645 9.11015 69.8287 9.37138 68.9797 9.89382L68.7348 8.24484C69.143 7.99995 69.6164 7.80403 70.1389 7.67342C70.6613 7.5428 71.1838 7.46117 71.7225 7.46117C72.9307 7.46117 73.8776 7.73872 74.547 8.2775C75.2164 8.81627 75.5429 9.58362 75.5429 10.5959C75.5429 11.151 75.396 11.6408 75.1021 12.0653C74.8083 12.4897 74.4001 12.8163 73.894 13.0612C74.4817 13.2897 74.9715 13.6326 75.3307 14.1224C75.6899 14.5959 75.8858 15.151 75.8858 15.7714C75.8858 16.8979 75.494 17.7795 74.7266 18.4163C73.9266 19.0367 72.8491 19.3469 71.445 19.3469ZM79.3144 15.2816C79.3144 16.0326 79.494 16.604 79.8531 17.0448C80.2123 17.4693 80.7021 17.6816 81.3225 17.6816C81.8613 17.6816 82.3021 17.4857 82.645 17.0938C82.9878 16.702 83.1511 16.2122 83.1511 15.6081C83.1511 14.9877 82.9878 14.4816 82.6613 14.1224C82.3348 13.7632 81.8776 13.5673 81.3225 13.5673C80.947 13.5673 80.6205 13.6163 80.3103 13.7306C80.0001 13.8448 79.7062 14.0081 79.4287 14.253C79.347 14.5959 79.3144 14.9387 79.3144 15.2816ZM81.2246 19.3469C80.3919 19.3469 79.6736 19.1673 79.0695 18.8081C78.4654 18.4489 77.9919 17.9428 77.6491 17.2734C77.3062 16.6204 77.1429 15.8367 77.1429 14.9387C77.1429 13.8612 77.3715 12.8489 77.8287 11.8857C78.2858 10.9224 78.9552 10.0734 79.8042 9.30607C80.6531 8.53872 81.6654 7.91832 82.8572 7.46117L84.6042 8.53872C83.2164 9.15913 82.1062 9.79587 81.3062 10.4653C80.4899 11.1346 79.9348 11.8693 79.6246 12.653C80.294 12.1795 81.0287 11.9346 81.845 11.9346C82.498 11.9346 83.1021 12.0979 83.6246 12.4081C84.147 12.7346 84.5715 13.1591 84.8817 13.6979C85.1919 14.2367 85.3389 14.8408 85.3389 15.5101C85.3389 16.2612 85.1593 16.9306 84.8164 17.502C84.4736 18.0734 83.9838 18.5306 83.3797 18.8571C82.7593 19.1999 82.0409 19.3469 81.2246 19.3469ZM90.8083 17.6816C92.245 17.6816 92.9634 16.2612 92.9634 13.4204C92.9634 10.5632 92.245 9.1428 90.8083 9.1428C89.3715 9.1428 88.6532 10.5632 88.6532 13.4204C88.6532 16.2612 89.3715 17.6816 90.8083 17.6816ZM90.8083 19.3469C89.4205 19.3469 88.3593 18.8244 87.5919 17.7959C86.8246 16.7673 86.4491 15.2979 86.4491 13.404C86.4491 11.4938 86.8246 10.0244 87.5919 8.99586C88.3593 7.96729 89.4205 7.44484 90.8083 7.44484C92.196 7.44484 93.2736 7.96729 94.0246 8.99586C94.7756 10.0244 95.1511 11.4938 95.1511 13.404C95.1511 15.2979 94.7756 16.7673 94.0246 17.7959C93.2736 18.8408 92.196 19.3469 90.8083 19.3469Z" fill="#121212"/>
</svg>
