<svg width="148" height="24" viewBox="0 0 148 24" fill="none" xmlns="http://www.w3.org/2000/svg">
<g clip-path="url(#clip0_12241_8104)">
<path d="M147.2 22.1555H0V23.7555H147.2V22.1555Z" fill="#121212"/>
<path d="M26.7378 15.8448C26.7378 15.3947 26.7378 0.2832 26.7378 0.2832H21.8528C21.8528 0.2832 21.8528 14.7445 21.8528 15.1698C21.8528 17.4875 19.8756 18.8681 17.0802 18.8681C13.8882 18.8681 12.1358 17.4879 12.1358 15.141C12.1358 14.7172 12.1358 0.2832 12.1358 0.2832H7.25234C7.25234 0.2832 7.25234 15.0546 7.25234 15.5623C7.25234 20.7921 11.4032 22.8805 16.9664 22.8805C20.8061 22.8805 23.8999 21.8304 25.5149 19.707V22.5977H29.8722V18.0532H26.3911C26.6163 17.3863 26.7378 16.6516 26.7378 15.8448Z" fill="#121212"/>
<path d="M50.0887 16.1594C50.0887 12.3438 47.7736 10.5076 43.3373 9.65945C42.8281 9.57452 41.3586 9.26289 40.232 9.03766C36.5874 8.30363 35.2589 7.65452 35.2589 6.01588C35.2589 4.74388 35.9944 3.92603 39.6941 3.92603C42.5179 3.92603 43.7327 4.57514 44.3253 5.81834C44.4955 6.15877 44.637 6.66498 44.637 6.91865H49.6648C49.6648 6.35188 49.4399 5.50818 49.1556 4.77268C48.0276 1.9488 45.3998 0 39.8067 0C33.2543 0 30.2052 2.53994 30.2052 6.32751C30.2052 10.0283 32.8866 12.0332 37.2379 12.8518C38.226 13.0479 39.8643 13.361 40.5149 13.4751C44.1263 14.153 45.0608 14.8006 45.0608 16.6379C45.0608 18.1074 43.8752 19.0364 40.4831 19.0364C37.5193 19.0364 36.0509 18.4741 35.4291 17.1744C35.2589 16.8369 35.1175 16.159 35.1175 15.7625H30.0896C30.0896 16.2126 30.1746 17.3158 30.4042 18.0484C31.3044 20.8737 33.7332 22.9074 40.4831 22.9074C44.7234 22.9074 47.5458 21.7174 48.9784 19.7487V22.5973H53.3342V18.0532H49.8158C49.9923 17.4613 50.0887 16.8306 50.0887 16.1594Z" fill="#121212"/>
<path d="M69.0941 14.6592L60.508 0.2832H54.8311V22.5977H59.4911V7.48468L68.4738 22.5977H73.7541V0.2832H69.0941V14.6592Z" fill="#121212"/>
<path d="M84.5456 5.74782C80.953 5.74782 78.1099 7.09366 76.5234 9.3984C75.5973 10.7151 75.0867 12.3899 75.0867 14.2756C75.0867 16.3425 75.5353 17.9882 76.3458 19.2746C77.9309 21.7898 80.8917 22.8661 84.5453 22.8661C87.2078 22.8661 89.2153 22.2978 90.6535 21.3718C92.2976 20.3202 93.2554 18.826 93.642 17.2398H88.9428C88.8549 17.6005 88.4351 18.137 87.5696 18.5262C86.8788 18.826 85.8922 19.0656 84.5453 19.0656C82.7497 19.0656 81.4053 18.5882 80.713 17.8398C80.1462 17.211 79.8158 16.6442 79.8158 15.8913H93.7627C94.0312 13.4105 93.5826 11.0444 92.3552 9.24886C90.8916 7.12246 88.3155 5.74782 84.5456 5.74782ZM79.7859 12.751C79.7859 12.2699 80.236 11.2848 80.8042 10.7756C81.6132 10.0575 82.8712 9.60591 84.5744 9.60591C86.3715 9.60591 87.508 10.1771 88.1988 10.865C88.7959 11.4938 89.0008 12.2699 89.0008 12.7506L79.7859 12.751Z" fill="#121212"/>
<path d="M118.44 6.13735L114.581 18.3759L110.869 6.13735H105.544L101.923 18.3759L97.9731 6.13735H92.9755L98.8659 22.5977H104.557C104.557 22.5977 107.791 13.1406 107.82 12.5701C107.85 12.3899 108.026 11.4148 108.026 11.4148C108.026 11.4148 108.208 12.3899 108.24 12.6004C108.297 13.1406 111.532 22.5977 111.532 22.5977H117.187L123.143 6.13735H118.44Z" fill="#121212"/>
<path d="M134.507 12.6004C133.94 12.511 131.635 12.1791 130.678 12.0336C128.344 11.6729 127.832 11.4048 127.832 10.6866C127.832 9.91052 128.612 9.48812 131.247 9.48812C133.52 9.48812 134.387 9.88025 134.717 10.3274C134.864 10.5364 134.928 11.0441 134.928 11.2231H139.566C139.566 10.8942 139.475 9.88025 139.266 9.24849C138.43 6.88615 135.583 5.71902 131.067 5.71902C125.768 5.71902 123.137 7.63458 123.137 10.5637C123.137 13.7099 124.872 15.295 128.494 15.8027C129.48 15.9526 131.456 16.2528 132.082 16.3422C134.507 16.7014 135.496 16.9089 135.496 17.8394C135.496 18.7957 134.658 19.2746 131.935 19.2746C129.33 19.2746 128.074 19.0656 127.774 18.288C127.654 17.9575 127.625 17.6592 127.625 17.4487H122.868C122.868 17.9882 122.897 18.4383 123.045 19.0959C123.734 21.7902 126.367 22.8949 131.935 22.8949C137.621 22.8949 140.194 21.1599 140.194 17.7486C140.194 14.6666 138.456 13.1996 134.507 12.6004Z" fill="#121212"/>
<path d="M77.8013 4.80185C78.2281 4.80185 78.6896 4.72985 79.036 4.58548C79.0995 4.6416 79.1715 4.70363 79.2464 4.75717H80.9527C80.6281 4.49908 80.2891 4.23803 79.9908 4.01723C80.3501 3.67532 80.5779 3.18942 80.5993 2.62671H79.3417C79.3288 2.88332 79.2464 3.12148 79.0995 3.30757C78.8414 3.09563 78.5833 2.86486 78.3813 2.70018C78.8285 2.42326 79.2642 2.02818 79.2786 1.45994C79.2786 1.42966 79.2845 1.3056 79.2786 1.26535C79.2468 0.721477 78.7491 0.227077 77.8954 0.227077C76.9609 0.227077 76.42 0.749169 76.3956 1.30006C76.3956 1.37206 76.3956 1.47618 76.3956 1.52788C76.403 1.79889 76.5023 2.10609 76.7634 2.47532C76.2324 2.72492 75.748 3.04209 75.7365 3.55274C75.7365 3.61034 75.7321 3.71446 75.7365 3.78499C75.7749 4.60726 76.7353 4.80185 77.8013 4.80185ZM77.5805 1.48025C77.5993 1.32148 77.6827 1.18597 77.8818 1.18597C78.0882 1.18597 78.1587 1.31594 78.1661 1.46437C78.1661 1.48025 78.1661 1.52788 78.1661 1.5552C78.1517 1.72985 77.9914 1.87828 77.7621 2.01378C77.651 1.86794 77.5875 1.72542 77.5805 1.60135C77.5749 1.56369 77.5749 1.51643 77.5805 1.48025ZM77.4176 3.22671C77.6067 3.41723 77.8733 3.62474 78.1302 3.84554C78.0191 3.87434 77.8648 3.89022 77.7381 3.89022C77.2707 3.89022 77.0702 3.80788 77.0702 3.59151C77.0698 3.46486 77.2127 3.34228 77.4176 3.22671Z" fill="#121212"/>
<path d="M84.8251 4.75717C84.8251 4.75717 85.5115 2.17846 85.5189 2.02818C85.5363 2.17255 86.2068 4.75717 86.2068 4.75717H87.7066L88.9642 0.272862H87.6331C87.6331 0.272862 86.9597 3.04209 86.9597 3.18351C86.9597 3.04209 86.2788 0.272862 86.2788 0.272862H84.8683C84.8683 0.272862 84.2048 3.04209 84.2048 3.18351C84.2048 3.04209 83.5199 0.272862 83.5199 0.272862H82.053L83.3368 4.75717H84.8251Z" fill="#121212"/>
<path d="M91.4067 4.82474C93.0479 4.82474 93.7967 4.05009 93.7967 2.47532C93.7967 0.976616 93.0985 0.192 91.4067 0.192C89.7481 0.192 89.0141 1.06154 89.0141 2.49231C89.0137 4.02462 89.761 4.82474 91.4067 4.82474ZM91.4067 1.25243C92.1669 1.25243 92.4106 1.61871 92.4106 2.50708C92.4106 3.50658 92.0443 3.77354 91.4141 3.77354C90.7579 3.77354 90.4146 3.45785 90.4146 2.50708C90.4142 1.60578 90.6752 1.25243 91.4067 1.25243Z" fill="#121212"/>
<path d="M95.7581 3.24H96.6856L97.4731 4.75717H99.0136L97.965 2.9616C98.1725 2.91545 98.3744 2.77551 98.5159 2.53625C98.6355 2.33723 98.7134 2.05182 98.7134 1.69108C98.7134 1.27126 98.6296 0.969969 98.4553 0.743631C98.229 0.444923 97.8409 0.2736 97.2439 0.2736H94.4052V4.75791H95.7581V3.24ZM95.771 1.32886H96.9278C97.1268 1.32886 97.2583 1.37206 97.3243 1.51643C97.3631 1.58289 97.3735 1.704 97.3735 1.8048C97.3735 1.89415 97.3561 2.01378 97.3214 2.09317C97.2708 2.20431 97.1268 2.24308 96.9581 2.24308H95.771V1.32886Z" fill="#121212"/>
<path d="M103.203 3.648H101.05V0.272862H99.6623V4.75717H103.203V3.648Z" fill="#121212"/>
<path d="M107.954 4.10658C108.202 3.7344 108.27 3.384 108.27 2.42769C108.27 1.61132 108.216 1.23766 107.941 0.856984C107.664 0.471877 107.159 0.272862 106.349 0.272862H103.888V4.75717H106.415C107.222 4.75717 107.685 4.52049 107.954 4.10658ZM105.253 3.69858V1.32148H106.118C106.457 1.32148 106.622 1.37206 106.796 1.56369C106.906 1.69071 106.938 2.10609 106.938 2.42769C106.938 2.79249 106.925 3.30018 106.808 3.44308C106.653 3.62474 106.469 3.69822 106.118 3.69822L105.253 3.69858Z" fill="#121212"/>
<path d="M111.905 3.24H112.831L113.623 4.75717H115.16L114.11 2.9616C114.316 2.91545 114.522 2.77551 114.662 2.53625C114.78 2.33723 114.86 2.05182 114.86 1.69108C114.86 1.27126 114.776 0.969969 114.602 0.743631C114.375 0.444923 113.987 0.2736 113.39 0.2736H110.553V4.75791H111.905V3.24ZM111.917 1.32886H113.071C113.269 1.32886 113.404 1.37206 113.474 1.51643C113.508 1.58289 113.517 1.704 113.517 1.8048C113.517 1.89415 113.503 2.01378 113.468 2.09317C113.417 2.20431 113.269 2.24308 113.102 2.24308H111.917V1.32886Z" fill="#121212"/>
<path d="M119.702 3.71151H117.215V3.04505H119.586V1.97908H117.215V1.32886H119.677V0.272862H115.865V4.75717H119.702V3.71151Z" fill="#121212"/>
<path d="M121.963 3.35372C121.963 3.35372 123.176 3.36369 123.345 3.36111C123.896 3.34966 124.325 3.20677 124.584 2.90548C124.807 2.66732 124.915 2.31545 124.915 1.81809C124.915 1.26129 124.774 0.874707 124.511 0.648369C124.266 0.39323 123.881 0.273231 123.34 0.273231H120.581V4.75754H121.962L121.963 3.35372ZM121.946 1.31594H123.041C123.267 1.31594 123.397 1.38535 123.474 1.52788C123.515 1.58843 123.534 1.704 123.534 1.84357C123.534 1.97465 123.523 2.05846 123.478 2.13932C123.413 2.26338 123.285 2.34978 123.024 2.34978C123.017 2.34978 121.946 2.34978 121.946 2.34978L121.946 1.31594Z" fill="#121212"/>
<path d="M127.792 4.82474C129.43 4.82474 130.18 4.05009 130.18 2.47532C130.18 0.976616 129.481 0.192 127.792 0.192C126.13 0.192 125.396 1.06154 125.396 2.49231C125.396 4.02462 126.143 4.82474 127.792 4.82474ZM127.792 1.25243C128.552 1.25243 128.793 1.61871 128.793 2.50708C128.793 3.50658 128.426 3.77354 127.793 3.77354C127.139 3.77354 126.798 3.45785 126.798 2.50708C126.798 1.60578 127.056 1.25243 127.792 1.25243Z" fill="#121212"/>
<path d="M132.156 3.24H133.084L133.874 4.75717H135.41L134.363 2.9616C134.573 2.91545 134.774 2.77551 134.918 2.53625C135.034 2.33723 135.114 2.05182 135.114 1.69108C135.114 1.27126 135.026 0.969969 134.855 0.743631C134.627 0.444923 134.234 0.2736 133.64 0.2736H130.803V4.75791H132.156V3.24ZM132.168 1.32886H133.324C133.52 1.32886 133.656 1.37206 133.724 1.51643C133.759 1.58289 133.769 1.704 133.769 1.8048C133.769 1.89415 133.753 2.01378 133.719 2.09317C133.67 2.20431 133.52 2.24308 133.352 2.24308H132.168V1.32886Z" fill="#121212"/>
<path d="M136.94 4.75717H138.338V1.35175H139.771V0.272862H135.518V1.35175H136.94V4.75717Z" fill="#121212"/>
</g>
<defs>
<clipPath id="clip0_12241_8104">
<rect width="148" height="24" fill="white"/>
</clipPath>
</defs>
</svg>
