<svg width="90" height="24" viewBox="0 0 90 24" fill="none" xmlns="http://www.w3.org/2000/svg">
<g clip-path="url(#clip0_11640_4932)">
<path d="M9.30279 2.17714H11.2571C12.4472 2.00181 13.6627 2.15596 14.7714 2.62286C16.1623 3.4597 17.1712 4.80692 17.5828 6.37714C17.8742 7.2 17.8742 7.2 18.5771 6.90857H19.1256V0.394286H0.73136V1.54286H1.48565C1.81343 1.54059 2.13755 1.61178 2.43421 1.75121C2.73086 1.89064 2.99251 2.09476 3.19993 2.34857C3.90279 3.48 4.02279 4.74857 4.02279 11.3486C4.02279 18.36 3.8685 20.0743 3.19993 20.9486C3.03488 21.1733 2.82119 21.3579 2.57481 21.4885C2.32843 21.6191 2.05573 21.6924 1.77707 21.7029C0.73136 21.8914 0.73136 21.8743 0.73136 22.3371C0.673531 22.4919 0.673531 22.6624 0.73136 22.8171H12.3371C12.4139 22.6657 12.4539 22.4983 12.4539 22.3286C12.4539 22.1588 12.4139 21.9914 12.3371 21.84C12.056 21.7618 11.7695 21.7045 11.4799 21.6686C11.1667 21.6313 10.8571 21.5683 10.5542 21.48C10.1205 21.1634 9.77697 20.7391 9.55749 20.249C9.33802 19.759 9.25022 19.2201 9.30279 18.6857C9.13136 17.5543 9.04564 15.48 9.04564 13.7657V12.4114H9.73136C10.5857 12.3853 11.4395 12.4776 12.2685 12.6857C12.6656 12.9311 13.0037 13.2612 13.2586 13.6524C13.5134 14.0435 13.6788 14.4861 13.7428 14.9486L13.8971 15.48H14.9428V7.88572H13.9828L13.8285 8.62286C13.7636 9.09577 13.5886 9.54686 13.3177 9.93987C13.0468 10.3329 12.6874 10.6568 12.2685 10.8857C11.8628 11.0064 11.4354 11.0357 11.0171 10.9714H9.04564V9.12C9.04564 7.2 9.1485 3.15429 9.21707 2.52L9.30279 2.17714ZM89.5313 15.7714C88.721 14.4672 87.4572 13.5086 85.9828 13.08C84.8525 12.7267 83.8077 12.143 82.9142 11.3657C82.7132 11.1713 82.5628 10.9306 82.4761 10.6646C82.3895 10.3987 82.3692 10.1156 82.4171 9.84C82.4184 9.29947 82.6342 8.78155 83.0171 8.4C83.2766 8.12821 83.605 7.93203 83.9673 7.83239C84.3297 7.73275 84.7122 7.73341 85.0742 7.83429C85.8236 8.04787 86.5013 8.46019 87.0355 9.02756C87.5697 9.59493 87.9404 10.2962 88.1085 11.0571C88.3828 11.8286 88.4171 11.8286 88.9142 11.6229L89.2228 11.5029V7.23429L88.9999 7.13143C87.3122 6.53868 85.522 6.29376 83.7371 6.41143C82.2 6.45037 80.7328 7.06171 79.6228 8.12572C79.1194 8.59696 78.7251 9.17253 78.4674 9.81215C78.2098 10.4518 78.0951 11.14 78.1314 11.8286C78.141 12.8814 78.5589 13.8893 79.2971 14.64C80.1128 15.4423 81.1138 16.0311 82.2113 16.3543C84.8685 17.4 85.6399 18.0686 85.6399 19.2857C85.6513 19.799 85.4878 20.3009 85.1763 20.709C84.8648 21.1171 84.4238 21.4071 83.9256 21.5314C83.3271 21.6629 82.7071 21.6629 82.1085 21.5314C81.3248 21.2273 80.625 20.7403 80.0675 20.1112C79.5099 19.4821 79.1106 18.7289 78.9028 17.9143L78.6799 17.3657H78.3714C78.2239 17.3767 78.0792 17.4114 77.9428 17.4686H77.7714V22.3371H78.0628C79.2209 22.7224 80.4159 22.9867 81.6285 23.1257H83.3428C84.0862 23.1803 84.8336 23.1108 85.5542 22.92C86.4691 22.7512 87.3239 22.3459 88.0336 21.7444C88.7433 21.1429 89.2833 20.3662 89.5999 19.4914C89.8045 19.0028 89.9094 18.4783 89.9085 17.9486C89.976 17.2023 89.846 16.4515 89.5313 15.7714ZM73.3828 6.90857C72.3555 6.47727 71.2487 6.26806 70.1349 6.29465C69.021 6.32124 67.9254 6.58303 66.9199 7.06286C65.9748 7.52517 65.1371 8.18054 64.4609 8.98664C63.7847 9.79275 63.2851 10.7317 62.9942 11.7429C62.6234 12.8459 62.4663 14.0095 62.5314 15.1714C62.5191 15.8036 62.5708 16.4354 62.6856 17.0571C62.9625 18.586 63.7005 19.9934 64.8007 21.0905C65.9008 22.1876 67.3103 22.9217 68.8399 23.1943C69.836 23.3198 70.8439 23.3198 71.8399 23.1943C72.8735 23.0121 73.8627 22.6339 74.7542 22.08C75.4916 21.6666 76.1157 21.0778 76.5714 20.3657C76.5421 20.254 76.4906 20.1493 76.4199 20.058C76.3492 19.9667 76.2608 19.8906 76.1599 19.8343C75.9643 19.9051 75.7796 20.0032 75.6114 20.1257C74.7587 20.6877 73.7518 20.9693 72.7314 20.9314C72.054 20.9772 71.375 20.8718 70.7434 20.6227C70.1119 20.3736 69.5437 19.9872 69.0799 19.4914C68.7212 19.1582 68.4251 18.7634 68.2056 18.3257C67.6729 17.26 67.3859 16.0884 67.3656 14.8971V14.2286H76.8628V13.8857C76.8838 13.5432 76.8838 13.1997 76.8628 12.8571C76.8594 11.6467 76.5356 10.4587 75.9244 9.41391C75.3132 8.36911 74.4363 7.50472 73.3828 6.90857ZM68.5999 12.84H67.3999V11.8286C67.7942 9.24 68.7714 7.69714 69.9714 7.69714C71.1714 7.69714 71.6856 9.22286 71.9085 12.0171V12.8057H70.8799L68.5999 12.84ZM43.9485 6.34286C43.3561 6.31988 42.7673 6.44355 42.2342 6.70286C41.0756 7.26553 40.1397 8.20137 39.5771 9.36L39.3542 9.77143V6.34286H39.2685C39.0628 6.34286 32.7199 7.61143 32.5142 7.69714C32.3085 7.78286 32.3771 7.8 32.3771 8.10857C32.3771 8.41714 32.3771 8.46857 32.5142 8.48571L33.1828 8.62286C33.37 8.62745 33.5538 8.6746 33.7201 8.76073C33.8864 8.84687 34.031 8.96972 34.1428 9.12C34.5714 9.68571 34.6571 10.68 34.6571 14.9143C34.7417 16.8205 34.6614 18.7305 34.4171 20.6229C34.3595 20.9082 34.2149 21.1686 34.003 21.3682C33.7911 21.5678 33.5225 21.6967 33.2342 21.7371L32.6514 21.8571H32.4285V22.3371C32.3663 22.497 32.3663 22.6744 32.4285 22.8343H42.0114V22.3371C42.0446 22.1731 42.0446 22.004 42.0114 21.84C41.4344 21.8175 40.8606 21.7429 40.2971 21.6171C39.9902 21.4566 39.7391 21.2069 39.5769 20.9009C39.4147 20.5949 39.3491 20.2469 39.3885 19.9029C39.2514 18.9086 39.1828 15.9943 39.2171 13.7657C39.2514 11.5371 39.2171 11.4 39.4056 11.2457C39.9793 10.8059 40.6891 10.5814 41.4114 10.6114C42.0921 10.6263 42.7605 10.7963 43.3656 11.1086C43.5754 11.2251 43.8005 11.3116 44.0342 11.3657C44.0342 11.3657 45.7485 7.21714 45.7485 7.02857C45.5291 6.77365 45.2496 6.57745 44.9354 6.45772C44.6211 6.33799 44.2819 6.29851 43.9485 6.34286ZM32.3942 13.5429C32.3344 12.3178 31.9827 11.1248 31.3684 10.0633C30.7541 9.00172 29.8951 8.10231 28.8628 7.44C27.636 6.7782 26.2712 6.41329 24.8779 6.37459C23.4845 6.33588 22.1015 6.62446 20.8399 7.21714C19.0562 8.15774 17.7094 9.75665 17.0856 11.6743C16.4414 13.8213 16.4414 16.1102 17.0856 18.2571C17.4234 19.4305 18.0547 20.4984 18.9199 21.36C19.9975 22.4115 21.387 23.0852 22.8799 23.28C23.8383 23.3601 24.8016 23.3601 25.7599 23.28C26.1126 23.2263 26.4618 23.1519 26.8056 23.0571C28.201 22.6668 29.4564 21.8872 30.4248 20.8094C31.3933 19.7317 32.0347 18.4004 32.2742 16.9714C32.4454 15.8369 32.4856 14.6865 32.3942 13.5429ZM25.2628 22.1143C23.5485 22.6286 22.2628 20.9657 21.8342 17.4686C21.6768 15.6377 21.6768 13.7966 21.8342 11.9657C22.1771 9.15429 23.0514 7.73143 24.4056 7.73143C24.6789 7.7145 24.9522 7.76324 25.2027 7.8736C25.4532 7.98395 25.6737 8.15269 25.8456 8.36572C26.9942 9.51429 27.5599 11.7943 27.5599 15.2229C27.7026 17.1632 27.3976 19.1104 26.6685 20.9143C26.3466 21.4404 25.8485 21.8352 25.2628 22.0286V22.1143ZM56.1199 6.68571C55.6362 6.62347 55.1465 6.62347 54.6628 6.68571C53.7342 6.68492 52.8164 6.8837 51.9714 7.26857L51.4399 7.49143V3.77143C51.5328 2.516 51.5328 1.25543 51.4399 0C51.2342 0 44.6856 1.25143 44.5828 1.30286C44.5322 1.42942 44.5322 1.57058 44.5828 1.69714C44.5828 2.05714 44.5828 2.04 45.3542 2.21143C45.5708 2.26 45.7789 2.34091 45.9714 2.45143C46.306 2.7661 46.5287 3.18144 46.6056 3.63429C46.8008 4.9389 46.864 6.25986 46.7942 7.57714V22.6286L47.2571 22.7314C47.9428 22.8857 49.8799 23.2114 50.5142 23.28C51.7808 23.3807 53.0534 23.3807 54.3199 23.28C55.7258 23.1364 57.0658 22.6119 58.1956 21.7631C59.3254 20.9142 60.2021 19.7732 60.7314 18.4629C61.0469 17.6219 61.2654 16.7477 61.3828 15.8571C61.4848 14.6509 61.4445 13.4368 61.2628 12.24C61.0789 10.8984 60.4868 9.6459 59.5668 8.6523C58.6468 7.6587 57.4434 6.97213 56.1199 6.68571ZM51.6285 21.8229C51.6285 21.6 51.4571 14.0914 51.4914 11.0914V8.74286L51.9885 8.62286C52.3239 8.5748 52.6645 8.5748 52.9999 8.62286C53.3709 8.58514 53.744 8.6694 54.0628 8.86286C54.703 9.30469 55.2346 9.886 55.6177 10.563C56.0007 11.24 56.2252 11.9951 56.2742 12.7714C56.3991 14.0197 56.3991 15.2774 56.2742 16.5257C56.1716 18.34 55.4725 20.0696 54.2856 21.4457C53.9488 21.7657 53.5257 21.9802 53.0685 22.0629C52.7225 22.123 52.3688 22.123 52.0228 22.0629C51.6971 22.0629 51.6971 21.96 51.6971 21.8229H51.6285Z" fill="#121212"/>
</g>
<defs>
<clipPath id="clip0_11640_4932">
<rect width="90" height="24" fill="white"/>
</clipPath>
</defs>
</svg>
