<svg width="97" height="24" viewBox="0 0 97 24" fill="none" xmlns="http://www.w3.org/2000/svg">
<path d="M0 0V24H24.1429V0H0ZM8.67533 13.536V9.264C8.67533 7.648 10.7677 6.88 11.8783 8.752C11.9588 8.88 13.697 11.872 13.697 11.872V9.264C13.697 7.648 15.7894 6.88 16.9 8.752C16.9805 8.88 18.7188 11.872 18.7188 11.872V7.68H19.765V14.704C19.765 14.8 19.7006 14.896 19.6201 14.912C19.5074 14.944 19.3948 14.88 19.3143 14.736C19.2982 14.704 18.413 13.184 17.5599 11.728L15.9987 9.056C15.7733 8.688 15.4514 8.624 15.2261 8.688C14.9525 8.768 14.7593 9.024 14.7754 9.296V14.72C14.7754 14.816 14.711 14.912 14.6306 14.928C14.5179 14.96 14.4052 14.896 14.3248 14.752C14.3087 14.72 13.4878 13.312 12.683 11.952C11.669 10.208 11.0091 9.072 10.993 9.056C10.7677 8.688 10.4458 8.624 10.2044 8.688C9.93076 8.768 9.73762 9.024 9.75371 9.296V14.608C9.73762 14.752 9.62495 14.864 9.48009 14.88H6.72781C5.13438 14.88 3.84676 13.6 3.84676 12.016C3.84676 10.432 5.13438 9.152 6.72781 9.152H8.14419V10.192H6.7439C5.7299 10.192 4.90905 11.008 4.90905 12.016C4.90905 13.024 5.7299 13.84 6.7439 13.84H8.38562C8.54657 13.824 8.67533 13.696 8.67533 13.536ZM21.2296 14.736C21.2296 16.352 19.1372 17.12 18.0267 15.248C17.9462 15.12 16.2079 12.128 16.2079 12.128V14.736C16.2079 16.352 14.1155 17.12 13.005 15.248C12.9245 15.12 11.1862 12.128 11.1862 12.128V14.592C11.1862 15.712 10.5263 16.32 9.48009 16.32H6.7439C4.34571 16.32 2.39819 14.384 2.39819 12C2.39819 9.616 4.34571 7.68 6.7439 7.68H8.16029V8.72H6.7439C4.92514 8.72 3.44438 10.192 3.44438 12C3.44438 13.808 4.92514 15.28 6.7439 15.28H9.4479C9.8181 15.28 10.1239 14.976 10.14 14.592V9.28C10.14 9.184 10.2044 9.088 10.2849 9.072C10.3975 9.04 10.5102 9.104 10.5907 9.248L12.2807 12.144C13.2625 13.824 13.9063 14.928 13.9224 14.944C14.1477 15.312 14.4696 15.376 14.711 15.312C14.9847 15.232 15.1778 14.976 15.1617 14.704V9.28C15.1617 9.184 15.21 9.088 15.3066 9.072C15.4192 9.04 15.5319 9.104 15.6124 9.248L17.1736 11.936L18.928 14.944C19.105 15.232 19.3465 15.344 19.5557 15.344C19.604 15.344 19.6684 15.344 19.7167 15.328C19.9903 15.248 20.1834 14.992 20.1834 14.704V7.68H21.2296V14.736Z" fill="#121212"/>
<path d="M31.5306 3.104C33.8483 3.104 34.4599 4.32 34.4599 6.08V8.848C34.4599 10.336 33.7839 11.088 33.0918 11.344C33.8483 11.616 34.7174 12.224 34.7174 14.048V17.968C34.7174 19.936 33.8322 21.28 31.7881 21.28H27.1527V3.104H31.5306ZM29.9532 5.6V10.336H30.7741C31.5306 10.336 31.7237 9.792 31.7237 9.056V6.752C31.7237 6 31.5145 5.6 30.7741 5.6H29.9532ZM29.9532 13.04V18.784H30.7741C31.6593 18.784 31.8686 18.384 31.8686 17.568V14.256C31.8686 13.504 31.6593 13.104 30.7741 13.104L29.9532 13.04ZM36.005 3.104H38.87V17.52C38.87 18.336 39.1436 18.8 39.7552 18.8C40.4312 18.8 40.6405 18.32 40.6405 17.52V3.104H43.5054V17.376C43.5054 19.952 42.4914 21.568 40.0289 21.568H39.546C37.0995 21.568 36.0694 20.016 36.0694 17.376L36.005 3.104ZM87.043 21.568C86.705 21.632 86.367 21.632 86.029 21.632C84.9346 21.632 84.0493 21.36 83.4377 20.816C82.8261 20.272 82.4881 19.536 82.4881 18.656V14.4H85.2082V17.984C85.2082 18.32 85.2726 18.592 85.4174 18.8C85.5623 19.008 85.7554 19.072 86.0934 19.072C86.4314 19.072 86.6407 19.008 86.7694 18.8C86.8982 18.528 86.9787 18.32 86.8982 18.048V16.496C86.8982 15.952 86.689 15.488 86.4153 15.008C86.1417 14.464 85.5301 13.728 84.7092 12.704C84.0976 11.952 83.5504 11.216 83.0836 10.4C82.7456 9.792 82.5364 9.184 82.5364 8.64V5.792C82.5364 4.912 82.8744 4.176 83.486 3.632C84.0332 3.088 84.9185 2.816 85.9969 2.816C87.1557 2.816 87.9766 3.088 88.6526 3.632C89.2642 4.176 89.5378 4.848 89.5378 5.792V9.648H86.8177V6.464C86.8177 6.064 86.7533 5.792 86.6085 5.648C86.5441 5.52 86.3349 5.44 85.9969 5.44C85.7232 5.44 85.4496 5.504 85.3852 5.712C85.3209 5.92 85.176 6.112 85.176 6.528V8.224C85.176 8.496 85.3048 8.832 85.4496 9.04C85.6589 9.376 86.0612 9.984 86.7372 10.864C87.8317 12.224 88.5721 13.168 88.9101 13.84C89.3125 14.448 89.5217 14.992 89.5217 15.392V18.64L88.2341 20.128L87.043 21.568ZM53.5006 3.104H56.285V21.376H53.5006V3.104ZM60.4376 3.104L62.8197 12.912V3.104H65.3306V21.376H63.0772L60.4376 10.88V21.36H57.9268V3.104H60.4376ZM73.2333 3.104V5.744H69.6924V10.544H72.4769V13.312H69.6924V18.592H73.3621V21.36H66.8918V3.104H73.2333ZM52.0681 5.808V9.664H49.348V6.48C49.348 6.08 49.2836 5.808 49.1388 5.664C49.01 5.536 48.8008 5.456 48.5271 5.456C48.1891 5.456 47.9799 5.52 47.8511 5.728C47.7224 5.856 47.6419 6.128 47.6419 6.544V8.24C47.6419 8.512 47.7707 8.848 47.9155 9.056C48.1248 9.392 48.5271 10 49.2031 10.88C50.2976 12.24 51.038 13.184 51.376 13.856C51.7784 14.464 51.9876 15.008 51.9876 15.408V18.656C51.9876 19.6 51.6496 20.272 51.038 20.816C50.4264 21.36 49.5411 21.632 48.3823 21.632C47.2878 21.632 46.4026 21.36 45.791 20.816C45.1793 20.272 44.8413 19.536 44.8413 18.656V14.4H47.5614V17.984C47.5614 18.32 47.6258 18.592 47.7707 18.8C47.9155 19.008 48.1087 19.072 48.4467 19.072C48.7847 19.072 48.9939 19.008 49.1227 18.8C49.2514 18.528 49.3319 18.32 49.2514 18.048V16.496C49.2514 15.952 49.0422 15.488 48.7686 15.008C48.495 14.464 47.8833 13.728 47.0625 12.704C46.4509 11.952 45.9036 11.216 45.4369 10.4C45.0989 9.792 44.8896 9.184 44.8896 8.64V5.792C44.8896 4.912 45.2276 4.176 45.8392 3.632C46.4509 3.088 47.3361 2.816 48.495 2.816C49.6538 2.816 50.4747 3.088 51.1507 3.632C51.7301 4.176 52.0681 4.864 52.0681 5.808ZM81.3292 5.808V9.664H78.6091V6.48C78.6091 6.08 78.5448 5.808 78.3999 5.664C78.2711 5.536 78.0619 5.456 77.7883 5.456C77.4503 5.456 77.2411 5.52 77.1123 5.728C76.9835 5.936 76.903 6.128 76.903 6.544V8.24C76.903 8.512 77.0318 8.848 77.1767 9.056C77.3859 9.392 77.7883 10 78.4643 10.88C79.5588 12.24 80.2991 13.184 80.6371 13.856C81.0395 14.464 81.2488 15.008 81.2488 15.408V18.656C81.2488 19.6 80.9108 20.272 80.2991 20.816C79.6875 21.36 78.8023 21.632 77.6434 21.632C76.549 21.632 75.6637 21.36 75.0521 20.816C74.4405 20.272 74.1025 19.536 74.1025 18.656V14.4H76.8226V17.984C76.8226 18.32 76.887 18.592 77.0318 18.8C77.1606 19.008 77.3698 19.072 77.7078 19.072C78.0458 19.072 78.2551 19.008 78.3838 18.8C78.5126 18.528 78.593 18.32 78.5126 18.048V16.496C78.5126 15.952 78.3033 15.488 78.0297 15.008C77.7561 14.464 77.1445 13.728 76.3236 12.704C75.712 11.952 75.1648 11.216 74.698 10.4C74.36 9.792 74.1508 9.184 74.1508 8.64V5.792C74.1508 4.912 74.4888 4.176 75.1004 3.632C75.7764 3.088 76.5972 2.816 77.6917 2.816C78.8506 2.816 79.6714 3.088 80.3474 3.632C80.9912 4.176 81.3292 4.864 81.3292 5.808Z" fill="#121212"/>
<path d="M96.5714 21.36L93.1753 17.504L89.8436 21.36H96.5714Z" fill="#121212"/>
</svg>
