<svg width="40" height="24" viewBox="0 0 40 24" fill="none" xmlns="http://www.w3.org/2000/svg">
<g clip-path="url(#clip0_11640_4928)">
<path d="M2.08804 11.1511C3.50631 11.1193 3.92544 10.8929 3.92544 10.329V0.414257H3.68384C2.44211 0.414257 1.50703 1.70391 0.281933 4.02548L0.0237139 3.99322L0.120547 0.139909H10.4392L10.5194 3.99322L10.2617 4.02548C9.03661 1.70391 8.10104 0.414257 6.8598 0.414257H6.63435V10.329C6.63435 10.8929 7.03685 11.1193 8.47224 11.1511V11.377H2.08804V11.1511Z" fill="#121212"/>
<path d="M10.8579 11.1511C12.1637 11.1032 12.4698 10.9095 12.4698 10.329V1.18795C12.4698 0.607434 12.1637 0.397629 10.8579 0.349215V0.139893H16.6777V0.349215C15.6624 0.397629 15.1787 0.57516 15.1787 1.18795V5.37969H19.37V1.18795C19.37 0.57516 18.8706 0.397629 17.8705 0.349215V0.139893H23.6908V0.349215C22.3684 0.397629 22.0784 0.607434 22.0784 1.18795V10.329C22.0784 10.9095 22.3684 11.1032 23.6908 11.1511V11.377H17.8705V11.1511C18.8706 11.1032 19.37 10.9418 19.37 10.329V5.70199H15.1787V10.329C15.1787 10.9418 15.6624 11.1032 16.6777 11.1511V11.377H10.8579V11.1511Z" fill="#121212"/>
<path d="M24.1422 11.1511C25.448 11.1032 25.7537 10.8929 25.7537 10.329V1.18795C25.7537 0.623574 25.448 0.397629 24.1422 0.349215V0.139893H33.9929L34.0408 4.12231L33.7831 4.15457C32.5091 1.47795 31.9775 0.414236 29.9464 0.414236H28.4631V5.41195H28.9947C30.2682 5.41195 31.0419 4.8153 31.4777 3.23563H31.6875V7.89492H31.4777C31.0419 6.29862 30.2682 5.68583 28.9947 5.68583H28.4631V11.0865H29.8334C32.2352 11.0865 32.8964 10.1192 34.2022 7.13687L34.4604 7.16961L34.3802 11.377H24.1422V11.1511Z" fill="#121212"/>
<path d="M0.00610352 23.7488C1.31239 23.7014 1.61804 23.5077 1.61804 22.9272V13.7857C1.61804 13.2047 1.31239 12.9958 0.00610352 12.9469V12.7371H5.82642V12.9469C4.81015 12.9958 4.32695 13.1729 4.32695 13.7857V17.9774H8.5187V13.7857C8.5187 13.1729 8.01888 12.9958 7.01924 12.9469V12.7371H12.8395V12.9469C11.5176 12.9958 11.2276 13.2047 11.2276 13.7857V22.9272C11.2276 23.5077 11.5176 23.7014 12.8395 23.7488V23.9748H7.01924V23.7488C8.01888 23.7014 8.5187 23.5395 8.5187 22.9272V18.2997H4.32695V22.9272C4.32695 23.5395 4.81015 23.7014 5.82642 23.7488V23.9748H0.00610352V23.7488Z" fill="#121212"/>
<path d="M13.1775 23.7488C14.5156 23.7014 14.8379 23.4911 14.8379 22.9272V13.7857C14.8379 13.2213 14.5156 12.9958 13.1775 12.9469V12.7371H19.191V12.9469C17.8529 12.9958 17.5306 13.2213 17.5306 13.7857V22.9272C17.5306 23.4911 17.8529 23.7014 19.191 23.7488V23.9748H13.1775V23.7488Z" fill="#121212"/>
<path d="M19.6096 23.7488C20.9154 23.7014 21.222 23.4911 21.222 22.9272V13.7857C21.222 13.2213 20.9154 12.9958 19.6096 12.9469V12.7371H25.5268V12.9469C24.1882 12.9958 23.9305 13.2047 23.9305 13.7857V23.6847H24.6557C27.0742 23.6847 27.8317 22.7814 29.315 19.5893L29.5737 19.6055L29.428 23.9748H19.6096V23.7488Z" fill="#121212"/>
<path d="M29.8144 23.7488C31.1202 23.7014 31.4268 23.4911 31.4268 22.9272V13.7857C31.4268 13.2213 31.1202 12.9958 29.8144 12.9469V12.7371H35.731V12.9469C34.3934 12.9958 34.1352 13.2047 34.1352 13.7857V23.6847H34.8605C37.2794 23.6847 38.0369 22.7814 39.5203 19.5893L39.778 19.6055L39.6332 23.9748H29.8144V23.7488Z" fill="#121212"/>
</g>
<defs>
<clipPath id="clip0_11640_4928">
<rect width="40" height="24" fill="white"/>
</clipPath>
</defs>
</svg>
