<svg width="250" height="24" viewBox="0 0 250 24" fill="none" xmlns="http://www.w3.org/2000/svg">
<path fill-rule="evenodd" clip-rule="evenodd" d="M186.046 23.2601L186.836 23.0557C187.918 22.8104 188.001 22.6469 188.001 21.4614V8.82984H185.921V8.58457L188.001 7.72611V6.54062C188.001 2.82064 190.33 0.36791 194.156 0.36791C196.153 0.36791 197.276 1.22637 197.276 2.24834C197.318 3.02504 196.61 3.6791 195.82 3.59734C194.822 3.59734 194.406 3.14767 194.198 1.88043C194.115 1.26725 193.99 0.899336 193.449 0.899336C192.243 0.899336 191.287 2.08482 191.287 5.10986V7.68523H196.361V6.17271C196.361 2.3301 199.148 0 202.891 0C204.929 0 206.094 0.817578 206.094 1.96219C206.135 2.77976 205.387 3.47471 204.555 3.39295C203.556 3.39295 203.141 2.94328 202.891 1.63516C202.766 0.981093 202.683 0.654062 202.142 0.654062C200.895 0.654062 199.688 1.79867 199.688 4.82371V7.72611H202.974L202.849 8.82984H199.688V21.5023C199.688 22.606 199.772 22.8104 200.687 23.0148L202.101 23.3418V23.6689H194.406V23.3418L195.279 23.1375C196.319 22.8922 196.402 22.7287 196.402 21.5432V8.87072H191.328V21.5023C191.328 22.6878 191.411 22.8513 192.326 23.0557L193.657 23.3418V23.6689H177.644V23.3418L178.393 23.1783C179.433 22.9331 179.64 22.5243 179.64 21.9111C179.599 21.2979 179.433 20.6847 179.225 20.1124L177.852 15.9019H171.072L169.825 19.4584C169.533 20.1942 169.325 21.0118 169.284 21.8293C169.284 22.5652 169.617 22.9331 170.615 23.1783L171.488 23.3827V23.7098H165.873V23.3827L166.414 23.2192C167.537 22.8922 167.703 22.5243 168.743 19.6627L175.232 2.16658H176.937L183.217 20.0307C184.049 22.4425 184.465 22.9739 185.38 23.2192L186.046 23.2601ZM0 12.9995C0 5.2325 5.73984 1.67603 12.977 1.67603C15.0983 1.63516 17.1779 1.88043 19.216 2.37098L19.8815 9.85181H19.424C18.301 7.97139 17.0532 6.13183 15.6806 4.37404C14.5576 2.98416 13.9337 2.49361 13.0186 2.49361C10.8558 2.49361 10.0239 4.82371 10.0239 12.3454C10.0239 20.8482 11.1885 23.0966 13.393 23.0966C14.6824 23.0966 15.431 22.3199 16.5124 20.8482C17.7186 19.0904 18.7585 17.2918 19.7151 15.4113H20.1726L19.7151 22.7287C17.3443 23.5462 14.8903 23.955 12.3947 23.9142C4.53365 23.955 0 19.9489 0 12.9995ZM21.5452 15.4522C21.5452 9.03424 26.6196 6.7859 31.278 6.7859C35.9364 6.7859 40.9692 9.4839 40.9692 15.3296C40.9692 21.7476 36.0612 23.955 31.278 23.955C26.2452 23.955 21.5452 21.257 21.5452 15.4522ZM31.3196 23.0966C32.3178 23.0966 32.6922 22.1972 32.6922 15.6566C32.6922 8.58457 32.3178 7.68523 31.1948 7.68523C30.2798 7.68523 29.8222 8.58457 29.8222 15.1252C29.8638 22.1972 30.2382 23.0966 31.3196 23.0966ZM41.094 23.5871V23.0966L41.1771 23.0557C42.7577 22.5243 42.8409 22.4834 42.8409 21.0526V11.0373C42.8409 9.40215 42.8409 9.36127 41.5931 8.46193L41.094 8.09402V7.76699L50.6188 6.7859L50.8683 6.99029L50.8267 9.44302H50.9099C52.6984 7.97138 54.9029 6.7859 57.2321 6.7859C59.8524 6.7859 61.7241 8.38017 61.7241 10.9555V21.0935C61.7241 22.4834 61.8073 22.606 63.2631 23.0557L63.471 23.1375V23.628H52.4905V23.1375L52.6984 23.0557C53.4471 22.8104 53.6135 22.606 53.6135 21.3388V12.1819C53.6135 10.6694 53.0312 10.0971 51.9082 10.0971C51.617 10.0971 51.2843 10.138 50.9931 10.2197V21.3388C50.9931 22.606 51.1179 22.8513 51.8666 23.0557L52.0745 23.0966V23.5871H41.094ZM69.1693 19.0087C64.6772 17.7414 63.6374 15.6157 63.6374 12.6316C63.6374 9.27951 66.2162 6.7859 71.7896 6.7859C73.4534 6.7859 75.1171 6.99029 76.7392 7.39908L77.0304 12.0593H76.6976C75.949 11.1191 75.1587 10.2606 74.3268 9.40215C73.0374 8.05314 72.3304 7.68523 71.2073 7.68523C70.2091 7.5626 69.3772 8.33929 69.3772 9.32039C69.3772 10.3015 70.0843 10.8738 72.4551 11.6096C76.7808 12.9995 78.2782 14.6346 78.2782 17.6188C78.2782 21.3797 75.5746 23.9959 69.6684 23.9959C67.7551 24.0368 65.8418 23.8324 64.0117 23.3827L63.7622 18.1094H64.0949C64.9268 19.2948 65.925 20.4394 66.9648 21.4614C68.2126 22.7287 69.1277 23.0557 70.1675 23.0557C71.4985 23.0557 72.0808 22.3608 72.0808 21.2979C72.0808 20.3168 71.4153 19.6627 69.1693 19.0087ZM90.7561 11.0373C90.7561 9.44303 90.7561 9.32039 89.6747 8.50281L89.134 8.09402V7.76699L98.7004 6.7859L98.9083 6.94941V19.9898C98.9083 21.6249 98.9915 21.7885 100.073 22.1564L100.572 22.3608V22.7695L91.0472 23.9959L90.8393 23.7915L90.8809 21.4205H90.7977C88.8012 23.1783 87.0959 23.955 84.7667 23.955C82.4375 23.955 80.0667 22.606 80.0667 19.5401V11.0373C80.0667 9.44303 80.0251 9.44302 78.8605 8.50281L78.3198 8.09402V7.76699L88.0109 6.7859L88.2189 6.94941V18.3546C88.2189 20.1124 88.6764 20.7256 89.8826 20.7256C90.1738 20.7256 90.5065 20.6847 90.7977 20.5621V11.0373H90.7561ZM122.866 12.1819C122.866 10.6694 122.284 10.0971 121.244 10.0971C120.953 10.0971 120.661 10.138 120.412 10.1788C120.454 10.5876 120.495 10.9555 120.454 11.3643V21.4205C120.454 22.5652 120.537 22.7695 121.244 23.0148L121.452 23.0966V23.5871H111.345V23.0966L111.553 23.0148C112.26 22.7695 112.343 22.5652 112.343 21.4205V12.141C112.343 10.6285 111.761 10.0562 110.721 10.0562C110.43 10.0562 110.18 10.0971 109.889 10.138V21.3797C109.889 22.5243 110.014 22.7287 110.721 22.9739L110.929 23.0557V23.5462H100.031V23.0557L100.115 23.0148C101.737 22.4834 101.778 22.4425 101.778 21.0118V10.9964C101.778 9.32039 101.737 9.32039 100.53 8.42105L100.031 8.05314V7.72611L109.556 6.74502L109.806 6.90853L109.764 9.40215H109.847C111.636 7.93051 113.882 6.74502 116.003 6.74502C118.124 6.74502 119.663 7.60347 120.204 9.40215H120.287C122.076 7.93051 124.488 6.74502 126.651 6.74502C129.271 6.74502 131.06 8.33929 131.06 10.9147V21.0526C131.06 22.4425 131.101 22.5243 132.599 23.0148L132.807 23.0966V23.5871H121.909V23.0966L122.117 23.0148C122.866 22.7695 122.908 22.5652 122.908 21.4205V12.1819H122.866ZM132.723 15.6157C132.723 10.6285 136.467 6.7859 142.165 6.7859C147.239 6.7859 150.151 9.07511 150.401 14.3485H140.626C140.668 19.4584 142.373 20.7665 145.908 20.7665C147.239 20.7665 148.529 20.4394 149.735 19.908V20.3577C148.446 22.1564 145.95 23.9959 141.666 23.9959C136.051 23.955 132.723 21.257 132.723 15.6157ZM140.626 13.5718L142.997 13.2856C142.997 8.78896 142.789 7.60347 141.832 7.60347C140.876 7.60347 140.626 8.78896 140.626 13.5718ZM152.064 11.0782C152.064 9.44302 152.064 9.40215 150.816 8.50281L150.317 8.1349V7.80787L159.842 6.82678L160.092 7.03117L160.05 9.60654H160.092C161.173 8.09402 162.754 6.86765 164.625 6.86765C166.663 6.86765 167.994 8.1349 167.994 10.3424C167.994 12.5498 166.622 13.6536 164.75 13.6536C163.17 13.6536 162.171 12.9586 161.381 11.3643C161.048 10.6285 160.924 10.3832 160.549 10.3832C160.383 10.3832 160.258 10.465 160.133 10.5876V21.1344C160.133 22.5243 160.258 22.606 161.839 23.0557L162.171 23.1375V23.628H150.276V23.1375L150.359 23.0966C151.981 22.5651 152.023 22.5243 152.023 21.0935V11.0782H152.064ZM171.363 15.0434H177.602L174.649 6.09096H174.566L171.363 15.0434ZM203.432 20.1942C203.432 17.3327 205.886 16.556 208.257 15.9428L212.416 14.9208V11.5278C212.416 9.23863 212.208 7.88963 209.671 7.88963C208.257 7.88963 207.924 8.29842 207.757 9.32039C207.591 10.9147 207.092 11.4461 205.969 11.4461C204.929 11.4461 204.347 10.8738 204.347 9.97445C204.347 8.01226 207.425 7.19469 210.253 7.19469C214.038 7.19469 215.743 8.58457 215.743 11.2826V20.93C215.743 21.9111 215.951 22.279 216.367 22.5652C216.866 22.8513 217.449 22.9739 218.031 22.9739V23.2192C217.199 23.7098 216.284 23.955 215.327 23.955C213.705 23.955 212.832 23.301 212.624 21.9928H212.541C211.418 23.2601 209.795 23.9959 208.09 23.9959C205.22 23.9959 203.432 22.5651 203.432 20.1942ZM212.457 21.2979V15.7793L210.627 16.1063C208.09 16.556 206.801 17.3327 206.801 19.6219C206.801 21.5023 207.757 22.5652 209.504 22.5652C210.627 22.6469 211.75 22.1972 212.457 21.2979ZM218.28 23.301L219.154 23.0966C220.235 22.8513 220.319 22.7287 220.319 21.5023V10.5059C220.319 9.36127 220.152 9.27951 219.071 8.74808L218.239 8.29842V8.05314L223.563 7.3582L223.729 7.43996C223.688 7.97138 223.604 9.07512 223.604 11.0373V21.5432C223.604 22.7695 223.771 22.8922 224.852 23.1375L225.684 23.3418V23.6689H218.239V23.301H218.28ZM221.857 1.38988C222.897 1.349 223.771 2.16658 223.771 3.22943C223.812 4.94635 221.733 5.84568 220.485 4.66019C219.237 3.43383 220.111 1.38988 221.857 1.38988ZM226.266 23.301L227.14 23.0966C228.221 22.8513 228.304 22.6878 228.304 21.4614V10.5059C228.304 9.36127 228.18 9.27951 227.098 8.7072L226.308 8.25754V8.01226L231.382 7.31732L231.59 7.43996L231.549 9.6883H231.59C232.838 8.58457 234.46 7.23556 236.082 7.23556C237.372 7.23556 238.12 7.97138 238.12 9.11599C238.204 10.0562 237.413 10.9147 236.457 10.8738C235.708 10.8738 235.042 10.4241 234.834 9.72918C234.627 9.19775 234.502 9.03424 234.086 9.03424C233.545 9.03424 232.464 9.64742 231.59 10.3015V21.4614C231.59 22.5652 231.715 22.8513 232.672 23.0557L234.044 23.301V23.628H226.266V23.301ZM238.619 23.1783L238.536 18.6408H238.869C239.368 19.6627 239.742 20.4803 240.2 21.1753C241.032 22.6469 241.988 23.2601 243.819 23.2601C245.649 23.2601 246.896 22.1155 246.896 20.3577C246.896 18.5999 245.898 17.905 243.153 16.8421C240.283 15.7384 238.703 14.4303 238.703 11.8549C238.703 9.07511 240.99 7.15381 244.442 7.15381C245.857 7.15381 247.271 7.39908 248.602 7.84875L248.685 11.7731H248.352C247.812 10.7511 247.354 9.93357 246.98 9.32039C246.439 8.29842 245.316 7.72611 244.151 7.80787C242.196 7.80787 241.073 8.95248 241.073 10.465C241.073 12.0593 242.238 12.836 244.858 13.8579C247.728 15.0026 249.6 16.188 249.6 18.8452C249.6 21.5023 247.437 23.8733 243.569 23.8733C241.864 23.9142 240.2 23.6689 238.619 23.1783Z" fill="#121212"/>
</svg>
