<svg width="205" height="24" viewBox="0 0 205 24" fill="none" xmlns="http://www.w3.org/2000/svg">
<g clip-path="url(#clip0_11640_4930)">
<path d="M26.4818 23.4667H33.9627L37.9733 0.511995H30.4924L29.0133 8.73244H22.528L24.0071 0.511995H16.5262L12.5156 23.4667H19.9964L21.504 14.8764H27.9893L26.4818 23.4667Z" fill="#121212"/>
<path d="M42.2115 0.483548L39.936 13.2551C39.7369 14.2507 39.6515 15.2178 39.6515 16.128C39.6515 22.8978 45.568 23.9218 49.1235 23.9218C56.576 23.9218 59.7902 21.4471 60.9564 14.7627L63.4595 0.455111H55.9787L53.8453 12.4587C53.1627 16.2133 52.6791 18.176 49.8915 18.176C48.0711 18.176 47.1893 17.2089 47.1893 15.2178C47.1893 14.4498 47.3031 13.5111 47.5307 12.3449L49.6924 0.455111H42.2115V0.483548Z" fill="#121212"/>
<path d="M102.997 23.4667H110.478L111.531 17.5502H115.058C121.572 17.5502 125.184 14.0231 125.184 7.59466C125.184 3.072 122.055 0.483553 116.565 0.483553H107.008L102.997 23.4667ZM114.66 11.8898H112.498L113.493 6.48533H115.513C117.163 6.48533 118.044 7.31022 118.044 8.81778C118.044 10.7236 116.764 11.8898 114.66 11.8898Z" fill="#121212"/>
<path d="M139.719 0C131.584 0 126.72 5.26222 126.72 14.1084C126.72 20.2524 130.588 23.9502 137.074 23.9502C145.209 23.9502 150.073 18.688 150.073 9.84178C150.101 3.66933 146.233 0 139.719 0ZM137.529 18.0053C135.595 18.0053 134.457 16.6115 134.457 14.2791C134.457 13.3973 134.542 12.6293 134.713 11.7476C135.282 8.73244 136.249 5.97333 139.292 5.97333C141.227 5.97333 142.364 7.36711 142.364 9.69956C142.364 10.5813 142.279 11.3493 142.108 12.2311C141.54 15.2178 140.572 18.0053 137.529 18.0053Z" fill="#121212"/>
<path d="M176.1 23.4667H183.58L186.539 6.656H192.171L193.252 0.511995H174.108L173.028 6.656H179.001L176.1 23.4667Z" fill="#121212"/>
<path d="M163.698 8.98845C161.337 8.24889 160.37 7.936 160.37 6.82667C160.37 6.08711 160.853 5.20533 162.276 5.20533C163.328 5.20533 164.21 5.80267 164.551 6.68444L171.15 4.89244C170.382 1.64977 167.595 0 162.788 0C153.742 0 153.031 6.05866 153.031 7.90755C153.031 11.6622 155.022 13.9662 159.346 15.1609C160.484 15.4738 161.792 15.8151 161.792 17.0667C161.792 18.0622 161.052 18.688 159.772 18.688C158.606 18.688 157.355 18.0053 156.928 16.8107L150.414 18.5742C151.125 21.9876 154.34 23.9218 159.374 23.9218C163.214 23.9218 169.643 22.8978 169.643 15.9573C169.671 12.4871 167.708 10.2116 163.698 8.98845Z" fill="#121212"/>
<path d="M8.33422 23.4667L12.3733 0.511995H0V23.4667H8.33422Z" fill="#121212"/>
<path d="M196.466 0.511995L192.455 23.4667H204.828V0.511995H196.466Z" fill="#121212"/>
<path d="M72.3911 16.6969H78.6773L79.7013 10.9227H73.4151L74.1262 6.656H82.9156L83.9964 0.483553H67.7262L63.7156 23.4667H71.1964L72.3911 16.6969Z" fill="#121212"/>
<path d="M91.9893 16.6969H98.304L99.328 10.9227H93.0418L93.7529 6.656H102.542L103.623 0.483553H87.3529L83.3422 23.4667H90.8231L91.9893 16.6969Z" fill="#121212"/>
</g>
<defs>
<clipPath id="clip0_11640_4930">
<rect width="205" height="24" fill="white"/>
</clipPath>
</defs>
</svg>
