<svg width="152" height="24" viewBox="0 0 152 24" fill="none" xmlns="http://www.w3.org/2000/svg">
<g clip-path="url(#clip0_12309_6929)">
<path d="M9.12521 6.80437L10.7947 7.85931L10.1564 13.891L19.1393 8.41316C18.9775 7.12184 18.5521 5.87755 17.8892 4.75757C17.2264 3.63759 16.3404 2.66583 15.2863 1.90263C14.2322 1.13943 13.0324 0.6011 11.7615 0.321056C10.4905 0.0410123 9.17559 0.0252392 7.89832 0.274716C6.62104 0.524193 5.40868 1.03359 4.33654 1.77128C3.2644 2.50897 2.35536 3.4592 1.66587 4.56296C0.976383 5.66672 0.521171 6.90044 0.328502 8.18752C0.135833 9.47459 0.209821 10.7875 0.545873 12.0448L9.12521 6.80437Z" fill="#323956"/>
<path d="M9.39967 16.9345L7.73022 15.8796L8.36846 9.85059L1.34253 14.1389C2.28105 15.9201 3.76145 17.3567 5.56989 18.2415C7.37834 19.1262 9.4212 19.4132 11.4034 19.0609C13.3856 18.7087 15.2046 17.7355 16.5975 16.2819C17.9904 14.8283 18.8852 12.9695 19.1526 10.9741L9.39967 16.9345Z" fill="#323956"/>
<path d="M10.2355 5.93667C10.9769 5.93667 11.5779 5.33565 11.5779 4.59425C11.5779 3.85285 10.9769 3.25183 10.2355 3.25183C9.49409 3.25183 8.89307 3.85285 8.89307 4.59425C8.89307 5.33565 9.49409 5.93667 10.2355 5.93667Z" fill="#F64E00"/>
<path d="M23.9736 18.4615L26.3314 18.4272V1.76437L23.9736 1.79866V18.4615ZM35.251 6.88349C34.196 6.88349 32.4 7.35294 31.6035 8.62679V7.12085H29.3776V18.4615H31.6035V12.3244C31.6035 10.0879 33.2914 9.08569 34.9635 9.08569C36.5459 9.08569 37.6009 10.2725 37.6009 12.0369V18.4615H39.8242V11.9182C39.8242 10.3068 39.3811 8.98811 38.5055 8.10723C37.7143 7.30547 36.5881 6.88349 35.251 6.88349ZM46.5178 15.5446L43.113 7.12349H40.7314L45.4418 18.4615H47.5728L52.3068 7.12349H49.9015L46.5178 15.5446ZM88.0589 6.88349C84.6303 6.88349 82.138 9.35206 82.138 12.7569C82.138 16.1617 84.6857 18.7015 88.0589 18.7015C88.8451 18.7214 89.6272 18.5813 90.3575 18.2896C91.0879 17.9979 91.7514 17.5608 92.3076 17.0049C92.8639 16.4489 93.3013 15.7856 93.5932 15.0554C93.8852 14.3251 94.0257 13.5431 94.0062 12.7569C94.0062 9.35206 91.5165 6.88349 88.0589 6.88349ZM88.0589 16.5969C85.978 16.5969 84.3956 14.9459 84.3956 12.7569C84.3956 10.6074 85.978 8.98811 88.0668 8.98811C88.5611 8.98114 89.0517 9.07428 89.509 9.26192C89.9663 9.44956 90.381 9.72782 90.7279 10.0799C91.0749 10.4321 91.3469 10.8508 91.5278 11.3108C91.7086 11.7709 91.7945 12.2628 91.7802 12.7569C91.7802 14.9459 90.1793 16.5969 88.0589 16.5969ZM101.691 6.88349C100.048 6.88349 98.5451 7.59822 97.7802 8.72964V7.12085H95.5543V23.905H97.7802V16.8791C98.5398 18.0211 99.9877 18.6936 101.715 18.6936C104.993 18.6936 107.372 16.2145 107.372 12.7965C107.372 9.37844 104.983 6.88349 101.691 6.88349ZM101.499 16.5969C101.006 16.5984 100.518 16.5015 100.062 16.312C99.6073 16.1225 99.1946 15.8441 98.8483 15.4932C98.5021 15.1423 98.2293 14.7258 98.0459 14.2682C97.8625 13.8106 97.7722 13.321 97.7802 12.8281C97.7802 10.6391 99.3785 8.98811 101.499 8.98811C103.532 8.98811 105.123 10.676 105.123 12.8281C105.123 14.9802 103.564 16.5969 101.499 16.5969ZM130.589 8.70327C129.829 7.56129 128.382 6.88876 126.654 6.88876C123.376 6.88876 120.997 9.36789 120.997 12.7859C120.997 16.2039 123.386 18.7068 126.678 18.7068C128.321 18.7068 129.824 17.9921 130.589 16.8606V18.4615H132.815V1.00745H130.589V8.70327ZM126.857 16.5969C124.837 16.5969 123.257 14.909 123.257 12.7569C123.257 10.6048 124.795 8.98811 126.857 8.98811C127.352 8.9849 127.842 9.0804 128.299 9.26899C128.756 9.45759 129.171 9.7355 129.52 10.0865C129.868 10.4374 130.143 10.8544 130.329 11.3129C130.514 11.7714 130.606 12.2623 130.6 12.7569C130.589 14.6189 129.278 16.5969 126.857 16.5969ZM135.632 7.12349H137.858V18.4615H135.632V7.12349ZM151.472 7.12085H149.246V8.43953C148.454 7.45316 147.091 6.87822 145.498 6.87822H145.319C142.04 6.87822 139.662 9.35734 139.662 12.7754C139.662 16.1934 142.051 18.6962 145.342 18.6962H145.53C147.046 18.6962 148.447 18.0844 149.254 17.1138V18.4615H151.648V7.12085H151.472ZM145.598 16.589C143.623 16.5362 142.091 14.8747 142.091 12.7543C142.091 10.6338 143.594 9.03822 145.598 8.99074C147.643 9.02687 149.274 10.7092 149.246 12.7543C149.246 14.5925 147.956 16.5389 145.598 16.5916V16.589ZM69.447 11.5305C68.284 11.2325 67.4611 10.9661 67.4611 10.2409C67.4611 9.42591 68.284 8.85624 69.4655 8.85624C70.3224 8.87343 71.15 9.17182 71.8207 9.70547L71.876 9.74767L73.0708 8.0914L73.018 8.0492C71.9649 7.2291 70.6601 6.79943 69.3257 6.83338C67.3187 6.83338 65.1587 7.93844 65.1587 10.3595C65.1587 12.0474 66.567 12.8703 67.7459 13.2606C68.1415 13.3925 68.5371 13.4954 68.938 13.5956C70.1697 13.9121 71.2352 14.1863 71.2352 15.1463C71.2352 15.8189 70.5574 16.531 69.302 16.531C68.1125 16.4979 66.967 16.0744 66.0422 15.3257L65.9842 15.2835L64.7921 16.9872L64.8422 17.0268C66.123 18.0432 67.7172 18.583 69.3521 18.5538C71.3829 18.5538 73.5429 17.3433 73.5429 15.0989C73.5429 12.8545 71.4725 12.0501 69.447 11.5305ZM119.549 12.5987C119.549 9.21492 117.363 6.85712 114.198 6.85712C110.999 6.85712 108.678 9.27558 108.678 12.6039C108.656 13.4013 108.795 14.1948 109.085 14.9377C109.376 15.6805 109.812 16.3577 110.368 16.9292C111.365 17.8995 112.704 18.4369 114.095 18.4246H114.2C116.16 18.3903 117.439 18.0659 118.993 16.3885L119.04 16.3384L117.497 14.8694L117.45 14.9222C117.06 15.3803 116.573 15.7462 116.024 15.9934C115.475 16.2406 114.879 16.3629 114.277 16.3516C112.557 16.3516 111.202 15.091 110.883 13.2052L119.473 13.1868H119.536V13.1235C119.544 13.0208 119.544 12.9176 119.536 12.8149C119.552 12.7727 119.549 12.7147 119.549 12.5987ZM111.223 11.454C111.516 9.81624 112.589 8.91426 114.253 8.91426C115.865 8.91426 116.962 9.86107 117.204 11.454H111.223ZM63.5604 12.5987C63.5604 9.21492 61.3582 6.85712 58.2145 6.85712C55.0154 6.85712 52.6945 9.27558 52.6945 12.6039C52.6731 13.4013 52.8117 14.1948 53.1021 14.9377C53.3924 15.6805 53.8287 16.3577 54.3851 16.9292C55.3815 17.8995 56.7209 18.4369 58.1117 18.4246H58.2145C60.1767 18.3903 61.4558 18.0659 63.0092 16.3885L63.0567 16.3384L61.5139 14.8694L61.4664 14.9222C61.0754 15.3814 60.5871 15.7479 60.037 15.9951C59.4869 16.2423 58.8887 16.3641 58.2857 16.3516C56.5635 16.3516 55.2106 15.091 54.8914 13.2052L63.4787 13.1868H63.5446V13.1235C63.5516 13.0208 63.5516 12.9177 63.5446 12.8149C63.5604 12.7727 63.5604 12.7147 63.5604 12.5987ZM55.2264 11.454C55.5218 9.81624 56.5952 8.91426 58.2593 8.91426C59.8708 8.91426 60.9679 9.86107 61.2106 11.454H55.2264ZM80.8352 16.1063C80.5291 16.1882 80.213 16.2264 79.8963 16.2198C79.6424 16.2315 79.3889 16.1907 79.1516 16.0999C78.9142 16.0092 78.6982 15.8704 78.5169 15.6923C78.2743 15.4074 78.2242 14.9696 78.2242 14.4026V9.05931H81.389V7.12085H78.2242V3.44964H75.9956V7.12085H74.7719V9.05931H75.9956V14.2866C75.9956 15.5446 76.2752 16.4703 76.8501 17.1138C77.2253 17.528 77.687 17.8547 78.2025 18.0707C78.7179 18.2868 79.2745 18.3869 79.833 18.3639C80.3921 18.3692 80.9494 18.2927 81.4866 18.1371L81.5525 18.116L80.9011 16.0879L80.8352 16.1063ZM136.745 1.69052C136.555 1.69014 136.368 1.72751 136.194 1.80043C136.019 1.87336 135.861 1.98038 135.728 2.11522C135.596 2.25006 135.491 2.41002 135.421 2.58572C135.351 2.76142 135.317 2.94933 135.32 3.13844C135.318 3.32625 135.352 3.51272 135.423 3.68679C135.494 3.86087 135.598 4.019 135.731 4.15182C135.864 4.28464 136.022 4.38944 136.196 4.46C136.37 4.53056 136.557 4.56546 136.745 4.56261C136.934 4.56683 137.123 4.53309 137.299 4.46338C137.475 4.39367 137.636 4.28939 137.771 4.15669C137.907 4.02398 138.014 3.86553 138.087 3.69066C138.161 3.51579 138.198 3.32803 138.198 3.13844C138.199 2.94765 138.161 2.75862 138.089 2.58229C138.016 2.40596 137.909 2.24583 137.773 2.11117C137.638 1.97651 137.478 1.86999 137.301 1.79779C137.125 1.72559 136.935 1.68913 136.745 1.69052Z" fill="#121212"/>
</g>
<defs>
<clipPath id="clip0_12309_6929">
<rect width="152" height="24" fill="white"/>
</clipPath>
</defs>
</svg>
