<svg width="104" height="24" viewBox="0 0 104 24" fill="none" xmlns="http://www.w3.org/2000/svg">
<path d="M18.9838 4.96548e-05C17.0038 0.00832552 15.0341 1.05005 14.0514 3.12419L13.5972 4.08212V19.9066L14.0514 20.8645C14.7559 22.3521 15.8472 23.2904 17.4817 23.8087C18.6538 24.18 20.521 23.9845 21.7128 23.368C22.4855 22.9687 23.579 21.778 24.001 20.8769L24.3879 20.0494V3.93833L23.9648 3.08384C22.951 1.01798 20.9638 -0.00822621 18.9838 4.96548e-05ZM19.0738 3.9197C19.1452 3.9197 19.2166 3.92695 19.2848 3.94246C19.5134 3.99212 19.8941 4.25695 20.1341 4.53108L20.5748 5.0297V18.8856L20.251 19.3573C20.0731 19.618 19.739 19.8973 19.5093 19.978C19.2797 20.0587 19.021 20.1228 18.9341 20.1218C18.5876 20.1176 18.0497 19.7338 17.7383 19.2725L17.4103 18.7873V12.0125C17.4103 5.54591 17.4207 5.21384 17.6886 4.77419C18.0052 4.25384 18.5721 3.9166 19.0738 3.9197Z" fill="#121212"/>
<path d="M64.3459 23.7332C62.6783 23.1145 61.5828 22.049 60.9507 20.4321C60.7283 19.8632 60.7066 18.9021 60.7097 10.0749L60.7138 0.344532L64.6014 0.263843L64.6035 9.58246C64.6055 16.7835 64.6469 18.9828 64.7866 19.2611C64.8859 19.4587 65.1962 19.7442 65.4766 19.8952C66.1055 20.2345 66.6321 20.13 67.2093 19.5528L67.6221 19.14V0.263843L71.5117 0.344532V10.08C71.5117 19.5942 71.5045 19.8342 71.2107 20.6173C70.7876 21.748 69.7076 22.8838 68.5076 23.46C67.2559 24.0611 65.5314 24.1738 64.3448 23.7342L64.3459 23.7332Z" fill="#121212"/>
<path d="M0 0.272119H9.63931V4.30039H4.02828V9.78212L7.55379 9.73246L7.63448 13.6511H4.02828V23.7207H0V0.272119Z" fill="#121212"/>
<path d="M29.7828 11.9959V0.272119H32.7745C36.0321 0.272119 36.9228 0.406601 38.0566 1.07177C38.9121 1.57246 39.8059 2.58005 40.26 3.55557C40.6283 4.34488 40.6428 4.47626 40.6893 7.42246C40.7286 9.87419 40.6924 10.649 40.5062 11.3752C40.2372 12.4232 39.7479 13.3159 39.0724 13.9914L38.5945 14.4694L39.8555 18.7873C40.5497 21.1625 41.161 23.2438 41.2148 23.4135C41.311 23.7176 41.2914 23.7207 39.2359 23.7207H37.1597L36.5555 21.3828C35.9534 19.0532 34.4162 13.2166 34.2859 12.7656C34.2362 12.5949 34.3366 12.5018 34.6448 12.4345C35.2159 12.3094 36.2472 11.4094 36.4924 10.8228C36.6352 10.4825 36.69 9.62591 36.69 7.74626V5.14143L36.269 4.72143C35.8779 4.33039 35.7714 4.30143 34.7586 4.30143H33.6683V23.7207H29.7838V11.9959H29.7828Z" fill="#121212"/>
<path d="M48.629 23.6132C48.629 23.5542 48.6124 19.2001 48.5928 13.9387L48.5586 4.37177L45.0331 4.29108V0.272119H55.9676V4.30039H52.5145V23.7207H50.5717C49.5031 23.7207 48.629 23.6721 48.6279 23.6132H48.629Z" fill="#121212"/>
<path d="M76.6872 11.9959V0.272119H80.6565L80.8097 0.811084C80.8934 1.10798 81.5493 3.19557 82.2662 5.45074C82.9831 7.70591 83.7734 10.2145 84.0238 11.0256C84.2741 11.8366 84.54 12.4997 84.6145 12.4997C84.6972 12.4997 84.7469 10.138 84.7407 6.42212L84.7314 0.344532L88.6293 0.263843V23.7207H84.2286L83.8169 22.3904C83.5903 21.659 83.191 20.3897 82.9303 19.5694C82.6686 18.75 82.0852 16.889 81.6331 15.4335C81.181 13.978 80.7569 12.7873 80.6917 12.7873C80.6266 12.7873 80.5728 15.2473 80.5728 18.2535V23.7197H76.6883V11.9959H76.6872Z" fill="#121212"/>
<path d="M93.8079 11.9959V0.272119H103.448V4.30039H97.6872L97.7659 9.69419H101.435V13.65H97.6945V19.6925H103.449V23.7207H93.81V11.9959H93.8079Z" fill="#121212"/>
</svg>
