<svg width="48" height="24" viewBox="0 0 48 24" fill="none" xmlns="http://www.w3.org/2000/svg">
<rect x="0.5" y="0.5" width="47" height="23" rx="1.5" fill="#006FAC"/>
<path fill-rule="evenodd" clip-rule="evenodd" d="M23.4631 10.9736H20.9421L20.2108 9.26829H16.2024L15.4712 10.9736H13L16.7816 2.625H19.6938L23.4631 10.9736ZM18.1937 4.59282L16.9706 7.45516H19.4293L18.1937 4.59282Z" fill="white"/>
<path d="M24.8817 12.9559V14.8284H19.9404V16.1882H24.7684V18.0123H19.9404V19.4321H24.8817V21.3045H17.6958V12.9559H24.8817Z" fill="white"/>
<path d="M34.7785 21.3045H31.9672L29.8747 18.7158L27.7946 21.3045H25.0591L28.5757 17.1416L25.0466 12.9559H27.857L29.9371 15.5201L32.0172 12.9559H34.7536L31.2235 17.0943L34.7785 21.3045Z" fill="white"/>
<path d="M28.2408 10.9736H30.1941L32.527 4.79537V10.9736H34.7456V2.625H31.2156L29.2488 7.94408L27.2695 2.625H23.702V10.9736H25.9216V4.79537L28.2408 10.9736Z" fill="white"/>
<rect x="0.5" y="0.5" width="47" height="23" rx="1.5" stroke="#C4C4C4"/>
</svg>
