<svg width="48" height="24" viewBox="0 0 48 24" fill="none" xmlns="http://www.w3.org/2000/svg">
<rect x="0.5" y="0.5" width="47" height="23" rx="1.5" fill="#EDEDED"/>
<path d="M22.9778 17.6586C25.5153 16.8349 27.3333 14.6124 27.3333 12C27.3333 9.38756 25.5153 7.16509 22.9778 6.34141V17.6586Z" fill="#184977"/>
<path d="M18.6222 17.6586C16.0847 16.8349 14.2667 14.6124 14.2667 12C14.2667 9.38756 16.0847 7.16509 18.6222 6.34141V17.6586Z" fill="#184977"/>
<path fill-rule="evenodd" clip-rule="evenodd" d="M37.1333 12C37.1333 16.9873 32.2971 21.0229 27.3333 21H20.8C15.4141 21.0229 11 16.9886 11 12C11 6.71003 15.4141 2.99809 20.8 3H27.3333C32.2971 2.99809 37.1333 6.70876 37.1333 12ZM12.0889 12C12.0902 7.58166 15.9886 4.00124 20.8 4C25.6114 4.00124 29.5104 7.58166 29.5111 12C29.5104 16.4183 25.6114 19.9988 20.8 20C15.9886 19.9988 12.0902 16.4183 12.0889 12Z" fill="#184977"/>
<rect x="0.5" y="0.5" width="47" height="23" rx="1.5" stroke="#C4C4C4"/>
</svg>
