<svg width="48" height="24" viewBox="0 0 48 24" fill="none" xmlns="http://www.w3.org/2000/svg">
<rect x="0.5" y="0.5" width="47" height="23" rx="1.5" fill="#EDEDED"/>
<path d="M28.4221 7C28.4221 5.34315 29.7653 4 31.4221 4H36.0443V17C36.0443 18.6569 34.7012 20 33.0443 20H28.4221V7Z" fill="#31BE3F"/>
<path d="M19.7112 7C19.7112 5.34315 21.0543 4 22.7112 4H27.3334V17C27.3334 18.6569 25.9903 20 24.3334 20H19.7112V7Z" fill="#F00F20"/>
<path d="M11 7C11 5.34315 12.3431 4 14 4H18.6222V17C18.6222 18.6569 17.2791 20 15.6222 20H11V7Z" fill="#069BE8"/>
<rect x="0.5" y="0.5" width="47" height="23" rx="1.5" stroke="#C4C4C4"/>
</svg>
