<svg width="48" height="24" viewBox="0 0 48 24" fill="none" xmlns="http://www.w3.org/2000/svg">
<rect x="0.5" y="0.5" width="47" height="23" rx="1.5" fill="#EDEDED"/>
<path fill-rule="evenodd" clip-rule="evenodd" d="M23 24C23 24 32.2472 22.3605 38.2699 19.9184C44.2675 17.6964 48 15 48 15V22C48 23.1046 47.1046 24 46 24H23Z" fill="#F16822"/>
<path fill-rule="evenodd" clip-rule="evenodd" d="M3 8.90927H5.17496C6.48067 8.90927 8.39621 10.0001 8.39621 11.9389V11.9843C8.39621 13.9234 6.48067 15.0135 5.17496 15.0135H3V8.90927ZM4.25242 13.9961C4.25242 13.9961 7.04414 14.2853 7.04414 12.0135V11.9779C7.04414 9.70577 4.25242 9.99527 4.25242 9.99527V13.9961Z" fill="black"/>
<path fill-rule="evenodd" clip-rule="evenodd" d="M8.96776 15.0241H10.2963V8.90937H8.96776V15.0241Z" fill="black"/>
<path fill-rule="evenodd" clip-rule="evenodd" d="M14.3692 10.3192C14.3692 10.3192 13.9315 9.8561 13.3437 9.8561C12.7571 9.8561 12.4181 10.2154 12.4181 10.4771C12.4181 10.7381 12.4071 10.8859 13.2454 11.2072C14.0844 11.5297 15.3175 11.7611 15.3175 13.1231C15.3175 14.484 14.1574 15.1747 13.1144 15.1747C11.4689 15.1747 10.729 14.0149 10.729 14.0149L11.557 13.2532C11.557 13.2532 12.082 14.0651 12.9978 14.0651C13.9131 14.0651 13.9641 13.4242 13.9641 13.2135C13.9641 12.9015 13.7671 12.5929 13.2017 12.4024C12.6364 12.2107 11.0904 12.0187 11.0904 10.6481C11.0904 9.41735 12.091 8.80723 13.2127 8.80723C14.2154 8.80723 15.0875 9.52873 15.0875 9.52873L14.3692 10.3192Z" fill="black"/>
<path fill-rule="evenodd" clip-rule="evenodd" d="M20.8379 10.5733C20.4267 10.1826 19.8606 9.89871 19.2234 9.89871C17.9744 9.89871 16.962 10.8302 16.962 11.9777C16.962 13.1263 17.9744 14.0567 19.2234 14.0567C19.8544 14.0567 20.4288 13.7758 20.8383 13.3922L20.8379 14.8315C20.3541 15.0643 19.8063 15.1941 19.2234 15.1941C17.2912 15.1941 15.7248 13.7545 15.7248 11.9777C15.7248 10.2017 17.2912 8.76208 19.2234 8.76208C19.8079 8.76208 20.3537 8.89371 20.8379 9.12733V10.5733Z" fill="black"/>
<path fill-rule="evenodd" clip-rule="evenodd" d="M28.0789 8.9093H29.509L31.3397 12.9151L33.0651 8.9093H34.4956L31.699 15.1793H30.8755L28.0789 8.9093Z" fill="black"/>
<path fill-rule="evenodd" clip-rule="evenodd" d="M39.5342 8.9093H41.7023C42.3941 8.9093 43.7712 9.25655 43.7712 10.7104C43.7712 12.1658 42.3476 12.4669 42.3476 12.4669L44.3777 15.0241H42.7636L40.9693 12.5836H40.8318V15.0241H39.5342V8.9093ZM40.8314 9.9289V11.7135H41.5456C42.0955 11.7135 42.4426 11.2575 42.4426 10.8589V10.7824C42.4426 10.3845 42.0955 9.9289 41.5456 9.9289H40.8314Z" fill="black"/>
<path fill-rule="evenodd" clip-rule="evenodd" d="M38.5699 11.3193V12.3978H36.3105V13.9454H38.6743V15.0239H34.9909V8.90917H38.6743V9.98767H36.3105V11.3193H38.5699Z" fill="black"/>
<path fill-rule="evenodd" clip-rule="evenodd" d="M28.3124 11.9967C28.3124 13.7475 26.7677 15.1665 24.8636 15.1665C22.9586 15.1665 21.4143 13.7475 21.4143 11.9967C21.4143 10.2454 22.9586 8.82605 24.8636 8.82605C26.7677 8.82605 28.3124 10.2454 28.3124 11.9967" fill="#F16822"/>
<rect x="0.5" y="0.5" width="47" height="23" rx="1.5" stroke="#C4C4C4"/>
</svg>
