<svg width="48" height="24" viewBox="0 0 48 24" fill="none" xmlns="http://www.w3.org/2000/svg">
<rect x="0.5" y="0.5" width="47" height="23" rx="1.5" fill="#EDEDED"/>
<path fill-rule="evenodd" clip-rule="evenodd" d="M34.3812 7.6365C35.8743 7.6207 36.9504 8.89642 36.9512 10.575C36.952 12.2051 35.9037 13.488 34.4079 13.5254C32.905 13.5623 31.8128 12.273 31.8112 10.5869C31.8089 8.94238 32.8795 7.65266 34.3812 7.6365ZM34.3812 12.4399C35.2201 12.4399 35.2601 11.6137 35.2601 10.5933C35.2601 9.57324 35.1668 8.75747 34.3812 8.74562C33.5686 8.73377 33.5023 9.57324 33.5023 10.5933C33.5023 11.6137 33.5819 12.4399 34.3812 12.4399Z" fill="black"/>
<path d="M19.7977 8.77025C19.7977 7.71535 17.4285 6.99867 16.6673 8.56738C16.0747 7.34732 14.2028 7.38753 13.6929 8.57672L13.6933 7.95412C13.6933 7.85969 13.5992 7.77351 13.4957 7.77351H12.4328C12.3297 7.77351 12.2356 7.85969 12.2356 7.95412V13.2182C12.2356 13.3127 12.3297 13.3992 12.4328 13.3992H13.5753C13.6784 13.3992 13.7698 13.3127 13.7698 13.2182V9.88009C13.7698 9.50344 13.9439 9.07796 14.3796 8.98999C14.8589 8.89269 15.2499 9.13541 15.2499 9.6424L15.2495 13.2182C15.2495 13.3127 15.3436 13.3992 15.4468 13.3992H16.6084C16.712 13.3992 16.8061 13.3127 16.8061 13.2182L16.8065 9.67148C16.8065 8.8672 18.2678 8.6593 18.2682 9.67148V13.2182C18.2682 13.3127 18.3619 13.3992 18.4654 13.3992H19.6004C19.704 13.3992 19.7977 13.3127 19.7977 13.2182V8.77025Z" fill="black"/>
<path d="M31.1582 7.96274C31.1582 7.86831 31.0641 7.78285 30.961 7.78285H27.2034C27.1513 7.78285 27.0995 7.8026 27.063 7.83563C27.0262 7.86974 27.0097 7.91678 27.0097 7.96453V8.69593C27.0097 8.78964 27.1097 8.8733 27.2125 8.8733H29.1875L26.9372 11.8901C26.822 12.0443 26.8275 12.1465 26.8299 12.1915C26.8302 12.1968 26.8305 12.2013 26.8305 12.205L26.8324 13.0444C26.8324 13.2243 26.9054 13.3048 27.1309 13.2175C28.5071 12.685 29.9734 12.6534 31.0786 13.2588C31.1688 13.3087 31.2782 13.2545 31.2782 13.1137L31.2786 12.1712C31.2786 12.1102 31.2426 12.0506 31.1861 12.019C30.5476 11.6502 29.7358 11.5515 28.9479 11.5626L31.052 8.88515C31.1527 8.75697 31.1582 8.61945 31.1582 8.58247V7.96274Z" fill="black"/>
<path d="M42.4167 9.16051C42.4167 8.32606 41.8649 7.63668 40.5734 7.67294C39.9742 7.68982 39.5071 8.10704 39.2475 8.69733V7.939C39.2475 7.84385 39.1533 7.75804 39.0502 7.75804H37.9474C37.8442 7.75804 37.7505 7.84385 37.7505 7.939V13.2229C37.7505 13.3173 37.8442 13.4031 37.9474 13.4031H39.1004C39.2039 13.4031 39.298 13.3173 39.298 13.2229V9.90375C39.298 9.40969 39.7608 8.99247 40.1871 8.97739C40.5389 8.96554 40.8907 9.27469 40.8907 9.62405V13.2229C40.8907 13.3173 40.9848 13.4031 41.088 13.4031H42.2198C42.323 13.4031 42.4171 13.3173 42.4167 13.2229V9.16051Z" fill="black"/>
<path fill-rule="evenodd" clip-rule="evenodd" d="M23.2016 7.64799C24.8272 7.59556 25.6665 8.16108 25.6665 9.04866V11.5118C25.6665 11.6967 25.7269 12.022 25.7877 12.0949L26.0865 12.455C26.1414 12.525 26.1309 12.6313 26.0626 12.6916L25.25 13.4022C25.212 13.4356 25.159 13.4539 25.1065 13.4525C25.0539 13.4507 25.0021 13.4284 24.9669 13.3929L24.3429 12.7566C23.9087 13.1993 23.3358 13.4561 22.6788 13.488C21.5764 13.5397 20.7681 13.0087 20.7873 11.8952C20.8077 10.6856 21.7925 10.054 22.8502 9.98005L24.1009 9.89316V9.37971C24.1009 8.98762 23.8291 8.69176 23.2016 8.69176C22.7808 8.69176 22.4937 8.94812 22.4208 9.29389C22.4012 9.38114 22.302 9.44685 22.2047 9.43751L21.1925 9.33123C21.1383 9.32549 21.087 9.29856 21.0552 9.25835C21.023 9.21777 21.0105 9.16463 21.0215 9.11544C21.265 8.01745 22.2094 7.67958 23.2016 7.64799ZM24.1142 10.6712V11.3556C24.1142 11.8863 23.7299 12.3383 23.4118 12.4256C22.7851 12.599 22.3784 12.153 22.3937 11.6777C22.4133 11.077 22.9902 10.7107 23.4773 10.6942L24.1142 10.6712Z" fill="black"/>
<path fill-rule="evenodd" clip-rule="evenodd" d="M10.8795 9.04726C10.8795 8.15931 10.0406 7.5938 8.41502 7.64623C7.4224 7.67818 6.47802 8.01605 6.23447 9.1144C6.22349 9.16287 6.23604 9.21637 6.2682 9.25659C6.30036 9.29716 6.35134 9.32481 6.40546 9.33055L7.41809 9.43575C7.51496 9.44617 7.61418 9.38046 7.63379 9.29249C7.70673 8.94672 7.99381 8.69108 8.41502 8.69108C9.04212 8.69108 9.31391 8.98622 9.31391 9.37795V9.89211L8.06323 9.97865C7.00551 10.0523 6.02073 10.6838 6.00034 11.8935C5.98112 13.008 6.78941 13.5387 7.89185 13.4863C8.54876 13.4554 9.12174 13.1986 9.55589 12.7549L10.1802 13.3915C10.2152 13.4266 10.2669 13.4493 10.3195 13.4518C10.372 13.4532 10.4254 13.4349 10.463 13.4015L11.276 12.6902C11.3439 12.6303 11.3548 12.5236 11.2995 12.4536L11.0007 12.0942C10.9399 12.0202 10.8795 11.6953 10.8795 11.5104V9.04726ZM9.32724 11.3542V10.6705L8.69033 10.6925C8.20324 10.71 7.62634 11.0756 7.60673 11.6759C7.59143 12.1516 7.99813 12.5972 8.62484 12.4242C8.9429 12.3369 9.32724 11.8845 9.32724 11.3542Z" fill="black"/>
<path fill-rule="evenodd" clip-rule="evenodd" d="M28.9829 16.5857C28.7515 17.0919 29.3151 16.7616 29.3841 16.7038C30.1442 16.074 30.7034 14.1839 30.3595 13.8949C29.9253 13.5315 27.9115 13.5348 27.0189 14.1312C26.6459 14.3811 26.8549 14.4295 27.2483 14.4076C27.9366 14.3678 28.5546 14.3265 29.0833 14.3678C29.5849 14.4076 29.6132 14.6313 29.4845 15.1157C29.3351 15.679 29.241 16.0219 28.9829 16.5857Z" fill="#FBAF29"/>
<path fill-rule="evenodd" clip-rule="evenodd" d="M28.1576 15.0635C22.9615 17.006 16.9662 16.7364 12.0348 14.3558C11.9666 14.3231 11.725 14.1964 11.4497 14.07C11.2344 13.972 11.1936 14.0043 11.1587 14.0391C11.1104 14.0869 11.1289 14.1734 11.2054 14.2366C14.1012 16.6254 17.5831 17.774 21.3845 17.6232C24.2859 17.5076 26.99 16.5335 28.5384 15.4965C28.767 15.3432 28.8486 15.1443 28.7537 15.0509C28.656 14.9547 28.3988 14.973 28.1576 15.0635Z" fill="#FBAF29"/>
<rect x="0.5" y="0.5" width="47" height="23" rx="1.5" stroke="#C4C4C4"/>
</svg>
