<svg width="48" height="24" viewBox="0 0 48 24" fill="none" xmlns="http://www.w3.org/2000/svg">
<rect x="0.5" y="0.5" width="47" height="23" rx="1.5" fill="#EDEDED"/>
<path fill-rule="evenodd" clip-rule="evenodd" d="M30.656 22C36.1848 22 40.6668 17.7467 40.6668 12.5C40.6668 7.2533 36.1848 3 30.656 3C25.1272 3 20.6453 7.2533 20.6453 12.5C20.6453 17.7467 25.1272 22 30.656 22Z" fill="#F79E1B"/>
<path fill-rule="evenodd" clip-rule="evenodd" d="M18.0108 22C23.5395 22 28.0215 17.7467 28.0215 12.5C28.0215 7.2533 23.5395 3 18.0108 3C12.482 3 8 7.2533 8 12.5C8 17.7467 12.482 22 18.0108 22Z" fill="#EB001B"/>
<path fill-rule="evenodd" clip-rule="evenodd" d="M24.3332 19.8656C26.5839 18.1236 28.0212 15.4711 28.0212 12.5C28.0212 9.52885 26.5839 6.8763 24.3332 5.13428C22.0825 6.8763 20.6453 9.52884 20.6453 12.5C20.6453 15.4711 22.0825 18.1236 24.3332 19.8656Z" fill="#FF5F00"/>
<rect x="0.5" y="0.5" width="47" height="23" rx="1.5" stroke="#C4C4C4"/>
</svg>
