<svg width="48" height="24" viewBox="0 0 48 24" fill="none" xmlns="http://www.w3.org/2000/svg">
<rect x="0.5" y="0.5" width="47" height="23" rx="1.5" fill="#EDEDED"/>
<path d="M14.8911 5.75891C14.964 6.41135 14.697 7.06622 14.2998 7.53707C13.9025 8.00791 13.2511 8.37394 12.6138 8.32519C12.5267 7.68616 12.8485 7.01991 13.2163 6.60269C13.6268 6.13225 14.3193 5.78207 14.8911 5.75891Z" fill="#11111E"/>
<path d="M16.952 9.55945C16.8477 9.62191 15.7163 10.2997 15.7297 11.6758C15.7447 13.3221 17.172 13.8952 17.2522 13.9274L17.2556 13.9288C17.2548 13.9311 17.2533 13.9356 17.2512 13.9424C17.2153 14.0545 16.9856 14.7724 16.4681 15.5128C15.9942 16.1908 15.5037 16.8668 14.7287 16.8806C14.3568 16.8874 14.108 16.782 13.8495 16.6725C13.5788 16.5579 13.2973 16.4386 12.8524 16.4386C12.3865 16.4386 12.0921 16.5615 11.8085 16.6798C11.5625 16.7824 11.3247 16.8816 10.9902 16.8944C10.2426 16.9217 9.67374 16.1612 9.19607 15.4852C8.21958 14.1031 7.47363 11.5787 8.47542 9.87404C8.97299 9.02782 9.86199 8.49197 10.8273 8.47857C11.2433 8.47097 11.6463 8.62746 11.9991 8.76445C12.2686 8.86912 12.5088 8.96241 12.7032 8.96241C12.8775 8.96241 13.1112 8.87208 13.3837 8.76673C13.8127 8.60093 14.3379 8.39794 14.8792 8.45135C15.2495 8.4676 16.2898 8.59882 16.9578 9.55594C16.9578 9.55594 16.9546 9.5579 16.952 9.55945Z" fill="#11111E"/>
<path d="M21.2093 6.85944V16.2273H22.3756V12.8839H24.7278C26.4839 12.8839 27.7345 11.644 27.7345 9.89117C27.7345 8.10589 26.5098 6.85944 24.7408 6.85944H21.2093ZM22.3756 7.89815H24.4362C25.7905 7.89815 26.5357 8.60577 26.5357 9.89117C26.5357 11.1311 25.7646 11.8452 24.4362 11.8452H22.3756V7.89815Z" fill="#11111E"/>
<path d="M30.71 15.3704C29.9 15.3704 29.2974 14.9549 29.2974 14.2408C29.2974 13.5396 29.7639 13.1696 30.8266 13.0982L32.7058 12.9748V13.6175C32.7058 14.6173 31.8569 15.3704 30.71 15.3704ZM30.5026 16.3506C31.4357 16.3506 32.2004 15.9416 32.654 15.1951H32.7576V16.2273H33.8204V11.4362C33.8204 9.98206 32.8678 9.10565 31.1636 9.10565C29.6732 9.10565 28.5716 9.84573 28.4226 10.9688H29.5501C29.7056 10.417 30.2888 10.0989 31.1247 10.0989C32.168 10.0989 32.7058 10.5728 32.7058 11.4362V12.0725L30.6906 12.1958C29.0641 12.2932 28.144 13.0138 28.144 14.2667C28.144 15.5456 29.1483 16.3506 30.5026 16.3506Z" fill="#11111E"/>
<path d="M35.5323 18.7591C36.7699 18.7591 37.3272 18.2787 37.9233 16.6558L40.6514 9.22899H39.4656L37.554 14.9873H37.4503L35.5323 9.22899H34.327L36.9125 16.2338L36.7829 16.6493C36.4913 17.4932 36.1414 17.7983 35.4999 17.7983C35.3443 17.7983 35.1694 17.7918 35.0333 17.7659V18.7202C35.1888 18.7462 35.3832 18.7591 35.5323 18.7591Z" fill="#11111E"/>
<rect x="0.5" y="0.5" width="47" height="23" rx="1.5" stroke="#C4C4C4"/>
</svg>
