<svg width="48" height="24" viewBox="0 0 48 24" fill="none" xmlns="http://www.w3.org/2000/svg">
<rect x="0.5" y="0.5" width="47" height="23" rx="1.5" fill="#EDEDED"/>
<path fill-rule="evenodd" clip-rule="evenodd" d="M19.9706 20.8559L20.3283 18.7645L19.5314 18.7474H15.7258L18.3706 3.31355C18.3788 3.26682 18.4054 3.22343 18.4443 3.19257C18.4834 3.16171 18.5332 3.14478 18.5854 3.14478H25.0021C27.1325 3.14478 28.6026 3.5527 29.3701 4.35796C29.7299 4.73572 29.9591 5.13059 30.0701 5.56497C30.1864 6.02086 30.1883 6.56546 30.0749 7.22981L30.0666 7.27813V7.70387L30.4265 7.89151C30.7294 8.03948 30.9703 8.20878 31.155 8.4026C31.4628 8.7257 31.6619 9.13626 31.746 9.62284C31.833 10.1234 31.8042 10.7191 31.6619 11.3935C31.4976 12.1691 31.2322 12.8448 30.8737 13.3975C30.5441 13.9068 30.1241 14.3294 29.6253 14.6567C29.1491 14.9678 28.5835 15.2039 27.9439 15.3551C27.324 15.5036 26.6173 15.5785 25.8422 15.5785H25.3428C24.9858 15.5785 24.639 15.6969 24.3667 15.909C24.0937 16.1256 23.9131 16.4215 23.8578 16.7452L23.82 16.9335L23.1879 20.62L23.1593 20.7552C23.1517 20.7981 23.1386 20.8194 23.1195 20.8339C23.1024 20.8471 23.0779 20.8559 23.0539 20.8559H19.9706" fill="#28356A"/>
<path fill-rule="evenodd" clip-rule="evenodd" d="M30.7669 7.32739C30.748 7.44009 30.7259 7.55525 30.7014 7.67359C29.8552 11.6724 26.96 13.0538 23.2626 13.0538H21.3799C20.9277 13.0538 20.5465 13.3559 20.4762 13.7665L19.2393 20.9876C19.1935 21.2572 19.4192 21.5001 19.7147 21.5001H23.0539C23.4492 21.5001 23.7851 21.2357 23.8474 20.8768L23.8801 20.7207L24.5088 17.0487L24.5493 16.8473C24.6108 16.4872 24.9475 16.2227 25.3428 16.2227H25.8421C29.0772 16.2227 31.6099 15.0139 32.3501 11.5156C32.6592 10.0543 32.4992 8.83404 31.681 7.97587C31.4334 7.71715 31.1262 7.50234 30.7669 7.32739" fill="#019DDE"/>
<path fill-rule="evenodd" clip-rule="evenodd" d="M29.882 7.00243C29.7526 6.96769 29.6192 6.9363 29.4824 6.9079C29.3448 6.88021 29.204 6.8557 29.0589 6.83418C28.5513 6.7587 27.9951 6.7229 27.3993 6.7229H22.3699C22.2459 6.7229 22.1283 6.74865 22.0231 6.79521C21.791 6.89785 21.6188 7.09996 21.577 7.34739L20.507 13.5846L20.4763 13.7664C20.5466 13.3558 20.9278 13.0537 21.38 13.0537H23.2627C26.9601 13.0537 29.8553 11.6716 30.7015 7.67348C30.7268 7.55514 30.7481 7.43998 30.767 7.32729C30.553 7.22271 30.3211 7.13329 30.0715 7.0571C30.0098 7.03823 29.9461 7.02007 29.882 7.00243" fill="#00164C"/>
<path fill-rule="evenodd" clip-rule="evenodd" d="M21.5769 7.34744C21.6187 7.10001 21.7909 6.8979 22.023 6.79596C22.1289 6.74922 22.2458 6.72348 22.3698 6.72348H27.3992C27.995 6.72348 28.5513 6.75945 29.0589 6.83494C29.2039 6.85628 29.3448 6.88097 29.4823 6.90865C29.6192 6.93687 29.7525 6.96844 29.8819 7.00301C29.9461 7.02064 30.0097 7.03898 30.0719 7.05715C30.3216 7.13334 30.5537 7.22346 30.7677 7.32733C31.0195 5.84961 30.7656 4.84348 29.8976 3.9324C28.9404 2.92926 27.2132 2.5 25.0029 2.5H18.5859C18.1345 2.5 17.7493 2.80211 17.6795 3.21338L15.0068 18.8059C14.9541 19.1144 15.2126 19.3927 15.5507 19.3927H19.5122L21.5769 7.34744" fill="#012F86"/>
<rect x="0.5" y="0.5" width="47" height="23" rx="1.5" stroke="#C4C4C4"/>
</svg>
