<svg width="48" height="24" viewBox="0 0 48 24" fill="none" xmlns="http://www.w3.org/2000/svg">
<rect x="0.5" y="0.5" width="47" height="23" rx="1.5" fill="#EDEDED"/>
<path d="M32.4924 6.70151C31.8638 6.47529 30.8789 6.23218 29.6482 6.23218C26.5125 6.23218 24.3029 7.74684 24.2843 9.91618C24.2672 11.5215 25.8612 12.4153 27.0655 12.9504C28.3003 13.4966 28.7161 13.846 28.7096 14.3344C28.7017 15.0828 27.7237 15.4246 26.8114 15.4246C25.5409 15.4246 24.8665 15.2562 23.824 14.8393L23.4147 14.6615L22.9693 17.1611C23.7114 17.4722 25.0811 17.7428 26.5046 17.7566C29.841 17.7566 32.0071 16.2597 32.0312 13.9424C32.0428 12.6722 31.1978 11.7055 29.3673 10.9095C28.2572 10.3926 27.5781 10.0473 27.5855 9.52462C27.5855 9.06151 28.1598 8.56418 29.4021 8.56418C30.4413 8.54862 31.1922 8.76596 31.7776 8.99262L32.0627 9.12062L32.4924 6.70151Z" fill="#1A1F71"/>
<path d="M17.8099 17.5908L19.7943 6.42685H22.9675L20.9823 17.5908H17.8099Z" fill="#1A1F71"/>
<path fill-rule="evenodd" clip-rule="evenodd" d="M38.1791 6.43786H40.6316L43.2 17.5939H40.2547C40.2547 17.5939 39.9641 16.3121 39.8691 15.9214C39.6248 15.9214 38.6087 15.9202 37.6496 15.919L37.635 15.919C36.781 15.9179 35.9754 15.917 35.8044 15.917C35.6811 16.2187 35.1365 17.5939 35.1365 17.5939H31.8033L36.5164 7.36363C36.8511 6.63608 37.4189 6.43786 38.1791 6.43786ZM36.7171 13.6334C36.9799 12.9903 37.982 10.512 37.982 10.512C37.9727 10.5266 38.0345 10.3729 38.1187 10.163C38.2071 9.94295 38.3204 9.66099 38.4024 9.44671L38.6166 10.4094C38.6166 10.4094 39.2247 13.0738 39.3522 13.6334H36.7171Z" fill="#1A1F71"/>
<path d="M12.0412 14.0479L15.1478 6.43502H18.5093L13.5134 17.5772L10.1552 17.5817L7.3147 7.81725C9.32917 8.78436 11.1318 10.7168 11.7098 12.5008L12.0412 14.0479Z" fill="#1A1F71"/>
<path fill-rule="evenodd" clip-rule="evenodd" d="M9.15855 6.42749H4.04033L4 6.65949C7.98167 7.58438 10.6163 9.81727 11.7098 12.5008L10.5969 7.36971C10.405 6.6626 9.84735 6.45193 9.15855 6.42749" fill="#F9A51A"/>
<rect x="0.5" y="0.5" width="47" height="23" rx="1.5" stroke="#C4C4C4"/>
</svg>
