<svg width="24" height="24" viewBox="0 0 24 24" fill="none" xmlns="http://www.w3.org/2000/svg">
<path fill-rule="evenodd" clip-rule="evenodd" d="M20.4 1.19995H3.59995C2.27995 1.19995 1.19995 2.27995 1.19995 3.59995V20.4C1.19995 21.7199 2.27995 22.7999 3.59995 22.7999H20.4C21.7199 22.7999 22.7999 21.7199 22.7999 20.4V3.59995C22.7999 2.27995 21.7199 1.19995 20.4 1.19995ZM9.35995 18H7.19995V5.99995H12.36C14.16 5.99995 15 6.35995 15.72 7.07995C16.56 7.79995 16.8 8.75995 16.8 9.83995C16.8 11.04 16.44 12 15.72 12.6C15 13.2 14.16 13.56 12.36 13.56H9.35995V18Z" fill="#6C6C6C"/>
<path fill-rule="evenodd" clip-rule="evenodd" d="M9.59995 12.12V7.79995H12.36C13.2 7.79995 13.8 8.03995 14.16 8.51995C14.52 8.99995 14.76 9.35995 14.76 9.95995C14.76 10.68 14.52 11.04 14.16 11.52C13.8 11.88 13.32 12.12 12.4799 12.12H9.59995Z" fill="#6C6C6C"/>
</svg>
