<svg width="24" height="24" viewBox="0 0 24 24" fill="none" xmlns="http://www.w3.org/2000/svg">
<path fill-rule="evenodd" clip-rule="evenodd" d="M20.6399 5.175H12L9.83995 3H3.35995C2.17195 3 1.19995 3.97875 1.19995 5.175V18.225C1.19995 19.4213 2.17195 20.4 3.35995 20.4H20.6399C21.8279 20.4 22.7999 19.4213 22.7999 18.225V7.35C22.7999 6.15375 21.8279 5.175 20.6399 5.175ZM15.24 8.4375C16.4279 8.4375 17.4 9.41625 17.4 10.6125C17.4 11.8088 16.4279 12.7875 15.24 12.7875C14.052 12.7875 13.08 11.8088 13.08 10.6125C13.08 9.41625 14.052 8.4375 15.24 8.4375ZM19.5599 17.1375H10.9199V16.05C10.9199 14.6363 13.8359 13.875 15.24 13.875C16.6439 13.875 19.5599 14.6363 19.5599 16.05V17.1375Z" fill="#6C6C6C"/>
</svg>
