<svg width="24" height="24" viewBox="0 0 24 24" fill="none" xmlns="http://www.w3.org/2000/svg">
<path fill-rule="evenodd" clip-rule="evenodd" d="M20.4 1.19995H3.59995C2.27995 1.19995 1.19995 2.27995 1.19995 3.59995V20.4C1.19995 21.7199 2.27995 22.7999 3.59995 22.7999H20.4C21.7199 22.7999 22.7999 21.7199 22.7999 20.4V3.59995C22.7999 2.27995 21.7199 1.19995 20.4 1.19995ZM19.1999 19.1999H12V12.24C11.16 12.96 10.2 13.4399 8.99995 13.4399C6.59995 13.4399 4.55995 11.4 4.55995 8.99995C4.55995 6.59995 6.59995 4.55995 8.99995 4.55995C11.4 4.55995 13.4399 6.59995 13.4399 8.99995C13.4399 10.2 12.96 11.16 12.24 12H19.1999V19.1999Z" fill="#6C6C6C"/>
</svg>
