<svg width="24" height="24" viewBox="0 0 24 24" fill="none" xmlns="http://www.w3.org/2000/svg">
<path d="M10.166 13.5561C10.6886 12.5458 11.0719 11.6283 11.339 10.769C11.8151 11.8142 12.4191 12.6735 13.1159 13.2658C13.2553 13.3935 13.4178 13.5212 13.5921 13.6374C12.5817 13.8232 11.188 14.1483 9.71304 14.7174L9.58529 14.7638C9.65744 14.4933 9.82762 14.1808 10.0088 13.8479C10.061 13.7522 10.1141 13.6547 10.166 13.5561Z" fill="#6C6C6C"/>
<path d="M18.3886 14.369C18.2724 14.2528 17.8079 13.9625 16.1819 13.9625C16.1006 13.9625 16.0193 13.9625 15.9148 14.0786C16.7626 14.4503 17.5872 14.6709 18.1214 14.6709C18.2027 14.6709 18.2724 14.6593 18.3421 14.6477L18.3886 14.6477L18.392 14.6463C18.448 14.6239 18.4817 14.6105 18.4931 14.4967L18.4862 14.4861L18.4808 14.4776C18.4607 14.4457 18.4365 14.4074 18.3886 14.369Z" fill="#6C6C6C"/>
<path d="M7.18123 16.4244C7.29737 16.3315 7.4948 16.2038 7.73869 16.0644C6.9838 17.4464 6.29858 18.2128 5.77596 18.387C5.83403 17.9457 6.35665 17.1793 7.18123 16.4244Z" fill="#6C6C6C"/>
<path d="M11.2461 8.03995L11.3041 7.9935C11.3408 7.82593 11.368 7.6678 11.3932 7.52126C11.4239 7.34281 11.4517 7.18152 11.49 7.04124L11.5248 6.85543C11.6409 6.1935 11.6177 5.85673 11.4203 5.57802L11.2461 5.51995C11.2228 5.55479 11.188 5.61285 11.1648 5.65931C10.9673 6.14705 10.9789 6.99479 11.2461 8.03995Z" fill="#6C6C6C"/>
<path fill-rule="evenodd" clip-rule="evenodd" d="M3.59995 1.19995C2.27447 1.19995 1.19995 2.27447 1.19995 3.59995V20.4C1.19995 21.7254 2.27447 22.7999 3.59995 22.7999H20.4C21.7254 22.7999 22.7999 21.7254 22.7999 20.4V3.59995C22.7999 2.27447 21.7254 1.19995 20.4 1.19995H3.59995ZM17.8079 15.5419C18.3189 15.5419 18.6673 15.4141 18.8647 15.1935C19.0738 14.9845 19.1783 14.7174 19.1899 14.427C19.2247 14.1948 19.1667 13.9741 19.0505 13.7883C18.7137 13.2425 17.8427 12.987 16.4026 12.987C15.9264 12.987 15.427 13.0103 14.9044 13.0683C14.5328 12.8593 14.196 12.627 13.894 12.3948C13.1623 11.7909 12.5004 10.7341 12.0358 9.42189C12.0406 9.40746 12.0454 9.38906 12.0511 9.36749C12.059 9.33698 12.0687 9.30012 12.0823 9.25931C12.4655 7.71479 12.8255 5.84511 12.059 5.07866C11.8732 4.89285 11.6177 4.79995 11.3506 4.79995H11.0719C10.6421 4.79995 10.2589 5.25285 10.1544 5.69414C9.72465 7.23866 9.98016 8.0864 10.4099 9.49156V9.50318C10.1195 10.5251 9.74788 11.7096 9.15558 12.9058C8.76071 13.6838 8.38907 14.3922 8.04065 14.9961C7.5761 15.2167 7.22769 15.4025 7.00702 15.5651C5.61337 16.4361 4.95138 17.4116 4.82363 18.027C4.77717 18.2477 4.8004 18.4451 4.8817 18.6541L4.91654 18.7122L5.474 19.0722C5.61337 19.1535 5.79919 19.1999 5.98501 19.1999C6.92573 19.1999 7.9942 18.0967 9.43431 15.6348C9.48533 15.6129 9.53177 15.5956 9.57365 15.58C9.59848 15.5708 9.62174 15.5621 9.64336 15.5535C10.8396 15.1703 12.3261 14.9032 14.3237 14.6825C15.4851 15.2748 16.9252 15.5419 17.8079 15.5419Z" fill="#6C6C6C"/>
</svg>
