<svg width="24" height="24" viewBox="0 0 24 24" fill="none" xmlns="http://www.w3.org/2000/svg">
<path fill-rule="evenodd" clip-rule="evenodd" d="M9.44721 2.10579C9.94119 2.35278 10.1414 2.95345 9.89443 3.44743L8.89443 5.44743C8.64744 5.94141 8.04676 6.14164 7.55279 5.89465C7.05881 5.64766 6.85858 5.04698 7.10557 4.55301L8.10557 2.55301C8.35256 2.05903 8.95324 1.8588 9.44721 2.10579ZM12.4472 2.10579C12.9412 2.35278 13.1414 2.95345 12.8944 3.44743L11.8944 5.44743C11.6474 5.94141 11.0468 6.14164 10.5528 5.89465C10.0588 5.64766 9.85858 5.04698 10.1056 4.55301L11.1056 2.55301C11.3526 2.05903 11.9532 1.8588 12.4472 2.10579ZM15.4472 2.10579C15.9412 2.35278 16.1414 2.95345 15.8944 3.44743L14.8944 5.44743C14.6474 5.94141 14.0468 6.14164 13.5528 5.89465C13.0588 5.64766 12.8586 5.04698 13.1056 4.55301L14.1056 2.55301C14.3526 2.05903 14.9532 1.8588 15.4472 2.10579ZM5 9.00022V13.0002C5 16.3139 7.68629 19.0002 11 19.0002C14.3137 19.0002 17 16.3139 17 13.0002V9.00022H5ZM18.7643 8.00022C18.4375 7.40419 17.8041 7.00022 17.0767 7.00022H4.92285C3.86042 7.00022 3 7.86157 3 8.92331V13.0002C3 15.3896 4.04751 17.5343 5.70834 19.0002H4C3.44772 19.0002 3 19.4479 3 20.0002C3 20.5525 3.44772 21.0002 4 21.0002H18C18.5523 21.0002 19 20.5525 19 20.0002C19 19.4479 18.5523 19.0002 18 19.0002H16.2917C17.4725 17.958 18.3433 16.5727 18.748 15.0002H19.5C21.433 15.0002 23 13.4332 23 11.5002C23 9.56722 21.433 8.00022 19.5 8.00022H18.7643ZM19 10.0002V13.0002H19.5C20.3284 13.0002 21 12.3286 21 11.5002C21 10.6718 20.3284 10.0002 19.5 10.0002H19Z" fill="#121212"/>
</svg>
