<svg width="24" height="24" viewBox="0 0 24 24" fill="none" xmlns="http://www.w3.org/2000/svg">
<path fill-rule="evenodd" clip-rule="evenodd" d="M19.5547 8.16795C20.0142 8.4743 20.1384 9.09517 19.8321 9.5547L18.2019 12L19.8321 14.4453C20.1384 14.9048 20.0142 15.5257 19.5547 15.8321C19.0952 16.1384 18.4743 16.0142 18.1679 15.5547L16.1679 12.5547C15.944 12.2188 15.944 11.7812 16.1679 11.4453L18.1679 8.4453C18.4743 7.98577 19.0952 7.8616 19.5547 8.16795Z" fill="#121212"/>
<path fill-rule="evenodd" clip-rule="evenodd" d="M4.4453 8.16795C4.90483 7.8616 5.5257 7.98577 5.83205 8.4453L7.83205 11.4453C8.05598 11.7812 8.05598 12.2188 7.83205 12.5547L5.83205 15.5547C5.5257 16.0142 4.90483 16.1384 4.4453 15.8321C3.98577 15.5257 3.8616 14.9048 4.16795 14.4453L5.79815 12L4.16795 9.5547C3.8616 9.09517 3.98577 8.4743 4.4453 8.16795Z" fill="#121212"/>
<path fill-rule="evenodd" clip-rule="evenodd" d="M12 2C12.5523 2 13 2.44772 13 3V11H21C21.5523 11 22 11.4477 22 12C22 12.5523 21.5523 13 21 13H13V21C13 21.5523 12.5523 22 12 22C11.4477 22 11 21.5523 11 21V13H3C2.44772 13 2 12.5523 2 12C2 11.4477 2.44772 11 3 11H11V3C11 2.44772 11.4477 2 12 2Z" fill="#121212"/>
<path fill-rule="evenodd" clip-rule="evenodd" d="M11.4453 16.1679C11.7812 15.944 12.2188 15.944 12.5547 16.1679L15.5547 18.1679C16.0142 18.4743 16.1384 19.0952 15.8321 19.5547C15.5257 20.0142 14.9048 20.1384 14.4453 19.8321L12 18.2019L9.5547 19.8321C9.09517 20.1384 8.4743 20.0142 8.16795 19.5547C7.8616 19.0952 7.98577 18.4743 8.4453 18.1679L11.4453 16.1679Z" fill="#121212"/>
<path fill-rule="evenodd" clip-rule="evenodd" d="M8.16795 4.4453C8.4743 3.98577 9.09517 3.8616 9.5547 4.16795L12 5.79815L14.4453 4.16795C14.9048 3.8616 15.5257 3.98577 15.8321 4.4453C16.1384 4.90483 16.0142 5.5257 15.5547 5.83205L12.5547 7.83205C12.2188 8.05598 11.7812 8.05598 11.4453 7.83205L8.4453 5.83205C7.98577 5.5257 7.8616 4.90483 8.16795 4.4453Z" fill="#121212"/>
</svg>
