<svg width="24" height="24" viewBox="0 0 24 24" fill="none" xmlns="http://www.w3.org/2000/svg">
<path fill-rule="evenodd" clip-rule="evenodd" d="M7.0003 18.3229C8.66577 19.1938 10.3065 19.5832 11.8554 19.4814C13.628 19.365 15.1994 18.6096 16.4634 17.3456C18.9603 14.8487 20.2109 10.4409 19.8477 4.99311C19.8144 4.49324 19.4163 4.09517 18.9165 4.06184C13.4686 3.69864 9.06083 4.9492 6.56394 7.44609C5.29989 8.71013 4.54453 10.2815 4.42808 12.0541C4.32634 13.6028 4.71565 15.2433 5.58625 16.9085L4.29289 18.2019C3.90237 18.5924 3.90237 19.2256 4.29289 19.6161C4.68342 20.0066 5.31658 20.0066 5.70711 19.6161L7.0003 18.3229ZM8.49653 16.8267L11.364 13.9592C11.7545 13.5687 11.7545 12.9355 11.364 12.545C10.9734 12.1545 10.3403 12.1545 9.94975 12.545L7.08252 15.4123C6.55556 14.2303 6.36063 13.1464 6.42378 12.1852C6.50621 10.9304 7.03249 9.80596 7.97815 8.8603C9.78868 7.04978 13.1968 5.85851 17.8965 6.0131C18.051 10.7127 16.8597 14.1208 15.0492 15.9314C14.1035 16.877 12.9791 17.4033 11.7243 17.4857C10.7629 17.5489 9.67878 17.3539 8.49653 16.8267Z" fill="#121212"/>
</svg>
