<svg width="24" height="24" viewBox="0 0 24 24" fill="none" xmlns="http://www.w3.org/2000/svg">
<path fill-rule="evenodd" clip-rule="evenodd" d="M16.8629 4.04915C16.748 4.01182 16.6014 4.00019 15.8603 4.00019H8.14011C7.39904 4.00019 7.25251 4.01182 7.13764 4.04915C7.00307 4.09288 6.87925 4.16473 6.77435 4.26003C6.68494 4.34124 6.6021 4.46278 6.23442 5.10622C6.00098 5.51475 5.86099 5.76164 5.77679 5.9461C5.77171 5.95724 5.76708 5.96764 5.76287 5.97733C5.77337 5.97848 5.78469 5.97963 5.79689 5.98074C5.9987 5.99919 6.28249 6.00019 6.7529 6.00019H7.64297C7.66506 6.00018 7.68722 6.00019 7.70945 6.00019C7.72066 6.00019 7.73189 6.00019 7.74313 6.00019L16.2908 6.00019C16.313 6.00019 16.3352 6.00018 16.3573 6.00019H17.2472C17.7176 6.00019 18.0015 5.99919 18.2034 5.98074C18.2156 5.97962 18.2269 5.97848 18.2374 5.97733C18.2332 5.96762 18.2286 5.95718 18.2235 5.94601C18.1393 5.76159 17.9993 5.5147 17.7659 5.10622C17.3982 4.46278 17.3154 4.34124 17.226 4.26003C17.1209 4.16457 16.9973 4.0928 16.8629 4.04915ZM18.8934 7.88413C19.0778 7.83208 19.268 7.75136 19.4464 7.62278C19.9088 7.28962 20.2061 6.77563 20.2658 6.21031C20.3115 5.77786 20.172 5.39843 20.043 5.11571C19.9162 4.838 19.7292 4.51077 19.5236 4.15105L19.5024 4.11394C19.483 4.08 19.4638 4.04633 19.4448 4.01293C19.1688 3.52849 18.9259 3.10225 18.5708 2.77966C18.2566 2.49423 17.8854 2.27846 17.481 2.14706C17.0247 1.99879 16.5342 1.9994 15.9766 2.00009C15.9382 2.00014 15.8994 2.00019 15.8603 2.00019H8.14011C8.10102 2.00019 8.06226 2.00014 8.02383 2.00009C7.46627 1.9994 6.9758 1.99879 6.51953 2.14706C6.11537 2.27839 5.74391 2.49407 5.42954 2.77966C5.07443 3.10225 4.83156 3.5285 4.55555 4.01293C4.53652 4.04633 4.51733 4.08 4.49794 4.11394C4.49068 4.12665 4.48344 4.13931 4.47622 4.15194C4.27085 4.51126 4.08401 4.83818 3.95737 5.11562C3.82835 5.39828 3.68875 5.77777 3.73445 6.21031C3.79422 6.77609 4.09205 7.28989 4.55403 7.62278C4.73232 7.75126 4.92232 7.83196 5.10662 7.88401C5.10426 7.93466 5.10341 7.98377 5.10347 8.03105C5.10376 8.25379 5.12632 8.51663 5.1497 8.78904C5.15065 8.80011 5.1516 8.81119 5.15255 8.82229L5.51616 13.0644C5.5171 13.0793 5.51838 13.0942 5.51998 13.109L5.68743 15.0626C5.68843 15.0788 5.68981 15.0948 5.69156 15.1108L5.95594 18.1951C5.99752 18.6805 6.03356 19.1012 6.09087 19.4474C6.15162 19.8143 6.2472 20.1757 6.44919 20.5196C6.75221 21.0355 7.20251 21.4492 7.74281 21.7072C8.10274 21.8791 8.47113 21.9435 8.84195 21.9727C9.19191 22.0002 9.6143 22.0002 10.1015 22.0002H13.8989C14.3861 22.0002 14.8084 22.0002 15.1583 21.9727C15.5291 21.9435 15.8974 21.8791 16.2573 21.7072C16.7978 21.4491 17.2478 21.0353 17.5507 20.5196C17.7527 20.1757 17.8483 19.8143 17.909 19.4474C17.9664 19.1011 18.0024 18.6802 18.044 18.1947L18.4815 13.0909C18.4817 13.0881 18.482 13.0853 18.4822 13.0826L18.8503 8.78839C18.8736 8.51627 18.8962 8.25367 18.8965 8.03114C18.8966 7.98388 18.8957 7.93477 18.8934 7.88413ZM16.2571 8.00019H7.74313C7.4235 8.00019 7.24611 8.00102 7.11885 8.01176C7.11344 8.01222 7.10834 8.01268 7.10354 8.01314C7.10349 8.01797 7.10347 8.02309 7.10347 8.02852C7.10363 8.15623 7.11795 8.33305 7.14524 8.65148L7.43227 12.0002H16.5677L16.8547 8.65148C16.882 8.33299 16.8963 8.15617 16.8965 8.02842C16.8965 8.02302 16.8965 8.01792 16.8964 8.01311C16.8917 8.01266 16.8867 8.01221 16.8815 8.01177C16.7542 8.00102 16.5767 8.00019 16.2571 8.00019ZM16.2248 16.0002H7.77513L7.94552 17.9881C7.99113 18.5201 8.02112 18.8616 8.06402 19.1207C8.10491 19.3677 8.1462 19.4598 8.1737 19.5066C8.27486 19.6789 8.42497 19.8166 8.60478 19.9025C8.65372 19.9259 8.74904 19.9592 8.99884 19.9788C9.26085 19.9995 9.60371 20.0002 10.1377 20.0002H13.8628C14.3967 20.0002 14.7395 19.9995 15.0014 19.9788C15.251 19.9592 15.3463 19.9259 15.3953 19.9025C15.5749 19.8167 15.7249 19.679 15.8262 19.5066C15.8537 19.4598 15.895 19.3677 15.9359 19.1207C15.9788 18.8615 16.0088 18.5201 16.0544 17.9881L16.2248 16.0002Z" fill="#121212"/>
</svg>
