<svg width="24" height="24" viewBox="0 0 24 24" fill="none" xmlns="http://www.w3.org/2000/svg">
<path d="M8 21C8 20.4477 8.44772 20 9 20H15C15.5523 20 16 20.4477 16 21C16 21.5523 15.5523 22 15 22H9C8.44772 22 8 21.5523 8 21Z" fill="#121212"/>
<path fill-rule="evenodd" clip-rule="evenodd" d="M12 2C8.13401 2 5 5.13401 5 9C5 10.4155 5.42118 11.7356 6.1453 12.8382L7.22484 14.484L7.50786 14.9192L7.60385 15.0701L7.60524 15.0723C7.67715 15.1983 7.73824 15.3026 7.78913 15.3892L7.81336 15.4304L7.90852 15.5937L7.95368 15.6765C7.95548 15.6923 7.9583 15.7215 7.96139 15.7702C7.96466 15.8216 7.9676 15.8809 7.97156 15.9605L7.97384 16.0064C7.97885 16.1067 7.98509 16.2275 7.99414 16.3722C7.99944 16.457 8 16.6036 8 17.0002C8 18.1048 8.89543 19.0002 10 19.0002H14C15.1046 19.0002 16 18.1048 16 17.0002C16 16.6035 16.0005 16.457 16.0058 16.3722C16.0149 16.2274 16.0211 16.1067 16.0261 16.0063L16.0285 15.9589C16.0324 15.88 16.0353 15.8211 16.0385 15.77C16.0416 15.7212 16.0444 15.6919 16.0462 15.676C16.0534 15.6618 16.0671 15.6359 16.0913 15.5935C16.1167 15.5487 16.1468 15.4977 16.1871 15.429L16.2105 15.3892C16.2614 15.3026 16.3225 15.1983 16.3943 15.0723L16.396 15.0697C16.4025 15.0592 16.4295 15.0159 16.4916 14.9195C16.5582 14.8163 16.652 14.6722 16.7749 14.4842C17.0013 14.138 17.3225 13.649 17.7452 13.0053L17.7468 13.0028L17.8549 12.8382C18.579 11.7356 19.0002 10.4155 19.0002 9C19.0002 5.13396 15.8659 2 12 2ZM12 4C9.23858 4 7 6.23858 7 9C7 10.0135 7.30051 10.9538 7.81703 11.7404L7.93133 11.9144C8.79287 13.2262 9.26315 13.9423 9.34221 14.0809C9.408 14.1961 9.46421 14.2922 9.51345 14.376L9.53552 14.4135C9.57524 14.481 9.61342 14.5459 9.64617 14.6034C9.72237 14.7371 9.81129 14.9013 9.87151 15.1025C9.93176 15.3038 9.94762 15.4898 9.95738 15.6435C9.96159 15.7099 9.96534 15.7856 9.96925 15.8643L9.97135 15.9066C9.9762 16.0038 9.98196 16.1149 9.99024 16.2474C10 16.4042 10 16.6212 10 16.9508L10 17.0002H14L14 16.9489C14 16.6205 14 16.4039 14.0097 16.2474C14.018 16.115 14.0238 16.0038 14.0286 15.9068L14.0308 15.8633C14.0346 15.7851 14.0384 15.7098 14.0425 15.6438C14.0522 15.4902 14.068 15.3042 14.1281 15.1029C14.1883 14.9016 14.2771 14.7375 14.3534 14.6036C14.3863 14.5459 14.4246 14.4807 14.4645 14.4128L14.4861 14.376C14.5354 14.2922 14.5916 14.1961 14.6574 14.0809C14.7332 13.9481 15.1692 13.2842 15.9637 12.0746L16.1832 11.7404C16.6997 10.9538 17.0002 10.0135 17.0002 9C17.0002 6.23862 14.7615 4 12 4Z" fill="#121212"/>
</svg>
