<svg width="24" height="24" viewBox="0 0 24 24" fill="none" xmlns="http://www.w3.org/2000/svg">
<path fill-rule="evenodd" clip-rule="evenodd" d="M11.2929 2.29289C11.6834 1.90237 12.3166 1.90237 12.7071 2.29289L15.7071 5.29289C16.0976 5.68342 16.0976 6.31658 15.7071 6.70711C15.3166 7.09763 14.6834 7.09763 14.2929 6.70711L12 4.41421L9.70711 6.70711C9.31658 7.09763 8.68342 7.09763 8.29289 6.70711C7.90237 6.31658 7.90237 5.68342 8.29289 5.29289L11.2929 2.29289Z" fill="#121212"/>
<path fill-rule="evenodd" clip-rule="evenodd" d="M12 2C12.5523 2 13 2.44772 13 3V17C13 17.5523 12.5523 18 12 18C11.4477 18 11 17.5523 11 17V3C11 2.44772 11.4477 2 12 2ZM3.58579 9.58579C3.96086 9.21071 4.46957 9 5 9H8C8.55228 9 9 9.44772 9 10C9 10.5523 8.55228 11 8 11H5L5 20H19V11H16C15.4477 11 15 10.5523 15 10C15 9.44772 15.4477 9 16 9H19C19.5304 9 20.0391 9.21071 20.4142 9.58579C20.7893 9.96086 21 10.4696 21 11V20C21 20.5304 20.7893 21.0391 20.4142 21.4142C20.0391 21.7893 19.5304 22 19 22H5C4.46957 22 3.96086 21.7893 3.58579 21.4142C3.21071 21.0391 3 20.5304 3 20V11C3 10.4696 3.21071 9.96086 3.58579 9.58579Z" fill="#121212"/>
</svg>
