<svg width="24" height="24" viewBox="0 0 24 24" fill="none" xmlns="http://www.w3.org/2000/svg">
<path fill-rule="evenodd" clip-rule="evenodd" d="M23.2639 5.63617C23.6544 6.0267 23.6544 6.65987 23.2639 7.05038L12.6568 17.657C12.2663 18.0475 11.6332 18.0475 11.2426 17.657L6.29289 12.7072C5.90237 12.3167 5.90237 11.6835 6.29289 11.293C6.68342 10.9025 7.31658 10.9025 7.70711 11.293L11.9498 15.5357L21.8497 5.63614C22.2402 5.24562 22.8734 5.24564 23.2639 5.63617ZM18.3131 5.68645C18.7037 6.07697 18.7037 6.71014 18.3131 7.10066L13.0098 12.404C12.6193 12.7945 11.9862 12.7945 11.5956 12.404C11.2051 12.0134 11.2051 11.3803 11.5956 10.9897L16.8989 5.68645C17.2895 5.29592 17.9226 5.29592 18.3131 5.68645ZM1.3427 11.3433C1.73322 10.9528 2.36639 10.9528 2.75691 11.3433L7.70666 16.2931C8.09718 16.6836 8.09718 17.3167 7.70666 17.7073C7.31613 18.0978 6.68297 18.0978 6.29245 17.7073L1.3427 12.7575C0.952174 12.367 0.952174 11.7338 1.3427 11.3433Z" fill="#121212"/>
</svg>
