<svg width="24" height="24" viewBox="0 0 24 24" fill="none" xmlns="http://www.w3.org/2000/svg">
<path fill-rule="evenodd" clip-rule="evenodd" d="M19.236 20.641L18.1116 14.9846L22.3452 11.0709L22.4403 10.9752C23.2472 10.0917 22.7296 8.62538 21.5035 8.48L15.7776 7.8006L13.3631 2.56532L13.2964 2.43633C12.7253 1.44583 11.2764 1.44619 10.7055 2.43642L10.6388 2.56536L8.22261 7.8006L2.49782 8.48L2.36457 8.50148C1.23554 8.73312 0.783583 10.1241 1.56084 10.9751L1.65601 11.0708L5.88861 14.9846L4.76527 20.641L4.74503 20.7699C4.61251 21.9199 5.80209 22.7819 6.85336 22.3012L6.96951 22.2422L12.0006 19.4256L17.0322 22.2421L17.1485 22.3011C18.2396 22.8001 19.4768 21.8529 19.236 20.641ZM14.0792 8.89298L12.001 4.38721L9.92269 8.89291C9.70392 9.36721 9.25427 9.69294 8.73686 9.75429L3.80975 10.3385L7.45261 13.7073C7.83628 14.0621 8.00667 14.5901 7.90518 15.1009L6.93812 19.9678L11.2685 17.5439C11.7242 17.2889 12.2789 17.2895 12.7337 17.544L17.0631 19.9674L16.0963 15.1009C15.9948 14.5901 16.1654 14.062 16.549 13.7072L20.1915 10.3385L15.2641 9.7543C14.7443 9.69267 14.297 9.36514 14.0792 8.89298Z" fill="#121212"/>
</svg>
