<svg width="24" height="24" viewBox="0 0 24 24" fill="none" xmlns="http://www.w3.org/2000/svg">
<path fill-rule="evenodd" clip-rule="evenodd" d="M17.6569 6.34307C16.4853 5.17147 14.5859 5.17145 13.4144 6.343L12.0002 7.75722C11.6096 8.14774 10.9765 8.14774 10.586 7.75722C10.1954 7.36669 10.1954 6.73353 10.586 6.343L12.0002 4.92879C13.9528 2.97615 17.1185 2.97625 19.0711 4.92885C21.0236 6.88134 21.0242 10.0471 19.0715 11.9998C19.0715 11.9998 19.0715 11.9998 19.0715 11.9998L17.6574 13.414C17.2669 13.8046 16.6338 13.8046 16.2432 13.4141C15.8527 13.0236 15.8526 12.3904 16.2431 11.9999L17.6572 10.5857C18.8287 9.41423 18.8286 7.51476 17.6569 6.34307ZM15.5359 8.46456C15.9265 8.85508 15.9265 9.48825 15.5359 9.87877L9.87907 15.5356C9.48855 15.9261 8.85538 15.9261 8.46486 15.5356C8.07434 15.1451 8.07434 14.5119 8.46486 14.1214L14.1217 8.46456C14.5122 8.07403 15.1454 8.07403 15.5359 8.46456ZM7.75813 10.5858C8.14866 10.9763 8.14866 11.6095 7.75813 12L6.34392 13.4142C5.17225 14.5859 5.17214 16.4853 6.34362 17.6568C7.51514 18.8283 9.41483 18.8284 10.5864 17.657C10.5865 17.6569 10.5864 17.657 10.5864 17.657L12 16.2428C12.3905 15.8522 13.0236 15.852 13.4142 16.2425C13.8048 16.6329 13.805 17.2661 13.4145 17.6567L12.0009 19.0709C10.0483 21.0235 6.88202 21.0236 4.9294 19.071C2.97668 17.1183 2.97718 13.9525 4.9297 12L6.34392 10.5858C6.73444 10.1952 7.36761 10.1952 7.75813 10.5858Z" fill="#121212"/>
</svg>
