<svg width="24" height="24" viewBox="0 0 24 24" fill="none" xmlns="http://www.w3.org/2000/svg">
<path fill-rule="evenodd" clip-rule="evenodd" d="M4 15C4.55228 15 5 15.4477 5 16V19.9429C5.00411 19.9579 5.01254 19.9716 5.02441 19.982C5.04022 19.9958 5.06084 20.0029 5.08182 20.0017C5.10119 20.0006 5.12059 20 5.14 20H18.86C18.8794 20 18.8988 20.0006 18.9182 20.0017C18.9392 20.0029 18.9598 19.9958 18.9756 19.982C18.9875 19.9716 18.9959 19.9579 19 19.9429V16C19 15.4477 19.4477 15 20 15C20.5523 15 21 15.4477 21 16V20C21 20.0242 20.9991 20.0483 20.9974 20.0724C20.9578 20.6175 20.7053 21.1251 20.2945 21.4855C19.8921 21.8384 19.3695 22.0224 18.8356 22H5.16439C4.63049 22.0224 4.10791 21.8384 3.70554 21.4855C3.29468 21.1251 3.04218 20.6175 3.00262 20.0724C3.00087 20.0483 3 20.0242 3 20V16C3 15.4477 3.44772 15 4 15Z" fill="#121212"/>
<path fill-rule="evenodd" clip-rule="evenodd" d="M11 5.41421V16C11 16.5523 11.4477 17 12 17C12.5523 17 13 16.5523 13 16V5.41421L15.2929 7.70711C15.6834 8.09763 16.3166 8.09763 16.7071 7.70711C17.0976 7.31658 17.0976 6.68342 16.7071 6.29289L12.7075 2.29329C12.7076 2.29342 12.7074 2.29316 12.7075 2.29329C12.7068 2.29258 12.7057 2.29148 12.705 2.29078C12.5242 2.11106 12.2751 2 12 2C11.8644 2 11.7351 2.02699 11.6172 2.07588C11.4993 2.12468 11.3888 2.19702 11.2929 2.29289L7.29289 6.29289C6.90237 6.68342 6.90237 7.31658 7.29289 7.70711C7.68342 8.09763 8.31658 8.09763 8.70711 7.70711L11 5.41421Z" fill="#121212"/>
</svg>
