<svg width="24" height="24" viewBox="0 0 24 24" fill="none" xmlns="http://www.w3.org/2000/svg">
<path fill-rule="evenodd" clip-rule="evenodd" d="M12.1864 5.37375C12.0867 5.35641 11.9672 5.35916 11.3648 5.41393L7.73497 5.74391C7.24774 5.78821 6.93689 5.81711 6.6999 5.85667C6.47529 5.89417 6.38908 5.93091 6.34332 5.95635C6.18036 6.04698 6.04596 6.18138 5.95534 6.34434C5.93014 6.38965 5.89355 6.4754 5.8562 6.70011C5.81676 6.93732 5.78808 7.24805 5.74375 7.73575L5.41377 11.3656C5.35886 11.9696 5.35582 12.0877 5.3731 12.1871C5.39334 12.3035 5.4335 12.4144 5.49144 12.515C5.54181 12.6024 5.62004 12.6916 6.04881 13.1204L11.2115 18.2831C11.6194 18.6909 11.883 18.9536 12.0996 19.1376C12.3073 19.314 12.4049 19.3585 12.4575 19.3756C12.6584 19.4408 12.8748 19.4408 13.0757 19.3756C13.1286 19.3583 13.2268 19.3136 13.4348 19.1372C13.6516 18.9533 13.9156 18.6905 14.3231 18.283L18.2829 14.3232C18.6904 13.9157 18.9529 13.6519 19.1365 13.4354C19.3126 13.2278 19.3573 13.1298 19.3745 13.0767C19.4398 12.8758 19.4398 12.6595 19.3745 12.4587C19.3573 12.4056 19.3126 12.3076 19.1365 12.1C18.9527 11.8834 18.6902 11.6196 18.2827 11.2121L13.1199 6.04934C12.6922 5.62157 12.6022 5.54299 12.5145 5.49246C12.4131 5.43408 12.302 5.39384 12.1864 5.37375ZM11.2771 3.41359C11.733 3.37167 12.1347 3.33474 12.5291 3.40332C12.875 3.46348 13.2081 3.58396 13.5127 3.75939C13.8596 3.95918 14.1445 4.24467 14.4678 4.56872C14.4898 4.59068 14.5119 4.61282 14.5342 4.63512L19.7205 9.82143C20.0949 10.1959 20.4177 10.5186 20.6616 10.8062C20.9183 11.1087 21.1455 11.4371 21.2766 11.8406C21.4724 12.4432 21.4724 13.0922 21.2766 13.6947C21.1455 14.0982 20.9184 14.4265 20.6618 14.7291C20.4177 15.0169 20.0946 15.3399 19.7198 15.7148L15.7146 19.7199C15.3398 20.0948 15.0166 20.418 14.7286 20.6623C14.4259 20.919 14.0974 21.1465 13.6937 21.2777C13.0912 21.4734 12.442 21.4734 11.8395 21.2777C11.4354 21.1464 11.107 20.9186 10.8048 20.6619C10.5195 20.4196 10.1993 20.0993 9.82825 19.7282L4.63459 14.5346C4.61112 14.5111 4.58781 14.4878 4.56469 14.4648C4.24282 14.1436 3.95757 13.8591 3.75837 13.5132C3.58251 13.2079 3.46267 12.8748 3.40267 12.5297C3.33432 12.1367 3.37124 11.7358 3.4129 11.2835C3.41591 11.2508 3.41895 11.2178 3.42198 11.1845L3.75196 7.55467C3.75334 7.5395 3.75471 7.5244 3.75608 7.50936C3.79588 7.07128 3.83062 6.68887 3.88327 6.37213C3.93981 6.03202 4.02704 5.69672 4.20741 5.37235C4.47928 4.88346 4.88244 4.4803 5.37133 4.20843C5.69525 4.02831 6.03021 3.9408 6.37054 3.88398C6.69015 3.83062 7.07616 3.79554 7.51908 3.75529L11.1837 3.42214C11.2151 3.41929 11.2462 3.41643 11.2771 3.41359ZM7.59155 7.59167C8.3726 6.81062 9.63885 6.81062 10.4199 7.59167C11.2009 8.37272 11.2009 9.63905 10.4199 10.4201C9.63897 11.201 8.3728 11.2014 7.59163 10.4202C6.81068 9.63924 6.8104 8.37281 7.59155 7.59167Z" fill="#121212"/>
</svg>
