<svg width="24" height="24" viewBox="0 0 24 24" fill="none" xmlns="http://www.w3.org/2000/svg">
<path fill-rule="evenodd" clip-rule="evenodd" d="M15.3228 7.03422C15.2251 7.00792 15.1064 6.99988 14.5014 6.99988H7.2002C6.62365 6.99988 6.25126 7.00066 5.9678 7.02381C5.69595 7.04602 5.59517 7.08371 5.54579 7.10888C5.35789 7.20462 5.205 7.3575 5.109 7.54592C5.0838 7.59537 5.04612 7.69608 5.02393 7.96771C5.00078 8.25103 5 8.62328 5 9.19984V14.7998C5 15.3764 5.00078 15.7487 5.02393 16.0321C5.04613 16.3038 5.08381 16.4045 5.109 16.4539C5.20495 16.6422 5.35778 16.7951 5.54579 16.8909C5.59519 16.916 5.69598 16.9537 5.96782 16.9759C6.25127 16.9991 6.62367 16.9999 7.2002 16.9999H14.5014C15.1062 16.9999 15.225 16.9918 15.3228 16.9655C15.4359 16.9351 15.5426 16.8851 15.6383 16.8177C15.7215 16.7592 15.8056 16.6716 16.1917 16.2083L18.5251 13.4083C18.8382 13.0325 19.0374 12.7924 19.1768 12.597C19.3089 12.4119 19.3439 12.3249 19.3583 12.2743C19.4095 12.095 19.4095 11.9049 19.3583 11.7256C19.3439 11.6749 19.3089 11.5879 19.1768 11.4027C19.0374 11.2073 18.8382 10.9671 18.5251 10.5914L16.1917 7.79144C15.8057 7.3282 15.7215 7.2406 15.6383 7.18205C15.5425 7.11458 15.4358 7.06461 15.3228 7.03422ZM14.5956 4.99982C15.0532 4.99934 15.456 4.99893 15.8424 5.1029C16.1818 5.19421 16.5022 5.34436 16.7894 5.54648C17.1182 5.77791 17.3771 6.08911 17.6729 6.4447C17.6912 6.46666 17.7096 6.48878 17.7282 6.51107L20.0812 9.33467C20.3672 9.67782 20.6162 9.9766 20.805 10.2413C21.0054 10.5222 21.18 10.8208 21.2816 11.1769C21.4351 11.7148 21.4351 12.285 21.2816 12.8229C21.18 13.1791 21.0054 13.4776 20.8049 13.7586C20.6163 14.023 20.3674 14.3216 20.0817 14.6644L17.7282 17.4887C17.7095 17.511 17.6911 17.5332 17.6727 17.5553C17.3771 17.9107 17.1182 18.2219 16.7894 18.4533C16.5021 18.6555 16.1817 18.8055 15.8424 18.8968C15.4558 19.0008 15.053 19.0004 14.595 18.9999C14.5641 18.9999 14.5329 18.9999 14.5014 18.9999H7.16204C6.6347 18.9999 6.17972 18.9999 5.80496 18.9693C5.40959 18.937 5.01623 18.8657 4.63781 18.6729C4.07317 18.3852 3.61453 17.9262 3.32698 17.3619C3.13418 16.9835 3.06287 16.5903 3.03057 16.1949C2.99997 15.8203 2.99998 15.3655 3 14.8384V9.16129C2.99998 8.63414 2.99997 8.17939 3.03057 7.80484C3.06287 7.4095 3.13419 7.0163 3.32698 6.63793C3.61447 6.07371 4.07306 5.61462 4.63781 5.32686C5.01625 5.13404 5.40962 5.06274 5.80499 5.03045C6.17965 4.99985 6.63451 4.99987 7.16168 4.99988L14.5014 4.99988C14.5331 4.99988 14.5644 4.99985 14.5956 4.99982Z" fill="#121212"/>
</svg>
