<svg width="24" height="24" viewBox="0 0 24 24" fill="none" xmlns="http://www.w3.org/2000/svg">
<path fill-rule="evenodd" clip-rule="evenodd" d="M12.3091 3.27087C12.1083 3.20561 11.8919 3.20561 11.691 3.27087C11.6383 3.28801 11.5404 3.33257 11.3326 3.50897C11.1159 3.69296 10.8522 3.95564 10.4445 4.36334L4.36334 10.4445C3.95553 10.8523 3.69273 11.116 3.50855 11.3329C3.33194 11.5408 3.28744 11.6385 3.27038 11.691C3.20512 11.8919 3.20512 12.1083 3.27038 12.3091C3.28744 12.3616 3.33194 12.4594 3.50855 12.6673C3.69273 12.8841 3.95554 13.1479 4.36334 13.5557L10.4445 19.6368C10.8522 20.0445 11.1159 20.3072 11.3327 20.4912C11.5405 20.6677 11.6383 20.7122 11.691 20.7294C11.8919 20.7946 12.1083 20.7946 12.3091 20.7294C12.3618 20.7122 12.4596 20.6677 12.6674 20.4913C12.8841 20.3072 13.1478 20.0446 13.5556 19.6368L19.6367 13.5557C20.0444 13.148 20.307 12.8842 20.491 12.6675C20.6674 12.4598 20.712 12.3619 20.7291 12.3091C20.7944 12.1083 20.7944 11.8919 20.7291 11.691C20.712 11.6382 20.6674 11.5404 20.491 11.3326C20.307 11.1159 20.0444 10.8521 19.6367 10.4445L13.5556 4.36334C13.1478 3.95562 12.8841 3.69294 12.6674 3.50894C12.4597 3.33254 12.3619 3.288 12.3091 3.27087ZM11.073 1.36875C11.6755 1.17298 12.3246 1.17298 12.9272 1.36875C13.3311 1.5 13.6596 1.72766 13.9619 1.98437C14.2481 2.22735 14.5693 2.54856 14.9415 2.92085L21.0781 9.05746C21.4509 9.43021 21.7725 9.75177 22.0157 10.0383C22.2724 10.3407 22.5 10.6691 22.6312 11.073C22.827 11.6755 22.827 12.3246 22.6312 12.9272C22.5 13.331 22.2724 13.6595 22.0157 13.9619C21.7725 14.2484 21.4509 14.57 21.078 14.9428L14.9411 21.0797C14.569 21.4518 14.248 21.7729 13.9619 22.0158C13.6596 22.2725 13.3311 22.5002 12.9272 22.6315C12.3246 22.8272 11.6755 22.8272 11.073 22.6315C10.6691 22.5002 10.3406 22.2725 10.0382 22.0158C9.75195 21.7728 9.43066 21.4515 9.05829 21.0791L2.91863 14.9394C2.54736 14.5682 2.22683 14.2477 1.98427 13.9621C1.72752 13.6599 1.49958 13.3313 1.36827 12.9272C1.17249 12.3246 1.17249 11.6755 1.36827 11.073C1.49958 10.6688 1.72753 10.3403 1.98427 10.038C2.22682 9.7525 2.54733 9.43201 2.91858 9.0608L9.05789 2.92148C9.43045 2.5489 9.75187 2.22746 10.0382 1.98433C10.3406 1.72762 10.6691 1.49999 11.073 1.36875Z" fill="#121212"/>
</svg>
