<svg width="24" height="24" viewBox="0 0 24 24" fill="none" xmlns="http://www.w3.org/2000/svg">
<path fill-rule="evenodd" clip-rule="evenodd" d="M9.73223 8.73223C10.2011 8.26339 10.837 8 11.5 8H14C14.5523 8 15 8.44772 15 9C15 9.55228 14.5523 10 14 10H11.5C11.3674 10 11.2402 10.0527 11.1464 10.1464C11.0527 10.2402 11 10.3674 11 10.5C11 10.6326 11.0527 10.7598 11.1464 10.8536C11.2402 10.9473 11.3674 11 11.5 11H12.5C13.163 11 13.7989 11.2634 14.2678 11.7322C14.7366 12.2011 15 12.837 15 13.5C15 14.163 14.7366 14.7989 14.2678 15.2678C13.7989 15.7366 13.163 16 12.5 16H10C9.44772 16 9 15.5523 9 15C9 14.4477 9.44772 14 10 14H12.5C12.6326 14 12.7598 13.9473 12.8536 13.8536C12.9473 13.7598 13 13.6326 13 13.5C13 13.3674 12.9473 13.2402 12.8536 13.1464C12.7598 13.0527 12.6326 13 12.5 13H11.5C10.837 13 10.2011 12.7366 9.73223 12.2678C9.26339 11.7989 9 11.163 9 10.5C9 9.83696 9.26339 9.20107 9.73223 8.73223Z" fill="#121212"/>
<path fill-rule="evenodd" clip-rule="evenodd" d="M2 5C2 4.44772 2.44772 4 3 4H21C21.5523 4 22 4.44772 22 5V19C22 19.5523 21.5523 20 21 20H3C2.44772 20 2 19.5523 2 19V5ZM4 9.899V14.101C4.95344 14.2956 5.83715 14.7661 6.53553 15.4645C7.23392 16.1628 7.70436 17.0466 7.899 18H16.101C16.2956 17.0466 16.7661 16.1628 17.4645 15.4645C18.1628 14.7661 19.0466 14.2956 20 14.101V9.899C19.0466 9.70436 18.1628 9.23392 17.4645 8.53553C16.7661 7.83715 16.2956 6.95344 16.101 6H7.899C7.70436 6.95344 7.23392 7.83715 6.53553 8.53553C5.83715 9.23392 4.95344 9.70436 4 9.899ZM5.82843 6H4V7.82843C4.4179 7.68067 4.80192 7.44073 5.12132 7.12132C5.44073 6.80192 5.68067 6.4179 5.82843 6ZM18.1716 6C18.3193 6.4179 18.5593 6.80192 18.8787 7.12132C19.1981 7.44073 19.5821 7.68067 20 7.82843V6H18.1716ZM20 16.1716C19.5821 16.3193 19.1981 16.5593 18.8787 16.8787C18.5593 17.1981 18.3193 17.5821 18.1716 18H20V16.1716ZM5.82843 18C5.68067 17.5821 5.44073 17.1981 5.12132 16.8787C4.80192 16.5593 4.4179 16.3193 4 16.1716V18H5.82843ZM12 7C12.5523 7 13 7.44772 13 8V9C13 9.55228 12.5523 10 12 10C11.4477 10 11 9.55228 11 9V8C11 7.44772 11.4477 7 12 7ZM12 14C12.5523 14 13 14.4477 13 15V16C13 16.5523 12.5523 17 12 17C11.4477 17 11 16.5523 11 16V15C11 14.4477 11.4477 14 12 14Z" fill="#121212"/>
</svg>
