<svg width="24" height="24" viewBox="0 0 24 24" fill="none" xmlns="http://www.w3.org/2000/svg">
<path fill-rule="evenodd" clip-rule="evenodd" d="M9.07512 3.5965C8.93593 3.56527 8.79135 3.5642 8.65151 3.59341C8.53112 3.61856 8.39542 3.68333 7.7412 4.06304L7.25353 4.34607C6.6031 4.72358 6.48043 4.80873 6.39904 4.90034C6.30457 5.00668 6.23389 5.13184 6.1917 5.26739C6.15526 5.38451 6.14552 5.53439 6.15816 6.28582L6.16531 6.71048C6.16543 6.71799 6.16557 6.72553 6.1657 6.73308C6.16651 6.77904 6.16733 6.82553 6.16667 6.87022C6.15957 7.35002 6.0374 7.8209 5.81081 8.24347C5.78819 8.28565 5.76451 8.32663 5.73766 8.3731L5.72762 8.39048C5.70022 8.43792 5.67649 8.47901 5.65102 8.52005C5.39802 8.9277 5.05085 9.26894 4.63851 9.51481C4.59529 9.54058 4.55312 9.56397 4.4997 9.59358L4.13813 9.79394C3.47612 10.1608 3.35104 10.2439 3.26765 10.3344C3.17056 10.4398 3.09732 10.5644 3.05283 10.6996C3.0144 10.8164 3.00277 10.966 3.00449 11.7232L3.00577 12.2854C3.00748 13.0379 3.01951 13.186 3.05799 13.3019C3.1027 13.4366 3.17559 13.5602 3.2719 13.6647C3.35478 13.7546 3.47894 13.8372 4.13615 14.2028L4.50726 14.4093C4.5566 14.4367 4.60131 14.4616 4.64523 14.488C5.05419 14.7343 5.39764 15.0743 5.64826 15.4793C5.67562 15.5234 5.70113 15.568 5.73008 15.6186L5.73595 15.6289C5.73973 15.6355 5.74351 15.6421 5.74729 15.6487C5.77231 15.6923 5.79715 15.7356 5.81974 15.7784C6.0397 16.1948 6.15862 16.6573 6.16665 17.1284C6.16754 17.1807 6.16667 17.232 6.16565 17.2923L6.15865 17.7073C6.1459 18.4625 6.15535 18.6119 6.19193 18.729C6.23428 18.8647 6.30537 18.9902 6.40054 19.0968C6.4824 19.1886 6.606 19.2739 7.25964 19.6506L7.75334 19.9351C8.40514 20.3107 8.54107 20.3749 8.66118 20.3998C8.8005 20.4286 8.94418 20.4274 9.08282 20.3963C9.20223 20.3695 9.33554 20.3034 9.98198 19.9163L10.3358 19.7045C10.3898 19.6721 10.4315 19.6472 10.4758 19.6226C10.893 19.3907 11.3596 19.2614 11.8372 19.2461C11.8857 19.2445 11.9337 19.2445 11.9881 19.2445H12.0102C12.0648 19.2445 12.1133 19.2445 12.162 19.2461C12.6404 19.2615 13.108 19.3911 13.526 19.6241C13.5695 19.6484 13.6113 19.6734 13.6606 19.7031L13.6662 19.7064L14.0223 19.9202C14.6709 20.3096 14.8053 20.3762 14.9253 20.4031C15.0648 20.4344 15.2089 20.4355 15.3484 20.4064C15.4688 20.3812 15.6048 20.3163 16.2589 19.9367L16.7465 19.6537C17.397 19.2762 17.5197 19.191 17.6011 19.0994C17.6956 18.993 17.7663 18.8679 17.8085 18.7324C17.8449 18.6153 17.8545 18.4658 17.8419 17.714L17.8347 17.2893C17.8346 17.2823 17.8345 17.2754 17.8344 17.2684C17.8335 17.2213 17.8327 17.1748 17.8334 17.1296C17.8405 16.6501 17.9624 16.1792 18.1891 15.7563C18.2117 15.7141 18.2355 15.6731 18.2623 15.6266L18.2677 15.6173C18.2998 15.5617 18.3233 15.5214 18.3492 15.4797C18.6021 15.0721 18.949 14.731 19.3615 14.485C19.402 14.4609 19.4433 14.438 19.4886 14.4129L19.8623 14.2058C20.5241 13.8391 20.6492 13.7558 20.7326 13.6653C20.8294 13.5604 20.9025 13.4359 20.9472 13.3002C20.9857 13.1831 20.9977 13.0325 20.996 12.2766L20.9947 11.7145C20.993 10.9629 20.9807 10.8139 20.9421 10.6978C20.8975 10.5634 20.8246 10.4397 20.7281 10.335C20.6452 10.2451 20.521 10.1623 19.8641 9.79688L19.4916 9.58967C19.442 9.56206 19.3997 9.53855 19.3573 9.51317C18.9475 9.2677 18.6026 8.92801 18.3507 8.52255C18.3247 8.48076 18.3013 8.44079 18.2682 8.38336L18.2626 8.37376C18.2354 8.32665 18.2113 8.285 18.1884 8.24219C17.9623 7.82008 17.8407 7.35016 17.8334 6.87167C17.8327 6.8255 17.8335 6.77807 17.8344 6.72956C17.8345 6.72286 17.8346 6.71615 17.8347 6.70942L17.8417 6.29241C17.8544 5.53769 17.8448 5.38798 17.8082 5.27072C17.7656 5.13427 17.6946 5.00891 17.6 4.90289C17.5183 4.81136 17.3949 4.72651 16.7402 4.34927L16.2464 4.06471C15.5943 3.68891 15.4589 3.62485 15.3389 3.60001C15.1995 3.57114 15.0557 3.57235 14.9172 3.60343C14.7978 3.63023 14.6646 3.69633 14.018 4.08345L13.6642 4.29531C13.6091 4.32833 13.568 4.35277 13.5241 4.37715C13.1068 4.60917 12.6401 4.73834 12.1626 4.75367C12.1141 4.75523 12.0661 4.75522 12.0116 4.75521H11.9891C11.9348 4.75522 11.8871 4.75523 11.8386 4.75367C11.3602 4.73828 10.8921 4.60862 10.474 4.37555C10.4323 4.35227 10.3914 4.32774 10.3465 4.30077L9.97806 4.07956C9.32917 3.69 9.19504 3.62341 9.07512 3.5965ZM8.2426 1.63566C8.6617 1.54812 9.09501 1.55124 9.51297 1.64502C9.98949 1.75193 10.4179 2.00991 10.9044 2.30286C10.9385 2.32336 10.9728 2.34403 11.0075 2.36484L11.3636 2.57861C11.4258 2.61599 11.4372 2.62271 11.4478 2.62862C11.5871 2.70627 11.7433 2.74957 11.9029 2.7547C11.9152 2.7551 11.929 2.75521 12.0006 2.75521C12.072 2.75521 12.0861 2.75509 12.0984 2.7547C12.2574 2.74959 12.413 2.70658 12.5523 2.62916C12.5645 2.62237 12.58 2.61339 12.6368 2.5794L12.9906 2.36754C13.0254 2.3467 13.0599 2.326 13.0941 2.30547C13.5782 2.01472 14.0048 1.75849 14.4791 1.652C14.8955 1.55852 15.3268 1.55512 15.7443 1.64151C16.2211 1.74021 16.6527 1.98959 17.1435 2.27324C17.177 2.29263 17.2109 2.31217 17.245 2.33184L17.7388 2.6164C17.7738 2.63658 17.8086 2.65655 17.8431 2.67635C18.3345 2.95866 18.7676 3.20753 19.0922 3.57129C19.3772 3.89062 19.5901 4.26694 19.7174 4.67466C19.8628 5.14059 19.8538 5.64013 19.8435 6.20832C19.8428 6.24724 19.8421 6.28648 19.8414 6.32606L19.8344 6.74306C19.8332 6.81785 19.833 6.82948 19.8332 6.8411C19.8356 7.00079 19.8762 7.15738 19.9514 7.29792C19.9573 7.3088 19.9643 7.32115 20 7.38297C20.032 7.43833 20.0418 7.4546 20.0496 7.46722C20.1337 7.60258 20.2487 7.71574 20.3851 7.79744C20.3959 7.80391 20.4088 7.81125 20.4701 7.84539L20.8363 8.04912C20.871 8.06839 20.9054 8.08746 20.9394 8.10636C21.4339 8.38063 21.869 8.62192 22.1985 8.97928C22.487 9.29216 22.706 9.66307 22.8403 10.0677C22.9935 10.5291 22.994 11.0267 22.9946 11.5925C22.9946 11.6313 22.9946 11.6705 22.9947 11.7099L22.996 12.272C22.9961 12.3108 22.9962 12.3492 22.9964 12.3873C22.9983 12.9587 23.0001 13.4599 22.847 13.9252C22.7131 14.3321 22.4937 14.7057 22.2033 15.0208C21.8718 15.3804 21.4336 15.6225 20.9351 15.898C20.9009 15.9169 20.8665 15.9359 20.8317 15.9551L20.4702 16.1555C20.4077 16.1901 20.3961 16.1967 20.3858 16.2028C20.2486 16.2846 20.133 16.3981 20.0485 16.5343C20.0411 16.5463 20.0318 16.5618 19.9995 16.6177C19.9643 16.6786 19.9575 16.6907 19.9517 16.7014C19.8762 16.8422 19.8355 16.9992 19.8332 17.1592C19.833 17.1705 19.8332 17.1812 19.8344 17.2539L19.8416 17.6803C19.8422 17.7193 19.8429 17.7579 19.8436 17.7962C19.8538 18.3634 19.8628 18.8616 19.7181 19.3267C19.5914 19.7339 19.3792 20.1092 19.0962 20.4278C18.7729 20.7917 18.3421 21.041 17.8515 21.3249C17.8181 21.3443 17.7844 21.3638 17.7505 21.3835L17.2628 21.6665C17.2286 21.6864 17.1947 21.7061 17.161 21.7257C16.6688 22.0122 16.2359 22.2641 15.7573 22.3641C15.3379 22.4517 14.9051 22.4483 14.4874 22.3546C14.0107 22.2477 13.582 21.9896 13.0949 21.6963C13.0612 21.676 13.0272 21.6555 12.9928 21.6349L12.6367 21.4211C12.5764 21.3849 12.5634 21.3772 12.5523 21.3711C12.4129 21.2934 12.2571 21.2502 12.0977 21.2451C12.0853 21.2447 12.0708 21.2445 11.9992 21.2445C11.9278 21.2445 11.9137 21.2447 11.9013 21.2451C11.9013 21.2451 11.9013 21.2451 11.9013 21.2451C11.7424 21.2502 11.587 21.2931 11.4476 21.3706C11.4359 21.3772 11.4212 21.3857 11.3632 21.4204L11.0094 21.6322C10.9747 21.653 10.9404 21.6736 10.9063 21.6941C10.422 21.985 9.99532 22.2412 9.5209 22.3477C9.10464 22.4411 8.67342 22.4447 8.25584 22.3583C7.77856 22.2595 7.34656 22.0098 6.85479 21.7257C6.82173 21.7066 6.7884 21.6873 6.75477 21.6679L6.26107 21.3834C6.22725 21.364 6.1937 21.3447 6.16042 21.3255C5.66676 21.0419 5.23352 20.7929 4.90826 20.4284C4.62385 20.1097 4.41033 19.7336 4.28279 19.325C4.13744 18.8594 4.14651 18.3601 4.15682 17.7928C4.15753 17.7533 4.15826 17.7136 4.15893 17.6735L4.16581 17.266C4.16707 17.1916 4.16717 17.1758 4.16694 17.1625C4.16426 17.0056 4.12466 16.8514 4.05128 16.7125C4.04573 16.702 4.04019 16.6923 4.00302 16.6274L4.00018 16.6224C3.96221 16.5561 3.9546 16.543 3.94764 16.5318C3.86369 16.3962 3.74917 16.283 3.61351 16.2013C3.60236 16.1946 3.58971 16.1875 3.5222 16.1499L3.16386 15.9506C3.12888 15.9311 3.09417 15.9119 3.05975 15.8928C2.5659 15.6189 2.13086 15.3776 1.80154 15.0204C1.51287 14.7074 1.29409 14.3364 1.15985 13.9321C1.00693 13.4714 1.00647 12.9744 1.00594 12.4108C1.0059 12.3708 1.00587 12.3305 1.00577 12.2899L1.0045 11.7278C1.0044 11.6874 1.00426 11.6473 1.00412 11.6076C1.00209 11.0393 1.0003 10.5388 1.153 10.0746C1.28704 9.6672 1.50695 9.29369 1.797 8.97898C2.12836 8.61946 2.56654 8.37736 3.06465 8.10215C3.09905 8.08314 3.13374 8.06397 3.1687 8.0446L3.53027 7.84423C3.58942 7.81145 3.60307 7.80367 3.61421 7.79702C3.75149 7.71516 3.86727 7.60142 3.95171 7.46537C3.9582 7.45492 3.9654 7.44271 4.0004 7.38213C4.0356 7.32118 4.04246 7.30908 4.04821 7.29835C4.12386 7.15727 4.16453 7.0003 4.16689 6.84061C4.16704 6.83035 4.16689 6.8212 4.16589 6.76202L4.15844 6.31947C4.1578 6.28098 4.15711 6.24281 4.15643 6.20496C4.1462 5.63686 4.13723 5.13844 4.28204 4.6731C4.40875 4.26592 4.62085 3.89057 4.90389 3.57198C5.22723 3.20805 5.65803 2.95872 6.14864 2.67478C6.18202 2.65547 6.21568 2.63599 6.24959 2.6163L6.73726 2.33327C6.77172 2.31326 6.80587 2.29338 6.83975 2.27367C7.33148 1.98744 7.76414 1.73559 8.2426 1.63566ZM12.0001 8.99991C10.3432 8.99991 9.0001 10.3431 9.0001 11.9999C9.0001 13.6568 10.3432 14.9999 12.0001 14.9999C13.657 14.9999 15.0001 13.6568 15.0001 11.9999C15.0001 10.3431 13.657 8.99991 12.0001 8.99991ZM7.0001 11.9999C7.0001 9.23849 9.23867 6.99991 12.0001 6.99991C14.7615 6.99991 17.0001 9.23849 17.0001 11.9999C17.0001 14.7613 14.7615 16.9999 12.0001 16.9999C9.23867 16.9999 7.0001 14.7613 7.0001 11.9999Z" fill="#121212"/>
</svg>
