<svg width="24" height="24" viewBox="0 0 24 24" fill="none" xmlns="http://www.w3.org/2000/svg">
<path fill-rule="evenodd" clip-rule="evenodd" d="M6.4443 3.6853C8.08879 2.58649 10.0222 2 12 2C14.6522 2 17.1957 3.05357 19.0711 4.92893C20.9464 6.8043 22 9.34784 22 12C22 13.9778 21.4135 15.9112 20.3147 17.5557C19.2159 19.2002 17.6541 20.4819 15.8268 21.2388C13.9996 21.9957 11.9889 22.1937 10.0491 21.8079C8.10929 21.422 6.32746 20.4696 4.92894 19.0711C3.53041 17.6725 2.578 15.8907 2.19215 13.9509C1.8063 12.0111 2.00433 10.0004 2.76121 8.17317C3.51809 6.3459 4.79981 4.78412 6.4443 3.6853ZM12 4C10.4178 4 8.87104 4.46919 7.55544 5.34824C6.23985 6.22729 5.21447 7.47672 4.60897 8.93853C4.00347 10.4003 3.84504 12.0089 4.15372 13.5607C4.4624 15.1126 5.22433 16.538 6.34315 17.6569C7.46197 18.7757 8.88743 19.5376 10.4393 19.8463C11.9911 20.155 13.5997 19.9965 15.0615 19.391C16.5233 18.7855 17.7727 17.7602 18.6518 16.4446C19.5308 15.129 20 13.5823 20 12C20 9.87827 19.1571 7.84344 17.6569 6.34315C16.1566 4.84285 14.1217 4 12 4Z" fill="#121212"/>
<path d="M13 7C13 6.44772 12.5523 6 12 6C11.4477 6 11 6.44772 11 7V7.52349C10.3935 7.59976 9.81822 7.86024 9.36686 8.28151C8.82091 8.79106 8.5 9.49752 8.5 10.25C8.5 11.0025 8.82091 11.7089 9.36686 12.2185C9.91048 12.7259 10.6339 13 11.375 13H12.625C12.8785 13 13.1089 13.0946 13.2685 13.2436C13.4258 13.3904 13.5 13.5742 13.5 13.75C13.5 13.9258 13.4258 14.1096 13.2685 14.2564C13.1089 14.4054 12.8785 14.5 12.625 14.5H9.5C8.94772 14.5 8.5 14.9477 8.5 15.5C8.5 16.0523 8.94772 16.5 9.5 16.5H11V17C11 17.5523 11.4477 18 12 18C12.5523 18 13 17.5523 13 17V16.4765C13.6065 16.4002 14.1818 16.1398 14.6331 15.7185C15.1791 15.2089 15.5 14.5025 15.5 13.75C15.5 12.9975 15.1791 12.2911 14.6331 11.7815C14.0895 11.2741 13.3661 11 12.625 11H11.375C11.1215 11 10.8911 10.9054 10.7315 10.7564C10.5742 10.6096 10.5 10.4258 10.5 10.25C10.5 10.0742 10.5742 9.89044 10.7315 9.74362C10.8911 9.59462 11.1215 9.5 11.375 9.5H14.5C15.0523 9.5 15.5 9.05228 15.5 8.5C15.5 7.94772 15.0523 7.5 14.5 7.5H13V7Z" fill="#121212"/>
</svg>
