<svg width="24" height="24" viewBox="0 0 24 24" fill="none" xmlns="http://www.w3.org/2000/svg">
<path fill-rule="evenodd" clip-rule="evenodd" d="M10.2939 5.63623C10.2939 5.08395 10.7417 4.63623 11.2939 4.63623H18.3646C18.6299 4.63623 18.8842 4.74159 19.0718 4.92914C19.2593 5.11669 19.3647 5.37106 19.3646 5.63628L19.3643 12.7074C19.3642 13.2596 18.9165 13.7073 18.3642 13.7073C17.8119 13.7073 17.3642 13.2595 17.3643 12.7072L17.3645 8.05057L6.34383 19.0713C5.9533 19.4618 5.32014 19.4618 4.92961 19.0713C4.53909 18.6807 4.53909 18.0476 4.92961 17.657L15.9504 6.63623H11.2939C10.7417 6.63623 10.2939 6.18852 10.2939 5.63623Z" fill="#121212"/>
</svg>
