<svg width="24" height="24" viewBox="0 0 24 24" fill="none" xmlns="http://www.w3.org/2000/svg">
<path fill-rule="evenodd" clip-rule="evenodd" d="M4.92864 4.92912C5.31916 4.5386 5.95232 4.5386 6.34285 4.92912L17.3635 15.9498L17.3633 11.2931C17.3633 10.7409 17.8109 10.2931 18.3632 10.2931C18.9155 10.2931 19.3633 10.7408 19.3633 11.293L19.3637 18.3641C19.3637 18.6293 19.2583 18.8837 19.0708 19.0712C18.8833 19.2588 18.6289 19.3642 18.3637 19.3642L11.293 19.3641C10.7407 19.3641 10.293 18.9164 10.293 18.3641C10.293 17.8118 10.7407 17.3641 11.293 17.3641L15.9494 17.3641L4.92864 6.34334C4.53811 5.95281 4.53811 5.31965 4.92864 4.92912Z" fill="#121212"/>
</svg>
