<svg width="24" height="24" viewBox="0 0 24 24" fill="none" xmlns="http://www.w3.org/2000/svg">
<path fill-rule="evenodd" clip-rule="evenodd" d="M6.78061 1.41191C7.11298 1.85299 7.02487 2.47999 6.58379 2.81236C5.3425 3.74775 4.3646 4.98865 3.74533 6.41422C3.52529 6.92078 2.93626 7.15304 2.42971 6.93299C1.92315 6.71295 1.69089 6.12392 1.91094 5.61737C2.66782 3.875 3.86302 2.35834 5.38016 1.21509C5.82123 0.88272 6.44824 0.97084 6.78061 1.41191ZM17.2199 1.41191C17.5523 0.97084 18.1793 0.88272 18.6204 1.21509C20.1375 2.35834 21.3327 3.875 22.0896 5.61737C22.3097 6.12392 22.0774 6.71295 21.5708 6.93299C21.0643 7.15304 20.4753 6.92078 20.2552 6.41422C19.6359 4.98865 18.658 3.74775 17.4167 2.81236C16.9757 2.47999 16.8876 1.85299 17.2199 1.41191ZM12 4.00006C8.68631 4.00007 6.00001 6.68636 6.00001 10.0001V13.7225C6.00001 14.166 5.82347 14.5907 5.51068 14.9035L5.12118 15.293C5.05723 15.3569 5.02541 15.3889 5.00286 15.4129C5.00231 15.4135 5.00177 15.414 5.00126 15.4146C5.00123 15.4155 5.00119 15.4165 5.00116 15.4176C5.00012 15.4505 5.00001 15.4955 5.00001 15.5859C5.00001 15.79 5.00038 15.9015 5.00497 15.9825C5.00521 15.9868 5.00545 15.9907 5.00569 15.9944C5.00934 15.9946 5.01326 15.9948 5.01745 15.9951C5.09845 15.9997 5.21006 16.0001 5.41407 16.0001H18.5856C18.7896 16.0001 18.9013 15.9997 18.9824 15.9951C18.9868 15.9948 18.9908 15.9946 18.9945 15.9943C18.9948 15.9907 18.995 15.9868 18.9953 15.9825C18.9998 15.9015 19.0002 15.7899 19.0002 15.5859C19.0002 15.4961 19.0001 15.451 18.999 15.4185C18.999 15.4172 18.9989 15.416 18.9989 15.4148C18.9984 15.4143 18.9978 15.4137 18.9973 15.4131C18.9746 15.389 18.9428 15.3571 18.8787 15.293L18.4892 14.9034C18.176 14.5902 18 14.1654 18 13.7225V10.0001C18 6.68634 15.3137 4.00005 12 4.00006ZM16 18.0001H18.5856C18.6128 18.0001 18.6407 18.0002 18.6693 18.0003C18.9612 18.0014 19.3204 18.0027 19.6394 17.8951C20.2309 17.6956 20.6956 17.2313 20.8953 16.6393C21.0029 16.3204 21.0015 15.9615 21.0004 15.6697C21.0003 15.6411 21.0002 15.6131 21.0002 15.5859C21.0002 15.5751 21.0002 15.564 21.0003 15.5527C21.0005 15.4198 21.0007 15.2555 20.9736 15.0904C20.9238 14.787 20.8047 14.4985 20.6247 14.2478C20.5277 14.1126 20.4109 13.9963 20.3186 13.9044C20.3098 13.8956 20.3012 13.8871 20.2929 13.8788L20 13.5858V10.0001C20 5.58178 16.4183 2.00005 12 2.00006C7.58174 2.00007 4.00001 5.58178 4.00001 10.0001V13.5857L3.70697 13.8787C3.6988 13.8869 3.6904 13.8953 3.68179 13.9039C3.58908 13.9962 3.47239 14.1125 3.37522 14.2478C3.195 14.4988 3.07615 14.7873 3.02641 15.0904C2.99942 15.2549 2.99972 15.4195 2.99997 15.5506C2.99999 15.5627 3.00001 15.5744 3.00001 15.5859C3.00001 15.6131 2.9999 15.6411 2.9998 15.6697C2.9987 15.9615 2.99734 16.3204 3.10491 16.6393C3.30443 17.2308 3.7686 17.6954 4.36057 17.8951C4.67955 18.0027 5.03851 18.0014 5.33044 18.0003C5.35899 18.0002 5.3869 18.0001 5.41407 18.0001H8.00001C8.00001 20.2092 9.79087 22.0001 12 22.0001C14.2091 22.0001 16 20.2092 16 18.0001ZM10 18.0001C10 19.1046 10.8954 20.0001 12 20.0001C13.1046 20.0001 14 19.1046 14 18.0001H10Z" fill="#121212"/>
</svg>
