<svg width="24" height="24" viewBox="0 0 24 24" fill="none" xmlns="http://www.w3.org/2000/svg">
<path fill-rule="evenodd" clip-rule="evenodd" d="M19.4107 4.55755C19.1924 4.60344 18.893 4.69453 18.4055 4.84454L5.11089 8.93518C4.49611 9.12434 4.10002 9.24718 3.82794 9.35781C3.8061 9.36668 3.78621 9.37506 3.76811 9.38293C3.78463 9.39363 3.80284 9.40515 3.82286 9.41746C4.07307 9.57131 4.44357 9.75757 5.0189 10.0452L10.0331 12.5524L14.4466 8.13893C14.8371 7.74841 15.4703 7.74841 15.8608 8.13893C16.2513 8.52945 16.2513 9.16262 15.8608 9.55314L11.4474 13.9666L13.9545 18.9809C14.2421 19.556 14.4285 19.9265 14.5824 20.1766C14.5947 20.1967 14.6063 20.2149 14.617 20.2315C14.6248 20.2135 14.6332 20.1936 14.642 20.1719C14.7526 19.8999 14.8755 19.5038 15.0646 18.889L19.1553 5.59443C19.3053 5.10687 19.3964 4.80739 19.4424 4.58903C19.4453 4.5749 19.448 4.56177 19.4503 4.54962C19.4381 4.55193 19.4249 4.55456 19.4107 4.55755ZM18.9992 2.60033C19.3178 2.53335 19.746 2.47523 20.1778 2.63374C20.7287 2.836 21.1637 3.27026 21.3662 3.82197C21.5248 4.25387 21.4665 4.6822 21.3995 5.00073C21.3325 5.3194 21.2131 5.70741 21.0801 6.13949L16.9625 19.5218C16.7908 20.0799 16.6426 20.5617 16.4947 20.9252C16.3568 21.2644 16.1341 21.7353 15.6841 22.0164C15.1356 22.3591 14.4555 22.4155 13.8581 22.1676C13.3682 21.9643 13.071 21.5367 12.879 21.2247C12.6727 20.8894 12.4465 20.437 12.1844 19.9127L9.57472 14.6934C9.52732 14.5986 9.50371 14.5518 9.48538 14.5184C9.48487 14.5174 9.48437 14.5165 9.48389 14.5156C9.48331 14.5153 9.48271 14.515 9.4821 14.5147C9.44841 14.4962 9.40153 14.4726 9.30638 14.425L4.08229 11.813C3.56022 11.552 3.10952 11.3267 2.77529 11.1212C2.46341 10.9294 2.03549 10.6322 1.83212 10.1421C1.58415 9.54452 1.64079 8.86406 1.98338 8.31575C2.26454 7.86575 2.73547 7.64299 3.07465 7.50509C3.43823 7.35726 3.92 7.20905 4.47808 7.03736C4.4929 7.0328 4.50778 7.02822 4.52271 7.02362L17.8594 2.92002C18.2919 2.7869 18.6803 2.66739 18.9992 2.60033Z" fill="#121212"/>
</svg>
