<svg width="24" height="24" viewBox="0 0 24 24" fill="none" xmlns="http://www.w3.org/2000/svg">
<path fill-rule="evenodd" clip-rule="evenodd" d="M11.4779 2.62792C11.9935 2.4959 12.5346 2.50349 13.0462 2.64969C13.6323 2.8172 14.1334 3.21962 14.7055 3.67915C14.7453 3.71114 14.7855 3.7434 14.8261 3.77588L20.4251 8.25875C20.4496 8.2784 20.474 8.29786 20.4981 8.31716C20.8658 8.61097 21.1886 8.86884 21.4291 9.20089C21.6396 9.49142 21.7968 9.81778 21.8922 10.1646C22.0009 10.5592 22.0005 10.9722 22 11.441C21.9999 11.4729 21.9999 11.505 21.9999 11.5375V17.8414C21.9999 18.3673 21.9999 18.8212 21.9694 19.1951C21.9372 19.5904 21.866 19.9836 21.6731 20.3621C21.3853 20.927 20.9258 21.3858 20.3617 21.6732C19.9834 21.866 19.5903 21.9373 19.195 21.9696C18.8204 22.0003 18.3656 22.0002 17.8383 22.0002H6.16198C5.63462 22.0002 5.17963 22.0003 4.80486 21.9696C4.40949 21.9373 4.01613 21.866 3.63771 21.6732C3.07294 21.3855 2.61436 20.9263 2.32688 20.3621C2.13409 19.9837 2.06277 19.5905 2.03047 19.1952C1.99987 18.8206 1.99988 18.3658 1.9999 17.8387L1.9999 11.5923C1.9999 11.5586 1.99986 11.5253 1.99983 11.4922C1.9993 11.0076 1.99883 10.5809 2.11426 10.1749C2.21548 9.81888 2.38167 9.48436 2.60493 9.18844C2.85889 8.85183 3.19954 8.59485 3.58543 8.30375C3.61233 8.28346 3.63945 8.263 3.66677 8.24234L9.66776 3.70455C9.70989 3.6727 9.7516 3.64105 9.79295 3.60968C10.3763 3.16708 10.8879 2.77899 11.4779 2.62792ZM12.4966 4.5727C12.326 4.52393 12.1457 4.52144 11.974 4.56541C11.8268 4.60309 11.6583 4.70678 10.8741 5.29981L5.16815 9.61446L12.2113 14.7501L18.8913 9.59276L13.5761 5.33712C12.809 4.72299 12.6428 4.61448 12.4966 4.5727ZM19.9991 11.2641L12.8396 16.7918C12.4876 17.0635 11.9986 17.0702 11.6393 16.8082L4.00132 11.2389C4.00033 11.3353 3.9999 11.4513 3.9999 11.5923V17.8001C3.9999 18.3767 4.00068 18.749 4.02383 19.0323C4.04602 19.304 4.0837 19.4047 4.10889 19.4541C4.20491 19.6426 4.3578 19.7955 4.54569 19.8912C4.59509 19.9164 4.69588 19.9541 4.96772 19.9763C5.25117 19.9994 5.62357 20.0002 6.2001 20.0002H17.8001C18.3766 20.0002 18.7488 19.9994 19.032 19.9763C19.3035 19.9541 19.4042 19.9164 19.4537 19.8912C19.6422 19.7951 19.7954 19.6419 19.8911 19.4541C19.9163 19.4048 19.9539 19.3042 19.9761 19.0325C19.9992 18.7491 19.9999 18.3769 19.9999 17.8002V11.5375C19.9999 11.433 19.9997 11.3426 19.9991 11.2641Z" fill="#121212"/>
</svg>
