<svg width="24" height="24" viewBox="0 0 24 24" fill="none" xmlns="http://www.w3.org/2000/svg">
<path fill-rule="evenodd" clip-rule="evenodd" d="M19.1951 3.03057C18.8206 2.99997 18.3659 2.99998 17.8388 3H6.16168C5.63451 2.99998 5.17965 2.99997 4.80499 3.03057C4.40962 3.06286 4.01625 3.13416 3.63781 3.32698C3.07306 3.61473 2.61447 4.07382 2.32698 4.63805C2.13419 5.01642 2.06287 5.40962 2.03057 5.80496C1.99997 6.1795 1.99998 6.63424 2 7.16137V14.9027C2.00003 15.4027 2.00122 15.8358 2.03057 16.195C2.06287 16.5904 2.13419 16.9836 2.32698 17.3619C2.61447 17.9262 3.07306 18.3853 3.63781 18.673C3.7572 18.7339 3.87809 18.7826 4.00005 18.8218C4.26466 18.9069 4.53435 18.9473 4.80499 18.9694C4.91702 18.9786 5.03623 18.985 5.1624 18.9895C5.45815 19 5.79215 19 6.16168 19L6.87745 19C7.33358 19 7.42315 19.0047 7.49964 19.0204C7.58755 19.0385 7.67277 19.0684 7.75334 19.1095C7.82292 19.1451 7.89571 19.1972 8.25174 19.482L9.80983 20.7285C10.1964 21.0378 10.5387 21.3117 10.829 21.5036C11.1124 21.6909 11.5134 21.9189 11.9979 21.9194H12.0021C12.4866 21.9189 12.8876 21.6909 13.171 21.5036C13.2487 21.4523 13.33 21.3951 13.4149 21.3329C13.6476 21.1626 13.907 20.9551 14.1902 20.7285L15.7483 19.482C16.1043 19.1972 16.1771 19.1451 16.2467 19.1095C16.3272 19.0684 16.4125 19.0385 16.5004 19.0204C16.5769 19.0047 16.6664 19 17.1226 19L17.8383 19C18.3656 19 18.8204 19 19.195 18.9694C19.5903 18.9371 19.9835 18.8658 20.3618 18.673C20.9258 18.3856 21.3854 17.927 21.6732 17.362C21.8661 16.9835 21.9373 16.5902 21.9696 16.1949C22 15.8209 22 15.367 22 14.841V7.15875C22 6.63283 22 6.17898 21.9696 5.80511C21.9373 5.40983 21.8661 5.01653 21.6732 4.63805C21.3854 4.07316 20.9259 3.61439 20.3618 3.32698C19.9835 3.13422 19.5904 3.06288 19.1951 3.03057ZM7.08391 17H6.2002C5.62365 17 5.25126 16.9992 4.9678 16.9761C4.69595 16.9539 4.59518 16.9162 4.54579 16.891C4.35789 16.7953 4.205 16.6424 4.109 16.454C4.0838 16.4045 4.04612 16.3038 4.02393 16.0322C4.00078 15.7489 4 15.3766 4 14.8V7.19995C4 6.6234 4.00078 6.25115 4.02393 5.96783C4.04612 5.6962 4.0838 5.59549 4.109 5.54603C4.205 5.35761 4.35789 5.20474 4.54579 5.109C4.59518 5.08383 4.69595 5.04614 4.9678 5.02393C5.25126 5.00078 5.62365 5 6.2002 5H17.8002C18.3768 5 18.7489 5.00078 19.0321 5.02393C19.3036 5.04611 19.4043 5.08377 19.4538 5.109C19.6424 5.20508 19.7956 5.35828 19.8912 5.54603C19.9164 5.59537 19.954 5.69598 19.9762 5.96767C19.9993 6.25105 20 6.6233 20 7.19995V14.8C20 15.3766 19.9993 15.7489 19.9762 16.0323C19.954 16.3041 19.9164 16.4047 19.8912 16.454C19.7956 16.6417 19.6425 16.7948 19.4538 16.891C19.4043 16.9162 19.3036 16.9539 19.0321 16.9761C18.7488 16.9992 18.3766 17 17.8001 17L17.052 17C17.0056 16.9999 16.9599 16.9999 16.9149 17C16.6236 17.0007 16.3591 17.0077 16.0983 17.0613C15.8331 17.1157 15.5772 17.2057 15.3368 17.3285C15.0629 17.4684 14.8243 17.6596 14.5535 17.8765L12.9749 19.1395C12.5433 19.4848 12.273 19.6997 12.0681 19.8352L12.0516 19.846C12.0362 19.856 12.0183 19.8611 12 19.8611C11.9817 19.8611 11.9638 19.856 11.9484 19.846L11.9319 19.8352C11.727 19.6997 11.4567 19.4848 11.0251 19.1395L9.44649 17.8765C9.17574 17.6596 8.93714 17.4684 8.66324 17.3285C8.42285 17.2057 8.16687 17.1157 7.90173 17.0613C7.64052 17.0076 7.37571 17.0007 7.08391 17Z" fill="#121212"/>
</svg>
