<svg width="24" height="24" viewBox="0 0 24 24" fill="none" xmlns="http://www.w3.org/2000/svg">
<path fill-rule="evenodd" clip-rule="evenodd" d="M4.89474 4C4.40061 4 4 4.4006 4 4.89478C4 13.2372 10.763 20 19.1055 20C19.5995 20 20 19.5996 20 19.1054C20 19.1053 20 19.1054 20 19.1054L19.9999 16.3541C19.9999 15.9453 19.751 15.5775 19.3712 15.4256L16.7357 14.3714C16.7357 14.3714 16.7358 14.3714 16.7357 14.3714C16.3947 14.2349 16.0065 14.2964 15.7244 14.5315L15.0433 15.0989C13.8513 16.0922 12.0986 16.0128 11.0015 14.9157C11.0015 14.9157 11.0015 14.9157 11.0015 14.9157L9.08428 12.9986C7.98694 11.9013 7.90808 10.1485 8.90119 8.95673C8.9012 8.95672 8.90118 8.95674 8.90119 8.95673L9.46857 8.27582C9.70363 7.99375 9.76518 7.60541 9.62872 7.26425L8.57447 4.62861C8.57447 4.62861 8.57447 4.62861 8.57447 4.62861C8.42261 4.24895 8.0549 4 7.646 4H4.89474ZM2 4.89478C2 3.29608 3.29599 2 4.89474 2H7.646C8.87271 2 9.97584 2.74685 10.4314 3.88583L11.4857 6.52148C11.8949 7.54444 11.7106 8.70951 11.0051 9.55613C11.0051 9.55614 11.0051 9.55612 11.0051 9.55613L10.4377 10.237C10.1064 10.6346 10.1329 11.2189 10.4984 11.5844C10.4985 11.5844 10.4984 11.5844 10.4984 11.5844L12.4156 13.5014C12.7813 13.8671 13.3655 13.8936 13.7629 13.5625L14.444 12.9951C15.2906 12.2896 16.4555 12.1052 17.4785 12.5144L20.114 13.5687C20.114 13.5687 20.114 13.5687 20.114 13.5687C21.2528 14.0242 21.9999 15.1272 21.9999 16.354C21.9999 16.354 21.9999 16.354 21.9999 16.354L22 19.1053C22 20.7039 20.7043 22 19.1055 22C9.65852 22 2 14.3418 2 4.89478Z" fill="#121212"/>
</svg>
