<svg width="24" height="24" viewBox="0 0 24 24" fill="none" xmlns="http://www.w3.org/2000/svg">
<path fill-rule="evenodd" clip-rule="evenodd" d="M12 2C6.47715 2 2 6.47715 2 12C2 13.7928 2.47265 15.4781 3.30079 16.9351L2.54554 19.2008C2.47398 19.4153 2.40027 19.6363 2.35621 19.8239C2.31334 20.0064 2.24717 20.3477 2.37749 20.7132C2.52886 21.1377 2.86297 21.4712 3.28668 21.6223C3.65233 21.7527 3.99403 21.6864 4.17665 21.6435C4.3648 21.5993 4.58653 21.5254 4.80198 21.4535L7.06503 20.6991C8.522 21.5273 10.2073 22 12.0001 22C17.523 22 22 17.5228 22 12C22 6.47715 17.5228 2 12 2ZM11.666 19.9932L12.0001 20C16.4184 20 20 16.4183 20 12C20 7.58172 16.4183 4 12 4L11.7508 4.00381C7.44784 4.13546 4 7.66508 4 12C4 13.3432 4.33024 14.6066 4.91342 15.7162L5.16155 16.1623C5.20866 16.2524 5.25982 16.3642 5.29202 16.4807C5.33768 16.6459 5.3546 16.81 5.3428 16.9827C5.3291 17.183 5.26348 17.3746 5.23217 17.466L4.581 19.419L6.50831 18.7765L6.68643 18.7192C6.78043 18.6923 6.89702 18.6656 7.01719 18.6574C7.18804 18.6457 7.35242 18.6619 7.51934 18.708C7.63584 18.7402 7.74744 18.7912 7.83751 18.8383L8.28398 19.0865C9.30105 19.6211 10.4474 19.9432 11.666 19.9932Z" fill="#121212"/>
<path fill-rule="evenodd" clip-rule="evenodd" d="M15.7071 9.29289C16.0976 9.68342 16.0976 10.3166 15.7071 10.7071L11.7071 14.7071C11.3166 15.0976 10.6834 15.0976 10.2929 14.7071L8.29289 12.7071C7.90237 12.3166 7.90237 11.6834 8.29289 11.2929C8.68342 10.9024 9.31658 10.9024 9.70711 11.2929L11 12.5858L14.2929 9.29289C14.6834 8.90237 15.3166 8.90237 15.7071 9.29289Z" fill="#121212"/>
</svg>
