<svg width="70" height="24" viewBox="0 0 70 24" fill="none" xmlns="http://www.w3.org/2000/svg">
<path d="M23.7351 11.9851C23.7351 18.4749 18.4739 23.7352 11.985 23.7352C5.49518 23.7352 0.234863 18.4749 0.234863 11.9851C0.234863 5.49529 5.49518 0.2341 11.985 0.2341C18.4739 0.2341 23.7351 5.49529 23.7351 11.9851Z" fill="white"/>
<path d="M2.37528 14.2594L2.391 14.2192L2.43728 14.0935L2.48269 13.98L2.50277 13.9276C2.72195 13.387 2.99789 12.8308 3.33234 12.2676C3.376 12.1741 3.42141 12.0824 3.46681 11.9899L2.05917 11.9934L2.4006 11.2389C3.56374 10.9219 5.50143 10.274 7.35092 8.48038L7.40594 8.47689H8.37958L7.12039 11.1752L9.14278 11.169L8.77166 11.9724L6.75276 11.9794C6.75276 11.9794 5.80531 13.8726 5.48397 15.2269C5.2351 16.7385 5.4796 17.8667 6.83397 18.2893C7.67052 18.5487 8.71403 18.4893 9.83874 18.1706C12.4558 17.3559 15.2536 15.5561 17.3005 13.1748C20.6702 9.26018 20.7357 5.25469 17.4498 4.23214C15.3409 3.57722 12.3676 4.30549 9.61607 5.94541C13.047 3.73266 16.8193 2.69352 19.4224 3.50387C19.9105 3.65581 20.3332 3.86539 20.6929 4.12386C18.5422 1.75305 15.437 0.265076 11.9843 0.265076C5.49619 0.265076 0.234131 5.52626 0.234131 12.0152C0.234131 14.4113 0.952796 16.6389 2.18317 18.4972C1.71774 17.3489 1.78323 15.8757 2.37528 14.2594Z" fill="#D71920"/>
<path d="M21.948 5.78186C22.7339 7.9169 21.7507 11.1033 19.0367 14.2574C14.9622 18.9955 8.52567 21.8606 4.66252 20.6581C4.18312 20.5088 3.76659 20.3036 3.41119 20.0495C5.55496 22.3374 8.60252 23.7659 11.9845 23.7659C18.4752 23.7659 23.7364 18.5056 23.7364 12.0158C23.7364 9.72447 23.0789 7.58856 21.948 5.78186Z" fill="#D71920"/>
<path d="M27.2876 5.77451H33.6883V7.08784H31.3341V13.6789H29.6401V7.08784H27.2876V5.77451Z" fill="#231F20"/>
<path d="M37.0169 7.08757H39.11C39.8505 7.09892 40.2889 7.39232 40.2889 8.08741C40.2889 8.78512 39.8505 9.15624 39.11 9.16585H37.0169V7.08757ZM37.0169 10.5412H38.8079C38.8079 10.5412 39.9178 12.9757 40.0601 13.6787H42.1471L40.5439 10.4285C41.6738 10.1369 41.9664 8.78948 41.9664 7.76606C41.9664 6.16195 40.1771 5.72446 38.6769 5.77424H35.3211V13.6787H37.0169V10.5412Z" fill="#231F20"/>
<path d="M44.2492 5.77451H49.9182V7.08784H45.945V8.94606H49.6004V10.2594H45.945V12.3656H50.037V13.6789H44.2492V5.77451Z" fill="#231F20"/>
<path d="M56.8537 13.6788L53.9511 8.42283L53.9275 8.44466V13.6788H52.3426V5.77434H54.4445L57.3305 10.9395L57.3523 10.9185V5.77434H58.9381V13.6788H56.8537Z" fill="#231F20"/>
<path d="M63.0965 7.14888H63.9732C65.986 7.12792 66.282 8.46745 66.282 9.72577C66.282 10.9858 65.986 12.3882 63.9732 12.3655H63.0965V7.14888ZM61.4007 13.6789H64.092C66.5554 13.7007 68.0879 12.4756 68.0879 9.72577C68.0879 6.9786 66.5554 5.75259 64.092 5.77442H61.4007V13.6789Z" fill="#231F20"/>
<path d="M32.5843 20.1746H31.7644V16.7193L30.9008 20.1746H30.0494L29.1857 16.7193L29.1726 20.1746H28.3518V15.7875H29.6756L30.465 18.7766L31.2562 15.7875H32.5843V20.1746Z" fill="#231F20"/>
<path d="M39.2681 20.1745H38.3844V15.7874H39.2681V20.1745Z" fill="#231F20"/>
<path d="M56.7021 17.3436C56.647 17.4624 56.5527 17.5436 56.4191 17.589C56.3484 17.6143 56.2646 17.6274 56.1668 17.6318C56.0655 17.6405 55.917 17.6431 55.7267 17.6431H54.967V16.5298H55.6594C55.9773 16.5298 56.1816 16.5333 56.2716 16.5411C56.3641 16.549 56.4497 16.5778 56.5274 16.6267C56.6112 16.6765 56.668 16.7367 56.7021 16.811C56.737 16.8887 56.7544 16.9769 56.7544 17.0738C56.7544 17.176 56.737 17.2659 56.7021 17.3436ZM56.7798 18.3504L57.0531 18.2692C57.2662 18.1837 57.4321 18.0256 57.5465 17.8344C57.667 17.6379 57.6958 17.2991 57.6958 17.0546C57.6958 16.8214 57.6102 16.5699 57.4976 16.37C57.3657 16.1412 57.1841 15.984 56.9518 15.8976C56.8418 15.86 56.7396 15.8364 56.6453 15.8233C56.4768 15.7998 56.2436 15.7875 55.9458 15.7875H54.0832V20.1746H54.967V18.4456L55.8096 18.436L56.7448 20.1746H57.8058L56.7798 18.3504Z" fill="#231F20"/>
<path d="M65.4795 19.206C65.2716 19.3938 65.0123 19.4881 64.7014 19.4881C64.4534 19.4881 64.2395 19.4287 64.0596 19.3099C63.9164 19.2165 63.7994 19.0925 63.7086 18.9371C63.6404 18.8183 63.5907 18.6978 63.5575 18.5747C63.5121 18.4088 63.4894 18.2106 63.4894 17.9818C63.4894 17.5722 63.568 17.2395 63.7217 16.9819C63.9269 16.6449 64.2534 16.4746 64.7014 16.4746C65.1756 16.4746 65.5126 16.6615 65.7135 17.0378C65.8436 17.2823 65.91 17.5923 65.91 17.9695C65.91 18.5328 65.7668 18.9458 65.4795 19.206ZM66.2977 16.3698C65.9196 15.9314 65.386 15.714 64.697 15.714C64.0194 15.714 63.4955 15.9192 63.1279 16.327C62.7602 16.7357 62.576 17.2954 62.576 18.0053C62.576 18.6105 62.7253 19.1091 63.0248 19.5064C63.3942 20.0007 63.9566 20.2478 64.7084 20.2478C65.4288 20.2478 65.9737 20.0146 66.3448 19.5501C66.6636 19.1493 66.8242 18.628 66.8242 17.9879C66.8242 17.3172 66.6478 16.7776 66.2977 16.3698Z" fill="#231F20"/>
<path d="M47.85 17.2276C47.7784 16.9665 47.6378 16.4748 46.8859 16.4748C46.4485 16.4748 45.8066 16.7665 45.8066 17.9995C45.8066 18.7837 46.1149 19.4866 46.8859 19.4866C47.3898 19.4866 47.7408 19.2011 47.85 18.6675H48.7599C48.5791 19.6141 47.96 20.2716 46.8685 20.2716C45.7097 20.2716 44.8793 19.4936 44.8793 17.9882C44.8793 16.4626 45.7577 15.6898 46.8798 15.6898C48.1836 15.6898 48.7127 16.584 48.7599 17.2276H47.85Z" fill="#231F20"/>
<path d="M68.4339 14.1784H67.9615V15.435H67.7729V14.1784H67.304V14.009H68.4339V14.1784Z" fill="#231F20"/>
<path d="M69.9852 15.4352H69.8062V14.2415L69.3914 15.4352H69.222L68.8142 14.2214L68.809 15.4352H68.6273V14.0092H68.912L69.2482 15.0187L69.2857 15.1365L69.3111 15.23L69.3931 15.0012L69.7346 14.0092H69.9852V15.4352Z" fill="#231F20"/>
</svg>
