<svg width="24" height="24" viewBox="0 0 24 24" fill="none" xmlns="http://www.w3.org/2000/svg">
<path fill-rule="evenodd" clip-rule="evenodd" d="M12.2838 4.69877C12.0987 4.64403 11.9013 4.64403 11.7162 4.69877C11.665 4.71391 11.5753 4.75129 11.3841 4.89429C11.1828 5.04481 10.9362 5.25975 10.5513 5.59652L5.75128 9.79653C5.30962 10.183 5.22787 10.2645 5.17259 10.346C5.10873 10.4401 5.06132 10.5445 5.03249 10.6549C5.00759 10.7501 5 10.8655 5 11.4522V19.0001H9V16.0001C9 14.3432 10.3431 13.0001 12 13.0001C13.6569 13.0001 15 14.3432 15 16.0001V19.0001H19V11.4522C19 10.8654 18.9924 10.7501 18.9675 10.6549C18.9387 10.5447 18.8913 10.4402 18.8274 10.346C18.772 10.2644 18.6902 10.1826 18.2489 9.79653L13.4489 5.59652C13.0641 5.2598 12.8174 5.04484 12.6161 4.89435C12.4249 4.75135 12.335 4.71392 12.2838 4.69877ZM21 19.0001V11.4522C21 11.4214 21 11.3909 21.0001 11.3606C21.0005 10.9169 21.0009 10.5256 20.9026 10.1492C20.8162 9.81874 20.674 9.50534 20.4821 9.22268C20.2635 8.90055 19.9688 8.64319 19.6338 8.35069C19.6114 8.33109 19.5887 8.31132 19.5659 8.29137L14.7396 4.0683C14.3889 3.76145 14.0841 3.49477 13.8138 3.29263C13.5267 3.07796 13.2198 2.88996 12.851 2.78087C12.2957 2.61666 11.7043 2.61666 11.149 2.78087C10.7801 2.88998 10.4732 3.07802 10.1862 3.29269C9.91628 3.49457 9.61197 3.76086 9.2619 4.0672L4.43427 8.29137C4.41103 8.31171 4.38796 8.33185 4.36508 8.35183C4.03095 8.64359 3.73627 8.9009 3.51784 9.22268C3.32588 9.50546 3.18378 9.81888 3.09746 10.1492C2.99909 10.5257 2.99949 10.917 2.99994 11.361C2.99997 11.3911 3 11.4215 3 11.4522V19.0001H2C1.44772 19.0001 1 19.4478 1 20.0001C1 20.5524 1.44772 21.0001 2 21.0001L20 21.0002C20.0045 21.0002 20.009 21.0001 20.0135 21.0001H22C22.5523 21.0001 23 20.5524 23 20.0001C23 19.4478 22.5523 19.0001 22 19.0001H21ZM13 19.0001H11V16.0001C11 15.4478 11.4477 15.0001 12 15.0001C12.5523 15.0001 13 15.4478 13 16.0001V19.0001Z" fill="#121212"/>
</svg>
