<svg width="24" height="24" viewBox="0 0 24 24" fill="none" xmlns="http://www.w3.org/2000/svg">
<path fill-rule="evenodd" clip-rule="evenodd" d="M15.9709 4.59846C17.0318 4.71288 18.1357 4.5015 19.384 3.52541C19.6853 3.28986 20.0945 3.24673 20.4382 3.4143C20.7819 3.58186 21 3.93078 21 4.31318V15.6866C21 15.9943 20.8584 16.2848 20.616 16.4744C18.9552 17.773 17.3318 18.1303 15.7564 17.9603C14.2804 17.8012 12.8849 17.1774 11.6593 16.6297C11.6368 16.6196 11.6144 16.6096 11.5921 16.5996C10.2883 16.0171 9.1624 15.5235 8.02913 15.4013C7.07826 15.2988 6.09291 15.4579 5 16.1947V20.9999C5 21.5522 4.55228 21.9999 4 21.9999C3.44772 21.9999 3 21.5522 3 20.9999V4.31323C3 4.00555 3.14164 3.71499 3.38403 3.52547C5.0448 2.22687 6.66819 1.86958 8.24359 2.03948C9.71962 2.19867 11.1151 2.82237 12.3407 3.37014C12.3632 3.38018 12.3856 3.3902 12.4079 3.4002C13.7117 3.98273 14.8376 4.47624 15.9709 4.59846ZM5 13.9128C6.10079 13.423 7.18306 13.2985 8.24359 13.4129C9.71962 13.572 11.1151 14.1958 12.3407 14.7435C12.3632 14.7536 12.3856 14.7636 12.4079 14.7736C13.7117 15.3561 14.8376 15.8497 15.9709 15.9719C16.9217 16.0744 17.9071 15.9153 19 15.1785V6.087C17.8992 6.57677 16.8169 6.70131 15.7564 6.58693C14.2804 6.42774 12.8849 5.80404 11.6593 5.25627C11.6368 5.24623 11.6144 5.23621 11.5921 5.22621C10.2883 4.64368 9.1624 4.15017 8.02914 4.02795C7.07826 3.9254 6.09291 4.08455 5 4.82137V13.9128Z" fill="#121212"/>
</svg>
