<svg width="24" height="24" viewBox="0 0 24 24" fill="none" xmlns="http://www.w3.org/2000/svg">
<path fill-rule="evenodd" clip-rule="evenodd" d="M8.93678 3.00001C9.42243 3.0001 9.84398 3.00188 10.1951 3.03057C10.5904 3.06288 10.9835 3.13422 11.3618 3.32698C11.9259 3.61439 12.3854 4.07316 12.6732 4.63805C12.8661 5.01654 12.9373 5.40983 12.9696 5.80512C13 6.17898 13 6.63283 13 7.15876L13 8.10806C13.1935 7.98799 13.4014 7.88636 13.6341 7.81624C14.1987 7.64603 14.8011 7.64603 15.3658 7.81624C15.7414 7.92948 16.0527 8.12487 16.3431 8.34749C16.6171 8.55754 16.9257 8.83479 17.2813 9.15428L19.6719 11.302C19.9981 11.5945 20.2848 11.8516 20.4974 12.1709C20.6835 12.4506 20.8217 12.7598 20.9055 13.086C21.0009 13.4569 21.0005 13.8417 21.0001 14.2782L21 19H22C22.5523 19 23 19.4477 23 20C23 20.5523 22.5523 21 22 21H20.0028L20 21L2 21C1.44772 21 1 20.5523 1 20C1 19.4477 1.44772 19 2 19H3L3 7.16141C2.99998 6.63426 2.99997 6.17951 3.03057 5.80496C3.06287 5.40962 3.13419 5.01642 3.32698 4.63805C3.61447 4.07383 4.07306 3.61473 4.63781 3.32698C5.01624 3.13416 5.40962 3.06286 5.80498 3.03057C6.17964 2.99997 6.63449 2.99998 7.16164 3L8.93678 3.00001ZM5 19V7.19995C5 6.6234 5.00078 6.25114 5.02393 5.96783C5.04612 5.6962 5.0838 5.59549 5.10899 5.54603C5.205 5.35761 5.35788 5.20474 5.54579 5.10899C5.59517 5.08383 5.69595 5.04613 5.9678 5.02393C6.25126 5.00078 6.62365 5 7.2002 5H8.8002C9.37676 5 9.74892 5.00078 10.0321 5.02393C10.3036 5.04611 10.4043 5.08377 10.4538 5.10899C10.6424 5.20508 10.7956 5.35828 10.8912 5.54603C10.9164 5.59537 10.954 5.69598 10.9762 5.96767C10.9993 6.25105 11 6.6233 11 7.19995V9.80016L9.32615 11.3039C9.00125 11.5952 8.71462 11.8521 8.50247 12.1709C8.31607 12.451 8.17823 12.7603 8.0945 13.0859C7.99912 13.4569 7.99951 13.8417 7.99994 14.2784L8 19H5ZM10 19V14.368C10 13.7913 10.0074 13.6779 10.0315 13.584C10.0594 13.4753 10.1054 13.3723 10.1675 13.279C10.2212 13.1983 10.3007 13.117 10.7298 12.7315L13.0298 10.6652C13.4195 10.3151 13.6696 10.0913 13.8739 9.93457C14.0684 9.78541 14.1597 9.74667 14.2113 9.73113C14.3995 9.67439 14.6003 9.67439 14.7885 9.73113C14.8402 9.74671 14.9317 9.78552 15.1262 9.93468C15.3306 10.0914 15.5808 10.3152 15.9704 10.6652L18.2704 12.7315C18.6989 13.1165 18.7786 13.1981 18.8324 13.279C18.8947 13.3726 18.9407 13.4758 18.9685 13.584C18.9927 13.6779 19 13.7912 19 14.368V19H10Z" fill="#121212"/>
</svg>
