<svg width="24" height="24" viewBox="0 0 24 24" fill="none" xmlns="http://www.w3.org/2000/svg">
<path fill-rule="evenodd" clip-rule="evenodd" d="M16.3727 6.05942C16.2478 6.01443 16.0828 6.00024 15.2536 6.00024H8.74609C7.91693 6.00024 7.7524 6.01443 7.6275 6.05942C7.48242 6.11168 7.35144 6.19681 7.24454 6.30838C7.15267 6.40427 7.07265 6.54921 6.73595 7.30677L5.53885 10.0002H18.461L17.2639 7.30677C16.9271 6.54896 16.8473 6.40423 16.7555 6.30838C16.6484 6.19665 16.5176 6.11161 16.3727 6.05942ZM20.6497 10.0002C20.6457 9.9914 20.6418 9.98251 20.6378 9.97357L19.0915 6.49449C19.0737 6.45423 19.056 6.41429 19.0384 6.37468C18.7868 5.80635 18.5655 5.30668 18.1996 4.92476C17.8795 4.59065 17.4865 4.33487 17.0505 4.17779C16.5528 3.99851 16.0061 3.99926 15.3844 4.00012C15.3411 4.00018 15.2975 4.00024 15.2536 4.00024H8.74609C8.70213 4.00024 8.65855 4.00018 8.61532 4.00012C7.9936 3.99926 7.44732 3.99851 6.94965 4.17779C6.51383 4.3348 6.12064 4.59049 5.80038 4.92476C5.4343 5.30685 5.21296 5.80671 4.96103 6.37561C4.94363 6.41491 4.92608 6.45454 4.90833 6.49449L3.36207 9.97357C3.3581 9.98251 3.35414 9.99139 3.35021 10.0002H3C2.44772 10.0002 2 10.448 2 11.0002C2 11.5525 2.44772 12.0002 3 12.0002V18.0002C3 19.6571 4.34315 21.0002 6 21.0002C7.65685 21.0002 9 19.6571 9 18.0002H15C15 19.6571 16.3431 21.0002 18 21.0002C19.6569 21.0002 21 19.6571 21 18.0002V12.0002C21.5523 12.0002 22 11.5525 22 11.0002C22 10.448 21.5523 10.0002 21 10.0002H20.6497ZM19 12.0002H5V16.0002L19 16.0002V12.0002ZM19 18.0002H17C17 18.5525 17.4477 19.0002 18 19.0002C18.5523 19.0002 19 18.5525 19 18.0002ZM7 18.0002H5C5 18.5525 5.44772 19.0002 6 19.0002C6.55228 19.0002 7 18.5525 7 18.0002Z" fill="#121212"/>
</svg>
