<svg width="24" height="24" viewBox="0 0 24 24" fill="none" xmlns="http://www.w3.org/2000/svg">
<path fill-rule="evenodd" clip-rule="evenodd" d="M16.8388 3C17.3659 2.99998 17.8206 2.99997 18.1951 3.03057C18.5904 3.06288 18.9835 3.13422 19.3618 3.32698C19.9259 3.61439 20.3854 4.07316 20.6732 4.63805C20.8661 5.01654 20.9373 5.40983 20.9695 5.80512C21 6.17898 21 6.63283 21 7.15875V19H22C22.5523 19 23 19.4477 23 20C23 20.5523 22.5523 21 22 21H15.0028L15 21L2 21C1.44772 21 1 20.5523 1 20C1 19.4477 1.44772 19 2 19H3L2.99994 14.2784C2.99951 13.8417 2.99912 13.4569 3.0945 13.086C3.17823 12.7603 3.31607 12.451 3.50247 12.1709C3.71462 11.8521 4.00125 11.5952 4.32614 11.3039L6 9.80017L6 7.16141C5.99998 6.63426 5.99997 6.17951 6.03057 5.80496C6.06287 5.40962 6.13419 5.01642 6.32698 4.63805C6.61447 4.07383 7.07306 3.61473 7.63781 3.32698C8.01624 3.13416 8.40962 3.06286 8.80498 3.03057C9.17964 2.99997 9.63449 2.99998 10.1616 3H16.8388ZM16 19H19V7.19995C19 6.6233 18.9993 6.25105 18.9762 5.96767C18.954 5.69598 18.9164 5.59537 18.8912 5.54603C18.7956 5.35828 18.6424 5.20508 18.4538 5.10899C18.4043 5.08377 18.3036 5.04611 18.0321 5.02393C17.7489 5.00078 17.3768 5 16.8002 5H10.2002C9.62365 5 9.25126 5.00078 8.9678 5.02393C8.69595 5.04613 8.59517 5.08383 8.54579 5.10899C8.35788 5.20474 8.205 5.35761 8.10899 5.54603C8.0838 5.59549 8.04612 5.6962 8.02393 5.96783C8.00078 6.25114 8 6.6234 8 7.19995V8.10806C8.19351 7.98799 8.40143 7.88636 8.63408 7.81623C9.19875 7.64603 9.80109 7.64603 10.3658 7.81623C10.7414 7.92948 11.0527 8.12487 11.3431 8.34749C11.6171 8.55754 11.9257 8.83479 12.2813 9.15428L14.6719 11.302C14.9981 11.5945 15.2848 11.8516 15.4974 12.1709C15.6835 12.4506 15.8217 12.7598 15.9055 13.0859C16.0009 13.4569 16.0005 13.8417 16.0001 14.2782L16 19ZM14 19H5V14.368C5 13.7913 5.00735 13.6779 5.0315 13.584C5.05944 13.4753 5.10539 13.3723 5.16745 13.279C5.22116 13.1983 5.30066 13.117 5.72983 12.7315L8.02983 10.6652C8.41946 10.3151 8.66959 10.0913 8.87394 9.93457C9.06842 9.78541 9.15973 9.74667 9.2113 9.73113C9.39952 9.67439 9.60032 9.67439 9.78854 9.73113C9.84021 9.74671 9.93167 9.78552 10.1262 9.93468C10.3306 10.0914 10.5808 10.3152 10.9704 10.6652L13.2704 12.7315C13.6989 13.1165 13.7786 13.1981 13.8324 13.279C13.8947 13.3726 13.9407 13.4758 13.9685 13.584C13.9927 13.6779 14 13.7912 14 14.368V19Z" fill="#121212"/>
</svg>
