<svg width="24" height="24" viewBox="0 0 24 24" fill="none" xmlns="http://www.w3.org/2000/svg">
<path d="M22.1249 8.90328C22.1499 8.92805 22.1743 8.95335 22.1982 8.97928C22.4867 9.29216 22.7057 9.66307 22.84 10.0677C22.9932 10.5291 22.9937 11.0267 22.9943 11.5925L22.9961 12.3873C22.9981 12.9587 22.9998 13.4599 22.8467 13.9252C22.7129 14.3321 22.4934 14.7057 22.203 15.0208C21.8715 15.3804 21.4334 15.6225 20.9348 15.898L20.4699 16.1555C20.4075 16.1901 20.3958 16.1967 20.3855 16.2028C20.2484 16.2846 20.1328 16.3981 20.0483 16.5343C20.0408 16.5463 20.0315 16.5618 19.9993 16.6177C19.9641 16.6786 19.9572 16.6907 19.9515 16.7014C19.876 16.8422 19.8353 16.9992 19.8329 17.1592C19.8328 17.1705 19.8329 17.1812 19.8342 17.2539L19.8434 17.7962C19.8536 18.3634 19.8626 18.8616 19.7179 19.3267C19.5911 19.7339 19.379 20.1092 19.096 20.4278C18.7727 20.7917 18.3418 21.041 17.8513 21.3249L17.1608 21.7257C16.6686 22.0122 16.2357 22.2641 15.757 22.3641C15.3376 22.4517 14.9048 22.4483 14.4872 22.3546C14.0104 22.2477 13.5818 21.9896 13.0947 21.6963L12.6365 21.4211C12.5762 21.3849 12.5631 21.3772 12.552 21.3711C12.4126 21.2934 12.2569 21.2502 12.0974 21.2451C12.0851 21.2447 12.0706 21.2445 11.9989 21.2445C11.9275 21.2445 11.9134 21.2447 11.901 21.2451C11.7422 21.2502 11.5867 21.2931 11.4474 21.3706C11.4356 21.3772 11.421 21.3857 11.363 21.4204L10.9061 21.6941C10.4217 21.985 9.99507 22.2412 9.52065 22.3477C9.1044 22.4411 8.67318 22.4447 8.25559 22.3583C7.77831 22.2595 7.34631 22.0098 6.85455 21.7257L6.16017 21.3255C5.66651 21.0419 5.23327 20.7929 4.90801 20.4284C4.62361 20.1097 4.41009 19.7336 4.28255 19.325C4.13719 18.8594 4.14627 18.3601 4.15657 17.7928L4.16557 17.266C4.16682 17.1916 4.16692 17.1758 4.1667 17.1625C4.16402 17.0056 4.12441 16.8514 4.05103 16.7125C4.04549 16.702 4.03995 16.6923 4.00279 16.6274L3.99994 16.6224C3.96196 16.5561 3.95435 16.543 3.94739 16.5318C3.86344 16.3962 3.74892 16.283 3.61326 16.2013C3.60211 16.1946 3.58947 16.1875 3.52195 16.1499L3.05951 15.8928C2.56566 15.6189 2.13062 15.3776 1.8013 15.0204C1.51263 14.7074 1.29384 14.3364 1.15961 13.9321C1.00669 13.4714 1.00622 12.9744 1.0057 12.4108L1.00387 11.6076C1.00184 11.0393 1.00005 10.5388 1.15276 10.0746C1.28679 9.6672 1.5067 9.29369 1.79676 8.97898C2.12811 8.61946 2.5663 8.37736 3.0644 8.10215L3.53002 7.84423C3.58918 7.81145 3.60282 7.80367 3.61397 7.79702C3.75124 7.71516 3.86703 7.60142 3.95147 7.46537C3.95796 7.45492 3.96515 7.44271 4.00015 7.38213C4.03536 7.32118 4.04222 7.30908 4.04797 7.29835C4.12362 7.15727 4.16428 7.0003 4.16665 6.84061C4.1668 6.83036 4.16664 6.82122 4.16565 6.76219L4.15618 6.20496C4.14596 5.63686 4.13698 5.13844 4.28179 4.6731C4.40851 4.26592 4.6206 3.89057 4.90365 3.57198C5.22699 3.20805 5.65779 2.95872 6.1484 2.67478L6.8395 2.27367C7.33124 1.98744 7.7639 1.73559 8.24235 1.63566C8.66145 1.54812 9.09477 1.55124 9.51272 1.64502C9.98924 1.75193 10.4177 2.00991 10.9042 2.30286L11.3633 2.57861C11.4256 2.61599 11.4369 2.62271 11.4476 2.62862C11.5869 2.70627 11.7431 2.74957 11.9026 2.7547C11.915 2.7551 11.9287 2.75521 12.0003 2.75521C12.0718 2.75521 12.0858 2.75509 12.0982 2.7547C12.2572 2.74959 12.4128 2.70658 12.552 2.62916C12.5642 2.62237 12.5798 2.61339 12.6365 2.5794L13.0938 2.30547C13.5779 2.01472 14.0046 1.75849 14.4789 1.652C14.7641 1.58798 15.0563 1.56621 15.3462 1.5866C14.5111 2.48017 13.9999 3.68034 13.9999 4.99991C13.9999 6.12488 14.3714 7.16308 14.9985 7.9985C14.163 7.37145 13.1248 6.99991 11.9999 6.99991C9.23843 6.99991 6.99985 9.23849 6.99985 11.9999C6.99985 14.7613 9.23843 16.9999 11.9999 16.9999C14.7613 16.9999 16.9999 14.7613 16.9999 11.9999C16.9999 10.8749 16.6283 9.83674 16.0013 9.00132C16.8367 9.62838 17.8749 9.99991 18.9999 9.99991C20.1823 9.99991 21.2689 9.58947 22.1249 8.90328Z" fill="#121212"/>
<path d="M8.99985 11.9999C8.99985 10.3431 10.343 8.99991 11.9999 8.99991C13.6567 8.99991 14.9999 10.3431 14.9999 11.9999C14.9999 13.6568 13.6567 14.9999 11.9999 14.9999C10.343 14.9999 8.99985 13.6568 8.99985 11.9999Z" fill="#121212"/>
<circle cx="19" cy="5" r="4" fill="#D70015"/>
</svg>
