<svg width="24" height="24" viewBox="0 0 24 24" fill="none" xmlns="http://www.w3.org/2000/svg">
<path fill-rule="evenodd" clip-rule="evenodd" d="M5.00001 2C4.67363 2 4.36778 2.15927 4.18067 2.42669C3.99355 2.6941 3.94871 3.03601 4.06054 3.34263L6.01236 8.69439C4.76028 10.1064 4.00001 11.9644 4.00001 14C4.00001 18.4183 7.58173 22 12 22C16.4183 22 20 18.4183 20 14C20 11.9644 19.2397 10.1064 17.9877 8.69439L19.9395 3.34263C20.0513 3.03601 20.0065 2.6941 19.8193 2.42669C19.6322 2.15927 19.3264 2 19 2H13.86C13.4442 2 13.0717 2.25736 12.9246 2.64633L12 5.09173L11.0754 2.64633C10.9283 2.25736 10.5559 2 10.14 2H5.00001ZM12.8802 11.5254C12.7057 11.2018 12.3677 11 12 11C11.6323 11 11.2942 11.2018 11.1197 11.5254L10.7407 12.2286L9.86358 12.3493C9.47902 12.4023 9.15985 12.673 9.04486 13.0438C8.92986 13.4145 9.03983 13.8183 9.32693 14.0796L9.91359 14.6135L9.77737 15.3343C9.7068 15.7077 9.85399 16.0889 10.1572 16.3179C10.4604 16.547 10.8673 16.5844 11.2072 16.4144L12.0072 16.0144L12.8044 16.4002C13.1449 16.5649 13.5491 16.5235 13.8491 16.2931C14.149 16.0627 14.2933 15.6829 14.222 15.3114L14.0891 14.6193L14.6648 14.107C14.9543 13.8493 15.0689 13.4475 14.9588 13.0758C14.8486 12.7042 14.5336 12.4297 14.1504 12.3714L13.2635 12.2364L12.8802 11.5254Z" fill="#121212"/>
</svg>
