<svg width="24" height="24" viewBox="0 0 24 24" fill="none" xmlns="http://www.w3.org/2000/svg">
<path fill-rule="evenodd" clip-rule="evenodd" d="M12.9246 2.64633C13.0717 2.25736 13.4442 2 13.86 2H19C19.3264 2 19.6322 2.15927 19.8193 2.42669C20.0065 2.6941 20.0513 3.03601 19.9395 3.34263L17.7695 9.29263C17.5802 9.81149 17.0062 10.0787 16.4874 9.88947C15.9685 9.70024 15.7013 9.12622 15.8905 8.60737L17.5709 4H14.551L13.2754 7.37367C13.08 7.89026 12.5029 8.1507 11.9863 7.95537C11.4697 7.76004 11.2093 7.18292 11.4046 6.66633L12.9246 2.64633Z" fill="#121212"/>
<path fill-rule="evenodd" clip-rule="evenodd" d="M4.18067 2.42669C4.36778 2.15927 4.67363 2 5.00001 2H10.14C10.5559 2 10.9283 2.25736 11.0754 2.64633L12.5954 6.66633C12.7907 7.18292 12.5303 7.76004 12.0137 7.95537C11.4971 8.1507 10.92 7.89026 10.7246 7.37367L9.44902 4H6.42914L8.10948 8.60737C8.29871 9.12622 8.03149 9.70024 7.51264 9.88947C6.99378 10.0787 6.41977 9.81149 6.23054 9.29263L4.06054 3.34263C3.94871 3.03601 3.99355 2.6941 4.18067 2.42669Z" fill="#121212"/>
<path fill-rule="evenodd" clip-rule="evenodd" d="M12 8C8.6863 8 6.00001 10.6863 6.00001 14C6.00001 17.3137 8.6863 20 12 20C15.3137 20 18 17.3137 18 14C18 10.6863 15.3137 8 12 8ZM4.00001 14C4.00001 9.58172 7.58173 6 12 6C16.4183 6 20 9.58172 20 14C20 18.4183 16.4183 22 12 22C7.58173 22 4.00001 18.4183 4.00001 14Z" fill="#121212"/>
<path fill-rule="evenodd" clip-rule="evenodd" d="M12 11C12.3677 11 12.7058 11.2018 12.8803 11.5254L13.2636 12.2364L14.1505 12.3714C14.5337 12.4297 14.8487 12.7042 14.9588 13.0758C15.069 13.4475 14.9544 13.8493 14.6649 14.107L14.0892 14.6193L14.2221 15.3114C14.2934 15.6829 14.1491 16.0627 13.8491 16.2931C13.5492 16.5235 13.1449 16.5649 12.8045 16.4002L12.0073 16.0144L11.2072 16.4144C10.8674 16.5844 10.4605 16.547 10.1573 16.3179C9.85405 16.0889 9.70686 15.7077 9.77743 15.3343L9.91365 14.6135L9.32699 14.0796C9.03989 13.8183 8.92993 13.4145 9.04492 13.0438C9.15991 12.673 9.47908 12.4023 9.86364 12.3493L10.7407 12.2286L11.1198 11.5254C11.2943 11.2018 11.6323 11 12 11Z" fill="#121212"/>
</svg>
