<svg width="24" height="24" viewBox="0 0 24 24" fill="none" xmlns="http://www.w3.org/2000/svg">
<path fill-rule="evenodd" clip-rule="evenodd" d="M21.6198 9.25952C21.8674 10.1304 22 11.0497 22 12C22 17.5228 17.5228 22 12 22C6.47715 22 2 17.5228 2 12C2 6.47715 6.47715 2 12 2C12.9503 2 13.8696 2.13255 14.7405 2.38017C14.3928 2.94427 14.154 3.58265 14.0535 4.266C13.3982 4.09246 12.7099 4 12 4C7.58172 4 4 7.58172 4 12C4 14.3894 5.04749 16.5341 6.70831 18C8.11792 16.7561 9.97121 16 12 16C14.0288 16 15.882 16.7562 17.2916 18C18.9525 16.5341 20 14.3894 20 12C20 11.2901 19.9075 10.6018 19.734 9.94651C20.4173 9.84598 21.0557 9.60721 21.6198 9.25952ZM12 18C13.3317 18 14.5615 18.4331 15.5572 19.1676C14.4858 19.7004 13.2779 20 12 20C10.7221 20 9.51419 19.7004 8.44267 19.1675C9.43843 18.4331 10.6683 18 12 18Z" fill="#121212"/>
<path fill-rule="evenodd" clip-rule="evenodd" d="M12 7C9.79086 7 8 8.79086 8 11C8 13.2091 9.79086 15 12 15C14.2091 15 16 13.2091 16 11C16 8.79086 14.2091 7 12 7ZM10 11C10 9.89543 10.8954 9 12 9C13.1046 9 14 9.89543 14 11C14 12.1046 13.1046 13 12 13C10.8954 13 10 12.1046 10 11Z" fill="#121212"/>
<circle cx="19" cy="5" r="4" fill="#D70015"/>
</svg>
