<svg width="24" height="24" viewBox="0 0 24 24" fill="none" xmlns="http://www.w3.org/2000/svg">
<path d="M3 6.96801V11L8 11L12.5858 11L11.2929 9.70711C10.9024 9.31658 10.9024 8.68342 11.2929 8.2929C11.6834 7.90237 12.3166 7.90237 12.7071 8.2929L15.7071 11.2929C16.0976 11.6834 16.0976 12.3166 15.7071 12.7071L12.7071 15.7071C12.3166 16.0976 11.6834 16.0976 11.2929 15.7071C10.9024 15.3166 10.9024 14.6834 11.2929 14.2929L12.5858 13L4 13L10.5858 13L3 13V17.032C2.99999 17.4706 2.99998 17.8491 3.02135 18.1624C3.04386 18.4922 3.09336 18.8221 3.22836 19.1481C3.53292 19.8833 4.11729 20.4673 4.85218 20.7717C5.17809 20.9067 5.50793 20.9562 5.83774 20.9787C6.15086 21 6.52919 21 6.96769 21H16.8382C17.3654 21 17.8204 21 18.195 20.9694C18.5903 20.9371 18.9834 20.8658 19.3618 20.673C19.9257 20.3856 20.3854 19.927 20.6732 19.362C20.8661 18.9835 20.9373 18.5902 20.9696 18.1949C21 17.8209 21 17.367 21 16.841V7.1588C21 6.63288 21 6.17898 20.9696 5.80512C20.9373 5.40983 20.8661 5.01654 20.6732 4.63805C20.3854 4.07316 19.9259 3.6144 19.3618 3.32698C18.9834 3.1342 18.5903 3.06288 18.1949 3.03057C17.8204 2.99997 17.3657 2.99998 16.8386 3H6.96801C6.52941 2.99999 6.15091 2.99998 5.83772 3.02135C5.50791 3.04386 5.17808 3.09337 4.85218 3.22836C4.11732 3.53275 3.53294 4.11663 3.22836 4.85194C3.09336 5.17787 3.04386 5.50778 3.02135 5.83761C2.99998 6.15085 2.99999 6.52939 3 6.96801Z" fill="#121212"/>
</svg>
