<svg width="24" height="24" viewBox="0 0 24 24" fill="none" xmlns="http://www.w3.org/2000/svg">
<path fill-rule="evenodd" clip-rule="evenodd" d="M9.07512 20.4035C8.93593 20.4347 8.79135 20.4358 8.65151 20.4066C8.53112 20.3814 8.39542 20.3167 7.7412 19.937L7.25353 19.6539C6.6031 19.2764 6.48043 19.1913 6.39904 19.0997C6.30457 18.9933 6.23389 18.8682 6.1917 18.7326C6.15526 18.6155 6.14552 18.4656 6.15816 17.7142L6.16531 17.2895C6.16543 17.282 6.16557 17.2745 6.1657 17.2669C6.16651 17.221 6.16733 17.1745 6.16667 17.1298C6.15957 16.65 6.0374 16.1791 5.81081 15.7565C5.78819 15.7143 5.76451 15.6734 5.73766 15.6269L5.72762 15.6095C5.70022 15.5621 5.67649 15.521 5.65102 15.4799C5.39802 15.0723 5.05085 14.7311 4.63851 14.4852C4.59529 14.4594 4.55312 14.436 4.4997 14.4064L4.13813 14.2061C3.47612 13.8392 3.35104 13.7561 3.26765 13.6656C3.17056 13.5602 3.09732 13.4356 3.05283 13.3004C3.0144 13.1836 3.00277 13.034 3.00449 12.2768L3.00577 11.7146C3.00748 10.9621 3.01951 10.814 3.05799 10.6981C3.1027 10.5634 3.17559 10.4398 3.2719 10.3353C3.35478 10.2454 3.47894 10.1628 4.13615 9.79719L4.50726 9.59074C4.5566 9.5633 4.60131 9.53844 4.64523 9.512C5.05419 9.26573 5.39764 8.9257 5.64826 8.52075C5.67562 8.47656 5.70113 8.43198 5.73008 8.38138L5.73595 8.37113C5.73973 8.36452 5.74351 8.35792 5.74729 8.35132C5.77231 8.3077 5.79715 8.26438 5.81974 8.22161C6.0397 7.80517 6.15862 7.34272 6.16665 6.87163C6.16754 6.81926 6.16667 6.76796 6.16565 6.70765L6.15865 6.29273C6.1459 5.53755 6.15535 5.38813 6.19193 5.27095C6.23428 5.13529 6.30537 5.00983 6.40054 4.90318C6.4824 4.81144 6.606 4.7261 7.25964 4.34944L7.75334 4.06494C8.40514 3.68934 8.54107 3.6251 8.66118 3.60023C8.8005 3.5714 8.94418 3.57261 9.08282 3.60373C9.20223 3.63053 9.33554 3.69662 9.98198 4.08369L10.3358 4.29555C10.3898 4.32788 10.4315 4.35275 10.4758 4.37738C10.893 4.60934 11.3596 4.73859 11.8372 4.75392C11.8857 4.75547 11.9337 4.75547 11.9881 4.75546H12.0102C12.0648 4.75547 12.1133 4.75547 12.162 4.75391C12.6404 4.73852 13.108 4.60889 13.526 4.37587C13.5695 4.35165 13.6113 4.32656 13.6606 4.29695L13.6662 4.29361L14.0223 4.07983C14.6709 3.69043 14.8053 3.62378 14.9253 3.59686C15.0648 3.56556 15.2089 3.5645 15.3484 3.59364C15.4688 3.61879 15.6048 3.68367 16.2589 4.06327L16.7465 4.3463C17.397 4.72382 17.5197 4.80899 17.6011 4.9006C17.6956 5.00699 17.7663 5.13215 17.8085 5.26763C17.8449 5.38467 17.8545 5.53424 17.8419 6.28602L17.8347 6.71068C17.8346 6.71767 17.8345 6.72464 17.8344 6.7316C17.8335 6.77871 17.8327 6.82517 17.8334 6.87036C17.8405 7.34985 17.9624 7.82084 18.1891 8.24368C18.2117 8.28588 18.2355 8.32692 18.2623 8.3734L18.2677 8.38273C18.2998 8.43828 18.3233 8.47856 18.3492 8.52035C18.6021 8.92787 18.949 9.26903 19.3615 9.51498C19.402 9.53914 19.4433 9.56203 19.4886 9.58713L19.8623 9.7942C20.5241 10.1609 20.6492 10.2442 20.7326 10.3347C20.8294 10.4396 20.9025 10.5641 20.9472 10.6998C20.9857 10.8169 20.9977 10.9675 20.996 11.7234L20.9947 12.2855C20.993 13.0371 20.9807 13.1861 20.9421 13.3022C20.8975 13.4366 20.8246 13.5603 20.7281 13.665C20.6452 13.7549 20.521 13.8377 19.8641 14.2031L19.4916 14.4103C19.442 14.4379 19.3997 14.4615 19.3573 14.4868C18.9475 14.7323 18.6026 15.072 18.3507 15.4774C18.3247 15.5192 18.3013 15.5592 18.2682 15.6166L18.2626 15.6262C18.2354 15.6734 18.2113 15.715 18.1884 15.7578C17.9623 16.1799 17.8407 16.6498 17.8334 17.1283C17.8327 17.1745 17.8335 17.2219 17.8344 17.2704C17.8345 17.2771 17.8346 17.2839 17.8347 17.2906L17.8417 17.7076C17.8544 18.4623 17.8448 18.612 17.8082 18.7293C17.7656 18.8657 17.6946 18.9911 17.6 19.0971C17.5183 19.1886 17.3949 19.2735 16.7402 19.6507L16.2464 19.9353C15.5943 20.3111 15.4589 20.3752 15.3389 20.4C15.1995 20.4289 15.0557 20.4277 14.9172 20.3966C14.7978 20.3698 14.6646 20.3037 14.018 19.9165L13.6642 19.7047C13.6091 19.6717 13.568 19.6472 13.5241 19.6228C13.1068 19.3908 12.6401 19.2617 12.1626 19.2463C12.1141 19.2448 12.0661 19.2448 12.0116 19.2448H11.9891C11.9348 19.2448 11.8871 19.2448 11.8386 19.2463C11.3602 19.2617 10.8921 19.3914 10.474 19.6244C10.4323 19.6477 10.3914 19.6723 10.3465 19.6992L9.97806 19.9204C9.32917 20.31 9.19504 20.3766 9.07512 20.4035ZM8.2426 22.3643C8.6617 22.4519 9.09501 22.4488 9.51297 22.355C9.98949 22.2481 10.4179 21.9901 10.9044 21.6971C10.9385 21.6766 10.9728 21.656 11.0075 21.6352L11.3636 21.4214C11.4258 21.384 11.4372 21.3773 11.4478 21.3714C11.5871 21.2937 11.7433 21.2504 11.9029 21.2453C11.9152 21.2449 11.929 21.2448 12.0006 21.2448C12.072 21.2448 12.0861 21.2449 12.0984 21.2453C12.2574 21.2504 12.413 21.2934 12.5523 21.3708C12.5645 21.3776 12.58 21.3866 12.6368 21.4206L12.9906 21.6325C13.0254 21.6533 13.0599 21.674 13.0941 21.6945C13.5782 21.9853 14.0048 22.2415 14.4791 22.348C14.8955 22.4415 15.3268 22.4449 15.7443 22.3585C16.2211 22.2598 16.6527 22.0104 17.1435 21.7268C17.177 21.7074 17.2109 21.6878 17.245 21.6682L17.7388 21.3836C17.7738 21.3634 17.8086 21.3435 17.8431 21.3237C18.3345 21.0413 18.7676 20.7925 19.0922 20.4287C19.3772 20.1094 19.5901 19.7331 19.7174 19.3253C19.8628 18.8594 19.8538 18.3599 19.8435 17.7917C19.8428 17.7528 19.8421 17.7135 19.8414 17.6739L19.8344 17.2569C19.8332 17.1822 19.833 17.1705 19.8332 17.1589C19.8356 16.9992 19.8762 16.8426 19.9514 16.7021C19.9573 16.6912 19.9643 16.6789 20 16.617C20.032 16.5617 20.0418 16.5454 20.0496 16.5328C20.1337 16.3974 20.2487 16.2843 20.3851 16.2026C20.3959 16.1961 20.4088 16.1888 20.4701 16.1546L20.8363 15.9509C20.871 15.9316 20.9054 15.9125 20.9394 15.8936C21.4339 15.6194 21.869 15.3781 22.1985 15.0207C22.487 14.7078 22.706 14.3369 22.8403 13.9323C22.9935 13.4709 22.994 12.9733 22.9946 12.4075C22.9946 12.3687 22.9946 12.3295 22.9947 12.2901L22.996 11.728C22.9961 11.6892 22.9962 11.6508 22.9964 11.6127C22.9983 11.0413 23.0001 10.5401 22.847 10.0748C22.7131 9.66791 22.4937 9.29434 22.2033 8.97924C21.8718 8.61957 21.4336 8.37747 20.9351 8.10201C20.9009 8.08313 20.8665 8.06409 20.8317 8.04485L20.4702 7.84448C20.4077 7.80987 20.3961 7.80332 20.3858 7.79719C20.2486 7.71541 20.133 7.60185 20.0485 7.46567C20.0411 7.45369 20.0318 7.43818 19.9995 7.38234C19.9643 7.32142 19.9575 7.30929 19.9517 7.29856C19.8762 7.15776 19.8355 7.00075 19.8332 6.84075C19.833 6.82946 19.8332 6.81884 19.8344 6.74609L19.8416 6.31967C19.8422 6.28073 19.8429 6.24212 19.8436 6.20382C19.8538 5.63656 19.8628 5.13837 19.7181 4.67334C19.5914 4.26609 19.3792 3.89077 19.0962 3.57224C18.7729 3.20832 18.3421 2.95896 17.8515 2.67505C17.8181 2.65572 17.7844 2.63623 17.7505 2.61653L17.2628 2.3335C17.2286 2.31363 17.1947 2.29389 17.161 2.27431C16.6688 1.98784 16.2359 1.73586 15.7573 1.63588C15.3379 1.54828 14.9051 1.55167 14.4874 1.64538C14.0107 1.75235 13.582 2.01041 13.0949 2.3037C13.0612 2.32401 13.0272 2.3445 12.9928 2.36511L12.6367 2.57889C12.5764 2.61512 12.5634 2.62276 12.5523 2.62894C12.4129 2.70665 12.2571 2.74982 12.0977 2.75494C12.0853 2.75534 12.0708 2.75546 11.9992 2.75546C11.9278 2.75546 11.9137 2.75534 11.9013 2.75495C11.7424 2.74984 11.587 2.70687 11.4476 2.62939C11.4359 2.62283 11.4212 2.61434 11.3632 2.57963L11.0094 2.36777C10.9747 2.347 10.9404 2.32636 10.9063 2.3059C10.422 2.01503 9.99532 1.7588 9.5209 1.6523C9.10464 1.55885 8.67342 1.55532 8.25584 1.64174C7.77856 1.74052 7.34656 1.99015 6.85479 2.27432C6.82173 2.29342 6.7884 2.31268 6.75477 2.33206L6.26107 2.61656C6.22725 2.63605 6.1937 2.65533 6.16042 2.67445C5.66676 2.95813 5.23352 3.20709 4.90826 3.5716C4.62385 3.89033 4.41033 4.26642 4.28279 4.67496C4.13744 5.14058 4.14651 5.63994 4.15682 6.20724C4.15753 6.24666 4.15826 6.2864 4.15893 6.32649L4.16581 6.73401C4.16707 6.8084 4.16717 6.82418 4.16694 6.83753C4.16426 6.99443 4.12466 7.14858 4.05128 7.28751C4.04573 7.29801 4.04019 7.30769 4.00302 7.37264L4.00018 7.37758C3.96221 7.44393 3.9546 7.45695 3.94764 7.4682C3.86369 7.60384 3.74917 7.71696 3.61351 7.79865C3.60236 7.80536 3.58971 7.81252 3.5222 7.85008L3.16386 8.04943C3.12888 8.06889 3.09417 8.08813 3.05975 8.10722C2.5659 8.38112 2.13086 8.62241 1.80154 8.97956C1.51287 9.29263 1.29409 9.66359 1.15985 10.0679C1.00693 10.5286 1.00647 11.0256 1.00594 11.5892C1.0059 11.6292 1.00587 11.6695 1.00577 11.7101L1.0045 12.2722C1.0044 12.3126 1.00426 12.3527 1.00412 12.3924C1.00209 12.9607 1.0003 13.4612 1.153 13.9254C1.28704 14.3328 1.50695 14.7063 1.797 15.021C2.12836 15.3805 2.56654 15.6226 3.06465 15.8979C3.09905 15.9169 3.13374 15.936 3.1687 15.9554L3.53027 16.1558C3.58942 16.1885 3.60307 16.1963 3.61421 16.203C3.75149 16.2848 3.86727 16.3986 3.95171 16.5346C3.9582 16.5451 3.9654 16.5573 4.0004 16.6179C4.0356 16.6788 4.04246 16.6909 4.04821 16.7017C4.12386 16.8427 4.16453 16.9997 4.16689 17.1594C4.16704 17.1697 4.16689 17.1788 4.16589 17.238L4.15844 17.6805C4.1578 17.719 4.15711 17.7572 4.15643 17.795C4.1462 18.3631 4.13723 18.8616 4.28204 19.3269C4.40875 19.7341 4.62085 20.1094 4.90389 20.428C5.22723 20.792 5.65803 21.0413 6.14864 21.3252C6.18202 21.3445 6.21568 21.364 6.24959 21.3837L6.73726 21.6667C6.77172 21.6867 6.80587 21.7066 6.83975 21.7263C7.33148 22.0126 7.76414 22.2644 8.2426 22.3643ZM12.0001 15.0001C10.3432 15.0001 9.0001 13.6569 9.0001 12.0001C9.0001 10.3432 10.3432 9.00009 12.0001 9.00009C13.657 9.00009 15.0001 10.3432 15.0001 12.0001C15.0001 13.6569 13.657 15.0001 12.0001 15.0001ZM7.0001 12.0001C7.0001 14.7615 9.23867 17.0001 12.0001 17.0001C14.7615 17.0001 17.0001 14.7615 17.0001 12.0001C17.0001 9.23867 14.7615 7.00009 12.0001 7.00009C9.23867 7.00009 7.0001 9.23867 7.0001 12.0001Z" fill="#121212"/>
</svg>
