<svg width="24" height="24" viewBox="0 0 24 24" fill="none" xmlns="http://www.w3.org/2000/svg">
<path d="M14.416 3H6.16168C5.63452 2.99998 5.17964 2.99997 4.80499 3.03057C4.40962 3.06286 4.01625 3.13416 3.63781 3.32698C3.07307 3.61473 2.61447 4.07383 2.32698 4.63805C2.13419 5.01642 2.06288 5.40962 2.03057 5.80496C1.99997 6.17949 1.99998 6.63422 2 7.16133V14.9027C2.00003 15.4027 2.00122 15.8358 2.03057 16.195C2.06288 16.5904 2.13419 16.9836 2.32698 17.3619C2.61447 17.9262 3.07307 18.3853 3.63781 18.673C3.7572 18.7339 3.87809 18.7826 4.00005 18.8218C4.26466 18.9069 4.53436 18.9473 4.80499 18.9694C4.91702 18.9786 5.03623 18.985 5.1624 18.9895C5.45815 19 5.79215 19 6.16168 19L6.87745 19C7.33358 19 7.42315 19.0047 7.49965 19.0204C7.58755 19.0385 7.67278 19.0684 7.75334 19.1095C7.82292 19.1451 7.89571 19.1972 8.25174 19.482L9.80983 20.7285C10.1964 21.0378 10.5387 21.3117 10.829 21.5036C11.1124 21.6909 11.5134 21.9189 11.9979 21.9194H12.0021C12.4866 21.9189 12.8877 21.6909 13.171 21.5036C13.2487 21.4523 13.33 21.3951 13.4149 21.3329C13.6476 21.1626 13.907 20.9551 14.1902 20.7285L15.7483 19.482C16.1043 19.1972 16.1771 19.1451 16.2467 19.1095C16.3272 19.0684 16.4125 19.0385 16.5004 19.0204C16.5769 19.0047 16.6664 19 17.1226 19L17.8383 19C18.3656 19 18.8204 19 19.195 18.9694C19.5903 18.9371 19.9835 18.8658 20.3618 18.673C20.9258 18.3856 21.3854 17.927 21.6732 17.362C21.8661 16.9835 21.9373 16.5902 21.9696 16.1949C22 15.8209 22 15.367 22 14.841V9.00037C21.1643 9.62806 20.1256 10 19 10C16.2386 10 14 7.76142 14 5C14 4.2889 14.1484 3.61246 14.416 3Z" fill="#121212"/>
<circle cx="19" cy="5" r="4" fill="#D70015"/>
</svg>
