<svg width="24" height="24" viewBox="0 0 24 24" fill="none" xmlns="http://www.w3.org/2000/svg">
<path fill-rule="evenodd" clip-rule="evenodd" d="M7.68632 3.96457C9.21182 3.23517 10.8974 2.9045 12.5854 3.00348C14.2734 3.10246 15.9087 3.62785 17.3385 4.53054C18.7683 5.43324 19.9459 6.68374 20.7611 8.16516C21.5763 9.64657 22.0025 11.3105 22 13.0014C21.9977 14.4943 21.6613 15.9677 21.0152 17.3136C20.3692 18.6595 19.43 19.8437 18.2667 20.7792C18.089 20.922 17.8679 20.9999 17.64 20.9999H6.35999C6.13205 20.9999 5.91095 20.922 5.73333 20.7792C4.41562 19.7196 3.38814 18.3431 2.74692 16.7785C2.1057 15.2139 1.8717 13.5122 2.06678 11.8326C2.26187 10.153 2.87967 8.55026 3.86243 7.17428C4.8452 5.79829 6.16082 4.69397 7.68632 3.96457ZM16.5547 8.16781C17.0142 8.47416 17.1384 9.09503 16.8321 9.55456L13.2946 14.8607C13.2982 14.8999 13.3 14.9397 13.3 14.9798V15.0798C13.3 15.7978 12.718 16.3798 12 16.3798C11.282 16.3798 10.7 15.7978 10.7 15.0798V14.9798C10.7 14.3847 11.0999 13.883 11.6456 13.7287L15.168 8.44516C15.4743 7.98563 16.0952 7.86146 16.5547 8.16781Z" fill="#121212"/>
</svg>
