<svg width="24" height="24" viewBox="0 0 24 24" fill="none" xmlns="http://www.w3.org/2000/svg">
<path fill-rule="evenodd" clip-rule="evenodd" d="M11.7568 2.03002C11.9182 1.98956 12.0871 1.99001 12.2482 2.0313L19.4247 3.87038C19.8663 3.9806 20.2572 4.23821 20.5327 4.60071C20.8093 4.9646 20.9529 5.41225 20.9396 5.86912C20.9391 5.88532 20.9382 5.90151 20.937 5.91766L20.507 11.4372C20.507 11.4373 20.507 11.437 20.507 11.4372C20.3379 13.6205 19.5746 15.7164 18.2998 17.497C17.025 19.2774 15.2874 20.675 13.2752 21.5386C13.2749 21.5387 13.2746 21.5388 13.2743 21.539L12.3964 21.9181C12.1314 22.0325 11.8298 22.0268 11.5693 21.9025L10.7069 21.4909C8.70228 20.6268 6.9712 19.2321 5.70023 17.457C4.42539 15.6764 3.66209 13.581 3.49302 11.3977L3.06302 5.87766C3.06176 5.86151 3.06089 5.84532 3.06042 5.82912C3.04711 5.37225 3.19068 4.92461 3.46725 4.56071C3.74337 4.19739 4.13543 3.93944 4.57832 3.82964C4.57902 3.82947 4.57972 3.8293 4.58042 3.82912L11.7568 2.03002ZM11.9973 4.03162L5.06073 5.77059L5.48697 11.2423C5.62781 13.0619 6.26395 14.8088 7.32639 16.2927C8.38884 17.7766 9.83711 18.9414 11.5143 19.661C11.5265 19.6663 11.5387 19.6718 11.5507 19.6775L12.0207 19.9018L12.4836 19.7019L12.4857 19.701C14.1629 18.9814 15.6112 17.8166 16.6736 16.3327C17.736 14.8488 18.3721 13.1024 18.513 11.2828L18.9393 5.81059L18.9317 5.80874L11.9973 4.03162Z" fill="#121212"/>
<path fill-rule="evenodd" clip-rule="evenodd" d="M12 7.7C11.6318 7.7 11.3333 8.0134 11.3333 8.4V9.1H12.6667V8.4C12.6667 8.0134 12.3682 7.7 12 7.7ZM13.3333 9.1V8.4C13.3333 7.6268 12.7364 7 12 7C11.2636 7 10.6667 7.6268 10.6667 8.4V9.1L10.3872 9.1C10.2115 9.09999 10.0599 9.09999 9.935 9.1107C9.80321 9.122 9.67208 9.14695 9.54594 9.21444C9.35769 9.31516 9.20482 9.47584 9.10899 9.67332C9.04473 9.80575 9.02096 9.94336 9.01019 10.0817C8.99999 10.2128 8.99999 10.372 9 10.5565V12.5435C8.99999 12.728 8.99999 12.8871 9.01019 13.0183C9.02096 13.1566 9.04473 13.2943 9.10899 13.4267C9.20484 13.6242 9.35772 13.7849 9.54594 13.8855C9.67208 13.953 9.8032 13.978 9.93499 13.9893C10.0599 14 10.2116 14 10.3874 14H13.6128C13.7886 14 13.9402 14 14.065 13.9893C14.1968 13.978 14.3278 13.953 14.4539 13.8855C14.6419 13.785 14.7951 13.6245 14.8911 13.4267C14.9554 13.2942 14.9791 13.1566 14.9898 13.0182C15 12.8873 15 12.7285 15 12.5444V10.5556C15 10.3715 15 10.2126 14.9898 10.0818C14.9791 9.94344 14.9554 9.80579 14.8911 9.67332C14.7951 9.4756 14.642 9.31504 14.4539 9.21444C14.3278 9.14697 14.1968 9.12201 14.065 9.1107C13.9402 9.09999 13.7886 9.09999 13.6129 9.1L13.3333 9.1Z" fill="#121212"/>
</svg>
