<svg width="24" height="24" viewBox="0 0 24 24" fill="none" xmlns="http://www.w3.org/2000/svg">
<path fill-rule="evenodd" clip-rule="evenodd" d="M17.8388 2H6.16168C5.63452 1.99998 5.17964 1.99997 4.80499 2.03057C4.40962 2.06286 4.01625 2.13416 3.63781 2.32698C3.07306 2.61473 2.61447 3.07383 2.32698 3.63805C2.13419 4.01642 2.06287 4.40962 2.03057 4.80496C1.99997 5.1795 1.99998 5.63424 2 6.16137V17.8385C1.99998 18.3656 1.99997 18.8204 2.03057 19.195C2.06287 19.5904 2.13418 19.9836 2.32698 20.362C2.61453 20.9264 3.07317 21.3853 3.63781 21.673C4.01623 21.8658 4.40959 21.9371 4.80496 21.9694C5.1797 22 5.63466 22 6.16197 22H17.8384C18.3656 22 18.8205 22 19.1951 21.9694C19.5904 21.9371 19.9835 21.8657 20.3618 21.673C20.9257 21.3856 21.3854 20.927 21.6732 20.362C21.8661 19.9835 21.9373 19.5902 21.9696 19.1949C22 18.8209 22 18.367 22 17.841V6.1588C22 5.63288 22 5.17898 21.9696 4.80512C21.9373 4.40983 21.8661 4.01654 21.6732 3.63805C21.3854 3.07316 20.9259 2.6144 20.3618 2.32698C19.9835 2.13422 19.5904 2.06288 19.1951 2.03057C18.8206 1.99997 18.3659 1.99998 17.8388 2ZM5 6C4.44772 6 4 6.44772 4 7C4 7.55229 4.44772 8 5 8L13 8C13.5523 8 14 7.55229 14 7C14 6.44772 13.5523 6 13 6L5 6ZM5 11C4.44772 11 4 11.4477 4 12C4 12.5523 4.44772 13 5 13H19C19.5523 13 20 12.5523 20 12C20 11.4477 19.5523 11 19 11H5ZM5 18H13C13.5523 18 14 17.5523 14 17C14 16.4477 13.5523 16 13 16L5 16C4.44772 16 4 16.4477 4 17C4 17.5523 4.44772 18 5 18Z" fill="#121212"/>
</svg>
