<svg width="24" height="24" viewBox="0 0 24 24" fill="none" xmlns="http://www.w3.org/2000/svg">
<path fill-rule="evenodd" clip-rule="evenodd" d="M14.9996 2H6.16168C5.63454 1.99998 5.17963 1.99997 4.80499 2.03057C4.40962 2.06286 4.01625 2.13416 3.63781 2.32698C3.07307 2.61474 2.61447 3.07383 2.32698 3.63805C2.13419 4.01642 2.06288 4.40962 2.03057 4.80496C1.99997 5.1795 1.99998 5.63422 2 6.16133V17.8385C1.99998 18.3656 1.99997 18.8204 2.03057 19.195C2.06287 19.5904 2.13418 19.9836 2.32698 20.362C2.61453 20.9264 3.07317 21.3853 3.63781 21.673C4.01623 21.8658 4.40959 21.9371 4.80496 21.9694C5.1797 22 5.63464 22 6.16194 22H17.8384C18.3656 22 18.8205 22 19.1951 21.9694C19.5904 21.9371 19.9835 21.8657 20.3618 21.673C20.9257 21.3856 21.3854 20.927 21.6732 20.362C21.8661 19.9835 21.9373 19.5902 21.9696 19.1949C22 18.8209 22 18.367 22 17.841V9.00037C21.1643 9.62806 20.1256 10 19 10C16.2386 10 14 7.76142 14 5C14 3.87439 14.3719 2.83566 14.9996 2ZM4 6C4 4.89543 4.89543 4 6 4C7.10457 4 8 4.89543 8 6C8 7.10457 7.10457 8 6 8C4.89543 8 4 7.10457 4 6ZM10 6C10 4.89543 10.8954 4 12 4C13.1046 4 14 4.89543 14 6C14 7.10457 13.1046 8 12 8C10.8954 8 10 7.10457 10 6ZM4 12C4 10.8954 4.89543 10 6 10C7.10457 10 8 10.8954 8 12C8 13.1046 7.10457 14 6 14C4.89543 14 4 13.1046 4 12ZM10 12C10 10.8954 10.8954 10 12 10C13.1046 10 14 10.8954 14 12C14 13.1046 13.1046 14 12 14C10.8954 14 10 13.1046 10 12ZM16 12C16 10.8954 16.8954 10 18 10C19.1046 10 20 10.8954 20 12C20 13.1046 19.1046 14 18 14C16.8954 14 16 13.1046 16 12ZM4 18C4 16.8954 4.89543 16 6 16C7.10457 16 8 16.8954 8 18C8 19.1046 7.10457 20 6 20C4.89543 20 4 19.1046 4 18ZM10 18C10 16.8954 10.8954 16 12 16C13.1046 16 14 16.8954 14 18C14 19.1046 13.1046 20 12 20C10.8954 20 10 19.1046 10 18ZM16 18C16 16.8954 16.8954 16 18 16C19.1046 16 20 16.8954 20 18C20 19.1046 19.1046 20 18 20C16.8954 20 16 19.1046 16 18Z" fill="#121212"/>
<circle cx="19" cy="5" r="4" fill="#D70015"/>
</svg>
