<svg width="24" height="24" viewBox="0 0 24 24" fill="none" xmlns="http://www.w3.org/2000/svg">
<path d="M11.3333 8.4C11.3333 8.0134 11.6318 7.7 12 7.7C12.3682 7.7 12.6667 8.0134 12.6667 8.4V9.1H11.3333V8.4Z" fill="#121212"/>
<path fill-rule="evenodd" clip-rule="evenodd" d="M12.2482 2.0313C12.0871 1.99001 11.9182 1.98956 11.7568 2.03002L4.58042 3.82912L4.57832 3.82964C4.13543 3.93944 3.74337 4.19739 3.46725 4.56071C3.19068 4.92461 3.04711 5.37225 3.06042 5.82912C3.06089 5.84532 3.06176 5.86151 3.06302 5.87766L3.49302 11.3977C3.66209 13.581 4.42539 15.6764 5.70023 17.457C6.9712 19.2321 8.70228 20.6268 10.7069 21.4909L11.5693 21.9025C11.8298 22.0268 12.1314 22.0325 12.3964 21.9181L13.2743 21.539L13.2752 21.5386C15.2874 20.675 17.025 19.2774 18.2998 17.497C19.5746 15.7164 20.3379 13.6205 20.507 11.4372L20.937 5.91766C20.9382 5.90151 20.9391 5.88532 20.9396 5.86912C20.9529 5.41225 20.8093 4.9646 20.5327 4.60071C20.2572 4.23821 19.8663 3.9806 19.4247 3.87038L12.2482 2.0313ZM13.3333 8.4V9.1L13.6129 9.1C13.7886 9.09999 13.9402 9.09999 14.065 9.1107C14.1968 9.12201 14.3278 9.14697 14.4539 9.21444C14.6419 9.31504 14.7951 9.4756 14.8911 9.67332C14.9554 9.80579 14.9791 9.94344 14.9898 10.0818C15 10.2126 15 10.3715 15 10.5555V12.5444C15 12.7285 15 12.8873 14.9898 13.0182C14.9791 13.1566 14.9554 13.2942 14.8911 13.4267C14.7951 13.6245 14.6419 13.785 14.4539 13.8855C14.3278 13.953 14.1968 13.978 14.065 13.9893C13.9402 14 13.7886 14 13.6128 14H10.3874C10.2116 14 10.0599 14 9.93499 13.9893C9.8032 13.978 9.67208 13.953 9.54594 13.8855C9.35772 13.7849 9.20484 13.6242 9.10899 13.4267C9.04473 13.2943 9.02096 13.1566 9.01019 13.0183C8.99999 12.8871 8.99999 12.728 9 12.5435V10.5565C8.99999 10.372 8.99999 10.2128 9.01019 10.0817C9.02096 9.94336 9.04473 9.80575 9.10899 9.67332C9.20482 9.47584 9.35769 9.31516 9.54594 9.21444C9.67208 9.14695 9.80321 9.122 9.935 9.1107C10.0599 9.09999 10.2115 9.09999 10.3872 9.1L10.6667 9.1V8.4C10.6667 7.6268 11.2636 7 12 7C12.7364 7 13.3333 7.6268 13.3333 8.4Z" fill="#121212"/>
</svg>
