<svg width="24" height="24" viewBox="0 0 24 24" fill="none" xmlns="http://www.w3.org/2000/svg">
<path d="M20.7414 9.6884C20.8075 9.83696 20.8614 9.9909 20.9027 10.1487C21.001 10.5251 21.0006 10.9164 21.0002 11.3601L21.0001 17.0302C21.0001 17.4695 21.0001 17.8485 20.9787 18.1621C20.9562 18.492 20.9066 18.8218 20.7717 19.1476C20.4672 19.8826 19.8834 20.4667 19.1482 20.7712C18.8223 20.9062 18.4925 20.9557 18.1626 20.9783C17.8494 20.9996 17.471 20.9996 17.0323 20.9996H16.9684C16.5297 20.9996 16.1512 20.9996 15.838 20.9783C15.5081 20.9558 15.1782 20.9062 14.8523 20.7712C14.1174 20.4668 13.533 19.8829 13.2285 19.1476C13.0935 18.8217 13.044 18.4918 13.0215 18.162C13.0001 17.8487 13.0001 17.4703 13.0001 17.0316V15.9996C13.0001 15.4473 12.5524 14.9996 12.0001 14.9996C11.4478 14.9996 11.0001 15.4473 11.0001 15.9996L11.0001 17.0301C11.0001 17.4694 11.0001 17.8484 10.9787 18.1621C10.9562 18.4919 10.9066 18.8218 10.7717 19.1476C10.4672 19.8826 9.88337 20.4667 9.14817 20.7712C8.82228 20.9062 8.49245 20.9557 8.16263 20.9783C7.84942 20.9996 7.47098 20.9996 7.03234 20.9996H6.96836C6.52971 20.9996 6.15123 20.9996 5.83797 20.9783C5.50814 20.9558 5.17823 20.9062 4.8523 20.7712C4.11741 20.4668 3.53304 19.8829 3.22848 19.1476C3.09348 18.8217 3.04398 18.4918 3.02147 18.162C3.0001 17.8488 3.00011 17.4703 3.00012 17.0317L3.00006 11.3605C2.99961 10.9165 2.99922 10.5252 3.09758 10.1487C3.1839 9.81839 3.326 9.50497 3.51796 9.22219C3.7364 8.90041 4.03107 8.6431 4.3652 8.35134L9.26201 4.06671C9.61209 3.76037 9.9164 3.49408 10.1863 3.29221C10.4733 3.07753 10.7802 2.88949 11.1492 2.78039C11.7044 2.61617 12.2958 2.61617 12.8511 2.78039C13.22 2.88947 13.5269 3.07747 13.8139 3.29215C13.9349 3.38261 14.0628 3.48601 14.1986 3.60014C14.0693 4.04434 14 4.51407 14 5C14 5.41592 14.0508 5.81997 14.1465 6.2063L13.449 5.59604C13.0642 5.25931 12.8175 5.04436 12.6162 4.89386C12.425 4.75086 12.3352 4.71344 12.2839 4.69828C12.0988 4.64354 11.9014 4.64354 11.7163 4.69828C11.6651 4.71342 11.5754 4.7508 11.3842 4.89381C11.1829 5.04432 10.9363 5.25926 10.5514 5.59604L5.7514 9.79604C5.30974 10.1825 5.22799 10.264 5.17271 10.3455C5.10885 10.4396 5.06144 10.544 5.03261 10.6544C5.00771 10.7497 5.00012 10.865 5.00012 11.4517V16.9997C5.00012 17.4793 5.00066 17.7889 5.01683 18.0259C5.03239 18.2538 5.059 18.3406 5.07624 18.3823C5.17766 18.6271 5.37245 18.8219 5.61767 18.9235C5.65928 18.9407 5.74611 18.9673 5.97411 18.9829C6.21109 18.9991 6.52073 18.9996 7.00035 18.9996C7.47998 18.9996 7.78955 18.9991 8.02646 18.9829C8.25436 18.9673 8.34116 18.9407 8.3828 18.9235C8.62772 18.822 8.82236 18.6274 8.9239 18.3823C8.94116 18.3406 8.96779 18.2537 8.98337 18.0257C8.99955 17.7888 9.00012 17.4792 9.00012 16.9996V15.9996C9.00012 14.3427 10.3433 12.9996 12.0001 12.9996C13.657 12.9996 15.0001 14.3427 15.0001 15.9996V16.9996C15.0001 17.4792 15.0007 17.7888 15.0168 18.0258C15.0324 18.2538 15.059 18.3407 15.0762 18.3823C15.1777 18.6271 15.3724 18.8219 15.6177 18.9235C15.6593 18.9407 15.7461 18.9673 15.9741 18.9829C16.2111 18.9991 16.5207 18.9996 17.0004 18.9996C17.48 18.9996 17.7895 18.9991 18.0265 18.9829C18.2544 18.9673 18.3412 18.9407 18.3828 18.9235C18.6277 18.822 18.8224 18.6274 18.9239 18.3823C18.9412 18.3406 18.9678 18.2537 18.9834 18.0258C18.9996 17.7889 19.0001 17.4792 19.0001 16.9997V11.4517C19.0001 10.8649 18.9926 10.7496 18.9677 10.6544C18.9389 10.5442 18.8914 10.4397 18.8275 10.3455C18.7817 10.278 18.7177 10.2103 18.4464 9.9697C18.6282 9.98972 18.8129 10 19 10C19.6124 10 20.1991 9.88989 20.7414 9.6884Z" fill="#121212"/>
<circle cx="19" cy="5" r="4" fill="#D70015"/>
</svg>
