<svg width="24" height="24" viewBox="0 0 24 24" fill="none" xmlns="http://www.w3.org/2000/svg">
<path d="M16.832 9.55461C17.1384 9.09508 17.0142 8.47421 16.5547 8.16786C16.0952 7.86151 15.4743 7.98568 15.1679 8.44521L11.6456 13.7288C11.0999 13.883 10.7 14.3848 10.7 14.9799V15.0799C10.7 15.7978 11.282 16.3799 12 16.3799C12.718 16.3799 13.3 15.7978 13.3 15.0799V14.9799C13.3 14.9397 13.2982 14.9 13.2946 14.8607L16.832 9.55461Z" fill="#121212"/>
<path fill-rule="evenodd" clip-rule="evenodd" d="M12.5854 3.00348C10.8974 2.9045 9.21182 3.23517 7.68632 3.96457C6.16082 4.69397 4.8452 5.79829 3.86243 7.17428C2.87967 8.55026 2.26187 10.153 2.06678 11.8326C1.8717 13.5122 2.1057 15.2139 2.74692 16.7785C3.38814 18.3431 4.41562 19.7196 5.73333 20.7792C5.91095 20.922 6.13205 20.9999 6.35999 20.9999H17.64C17.8679 20.9999 18.089 20.922 18.2667 20.7792C19.43 19.8437 20.3692 18.6595 21.0152 17.3136C21.6613 15.9677 21.9977 14.4943 22 13.0014C22.0025 11.3105 21.5763 9.64657 20.7611 8.16516C19.9459 6.68374 18.7683 5.43324 17.3385 4.53054C15.9087 3.62785 14.2734 3.10246 12.5854 3.00348ZM8.54906 5.76892C9.76945 5.1854 11.1179 4.92086 12.4683 5.00005C13.8187 5.07923 15.127 5.49955 16.2708 6.2217C17.4146 6.94385 18.3567 7.94426 19.0089 9.12939C19.661 10.3145 20.002 11.6457 20 12.9984C19.9982 14.1927 19.729 15.3715 19.2122 16.4482C18.7449 17.4216 18.086 18.2893 17.2761 18.9999H6.72394C5.79552 18.1854 5.06708 17.1658 4.59753 16.0201C4.08456 14.7684 3.89736 13.407 4.05343 12.0633C4.20949 10.7197 4.70374 9.43748 5.48995 8.33669C6.27616 7.2359 7.32866 6.35245 8.54906 5.76892Z" fill="#121212"/>
</svg>
