<svg width="24" height="24" viewBox="0 0 24 24" fill="none" xmlns="http://www.w3.org/2000/svg">
<path fill-rule="evenodd" clip-rule="evenodd" d="M6.4443 3.6853C8.08879 2.58649 10.0222 2 12 2C14.6522 2 17.1957 3.05357 19.0711 4.92893C20.9464 6.8043 22 9.34784 22 12C22 13.9778 21.4135 15.9112 20.3147 17.5557C19.2159 19.2002 17.6541 20.4819 15.8268 21.2388C13.9996 21.9957 11.9889 22.1937 10.0491 21.8079C8.10929 21.422 6.32746 20.4696 4.92894 19.0711C3.53041 17.6725 2.578 15.8907 2.19215 13.9509C1.8063 12.0111 2.00433 10.0004 2.76121 8.17317C3.51809 6.3459 4.79981 4.78412 6.4443 3.6853ZM9.5 10.5C9.5 9.11929 10.6193 8 12 8C13.3807 8 14.5 9.11929 14.5 10.5C14.5 11.4241 13.9991 12.2324 13.2493 12.6662L12.75 12.955V15.75C12.75 16.1642 12.4142 16.5 12 16.5C11.5858 16.5 11.25 16.1642 11.25 15.75V12.955L10.7507 12.6662C10.0009 12.2324 9.5 11.4241 9.5 10.5ZM12 6C9.51472 6 7.5 8.01472 7.5 10.5C7.5 11.9507 8.18688 13.2401 9.25 14.0621V15.75C9.25 17.2688 10.4812 18.5 12 18.5C13.5188 18.5 14.75 17.2688 14.75 15.75V14.0621C15.8131 13.2401 16.5 11.9507 16.5 10.5C16.5 8.01472 14.4853 6 12 6Z" fill="#121212"/>
</svg>
