<svg width="24" height="24" viewBox="0 0 24 24" fill="none" xmlns="http://www.w3.org/2000/svg">
<path d="M14 2.11657V5.8C14 6.37656 14.0008 6.74883 14.0239 7.03216C14.0461 7.30382 14.0838 7.40453 14.109 7.45398C14.205 7.64236 14.3578 7.79522 14.5458 7.89098C14.5952 7.91615 14.696 7.95385 14.9678 7.97606C15.2513 7.99922 15.6237 8 16.2002 8H19.883L19.9167 8.12807C19.8433 7.8224 19.7224 7.52974 19.5577 7.26094C19.3699 6.95447 19.1158 6.70083 18.8258 6.41132L15.586 3.17143C15.2984 2.88331 15.0449 2.62937 14.7393 2.4421C14.5086 2.30071 14.2599 2.19122 14 2.11657Z" fill="#121212"/>
<path d="M12 2H8.16168C7.63452 1.99998 7.17964 1.99997 6.80499 2.03057C6.40962 2.06286 6.01625 2.13416 5.63781 2.32698C5.07306 2.61473 4.61447 3.07383 4.32698 3.63805C4.13419 4.01643 4.06287 4.40965 4.03057 4.80499C3.99997 5.17955 3.99998 5.6343 4 6.16143V17.8386C3.99998 18.3657 3.99997 18.8205 4.03057 19.195C4.06287 19.5904 4.13419 19.9836 4.32698 20.362C4.61449 20.9262 5.07311 21.3853 5.63781 21.673C6.01623 21.8658 6.40959 21.9371 6.80496 21.9694C7.1797 22 7.63466 22 8.16197 22H15.8384C16.3656 22 16.8205 22 17.1951 21.9694C17.5904 21.9371 17.9835 21.8657 18.3618 21.673C18.9258 21.3856 19.3854 20.9269 19.6732 20.362C19.8661 19.9835 19.9373 19.5902 19.9696 19.1949C20 18.821 20 18.3672 20 17.8413L20 9.3255L19.9999 9.9999L16.162 10C15.6347 10 15.1797 10 14.805 9.96942C14.4096 9.93712 14.0162 9.86581 13.6378 9.67299C13.0731 9.38526 12.6145 8.92623 12.327 8.36196C12.1342 7.98358 12.0629 7.59037 12.0306 7.19502C12 6.82047 12 6.36572 12 5.83859V2Z" fill="#121212"/>
</svg>
