<svg width="24" height="24" viewBox="0 0 24 24" fill="none" xmlns="http://www.w3.org/2000/svg">
<path d="M20.741 9.68853C20.1989 9.88994 19.6123 10 19 10C16.2386 10 14 7.76142 14 5C14 4.51436 14.0692 4.04489 14.1984 3.60093C14.0627 3.48687 13.9349 3.38354 13.8139 3.29312C13.5269 3.07845 13.22 2.89045 12.8511 2.78136C12.2958 2.61715 11.7044 2.61715 11.1492 2.78136C10.7802 2.89047 10.4733 3.07851 10.1863 3.29318C9.9164 3.49506 9.6121 3.76134 9.26202 4.06768L4.3652 8.35232C4.03107 8.64408 3.7364 8.90138 3.51796 9.22317C3.326 9.50595 3.1839 9.81937 3.09758 10.1497C2.99922 10.5262 2.99961 10.9175 3.00006 11.3614L3.00012 17.0326C3.00011 17.4713 3.0001 17.8498 3.02147 18.163C3.04398 18.4928 3.09348 18.8227 3.22848 19.1486C3.53304 19.8839 4.11741 20.4678 4.8523 20.7722C5.17823 20.9072 5.50814 20.9567 5.83797 20.9792C6.15123 21.0006 6.52971 21.0006 6.96836 21.0006H7.03234C7.47098 21.0006 7.84942 21.0006 8.16263 20.9792C8.49245 20.9567 8.82228 20.9072 9.14817 20.7722C9.88337 20.4677 10.4672 19.8836 10.7717 19.1486C10.9066 18.8228 10.9562 18.4929 10.9787 18.163C11.0001 17.8494 11.0001 17.4704 11.0001 17.0311L11.0001 16.0006C11.0001 15.4483 11.4478 15.0006 12.0001 15.0006C12.5524 15.0006 13.0001 15.4483 13.0001 16.0006V17.0326C13.0001 17.4712 13.0001 17.8497 13.0215 18.1629C13.044 18.4928 13.0935 18.8227 13.2285 19.1486C13.533 19.8839 14.1174 20.4678 14.8523 20.7722C15.1782 20.9072 15.5081 20.9567 15.838 20.9792C16.1512 21.0006 16.5297 21.0006 16.9684 21.0006H17.0323C17.471 21.0006 17.8494 21.0006 18.1626 20.9792C18.4925 20.9567 18.8223 20.9072 19.1482 20.7722C19.8834 20.4677 20.4672 19.8836 20.7717 19.1486C20.9066 18.8228 20.9562 18.4929 20.9787 18.1631C21.0001 17.8495 21.0001 17.4705 21.0001 17.0312L21.0002 11.3611C21.0006 10.9173 21.001 10.5261 20.9027 10.1497C20.8614 9.99158 20.8073 9.83736 20.741 9.68853Z" fill="#121212"/>
<circle cx="19" cy="5" r="4" fill="#D70015"/>
</svg>
