<svg width="24" height="24" viewBox="0 0 24 24" fill="none" xmlns="http://www.w3.org/2000/svg">
<path d="M9 12C9 13.6568 10.3431 15 12 15C13.6569 15 15 13.6568 15 12C15 10.3431 13.6569 8.99996 12 8.99996C10.3431 8.99996 9 10.3431 9 12Z" fill="#121212"/>
<path fill-rule="evenodd" clip-rule="evenodd" d="M9.51297 22.3549C9.09501 22.4487 8.6617 22.4518 8.2426 22.3643C7.76414 22.2644 7.33148 22.0125 6.83975 21.7263L6.14864 21.3252C5.65803 21.0412 5.22723 20.7919 4.90389 20.428C4.62085 20.1094 4.40875 19.734 4.28204 19.3269C4.13723 18.8615 4.1462 18.3631 4.15643 17.795L4.16589 17.2379C4.16689 17.1789 4.16704 17.1696 4.16689 17.1593C4.16453 16.9997 4.12386 16.8427 4.04821 16.7016C4.04246 16.6909 4.0356 16.6788 4.0004 16.6178C3.9654 16.5572 3.9582 16.545 3.95171 16.5346C3.86727 16.3985 3.75149 16.2848 3.61421 16.2029C3.60307 16.1963 3.58942 16.1885 3.53027 16.1557L3.06465 15.8978C2.56654 15.6226 2.12836 15.3805 1.797 15.021C1.50695 14.7063 1.28704 14.3328 1.153 13.9254C1.0003 13.4612 1.00209 12.9606 1.00412 12.3923L1.00594 11.5892C1.00647 11.0256 1.00693 10.5285 1.15985 10.0679C1.29409 9.66354 1.51287 9.29259 1.80154 8.97952C2.13086 8.62236 2.5659 8.38108 3.05975 8.10718L3.5222 7.85004C3.58971 7.81248 3.60236 7.80532 3.61351 7.79861C3.74917 7.71692 3.86369 7.60379 3.94764 7.46816C3.9546 7.45691 3.96221 7.44388 4.00018 7.37754L4.00302 7.37259C4.04017 7.30768 4.04573 7.29797 4.05128 7.28747C4.12466 7.14854 4.16426 6.99439 4.16694 6.83749C4.16717 6.82414 4.16707 6.80835 4.16581 6.73397L4.15682 6.2072C4.14651 5.6399 4.13744 5.14054 4.28279 4.67492C4.41033 4.26638 4.62385 3.89029 4.90826 3.57156C5.23352 3.20705 5.66676 2.95809 6.16042 2.67441L6.85479 2.27428C7.34656 1.99011 7.77856 1.74048 8.25584 1.6417C8.67342 1.55527 9.10464 1.55881 9.5209 1.65225C9.99532 1.75875 10.422 2.01498 10.9063 2.30584L11.3632 2.57959C11.4212 2.61429 11.4359 2.62279 11.4476 2.62935C11.587 2.70682 11.7424 2.7498 11.9013 2.7549C11.9137 2.7553 11.9278 2.75542 11.9992 2.75542C12.0708 2.75542 12.0853 2.7553 12.0977 2.7549C12.2571 2.74977 12.4129 2.7066 12.5523 2.6289C12.5634 2.62272 12.5764 2.61507 12.6367 2.57884L13.0949 2.30365C13.582 2.01037 14.0107 1.7523 14.4874 1.64533C14.9051 1.55163 15.3379 1.54823 15.7573 1.63584C16.2359 1.73582 16.6688 1.98779 17.161 2.27427L17.8515 2.67501C18.3421 2.95892 18.7729 3.20827 19.0962 3.57219C19.3792 3.89073 19.5914 4.26605 19.7181 4.6733C19.8628 5.13832 19.8538 5.63652 19.8436 6.20378L19.8344 6.74604C19.8332 6.81879 19.833 6.82942 19.8332 6.84071C19.8355 7.00071 19.8762 7.15772 19.9517 7.29852C19.9575 7.30924 19.9643 7.32138 19.9995 7.3823C20.0318 7.43814 20.0411 7.45365 20.0485 7.46563C20.133 7.60181 20.2486 7.71537 20.3858 7.79714C20.3961 7.80327 20.4077 7.80983 20.4702 7.84444L20.9351 8.10196C21.4336 8.37743 21.8718 8.61953 22.2033 8.97919C22.4937 9.29429 22.7131 9.66787 22.847 10.0748C23.0001 10.54 22.9983 11.0413 22.9964 11.6127L22.9946 12.4075C22.994 12.9732 22.9935 13.4709 22.8403 13.9323C22.706 14.3369 22.487 14.7078 22.1985 15.0207C21.869 15.378 21.4339 15.6193 20.9394 15.8936L20.4701 16.1546C20.4088 16.1887 20.3959 16.196 20.3851 16.2025C20.2487 16.2842 20.1337 16.3974 20.0496 16.5327C20.0418 16.5454 20.032 16.5616 20 16.617C19.9643 16.6788 19.9573 16.6912 19.9514 16.702C19.8762 16.8426 19.8356 16.9992 19.8332 17.1589C19.833 17.1705 19.8332 17.1821 19.8344 17.2569L19.8435 17.7916C19.8538 18.3598 19.8628 18.8594 19.7174 19.3253C19.5901 19.733 19.3772 20.1093 19.0922 20.4287C18.7676 20.7924 18.3345 21.0413 17.8431 21.3236L17.1435 21.7267C16.6527 22.0104 16.2211 22.2597 15.7443 22.3584C15.3268 22.4448 14.8955 22.4414 14.4791 22.348C14.0048 22.2415 13.5782 21.9852 13.0941 21.6945L12.6368 21.4206C12.58 21.3866 12.5645 21.3776 12.5523 21.3708C12.413 21.2934 12.2574 21.2504 12.0984 21.2453C12.0861 21.2449 12.072 21.2447 12.0006 21.2447C11.929 21.2447 11.9152 21.2449 11.9029 21.2453C11.7433 21.2504 11.5871 21.2937 11.4478 21.3713C11.4372 21.3772 11.4258 21.384 11.3636 21.4213L10.9044 21.6971C10.4179 21.99 9.98949 22.248 9.51297 22.3549ZM12 17C9.23857 17 7 14.7614 7 12C7 9.23853 9.23857 6.99996 12 6.99996C14.7614 6.99996 17 9.23853 17 12C17 14.7614 14.7614 17 12 17Z" fill="#121212"/>
</svg>
