<svg width="24" height="24" viewBox="0 0 24 24" fill="none" xmlns="http://www.w3.org/2000/svg">
<path d="M20.1778 2.63374C19.746 2.47523 19.3178 2.53335 18.9992 2.60033C18.6803 2.66739 18.2919 2.7869 17.8594 2.92002L4.47808 7.03736C3.92 7.20905 3.43823 7.35726 3.07465 7.50509C2.73547 7.64299 2.26454 7.86575 1.98338 8.31575C1.64079 8.86406 1.58415 9.54452 1.83212 10.1421C2.03549 10.6323 2.46341 10.9294 2.77529 11.1212C3.10952 11.3267 3.56022 11.552 4.08229 11.813L8.54973 14.0467L10.0386 12.5579L10.0332 12.5525L14.4466 8.13908C14.8372 7.74856 15.4703 7.74856 15.8608 8.13908C16.2514 8.52961 16.2514 9.16277 15.8608 9.5533L13.9099 11.5043C13.8847 11.5365 13.8573 11.5676 13.8276 11.5972L9.96031 15.4646L12.1844 19.9127C12.4465 20.4369 12.6727 20.8894 12.879 21.2247C13.071 21.5367 13.3682 21.9643 13.8581 22.1676C14.4555 22.4155 15.1356 22.3591 15.6841 22.0164C16.1341 21.7353 16.3568 21.2644 16.4947 20.9252C16.6426 20.5617 16.7908 20.0799 16.9625 19.5218L21.0801 6.13949C21.2131 5.70747 21.3325 5.31937 21.3995 5.00073C21.4665 4.6822 21.5248 4.25387 21.3662 3.82197C21.1637 3.27026 20.7287 2.836 20.1778 2.63374Z" fill="#121212"/>
</svg>
