<svg width="24" height="24" viewBox="0 0 24 24" fill="none" xmlns="http://www.w3.org/2000/svg">
<path fill-rule="evenodd" clip-rule="evenodd" d="M12 2C10.0222 2 8.08879 2.58649 6.4443 3.6853C4.79981 4.78412 3.51809 6.3459 2.76121 8.17317C2.00433 10.0004 1.8063 12.0111 2.19215 13.9509C2.578 15.8907 3.53041 17.6725 4.92894 19.0711C6.32746 20.4696 8.10929 21.422 10.0491 21.8079C11.9889 22.1937 13.9996 21.9957 15.8268 21.2388C17.6541 20.4819 19.2159 19.2002 20.3147 17.5557C21.4135 15.9112 22 13.9778 22 12C22 9.34784 20.9464 6.8043 19.0711 4.92893C17.1957 3.05357 14.6522 2 12 2ZM16 9C16 7.86209 15.4102 7.0091 14.6172 6.48045C13.8539 5.97156 12.8983 5.75 12 5.75C11.1017 5.75 10.1461 5.97156 9.3828 6.48045C8.58982 7.0091 8 7.86209 8 9C8 9.55228 8.44772 10 9 10C9.55228 10 10 9.55228 10 9C10 8.63791 10.1602 8.3659 10.4922 8.14455C10.8539 7.90344 11.3983 7.75 12 7.75C12.6017 7.75 13.1461 7.90344 13.5078 8.14455C13.8398 8.3659 14 8.63791 14 9C14 9.57136 13.862 9.8419 13.7437 9.99307C13.6062 10.1688 13.4011 10.3064 13.0528 10.4806C13.0058 10.5041 12.951 10.5303 12.8904 10.5593C12.594 10.7012 12.1595 10.9091 11.8286 11.1849C11.3328 11.5981 11 12.1862 11 13C11 13.5523 11.4477 14 12 14C12.5523 14 13 13.5523 13 13C13 12.8138 13.0422 12.7769 13.1089 12.7213C13.2315 12.6192 13.3753 12.5492 13.6383 12.4213C13.7266 12.3784 13.8283 12.3289 13.9472 12.2694C14.3489 12.0686 14.8938 11.7687 15.3188 11.2257C15.7629 10.6581 16 9.92864 16 9ZM11.95 15.7C11.232 15.7 10.65 16.282 10.65 17C10.65 17.718 11.232 18.3 11.95 18.3H12.05C12.768 18.3 13.35 17.718 13.35 17C13.35 16.282 12.768 15.7 12.05 15.7H11.95Z" fill="#121212"/>
</svg>
