<svg width="24" height="24" viewBox="0 0 24 24" fill="none" xmlns="http://www.w3.org/2000/svg">
<path d="M22.125 8.90339C22.1499 8.92812 22.1743 8.95339 22.1982 8.97928C22.4867 9.29216 22.7057 9.66307 22.84 10.0677C22.9932 10.5291 22.9937 11.0267 22.9943 11.5925L22.9961 12.3873C22.9981 12.9587 22.9998 13.4599 22.8467 13.9252C22.7129 14.3321 22.4934 14.7057 22.203 15.0208C21.8715 15.3804 21.4334 15.6225 20.9348 15.898L20.4699 16.1555C20.4075 16.1901 20.3958 16.1967 20.3855 16.2028C20.2484 16.2846 20.1328 16.3981 20.0483 16.5343C20.0408 16.5463 20.0315 16.5618 19.9993 16.6177C19.9641 16.6786 19.9572 16.6907 19.9515 16.7014C19.876 16.8422 19.8353 16.9992 19.8329 17.1592C19.8328 17.1705 19.8329 17.1812 19.8342 17.2539L19.8434 17.7962C19.8536 18.3634 19.8626 18.8616 19.7179 19.3267C19.5911 19.7339 19.379 20.1092 19.096 20.4278C18.7727 20.7917 18.3418 21.041 17.8513 21.3249L17.1608 21.7257C16.6686 22.0122 16.2357 22.2641 15.757 22.3641C15.3376 22.4517 14.9048 22.4483 14.4872 22.3546C14.0104 22.2477 13.5818 21.9896 13.0947 21.6963L12.6365 21.4211C12.5762 21.3849 12.5631 21.3772 12.552 21.3711C12.4126 21.2934 12.2569 21.2502 12.0974 21.2451C12.0851 21.2447 12.0706 21.2445 11.9989 21.2445C11.9275 21.2445 11.9134 21.2447 11.901 21.2451C11.7422 21.2502 11.5867 21.2931 11.4474 21.3706C11.4356 21.3772 11.421 21.3857 11.363 21.4204L10.9061 21.6941C10.4217 21.985 9.99507 22.2412 9.52065 22.3477C9.1044 22.4411 8.67318 22.4447 8.25559 22.3583C7.77831 22.2595 7.34631 22.0098 6.85455 21.7257L6.16017 21.3255C5.66651 21.0419 5.23327 20.7929 4.90801 20.4284C4.62361 20.1097 4.41009 19.7336 4.28255 19.325C4.13719 18.8594 4.14627 18.3601 4.15657 17.7928L4.16557 17.266C4.16682 17.1916 4.16692 17.1758 4.1667 17.1625C4.16402 17.0056 4.12441 16.8514 4.05103 16.7125C4.04549 16.702 4.03995 16.6923 4.00279 16.6274L3.99994 16.6224C3.96196 16.5561 3.95435 16.543 3.94739 16.5318C3.86344 16.3962 3.74892 16.283 3.61326 16.2013C3.60211 16.1946 3.58947 16.1875 3.52195 16.1499L3.05951 15.8928C2.56566 15.6189 2.13062 15.3776 1.8013 15.0204C1.51263 14.7074 1.29384 14.3364 1.15961 13.9321C1.00669 13.4714 1.00622 12.9744 1.0057 12.4108L1.00387 11.6076C1.00184 11.0393 1.00005 10.5388 1.15276 10.0746C1.28679 9.6672 1.5067 9.29369 1.79676 8.97898C2.12811 8.61946 2.5663 8.37736 3.0644 8.10215L3.53002 7.84423C3.58918 7.81145 3.60282 7.80367 3.61397 7.79702C3.75124 7.71516 3.86703 7.60142 3.95147 7.46537C3.95796 7.45492 3.96515 7.44271 4.00015 7.38213C4.03536 7.32118 4.04222 7.30908 4.04797 7.29835C4.12362 7.15727 4.16428 7.0003 4.16665 6.84061C4.1668 6.83036 4.16664 6.82122 4.16565 6.76219L4.15618 6.20496C4.14596 5.63686 4.13698 5.13844 4.28179 4.6731C4.40851 4.26592 4.6206 3.89057 4.90365 3.57198C5.22699 3.20805 5.65779 2.95872 6.1484 2.67478L6.8395 2.27367C7.33124 1.98744 7.7639 1.73559 8.24235 1.63566C8.66145 1.54812 9.09477 1.55124 9.51272 1.64502C9.98924 1.75193 10.4177 2.00991 10.9042 2.30286L11.3633 2.57861C11.4256 2.61599 11.4369 2.62271 11.4476 2.62862C11.5869 2.70627 11.7431 2.74957 11.9026 2.7547C11.915 2.7551 11.9287 2.75521 12.0003 2.75521C12.0718 2.75521 12.0858 2.75509 12.0982 2.7547C12.2572 2.74959 12.4128 2.70658 12.552 2.62916C12.5642 2.62237 12.5798 2.61339 12.6365 2.5794L13.0938 2.30547C13.5779 2.01472 14.0046 1.75849 14.4789 1.652C14.7642 1.58797 15.0564 1.5662 15.3464 1.58661C14.7193 2.25758 14.2748 3.10144 14.0923 4.03892C14.0682 4.05327 14.0434 4.06811 14.0178 4.08345L13.664 4.29531C13.6088 4.32833 13.5677 4.35277 13.5239 4.37715C13.1066 4.60917 12.6398 4.73834 12.1624 4.75367C12.1138 4.75523 12.0658 4.75522 12.0114 4.75521H11.9889C11.9346 4.75522 11.8868 4.75523 11.8383 4.75367C11.36 4.73828 10.8919 4.60862 10.4738 4.37555C10.432 4.35229 10.3912 4.32778 10.3464 4.30082L9.97781 4.07956C9.32893 3.69 9.19479 3.62341 9.07488 3.5965C8.93569 3.56527 8.7911 3.5642 8.65127 3.59341C8.53087 3.61856 8.39517 3.68333 7.74095 4.06304L7.25329 4.34607C6.60286 4.72358 6.48019 4.80873 6.39879 4.90034C6.30432 5.00668 6.23364 5.13184 6.19146 5.26739C6.15501 5.38451 6.14527 5.53439 6.15792 6.28582L6.16545 6.73308C6.16627 6.77904 6.16709 6.82553 6.16643 6.87022C6.15932 7.35002 6.03715 7.8209 5.81057 8.24347C5.78795 8.28564 5.76428 8.32661 5.73744 8.37306L5.72738 8.39048C5.69998 8.43792 5.67625 8.47901 5.65078 8.52005C5.39777 8.9277 5.0506 9.26894 4.63826 9.51481C4.59505 9.54058 4.55288 9.56397 4.49945 9.59358L4.13789 9.79394C3.47588 10.1608 3.35079 10.2439 3.26741 10.3344C3.17031 10.4398 3.09708 10.5644 3.05259 10.6996C3.01416 10.8164 3.00253 10.966 3.00425 11.7232L3.00552 12.2854C3.00723 13.0379 3.01926 13.186 3.05775 13.3019C3.10245 13.4366 3.17534 13.5602 3.27165 13.6647C3.35453 13.7546 3.47869 13.8372 4.1359 14.2028L4.50701 14.4093C4.55636 14.4367 4.60107 14.4616 4.64498 14.488C5.05395 14.7343 5.39739 15.0743 5.64802 15.4793C5.67537 15.5234 5.70088 15.568 5.72983 15.6186L5.74705 15.6487C5.77206 15.6923 5.7969 15.7356 5.8195 15.7784C6.03946 16.1948 6.15837 16.6573 6.1664 17.1284C6.1673 17.1807 6.16643 17.232 6.16541 17.2923L6.1584 17.7073C6.14565 18.4625 6.1551 18.6119 6.19169 18.729C6.23404 18.8647 6.30513 18.9902 6.40029 19.0968C6.48216 19.1886 6.60576 19.2739 7.25939 19.6506L7.7531 19.9351C8.40489 20.3107 8.54082 20.3749 8.66094 20.3998C8.80025 20.4286 8.94394 20.4274 9.08257 20.3963C9.20198 20.3695 9.3353 20.3034 9.98174 19.9163L10.3356 19.7045C10.3896 19.6721 10.4312 19.6472 10.4755 19.6226C10.8927 19.3907 11.3593 19.2614 11.8369 19.2461C11.8854 19.2445 11.9334 19.2445 11.9879 19.2445H12.0099C12.0645 19.2445 12.1131 19.2445 12.1617 19.2461C12.6402 19.2615 13.1078 19.3911 13.5258 19.6241C13.5693 19.6484 13.611 19.6734 13.6604 19.7031L14.022 19.9202C14.6706 20.3096 14.8051 20.3762 14.925 20.4031C15.0645 20.4344 15.2086 20.4355 15.3481 20.4064C15.4686 20.3812 15.6046 20.3163 16.2586 19.9367L16.7463 19.6537C17.3967 19.2762 17.5195 19.191 17.6008 19.0994C17.6954 18.993 17.766 18.8679 17.8082 18.7324C17.8446 18.6153 17.8543 18.4658 17.8416 17.714L17.8341 17.2684C17.8333 17.2213 17.8325 17.1748 17.8331 17.1296C17.8402 16.6501 17.9621 16.1792 18.1889 15.7563C18.2115 15.7141 18.2352 15.6731 18.2621 15.6266L18.2675 15.6173C18.2995 15.5617 18.323 15.5214 18.349 15.4797C18.6019 15.0721 18.9488 14.731 19.3612 14.485C19.4018 14.4609 19.4431 14.438 19.4884 14.4129L19.8621 14.2058C20.5239 13.8391 20.649 13.7558 20.7324 13.6653C20.8291 13.5604 20.9023 13.4359 20.9469 13.3002C20.9854 13.1831 20.9975 13.0325 20.9958 12.2766L20.9945 11.7145C20.9928 10.9629 20.9805 10.8139 20.9419 10.6978C20.8973 10.5634 20.8244 10.4397 20.7279 10.335C20.6527 10.2535 20.5437 10.1779 20.0353 9.89267C20.814 9.72872 21.5259 9.38357 22.125 8.90339Z" fill="#121212"/>
<path fill-rule="evenodd" clip-rule="evenodd" d="M12 9C10.3431 9 9 10.3431 9 12C9 13.6569 10.3431 15 12 15C13.6569 15 15 13.6569 15 12C15 10.3431 13.6569 9 12 9ZM7 12C7 9.23858 9.23858 7 12 7C14.7614 7 17 9.23858 17 12C17 14.7614 14.7614 17 12 17C9.23858 17 7 14.7614 7 12Z" fill="#121212"/>
<circle cx="19" cy="5" r="4" fill="#D70015"/>
</svg>
