<svg width="24" height="24" viewBox="0 0 24 24" fill="none" xmlns="http://www.w3.org/2000/svg">
<path d="M9 10C8.44772 10 8 10.4477 8 11C8 11.5523 8.44772 12 9 12C9.55229 12 10 11.5523 10 11C10 10.4477 9.55229 10 9 10Z" fill="#121212"/>
<path fill-rule="evenodd" clip-rule="evenodd" d="M14 5H6.16168C5.63454 4.99998 5.17963 4.99997 4.80499 5.03057C4.40962 5.06286 4.01625 5.13416 3.63781 5.32698C3.07307 5.61474 2.61447 6.07383 2.32698 6.63805C2.13419 7.01642 2.06288 7.40962 2.03057 7.80496C1.99997 8.1795 1.99998 8.63422 2 9.16133V14.8385C1.99998 15.3656 1.99997 15.8205 2.03057 16.195C2.06287 16.5904 2.13418 16.9836 2.32698 17.362C2.61453 17.9264 3.07317 18.3853 3.63781 18.673C4.01623 18.8658 4.40959 18.9371 4.80496 18.9694C5.13874 18.9967 5.53615 18.9997 5.99164 19L6 19L6.0071 19L17.8384 19C18.3657 19 18.8205 19 19.1951 18.9694C19.5904 18.9371 19.9835 18.8658 20.3618 18.673C20.9258 18.3856 21.3854 17.927 21.6732 17.362C21.8661 16.9835 21.9373 16.5902 21.9696 16.1949C22 15.8209 22 15.367 22 14.841V9.1588C22 9.10524 22 9.05244 22 9.00039C21.1643 9.62806 20.1256 10 19 10C16.2386 10 14 7.76142 14 5ZM6 11C6 9.34315 7.34315 8 9 8C10.6569 8 12 9.34315 12 11C12 12.6569 10.6569 14 9 14C7.34315 14 6 12.6569 6 11ZM15 10C14.4477 10 14 10.4477 14 11C14 11.5523 14.4477 12 15 12L18 12C18.5523 12 19 11.5523 19 11C19 10.4477 18.5523 10 18 10L15 10ZM14 13C13.4477 13 13 13.4477 13 14C13 14.5523 13.4477 15 14 15L18 15C18.5523 15 19 14.5523 19 14C19 13.4477 18.5523 13 18 13L14 13ZM12.7803 17C12.5416 16.4801 12.1328 16.0582 11.6761 15.7537C10.9474 15.268 9.99836 15 9.00005 15C8.00173 15 7.05269 15.268 6.32403 15.7537C5.87011 16.0563 5.46342 16.475 5.22412 16.9905L12.7803 17Z" fill="#121212"/>
<circle cx="19" cy="5" r="4" fill="#D70015"/>
</svg>
