<svg width="24" height="24" viewBox="0 0 24 24" fill="none" xmlns="http://www.w3.org/2000/svg">
<path d="M8 11C8 10.4477 8.44772 10 9 10C9.55229 10 10 10.4477 10 11C10 11.5523 9.55229 12 9 12C8.44772 12 8 11.5523 8 11Z" fill="#121212"/>
<path fill-rule="evenodd" clip-rule="evenodd" d="M17.8388 5H6.16168C5.63452 4.99998 5.17964 4.99997 4.80499 5.03057C4.40962 5.06286 4.01625 5.13416 3.63781 5.32698C3.07306 5.61473 2.61447 6.07383 2.32698 6.63805C2.13419 7.01642 2.06287 7.40962 2.03057 7.80496C1.99997 8.1795 1.99998 8.63424 2 9.16137V14.8385C1.99998 15.3656 1.99997 15.8204 2.03057 16.195C2.06287 16.5904 2.13418 16.9836 2.32698 17.362C2.61453 17.9264 3.07317 18.3853 3.63781 18.673C4.01623 18.8658 4.40959 18.9371 4.80496 18.9694C5.13874 18.9967 5.53615 18.9997 5.99164 19L6 19L6.0071 19L17.8384 19C18.3657 19 18.8205 19 19.1951 18.9694C19.5904 18.9371 19.9835 18.8657 20.3618 18.673C20.9258 18.3856 21.3854 17.927 21.6732 17.362C21.8661 16.9835 21.9373 16.5902 21.9696 16.1949C22 15.8209 22 15.367 22 14.841V9.1588C22 8.63288 22 8.17898 21.9696 7.80512C21.9373 7.40983 21.8661 7.01654 21.6732 6.63805C21.3854 6.07316 20.9259 5.6144 20.3618 5.32698C19.9835 5.13422 19.5904 5.06288 19.1951 5.03057C18.8206 4.99997 18.3659 4.99998 17.8388 5ZM9 8C7.34315 8 6 9.34315 6 11C6 12.6569 7.34315 14 9 14C10.6569 14 12 12.6569 12 11C12 9.34315 10.6569 8 9 8ZM14 11C14 10.4477 14.4477 10 15 10L18 10C18.5523 10 19 10.4477 19 11C19 11.5523 18.5523 12 18 12L15 12C14.4477 12 14 11.5523 14 11ZM13 14C13 13.4477 13.4477 13 14 13L18 13C18.5523 13 19 13.4477 19 14C19 14.5523 18.5523 15 18 15L14 15C13.4477 15 13 14.5523 13 14ZM11.6761 15.7537C12.1328 16.0582 12.5416 16.4801 12.7803 17L5.22412 16.9905C5.46342 16.475 5.87011 16.0563 6.32402 15.7537C7.05269 15.268 8.00173 15 9.00004 15C9.99836 15 10.9474 15.268 11.6761 15.7537Z" fill="#121212"/>
</svg>
