<svg width="24" height="24" viewBox="0 0 24 24" fill="none" xmlns="http://www.w3.org/2000/svg">
<path fill-rule="evenodd" clip-rule="evenodd" d="M12 4C10.4178 4 8.87104 4.46919 7.55544 5.34824C6.23985 6.22729 5.21447 7.47672 4.60897 8.93853C4.00347 10.4003 3.84504 12.0089 4.15372 13.5607C4.4624 15.1126 5.22433 16.538 6.34315 17.6569C7.46197 18.7757 8.88743 19.5376 10.4393 19.8463C11.9911 20.155 13.5997 19.9965 15.0615 19.391C16.5233 18.7855 17.7727 17.7602 18.6518 16.4446C19.5308 15.129 20 13.5823 20 12C20 9.87827 19.1571 7.84344 17.6569 6.34315C16.1566 4.84285 14.1217 4 12 4ZM6.4443 3.6853C8.08879 2.58649 10.0222 2 12 2C14.6522 2 17.1957 3.05357 19.0711 4.92893C20.9464 6.8043 22 9.34784 22 12C22 13.9778 21.4135 15.9112 20.3147 17.5557C19.2159 19.2002 17.6541 20.4819 15.8268 21.2388C13.9996 21.9957 11.9889 22.1937 10.0491 21.8079C8.10929 21.422 6.32746 20.4696 4.92894 19.0711C3.53041 17.6725 2.578 15.8907 2.19215 13.9509C1.8063 12.0111 2.00433 10.0004 2.76121 8.17317C3.51809 6.3459 4.79981 4.78412 6.4443 3.6853Z" fill="#121212"/>
<path fill-rule="evenodd" clip-rule="evenodd" d="M12 8C10.6193 8 9.5 9.11929 9.5 10.5C9.5 11.4241 10.0009 12.2324 10.7507 12.6662L11.25 12.955V15.75C11.25 16.1642 11.5858 16.5 12 16.5C12.4142 16.5 12.75 16.1642 12.75 15.75V12.955L13.2493 12.6662C13.9991 12.2324 14.5 11.4241 14.5 10.5C14.5 9.11929 13.3807 8 12 8ZM7.5 10.5C7.5 8.01472 9.51472 6 12 6C14.4853 6 16.5 8.01472 16.5 10.5C16.5 11.9507 15.8131 13.2401 14.75 14.0621V15.75C14.75 17.2688 13.5188 18.5 12 18.5C10.4812 18.5 9.25 17.2688 9.25 15.75V14.0621C8.18688 13.2401 7.5 11.9507 7.5 10.5Z" fill="#121212"/>
</svg>
