<svg width="24" height="24" viewBox="0 0 24 24" fill="none" xmlns="http://www.w3.org/2000/svg">
<rect x="0.5" y="0.5" width="23" height="23" rx="4.5" fill="#FF0099" fill-opacity="0.0"/>
<path fill-rule="evenodd" clip-rule="evenodd" d="M5.12141 18.8492C4.73089 18.4587 4.73089 17.8255 5.12141 17.435L17.8493 4.70706C18.2399 4.31654 18.873 4.31654 19.2635 4.70706C19.6541 5.09759 19.6541 5.73075 19.2635 6.12127L6.53563 18.8492C6.1451 19.2397 5.51194 19.2397 5.12141 18.8492Z" fill="white"/>
<path fill-rule="evenodd" clip-rule="evenodd" d="M4.7072 4.8492C5.09772 4.45867 5.73089 4.45867 6.12141 4.8492L18.8493 17.5771C19.2399 17.9676 19.2399 18.6008 18.8493 18.9913C18.4588 19.3819 17.8256 19.3819 17.4351 18.9913L4.7072 6.26341C4.31668 5.87289 4.31668 5.23972 4.7072 4.8492Z" fill="white"/>
</svg>
