<svg width="24" height="24" viewBox="0 0 24 24" fill="none" xmlns="http://www.w3.org/2000/svg">
<path fill-rule="evenodd" clip-rule="evenodd" d="M12.2839 4.69877C12.0988 4.64403 11.9014 4.64403 11.7163 4.69877C11.6651 4.71391 11.5754 4.75129 11.3842 4.89429C11.1829 5.04481 10.9363 5.25975 10.5514 5.59652L5.7514 9.79653C5.30974 10.183 5.22799 10.2645 5.17271 10.346C5.10885 10.4401 5.06144 10.5445 5.03261 10.6549C5.00771 10.7501 5.00012 10.8655 5.00012 11.4522V17.0002C5.00012 17.4798 5.00066 17.7894 5.01683 18.0264C5.03239 18.2543 5.059 18.3411 5.07624 18.3828C5.17766 18.6276 5.37245 18.8224 5.61767 18.924C5.65928 18.9412 5.74611 18.9678 5.97411 18.9834C6.21109 18.9996 6.52073 19.0001 7.00035 19.0001C7.47998 19.0001 7.78955 18.9996 8.02646 18.9834C8.25436 18.9678 8.34116 18.9412 8.3828 18.924C8.62772 18.8225 8.82236 18.6279 8.9239 18.3828C8.94116 18.3411 8.96779 18.2542 8.98337 18.0262C8.99955 17.7893 9.00012 17.4796 9.00012 17.0001V16.0001C9.00012 14.3432 10.3433 13.0001 12.0001 13.0001C13.657 13.0001 15.0001 14.3432 15.0001 16.0001V17.0001C15.0001 17.4797 15.0007 17.7893 15.0168 18.0263C15.0324 18.2543 15.059 18.3411 15.0762 18.3828C15.1777 18.6276 15.3724 18.8224 15.6177 18.924C15.6593 18.9412 15.7461 18.9678 15.9741 18.9834C16.2111 18.9996 16.5207 19.0001 17.0004 19.0001C17.48 19.0001 17.7895 18.9996 18.0265 18.9834C18.2544 18.9678 18.3412 18.9412 18.3828 18.924C18.6277 18.8225 18.8224 18.6279 18.9239 18.3828C18.9412 18.3411 18.9678 18.2542 18.9834 18.0263C18.9996 17.7893 19.0001 17.4797 19.0001 17.0002V11.4522C19.0001 10.8654 18.9926 10.7501 18.9677 10.6549C18.9389 10.5447 18.8914 10.4402 18.8275 10.346C18.7722 10.2644 18.6903 10.1826 18.249 9.79653L13.449 5.59652C13.0642 5.2598 12.8175 5.04484 12.6162 4.89435C12.425 4.75135 12.3352 4.71392 12.2839 4.69877ZM11.1492 2.78087C11.7044 2.61666 12.2958 2.61666 12.8511 2.78087C13.22 2.88996 13.5269 3.07796 13.8139 3.29263C14.0843 3.49477 14.389 3.76145 14.7397 4.0683L19.566 8.29137C19.5889 8.31133 19.6115 8.3311 19.634 8.35071C19.9689 8.6432 20.2636 8.90056 20.4823 9.22268C20.6741 9.50534 20.8163 9.81875 20.9027 10.1492C21.001 10.5256 21.0006 10.9169 21.0002 11.3606C21.0002 11.3909 21.0001 11.4214 21.0001 11.4522V17.0307C21.0001 17.47 21.0001 17.849 20.9787 18.1626C20.9562 18.4925 20.9066 18.8223 20.7717 19.1481C20.4672 19.8831 19.8834 20.4672 19.1482 20.7717C18.8223 20.9067 18.4925 20.9562 18.1626 20.9787C17.8494 21.0001 17.471 21.0001 17.0323 21.0001H16.9684C16.5297 21.0001 16.1512 21.0001 15.838 20.9787C15.5081 20.9562 15.1782 20.9067 14.8523 20.7717C14.1174 20.4673 13.533 19.8834 13.2285 19.1481C13.0935 18.8222 13.044 18.4923 13.0215 18.1625C13.0001 17.8492 13.0001 17.4707 13.0001 17.0321V16.0001C13.0001 15.4478 12.5524 15.0001 12.0001 15.0001C11.4478 15.0001 11.0001 15.4478 11.0001 16.0001L11.0001 17.0306C11.0001 17.4699 11.0001 17.8489 10.9787 18.1625C10.9562 18.4924 10.9066 18.8223 10.7717 19.1481C10.4672 19.8831 9.88337 20.4672 9.14817 20.7717C8.82228 20.9067 8.49245 20.9562 8.16263 20.9787C7.84942 21.0001 7.47098 21.0001 7.03234 21.0001H6.96836C6.52971 21.0001 6.15123 21.0001 5.83797 20.9787C5.50814 20.9562 5.17823 20.9067 4.8523 20.7717C4.11741 20.4673 3.53304 19.8834 3.22848 19.1481C3.09348 18.8222 3.04398 18.4923 3.02147 18.1625C3.0001 17.8493 3.00011 17.4708 3.00012 17.0322L3.00012 11.4522C3.00012 11.4215 3.00009 11.3911 3.00006 11.361C2.99961 10.917 2.99922 10.5257 3.09758 10.1492C3.1839 9.81888 3.326 9.50546 3.51796 9.22268C3.7364 8.9009 4.03107 8.64359 4.3652 8.35183C4.38808 8.33185 4.41115 8.31171 4.43439 8.29137L9.26201 4.0672C9.61209 3.76086 9.9164 3.49457 10.1863 3.29269C10.4733 3.07802 10.7802 2.88998 11.1492 2.78087Z" fill="#121212"/>
</svg>
