<?xml version="1.0" encoding="utf-8"?>
<svg version="1.1" id="Layer_1" xmlns="http://www.w3.org/2000/svg" xmlns:xlink="http://www.w3.org/1999/xlink" x="0px" y="0px"
	 viewBox="0 0 56 32" style="enable-background:new 0 0 56 32;" xml:space="preserve">
<style type="text/css">
	.st0{fill-rule:evenodd;clip-rule:evenodd;}
</style>
<path class="st0" d="M16,8c-4.4,0-8,3.6-8,8c0,2.4,1,4.5,2.7,6c1.4-1.2,3.3-2,5.3-2s3.9,0.8,5.3,2c1.7-1.5,2.7-3.6,2.7-6
	C24,11.6,20.4,8,16,8z M6,16c0-5.5,4.5-10,10-10s10,4.5,10,10s-4.5,10-10,10S6,21.5,6,16z M12,15c0-2.2,1.8-4,4-4s4,1.8,4,4
	s-1.8,4-4,4S12,17.2,12,15z M39.3,13.3c0.4-0.4,1-0.4,1.4,0l3,3c0.4,0.4,0.4,1,0,1.4c-0.4,0.4-1,0.4-1.4,0L40,15.4l-2.3,2.3
	c-0.4,0.4-1,0.4-1.4,0c-0.4-0.4-0.4-1,0-1.4L39.3,13.3z M16,0h24c8.8,0,16,7.2,16,16l0,0c0,8.8-7.2,16-16,16H16C7.2,32,0,24.8,0,16
	l0,0C0,7.2,7.2,0,16,0z"/>
</svg>
