<svg width="24" height="24" viewBox="0 0 24 24" fill="none" xmlns="http://www.w3.org/2000/svg">
<path fill-rule="evenodd" clip-rule="evenodd" d="M11.1492 2.78087C11.7044 2.61666 12.2958 2.61666 12.8511 2.78087C13.22 2.88996 13.5269 3.07796 13.8139 3.29263C14.0843 3.49477 14.389 3.76145 14.7397 4.0683L19.566 8.29137C19.5889 8.31133 19.6115 8.3311 19.634 8.35071C19.9689 8.6432 20.2636 8.90056 20.4823 9.22268C20.6741 9.50534 20.8163 9.81875 20.9027 10.1492C21.001 10.5256 21.0006 10.9169 21.0002 11.3606C21.0002 11.3909 21.0001 11.4214 21.0001 11.4522V17.0307C21.0001 17.47 21.0001 17.849 20.9787 18.1626C20.9562 18.4925 20.9066 18.8223 20.7717 19.1481C20.4672 19.8831 19.8834 20.4672 19.1482 20.7717C18.8223 20.9067 18.4925 20.9562 18.1626 20.9787C17.8494 21.0001 17.471 21.0001 17.0323 21.0001H16.9684C16.5297 21.0001 16.1512 21.0001 15.838 20.9787C15.5081 20.9562 15.1782 20.9067 14.8523 20.7717C14.1174 20.4673 13.533 19.8834 13.2285 19.1481C13.0935 18.8222 13.044 18.4923 13.0215 18.1625C13.0001 17.8492 13.0001 17.4707 13.0001 17.0321V16.0001C13.0001 15.4478 12.5524 15.0001 12.0001 15.0001C11.4478 15.0001 11.0001 15.4478 11.0001 16.0001L11.0001 17.0306C11.0001 17.4699 11.0001 17.8489 10.9787 18.1625C10.9562 18.4924 10.9066 18.8223 10.7717 19.1481C10.4672 19.8831 9.88337 20.4672 9.14817 20.7717C8.82228 20.9067 8.49245 20.9562 8.16263 20.9787C7.84942 21.0001 7.47098 21.0001 7.03234 21.0001H6.96836C6.52971 21.0001 6.15123 21.0001 5.83797 20.9787C5.50814 20.9562 5.17823 20.9067 4.8523 20.7717C4.11741 20.4673 3.53304 19.8834 3.22848 19.1481C3.09348 18.8222 3.04398 18.4923 3.02147 18.1625C3.0001 17.8493 3.00011 17.4708 3.00012 17.0322L3.00012 11.4522C3.00012 11.4215 3.00009 11.3911 3.00006 11.361C2.99961 10.917 2.99922 10.5257 3.09758 10.1492C3.1839 9.81888 3.326 9.50546 3.51796 9.22268C3.7364 8.9009 4.03107 8.64359 4.3652 8.35183C4.38808 8.33185 4.41115 8.31171 4.43439 8.29137L9.26201 4.0672C9.61209 3.76086 9.9164 3.49457 10.1863 3.29269C10.4733 3.07802 10.7802 2.88998 11.1492 2.78087Z" fill="#121212"/>
</svg>
