<svg width="24" height="24" viewBox="0 0 24 24" fill="none" xmlns="http://www.w3.org/2000/svg">
<path fill-rule="evenodd" clip-rule="evenodd" d="M14.9996 2H6.16168C5.63454 1.99998 5.17963 1.99997 4.80499 2.03057C4.40962 2.06286 4.01625 2.13416 3.63781 2.32698C3.07307 2.61474 2.61447 3.07383 2.32698 3.63805C2.13419 4.01642 2.06288 4.40962 2.03057 4.80496C1.99997 5.1795 1.99998 5.63422 2 6.16133V17.8385C1.99998 18.3656 1.99997 18.8204 2.03057 19.195C2.06287 19.5904 2.13418 19.9836 2.32698 20.362C2.61453 20.9264 3.07317 21.3853 3.63781 21.673C4.01623 21.8658 4.40959 21.9371 4.80496 21.9694C5.1797 22 5.63464 22 6.16194 22H17.8384C18.3656 22 18.8205 22 19.1951 21.9694C19.5904 21.9371 19.9835 21.8657 20.3618 21.673C20.9257 21.3856 21.3854 20.927 21.6732 20.362C21.8661 19.9835 21.9373 19.5902 21.9696 19.1949C22 18.8209 22 18.367 22 17.841V9.00037C21.1643 9.62806 20.1256 10 19 10C16.2386 10 14 7.76142 14 5C14 3.87439 14.3719 2.83566 14.9996 2ZM4 7C4 6.44772 4.44772 6 5 6L13 6C13.5523 6 14 6.44772 14 7C14 7.55229 13.5523 8 13 8L5 8C4.44772 8 4 7.55229 4 7ZM4 12C4 11.4477 4.44772 11 5 11H19C19.5523 11 20 11.4477 20 12C20 12.5523 19.5523 13 19 13H5C4.44772 13 4 12.5523 4 12ZM13 18H5C4.44772 18 4 17.5523 4 17C4 16.4477 4.44772 16 5 16L13 16C13.5523 16 14 16.4477 14 17C14 17.5523 13.5523 18 13 18Z" fill="#121212"/>
<circle cx="19" cy="5" r="4" fill="#D70015"/>
</svg>
