<svg width="24" height="24" viewBox="0 0 24 24" fill="none" xmlns="http://www.w3.org/2000/svg">
<path fill-rule="evenodd" clip-rule="evenodd" d="M17.8388 2H6.16168C5.63452 1.99998 5.17964 1.99997 4.80499 2.03057C4.40962 2.06286 4.01625 2.13416 3.63781 2.32698C3.07306 2.61473 2.61447 3.07383 2.32698 3.63805C2.13419 4.01642 2.06287 4.40962 2.03057 4.80496C1.99997 5.1795 1.99998 5.63424 2 6.16137V17.8385C1.99998 18.3656 1.99997 18.8204 2.03057 19.195C2.06287 19.5904 2.13418 19.9836 2.32698 20.362C2.61453 20.9264 3.07317 21.3853 3.63781 21.673C4.01623 21.8658 4.40959 21.9371 4.80496 21.9694C5.1797 22 5.63466 22 6.16197 22H17.8384C18.3656 22 18.8205 22 19.1951 21.9694C19.5904 21.9371 19.9835 21.8657 20.3618 21.673C20.9257 21.3856 21.3854 20.927 21.6732 20.362C21.8661 19.9835 21.9373 19.5902 21.9696 19.1949C22 18.8209 22 18.367 22 17.841V6.1588C22 5.63288 22 5.17898 21.9696 4.80512C21.9373 4.40983 21.8661 4.01654 21.6732 3.63805C21.3854 3.07316 20.9259 2.6144 20.3618 2.32698C19.9835 2.13422 19.5904 2.06288 19.1951 2.03057C18.8206 1.99997 18.3659 1.99998 17.8388 2ZM6 4C4.89543 4 4 4.89543 4 6C4 7.10457 4.89543 8 6 8C7.10457 8 8 7.10457 8 6C8 4.89543 7.10457 4 6 4ZM12 4C10.8954 4 10 4.89543 10 6C10 7.10457 10.8954 8 12 8C13.1046 8 14 7.10457 14 6C14 4.89543 13.1046 4 12 4ZM18 4C16.8954 4 16 4.89543 16 6C16 7.10457 16.8954 8 18 8C19.1046 8 20 7.10457 20 6C20 4.89543 19.1046 4 18 4ZM6 10C4.89543 10 4 10.8954 4 12C4 13.1046 4.89543 14 6 14C7.10457 14 8 13.1046 8 12C8 10.8954 7.10457 10 6 10ZM12 10C10.8954 10 10 10.8954 10 12C10 13.1046 10.8954 14 12 14C13.1046 14 14 13.1046 14 12C14 10.8954 13.1046 10 12 10ZM18 10C16.8954 10 16 10.8954 16 12C16 13.1046 16.8954 14 18 14C19.1046 14 20 13.1046 20 12C20 10.8954 19.1046 10 18 10ZM6 16C4.89543 16 4 16.8954 4 18C4 19.1046 4.89543 20 6 20C7.10457 20 8 19.1046 8 18C8 16.8954 7.10457 16 6 16ZM12 16C10.8954 16 10 16.8954 10 18C10 19.1046 10.8954 20 12 20C13.1046 20 14 19.1046 14 18C14 16.8954 13.1046 16 12 16ZM18 16C16.8954 16 16 16.8954 16 18C16 19.1046 16.8954 20 18 20C19.1046 20 20 19.1046 20 18C20 16.8954 19.1046 16 18 16Z" fill="#121212"/>
</svg>
