<svg width="24" height="24" viewBox="0 0 24 24" fill="none" xmlns="http://www.w3.org/2000/svg">
<path fill-rule="evenodd" clip-rule="evenodd" d="M12 4C10.4178 4 8.87104 4.46919 7.55544 5.34824C6.23985 6.22729 5.21447 7.47672 4.60897 8.93853C4.00347 10.4003 3.84504 12.0089 4.15372 13.5607C4.4624 15.1126 5.22433 16.538 6.34315 17.6569C7.46197 18.7757 8.88743 19.5376 10.4393 19.8463C11.9911 20.155 13.5997 19.9965 15.0615 19.391C16.5233 18.7855 17.7727 17.7602 18.6518 16.4446C19.5308 15.129 20 13.5823 20 12C20 9.87827 19.1571 7.84344 17.6569 6.34315C16.1566 4.84285 14.1217 4 12 4ZM6.4443 3.6853C8.08879 2.58649 10.0222 2 12 2C14.6522 2 17.1957 3.05357 19.0711 4.92893C20.9464 6.8043 22 9.34784 22 12C22 13.9778 21.4135 15.9112 20.3147 17.5557C19.2159 19.2002 17.6541 20.4819 15.8268 21.2388C13.9996 21.9957 11.9889 22.1937 10.0491 21.8079C8.10929 21.422 6.32746 20.4696 4.92894 19.0711C3.53041 17.6725 2.578 15.8907 2.19215 13.9509C1.8063 12.0111 2.00433 10.0004 2.76121 8.17317C3.51809 6.3459 4.79981 4.78412 6.4443 3.6853ZM14.6172 6.48045C15.4102 7.0091 16 7.86209 16 9C16 9.92864 15.763 10.6581 15.3188 11.2257C14.8938 11.7687 14.3489 12.0686 13.9472 12.2694C13.8283 12.3289 13.7266 12.3784 13.6383 12.4213C13.3753 12.5492 13.2315 12.6192 13.1089 12.7213C13.0422 12.7769 13 12.8138 13 13C13 13.5523 12.5523 14 12 14C11.4477 14 11 13.5523 11 13C11 12.1862 11.3328 11.5981 11.8286 11.1849C12.1596 10.9091 12.5937 10.7013 12.8901 10.5594C12.9508 10.5304 13.0057 10.5041 13.0528 10.4806C13.4011 10.3064 13.6062 10.1688 13.7437 9.99307C13.8621 9.8419 14 9.57136 14 9C14 8.63791 13.8398 8.3659 13.5078 8.14455C13.1461 7.90344 12.6017 7.75 12 7.75C11.3983 7.75 10.8539 7.90344 10.4922 8.14455C10.1602 8.3659 10 8.63791 10 9C10 9.55228 9.55229 10 9 10C8.44772 10 8 9.55228 8 9C8 7.86209 8.58983 7.0091 9.3828 6.48045C10.1461 5.97156 11.1017 5.75 12 5.75C12.8983 5.75 13.8539 5.97156 14.6172 6.48045Z" fill="#121212"/>
<path fill-rule="evenodd" clip-rule="evenodd" d="M10.65 17C10.65 16.282 11.232 15.7 11.95 15.7H12.05C12.768 15.7 13.35 16.282 13.35 17C13.35 17.718 12.768 18.3 12.05 18.3H11.95C11.232 18.3 10.65 17.718 10.65 17Z" fill="#121212"/>
</svg>
