<svg width="24" height="24" viewBox="0 0 24 24" fill="none" xmlns="http://www.w3.org/2000/svg">
<path fill-rule="evenodd" clip-rule="evenodd" d="M3 12C3 9.61305 3.94821 7.32387 5.63604 5.63604C7.32387 3.94821 9.61305 3 12 3C14.3869 3 16.6761 3.94821 18.364 5.63604C20.0518 7.32387 21 9.61305 21 12C21.0016 13.1821 20.7696 14.353 20.3172 15.4451C19.8649 16.5373 19.2011 17.5293 18.364 18.364C18.2685 18.4562 18.1923 18.5666 18.1399 18.6886C18.0875 18.8106 18.0599 18.9418 18.0588 19.0746C18.0576 19.2074 18.0829 19.3391 18.1332 19.462C18.1835 19.5849 18.2577 19.6965 18.3516 19.7904C18.4455 19.8843 18.5571 19.9585 18.68 20.0088C18.8029 20.0591 18.9346 20.0844 19.0674 20.0833C19.2002 20.0821 19.3314 20.0545 19.4534 20.0021C19.5754 19.9497 19.6858 19.8735 19.778 19.778C20.8008 18.7576 21.612 17.5452 22.1649 16.2104C22.7179 14.8756 23.0016 13.4448 23 12C23 5.925 18.075 1 12 1C5.925 1 1 5.925 1 12C1 15.037 2.232 17.789 4.222 19.778C4.4106 19.9602 4.6632 20.061 4.9254 20.0587C5.1876 20.0564 5.43841 19.9512 5.62382 19.7658C5.80923 19.5804 5.9144 19.3296 5.91667 19.0674C5.91895 18.8052 5.81816 18.5526 5.636 18.364C4.7989 17.5293 4.13507 16.5373 3.68269 15.4451C3.23031 14.353 2.9983 13.1822 3 12ZM7 12C7.00015 11.1778 7.20306 10.3684 7.59074 9.6433C7.97842 8.91825 8.53892 8.3 9.22259 7.84329C9.90627 7.38658 10.692 7.10551 11.5102 7.02498C12.3285 6.94444 13.1539 7.06693 13.9135 7.38159C14.6731 7.69625 15.3434 8.19336 15.865 8.82892C16.3866 9.46447 16.7434 10.2188 16.9039 11.0252C17.0643 11.8316 17.0234 12.6651 16.7848 13.4519C16.5462 14.2387 16.1173 14.9545 15.536 15.536C15.3538 15.7246 15.253 15.9772 15.2553 16.2394C15.2576 16.5016 15.3628 16.7524 15.5482 16.9378C15.7336 17.1232 15.9844 17.2284 16.2466 17.2307C16.5088 17.233 16.7614 17.1322 16.95 16.95C17.9289 15.971 18.5955 14.7237 18.8655 13.3659C19.1356 12.008 18.9969 10.6006 18.4671 9.32156C17.9373 8.04251 17.04 6.94931 15.8889 6.18017C14.7378 5.41103 13.3844 5.0005 12 5.0005C10.6156 5.0005 9.26221 5.41103 8.11108 6.18017C6.95995 6.94931 6.06275 8.04251 5.53291 9.32156C5.00308 10.6006 4.86441 12.008 5.13445 13.3659C5.40449 14.7237 6.0711 15.971 7.05 16.95C7.14225 17.0455 7.25259 17.1217 7.3746 17.1741C7.4966 17.2265 7.62782 17.2541 7.7606 17.2553C7.89338 17.2564 8.02506 17.2311 8.14795 17.1808C8.27085 17.1305 8.3825 17.0563 8.47639 16.9624C8.57029 16.8685 8.64454 16.7568 8.69482 16.634C8.7451 16.5111 8.7704 16.3794 8.76925 16.2466C8.7681 16.1138 8.74051 15.9826 8.6881 15.8606C8.63569 15.7386 8.55951 15.6282 8.464 15.536C7.99889 15.0722 7.6301 14.5211 7.37885 13.9142C7.12759 13.3074 6.99884 12.6568 7 12ZM14.5 12C14.5 12.663 14.2366 13.2989 13.7678 13.7678C13.2989 14.2366 12.663 14.5 12 14.5C11.337 14.5 10.7011 14.2366 10.2322 13.7678C9.76339 13.2989 9.5 12.663 9.5 12C9.5 11.337 9.76339 10.7011 10.2322 10.2322C10.7011 9.76339 11.337 9.5 12 9.5C12.663 9.5 13.2989 9.76339 13.7678 10.2322C14.2366 10.7011 14.5 11.337 14.5 12ZM9.673 17.494C9.65212 17.1756 9.6968 16.8563 9.80429 16.5558C9.91178 16.2554 10.0798 15.9802 10.2979 15.7473C10.516 15.5144 10.7797 15.3287 11.0724 15.2018C11.3652 15.0749 11.6809 15.0094 12 15.0094C12.3191 15.0094 12.6348 15.0749 12.9276 15.2018C13.2203 15.3287 13.484 15.5144 13.7021 15.7473C13.9202 15.9802 14.0882 16.2554 14.1957 16.5558C14.3032 16.8563 14.3479 17.1756 14.327 17.494L14.005 22.13C13.9692 22.6373 13.7423 23.1121 13.3703 23.4588C12.9982 23.8055 12.5086 23.9983 12 23.9983C11.4914 23.9983 11.0018 23.8055 10.6297 23.4588C10.2577 23.1121 10.0308 22.6373 9.995 22.13L9.673 17.494Z" fill="#121212"/>
</svg>
