<svg width="24" height="24" viewBox="0 0 24 24" fill="none" xmlns="http://www.w3.org/2000/svg">
<path fill-rule="evenodd" clip-rule="evenodd" d="M3.5 11.998C3.48781 10.8743 3.6986 9.75941 4.12017 8.71776C4.54175 7.6761 5.16573 6.7284 5.956 5.9295C6.74628 5.13061 7.68715 4.49638 8.72418 4.06354C9.7612 3.63069 10.8738 3.40782 11.9975 3.40782C13.1212 3.40782 14.2338 3.63069 15.2708 4.06354C16.3078 4.49638 17.2487 5.13061 18.039 5.9295C18.8293 6.7284 19.4533 7.6761 19.8748 8.71776C20.2964 9.75941 20.5072 10.8743 20.495 11.998C20.4707 14.2357 19.5648 16.3735 17.9738 17.9473C16.3829 19.5211 14.2353 20.4038 11.9975 20.4038C9.75966 20.4038 7.61214 19.5211 6.02119 17.9473C4.43023 16.3735 3.52428 14.2357 3.5 11.998ZM11.998 1.5C6.2 1.5 1.5 6.2 1.5 11.998C1.5 17.795 6.2 22.495 11.998 22.495C17.795 22.495 22.495 17.795 22.495 11.998C22.495 6.2 17.795 1.5 11.998 1.5ZM6.588 7.812C6.56353 7.68283 6.56476 7.55011 6.59163 7.42142C6.6185 7.29274 6.67049 7.17061 6.7446 7.06203C6.81872 6.95345 6.91352 6.86056 7.02358 6.78866C7.13364 6.71675 7.25679 6.66726 7.386 6.643C7.986 6.543 8.593 6.493 9.201 6.477C10.272 6.449 11.739 6.522 13.294 6.939C14.849 7.355 16.156 8.026 17.07 8.586C17.585 8.902 18.097 9.242 18.558 9.636C18.971 9.992 19.02 10.634 18.665 11.047C18.4922 11.2481 18.2466 11.3724 17.9822 11.3925C17.7177 11.4125 17.4562 11.3268 17.255 11.154C16.877 10.829 16.449 10.551 16.025 10.291C15.221 9.798 14.093 9.223 12.776 8.871C11.46 8.518 10.196 8.451 9.253 8.477C8.754 8.49 8.249 8.522 7.757 8.609C7.49643 8.65816 7.227 8.60181 7.00797 8.45235C6.78894 8.30289 6.63823 8.07256 6.589 7.812H6.588ZM7.571 12.341C7.32073 12.4218 7.04869 12.4008 6.8138 12.2825C6.57891 12.1642 6.40007 11.9582 6.31604 11.7089C6.232 11.4597 6.24953 11.1874 6.36482 10.9511C6.48011 10.7147 6.68388 10.5332 6.932 10.446C7.434 10.276 7.979 10.204 8.505 10.16C9.449 10.082 10.77 10.114 12.331 10.532C13.892 10.951 15.052 11.584 15.831 12.123C16.27 12.427 16.686 12.766 17.051 13.157C17.2255 13.3567 17.3135 13.6176 17.2957 13.8822C17.2779 14.1468 17.1557 14.3935 16.956 14.568C16.7554 14.7396 16.4957 14.826 16.2323 14.8088C15.9689 14.7916 15.7226 14.6722 15.546 14.476C15.2863 14.2112 15.0001 13.9736 14.692 13.767C14.076 13.341 13.123 12.815 11.813 12.464C10.503 12.114 9.416 12.092 8.669 12.154C8.29837 12.1851 7.93105 12.2477 7.571 12.341ZM6.471 14.18C6.24198 14.31 6.07346 14.525 6.00204 14.7785C5.93061 15.0319 5.96204 15.3033 6.08949 15.5337C6.21695 15.7642 6.43015 15.935 6.68281 16.0092C6.93547 16.0834 7.2072 16.0549 7.439 15.93C7.639 15.838 7.871 15.801 8.087 15.774C8.624 15.706 9.529 15.704 10.851 16.058C12.172 16.412 12.955 16.866 13.386 17.194C13.711 17.441 13.846 17.62 13.868 17.651C14.178 18.088 14.738 18.272 15.223 17.989C15.3365 17.9228 15.4358 17.835 15.5153 17.7304C15.5949 17.6258 15.653 17.5066 15.6864 17.3796C15.7199 17.2525 15.7279 17.1202 15.7102 16.99C15.6924 16.8598 15.6492 16.7345 15.583 16.621C15.3144 16.227 14.9803 15.882 14.595 15.601C13.94 15.103 12.918 14.541 11.368 14.126C9.819 13.711 8.653 13.686 7.837 13.79C7.36271 13.8409 6.90068 13.9728 6.471 14.18Z" fill="#121212"/>
</svg>
