<svg width="24" height="24" viewBox="0 0 24 24" fill="none" xmlns="http://www.w3.org/2000/svg">
<path fill-rule="evenodd" clip-rule="evenodd" d="M7.84499 4.77524C10.437 4.40824 13.563 4.40824 16.155 4.77524C18.51 5.10924 20.335 6.76124 20.683 8.54124C21.106 10.6962 21.106 13.3042 20.683 15.4592C20.334 17.2392 18.51 18.8912 16.155 19.2252C13.563 19.5922 10.436 19.5922 7.84499 19.2252C5.48999 18.8912 3.66599 17.2392 3.31699 15.4592C2.89399 13.3042 2.89399 10.6962 3.31699 8.54124C3.66599 6.76124 5.48999 5.10924 7.84499 4.77524ZM16.435 2.79524C13.658 2.40224 10.342 2.40224 7.56499 2.79524C4.54999 3.22224 1.89999 5.37324 1.35499 8.15724C0.881994 10.5662 0.881994 13.4342 1.35499 15.8432C1.89999 18.6272 4.54999 20.7782 7.56499 21.2052C10.342 21.5982 13.658 21.5982 16.435 21.2052C19.45 20.7782 22.1 18.6272 22.645 15.8432C23.118 13.4342 23.118 10.5662 22.645 8.15724C22.1 5.37324 19.45 3.22224 16.435 2.79524ZM10.555 7.16824C10.4044 7.06776 10.2293 7.01005 10.0485 7.00127C9.86768 6.99248 9.68786 7.03295 9.52823 7.11836C9.3686 7.20377 9.23515 7.33092 9.14212 7.48623C9.04909 7.64154 8.99997 7.8192 8.99999 8.00024V16.0002C8.99997 16.1813 9.04909 16.3589 9.14212 16.5142C9.23515 16.6696 9.3686 16.7967 9.52823 16.8821C9.68786 16.9675 9.86768 17.008 10.0485 16.9992C10.2293 16.9904 10.4044 16.9327 10.555 16.8322L16.555 12.8322C16.692 12.7409 16.8042 12.6172 16.8819 12.4721C16.9596 12.3269 17.0002 12.1649 17.0002 12.0002C17.0002 11.8356 16.9596 11.6736 16.8819 11.5284C16.8042 11.3833 16.692 11.2596 16.555 11.1682L10.555 7.16824ZM14.197 12.0002L11 14.1322V9.86924L14.197 12.0002Z" fill="#121212"/>
</svg>
