<svg width="24" height="24" viewBox="0 0 24 24" fill="none" xmlns="http://www.w3.org/2000/svg">
<path fill-rule="evenodd" clip-rule="evenodd" d="M7.24812 4.07C8.43012 2.666 10.1041 2 12.0001 2C13.9401 2 15.6041 2.784 16.7641 4.213C17.7941 5.483 18.3771 7.197 18.4831 9.19L18.5751 9.204L18.5951 9.207C18.7651 9.231 18.9681 9.261 19.1791 9.302C19.9601 9.453 21.2931 9.835 21.7521 11.266C21.9821 11.985 21.8671 12.651 21.4641 13.179C21.1171 13.634 20.6211 13.897 20.2661 14.056C20.0901 14.136 19.9141 14.204 19.7661 14.261C20.1121 15.197 20.7141 16.16 21.3801 17.032C22.0071 17.854 21.8411 18.895 21.5171 19.574C21.1921 20.254 20.4901 21.031 19.4681 21.075C18.8901 21.1 18.2831 21.16 17.6791 21.27C17.4061 21.32 17.0841 21.429 16.6841 21.594C16.4451 21.692 16.2261 21.79 15.9901 21.895C15.8021 21.979 15.6041 22.067 15.3751 22.165C14.4351 22.569 13.2801 23 12.0001 23C10.7201 23 9.56512 22.569 8.62512 22.165C8.39612 22.067 8.19712 21.979 8.01012 21.895C7.78021 21.7914 7.54885 21.6911 7.31612 21.594C6.91612 21.429 6.59412 21.319 6.32112 21.269C5.71712 21.159 5.11012 21.1 4.53112 21.075C3.51012 21.031 2.80712 20.254 2.48312 19.574C2.15912 18.895 1.99312 17.854 2.62012 17.032C3.29012 16.154 3.89512 15.184 4.24012 14.242C4.08874 14.1824 3.93901 14.1188 3.79112 14.051C3.44512 13.889 2.97512 13.63 2.62812 13.196C2.24112 12.71 2.07012 12.083 2.22212 11.365C2.54612 9.828 3.99212 9.445 4.75612 9.301C4.97312 9.261 5.18412 9.231 5.36112 9.206L5.39612 9.201L5.51612 9.184C5.61512 7.059 6.19412 5.321 7.24812 4.07ZM8.77812 5.358C8.01512 6.263 7.50012 7.718 7.50012 9.858V9.962L7.47812 10.065C7.36712 10.589 6.96412 10.834 6.76412 10.928C6.55412 11.027 6.32712 11.076 6.16712 11.106C6.01112 11.135 5.83712 11.159 5.68212 11.18L5.63612 11.187C5.46518 11.2096 5.2948 11.2363 5.12512 11.267C4.36012 11.41 4.21512 11.6 4.17812 11.777C4.15212 11.904 4.17512 11.93 4.18812 11.944L4.19212 11.948C4.24512 12.015 4.37312 12.115 4.63912 12.239C4.76312 12.297 4.89412 12.35 5.03912 12.409L5.07512 12.423C5.20212 12.473 5.35312 12.534 5.48612 12.597C5.61712 12.657 5.83612 12.767 6.02212 12.945C6.23812 13.152 6.49912 13.556 6.37212 14.089C6.00812 15.62 5.08912 17.094 4.21112 18.244C4.19776 18.2776 4.19229 18.3139 4.19512 18.35C4.19512 18.445 4.22212 18.575 4.28712 18.712C4.35312 18.849 4.43712 18.954 4.51512 19.017C4.57912 19.069 4.61512 19.077 4.61912 19.077C5.27012 19.105 5.96912 19.173 6.67912 19.302C7.16212 19.39 7.63912 19.564 8.07912 19.746C8.32212 19.846 8.60112 19.97 8.87212 20.09C9.06112 20.174 9.24612 20.256 9.41212 20.327C10.3111 20.712 11.1501 21 12.0001 21C12.8501 21 13.6901 20.712 14.5881 20.327C14.7541 20.256 14.9391 20.173 15.1281 20.09C15.3981 19.97 15.6781 19.846 15.9201 19.746C16.3601 19.564 16.8371 19.39 17.3201 19.302C18.0301 19.172 18.7301 19.105 19.3801 19.077C19.3861 19.077 19.4211 19.069 19.4851 19.017C19.5818 18.9326 19.6595 18.8286 19.7131 18.712C19.7692 18.5993 19.8006 18.4758 19.8051 18.35C19.8051 18.257 19.7821 18.235 19.7901 18.246C18.9121 17.096 17.9921 15.621 17.6271 14.089C17.4921 13.519 17.8011 13.109 18.0141 12.919C18.2041 12.751 18.4261 12.646 18.5611 12.587C18.6961 12.527 18.8481 12.47 18.9781 12.421L19.0261 12.402C19.1791 12.345 19.3161 12.292 19.4451 12.233C19.7151 12.112 19.8301 12.019 19.8691 11.972C19.8656 11.9397 19.8586 11.9078 19.8481 11.877C19.7571 11.593 19.5001 11.401 18.7981 11.265C18.6391 11.235 18.4781 11.211 18.3081 11.185L18.2701 11.18C18.1119 11.1585 17.9541 11.1332 17.7971 11.104C17.5934 11.0683 17.3954 11.0058 17.2081 10.918C16.9981 10.814 16.6281 10.565 16.5221 10.065L16.5001 9.962V9.857C16.5001 7.907 15.9931 6.437 15.2111 5.474C14.4461 4.53 13.3611 4 12.0001 4C10.5951 4 9.52012 4.476 8.77712 5.358H8.77812Z" fill="#121212"/>
</svg>
