<svg width="24" height="24" viewBox="0 0 24 24" fill="none" xmlns="http://www.w3.org/2000/svg">
<path fill-rule="evenodd" clip-rule="evenodd" d="M3.5 12C3.5 9.74566 4.39553 7.58365 5.98959 5.98959C7.58365 4.39553 9.74566 3.5 12 3.5C14.2543 3.5 16.4163 4.39553 18.0104 5.98959C19.6045 7.58365 20.5 9.74566 20.5 12C20.5 14.2543 19.6045 16.4163 18.0104 18.0104C16.4163 19.6045 14.2543 20.5 12 20.5C9.74566 20.5 7.58365 19.6045 5.98959 18.0104C4.39553 16.4163 3.5 14.2543 3.5 12ZM12 1.5C6.201 1.5 1.5 6.201 1.5 12C1.5 17.799 6.201 22.5 12 22.5C17.799 22.5 22.5 17.799 22.5 12C22.5 6.201 17.799 1.5 12 1.5ZM9.957 8.711C9.9161 8.57583 9.84704 8.45085 9.75436 8.3443C9.66168 8.23775 9.54748 8.15203 9.41929 8.0928C9.29109 8.03357 9.1518 8.00216 9.01059 8.00064C8.86937 7.99912 8.72944 8.02753 8.6 8.084L7.6 8.521C7.35917 8.62565 7.16916 8.82082 7.07101 9.06437C6.97286 9.30792 6.97444 9.58031 7.07542 9.8227C7.17639 10.0651 7.36866 10.258 7.61069 10.3599C7.85272 10.4617 8.1251 10.4643 8.369 10.367L10.154 16.289C10.2161 16.4945 10.3426 16.6747 10.515 16.8027C10.6873 16.9308 10.8963 16.9999 11.111 17C11.646 16.98 12.155 16.745 12.603 16.467C13.363 15.997 14.344 15.125 15.483 13.515C16.373 12.255 16.761 11.137 16.919 10.299C17.01 9.815 17.045 9.324 16.985 8.834C16.9457 8.6007 16.825 8.38887 16.6443 8.23617C16.4636 8.08348 16.2346 7.99979 15.998 8H15.109C14.8582 7.99968 14.6164 8.09365 14.4316 8.26327C14.2468 8.43288 14.1324 8.66576 14.1113 8.91571C14.0902 9.16566 14.1637 9.41443 14.3174 9.61267C14.4711 9.81092 14.6937 9.94417 14.941 9.986C14.828 10.547 14.545 11.374 13.848 12.36C12.951 13.63 12.229 14.294 11.744 14.638L9.957 8.71V8.711Z" fill="#121212"/>
</svg>
