<svg width="24" height="24" viewBox="0 0 24 24" fill="none" xmlns="http://www.w3.org/2000/svg">
<path fill-rule="evenodd" clip-rule="evenodd" d="M8.64029 4.2318C9.06457 4.58537 9.12189 5.21593 8.76833 5.64021L6.26833 8.64021C5.94116 9.03281 5.37062 9.11555 4.94541 8.83208L3.44541 7.83208C2.98588 7.52572 2.8617 6.90485 3.16806 6.44532C3.47441 5.9858 4.09528 5.86162 4.55481 6.16797L5.30714 6.66953L7.23188 4.35984C7.58545 3.93556 8.21601 3.87824 8.64029 4.2318ZM10.0001 7.00003C10.0001 6.44774 10.4478 6.00003 11.0001 6.00003H20.0001C20.5524 6.00003 21.0001 6.44774 21.0001 7.00003C21.0001 7.55231 20.5524 8.00003 20.0001 8.00003H11.0001C10.4478 8.00003 10.0001 7.55231 10.0001 7.00003ZM8.64029 9.23168C9.06457 9.58525 9.12189 10.2158 8.76833 10.6401L6.26833 13.6401C5.94117 14.0327 5.37065 14.1154 4.94543 13.832L3.44543 12.832C2.98589 12.5257 2.8617 11.9048 3.16804 11.4453C3.47438 10.9858 4.09525 10.8616 4.55478 11.1679L5.30713 11.6694L7.23188 9.35972C7.58545 8.93544 8.21601 8.87812 8.64029 9.23168ZM10.0001 12C10.0001 11.4477 10.4478 11 11.0001 11H20.0001C20.5524 11 21.0001 11.4477 21.0001 12C21.0001 12.5523 20.5524 13 20.0001 13H11.0001C10.4478 13 10.0001 12.5523 10.0001 12ZM8.64029 14.2318C9.06457 14.5854 9.12189 15.2159 8.76833 15.6402L6.26833 18.6402C5.94116 19.0328 5.37062 19.1156 4.94541 18.8321L3.44541 17.8321C2.98588 17.5257 2.8617 16.9049 3.16806 16.4453C3.47441 15.9858 4.09528 15.8616 4.55481 16.168L5.30714 16.6695L7.23188 14.3598C7.58545 13.9356 8.21601 13.8782 8.64029 14.2318ZM10.0001 17C10.0001 16.4477 10.4478 16 11.0001 16H20.0001C20.5524 16 21.0001 16.4477 21.0001 17C21.0001 17.5523 20.5524 18 20.0001 18H11.0001C10.4478 18 10.0001 17.5523 10.0001 17Z" fill="#121212"/>
</svg>
