<svg width="24" height="24" viewBox="0 0 24 24" fill="none" xmlns="http://www.w3.org/2000/svg">
<path fill-rule="evenodd" clip-rule="evenodd" d="M11.4454 3.16795C11.7813 2.94402 12.2189 2.94402 12.5548 3.16795L21.5548 9.16795C21.833 9.35342 22.0001 9.66565 22.0001 10C22.0001 10.3344 21.833 10.6466 21.5548 10.8321L12.5548 16.8321C12.2189 17.056 11.7813 17.056 11.4454 16.8321L2.44541 10.8321C2.16721 10.6466 2.00011 10.3344 2.00011 10C2.00011 9.66565 2.16721 9.35342 2.44541 9.16795L11.4454 3.16795ZM4.80288 10L12.0001 14.7982L19.1973 10L12.0001 5.20185L4.80288 10ZM2.16806 13.4453C2.47441 12.9858 3.09528 12.8616 3.55481 13.1679L12.0001 18.7982L20.4454 13.1679C20.9049 12.8616 21.5258 12.9858 21.8322 13.4453C22.1385 13.9048 22.0143 14.5257 21.5548 14.8321L12.5548 20.8321C12.2189 21.056 11.7813 21.056 11.4454 20.8321L2.44541 14.8321C1.98588 14.5257 1.8617 13.9048 2.16806 13.4453Z" fill="#121212"/>
</svg>
