<svg width="24" height="24" viewBox="0 0 24 24" fill="none" xmlns="http://www.w3.org/2000/svg">
<path fill-rule="evenodd" clip-rule="evenodd" d="M12.0002 7C8.89501 7 6.04269 9.18967 4.29183 10.9303C3.80061 11.4186 3.74739 11.494 3.68349 11.6899C3.68349 11.6899 3.68067 11.6988 3.67678 11.7175C3.67293 11.736 3.66878 11.7602 3.66502 11.7902C3.6574 11.8508 3.65283 11.9231 3.65283 12C3.65283 12.0769 3.6574 12.1492 3.66502 12.2098C3.66878 12.2398 3.67293 12.264 3.67678 12.2825C3.68072 12.3014 3.68349 12.3101 3.68349 12.3101C3.74738 12.506 3.80059 12.5813 4.29183 13.0697C6.04269 14.8103 8.89501 17 12.0002 17C15.1053 17 17.9574 14.8103 19.7082 13.0697C20.1997 12.5811 20.2529 12.5059 20.3168 12.3101C20.3168 12.3101 20.3195 12.3014 20.3235 12.2825C20.3273 12.264 20.3315 12.2398 20.3352 12.2098C20.3428 12.1492 20.3474 12.0768 20.3474 12C20.3474 11.9231 20.3428 11.8508 20.3352 11.7902C20.3315 11.7602 20.3273 11.736 20.3235 11.7175C20.3195 11.6986 20.3168 11.6899 20.3168 11.6899C20.2529 11.4941 20.1997 11.4188 19.7082 10.9303C17.9574 9.18964 15.1053 7 12.0002 7ZM2.88177 9.51193C4.68978 7.7145 8.04405 5 12.0002 5C15.9563 5 19.3103 7.71453 21.1183 9.51193C21.1375 9.53099 21.1566 9.54995 21.1756 9.56884C21.6015 9.99133 21.9931 10.3797 22.2181 11.0696C22.3164 11.3708 22.3474 11.7149 22.3474 12C22.3474 12.2851 22.3164 12.6292 22.2181 12.9304C21.9931 13.6202 21.6016 14.0086 21.1757 14.4311C21.1566 14.45 21.1375 14.469 21.1183 14.488C19.3103 16.2855 15.9563 19 12.0002 19C8.04405 19 4.68978 16.2855 2.88177 14.488C2.86276 14.4691 2.8438 14.4503 2.82491 14.4316C2.39866 14.0088 2.00721 13.6204 1.7821 12.9304C1.68385 12.6292 1.65283 12.2851 1.65283 12C1.65283 11.7149 1.68385 11.3708 1.7821 11.0696C2.00722 10.3795 2.39868 9.99121 2.82496 9.56833C2.84383 9.54961 2.86277 9.53082 2.88177 9.51193ZM11.9999 11C11.4476 11 10.9999 11.4477 10.9999 12C10.9999 12.5523 11.4476 13 11.9999 13C12.5522 13 12.9999 12.5523 12.9999 12C12.9999 11.4477 12.5522 11 11.9999 11ZM8.99989 12C8.99989 10.3431 10.343 9 11.9999 9C13.6567 9 14.9999 10.3431 14.9999 12C14.9999 13.6569 13.6567 15 11.9999 15C10.343 15 8.99989 13.6569 8.99989 12Z" fill="#121212"/>
</svg>
