<svg width="24" height="24" viewBox="0 0 24 24" fill="none" xmlns="http://www.w3.org/2000/svg">
<path fill-rule="evenodd" clip-rule="evenodd" d="M19 2C19.5523 2 20 2.44772 20 3V8C20 8.55228 19.5523 9 19 9H14C13.4478 9 13 8.55228 13 8C13 7.44772 13.4478 7 14 7H16.8992C16.1357 6.25195 15.2069 5.68467 14.1808 5.34829C12.7583 4.88195 11.2234 4.88397 9.80203 5.35403C8.3807 5.82409 7.14758 6.7374 6.28356 7.95996C5.41959 9.18244 4.97043 10.6498 5.00178 12.1466C5.03313 13.6434 5.5434 15.0906 6.45782 16.2759C7.3723 17.4612 8.64239 18.3221 10.0821 18.7322C11.5219 19.1423 13.0554 19.0801 14.4571 18.5546C15.8589 18.0291 17.0553 17.068 17.8706 15.8125C18.1714 15.3493 18.7908 15.2177 19.254 15.5184C19.7171 15.8192 19.8488 16.4386 19.548 16.9018C18.4997 18.516 16.9615 19.7517 15.1592 20.4273C13.3569 21.1029 11.3853 21.183 9.53419 20.6556C7.68301 20.1283 6.05 19.0215 4.87431 17.4976C3.69855 15.9736 3.04253 14.1128 3.00222 12.1885C2.96191 10.2642 3.53935 8.37758 4.65027 6.80567C5.76115 5.23382 7.34661 4.05954 9.17405 3.45518C11.0015 2.85081 12.9748 2.84822 14.8038 3.4478C15.992 3.83732 17.0787 4.46765 18 5.29166V3C18 2.44772 18.4478 2 19 2Z" fill="#121212"/>
</svg>
