<svg width="24" height="24" viewBox="0 0 24 24" fill="none" xmlns="http://www.w3.org/2000/svg">
<path fill-rule="evenodd" clip-rule="evenodd" d="M7.41621 3.00004C7.44388 3.00007 7.47184 3.00009 7.50009 3.00009C7.52833 3.00009 7.55629 3.00007 7.58397 3.00004C7.96467 2.99974 8.2925 2.99948 8.58536 3.05773C9.77557 3.29448 10.7056 4.22492 10.9423 5.41486C11.0007 5.70824 11.0004 6.03644 11.0001 6.41861C11.0001 6.4455 11.0001 6.47266 11.0001 6.50009V17.5001C11.0001 17.5275 11.0001 17.5547 11.0001 17.5816C11.0004 17.9637 11.0007 18.292 10.9423 18.5854C10.7056 19.7753 9.77552 20.7057 8.58536 20.9424C8.2925 21.0007 7.9647 21.0004 7.584 21.0001C7.55633 21.0001 7.52837 21.0001 7.50013 21.0001C7.47189 21.0001 7.44393 21.0001 7.41626 21.0001C7.03556 21.0004 6.70772 21.0007 6.41486 20.9424C5.22484 20.7057 4.29446 19.7755 4.05773 18.5854C3.99948 18.2925 3.99974 17.9647 4.00004 17.584C4.00007 17.5563 4.00009 17.5283 4.00009 17.5001V6.50009C4.00009 6.47184 4.00007 6.44388 4.00004 6.41621C3.99974 6.03551 3.99948 5.70771 4.05773 5.41486C4.29445 4.22479 5.22479 3.29445 6.41486 3.05773C6.70771 2.99948 7.03551 2.99974 7.41621 3.00004ZM7.50009 5.00009C6.98751 5.00009 6.87729 5.00493 6.80504 5.0193C6.40835 5.09821 6.09821 5.40835 6.0193 5.80504C6.00493 5.87729 6.00009 5.98751 6.00009 6.50009V17.5001C6.00009 18.0127 6.00493 18.1229 6.0193 18.1952C6.0982 18.5918 6.4083 18.9019 6.80504 18.9809C6.87729 18.9952 6.98755 19.0001 7.50013 19.0001C8.01271 19.0001 8.12293 18.9952 8.19518 18.9809C8.59178 18.902 8.9018 18.592 8.98073 18.1952C8.99512 18.1228 9.00009 18.0121 9.00009 17.5001V6.50009C9.00009 5.98808 8.99512 5.87741 8.98073 5.80504C8.90179 5.40821 8.59173 5.09818 8.19518 5.0193C8.12293 5.00493 8.01267 5.00009 7.50009 5.00009ZM16.4162 3.00004C16.4439 3.00007 16.4718 3.00009 16.5001 3.00009C16.5283 3.00009 16.5563 3.00007 16.584 3.00004C16.9647 2.99974 17.2925 2.99948 17.5854 3.05773C18.7756 3.29448 19.7056 4.22492 19.9423 5.41486C20.0007 5.70824 20.0004 6.03644 20.0001 6.41861C20.0001 6.4455 20.0001 6.47266 20.0001 6.50009V17.5001C20.0001 17.5275 20.0001 17.5547 20.0001 17.5816C20.0004 17.9637 20.0007 18.292 19.9423 18.5854C19.7056 19.7753 18.7755 20.7057 17.5854 20.9424C17.2925 21.0007 16.9647 21.0004 16.584 21.0001C16.5563 21.0001 16.5284 21.0001 16.5001 21.0001C16.4719 21.0001 16.4439 21.0001 16.4163 21.0001C16.0356 21.0004 15.7077 21.0007 15.4149 20.9424C14.2248 20.7057 13.2945 19.7755 13.0577 18.5854C12.9995 18.2925 12.9997 17.9647 13 17.584C13.0001 17.5563 13.0001 17.5283 13.0001 17.5001V6.50009C13.0001 6.47184 13.0001 6.44388 13 6.41621C12.9997 6.03551 12.9995 5.70771 13.0577 5.41486C13.2945 4.22479 14.2248 3.29445 15.4149 3.05773C15.7077 2.99948 16.0355 2.99974 16.4162 3.00004ZM16.5001 5.00009C15.9875 5.00009 15.8773 5.00493 15.805 5.0193C15.4084 5.09821 15.0982 5.40835 15.0193 5.80504C15.0049 5.87729 15.0001 5.98751 15.0001 6.50009V17.5001C15.0001 18.0127 15.0049 18.1229 15.0193 18.1952C15.0982 18.5918 15.4083 18.9019 15.805 18.9809C15.8773 18.9952 15.9875 19.0001 16.5001 19.0001C17.0127 19.0001 17.1229 18.9952 17.1952 18.9809C17.5918 18.902 17.9018 18.592 17.9807 18.1952C17.9951 18.1228 18.0001 18.0121 18.0001 17.5001V6.50009C18.0001 5.98808 17.9951 5.87741 17.9807 5.80504C17.9018 5.40821 17.5917 5.09818 17.1952 5.0193C17.1229 5.00493 17.0127 5.00009 16.5001 5.00009Z" fill="#121212"/>
</svg>
