<svg width="24" height="24" viewBox="0 0 24 24" fill="none" xmlns="http://www.w3.org/2000/svg">
<path fill-rule="evenodd" clip-rule="evenodd" d="M10.873 5.07256C11.2421 5.02535 11.6181 5 11.9999 5C15.956 5 19.3103 7.7145 21.1183 9.51193C21.1375 9.53099 21.1566 9.54996 21.1756 9.56885C21.6016 9.99138 21.9932 10.3798 22.2182 11.0698C22.3165 11.3712 22.3474 11.7156 22.3473 12.0006C22.3471 12.2857 22.316 12.6297 22.2178 12.9306C21.9925 13.621 21.6005 14.0097 21.1732 14.4336C21.1544 14.4522 21.1356 14.4709 21.1166 14.4897C20.83 14.7746 20.5101 15.0769 20.1603 15.3845C19.7456 15.7493 19.1137 15.7088 18.749 15.2941C18.3843 14.8794 18.4248 14.2475 18.8395 13.8827C19.1557 13.6046 19.4459 13.3304 19.7067 13.0712C20.199 12.5819 20.2525 12.5061 20.3164 12.3102C20.3164 12.3102 20.317 12.3084 20.3183 12.3034C20.3196 12.2985 20.3213 12.2915 20.3232 12.2824C20.327 12.2639 20.3312 12.2396 20.335 12.2097C20.3426 12.1489 20.3472 12.0766 20.3473 11.9997C20.3473 11.9228 20.3428 11.8505 20.3352 11.7899C20.3314 11.76 20.3273 11.7358 20.3235 11.7174C20.3197 11.6992 20.3168 11.69 20.3168 11.69C20.2529 11.4942 20.1997 11.4189 19.7082 10.9303C17.9574 9.18967 15.1051 7 11.9999 7C11.7067 7 11.4155 7.01946 11.1268 7.0564C10.579 7.12648 10.0781 6.73919 10.008 6.19137C9.9379 5.64355 10.3252 5.14264 10.873 5.07256ZM8.03892 6.92792C8.31439 7.4066 8.14965 8.01796 7.67097 8.29343C6.31649 9.07289 5.15236 10.0749 4.29323 10.9289C3.8008 11.4183 3.74735 11.494 3.68347 11.6898C3.68347 11.6898 3.68072 11.6984 3.67678 11.7173C3.67293 11.7358 3.66878 11.76 3.66502 11.79C3.6574 11.8506 3.65283 11.923 3.65283 11.9998C3.65283 12.0767 3.65741 12.1491 3.66503 12.2098C3.66879 12.2397 3.67294 12.264 3.67679 12.2824C3.68074 12.3014 3.6835 12.3101 3.6835 12.3101C3.7474 12.506 3.80059 12.5813 4.29183 13.0697C6.04272 14.8103 8.89474 17 11.9999 17C13.406 17 14.7709 16.5515 16.0256 15.8756C16.5119 15.6137 17.1183 15.7955 17.3803 16.2817C17.6422 16.7679 17.4604 17.3744 16.9742 17.6364C15.5237 18.4177 13.831 19 11.9999 19C8.04374 19 4.68975 16.2855 2.88178 14.488C2.86278 14.4692 2.84385 14.4504 2.82498 14.4317C2.39864 14.0087 2.00721 13.6204 1.7821 12.9303C1.68386 12.6291 1.65284 12.285 1.65283 11.9999C1.65283 11.7148 1.68383 11.3706 1.78213 11.0694C2.00732 10.3792 2.39934 9.99041 2.82627 9.56697C2.84522 9.54818 2.86424 9.52932 2.88331 9.51036C3.81795 8.58137 5.11953 7.45418 6.67342 6.55997C7.1521 6.2845 7.76346 6.44924 8.03892 6.92792Z" fill="#121212"/>
<path d="M4.707 3.29289C4.31647 2.90237 3.68331 2.90237 3.29278 3.29289C2.90226 3.68342 2.90226 4.31658 3.29278 4.70711L9.29243 10.7068C9.10507 11.0984 8.99989 11.5372 8.99989 11.9999C8.99989 13.6568 10.343 14.9999 11.9999 14.9999C12.4624 14.9999 12.9013 14.8948 13.2931 14.7074L19.2928 20.7071C19.6833 21.0976 20.3165 21.0976 20.707 20.7071C21.0975 20.3166 21.0975 19.6834 20.707 19.2929L4.707 3.29289Z" fill="#121212"/>
</svg>
