<svg width="24" height="24" viewBox="0 0 24 24" fill="none" xmlns="http://www.w3.org/2000/svg">
<path fill-rule="evenodd" clip-rule="evenodd" d="M4 17C4 16.4477 4.44772 16 5 16H5.00195C5.55424 16 6.00195 16.4477 6.00195 17V17.002C6.00195 17.5514 5.55869 17.9979 5.00928 18.002L5.00732 18.002C4.74085 18.0039 4.48461 17.8994 4.29549 17.7117C4.10636 17.524 4 17.2685 4 17.002V17ZM6 17.002V17V17.002Z" fill="#121212"/>
<path fill-rule="evenodd" clip-rule="evenodd" d="M4 7C4 6.44772 4.44772 6 5 6H5.00195C5.55424 6 6.00195 6.44772 6.00195 7V7.002C6.00195 7.55143 5.55869 7.99795 5.00928 8.00197L5.00732 8.00199C4.74085 8.00394 4.48461 7.89945 4.29549 7.71171C4.10636 7.52396 4 7.2685 4 7.00201V7ZM6 7.00201V7V7.00201Z" fill="#121212"/>
<path fill-rule="evenodd" clip-rule="evenodd" d="M4 12C4 11.4477 4.44772 11 5 11H5.00195C5.55424 11 6.00195 11.4477 6.00195 12V12.002C6.00195 12.5514 5.55869 12.9979 5.00928 13.002L5.00732 13.002C4.74085 13.0039 4.48461 12.8994 4.29549 12.7117C4.10636 12.524 4 12.2685 4 12.002V12ZM6 12.002V12V12.002Z" fill="#121212"/>
<path fill-rule="evenodd" clip-rule="evenodd" d="M8 7C8 6.44772 8.44772 6 9 6H19C19.5523 6 20 6.44772 20 7C20 7.55228 19.5523 8 19 8H9C8.44772 8 8 7.55228 8 7ZM8 12C8 11.4477 8.44772 11 9 11H19C19.5523 11 20 11.4477 20 12C20 12.5523 19.5523 13 19 13H9C8.44772 13 8 12.5523 8 12ZM8 17C8 16.4477 8.44772 16 9 16H19C19.5523 16 20 16.4477 20 17C20 17.5523 19.5523 18 19 18H9C8.44772 18 8 17.5523 8 17Z" fill="#121212"/>
</svg>
