<svg width="20" height="20" viewBox="0 0 20 20" fill="none" xmlns="http://www.w3.org/2000/svg">
<path fill-rule="evenodd" clip-rule="evenodd" d="M10 0C4.47715 0 0 4.47715 0 10C0 15.5228 4.47715 20 10 20C15.5228 20 20 15.5228 20 10C20 4.47715 15.5228 0 10 0ZM11 6C11 5.44772 10.5523 5 10 5C9.44771 5 9 5.44772 9 6V9H6C5.44772 9 5 9.44771 5 10C5 10.5523 5.44772 11 6 11H9V14C9 14.5523 9.44771 15 10 15C10.5523 15 11 14.5523 11 14V11H14C14.5523 11 15 10.5523 15 10C15 9.44771 14.5523 9 14 9H11V6Z" fill="#121212"/>
</svg>
