<svg width="24" height="24" viewBox="0 0 24 24" fill="none" xmlns="http://www.w3.org/2000/svg">
<path fill-rule="evenodd" clip-rule="evenodd" d="M6.41621 4.00004C6.44388 4.00007 6.47184 4.00009 6.50009 4.00009H17.5001C17.5283 4.00009 17.5563 4.00007 17.584 4.00004C17.9647 3.99974 18.2925 3.99948 18.5854 4.05773C19.7756 4.29448 20.7056 5.22492 20.9423 6.41486C21.0006 6.70772 21.0003 7.03552 21 7.41621C21 7.44389 20.9999 7.47185 20.9999 7.50009C20.9999 7.52833 21 7.55628 21 7.58396C21.0003 7.96466 21.0006 8.2925 20.9423 8.58536C20.7056 9.77534 19.7755 10.7057 18.5854 10.9424C18.2924 11.0007 17.9645 11.0004 17.5836 11.0001C17.556 11.0001 17.5282 11.0001 17.5001 11.0001H6.50009C6.47197 11.0001 6.44414 11.0001 6.41659 11.0001C6.03566 11.0004 5.7078 11.0007 5.41486 10.9424C4.22484 10.7057 3.29446 9.77548 3.05773 8.58536C2.99948 8.2925 2.99974 7.96471 3.00004 7.58401C3.00007 7.55633 3.00009 7.52838 3.00009 7.50013C3.00009 7.47189 3.00007 7.44393 3.00004 7.41625C2.99974 7.03555 2.99948 6.70771 3.05773 6.41486C3.29445 5.22479 4.22479 4.29445 5.41486 4.05773C5.70771 3.99948 6.03551 3.99974 6.41621 4.00004ZM6.50009 6.00009C5.98751 6.00009 5.87729 6.00493 5.80504 6.0193C5.40835 6.09821 5.09821 6.40835 5.0193 6.80504C5.00493 6.87729 5.00009 6.98755 5.00009 7.50013C5.00009 8.01271 5.00493 8.12293 5.0193 8.19518C5.0982 8.59182 5.4083 8.90193 5.80504 8.98085C5.87731 8.99522 5.9876 9.00009 6.50009 9.00009H17.5001C18.0126 9.00009 18.1229 8.99522 18.1952 8.98085C18.5918 8.90196 18.9018 8.59196 18.9807 8.19518C18.9951 8.12293 18.9999 8.01267 18.9999 7.50009C18.9999 6.98751 18.9951 6.87729 18.9807 6.80504C18.9018 6.40822 18.5917 6.09818 18.1952 6.0193C18.1229 6.00493 18.0127 6.00009 17.5001 6.00009H6.50009ZM6.4162 13C6.44388 13.0001 6.47184 13.0001 6.50009 13.0001H17.5001C17.5283 13.0001 17.5563 13.0001 17.584 13C17.9647 12.9997 18.2925 12.9995 18.5854 13.0577C19.7756 13.2945 20.7056 14.2249 20.9423 15.4149C21.0006 15.7077 21.0003 16.0355 21 16.4162C21 16.4439 20.9999 16.4718 20.9999 16.5001C20.9999 16.5283 21 16.5563 21 16.584C21.0003 16.9647 21.0006 17.2925 20.9423 17.5854C20.7056 18.7753 19.7755 19.7057 18.5854 19.9424C18.2924 20.0007 17.9645 20.0004 17.5836 20.0001C17.556 20.0001 17.5282 20.0001 17.5001 20.0001H6.50009C6.47197 20.0001 6.44414 20.0001 6.41658 20.0001C6.03565 20.0004 5.7078 20.0007 5.41486 19.9424C4.22484 19.7057 3.29446 18.7755 3.05773 17.5854C2.99948 17.2925 2.99974 16.9647 3.00004 16.584C3.00007 16.5563 3.00009 16.5284 3.00009 16.5001C3.00009 16.4719 3.00007 16.4439 3.00004 16.4162C2.99974 16.0356 2.99948 15.7077 3.05773 15.4149C3.29445 14.2248 4.22479 13.2945 5.41486 13.0577C5.70771 12.9995 6.03551 12.9997 6.4162 13ZM6.50009 15.0001C5.98751 15.0001 5.87729 15.0049 5.80504 15.0193C5.40835 15.0982 5.09821 15.4084 5.0193 15.805C5.00493 15.8773 5.00009 15.9875 5.00009 16.5001C5.00009 17.0127 5.00493 17.1229 5.0193 17.1952C5.0982 17.5918 5.4083 17.9019 5.80504 17.9809C5.87731 17.9952 5.9876 18.0001 6.50009 18.0001H17.5001C18.0126 18.0001 18.1229 17.9952 18.1952 17.9809C18.5918 17.902 18.9018 17.592 18.9807 17.1952C18.9951 17.1229 18.9999 17.0127 18.9999 16.5001C18.9999 15.9875 18.9951 15.8773 18.9807 15.805C18.9018 15.4082 18.5917 15.0982 18.1952 15.0193C18.1229 15.0049 18.0127 15.0001 17.5001 15.0001H6.50009Z" fill="#121212"/>
</svg>
