<svg width="104" height="32" viewBox="0 0 104 32" fill="none" xmlns="http://www.w3.org/2000/svg">
<rect width="104" height="32" fill="#FF0099" fill-opacity="0.4"/>
<g clip-path="url(#clip0_12771_8346)">
<mask id="mask0_12771_8346" style="mask-type:alpha" maskUnits="userSpaceOnUse" x="0" y="0" width="32" height="32">
<path d="M0 7.1875C0 3.21795 3.21795 0 7.1875 0H24.8125C28.782 0 32 3.21795 32 7.1875V24.8125C32 28.782 28.782 32 24.8125 32H7.1875C3.21795 32 0 28.782 0 24.8125V7.1875Z" fill="black"/>
</mask>
<g mask="url(#mask0_12771_8346)">
<rect width="32" height="32" fill="url(#paint0_linear_12771_8346)"/>
<path d="M25.9735 8.39089L25.5559 8.18206C22.528 6.77245 19.3435 6.09375 16.0024 6.09375C12.6613 6.09375 9.42457 6.82466 6.44889 8.18206L6.03125 8.39089V9.06959C6.03125 16.4309 9.63339 23.3745 15.5848 27.6555L16.0024 27.9688L16.42 27.6555C22.3714 23.3745 25.9735 16.4309 25.9735 9.06959V8.39089ZM16.0024 26.1937V7.50336C18.9781 7.55556 21.8494 8.12985 24.564 9.33062C24.4596 15.961 21.2751 22.2259 16.0024 26.1937Z" fill="white"/>
</g>
</g>
<path d="M43.344 10.832V22H41.104V10.832H43.344ZM49.1411 10.832C50.3145 10.832 51.3438 11.0613 52.2291 11.52C53.1251 11.9787 53.8131 12.6347 54.2931 13.488C54.7838 14.3307 55.0291 15.312 55.0291 16.432C55.0291 17.552 54.7838 18.5333 54.2931 19.376C53.8131 20.208 53.1251 20.8533 52.2291 21.312C51.3438 21.7707 50.3145 22 49.1411 22H45.2371V10.832H49.1411ZM49.0611 20.096C50.2345 20.096 51.1411 19.776 51.7811 19.136C52.4211 18.496 52.7411 17.5947 52.7411 16.432C52.7411 15.2693 52.4211 14.3627 51.7811 13.712C51.1411 13.0507 50.2345 12.72 49.0611 12.72H47.4771V20.096H49.0611ZM60.2419 22.112C59.4632 22.112 58.7592 21.9787 58.1299 21.712C57.5112 21.4453 57.0205 21.0613 56.6579 20.56C56.2952 20.0587 56.1085 19.4667 56.0979 18.784H58.4979C58.5299 19.2427 58.6899 19.6053 58.9779 19.872C59.2765 20.1387 59.6819 20.272 60.1939 20.272C60.7165 20.272 61.1272 20.1493 61.4259 19.904C61.7245 19.648 61.8739 19.3173 61.8739 18.912C61.8739 18.5813 61.7725 18.3093 61.5699 18.096C61.3672 17.8827 61.1112 17.7173 60.8019 17.6C60.5032 17.472 60.0872 17.3333 59.5539 17.184C58.8285 16.9707 58.2365 16.7627 57.7779 16.56C57.3299 16.3467 56.9405 16.032 56.6099 15.616C56.2899 15.1893 56.1299 14.624 56.1299 13.92C56.1299 13.2587 56.2952 12.6827 56.6259 12.192C56.9565 11.7013 57.4205 11.328 58.0179 11.072C58.6152 10.8053 59.2979 10.672 60.0659 10.672C61.2179 10.672 62.1512 10.9547 62.8659 11.52C63.5912 12.0747 63.9912 12.8533 64.0659 13.856H61.6019C61.5805 13.472 61.4152 13.1573 61.1059 12.912C60.8072 12.656 60.4072 12.528 59.9059 12.528C59.4685 12.528 59.1165 12.64 58.8499 12.864C58.5939 13.088 58.4659 13.4133 58.4659 13.84C58.4659 14.1387 58.5619 14.3893 58.7539 14.592C58.9565 14.784 59.2019 14.944 59.4899 15.072C59.7885 15.1893 60.2045 15.328 60.7379 15.488C61.4632 15.7013 62.0552 15.9147 62.5139 16.128C62.9725 16.3413 63.3672 16.6613 63.6979 17.088C64.0285 17.5147 64.1939 18.0747 64.1939 18.768C64.1939 19.3653 64.0392 19.92 63.7299 20.432C63.4205 20.944 62.9672 21.3547 62.3699 21.664C61.7725 21.9627 61.0632 22.112 60.2419 22.112ZM70.8079 13.008C71.4799 13.008 72.0772 13.1573 72.5999 13.456C73.1225 13.744 73.5279 14.176 73.8159 14.752C74.1145 15.3173 74.2639 16 74.2639 16.8V22H72.0239V17.104C72.0239 16.4 71.8479 15.8613 71.4959 15.488C71.1439 15.104 70.6639 14.912 70.0559 14.912C69.4372 14.912 68.9465 15.104 68.5839 15.488C68.2319 15.8613 68.0559 16.4 68.0559 17.104V22H65.8159V10.16H68.0559V14.24C68.3439 13.856 68.7279 13.5573 69.2079 13.344C69.6879 13.12 70.2212 13.008 70.8079 13.008ZM77.21 12.08C76.8153 12.08 76.4847 11.9573 76.218 11.712C75.962 11.456 75.834 11.1413 75.834 10.768C75.834 10.3947 75.962 10.0853 76.218 9.84C76.4847 9.584 76.8153 9.456 77.21 9.456C77.6047 9.456 77.93 9.584 78.186 9.84C78.4527 10.0853 78.586 10.3947 78.586 10.768C78.586 11.1413 78.4527 11.456 78.186 11.712C77.93 11.9573 77.6047 12.08 77.21 12.08ZM78.314 13.136V22H76.074V13.136H78.314ZM88.4471 17.376C88.4471 17.696 88.4258 17.984 88.3831 18.24H81.9031C81.9565 18.88 82.1805 19.3813 82.5751 19.744C82.9698 20.1067 83.4551 20.288 84.0311 20.288C84.8631 20.288 85.4551 19.9307 85.8071 19.216H88.2231C87.9671 20.0693 87.4765 20.7733 86.7511 21.328C86.0258 21.872 85.1351 22.144 84.0791 22.144C83.2258 22.144 82.4578 21.9573 81.7751 21.584C81.1031 21.2 80.5751 20.6613 80.1911 19.968C79.8178 19.2747 79.6311 18.4747 79.6311 17.568C79.6311 16.6507 79.8178 15.8453 80.1911 15.152C80.5645 14.4587 81.0871 13.9253 81.7591 13.552C82.4311 13.1787 83.2045 12.992 84.0791 12.992C84.9218 12.992 85.6738 13.1733 86.3351 13.536C87.0071 13.8987 87.5245 14.416 87.8871 15.088C88.2605 15.7493 88.4471 16.512 88.4471 17.376ZM86.1271 16.736C86.1165 16.16 85.9085 15.7013 85.5031 15.36C85.0978 15.008 84.6018 14.832 84.0151 14.832C83.4605 14.832 82.9911 15.0027 82.6071 15.344C82.2338 15.6747 82.0045 16.1387 81.9191 16.736H86.1271ZM92.0021 10.16V22H89.7621V10.16H92.0021ZM93.3192 17.536C93.3192 16.64 93.4952 15.8453 93.8472 15.152C94.2099 14.4587 94.7006 13.9253 95.3192 13.552C95.9379 13.1787 96.6259 12.992 97.3832 12.992C97.9592 12.992 98.5086 13.12 99.0312 13.376C99.5539 13.6213 99.9699 13.952 100.279 14.368V10.16H102.551V22H100.279V20.688C100.002 21.1253 99.6126 21.4773 99.1112 21.744C98.6099 22.0107 98.0286 22.144 97.3672 22.144C96.6206 22.144 95.9379 21.952 95.3192 21.568C94.7006 21.184 94.2099 20.6453 93.8472 19.952C93.4952 19.248 93.3192 18.4427 93.3192 17.536ZM100.295 17.568C100.295 17.024 100.189 16.56 99.9752 16.176C99.7619 15.7813 99.4739 15.4827 99.1112 15.28C98.7486 15.0667 98.3592 14.96 97.9432 14.96C97.5272 14.96 97.1432 15.0613 96.7912 15.264C96.4392 15.4667 96.1512 15.7653 95.9272 16.16C95.7139 16.544 95.6072 17.0027 95.6072 17.536C95.6072 18.0693 95.7139 18.5387 95.9272 18.944C96.1512 19.3387 96.4392 19.6427 96.7912 19.856C97.1539 20.0693 97.5379 20.176 97.9432 20.176C98.3592 20.176 98.7486 20.0747 99.1112 19.872C99.4739 19.6587 99.7619 19.36 99.9752 18.976C100.189 18.5813 100.295 18.112 100.295 17.568Z" fill="white"/>
<defs>
<linearGradient id="paint0_linear_12771_8346" x1="0" y1="0" x2="0" y2="32" gradientUnits="userSpaceOnUse">
<stop stop-color="#7C90F4"/>
<stop offset="1" stop-color="#3050F0"/>
</linearGradient>
<clipPath id="clip0_12771_8346">
<rect width="32" height="32" fill="white"/>
</clipPath>
</defs>
</svg>
