<svg width="32" height="24" viewBox="0 0 32 24" fill="none" xmlns="http://www.w3.org/2000/svg">
<path fill-rule="evenodd" clip-rule="evenodd" d="M31.8649 11.9275C31.9007 11.9996 31.8712 12.087 31.7991 12.1228L8.89251 23.476C8.23082 23.8039 7.46594 23.8556 6.76616 23.6196C6.06637 23.3836 5.48899 22.8793 5.16103 22.2176L0.125303 12.0573C0.0895602 11.9852 0.119045 11.8978 0.19116 11.862L23.0977 0.508866C23.7594 0.180911 24.5243 0.129246 25.2241 0.365235C25.9238 0.601224 26.5012 1.10554 26.8292 1.76723L31.8649 11.9275C31.8648 11.9273 31.865 11.9277 31.8649 11.9275ZM31.539 11.9264L26.568 1.89666C26.2744 1.30423 25.7575 0.852707 25.1309 0.64142C24.5044 0.430133 23.8196 0.47639 23.2271 0.770017L0.451172 12.0585L5.42218 22.0882C5.71581 22.6806 6.23275 23.1321 6.85929 23.3434C7.48583 23.5547 8.17064 23.5084 8.76308 23.2148L31.539 11.9264Z" fill="black"/>
<path fill-rule="evenodd" clip-rule="evenodd" d="M23.2203 23.2292C23.8126 23.5231 24.4974 23.5698 25.124 23.3589C25.7507 23.148 26.2679 22.6968 26.5619 22.1045L31.539 12.0779L8.76988 0.775583C8.17763 0.481596 7.49284 0.434922 6.86618 0.645829C6.23951 0.856735 5.72229 1.30795 5.42831 1.9002L0.451205 11.9269L23.2203 23.2292ZM23.0907 23.4902C23.7522 23.8186 24.5171 23.8707 25.217 23.6351C25.9169 23.3996 26.4946 22.8956 26.823 22.2341L31.8649 12.0769C31.9007 12.0048 31.8712 11.9174 31.7991 11.8816L8.89948 0.514511C8.23798 0.186153 7.47314 0.134023 6.77321 0.369587C6.07328 0.605152 5.49559 1.10911 5.16724 1.77061L0.125337 11.9278C0.0895511 11.9999 0.118983 12.0874 0.191076 12.1231L23.0907 23.4902Z" fill="black"/>
<path d="M8.78857 10.1975H10.2426C11.0352 10.1975 11.6966 10.7944 11.6966 11.5464C11.6966 12.2889 11.0496 12.912 10.2426 12.912H9.81051V14.0462H8.78857V10.1975ZM10.7106 11.5512C10.7083 11.493 10.6942 11.4359 10.6691 11.3833C10.6441 11.3307 10.6086 11.2838 10.5648 11.2454C10.521 11.207 10.4699 11.1779 10.4145 11.1598C10.3591 11.1418 10.3006 11.1352 10.2426 11.1405H9.81051V11.969L10.2426 11.9714C10.3013 11.9763 10.3604 11.9692 10.4162 11.9504C10.472 11.9316 10.5234 11.9017 10.5673 11.8623C10.6111 11.823 10.6464 11.7751 10.6711 11.7216C10.6957 11.6681 10.7092 11.6101 10.7106 11.5512Z" fill="black"/>
<path d="M12.327 10.1975H13.781C14.5737 10.1975 15.2351 10.7944 15.2351 11.5464C15.2351 12.2889 14.588 12.912 13.781 12.912H13.3489V14.0462H12.327V10.1975ZM14.249 11.5512C14.2467 11.493 14.2326 11.4359 14.2076 11.3833C14.1825 11.3307 14.147 11.2838 14.1032 11.2454C14.0594 11.207 14.0083 11.1779 13.9529 11.1598C13.8975 11.1418 13.839 11.1352 13.781 11.1405H13.3489V11.969L13.781 11.9714C13.8397 11.9763 13.8988 11.9692 13.9546 11.9504C14.0105 11.9316 14.0619 11.9017 14.1057 11.8623C14.1495 11.823 14.1848 11.7751 14.2095 11.7216C14.2341 11.6681 14.2476 11.6101 14.249 11.5512Z" fill="black"/>
<path d="M18.3604 13.0864V14.0462H15.8654V10.1975H16.8874V13.0864L18.3604 13.0864Z" fill="black"/>
<path d="M18.7902 13.3943L19.4087 12.788C19.4986 12.9094 19.6165 13.0074 19.7525 13.0735C19.8884 13.1396 20.0383 13.1719 20.1893 13.1675C20.4066 13.1675 20.6191 13.0887 20.6191 12.9312C20.6191 12.733 20.2252 12.5588 19.8479 12.3916C19.3609 12.1815 18.943 11.8616 18.943 11.2814C18.943 10.6153 19.5758 10.1401 20.3063 10.1401C20.8937 10.1401 21.3521 10.4171 21.5026 10.7967L20.9128 11.365C20.7982 11.1621 20.5021 11.0737 20.3182 11.0737C20.1082 11.0737 19.9578 11.1811 19.9578 11.3125C19.9578 11.4891 20.2299 11.5464 20.6454 11.7207C21.247 11.9738 21.6458 12.3415 21.6458 12.9097C21.6458 13.6427 20.9629 14.0987 20.1917 14.0987C19.5591 14.0987 18.9836 13.8194 18.7902 13.3943Z" fill="black"/>
<path d="M22.3096 10.1975H23.3315V14.0462H22.3096V10.1975Z" fill="black"/>
</svg>
