<svg width="211" height="24" viewBox="0 0 211 24" fill="none" xmlns="http://www.w3.org/2000/svg">
<g clip-path="url(#clip0_12788_7761)">
<path d="M134.13 5H135.13V11H141.13V12H135.13V18H134.13V12H128.13V11H134.13V5Z" fill="#121212"/>
<path d="M150.13 5.42859H152.187V18.1715H150.13V5.42859Z" fill="#121212"/>
<path d="M158.359 5.42859C162.015 5.42859 165.101 8.00003 165.101 11.8286C165.101 15.6572 162.015 18.2286 158.359 18.2286H153.958V5.42859H158.359ZM158.359 16.2286C160.93 16.2286 163.044 14.5143 163.044 11.8286C163.044 9.14287 160.873 7.37147 158.359 7.37147H156.073V16.1715L158.359 16.2286Z" fill="#121212"/>
<path d="M169.901 16.4C170.872 16.4 172.644 16 172.644 14.7429C172.644 12 165.844 13.3715 165.844 8.80004C165.844 6.17143 168.472 5.20001 170.701 5.20001C172.015 5.25718 173.273 5.54287 174.473 6.11431L173.73 7.94287C172.758 7.48576 171.73 7.25718 170.701 7.20002C169.615 7.20002 167.958 7.42859 167.958 8.85717C167.901 11.6572 174.701 10.2286 174.701 14.8C174.701 17.3715 172.073 18.4572 169.844 18.4572C168.415 18.4 167.044 18 165.787 17.4286L166.587 15.6C167.672 16.0572 168.758 16.3429 169.901 16.4Z" fill="#121212"/>
<path d="M178.015 10.5715C178.472 9.48573 179.558 8.80004 180.701 8.85717C183.101 8.85717 184.015 10.9143 184.015 13.0286V18.1715H182.015V13.0858C182.015 11.7715 181.386 10.7429 180.015 10.7429C178.644 10.7429 178.015 11.7715 178.015 13.0858V18.2286H176.015V5.42859H178.015V10.5715Z" fill="#121212"/>
<path d="M185.215 5.42859H187.273V7.71429H185.273L185.215 5.42859ZM185.215 9.08574H187.273V18.2286H185.273L185.215 9.08574Z" fill="#121212"/>
<path d="M188.244 13.6571C188.244 11.0857 190.358 8.97138 192.93 8.97138C195.501 8.97138 197.615 11.0857 197.615 13.6571C197.615 13.9428 197.615 14.2857 197.558 14.5714H190.301C190.587 15.8285 191.73 16.6857 192.987 16.6285C193.958 16.6285 194.873 16.2285 195.501 15.4857L196.873 16.6857C193.901 19.9428 188.244 18.2285 188.244 13.6571ZM195.501 12.8571C194.816 10.1142 190.816 10.1142 190.301 12.8571H195.501Z" fill="#121212"/>
<path d="M198.701 5.42859H200.701V18.1715H198.701V5.42859Z" fill="#121212"/>
<path d="M205.901 18.3428C203.329 18.2857 201.329 16.1714 201.387 13.6571C201.387 13.6571 201.387 13.6571 201.387 13.6C201.387 11.1428 203.329 8.85709 205.901 8.85709C207.101 8.85709 208.244 9.42852 208.93 10.4571V5.37139H210.93V18.1142H208.93V16.6857C208.244 17.7714 207.101 18.4 205.901 18.3428ZM206.187 16.5143C207.73 16.5143 208.987 15.3143 208.987 13.7714C208.987 13.7142 208.987 13.7142 208.987 13.6571C208.987 12.1143 207.787 10.8 206.187 10.8C204.587 10.8 203.329 12.0571 203.329 13.6571C203.329 15.2571 204.587 16.5143 206.187 16.5143Z" fill="#121212"/>
<g clip-path="url(#clip1_12788_7761)">
<path d="M21.8682 2.52029L21.4102 2.29117C18.0899 0.74463 14.5979 0 10.9341 0C7.27034 0 3.72102 0.80191 0.457976 2.29117L0 2.52029V3.26492C0 11.3413 3.95001 18.9594 10.4761 23.6564L10.9341 24L11.3921 23.6564C17.9182 18.9594 21.8682 11.3413 21.8682 3.26492V2.52029ZM10.9341 22.0525V1.54654C14.1972 1.60382 17.3457 2.23389 20.3225 3.55131C20.208 10.8258 16.716 17.6993 10.9341 22.0525Z" fill="#121212"/>
<path d="M35.6646 16.2669H31.5428V5.44115H29.4819V18.2144H37.0385C36.466 17.6989 36.008 17.0115 35.6646 16.2669Z" fill="#121212"/>
<path d="M36.6947 13.6897C36.6947 11.0549 38.7556 8.93557 41.3889 8.93557C44.0223 8.93557 46.0831 11.0549 46.0831 13.6897C46.0831 13.9761 46.0831 14.3198 46.0258 14.6062H38.7556C39.0418 15.8663 40.1867 16.611 41.4461 16.611C42.4193 16.611 43.3353 16.21 43.965 15.4654L45.3389 16.6682C42.3621 19.9904 36.6947 18.3293 36.6947 13.6897ZM43.965 12.8878C43.2781 10.1384 39.2708 10.1384 38.7556 12.8878H43.965Z" fill="#121212"/>
<path d="M51.3498 18.444C48.7737 18.444 46.8273 16.2674 46.8273 13.7471C46.8273 11.2841 48.7737 8.9929 51.3498 8.9929C52.6092 8.9929 53.6397 9.5657 54.3839 10.5967V9.16479H56.3875V17.2412C56.3875 20.2769 54.8418 22.2817 51.6933 22.2817C49.6896 22.2817 48.0867 21.308 47.1708 19.5323L48.8882 18.6158C49.4034 19.7614 50.4339 20.3915 51.6933 20.3915C53.6969 20.3915 54.3839 19.0168 54.4411 17.1839V16.7829C53.6397 17.8712 52.6092 18.444 51.3498 18.444ZM51.636 16.5538C53.2389 16.5538 54.4411 15.2936 54.4411 13.6899C54.4411 12.086 53.2389 10.8259 51.636 10.8259C50.0331 10.8259 48.8309 12.1433 48.8309 13.6899C48.8309 15.2936 50.0331 16.5538 51.636 16.5538Z" fill="#121212"/>
<path d="M61.8837 18.444C59.3076 18.444 57.3613 16.2674 57.3613 13.7471C57.3613 11.2841 59.3076 8.9929 61.8837 8.9929C63.1432 8.9929 64.1735 9.5657 64.9179 10.5967V9.16479H66.9212V18.2722H64.9179V16.8402C64.1735 17.8712 63.1432 18.444 61.8837 18.444ZM62.2272 16.5538C63.8303 16.5538 65.0325 15.2936 65.0325 13.6899C65.0325 12.086 63.8303 10.8259 62.2272 10.8259C60.6243 10.8259 59.4221 12.1433 59.4221 13.6899C59.3648 15.2936 60.6243 16.5538 62.2272 16.5538Z" fill="#121212"/>
<path d="M68.8105 5.44115H70.8137V18.2144H68.8105V5.44115Z" fill="#121212"/>
<path d="M76.5962 16.4963C77.5692 16.4963 79.3439 16.0954 79.3439 14.8352C79.3439 12.0858 72.5317 13.4606 72.5317 8.87823C72.5317 6.24335 75.1074 5.26965 77.3973 5.26965C78.5995 5.26965 80.0309 5.67056 81.1758 6.18608L80.4314 8.01901C79.5158 7.6181 78.4282 7.27439 77.3973 7.27439C76.3097 7.27439 74.6496 7.50349 74.6496 8.9355C74.6496 11.7422 81.4617 10.3102 81.4617 14.8925C81.4617 17.4701 78.8287 18.5012 76.5962 18.5012C75.2221 18.5012 73.7913 17.9856 72.5317 17.4701L73.3328 15.6372C74.3064 16.0381 75.5653 16.4963 76.5962 16.4963Z" fill="#121212"/>
<path d="M84.8398 10.6536C85.2976 9.50797 86.3279 8.93517 87.5301 8.93517C89.9346 8.93517 90.7929 10.9973 90.7929 13.1166V18.2144H88.9043V13.1166C88.9043 11.7991 88.2745 10.7681 86.9004 10.7681C85.5262 10.7681 84.8965 11.7991 84.8965 13.1166V18.2144H82.8932V5.44115H84.8965V10.6536H84.8398Z" fill="#121212"/>
<path d="M92.6249 5.44115H94.6288V7.73232H92.6249V5.44115ZM92.6249 9.10706H94.6288V18.2144H92.6249V9.10706Z" fill="#121212"/>
<path d="M96.0023 13.6897C96.0023 11.0549 98.0629 8.93557 100.697 8.93557C103.33 8.93557 105.391 11.0549 105.391 13.6897C105.391 13.9761 105.391 14.3198 105.334 14.6062H98.0629C98.3494 15.8663 99.4943 16.611 100.754 16.611C101.727 16.611 102.643 16.21 103.272 15.4654L104.646 16.6682C101.67 19.9904 96.0023 18.3293 96.0023 13.6897ZM103.33 12.8878C102.643 10.1384 98.6353 10.1384 98.1202 12.8878H103.33Z" fill="#121212"/>
<path d="M106.592 5.44115H108.596V18.2144H106.592V5.44115Z" fill="#121212"/>
<path d="M114.092 18.4434C111.516 18.4434 109.57 16.2667 109.57 13.7464C109.57 11.2834 111.516 8.99225 114.092 8.99225C115.352 8.99225 116.382 9.56505 117.126 10.5961V5.49823H119.13V18.2715H117.126V16.8395C116.382 17.8706 115.352 18.4434 114.092 18.4434ZM114.435 16.5531C116.039 16.5531 117.241 15.293 117.241 13.6891C117.241 12.0854 116.039 10.8252 114.435 10.8252C112.833 10.8252 111.631 12.1426 111.631 13.6891C111.573 15.293 112.833 16.5531 114.435 16.5531Z" fill="#121212"/>
</g>
</g>
<defs>
<clipPath id="clip0_12788_7761">
<rect width="211" height="24" fill="white"/>
</clipPath>
<clipPath id="clip1_12788_7761">
<rect width="124" height="24" fill="white"/>
</clipPath>
</defs>
</svg>
