<svg width="106" height="24" viewBox="0 0 106 24" fill="none" xmlns="http://www.w3.org/2000/svg">
<path d="M12.3035 15.071C12.113 15.071 11.9584 14.9165 11.9584 14.7261V12.8201C11.9584 12.6296 12.113 12.4752 12.3035 12.4752C12.4939 12.4752 12.6485 12.6296 12.6485 12.8201V14.7261C12.6485 14.9165 12.4939 15.071 12.3035 15.071ZM11.3343 15.1833V12.8201C11.3343 12.6296 11.1797 12.4752 10.9893 12.4752C10.7988 12.4752 10.6442 12.6296 10.6442 12.8201V15.1833C10.6442 15.3737 10.7988 15.5281 10.9893 15.5281C11.1797 15.5281 11.3343 15.3737 11.3343 15.1833ZM10.0198 16.0078V12.8201C10.0198 12.6296 9.8652 12.4752 9.67475 12.4752C9.4843 12.4752 9.32971 12.6296 9.32971 12.8201V16.0078C9.32971 16.1983 9.4843 16.3527 9.67475 16.3527C9.8652 16.3527 10.0198 16.1983 10.0198 16.0078ZM14.8219 12.4578C14.8071 12.5706 14.7377 12.669 14.6362 12.7205C14.5868 12.7455 14.5334 12.7578 14.4799 12.7578C14.4228 12.7578 14.3659 12.7438 14.3145 12.7155L13.0575 12.0276C13.014 12.0473 12.9677 12.061 12.9175 12.061H8.99921C8.94906 12.061 8.9028 12.0473 8.85933 12.0277L7.60247 12.7156C7.55106 12.7438 7.49422 12.7578 7.43706 12.7578C7.38361 12.7578 7.33016 12.7455 7.28078 12.7205C7.17929 12.669 7.10995 12.5706 7.09506 12.4578C7.08593 12.3871 6.87248 10.7153 7.25067 9.75446C7.54488 9.00738 8.08976 8.50682 8.34681 8.30077C8.41281 5.76895 9.22882 3.8348 10.7538 2.71158C10.8756 2.62193 11.0414 2.62193 11.1632 2.71158C12.6882 3.83478 13.5042 5.76891 13.5701 8.30066C13.8271 8.50663 14.372 9.00723 14.6663 9.75446C15.0445 10.7153 14.8311 12.3871 14.8219 12.4578ZM7.73339 11.8577L8.5932 11.3871C8.4655 10.641 8.38668 9.92812 8.35683 9.25206C8.18702 9.45105 8.01187 9.70441 7.89272 10.0071C7.70362 10.4872 7.69956 11.2894 7.73339 11.8577ZM12.6303 11.3712C13.2838 7.67407 12.6939 4.874 10.9585 3.42736C9.22349 4.874 8.63286 7.67407 9.28641 11.3712H12.6303ZM14.0243 10.0072C13.9042 9.70205 13.7293 9.44843 13.5601 9.25003C13.5302 9.92666 13.4513 10.6401 13.3235 11.387L14.1836 11.8577C14.2174 11.2894 14.2134 10.4872 14.0243 10.0072ZM12.316 7.30704C12.316 8.05547 11.7071 8.66437 10.9585 8.66437C10.2099 8.66437 9.601 8.05547 9.601 7.30704C9.601 6.55861 10.2099 5.94988 10.9585 5.94988C11.7071 5.94988 12.316 6.55861 12.316 7.30704ZM11.6259 7.30704C11.6259 6.939 11.3265 6.63963 10.9585 6.63963C10.5905 6.63963 10.2911 6.939 10.2911 7.30704C10.2911 7.67508 10.5905 7.97463 10.9585 7.97463C11.3265 7.97463 11.6259 7.67508 11.6259 7.30704ZM21.4578 2.24292C18.1302 0.751167 14.5443 0.00535437 10.9584 0.0125021C7.37253 0.00535437 3.78669 0.751167 0.45904 2.24292L0 2.47237V3.21823C0 11.308 3.90145 18.9387 10.4995 23.6434L10.9584 23.9876L11.4174 23.6434C12.9684 22.5374 14.5574 21.0741 15.7948 19.6768C16.4162 18.9496 16.5255 17.9279 16.1397 17.097C15.123 15.0554 12.2979 15.3992 11.3596 17.3218C11.2806 17.4611 11.2107 17.599 11.1464 17.7403C11.0883 17.7025 11.0276 17.6663 10.9631 17.6312C10.4372 17.3111 9.84131 17.4157 9.31394 17.6646C9.13998 15.7335 7.48459 13.8679 5.53621 15.138L5.96984 15.9769C6.61696 15.5282 7.30763 15.5532 7.81995 16.1727C8.2921 16.74 8.65481 17.668 8.42838 18.3933C8.4154 18.4995 8.46716 18.6549 8.58551 18.7458C8.80416 18.9137 9.02768 18.8199 9.21656 18.6795C9.63345 18.4152 10.0992 18.0769 10.5809 18.3549C10.8196 18.4529 10.9593 18.6996 11.1813 18.8009C11.4005 18.8771 11.64 18.7581 11.7123 18.5378C12.05 17.5446 12.8941 16.4269 14.0501 16.6605C14.5701 16.7515 14.9663 17.0849 15.071 17.5193C15.1795 17.8928 14.94 18.2654 14.7142 18.5542C13.6106 19.8499 12.3446 21.0479 10.9584 22.0943C7.71767 19.6478 5.21993 16.4428 3.613 12.8339C4.02802 12.74 4.42228 12.7563 4.74313 12.8926C5.16226 13.0709 5.47381 13.4491 5.66933 14.0169L6.65168 13.6786C6.36076 12.8329 5.84117 12.2305 5.14974 11.9363C4.5718 11.6907 3.89964 11.6691 3.21041 11.8627C2.17288 9.22527 1.59464 6.3985 1.5491 3.50511C4.53256 2.18551 7.74549 1.55442 10.9584 1.55442C14.1714 1.55442 17.3843 2.18552 20.3678 3.50511C20.3111 7.10336 19.4408 10.6026 17.8718 13.7563C17.6098 13.5004 17.3097 13.296 16.9982 13.1743C16.0899 12.8197 14.9712 13.0129 14.2774 13.6446L14.977 14.4132C15.3839 14.0429 16.049 14.0179 16.62 14.1422C17.3616 14.3037 17.8484 14.931 18.1227 15.4144C18.223 15.6245 18.323 15.8292 18.399 16.0079C18.5338 15.7877 18.6138 15.6607 18.704 15.5048L18.7308 15.4605L18.7305 15.4585C18.775 15.3804 18.8231 15.2939 18.8826 15.1833C20.8302 11.5629 21.9168 7.20962 21.9168 3.21823V2.47237L21.4578 2.24292ZM57.154 8.92353H55.1863V18.0001H57.154V12.9211C57.154 11.6536 57.7744 10.6076 59.1485 10.6076C60.549 10.6076 61.1518 11.6358 61.1518 12.9211V18.0001H63.1195V12.9033C63.1195 10.8204 62.2241 8.75507 59.8487 8.75507C58.6431 8.75507 57.6063 9.32236 57.154 10.4659V8.92353ZM73.4819 15.7493V16.963C73.4819 20.0034 71.9484 21.9799 68.793 21.9799C66.7986 21.9799 65.212 21.0314 64.2723 19.2677L66.0009 18.3636C66.5151 19.5159 67.5431 20.1363 68.793 20.1363C70.7875 20.1363 71.4877 18.7712 71.5141 16.963V16.5907C70.7963 17.6191 69.7771 18.1774 68.5183 18.1774C65.9299 18.1774 64.042 16.0058 64.042 13.4796C64.042 11.0242 65.9921 8.75508 68.5183 8.75508C69.7771 8.75508 70.8051 9.30461 71.5141 10.333V8.92354H73.4819V11.2756C73.1933 11.9561 73.03 12.7017 73.03 13.4795C73.03 14.2932 73.1928 15.0589 73.4819 15.7493ZM71.6295 13.4706C71.6295 11.9017 70.4063 10.6076 68.8197 10.6076C67.2241 10.6076 66.0009 11.8929 66.0009 13.4706C66.0009 15.0573 67.2241 16.316 68.8197 16.316C70.4063 16.316 71.6295 15.0485 71.6295 13.4706ZM81.3681 18.0001V16.5907C80.6503 17.6191 79.6311 18.1774 78.3724 18.1774C75.7839 18.1774 73.896 16.0058 73.896 13.4796C73.896 11.0242 75.8461 8.75508 78.3724 8.75508C79.6311 8.75508 80.6591 9.30461 81.3681 10.333V8.92354H83.3359V11.2754C83.0472 11.956 82.884 12.7017 82.884 13.4795C82.884 14.2899 83.049 15.0508 83.3359 15.739V18.0001L81.3681 18.0001ZM81.4835 13.4706C81.4835 11.9017 80.2603 10.6076 78.6738 10.6076C77.0781 10.6076 75.8549 11.8929 75.8549 13.4706C75.8549 15.0573 77.0781 16.316 78.6738 16.316C80.2603 16.316 81.4835 15.0485 81.4835 13.4706ZM91.2222 16.5907V16.963C91.1958 18.7712 90.4955 20.1363 88.5011 20.1363C87.2512 20.1363 86.2231 19.5159 85.709 18.3636L83.9804 19.2676C84.9201 21.0314 86.5066 21.9799 88.5011 21.9799C91.6565 21.9799 93.1899 20.0034 93.1899 16.963V8.92353H91.2222V10.333C90.5131 9.30459 89.4851 8.75507 88.2264 8.75507C85.7001 8.75507 83.75 11.0242 83.75 13.4796C83.75 16.0058 85.6379 18.1774 88.2264 18.1774C89.4851 18.1774 90.5043 17.6191 91.2222 16.5907ZM85.709 13.4706C85.709 11.8929 86.9322 10.6076 88.5278 10.6076C90.1143 10.6076 91.3375 11.9017 91.3375 13.4706C91.3375 15.0485 90.1143 16.316 88.5278 16.316C86.9322 16.316 85.709 15.0573 85.709 13.4706ZM45.005 5.27591V17.9868H53.7714V16.0013H47.0793V12.367H52.2556V10.3905H47.0793V7.25262H53.7714V5.27591H45.005ZM32.7133 16.1678C32.686 16.1165 32.6667 16.0633 32.6487 16.0101H29.5784V5.27592H27.5129V17.9868H34.3788C33.2616 17.1646 32.7502 16.2373 32.7133 16.1678ZM36.5215 16.0102L33.8671 16.0101C33.8671 16.0101 35.0431 18.2261 38.0737 18.2261C40.2718 18.2261 42.8867 17.1714 42.8867 14.6096C42.8867 10.0535 36.0972 11.4452 36.0972 8.67963C36.0972 7.27918 37.7811 7.03985 38.8538 7.03985C39.8378 7.03985 40.9545 7.41212 41.8587 7.78439L42.5765 5.96735C41.4774 5.44438 40.0682 5.06331 38.845 5.06331C36.6202 5.06331 34.0317 6.06494 34.0317 8.67084C34.0317 13.2091 40.8215 11.853 40.8215 14.6008C40.8215 15.8594 39.0578 16.2583 38.0737 16.2583C37.5813 16.2583 37.0482 16.1579 36.5215 16.0102ZM103.025 14.3748H95.8008C96.0846 15.6246 97.2459 16.3957 98.4955 16.3957C99.4707 16.3957 100.357 15.9969 101.004 15.2701L102.378 16.4755C99.8141 19.2753 95.2879 18.442 94.0558 15.2413V11.7462C94.7273 9.98906 96.3959 8.73732 98.4069 8.73732C101.031 8.73732 103.087 10.8559 103.087 13.4706C103.087 13.772 103.069 14.0734 103.025 14.3748ZM101.013 12.6552C100.357 9.89861 96.3505 9.93396 95.81 12.6552H101.013Z" fill="url(#paint0_linear_13402_10521)"/>
<defs>
<linearGradient id="paint0_linear_13402_10521" x1="0" y1="12" x2="105.96" y2="12" gradientUnits="userSpaceOnUse">
<stop offset="0.09807" stop-color="#5900A1"/>
<stop offset="1" stop-color="#45BDD6"/>
</linearGradient>
</defs>
</svg>
