<svg width="93" height="24" viewBox="0 0 93 24" fill="none" xmlns="http://www.w3.org/2000/svg">
<g clip-path="url(#clip0_13402_10522)">
<path d="M79.4082 21.3606C79.4082 22.5692 77.7909 23.0184 77.2788 21.9985V22.5063H77.0291V19.2849H77.2788V20.7205C77.8021 19.6715 79.4082 20.1722 79.4082 21.3606ZM78.2019 20.4036C77.6719 20.4036 77.2561 20.8305 77.2561 21.3585C77.2561 21.8906 77.6671 22.3087 78.2019 22.3087C78.7364 22.3087 79.1565 21.8954 79.1565 21.3585C79.1565 20.8261 78.7344 20.4036 78.2019 20.4036ZM81.5563 20.206L80.1907 23.4947H79.9166L80.3567 22.4278L79.3842 20.206H79.6606L80.4917 22.1335L81.2823 20.206L81.5563 20.206ZM83.4097 22.5063H83.1489V19.2849H84.3014C84.8808 19.2849 85.3504 19.7592 85.3504 20.3386C85.3504 20.9225 84.8856 21.3852 84.3014 21.3852H83.4097V22.5063ZM83.4097 21.1271H84.3014C84.7418 21.1271 85.0875 20.7767 85.0922 20.3386C85.0966 19.9029 84.735 19.5457 84.3014 19.5457H83.4097V21.1271ZM85.9464 22.5063H85.6856V19.2849H86.8381C87.4176 19.2849 87.8871 19.7592 87.8871 20.3386C87.8871 20.9225 87.4223 21.3852 86.8381 21.3852H85.9464V22.5063ZM85.9464 21.1271H86.8381C87.2785 21.1271 87.6242 20.7767 87.629 20.3386C87.6334 19.9029 87.2718 19.5457 86.8381 19.5457H85.9464V21.1271ZM88.4835 19.2849V22.2435H89.9928V22.5063H88.2226V19.2849L88.4835 19.2849ZM91.0317 22.3155C91.3933 22.3155 91.946 22.1602 91.946 21.7134C91.946 20.799 90.0723 21.2662 90.0723 20.0802C90.0723 19.4534 90.7171 19.2265 91.2451 19.2265C91.5235 19.2265 91.829 19.2917 92.083 19.404L91.9887 19.6445C91.7525 19.5525 91.5012 19.4872 91.2472 19.4872C90.8632 19.4872 90.3332 19.6019 90.3332 20.0825C90.3332 20.9922 92.2065 20.5274 92.2065 21.7157C92.2065 22.3311 91.5526 22.5716 91.0317 22.5716C90.7147 22.5716 90.4072 22.4772 90.1173 22.3602L90.2185 22.122C90.4769 22.2279 90.7509 22.3155 91.0317 22.3155ZM92.6317 19.2849H92.8946V22.5063H92.6317V19.2849ZM12.3035 15.071C12.113 15.071 11.9584 14.9165 11.9584 14.7261V12.8201C11.9584 12.6296 12.113 12.4752 12.3035 12.4752C12.4939 12.4752 12.6485 12.6296 12.6485 12.8201V14.7261C12.6485 14.9165 12.4939 15.071 12.3035 15.071ZM11.3343 15.1833V12.8201C11.3343 12.6296 11.1797 12.4752 10.9893 12.4752C10.7988 12.4752 10.6442 12.6296 10.6442 12.8201V15.1833C10.6442 15.3737 10.7988 15.5281 10.9893 15.5281C11.1797 15.5281 11.3343 15.3737 11.3343 15.1833ZM10.0198 16.0078V12.8201C10.0198 12.6296 9.8652 12.4752 9.67475 12.4752C9.4843 12.4752 9.32971 12.6296 9.32971 12.8201V16.0078C9.32971 16.1983 9.4843 16.3527 9.67475 16.3527C9.8652 16.3527 10.0198 16.1983 10.0198 16.0078ZM14.8219 12.4578C14.8071 12.5706 14.7377 12.669 14.6362 12.7205C14.5868 12.7455 14.5334 12.7578 14.4799 12.7578C14.4228 12.7578 14.3659 12.7438 14.3145 12.7155L13.0575 12.0276C13.014 12.0473 12.9677 12.061 12.9175 12.061H8.99921C8.94906 12.061 8.9028 12.0473 8.85933 12.0277L7.60247 12.7156C7.55106 12.7438 7.49423 12.7578 7.43706 12.7578C7.38361 12.7578 7.33016 12.7455 7.28078 12.7205C7.17929 12.669 7.10995 12.5706 7.09506 12.4578C7.08593 12.3871 6.87248 10.7153 7.25067 9.75446C7.54488 9.00738 8.08976 8.50682 8.34681 8.30077C8.41281 5.76895 9.22882 3.8348 10.7538 2.71158C10.8756 2.62193 11.0414 2.62193 11.1632 2.71158C12.6882 3.83478 13.5042 5.76891 13.5701 8.30066C13.8271 8.50663 14.372 9.00723 14.6663 9.75446C15.0445 10.7153 14.8311 12.3871 14.8219 12.4578ZM7.73339 11.8577L8.5932 11.3871C8.4655 10.641 8.38668 9.92812 8.35683 9.25206C8.18702 9.45105 8.01187 9.70441 7.89272 10.0071C7.70362 10.4872 7.69956 11.2894 7.73339 11.8577ZM12.6303 11.3712C13.2838 7.67407 12.6939 4.874 10.9585 3.42736C9.22349 4.874 8.63286 7.67407 9.28641 11.3712H12.6303ZM14.0243 10.0072C13.9042 9.70205 13.7293 9.44843 13.5601 9.25003C13.5302 9.92666 13.4513 10.6401 13.3235 11.387L14.1836 11.8577C14.2174 11.2894 14.2134 10.4872 14.0243 10.0072ZM12.316 7.30704C12.316 8.05547 11.7071 8.66437 10.9585 8.66437C10.2099 8.66437 9.601 8.05547 9.601 7.30704C9.601 6.55861 10.2099 5.94988 10.9585 5.94988C11.7071 5.94988 12.316 6.55861 12.316 7.30704ZM11.6259 7.30704C11.6259 6.939 11.3265 6.63963 10.9585 6.63963C10.5905 6.63963 10.2911 6.939 10.2911 7.30704C10.2911 7.67508 10.5905 7.97463 10.9585 7.97463C11.3265 7.97463 11.6259 7.67508 11.6259 7.30704ZM21.4578 2.24292C18.1302 0.751167 14.5443 0.00535437 10.9584 0.0125021C7.37253 0.00535437 3.78669 0.751167 0.45904 2.24292L0 2.47237V3.21823C0 11.308 3.90145 18.9387 10.4995 23.6434L10.9584 23.9876L11.4174 23.6434C12.9684 22.5374 14.5574 21.0741 15.7948 19.6768C16.4162 18.9496 16.5255 17.9279 16.1397 17.097C15.123 15.0554 12.2979 15.3992 11.3596 17.3218C11.2806 17.4611 11.2107 17.599 11.1464 17.7403C11.0883 17.7025 11.0276 17.6663 10.9631 17.6312C10.4372 17.3111 9.84131 17.4157 9.31394 17.6646C9.13998 15.7335 7.48459 13.8679 5.53621 15.138L5.96984 15.9769C6.61696 15.5282 7.30763 15.5532 7.81995 16.1727C8.2921 16.74 8.65481 17.668 8.42838 18.3933C8.4154 18.4995 8.46716 18.6549 8.58551 18.7458C8.80416 18.9137 9.02768 18.8199 9.21656 18.6795C9.63345 18.4152 10.0992 18.0769 10.5809 18.3549C10.8196 18.4529 10.9593 18.6996 11.1813 18.8009C11.4005 18.8771 11.64 18.7581 11.7123 18.5378C12.05 17.5446 12.8941 16.4269 14.0501 16.6605C14.5701 16.7515 14.9663 17.0849 15.071 17.5193C15.1795 17.8928 14.94 18.2654 14.7142 18.5542C13.6106 19.8499 12.3446 21.0479 10.9584 22.0943C7.71767 19.6478 5.21993 16.4428 3.613 12.8339C4.02802 12.74 4.42228 12.7563 4.74313 12.8926C5.16226 13.0709 5.47381 13.4491 5.66933 14.0169L6.65168 13.6786C6.36076 12.8329 5.84117 12.2305 5.14974 11.9363C4.5718 11.6907 3.89964 11.6691 3.21041 11.8627C2.17288 9.22527 1.59464 6.3985 1.5491 3.50511C4.53256 2.18551 7.74549 1.55442 10.9584 1.55442C14.1714 1.55442 17.3843 2.18552 20.3678 3.50511C20.3111 7.10336 19.4408 10.6026 17.8718 13.7563C17.6098 13.5004 17.3097 13.296 16.9982 13.1743C16.0899 12.8197 14.9712 13.0129 14.2774 13.6446L14.977 14.4132C15.3839 14.0429 16.049 14.0179 16.62 14.1422C17.3616 14.3037 17.8484 14.931 18.1227 15.4144C18.223 15.6245 18.323 15.8292 18.399 16.0079C18.5338 15.7877 18.6138 15.6607 18.704 15.5048L18.7308 15.4605L18.7305 15.4585C18.775 15.3804 18.8231 15.2939 18.8826 15.1833C20.8302 11.5629 21.9168 7.20962 21.9168 3.21823V2.47237L21.4578 2.24292ZM39.6619 8.92353H37.6942V18.0001H39.6619V12.9211C39.6619 11.6536 40.2823 10.6076 41.6564 10.6076C43.0569 10.6076 43.6597 11.6358 43.6597 12.9211V18.0001H45.6274V12.9033C45.6274 10.8204 44.732 8.75507 42.3566 8.75507C41.151 8.75507 40.1142 9.32236 39.6619 10.4659L39.6619 8.92353ZM55.9898 15.7493V16.963C55.9898 20.0034 54.4564 21.9799 51.3009 21.9799C49.3065 21.9799 47.72 21.0314 46.7802 19.2677L48.5088 18.3636C49.023 19.5159 50.051 20.1363 51.3009 20.1363C53.2954 20.1363 53.9956 18.7712 54.022 16.963V16.5907C53.3042 17.6191 52.285 18.1774 51.0262 18.1774C48.4378 18.1774 46.5499 16.0058 46.5499 13.4796C46.5499 11.0242 48.5 8.75508 51.0262 8.75508C52.285 8.75508 53.313 9.30461 54.022 10.333V8.92354H55.9898V11.2756C55.7012 11.9561 55.5379 12.7017 55.5379 13.4795C55.5379 14.2932 55.7007 15.0589 55.9898 15.7493ZM54.1374 13.4706C54.1374 11.9017 52.9142 10.6076 51.3277 10.6076C49.732 10.6076 48.5088 11.8929 48.5088 13.4706C48.5088 15.0573 49.732 16.316 51.3277 16.316C52.9142 16.316 54.1374 15.0485 54.1374 13.4706ZM63.876 18.0001V16.5907C63.1582 17.6191 62.139 18.1774 60.8803 18.1774C58.2918 18.1774 56.4039 16.0058 56.4039 13.4796C56.4039 11.0242 58.354 8.75508 60.8803 8.75508C62.139 8.75508 63.167 9.30461 63.876 10.333V8.92354H65.8438V11.2754C65.5552 11.956 65.3919 12.7017 65.3919 13.4795C65.3919 14.2899 65.5569 15.0508 65.8438 15.739V18.0001L63.876 18.0001ZM63.9914 13.4706C63.9914 11.9017 62.7682 10.6076 61.1817 10.6076C59.586 10.6076 58.3628 11.8929 58.3628 13.4706C58.3628 15.0573 59.586 16.316 61.1817 16.316C62.7682 16.316 63.9914 15.0485 63.9914 13.4706ZM73.7301 16.5907V16.963C73.7037 18.7712 73.0034 20.1363 71.009 20.1363C69.759 20.1363 68.731 19.5159 68.2169 18.3636L66.4883 19.2676C67.428 21.0314 69.0145 21.9799 71.009 21.9799C74.1644 21.9799 75.6978 20.0034 75.6978 16.963V8.92353H73.7301V10.333C73.021 9.30459 71.993 8.75507 70.7343 8.75507C68.2081 8.75507 66.2579 11.0242 66.2579 13.4796C66.2579 16.0058 68.1458 18.1774 70.7343 18.1774C71.993 18.1774 73.0122 17.6191 73.7301 16.5907ZM68.2169 13.4706C68.2169 11.8929 69.4401 10.6076 71.0357 10.6076C72.6222 10.6076 73.8454 11.9017 73.8454 13.4706C73.8454 15.0485 72.6222 16.316 71.0357 16.316C69.4401 16.316 68.2169 15.0573 68.2169 13.4706ZM27.5129 5.27591V17.9868H36.2793V16.0013H29.5872V12.367H34.7635V10.3905H29.5872V7.25262H36.2793V5.27591H27.5129ZM85.5329 14.3748H78.3087C78.5925 15.6246 79.7538 16.3957 81.0034 16.3957C81.9787 16.3957 82.8649 15.9969 83.5121 15.2701L84.8858 16.4755C82.322 19.2753 77.7958 18.442 76.5637 15.2413V11.7462C77.2352 9.98906 78.9038 8.73732 80.9148 8.73732C83.5384 8.73732 85.5948 10.8559 85.5948 13.4706C85.5948 13.772 85.5772 14.0734 85.5329 14.3748ZM83.5209 12.6552C82.8649 9.89861 78.8584 9.93396 78.3178 12.6552H83.5209Z" fill="url(#paint0_linear_13402_10522)"/>
</g>
<defs>
<linearGradient id="paint0_linear_13402_10522" x1="0" y1="12" x2="92.8946" y2="12" gradientUnits="userSpaceOnUse">
<stop offset="0.09807" stop-color="#5900A1"/>
<stop offset="1" stop-color="#45BDD6"/>
</linearGradient>
<clipPath id="clip0_13402_10522">
<rect width="93" height="24" fill="white"/>
</clipPath>
</defs>
</svg>
