<svg width="95" height="24" viewBox="0 0 95 24" fill="none" xmlns="http://www.w3.org/2000/svg">
<path d="M21.8858 2.45715L21.4286 2.2857C18.1714 0.74284 14.5715 0 10.9715 0C7.31431 0 3.77144 0.74284 0.457149 2.2857L0 2.51427V3.25716C0 11.3143 3.88573 18.9143 10.4571 23.6572L10.9143 24L11.3714 23.6572C17.9429 18.9143 21.8286 11.3714 21.8286 3.25716L21.8858 2.45715ZM10.9715 21.9429V1.54285C14.1715 1.54285 17.3715 2.17145 20.3429 3.48573C20.2857 10.7429 16.8 17.6 10.9715 21.9429Z" fill="#3050F0"/>
<path d="M29.429 5.42859H31.4861V18.1715H29.429V5.42859Z" fill="#3050F0"/>
<path d="M37.6576 5.42859C41.3146 5.42859 44.4003 8.00003 44.4003 11.8286C44.4003 15.6572 41.3146 18.2286 37.6576 18.2286H33.2575V5.42859H37.6576ZM37.6576 16.2286C40.2288 16.2286 42.3433 14.5143 42.3433 11.8286C42.3433 9.14286 40.1717 7.37147 37.6576 7.37147H35.3719V16.1715L37.6576 16.2286Z" fill="#3050F0"/>
<path d="M49.2001 16.4C50.1713 16.4 51.9429 16 51.9429 14.7429C51.9429 12 45.1428 13.3715 45.1428 8.80004C45.1428 6.17143 47.7714 5.20001 50.0001 5.20001C51.3142 5.25718 52.5716 5.54287 53.7716 6.11431L53.0287 7.94287C52.0571 7.48576 51.0288 7.25718 50.0001 7.20002C48.9143 7.20002 47.2573 7.42859 47.2573 8.85717C47.2002 11.6572 53.9999 10.2286 53.9999 14.8C53.9999 17.3715 51.3717 18.4572 49.143 18.4572C47.7143 18.4 46.3431 18 45.0857 17.4286L45.8857 15.6C46.9715 16.0572 48.0572 16.3429 49.2001 16.4Z" fill="#3050F0"/>
<path d="M57.314 10.5715C57.7711 9.48573 58.8569 8.80004 59.9997 8.85717C62.3997 8.85717 63.3142 10.9143 63.3142 13.0286V18.1715H61.3139V13.0858C61.3139 11.7715 60.6855 10.7429 59.3139 10.7429C57.9427 10.7429 57.314 11.7715 57.314 13.0858V18.2286H55.3141V5.42859H57.314V10.5715Z" fill="#3050F0"/>
<path d="M64.5145 5.42859H66.5719V7.71429H64.572L64.5145 5.42859ZM64.5145 9.08574H66.5719V18.2286H64.572L64.5145 9.08574Z" fill="#3050F0"/>
<path d="M67.5432 13.6571C67.5432 11.0857 69.6573 8.97138 72.2288 8.97138C74.8004 8.97138 76.9145 11.0857 76.9145 13.6571C76.9145 13.9428 76.9145 14.2857 76.8574 14.5714H69.6002C69.886 15.8285 71.0289 16.6857 72.2859 16.6285C73.2575 16.6285 74.1717 16.2285 74.8004 15.4857L76.1716 16.6857C73.2004 19.9428 67.5432 18.2285 67.5432 13.6571ZM74.8004 12.8571C74.1146 10.1142 70.1147 10.1142 69.6002 12.8571H74.8004Z" fill="#3050F0"/>
<path d="M78.0003 5.42859H80.0002V18.1715H78.0003V5.42859Z" fill="#3050F0"/>
<path d="M85.2 18.3428C82.6285 18.2857 80.6285 16.1714 80.6856 13.6571C80.6856 13.6571 80.6856 13.6571 80.6856 13.6C80.6856 11.1428 82.6285 8.85709 85.2 8.85709C86.4 8.85709 87.5428 9.42852 88.2286 10.4571V5.37139H90.2286V18.1142H88.2286V16.6857C87.5428 17.7714 86.4 18.4 85.2 18.3428ZM85.4858 16.5143C87.0287 16.5143 88.2857 15.3143 88.2857 13.7714C88.2857 13.7142 88.2857 13.7142 88.2857 13.6571C88.2857 12.1143 87.0858 10.8 85.4858 10.8C83.8859 10.8 82.6285 12.0571 82.6285 13.6571C82.6285 15.2571 83.8859 16.5143 85.4858 16.5143Z" fill="#3050F0"/>
</svg>
