<svg width="131" height="32" viewBox="0 0 131 32" fill="none" xmlns="http://www.w3.org/2000/svg">
<rect width="131" height="32" fill="#FF0099" fill-opacity="0.4"/>
<g clip-path="url(#clip0_12771_8268)">
<mask id="mask0_12771_8268" style="mask-type:alpha" maskUnits="userSpaceOnUse" x="0" y="0" width="32" height="32">
<path d="M0 7.1875C0 3.21795 3.21795 0 7.1875 0H24.8125C28.782 0 32 3.21795 32 7.1875V24.8125C32 28.782 28.782 32 24.8125 32H7.1875C3.21795 32 0 28.782 0 24.8125V7.1875Z" fill="black"/>
</mask>
<g mask="url(#mask0_12771_8268)">
<rect width="32" height="32" fill="url(#paint0_linear_12771_8268)"/>
<path d="M25.9735 8.39089L25.5559 8.18206C22.528 6.77245 19.3435 6.09375 16.0024 6.09375C12.6613 6.09375 9.42457 6.82466 6.44889 8.18206L6.03125 8.39089V9.06959C6.03125 16.4309 9.63339 23.3745 15.5848 27.6555L16.0024 27.9688L16.42 27.6555C22.3714 23.3745 25.9735 16.4309 25.9735 9.06959V8.39089ZM16.0024 26.1937V7.50336C18.9781 7.55556 21.8494 8.12985 24.564 9.33062C24.4596 15.961 21.2751 22.2259 16.0024 26.1937Z" fill="white"/>
</g>
</g>
<path d="M43.344 20.224H47.024V22H41.104V10.832H43.344V20.224ZM56.3678 17.376C56.3678 17.696 56.3464 17.984 56.3038 18.24H49.8238C49.8771 18.88 50.1011 19.3813 50.4957 19.744C50.8904 20.1067 51.3758 20.288 51.9518 20.288C52.7838 20.288 53.3758 19.9307 53.7278 19.216H56.1438C55.8878 20.0693 55.3971 20.7733 54.6718 21.328C53.9464 21.872 53.0558 22.144 51.9998 22.144C51.1464 22.144 50.3784 21.9573 49.6957 21.584C49.0237 21.2 48.4957 20.6613 48.1117 19.968C47.7384 19.2747 47.5517 18.4747 47.5517 17.568C47.5517 16.6507 47.7384 15.8453 48.1117 15.152C48.4851 14.4587 49.0077 13.9253 49.6797 13.552C50.3518 13.1787 51.1251 12.992 51.9998 12.992C52.8424 12.992 53.5944 13.1733 54.2558 13.536C54.9278 13.8987 55.4451 14.416 55.8078 15.088C56.1811 15.7493 56.3678 16.512 56.3678 17.376ZM54.0477 16.736C54.0371 16.16 53.8291 15.7013 53.4237 15.36C53.0184 15.008 52.5224 14.832 51.9358 14.832C51.3811 14.832 50.9118 15.0027 50.5278 15.344C50.1544 15.6747 49.9251 16.1387 49.8398 16.736H54.0477ZM61.1548 12.992C61.8161 12.992 62.3974 13.1253 62.8988 13.392C63.4001 13.648 63.7948 13.984 64.0828 14.4V13.136H66.3388V22.064C66.3388 22.8853 66.1734 23.616 65.8428 24.256C65.5121 24.9067 65.0161 25.4187 64.3548 25.792C63.6934 26.176 62.8934 26.368 61.9548 26.368C60.6961 26.368 59.6614 26.0747 58.8508 25.488C58.0508 24.9013 57.5974 24.1013 57.4908 23.088H59.7148C59.8321 23.4933 60.0828 23.8133 60.4668 24.048C60.8614 24.2933 61.3361 24.416 61.8908 24.416C62.5414 24.416 63.0694 24.2187 63.4748 23.824C63.8801 23.44 64.0828 22.8533 64.0828 22.064V20.688C63.7948 21.104 63.3948 21.4507 62.8828 21.728C62.3814 22.0053 61.8054 22.144 61.1548 22.144C60.4081 22.144 59.7254 21.952 59.1068 21.568C58.4881 21.184 57.9974 20.6453 57.6348 19.952C57.2828 19.248 57.1068 18.4427 57.1068 17.536C57.1068 16.64 57.2828 15.8453 57.6348 15.152C57.9974 14.4587 58.4828 13.9253 59.0908 13.552C59.7094 13.1787 60.3974 12.992 61.1548 12.992ZM64.0828 17.568C64.0828 17.024 63.9761 16.56 63.7628 16.176C63.5494 15.7813 63.2614 15.4827 62.8988 15.28C62.5361 15.0667 62.1468 14.96 61.7308 14.96C61.3148 14.96 60.9308 15.0613 60.5788 15.264C60.2268 15.4667 59.9388 15.7653 59.7148 16.16C59.5014 16.544 59.3948 17.0027 59.3948 17.536C59.3948 18.0693 59.5014 18.5387 59.7148 18.944C59.9388 19.3387 60.2268 19.6427 60.5788 19.856C60.9414 20.0693 61.3254 20.176 61.7308 20.176C62.1468 20.176 62.5361 20.0747 62.8988 19.872C63.2614 19.6587 63.5494 19.36 63.7628 18.976C63.9761 18.5813 64.0828 18.112 64.0828 17.568ZM67.6305 17.536C67.6305 16.64 67.8065 15.8453 68.1585 15.152C68.5212 14.4587 69.0065 13.9253 69.6145 13.552C70.2332 13.1787 70.9212 12.992 71.6785 12.992C72.3398 12.992 72.9158 13.1253 73.4065 13.392C73.9078 13.6587 74.3078 13.9947 74.6065 14.4V13.136H76.8625V22H74.6065V20.704C74.3185 21.12 73.9185 21.4667 73.4065 21.744C72.9052 22.0107 72.3238 22.144 71.6625 22.144C70.9158 22.144 70.2332 21.952 69.6145 21.568C69.0065 21.184 68.5212 20.6453 68.1585 19.952C67.8065 19.248 67.6305 18.4427 67.6305 17.536ZM74.6065 17.568C74.6065 17.024 74.4998 16.56 74.2865 16.176C74.0732 15.7813 73.7852 15.4827 73.4225 15.28C73.0598 15.0667 72.6705 14.96 72.2545 14.96C71.8385 14.96 71.4545 15.0613 71.1025 15.264C70.7505 15.4667 70.4625 15.7653 70.2385 16.16C70.0252 16.544 69.9185 17.0027 69.9185 17.536C69.9185 18.0693 70.0252 18.5387 70.2385 18.944C70.4625 19.3387 70.7505 19.6427 71.1025 19.856C71.4652 20.0693 71.8492 20.176 72.2545 20.176C72.6705 20.176 73.0598 20.0747 73.4225 19.872C73.7852 19.6587 74.0732 19.36 74.2865 18.976C74.4998 18.5813 74.6065 18.112 74.6065 17.568ZM80.9703 10.16V22H78.7303V10.16H80.9703ZM86.7194 22.112C85.9407 22.112 85.2367 21.9787 84.6074 21.712C83.9887 21.4453 83.498 21.0613 83.1354 20.56C82.7727 20.0587 82.586 19.4667 82.5754 18.784H84.9754C85.0074 19.2427 85.1674 19.6053 85.4554 19.872C85.754 20.1387 86.1594 20.272 86.6714 20.272C87.194 20.272 87.6047 20.1493 87.9034 19.904C88.202 19.648 88.3514 19.3173 88.3514 18.912C88.3514 18.5813 88.25 18.3093 88.0474 18.096C87.8447 17.8827 87.5887 17.7173 87.2794 17.6C86.9807 17.472 86.5647 17.3333 86.0314 17.184C85.306 16.9707 84.714 16.7627 84.2554 16.56C83.8074 16.3467 83.418 16.032 83.0874 15.616C82.7674 15.1893 82.6074 14.624 82.6074 13.92C82.6074 13.2587 82.7727 12.6827 83.1034 12.192C83.434 11.7013 83.898 11.328 84.4954 11.072C85.0927 10.8053 85.7754 10.672 86.5434 10.672C87.6954 10.672 88.6287 10.9547 89.3434 11.52C90.0687 12.0747 90.4687 12.8533 90.5434 13.856H88.0794C88.058 13.472 87.8927 13.1573 87.5834 12.912C87.2847 12.656 86.8847 12.528 86.3834 12.528C85.946 12.528 85.594 12.64 85.3274 12.864C85.0714 13.088 84.9434 13.4133 84.9434 13.84C84.9434 14.1387 85.0394 14.3893 85.2314 14.592C85.434 14.784 85.6794 14.944 85.9674 15.072C86.266 15.1893 86.682 15.328 87.2154 15.488C87.9407 15.7013 88.5327 15.9147 88.9914 16.128C89.45 16.3413 89.8447 16.6613 90.1754 17.088C90.506 17.5147 90.6714 18.0747 90.6714 18.768C90.6714 19.3653 90.5167 19.92 90.2074 20.432C89.898 20.944 89.4447 21.3547 88.8474 21.664C88.25 21.9627 87.5407 22.112 86.7194 22.112ZM97.2854 13.008C97.9574 13.008 98.5547 13.1573 99.0774 13.456C99.6 13.744 100.005 14.176 100.293 14.752C100.592 15.3173 100.741 16 100.741 16.8V22H98.5014V17.104C98.5014 16.4 98.3254 15.8613 97.9734 15.488C97.6214 15.104 97.1414 14.912 96.5334 14.912C95.9147 14.912 95.424 15.104 95.0614 15.488C94.7094 15.8613 94.5334 16.4 94.5334 17.104V22H92.2934V10.16H94.5334V14.24C94.8214 13.856 95.2054 13.5573 95.6854 13.344C96.1654 13.12 96.6987 13.008 97.2854 13.008ZM103.687 12.08C103.293 12.08 102.962 11.9573 102.695 11.712C102.439 11.456 102.311 11.1413 102.311 10.768C102.311 10.3947 102.439 10.0853 102.695 9.84C102.962 9.584 103.293 9.456 103.687 9.456C104.082 9.456 104.407 9.584 104.663 9.84C104.93 10.0853 105.063 10.3947 105.063 10.768C105.063 11.1413 104.93 11.456 104.663 11.712C104.407 11.9573 104.082 12.08 103.687 12.08ZM104.791 13.136V22H102.551V13.136H104.791ZM114.925 17.376C114.925 17.696 114.903 17.984 114.861 18.24H108.381C108.434 18.88 108.658 19.3813 109.053 19.744C109.447 20.1067 109.933 20.288 110.509 20.288C111.341 20.288 111.933 19.9307 112.285 19.216H114.701C114.445 20.0693 113.954 20.7733 113.229 21.328C112.503 21.872 111.613 22.144 110.557 22.144C109.703 22.144 108.935 21.9573 108.253 21.584C107.581 21.2 107.053 20.6613 106.669 19.968C106.295 19.2747 106.109 18.4747 106.109 17.568C106.109 16.6507 106.295 15.8453 106.669 15.152C107.042 14.4587 107.565 13.9253 108.237 13.552C108.909 13.1787 109.682 12.992 110.557 12.992C111.399 12.992 112.151 13.1733 112.813 13.536C113.485 13.8987 114.002 14.416 114.365 15.088C114.738 15.7493 114.925 16.512 114.925 17.376ZM112.605 16.736C112.594 16.16 112.386 15.7013 111.981 15.36C111.575 15.008 111.079 14.832 110.493 14.832C109.938 14.832 109.469 15.0027 109.085 15.344C108.711 15.6747 108.482 16.1387 108.397 16.736H112.605ZM118.48 10.16V22H116.24V10.16H118.48ZM119.797 17.536C119.797 16.64 119.973 15.8453 120.325 15.152C120.687 14.4587 121.178 13.9253 121.797 13.552C122.415 13.1787 123.103 12.992 123.861 12.992C124.437 12.992 124.986 13.12 125.509 13.376C126.031 13.6213 126.447 13.952 126.757 14.368V10.16H129.029V22H126.757V20.688C126.479 21.1253 126.09 21.4773 125.589 21.744C125.087 22.0107 124.506 22.144 123.845 22.144C123.098 22.144 122.415 21.952 121.797 21.568C121.178 21.184 120.687 20.6453 120.325 19.952C119.973 19.248 119.797 18.4427 119.797 17.536ZM126.773 17.568C126.773 17.024 126.666 16.56 126.453 16.176C126.239 15.7813 125.951 15.4827 125.589 15.28C125.226 15.0667 124.837 14.96 124.421 14.96C124.005 14.96 123.621 15.0613 123.269 15.264C122.917 15.4667 122.629 15.7653 122.405 16.16C122.191 16.544 122.085 17.0027 122.085 17.536C122.085 18.0693 122.191 18.5387 122.405 18.944C122.629 19.3387 122.917 19.6427 123.269 19.856C123.631 20.0693 124.015 20.176 124.421 20.176C124.837 20.176 125.226 20.0747 125.589 19.872C125.951 19.6587 126.239 19.36 126.453 18.976C126.666 18.5813 126.773 18.112 126.773 17.568Z" fill="white"/>
<defs>
<linearGradient id="paint0_linear_12771_8268" x1="0" y1="0" x2="0" y2="32" gradientUnits="userSpaceOnUse">
<stop stop-color="#B889E6"/>
<stop offset="1" stop-color="#8231D4"/>
</linearGradient>
<clipPath id="clip0_12771_8268">
<rect width="32" height="32" fill="white"/>
</clipPath>
</defs>
</svg>
