<svg width="88" height="24" viewBox="0 0 88 24" fill="none" xmlns="http://www.w3.org/2000/svg">
<g clip-path="url(#clip0_15764_21342)">
<path fill-rule="evenodd" clip-rule="evenodd" d="M31.9379 11.758L31.9502 11.7828V11.7928L31.9379 11.758ZM10.0759 10.1428H8.57248V10.1528V14.1428H9.62792V12.9628H10.0759C10.9122 12.9628 11.5793 12.3228 11.5793 11.5428C11.5793 10.7628 10.8923 10.1428 10.0759 10.1428ZM10.0759 11.1128C10.3547 11.1128 10.5538 11.3028 10.5538 11.5428C10.5538 11.7828 10.3547 11.9728 10.0759 11.9728H9.62792V11.1128H10.0759ZM13.72 10.1428H12.2166V10.1528V14.1428H13.2719V12.9628H13.72C14.5563 12.9628 15.2234 12.3228 15.2234 11.5428C15.2234 10.7628 14.5364 10.1428 13.72 10.1428ZM13.72 11.1128C13.9988 11.1128 14.1979 11.3028 14.1979 11.5428C14.1979 11.7828 13.9988 11.9728 13.72 11.9728H13.2719V11.1128H13.72ZM18.4393 14.1228V13.1328V13.1228H16.916V10.1328H15.8605V14.1228H18.4393ZM19.5246 12.8228L18.8873 13.4528C19.0865 13.8928 19.674 14.1828 20.3311 14.1828C21.1276 14.1828 21.8344 13.7128 21.8344 12.9528C21.8344 12.3628 21.4163 11.9828 20.799 11.7228C20.7079 11.6845 20.6235 11.6516 20.5471 11.6219C20.2648 11.5118 20.092 11.4445 20.092 11.3028C20.092 11.1628 20.2414 11.0528 20.4604 11.0528C20.6496 11.0528 20.9583 11.1428 21.0778 11.3528L21.6851 10.7628C21.5258 10.3728 21.0579 10.0828 20.4506 10.0828C19.7038 10.0828 19.0467 10.5728 19.0467 11.2628C19.0467 11.8628 19.4847 12.1928 19.9825 12.4128C20.3708 12.5828 20.7791 12.7628 20.7791 12.9728C20.7791 13.1328 20.5601 13.2128 20.3311 13.2128C20.0025 13.2128 19.6938 13.0628 19.5246 12.8228ZM23.5768 10.1428H22.5215V14.1328H23.5768V10.1428Z" fill="#121212"/>
<path fill-rule="evenodd" clip-rule="evenodd" d="M26.9819 1.71284C26.6135 0.972835 25.9862 0.422817 25.2096 0.162817C24.433 -0.0971831 23.5967 -0.0471794 22.8599 0.322821L15.99 3.74283L9.13994 0.33283C8.40316 -0.0371697 7.57679 -0.0871733 6.79024 0.172827C6.01363 0.432827 5.38647 0.982814 5.01808 1.72281L0.0298985 11.8128L0 11.9028V11.9528V12.0028V12.0528V12.0928L0.0199323 12.1528C0.0199323 12.1628 0.019942 12.1728 0.0298985 12.1828L0.0398646 12.2128L5.00812 22.2828C5.3765 23.0228 6.00367 23.5728 6.78027 23.8328C7.55687 24.0928 8.39332 24.0328 9.1301 23.6728L15.98 20.2628L22.85 23.6828C23.2781 23.8928 23.7361 24.0028 24.214 24.0028C24.5426 24.0028 24.8811 23.9528 25.1997 23.8428C25.9763 23.5828 26.6036 23.0328 26.972 22.2928L31.9502 12.2228C31.98 12.1528 32 12.0728 32 12.0128C32 11.9328 31.99 11.8528 31.9502 11.7928L31.9379 11.758L26.9819 1.71284ZM15.99 19.2028L30.4567 12.0028L15.99 4.79282L1.52336 11.9928L15.99 19.2028ZM14.9446 4.27283L8.73181 1.17283H8.74178C8.44309 1.03283 8.12441 0.952825 7.79585 0.952825C7.56685 0.952825 7.32795 0.982811 7.10891 1.06281C6.56131 1.24281 6.12323 1.63283 5.87432 2.14283L1.5134 10.9628L14.9446 4.27283ZM8.73181 22.8228L14.9446 19.7328L1.5134 13.0328L5.86436 21.8528C6.12322 22.3628 6.5613 22.7528 7.09894 22.9328C7.63659 23.1128 8.22404 23.0728 8.73181 22.8228ZM26.1456 21.8728L30.5165 13.0328L17.0454 19.7328L23.2782 22.8428C23.7959 23.0928 24.3734 23.1328 24.911 22.9528C25.4586 22.7728 25.8967 22.3828 26.1456 21.8728ZM26.1556 2.14283C25.8967 1.63283 25.4586 1.24281 24.921 1.06281V1.07282C24.3833 0.892821 23.7959 0.932836 23.2881 1.18284L17.0554 4.28281L30.5165 10.9928L26.1556 2.14283Z" fill="#121212"/>
<path d="M39.3929 17.9528H37.3564V5.28281H42.0184C44.3544 5.28281 46.3012 7.2228 46.3012 9.5928C46.3012 11.9628 44.3744 13.9028 42.0184 13.9028H39.3929V17.9528ZM39.3929 11.9328H42.0184C43.3062 11.9328 44.2746 10.8828 44.2746 9.5928C44.2746 8.3028 43.2763 7.25281 42.0184 7.25281H39.3929V11.9328ZM46.0316 13.4328C46.0316 10.8328 48.0481 8.7128 50.6237 8.7128C53.1994 8.7128 55.226 10.8228 55.226 13.4328C55.226 13.7328 55.206 14.0328 55.166 14.3328H48.0682C48.3477 15.5828 49.4858 16.3428 50.7137 16.3428C51.672 16.3428 52.5405 15.9428 53.1794 15.2228L54.5271 16.4228C51.5921 19.6728 46.0316 18.0128 46.0316 13.4228V13.4328ZM53.1894 12.6228C52.5405 9.8728 48.6073 9.9128 48.0782 12.6228H53.1894ZM55.825 13.4428C55.825 10.8228 57.9413 8.7128 60.5169 8.7128C63.0925 8.7128 65.209 10.8028 65.209 13.4428C65.209 16.0828 63.1225 18.1328 60.5169 18.1328C57.9114 18.1328 55.825 16.1128 55.825 13.4428ZM60.5169 16.2728C62.0743 16.2728 63.2822 15.0128 63.2822 13.4328C63.2822 11.8528 62.0842 10.5828 60.5169 10.5828C58.9496 10.5828 57.7416 11.8628 57.7416 13.4328C57.7416 15.0028 58.9396 16.2728 60.5169 16.2728ZM70.7595 8.72281C73.3051 8.72281 75.162 10.8828 75.162 13.4028C75.162 15.9228 73.2452 18.1128 70.7595 18.1128C69.5316 18.1128 68.5233 17.5728 67.8145 16.5528V21.6528H65.8778V8.9028H67.8145V10.3128C68.5133 9.28281 69.5216 8.72281 70.7595 8.72281ZM70.4599 10.5828C68.9026 10.5828 67.6947 11.8428 67.6947 13.4228C67.6947 15.0028 68.8926 16.2728 70.4599 16.2728C72.0272 16.2728 73.2352 14.9928 73.2352 13.4228C73.2352 11.8528 72.0372 10.5828 70.4599 10.5828ZM75.8308 5.28281H77.7675V17.9528H75.8308V5.28281ZM78.8058 13.4428C78.8058 10.8428 80.8223 8.72281 83.3979 8.72281C85.9736 8.72281 88.0001 10.8328 88.0001 13.4428C88.0001 13.7428 87.9801 14.0428 87.9401 14.3428H80.8422C81.1218 15.5928 82.2599 16.3528 83.4878 16.3528C84.4461 16.3528 85.3146 15.9528 85.9535 15.2328L87.3013 16.4328C84.3663 19.6828 78.8058 18.0228 78.8058 13.4328V13.4428ZM85.9635 12.6328C85.3146 9.88281 81.3813 9.92281 80.8522 12.6328H85.9635Z" fill="#121212"/>
</g>
<defs>
<clipPath id="clip0_15764_21342">
<rect width="88" height="24" fill="white"/>
</clipPath>
</defs>
</svg>
