<svg width="102" height="24" viewBox="0 0 102 24" fill="none" xmlns="http://www.w3.org/2000/svg">
<g clip-path="url(#clip0_13333_10574)">
<path d="M34.4546 5.63774H29.7073V18.3623H31.7836V14.2982H34.4546C36.8593 14.2982 38.8203 12.3904 38.8203 9.96799C38.8203 7.58103 36.8326 5.63774 34.4546 5.63774ZM34.4546 12.3195H31.7836V7.61653H34.4546C35.7323 7.61653 36.7528 8.70796 36.7528 9.96799C36.7528 11.2635 35.7678 12.3195 34.4546 12.3195ZM49.9831 9.08952C47.3566 9.08952 45.2003 11.2014 45.2003 13.8368C45.2003 16.5166 47.3211 18.5486 49.9831 18.5486C52.6276 18.5486 54.7572 16.4989 54.7572 13.8368C54.7572 11.1925 52.6185 9.08952 49.9831 9.08952ZM49.9831 16.6763C48.3859 16.6763 47.1614 15.4163 47.1614 13.8279C47.1614 12.2485 48.3859 10.9618 49.9831 10.9618C51.5715 10.9618 52.796 12.2573 52.796 13.8279C52.796 15.4074 51.5715 16.6763 49.9831 16.6763ZM96.0646 9.27586H97.9813V11.157H96.0646V18.3623H94.0947V11.157H92.2045V9.27586H94.0947V6.6227H96.0646V9.27586ZM45.0761 9.27586V11.1127H43.8604C42.4052 11.1127 41.855 12.1509 41.855 13.4819V18.3623H39.8851V9.27586H41.855V11.228C42.2011 9.37347 43.4789 9.27586 45.0761 9.27586ZM82.9054 13.8368C82.9054 11.2014 85.0618 9.08952 87.6884 9.08952C89.3121 9.08952 90.8383 9.94137 91.6811 11.3345L90.0839 12.3195C88.6467 9.87926 84.8663 10.9263 84.8663 13.8279C84.8663 16.7296 88.6112 17.7589 90.1107 15.2743L91.6724 16.3391C89.1701 20.3144 82.9054 18.593 82.9054 13.8368ZM81.5828 16.836L80.2076 15.6292C79.5597 16.3569 78.6723 16.7562 77.6965 16.7562C76.4452 16.7562 75.283 15.9842 74.999 14.733H82.2307C82.2753 14.4313 82.2927 14.1296 82.2927 13.8279C82.2927 11.2103 80.2341 9.0895 77.6075 9.0895C75.7506 9.0895 74.1861 10.1563 73.4263 11.702C73.6453 12.3563 73.77 13.0602 73.77 13.8013C73.77 14.5438 73.6317 15.2581 73.392 15.9258C74.7977 18.8579 79.1054 19.5414 81.5828 16.836ZM80.2166 13.0116H75.0077C75.5489 10.2874 79.5597 10.2519 80.2166 13.0116ZM84.6533 20.5725H84.9274L83.5615 23.8614H83.2874L83.7278 22.7945L82.755 20.5725H83.0315L83.8626 22.5L84.6533 20.5725ZM91.8631 22.6101H93.3728V22.873H91.6026V19.6515H91.8631V22.6101ZM80.647 21.0869V19.6515H80.3977V22.873H80.647V22.3653C81.159 23.3853 82.7767 22.9359 82.7767 21.7273C82.7767 20.5388 81.1704 20.0377 80.647 21.0869ZM81.5702 22.6754C81.0357 22.6754 80.6245 22.2576 80.6245 21.7249C80.6245 21.197 81.0402 20.7702 81.5702 20.7702C82.1026 20.7702 82.5249 21.1925 82.5249 21.7249C82.5249 22.2618 82.105 22.6754 81.5702 22.6754ZM90.2157 19.6515H89.0633V22.873H89.3238V21.752H90.2157C90.7998 21.752 91.2648 21.2893 91.2648 20.7052C91.2648 20.1256 90.7953 19.6515 90.2157 19.6515ZM90.2157 21.4936H89.3238V19.912H90.2157C90.6491 19.912 91.011 20.2693 91.0064 20.7052C91.0019 21.1431 90.656 21.4936 90.2157 21.4936ZM87.676 19.6515H86.5237V22.873H86.7842V21.752H87.676C88.2602 21.752 88.7252 21.2893 88.7252 20.7052C88.7252 20.1256 88.2557 19.6515 87.676 19.6515ZM87.676 21.4936H86.7842V19.912H87.676C88.1098 19.912 88.4713 20.2693 88.4668 20.7052C88.4623 21.1431 88.1164 21.4936 87.676 21.4936ZM68.068 9.09839C66.808 9.09839 65.7786 9.65742 65.0687 10.6956V9.27586H63.0988V22.0803H65.0687V16.9603C65.7873 17.9896 66.8167 18.5309 68.068 18.5309C70.5971 18.5309 72.5492 16.2593 72.5492 13.8013C72.5492 11.2724 70.659 9.09839 68.068 9.09839ZM67.7663 16.6763C66.1778 16.6763 64.9535 15.3808 64.9535 13.8102C64.9535 12.2307 66.1778 10.9618 67.7663 10.9618C69.3635 10.9618 70.588 12.2219 70.588 13.8102C70.588 15.3897 69.3635 16.6763 67.7663 16.6763ZM96.0165 19.6515H96.2791V22.873H96.0165V19.6515ZM61.9095 15.8422C61.9095 17.7766 60.0283 18.5486 58.3601 18.5486C57.3218 18.5486 56.257 18.2026 55.3341 17.75L56.0885 16.0019C56.7451 16.3303 57.6057 16.6852 58.3511 16.6852C58.8925 16.6852 59.9483 16.49 59.9483 15.7712C59.9483 14.2627 55.3341 14.8129 55.3341 11.8137C55.3341 9.87038 57.1888 9.08952 58.8748 9.08952C59.8418 9.08952 60.8269 9.39122 61.7056 9.79052L61.0222 11.5652C60.3833 11.2369 59.6114 10.9618 58.8835 10.9618C58.3069 10.9618 57.313 11.0949 57.313 11.8669C57.313 13.402 61.9095 12.7454 61.9095 15.8422ZM95.5888 22.0822C95.5888 22.6977 94.9348 22.9383 94.4138 22.9383C94.0971 22.9383 93.7891 22.8438 93.4994 22.7271L93.6005 22.4889C93.8589 22.5945 94.1329 22.682 94.4138 22.682C94.7754 22.682 95.328 22.5271 95.328 22.0801C95.328 21.1657 93.4543 21.6328 93.4543 20.4468C93.4543 19.8199 94.0992 19.5931 94.6271 19.5931C94.9056 19.5931 95.2113 19.6581 95.4651 19.7706L95.3707 20.0109C95.1348 19.9189 94.8834 19.8536 94.6295 19.8536C94.2454 19.8536 93.7151 19.9682 93.7151 20.4489C93.7151 21.3588 95.5888 20.8938 95.5888 22.0822ZM21.9396 2.46249L21.4801 2.23278C18.149 0.7395 14.5594 -0.00709324 10.9698 5.07848e-05C7.3802 -0.00709324 3.79062 0.7395 0.459483 2.23278L0 2.46249V3.20912C0 11.3072 3.90549 18.9459 10.5103 23.6554L10.9698 24L11.4292 23.6554C12.884 22.6181 13.9185 21.6231 15.0978 20.3275C14.5485 20.1987 14.0647 19.9597 13.6861 19.5871C12.7717 20.5644 12.0564 21.2844 10.9698 22.1047C5.11156 17.6823 1.66558 10.7903 1.55069 3.49629C4.53723 2.17533 7.75349 1.54358 10.9698 1.54358C14.1861 1.54358 17.4023 2.17533 20.3889 3.49629C20.3474 6.12983 19.869 8.70977 19.0017 11.1408L18.9999 11.1402C18.9916 11.1657 18.9833 11.1896 18.975 11.2149C18.9743 11.2168 18.9735 11.2187 18.9729 11.2206C18.9213 11.218 18.8704 11.2127 18.8182 11.2127C17.1235 11.2127 15.7448 12.5916 15.7448 14.2862C15.7448 15.0369 16.0161 15.7248 16.4648 16.259C16.1701 16.5679 15.9351 16.7146 15.782 16.7807C15.5525 16.8794 14.4643 16.8975 13.7453 15.6783C13.4711 15.2134 13.4409 14.6421 13.5856 14.0167C14.072 13.49 14.4263 12.8343 14.623 12.0986C15.2615 11.7581 15.683 11.0292 15.683 10.2087C15.683 9.68378 15.5086 9.18356 15.2032 8.80245C15.3343 8.38605 15.4023 7.95433 15.4061 7.51389C15.4251 5.3002 13.7625 3.36617 11.5676 3.07768C8.85625 2.72132 6.53327 4.83205 6.53327 7.47504C6.53327 7.92894 6.6014 8.37382 6.73631 8.80245C6.431 9.18356 6.25654 9.68378 6.25654 10.2087C6.25654 11.0292 6.67811 11.7581 7.31654 12.0986C7.51311 12.834 7.86715 13.4894 8.35339 14.0161C8.48814 14.6117 8.43114 15.1775 8.18374 15.6994C8.14689 15.7767 8.11019 15.8576 8.07214 15.9415C7.96117 16.1855 7.89182 16.3706 7.75571 16.6027C7.65989 16.7661 7.69569 16.9754 7.83591 17.1028L8.1008 17.3434C8.29332 17.5183 8.59673 17.4675 8.72759 17.2427C8.90371 16.9402 9.02975 16.663 9.13756 16.4258C9.17305 16.3479 9.20704 16.273 9.24118 16.2011C9.63102 15.379 9.70075 14.4935 9.44793 13.5692C9.41886 13.4629 9.35634 13.3693 9.27908 13.2908C8.84242 12.8467 8.52759 12.2325 8.39149 11.5583C8.34807 11.3432 8.19289 11.1704 7.98146 11.1117C7.66038 11.0227 7.42694 10.6419 7.42694 10.2087C7.42694 9.88463 7.5601 9.57865 7.77451 9.40993C7.98261 9.24618 8.04945 8.96063 7.94874 8.71573C7.76177 8.26105 7.68068 7.77754 7.70927 7.28125C7.79797 5.74124 8.99855 4.43995 10.5279 4.23821C12.5248 3.97479 14.2359 5.5289 14.2359 7.47504C14.2359 7.9053 14.1526 8.32421 13.9886 8.72109C13.8883 8.96383 13.9586 9.24751 14.165 9.40993C14.3795 9.57865 14.5126 9.88463 14.5126 10.2087C14.5126 10.6423 14.279 11.0229 13.9578 11.1118C13.7465 11.1703 13.5914 11.3431 13.5481 11.558C13.4101 12.2417 13.0885 12.8637 12.6425 13.3088C12.5764 13.3749 12.5235 13.4549 12.4984 13.5449C12.227 14.5169 12.2695 15.4599 12.7089 16.2222C13.4038 17.4277 15.4111 18.4176 16.2458 17.8552C16.5925 17.6216 17.0069 17.4014 17.377 16.9989C17.9569 17.3082 18.6461 17.4388 19.3716 17.3105C20.613 17.0909 21.6147 16.0975 21.8397 14.857C22.0795 13.5353 21.4657 12.3311 20.4593 11.6921C21.4232 9.00155 21.9396 6.13652 21.9396 3.20912L21.9396 2.46249ZM21.0722 14.2862C21.0722 15.5291 20.0611 16.5401 18.8182 16.5401C17.5753 16.5401 16.5642 15.5291 16.5642 14.2862C16.5642 13.0434 17.5753 12.0321 18.8182 12.0321C20.0611 12.0321 21.0722 13.0434 21.0722 14.2862ZM20.3392 14.2862C20.3392 14.495 20.1701 14.664 19.9614 14.664H19.196V15.4293C19.196 15.638 19.027 15.8071 18.8182 15.8071C18.6095 15.8071 18.4404 15.638 18.4404 15.4293V14.664H17.6752C17.4664 14.664 17.2974 14.495 17.2974 14.2862C17.2974 14.0775 17.4664 13.9084 17.6752 13.9084H18.4404V13.1432C18.4404 12.9345 18.6095 12.7654 18.8182 12.7654C19.027 12.7654 19.196 12.9345 19.196 13.1432V13.9084H19.9614C20.1701 13.9084 20.3392 14.0775 20.3392 14.2862Z" fill="url(#paint0_radial_13333_10574)"/>
</g>
<defs>
<radialGradient id="paint0_radial_13333_10574" cx="0" cy="0" r="1" gradientUnits="userSpaceOnUse" gradientTransform="translate(97.934 13.0338) scale(96.1864 96.1864)">
<stop stop-color="#0FDDFC"/>
<stop offset="0.09835" stop-color="#45BDD6"/>
<stop offset="1" stop-color="#5900A1"/>
</radialGradient>
<clipPath id="clip0_13333_10574">
<rect width="102" height="24" fill="white"/>
</clipPath>
</defs>
</svg>
