<svg width="32" height="24" viewBox="0 0 32 24" fill="none" xmlns="http://www.w3.org/2000/svg">
<g clip-path="url(#clip0_9967_2702)">
<path d="M31.7388 11.9914L8.83223 23.3446C8.20517 23.6554 7.48033 23.7043 6.81716 23.4807C6.154 23.257 5.60683 22.7791 5.29604 22.1521L0.260313 11.9918L23.1669 0.638626C23.7939 0.327835 24.5188 0.278873 25.1819 0.502511C25.8451 0.726149 26.3922 1.20407 26.703 1.83113L31.7388 11.9914L31.7388 11.9914Z" fill="url(#paint0_radial_9967_2702)"/>
<path d="M23.1596 23.3603L0.259912 11.9932L5.30181 1.83604C5.61298 1.20917 6.16043 0.731582 6.82373 0.508347C7.48703 0.285111 8.21184 0.334514 8.83872 0.645687L31.7384 12.0128L26.6965 22.17C26.3853 22.7968 25.8378 23.2744 25.1745 23.4977C24.5112 23.7209 23.7864 23.6715 23.1596 23.3603Z" fill="url(#paint1_radial_9967_2702)"/>
<path d="M31.7384 12.018L16.0115 4.21146L0.280029 12.0085L16.0067 19.815L31.7384 12.018Z" fill="#13027D"/>
<path d="M8.79297 10.1975H10.247C11.0396 10.1975 11.701 10.7944 11.701 11.5464C11.701 12.2889 11.054 12.912 10.247 12.912H9.8149V14.0462H8.79297V10.1975ZM10.715 11.5512C10.7127 11.493 10.6986 11.4359 10.6735 11.3833C10.6485 11.3307 10.613 11.2838 10.5692 11.2454C10.5254 11.207 10.4743 11.1779 10.4189 11.1598C10.3635 11.1418 10.305 11.1352 10.247 11.1405H9.8149V11.969L10.247 11.9714C10.3057 11.9763 10.3648 11.9692 10.4206 11.9504C10.4764 11.9316 10.5278 11.9017 10.5717 11.8623C10.6155 11.823 10.6508 11.7751 10.6755 11.7216C10.7001 11.6681 10.7136 11.6101 10.715 11.5512Z" fill="white"/>
<path d="M12.3314 10.1975H13.7854C14.5781 10.1975 15.2395 10.7944 15.2395 11.5464C15.2395 12.2889 14.5924 12.912 13.7854 12.912H13.3533V14.0462H12.3314V10.1975ZM14.2534 11.5512C14.2511 11.493 14.237 11.4359 14.212 11.3833C14.1869 11.3307 14.1514 11.2838 14.1076 11.2454C14.0638 11.207 14.0127 11.1779 13.9573 11.1598C13.9019 11.1418 13.8434 11.1352 13.7854 11.1405H13.3533V11.969L13.7854 11.9714C13.8441 11.9763 13.9032 11.9692 13.959 11.9504C14.0149 11.9316 14.0663 11.9017 14.1101 11.8623C14.1539 11.823 14.1892 11.7751 14.2139 11.7216C14.2385 11.6681 14.252 11.6101 14.2534 11.5512Z" fill="white"/>
<path d="M18.3648 13.0864V14.0462H15.8698V10.1975H16.8918V13.0864L18.3648 13.0864Z" fill="white"/>
<path d="M18.7946 13.3943L19.4131 12.788C19.503 12.9094 19.6209 13.0074 19.7568 13.0735C19.8928 13.1396 20.0426 13.1719 20.1937 13.1675C20.411 13.1675 20.6235 13.0887 20.6235 12.9312C20.6235 12.733 20.2296 12.5588 19.8523 12.3916C19.3653 12.1815 18.9474 11.8616 18.9474 11.2814C18.9474 10.6153 19.5802 10.1401 20.3107 10.1401C20.8981 10.1401 21.3565 10.4171 21.5069 10.7967L20.9172 11.365C20.8026 11.1621 20.5065 11.0737 20.3226 11.0737C20.1126 11.0737 19.9622 11.1811 19.9622 11.3125C19.9622 11.4891 20.2343 11.5464 20.6498 11.7207C21.2514 11.9738 21.6502 12.3415 21.6502 12.9097C21.6502 13.6427 20.9673 14.0987 20.1961 14.0987C19.5635 14.0987 18.988 13.8194 18.7946 13.3943Z" fill="white"/>
<path d="M22.314 10.1975H23.3359V14.0462H22.314V10.1975Z" fill="white"/>
</g>
<defs>
<radialGradient id="paint0_radial_9967_2702" cx="0" cy="0" r="1" gradientUnits="userSpaceOnUse" gradientTransform="translate(7.9466 23.037) scale(27.4517)">
<stop stop-color="#5900A1"/>
<stop offset="0.82172" stop-color="#9400A1"/>
</radialGradient>
<radialGradient id="paint1_radial_9967_2702" cx="0" cy="0" r="1" gradientUnits="userSpaceOnUse" gradientTransform="translate(26.1638 23.0653) scale(29.3069 29.3069)">
<stop stop-color="#009DB9"/>
<stop offset="0.77162" stop-color="#45BDD6"/>
</radialGradient>
<clipPath id="clip0_9967_2702">
<rect width="32" height="24" fill="white"/>
</clipPath>
</defs>
</svg>
