<svg width="138" height="24" viewBox="0 0 138 24" fill="none" xmlns="http://www.w3.org/2000/svg">
<g clip-path="url(#clip0_13333_10573)">
<path d="M21.4608 2.29655C21.0475 2.10607 20.6308 1.92735 20.2105 1.76039C19.5691 1.50552 18.9184 1.28329 18.262 1.08348C14.1472 -0.165189 9.78095 -0.337753 5.58044 0.582277C4.25885 0.868764 2.96289 1.26278 1.70549 1.76039C1.28527 1.92734 0.86849 2.10606 0.455151 2.29655L0.00802785 2.50253L0.000244141 3.23709C0.00172908 4.88669 0.167073 6.53205 0.493841 8.14896C0.904399 10.1855 1.56574 12.1634 2.46276 14.0373C2.95659 15.0687 3.51983 16.0654 4.14861 17.0205C5.0144 18.3395 6.00191 19.5743 7.09819 20.7089C7.34132 20.9602 7.58641 21.2099 7.84052 21.4515C8.67663 22.2508 9.56714 22.9912 10.5057 23.6673L10.958 23.9913L11.4103 23.6673C12.3436 22.9917 13.229 22.2524 14.0602 21.4546L14.0754 21.4515C15.238 20.3234 16.3002 19.0964 17.2501 17.7843H15.3217C14.6549 18.6202 13.9381 19.4152 13.1755 20.1647C12.9216 20.4107 12.6609 20.6496 12.3952 20.8849C11.9341 21.2934 11.4619 21.6914 10.9662 22.0651L10.958 22.0588L10.9498 22.0651C10.5332 21.751 10.1321 21.4209 9.7398 21.0821C9.06999 20.5041 8.43328 19.8888 7.8327 19.2392C5.06851 16.2448 3.12405 12.5875 2.18748 8.62135C1.90434 7.42589 1.71552 6.21005 1.62277 4.98503C1.58599 4.49419 1.56153 4.00135 1.55584 3.50606C2.01301 3.30669 2.47619 3.12778 2.94204 2.95874C3.96452 2.58617 5.01191 2.28589 6.07649 2.06013C7.68164 1.72246 9.3176 1.55284 10.9579 1.55404C14.088 1.5515 17.1871 2.17547 20.0723 3.38919C20.1678 3.42939 20.2649 3.46452 20.3601 3.50606C20.3601 3.50606 20.3583 3.55525 20.3551 3.6284C20.3533 3.73586 20.3454 3.84236 20.3421 3.94963L20.3391 3.943C20.2532 5.47885 20.0569 7.00653 19.7517 8.51421C19.7324 8.6048 19.7134 8.69508 19.6929 8.7854C19.6828 8.82712 19.6733 8.86901 19.6629 8.91068C19.5473 9.41672 19.4055 9.91639 19.238 10.4077C19.2097 10.4888 19.1817 10.5608 19.1535 10.638C18.9929 11.0855 18.8067 11.5234 18.5958 11.9496C18.53 12.0847 18.4613 12.2139 18.3895 12.3371C18.3441 12.4167 18.2998 12.4906 18.2561 12.5608C18.2521 12.567 18.2484 12.5737 18.2444 12.5798C18.1615 12.712 18.0844 12.8204 18.0105 12.918C18.0085 12.9212 18.0075 12.924 18.0055 12.9272C17.1732 14.2387 16.1255 14.108 15.6419 13.9545C15.5967 13.9402 15.5555 13.9257 15.5208 13.9121C15.4692 13.8889 15.4198 13.8611 15.3731 13.829C14.7666 13.4348 14.5983 12.3427 14.9782 10.4164L16.0681 4.6156C14.9843 4.15508 13.8162 3.92597 12.6387 3.94296C11.6403 3.93942 10.651 4.13347 9.72793 4.51392C8.80482 4.89438 7.96612 5.45371 7.26012 6.15971C6.55412 6.86571 5.99479 7.70442 5.61435 8.62753C5.2339 9.55064 5.03986 10.5399 5.0434 11.5383C5.0434 14.0705 6.64578 15.5765 8.50471 15.5765C10.4275 15.5765 11.9016 14.6474 13.0235 12.7559H13.1518C13.0554 14.7112 14.2411 15.5765 15.5231 15.5765C16.0035 15.5736 16.4806 15.4979 16.9383 15.3519L16.9359 15.3557C16.9463 15.3524 16.9565 15.3483 16.9668 15.345L16.9722 15.3437C17.051 15.3183 17.1299 15.2912 17.2075 15.2617L17.2151 15.2591C17.2207 15.2569 17.2266 15.2554 17.2323 15.2531L17.2312 15.2515C17.4121 15.1795 17.5887 15.097 17.76 15.0043L17.7846 14.9909C18.9768 14.3144 19.8858 13.2314 20.3454 11.94C20.6291 11.1779 20.8757 10.4022 21.0851 9.6129C21.6359 7.53237 21.9151 5.3893 21.9157 3.23709L21.9079 2.50254L21.4608 2.29655ZM13.3076 9.46988C12.3791 12.3454 11.5643 12.9513 10.1573 13.7525C8.75034 14.5538 5.61268 13.3198 7.72049 8.81725C9.82825 4.31465 13.8569 5.86638 13.8569 5.86638C13.8569 5.86638 14.236 6.59435 13.3076 9.46988Z" fill="url(#paint0_radial_13333_10573)"/>
<path d="M31.6376 8.95895C31.6376 7.5257 33.3002 7.29636 34.3895 7.29636C35.4409 7.34655 36.4727 7.59964 37.428 8.04167L38.1733 6.2071C36.9874 5.64768 35.7 5.33557 34.3895 5.28977C32.1536 5.28977 29.5164 6.26442 29.5164 8.90163C29.5164 13.4881 36.3387 12.1122 36.3387 14.864C36.3387 16.1253 34.5615 16.5266 33.5869 16.5266C32.5549 16.5266 31.2936 16.068 30.319 15.724L29.5164 17.5586C30.7776 18.0746 32.2109 18.5905 33.5869 18.5905C35.8227 18.5905 38.4599 17.5013 38.4599 14.9213C38.4599 10.3349 31.6376 11.7682 31.6376 8.95895Z" fill="url(#paint1_radial_13333_10573)"/>
<path d="M44.4224 8.95895C43.2184 8.95895 42.1865 9.53229 41.7278 10.6789V5.46181H39.7213V18.3039H41.7278V13.2014C41.7278 11.8828 42.3585 10.8509 43.7344 10.8509C45.1104 10.8509 45.741 11.8828 45.741 13.2014V18.3039H47.7476V13.1441C47.7476 11.0229 46.8303 8.95895 44.4224 8.95895Z" fill="url(#paint2_radial_13333_10573)"/>
<path d="M51.0154 9.13097H49.0088V18.3039H51.0154V9.13097Z" fill="url(#paint3_radial_13333_10573)"/>
<path d="M51.0154 5.46179H49.0088V7.755H51.0154V5.46179Z" fill="url(#paint4_radial_13333_10573)"/>
<path d="M56.6912 8.95895C56.0689 8.95853 55.4527 9.08174 54.8784 9.32144C54.304 9.56113 53.7831 9.91254 53.3457 10.3553C52.9083 10.798 52.5632 11.3232 52.3305 11.9003C52.0978 12.4775 51.9821 13.0952 51.99 13.7174C51.99 18.3612 57.7231 20.0238 60.647 16.756L59.2711 15.552C58.9601 15.9161 58.573 16.2074 58.1372 16.4055C57.7013 16.6037 57.2273 16.7037 56.7485 16.6986C56.1314 16.7132 55.5278 16.5166 55.0378 16.1412C54.5477 15.7658 54.2006 15.2343 54.054 14.6347H61.335C61.3826 14.3314 61.4018 14.0243 61.3923 13.7174C61.4003 13.0952 61.2846 12.4775 61.0518 11.9003C60.8191 11.3232 60.4741 10.798 60.0367 10.3553C59.5993 9.91255 59.0783 9.56114 58.504 9.32145C57.9297 9.08175 57.3135 8.95853 56.6912 8.95895ZM54.1113 12.9148C54.6273 10.1629 58.6405 10.1629 59.3284 12.9148H54.1113Z" fill="url(#paint5_radial_13333_10573)"/>
<path d="M64.4882 5.46179H62.4816V18.2465H64.4882V5.46179Z" fill="url(#paint6_radial_13333_10573)"/>
<path d="M72.7439 10.5642C72.4095 10.0664 71.9569 9.65926 71.4267 9.37913C70.8964 9.099 70.305 8.95464 69.7053 8.95895C67.1254 8.95895 65.1762 11.2522 65.1762 13.7174C65.1762 16.2973 67.1254 18.4759 69.7053 18.4759C70.3117 18.4815 70.9093 18.3316 71.4412 18.0405C71.9732 17.7495 72.4216 17.3269 72.7439 16.8133V18.2465H74.7504V5.46181H72.7439V10.5642ZM69.992 16.5839C69.2317 16.5839 68.5026 16.2819 67.965 15.7444C67.4274 15.2068 67.1254 14.4777 67.1254 13.7174C67.1254 12.9572 67.4274 12.2281 67.965 11.6905C68.5026 11.1529 69.2317 10.8509 69.992 10.8509C70.3651 10.8531 70.7341 10.9292 71.0776 11.0748C71.4212 11.2204 71.7325 11.4325 71.9937 11.699C72.2548 11.9655 72.4606 12.2811 72.5992 12.6275C72.7378 12.9739 72.8065 13.3444 72.8012 13.7174C72.8113 14.0918 72.746 14.4644 72.6092 14.813C72.4723 15.1616 72.2667 15.4791 72.0046 15.7465C71.7424 16.014 71.4292 16.226 71.0834 16.3699C70.7376 16.5137 70.3665 16.5865 69.992 16.5839Z" fill="url(#paint7_radial_13333_10573)"/>
<path d="M80.9146 5.72471L76.6598 18.2467H78.332L79.6323 14.3082H84.0728L85.4102 18.2467H87.1382L82.8653 5.72471H80.9146ZM79.9668 13.0445L81.1931 9.42195C81.4347 8.66059 81.6389 7.89851 81.8246 7.15565H81.862C82.0477 7.88001 82.2334 8.62288 82.512 9.44046L83.7384 13.0445H79.9668Z" fill="url(#paint8_radial_13333_10573)"/>
<path d="M90.7063 6.6725L89.1085 7.09944V9.25473H87.7153V10.4992H89.1085V15.404C89.1085 16.4635 89.2757 17.2619 89.7403 17.745C89.9675 17.9802 90.2429 18.1635 90.5475 18.2821C90.8522 18.4008 91.179 18.452 91.5054 18.4324C91.998 18.4481 92.4893 18.3725 92.9544 18.2097L92.8801 16.9837C92.5705 17.0619 92.252 17.0992 91.9326 17.0947C91.0222 17.0947 90.7063 16.4635 90.7063 15.3485V10.4992H93.0473V9.25474H90.7063L90.7063 6.6725Z" fill="url(#paint9_radial_13333_10573)"/>
<path d="M105.792 12.0412C105.402 13.6023 105.049 14.9956 104.789 16.3703H104.752C104.566 15.0511 104.232 13.5646 103.879 12.0789L102.356 5.72471H100.665L98.9927 12.0412C98.5654 13.6578 98.1755 15.1443 97.9709 16.3888H97.9339C97.7108 15.1813 97.3764 13.6208 97.005 12.0604L95.5185 5.72471H93.8094L96.9865 18.2467H98.6771L100.461 11.726C100.855 10.3818 101.178 9.01746 101.427 7.63879H101.464C101.661 9.01522 101.933 10.3797 102.281 11.726L103.86 18.2467H105.551L109.099 5.72471H107.446L105.792 12.0412Z" fill="url(#paint10_radial_13333_10573)"/>
<path d="M113.801 9.05052C111.312 9.05052 109.342 10.8152 109.342 13.8251C109.342 16.6677 111.219 18.4509 113.653 18.4509C115.826 18.4509 118.13 17.0022 118.13 13.6763C118.13 10.9269 116.383 9.05052 113.801 9.05052ZM113.727 17.2249C112.129 17.2249 110.996 15.7384 110.996 13.7696C110.996 12.0604 111.832 10.2765 113.764 10.2765C115.696 10.2765 116.458 12.2084 116.458 13.7318C116.458 15.7569 115.287 17.2249 113.727 17.2249Z" fill="url(#paint11_radial_13333_10573)"/>
<path d="M121.679 11.0194H121.605L121.549 9.25474H120.119C120.175 10.0908 120.193 11.0009 120.193 12.0604V18.2467H121.809V13.4536C121.813 13.198 121.838 12.9431 121.884 12.6916C122.107 11.4655 122.924 10.5925 124.076 10.5925C124.263 10.5897 124.45 10.6084 124.633 10.648V9.10602C124.482 9.06713 124.326 9.04847 124.169 9.05052C123.073 9.05052 122.088 9.81189 121.679 11.0194Z" fill="url(#paint12_radial_13333_10573)"/>
<path d="M133.403 9.25474H131.434L128.796 12.3571C128.535 12.6731 128.22 13.063 127.996 13.3789H127.959V5.05585H126.343V18.2467H127.959V14.8654L128.796 13.9368L131.898 18.2467H133.886L129.929 12.952L133.403 9.25474Z" fill="url(#paint13_radial_13333_10573)"/>
</g>
<defs>
<radialGradient id="paint0_radial_13333_10573" cx="0" cy="0" r="1" gradientUnits="userSpaceOnUse" gradientTransform="translate(128.584 24.1574) rotate(180) scale(131.5 152.256)">
<stop stop-color="#0FDDFC"/>
<stop offset="0.09835" stop-color="#45BDD6"/>
<stop offset="1" stop-color="#5900A1"/>
</radialGradient>
<radialGradient id="paint1_radial_13333_10573" cx="0" cy="0" r="1" gradientUnits="userSpaceOnUse" gradientTransform="translate(1246.32 26.5175) rotate(180) scale(1534.58 154.933)">
<stop stop-color="#0FDDFC"/>
<stop offset="0.09835" stop-color="#45BDD6"/>
<stop offset="1" stop-color="#5900A1"/>
</radialGradient>
<radialGradient id="paint2_radial_13333_10573" cx="0" cy="0" r="1" gradientUnits="userSpaceOnUse" gradientTransform="translate(1252.69 27.1027) rotate(180) scale(1709.96 160.467)">
<stop stop-color="#0FDDFC"/>
<stop offset="0.09835" stop-color="#45BDD6"/>
<stop offset="1" stop-color="#5900A1"/>
</radialGradient>
<radialGradient id="paint3_radial_13333_10573" cx="0" cy="0" r="1" gradientUnits="userSpaceOnUse" gradientTransform="translate(4439.09 30.5075) rotate(180) scale(6839.78 224.654)">
<stop stop-color="#0FDDFC"/>
<stop offset="0.09835" stop-color="#45BDD6"/>
<stop offset="1" stop-color="#5900A1"/>
</radialGradient>
<radialGradient id="paint4_radial_13333_10573" cx="0" cy="0" r="1" gradientUnits="userSpaceOnUse" gradientTransform="translate(4439.09 128.519) rotate(180) scale(6839.78 898.624)">
<stop stop-color="#0FDDFC"/>
<stop offset="0.09835" stop-color="#45BDD6"/>
<stop offset="1" stop-color="#5900A1"/>
</radialGradient>
<radialGradient id="paint5_radial_13333_10573" cx="0" cy="0" r="1" gradientUnits="userSpaceOnUse" gradientTransform="translate(937.233 29.8752) rotate(180) scale(1459.29 216.909)">
<stop stop-color="#0FDDFC"/>
<stop offset="0.09835" stop-color="#45BDD6"/>
<stop offset="1" stop-color="#5900A1"/>
</radialGradient>
<radialGradient id="paint6_radial_13333_10573" cx="0" cy="0" r="1" gradientUnits="userSpaceOnUse" gradientTransform="translate(3738.32 27.2016) rotate(180) scale(6839.78 161.187)">
<stop stop-color="#0FDDFC"/>
<stop offset="0.09835" stop-color="#45BDD6"/>
<stop offset="1" stop-color="#5900A1"/>
</radialGradient>
<radialGradient id="paint7_radial_13333_10573" cx="0" cy="0" r="1" gradientUnits="userSpaceOnUse" gradientTransform="translate(777.441 26.8111) rotate(180) scale(1433.49 158.345)">
<stop stop-color="#0FDDFC"/>
<stop offset="0.09835" stop-color="#45BDD6"/>
<stop offset="1" stop-color="#5900A1"/>
</radialGradient>
<radialGradient id="paint8_radial_13333_10573" cx="0" cy="0" r="1" gradientUnits="userSpaceOnUse" gradientTransform="translate(598.524 27.3822) rotate(180) scale(1309.81 164.569)">
<stop stop-color="#0FDDFC"/>
<stop offset="0.09835" stop-color="#45BDD6"/>
<stop offset="1" stop-color="#5900A1"/>
</radialGradient>
<radialGradient id="paint9_radial_13333_10573" cx="0" cy="0" r="1" gradientUnits="userSpaceOnUse" gradientTransform="translate(931.312 27.7303) rotate(180) scale(2573.99 175.173)">
<stop stop-color="#0FDDFC"/>
<stop offset="0.09835" stop-color="#45BDD6"/>
<stop offset="1" stop-color="#5900A1"/>
</radialGradient>
<radialGradient id="paint10_radial_13333_10573" cx="0" cy="0" r="1" gradientUnits="userSpaceOnUse" gradientTransform="translate(302.401 27.3822) rotate(180) scale(897.626 164.569)">
<stop stop-color="#0FDDFC"/>
<stop offset="0.09835" stop-color="#45BDD6"/>
<stop offset="1" stop-color="#5900A1"/>
</radialGradient>
<radialGradient id="paint11_radial_13333_10573" cx="0" cy="0" r="1" gradientUnits="userSpaceOnUse" gradientTransform="translate(319.832 30.0076) rotate(180) scale(1561.8 219.218)">
<stop stop-color="#0FDDFC"/>
<stop offset="0.09835" stop-color="#45BDD6"/>
<stop offset="1" stop-color="#5900A1"/>
</radialGradient>
<radialGradient id="paint12_radial_13333_10573" cx="0" cy="0" r="1" gradientUnits="userSpaceOnUse" gradientTransform="translate(345.495 30.5615) rotate(180) scale(3040.14 224.083)">
<stop stop-color="#0FDDFC"/>
<stop offset="0.09835" stop-color="#45BDD6"/>
<stop offset="1" stop-color="#5900A1"/>
</radialGradient>
<radialGradient id="paint13_radial_13333_10573" cx="0" cy="0" r="1" gradientUnits="userSpaceOnUse" gradientTransform="translate(133.786 26.3805) rotate(180) scale(131.5 152.256)">
<stop stop-color="#0FDDFC"/>
<stop offset="0.09835" stop-color="#45BDD6"/>
<stop offset="1" stop-color="#5900A1"/>
</radialGradient>
<clipPath id="clip0_13333_10573">
<rect width="138" height="24" fill="white"/>
</clipPath>
</defs>
</svg>
