<svg width="154" height="24" viewBox="0 0 154 24" fill="none" xmlns="http://www.w3.org/2000/svg">
<g clip-path="url(#clip0_13333_10572)">
<path d="M115.328 13.2291V18.3313H113.358V13.2469C113.358 11.9602 112.755 10.9309 111.353 10.9309C109.978 10.9309 109.357 11.9779 109.357 13.2469V18.3313H107.387V9.24492H109.357V10.7889C109.809 9.64422 110.847 9.07632 112.054 9.07632C114.432 9.07632 115.328 11.1438 115.328 13.2291ZM122.548 18.3313H124.518V13.2291C124.518 11.1438 123.622 9.07632 121.244 9.07632C120.037 9.07632 118.999 9.64423 118.546 10.7889V9.24492H116.577V18.3313H118.546V13.2469C118.546 11.978 119.168 10.9309 120.543 10.9309C121.945 10.9309 122.548 11.9602 122.548 13.2469V18.3313ZM10.9698 5.07933e-05C10.6408 -0.000607668 10.3119 0.00726925 9.98317 0.0192631L9.98264 0.0122508C9.94414 0.01494 9.90775 0.0204293 9.86954 0.0235123C6.64923 0.155352 3.45012 0.892115 0.459465 2.23278L0 2.46249V3.20912C0 11.3072 3.90553 18.9459 10.5103 23.6554L10.9698 24L11.4292 23.6554C12.1774 23.122 12.8885 22.5488 13.5653 21.9436C13.5764 21.934 13.588 21.9235 13.5993 21.9139C13.6433 21.8742 13.6886 21.8356 13.7324 21.7957C14.7802 20.8716 15.8936 19.6657 17.131 18.1093C19.2353 15.4625 19.4255 13.0011 17.7108 10.7868C17.4918 11.274 17.1074 11.6699 16.6292 11.9049C17.738 13.4817 17.5112 15.1612 15.9279 17.1528C15.543 17.6368 15.1747 18.0807 14.8172 18.4947L14.8157 18.4945C14.6958 18.636 14.5722 18.7762 14.4476 18.9157C14.407 18.9611 14.3666 19.0059 14.3263 19.0504C13.7906 19.6403 13.2144 20.2099 12.6108 20.7514C12.6005 20.7604 12.5898 20.7705 12.5794 20.7794C12.0599 21.2439 11.5214 21.6883 10.9698 22.1047C5.11157 17.6823 1.66558 10.7903 1.55067 3.49629C2.704 2.98616 3.90703 2.57202 5.10074 2.2735C6.12036 2.0185 7.72608 1.54358 10.9698 1.54358C14.1861 1.54358 17.4024 2.17532 20.3889 3.49629C20.3576 5.48259 20.0767 7.4381 19.5689 9.32256L19.8634 9.80555C20.1661 10.302 20.3988 10.828 20.5734 11.3727C21.4651 8.77547 21.9396 6.02075 21.9396 3.20912V2.46249L21.4801 2.23278C18.1489 0.739497 14.5594 -0.00709382 10.9698 5.07933e-05ZM31.4351 16.0663V5.34283H29.3817V18.0627H36.911C36.3406 17.4923 35.8842 16.8078 35.542 16.0663H31.4351ZM106.745 13.8059C106.745 16.4679 104.615 18.5177 101.971 18.5177C99.3089 18.5177 97.188 16.4857 97.188 13.8059C97.188 11.1705 99.3444 9.05857 101.971 9.05857C104.606 9.05857 106.745 11.1616 106.745 13.8059ZM104.784 13.797C104.784 12.2264 103.559 10.9309 101.971 10.9309C100.374 10.9309 99.1492 12.2175 99.1492 13.797C99.1492 15.3854 100.374 16.6454 101.971 16.6454C103.559 16.6454 104.784 15.3765 104.784 13.797ZM76.37 13.533C76.37 13.8347 76.3523 14.1364 76.3078 14.4381H69.0761C69.36 15.6893 70.5223 16.4613 71.7736 16.4613C72.7497 16.4613 73.637 16.062 74.2846 15.3343L75.6602 16.5411C73.0505 19.3907 68.4078 18.4826 67.2675 15.1447L69.7238 9.22783C70.3176 8.95241 70.9792 8.7946 71.6849 8.7946C74.3114 8.7946 76.37 10.9154 76.37 13.533ZM74.2937 12.7167C73.637 9.95703 69.6262 9.99253 69.0848 12.7167H74.2937ZM79.4404 10.9331V8.98095H77.4705V18.0674H79.4404V13.187C79.4404 11.856 79.9905 10.8178 81.4458 10.8178H82.6613V8.98095C81.0641 8.98095 79.7863 9.07856 79.4404 10.9331ZM95.8038 14.6045C94.9432 15.8113 93.5322 16.6543 92.0237 16.6543C89.3352 16.6543 87.4007 14.6311 87.4007 11.9602C87.4007 9.41351 89.4681 7.28388 92.0237 7.28388C93.4347 7.28388 94.7835 8.00263 95.644 9.10294L97.188 7.7808C95.8483 6.1747 94.1268 5.31397 92.0237 5.31397C88.2881 5.31397 85.3331 8.20672 85.3331 11.9602C85.3331 15.7225 88.2703 18.6242 92.0237 18.6242C93.7158 18.6242 95.35 17.928 96.586 16.789C96.2426 16.1509 96.014 15.4414 95.9104 14.6872L95.8038 14.6045ZM44.0584 8.98095H46.0283V18.0674H44.0584V16.6565C43.3398 17.6858 42.3192 18.2448 41.0592 18.2448C38.4681 18.2448 36.5783 16.0709 36.5783 13.5419C36.5783 11.084 38.5304 8.81236 41.0592 8.81236C42.3192 8.81236 43.3486 9.36251 44.0584 10.3918V8.98095ZM44.1739 13.533C44.1739 11.9624 42.9494 10.6669 41.3609 10.6669C39.7637 10.6669 38.5391 11.9536 38.5391 13.533C38.5391 15.1214 39.7637 16.3814 41.3609 16.3814C42.9494 16.3814 44.1739 15.1125 44.1739 13.533ZM66.0662 8.98095L63.6439 14.9439L61.0971 8.98095H57.7778L56.0209 14.8907L54.0242 8.98095H52.3473L50.3596 14.8907L48.6027 8.98095H46.5172L49.4368 18.0674H51.1847L53.1901 12.0245L55.1868 18.0674H56.9437L59.4804 10.1716L62.6056 17.3043L60.7689 21.7854H62.8718L68.1871 8.98095H66.0662ZM15.5116 11.3219C16.2831 11.3219 16.9086 10.6964 16.9086 9.9249C16.9086 9.15336 16.2831 8.52791 15.5116 8.52791C15.3116 8.52791 15.1224 8.57145 14.9505 8.64711L12.6098 5.60844C12.7995 5.36992 12.9176 5.07198 12.9176 4.74354C12.9176 3.972 12.2922 3.34654 11.5207 3.34654C10.7491 3.34654 10.1236 3.972 10.1236 4.74354C10.1236 5.51508 10.7491 6.14053 11.5207 6.14053C11.7206 6.14053 11.9098 6.09699 12.0817 6.02133L14.4224 9.05998C14.3567 9.14252 14.2995 9.23104 14.2536 9.32724L7.38681 7.93232C7.3549 7.189 6.74693 6.59483 5.99574 6.59483C5.22426 6.59483 4.59877 7.22028 4.59877 7.99182C4.59877 8.76336 5.22426 9.38881 5.99574 9.38881C6.55256 9.38881 7.02926 9.0607 7.25375 8.58942L14.1206 9.98434C14.1255 10.0976 14.1451 10.206 14.1754 10.3107L10.6259 12.3647C10.3718 12.1013 10.0169 11.936 9.62196 11.936C8.85047 11.936 8.22499 12.5615 8.22499 13.333C8.22499 14.1046 8.85047 14.73 9.62196 14.73C10.3935 14.73 11.019 14.1046 11.019 13.333C11.019 13.1982 10.9939 13.0705 10.9582 12.9472L14.5077 10.8932C14.7618 11.1566 15.1167 11.3219 15.5116 11.3219ZM142.581 12.2885L144.178 11.3036C143.335 9.91043 141.809 9.05858 140.185 9.05858C138.162 9.05858 136.422 10.3142 135.728 12.0948C135.879 12.637 135.966 13.2065 135.966 13.797C135.966 14.1957 135.941 14.5648 135.888 14.9254L135.776 15.6875C137.157 18.9416 142.033 19.7021 144.169 16.3082L142.608 15.2434C141.108 17.7279 137.363 16.6986 137.363 13.797C137.363 10.8954 141.144 9.84832 142.581 12.2885ZM148.242 6.59175H146.273V9.24492H144.383V11.1261H146.273V18.3313H148.242V11.1261H150.159V9.24492H148.242V6.59175ZM125.338 13.797C125.338 11.1882 127.388 9.05857 130.015 9.05857C132.641 9.05857 134.7 11.1793 134.7 13.797C134.7 14.0987 134.682 14.4004 134.638 14.7021H127.406C127.69 15.9533 128.852 16.7252 130.103 16.7252C131.08 16.7252 131.967 16.3259 132.615 15.5983L133.99 16.8051C131 20.0705 125.338 18.4023 125.338 13.797ZM127.415 12.9806H132.623C131.967 10.221 127.956 10.2565 127.415 12.9806ZM136.128 21.6785C136.128 22.8857 134.512 23.3345 134.001 22.3158V22.8229H133.751V19.6052H134.001V21.0389C134.523 19.9909 136.128 20.4915 136.128 21.6785ZM134.923 20.7225C134.393 20.7225 133.978 21.1488 133.978 21.6761C133.978 22.2082 134.389 22.6255 134.923 22.6255C135.457 22.6255 135.876 22.2124 135.876 21.6761C135.876 21.1443 135.454 20.7225 134.923 20.7225ZM138.276 20.5251L136.911 23.8101H136.638L137.078 22.7445L136.106 20.5251H136.382L137.212 22.4503L138.002 20.5251H138.276ZM140.13 22.8229H139.87V19.6052H141.021C141.6 19.6052 142.069 20.0787 142.069 20.6576C142.069 21.2411 141.605 21.7032 141.021 21.7032H140.13V22.8229ZM140.13 21.4451H141.021C141.461 21.4451 141.807 21.0951 141.811 20.6576C141.816 20.2223 141.454 19.8654 141.021 19.8654H140.13V21.4451ZM142.667 22.8229H142.407V19.6052H143.558C144.137 19.6052 144.606 20.0787 144.606 20.6576C144.606 21.2411 144.141 21.7032 143.558 21.7032H142.667V22.8229ZM142.667 21.4451H143.558C143.998 21.4451 144.343 21.0951 144.348 20.6576C144.352 20.2223 143.991 19.8654 143.558 19.8654H142.667V21.4451ZM145.203 19.6052V22.5603H146.711V22.8229H144.943V19.6052H145.203ZM147.751 22.6321C148.112 22.6321 148.664 22.4774 148.664 22.0309C148.664 21.1176 146.793 21.5842 146.793 20.3995C146.793 19.7734 147.437 19.5469 147.964 19.5469C148.242 19.5469 148.548 19.6118 148.801 19.7242L148.707 19.9642C148.471 19.8723 148.22 19.8071 147.966 19.8071C147.583 19.8071 147.053 19.9215 147.053 20.4016C147.053 21.3105 148.925 20.846 148.925 22.033C148.925 22.6477 148.271 22.8881 147.751 22.8881C147.435 22.8881 147.127 22.7938 146.838 22.6772L146.939 22.4392C147.197 22.5447 147.47 22.6321 147.751 22.6321ZM149.352 19.6052H149.614V22.8229H149.352V19.6052Z" fill="url(#paint0_radial_13333_10572)"/>
</g>
<defs>
<radialGradient id="paint0_radial_13333_10572" cx="0" cy="0" r="1" gradientUnits="userSpaceOnUse" gradientTransform="translate(146.004 12.7771) scale(101.391 101.391)">
<stop stop-color="#0FDDFC"/>
<stop offset="0.09835" stop-color="#45BDD6"/>
<stop offset="1" stop-color="#5900A1"/>
</radialGradient>
<clipPath id="clip0_13333_10572">
<rect width="154" height="24" fill="white"/>
</clipPath>
</defs>
</svg>
