<svg width="20" height="20" viewBox="0 0 20 20" fill="none" xmlns="http://www.w3.org/2000/svg">
<path fill-rule="evenodd" clip-rule="evenodd" d="M10 0C4.47715 0 0 4.47715 0 10C0 15.5228 4.47715 20 10 20C15.5228 20 20 15.5228 20 10C20 4.47715 15.5228 0 10 0ZM9.9502 5C9.39791 5 8.9502 5.44772 8.9502 6V6.09998C8.9502 6.65216 9.39776 7.09984 9.94995 7.09998L10.0496 7.1C10.3148 7.10006 10.5692 6.99474 10.7568 6.80719C10.9444 6.61965 11.0498 6.36526 11.0498 6.1V6C11.0498 5.44772 10.6021 5 10.0498 5H9.9502ZM11 9C11 8.44772 10.5523 8 10 8C9.44771 8 9 8.44772 9 9V14C9 14.5523 9.44771 15 10 15C10.5523 15 11 14.5523 11 14V9Z" fill="#121212"/>
</svg>
