<svg width="20" height="18" viewBox="0 0 20 18" fill="none" xmlns="http://www.w3.org/2000/svg">
<path fill-rule="evenodd" clip-rule="evenodd" d="M11.2202 0.259364C10.4435 -0.0864546 9.55628 -0.0864545 8.77956 0.259364C8.231 0.503599 7.84036 0.949033 7.5091 1.41797C7.18122 1.88214 6.82145 2.50532 6.38798 3.25613L1.48882 11.7417C1.05469 12.4936 0.694458 13.1175 0.456224 13.6342C0.215783 14.1556 0.0255091 14.7165 0.0882639 15.3136C0.177157 16.1594 0.620979 16.9275 1.30867 17.4271C1.7944 17.78 2.37536 17.8957 2.94713 17.9481C3.51346 18.0001 4.23362 18.0001 5.10144 18.0001H14.8988C15.7666 18.0001 16.4867 18.0001 17.053 17.9481C17.6248 17.8957 18.2057 17.78 18.6914 17.4271C19.3791 16.9275 19.8229 16.1594 19.9118 15.3136C19.9746 14.7165 19.7843 14.1556 19.5439 13.6342C19.3056 13.1175 18.9454 12.4936 18.5112 11.7417L13.6138 3.25909C13.1796 2.50692 12.8192 1.88267 12.4907 1.41786C12.1594 0.948903 11.7687 0.50356 11.2202 0.259364ZM11 6C11 5.44772 10.5523 5 10 5C9.44771 5 9 5.44772 9 6V10C9 10.5523 9.44771 11 10 11C10.5523 11 11 10.5523 11 10V6ZM9.9502 12C9.39791 12 8.9502 12.4477 8.9502 13V13.1C8.9502 13.6522 9.39776 14.0998 9.94995 14.1L10.0496 14.1C10.3148 14.1001 10.5692 13.9947 10.7568 13.8072C10.9444 13.6197 11.0498 13.3653 11.0498 13.1V13C11.0498 12.4477 10.6021 12 10.0498 12H9.9502Z" fill="#121212"/>
</svg>
