<svg width="20" height="20" viewBox="0 0 20 20" fill="none" xmlns="http://www.w3.org/2000/svg">
<path fill-rule="evenodd" clip-rule="evenodd" d="M10 0C4.47715 0 0 4.47715 0 10C0 15.5228 4.47715 20 10 20C15.5228 20 20 15.5228 20 10C20 4.47715 15.5228 0 10 0ZM11 6.44995C11 5.89767 10.5523 5.44995 10 5.44995C9.44771 5.44995 9 5.89767 9 6.44995V10.45C9 11.0022 9.44771 11.45 10 11.45C10.5523 11.45 11 11.0022 11 10.45V6.44995ZM9.9502 12.45C9.39791 12.45 8.9502 12.8977 8.9502 13.45V13.5499C8.9502 14.1021 9.39776 14.5498 9.94995 14.5499L10.0496 14.55C10.3148 14.55 10.5692 14.4447 10.7568 14.2571C10.9444 14.0696 11.0498 13.8152 11.0498 13.55V13.45C11.0498 12.8977 10.6021 12.45 10.0498 12.45H9.9502Z" fill="#121212"/>
</svg>
