<svg width="24" height="24" viewBox="0 0 24 24" fill="none" xmlns="http://www.w3.org/2000/svg">
<path fill-rule="evenodd" clip-rule="evenodd" d="M18.4761 3.74236C18.4277 3.1922 17.9425 2.78544 17.3924 2.83383C16.8422 2.88223 16.4354 3.36745 16.4838 3.91761L16.6361 5.64902C15.3124 4.77908 13.7647 4.2945 12.1679 4.26091C10.2431 4.22041 8.36211 4.83762 6.83549 6.01061C5.30888 7.1836 4.228 8.8422 3.77138 10.7125C3.31475 12.5828 3.5097 14.5529 4.32401 16.2974C5.13832 18.0419 6.5233 19.4565 8.25019 20.3076C9.97709 21.1586 11.9426 21.3952 13.8221 20.9783C15.7017 20.5613 17.3828 19.5158 18.5878 18.0143C19.7928 16.5129 20.4497 14.6453 20.45 12.7201C20.45 12.1678 20.0024 11.7201 19.4501 11.72C18.8978 11.7199 18.45 12.1676 18.45 12.7199C18.4498 14.1899 17.9482 15.616 17.028 16.7625C16.1079 17.909 14.8242 18.7073 13.389 19.0257C11.9538 19.3441 10.453 19.1634 9.1343 18.5136C7.81566 17.8637 6.7581 16.7835 6.13629 15.4514C5.51449 14.1193 5.36563 12.615 5.71431 11.1868C6.06298 9.75871 6.88833 8.49222 8.05405 7.59653C9.21976 6.70084 10.6561 6.22954 12.1259 6.26046C13.364 6.28651 14.5634 6.66763 15.5844 7.35136L13.4501 7.54404C12.9 7.59369 12.4944 8.07985 12.544 8.6299C12.5937 9.17995 13.0798 9.58559 13.6299 9.53594L17.9499 9.14594C18.499 9.09636 18.9044 8.61163 18.8561 8.06236L18.4761 3.74236Z" fill="#545454"/>
</svg>
