<svg width="24" height="24" viewBox="0 0 24 24" fill="none" xmlns="http://www.w3.org/2000/svg">
<path fill-rule="evenodd" clip-rule="evenodd" d="M4.65002 11.07C4.65002 7.52433 7.52436 4.64999 11.07 4.64999C14.6157 4.64999 17.49 7.52433 17.49 11.07C17.49 12.7964 16.8086 14.3637 15.7 15.5175C15.6662 15.5435 15.6338 15.572 15.6029 15.6029C15.572 15.6338 15.5435 15.6662 15.5175 15.7C14.3637 16.8085 12.7964 17.49 11.07 17.49C7.52436 17.49 4.65002 14.6157 4.65002 11.07ZM16.2749 17.6891C14.8424 18.817 13.0348 19.49 11.07 19.49C6.41979 19.49 2.65002 15.7202 2.65002 11.07C2.65002 6.41976 6.41979 2.64999 11.07 2.64999C15.7203 2.64999 19.49 6.41976 19.49 11.07C19.49 13.0348 18.8171 14.8424 17.6891 16.2749L21.0571 19.6429C21.4476 20.0334 21.4476 20.6666 21.0571 21.0571C20.6666 21.4476 20.0334 21.4476 19.6429 21.0571L16.2749 17.6891Z" fill="#545454"/>
</svg>
