<svg width="24" height="24" viewBox="0 0 24 24" fill="none" xmlns="http://www.w3.org/2000/svg">
<path fill-rule="evenodd" clip-rule="evenodd" d="M3.41713 2.00292C3.0266 1.61239 2.39344 1.61239 2.00292 2.00292C1.61239 2.39344 1.61239 3.0266 2.00292 3.41713L5.51044 6.92466C4.02257 8.22456 2.77572 9.78118 1.83096 11.5233C1.67532 11.8103 1.66959 12.1552 1.81559 12.4472L2.71002 12C1.81559 12.4472 1.81576 12.4476 1.81594 12.4479L1.81636 12.4488L1.81745 12.4509L1.82056 12.4571L1.83055 12.4766C1.83889 12.4928 1.85056 12.5153 1.86556 12.5437C1.89554 12.6003 1.93884 12.6805 1.99525 12.7807C2.108 12.9812 2.2736 13.2628 2.49053 13.5986C2.92314 14.2682 3.56644 15.1634 4.40961 16.0619C6.07766 17.8392 8.64739 19.7514 12.0034 19.74L12.019 19.7398C13.7461 19.7071 15.4259 19.2052 16.8817 18.2959L20.5829 21.9971C20.9734 22.3877 21.6066 22.3877 21.9971 21.9971C22.3877 21.6066 22.3877 20.9734 21.9971 20.5829L17.7092 16.295C17.7085 16.2943 17.7078 16.2936 17.7071 16.2929L14.5012 13.087L14.494 13.0798L10.9219 9.50772L10.911 9.49681L7.70713 6.29291C7.70639 6.29217 7.70564 6.29143 7.7049 6.29069L3.41713 2.00292ZM15.4198 16.834L13.7073 15.1215C13.6091 15.1784 13.5082 15.2306 13.4046 15.278C12.9827 15.471 12.5269 15.579 12.0632 15.5958C11.5996 15.6126 11.1371 15.538 10.7023 15.3761C10.2675 15.2142 9.86881 14.9683 9.52904 14.6523C9.18927 14.3364 8.91506 13.9566 8.72207 13.5346C8.52907 13.1127 8.42108 12.6569 8.40424 12.1932C8.3874 11.7296 8.46205 11.2671 8.62394 10.8323C8.69361 10.6452 8.77886 10.4647 8.87855 10.2928L6.92831 8.34252C5.71116 9.38629 4.67312 10.6235 3.85634 12.005C3.94058 12.148 4.04545 12.3198 4.17046 12.5133C4.55628 13.1105 5.12736 13.9041 5.86794 14.6932C7.36587 16.2892 9.43845 17.7457 11.9889 17.74C13.1939 17.7159 14.3696 17.4027 15.4198 16.834ZM10.4195 11.8337C10.405 11.9284 10.3994 12.0245 10.4029 12.1207C10.4102 12.3218 10.4571 12.5196 10.5408 12.7027C10.6246 12.8858 10.7436 13.0506 10.891 13.1877C11.0384 13.3248 11.2114 13.4315 11.4001 13.5018C11.5888 13.572 11.7895 13.6044 11.9907 13.5971C12.0496 13.595 12.1083 13.5894 12.1664 13.5806L10.4195 11.8337ZM12 4.24001V4.23993L11.987 4.2401C11.3181 4.24883 10.6526 4.33629 10.0043 4.50068C9.46891 4.63642 9.14496 5.18043 9.28069 5.71578C9.41642 6.25112 9.96044 6.57508 10.4958 6.43934C10.9899 6.31408 11.4969 6.24718 12.0066 6.24002C14.5588 6.24251 16.633 7.70465 18.1316 9.30381C18.8724 10.0943 19.4436 10.8886 19.8295 11.4862C19.9559 11.682 20.0617 11.8555 20.1464 11.9995C19.727 12.7218 19.245 13.4062 18.7058 14.045C18.3496 14.467 18.403 15.098 18.825 15.4542C19.2471 15.8104 19.878 15.7571 20.2342 15.335C20.9802 14.4512 21.6301 13.4906 22.173 12.4694C22.3249 12.1837 22.3292 11.8422 22.1845 11.5528L21.29 12C22.1845 11.5528 22.1843 11.5525 22.1841 11.5521L22.1837 11.5513L22.1826 11.5491L22.1795 11.543L22.1695 11.5234C22.1612 11.5072 22.1495 11.4847 22.1345 11.4564C22.1045 11.3997 22.0612 11.3196 22.0048 11.2193C21.8921 11.0189 21.7265 10.7372 21.5096 10.4013C21.0771 9.73143 20.4339 8.83574 19.5909 7.93622C17.9233 6.15674 15.3548 4.24001 12 4.24001Z" fill="#545454"/>
</svg>
