<svg width="24" height="24" viewBox="0 0 24 24" fill="none" xmlns="http://www.w3.org/2000/svg">
<path fill-rule="evenodd" clip-rule="evenodd" d="M8.76001 7.38001C8.76001 5.59061 10.2106 4.14001 12 4.14001C13.7894 4.14001 15.24 5.59061 15.24 7.38001C15.24 9.16942 13.7894 10.62 12 10.62C10.2106 10.62 8.76001 9.16942 8.76001 7.38001ZM12 2.14001C9.10604 2.14001 6.76001 4.48604 6.76001 7.38001C6.76001 10.274 9.10604 12.62 12 12.62C14.894 12.62 17.24 10.274 17.24 7.38001C17.24 4.48604 14.894 2.14001 12 2.14001ZM7.83104 13.5C6.42778 13.5 5.08199 14.052 4.08974 15.0346C3.09748 16.0171 2.54004 17.3497 2.54004 18.7393V20.8286C2.54004 21.4203 3.02447 21.9 3.62204 21.9C4.21962 21.9 4.70405 21.4203 4.70405 20.8286V18.7393C4.70405 17.9181 5.0335 17.1305 5.61992 16.5498C6.20635 15.9691 7.00171 15.6429 7.83104 15.6429H16.2382C17.069 15.6429 17.8659 15.9691 18.4541 16.5501C19.0421 17.1308 19.3736 17.9186 19.376 18.7409V20.8286C19.376 21.4203 19.8605 21.9 20.458 21.9C21.0556 21.9 21.54 21.4203 21.54 20.8286L21.54 18.7393L21.54 18.7365C21.5364 17.3465 20.9763 16.0146 19.9824 15.0329C18.9885 14.0513 17.642 13.5 16.2382 13.5H7.83104Z" fill="#545454"/>
</svg>
