<svg width="24" height="24" viewBox="0 0 24 24" fill="none" xmlns="http://www.w3.org/2000/svg">
<path fill-rule="evenodd" clip-rule="evenodd" d="M12 21.7075C17.3613 21.7075 21.7075 17.3613 21.7075 12C21.7075 6.63867 17.3613 2.29245 12 2.29245C6.63867 2.29245 2.29245 6.63867 2.29245 12C2.29245 17.3613 6.63867 21.7075 12 21.7075ZM12 22.5C17.799 22.5 22.5 17.799 22.5 12C22.5 6.20101 17.799 1.5 12 1.5C6.20101 1.5 1.5 6.20101 1.5 12C1.5 17.799 6.20101 22.5 12 22.5Z" fill="#545454"/>
<path fill-rule="evenodd" clip-rule="evenodd" d="M13.7821 17.5618C13.8835 17.7801 13.7887 18.0392 13.5704 18.1406C12.5614 18.6091 11.5618 18.6952 10.7428 18.3192C9.912 17.9379 9.37037 17.1293 9.19246 16.0321L10.0529 15.8926C10.1967 16.779 10.6027 17.2958 11.1064 17.527C11.6218 17.7636 12.3434 17.7493 13.2032 17.35C13.4216 17.2486 13.6807 17.3434 13.7821 17.5618Z" fill="#545454"/>
<path fill-rule="evenodd" clip-rule="evenodd" d="M12.5943 13.1887V11.4056H13.3868V13.9811H11.2076V13.1887H12.5943Z" fill="#545454"/>
<path d="M17.5472 9.42453C17.5472 9.86219 17.1924 10.217 16.7547 10.217C16.3171 10.217 15.9623 9.86219 15.9623 9.42453C15.9623 8.98687 16.3171 8.63208 16.7547 8.63208C17.1924 8.63208 17.5472 8.98687 17.5472 9.42453Z" fill="#545454"/>
<path d="M8.03774 9.42453C8.03774 9.86219 7.68295 10.217 7.24529 10.217C6.80763 10.217 6.45284 9.86219 6.45284 9.42453C6.45284 8.98687 6.80763 8.63208 7.24529 8.63208C7.68295 8.63208 8.03774 8.98687 8.03774 9.42453Z" fill="#545454"/>
</svg>
