<svg width="24" height="24" viewBox="0 0 24 24" fill="none" xmlns="http://www.w3.org/2000/svg">
<path fill-rule="evenodd" clip-rule="evenodd" d="M12 2.79004C12.5523 2.79004 13 3.23775 13 3.79004V13.1423L16.1921 9.94364C16.5823 9.55272 17.2154 9.55207 17.6064 9.9422C17.9973 10.3323 17.9979 10.9655 17.6078 11.3564L12.713 16.2612C12.5316 16.4457 12.2792 16.56 12 16.56C11.7401 16.56 11.5034 16.4609 11.3256 16.2984C11.3142 16.288 11.3031 16.2773 11.2921 16.2664L6.39215 11.3564C6.00202 10.9655 6.00267 10.3323 6.39359 9.9422C6.78451 9.55207 7.41768 9.55272 7.8078 9.94364L11 13.1424V3.79004C11 3.23775 11.4477 2.79004 12 2.79004ZM3.17999 19.21C2.62771 19.21 2.17999 19.6577 2.17999 20.21C2.17999 20.7623 2.62771 21.21 3.17999 21.21H20.82C21.3723 21.21 21.82 20.7623 21.82 20.21C21.82 19.6577 21.3723 19.21 20.82 19.21H3.17999Z" fill="#545454"/>
</svg>
