<svg width="24" height="24" viewBox="0 0 24 24" fill="none" xmlns="http://www.w3.org/2000/svg">
<path fill-rule="evenodd" clip-rule="evenodd" d="M1.55287 2.9992C1.71672 2.646 2.07067 2.42001 2.46002 2.42001H21.54C21.9294 2.42001 22.2833 2.646 22.4472 2.9992C22.611 3.3524 22.555 3.76858 22.3035 4.06584L14.91 12.8062V20.58C14.91 20.9266 14.7306 21.2485 14.4358 21.4307C14.1409 21.6129 13.7728 21.6294 13.4628 21.4744L9.64281 19.5644C9.30402 19.395 9.09002 19.0488 9.09002 18.67V12.8062L1.69654 4.06584C1.44508 3.76858 1.38903 3.3524 1.55287 2.9992ZM4.61571 4.42001L10.8535 11.7942C11.0062 11.9747 11.09 12.2035 11.09 12.44V18.052L12.91 18.962V12.44C12.91 12.2035 12.9938 11.9747 13.1465 11.7942L19.3843 4.42001H4.61571Z" fill="#545454"/>
</svg>
