<svg width="24" height="24" viewBox="0 0 24 24" fill="none" xmlns="http://www.w3.org/2000/svg">
<path fill-rule="evenodd" clip-rule="evenodd" d="M4.17916 12.5125C4.05305 12.3171 3.9475 12.1438 3.86302 12C3.9475 11.8562 4.05305 11.6829 4.17916 11.4875C4.56408 10.8909 5.13397 10.0979 5.87343 9.30876C7.37045 7.71115 9.44441 6.25 12 6.25C14.5555 6.25 16.6295 7.71115 18.1265 9.30876C18.866 10.0979 19.4359 10.8909 19.8208 11.4875C19.9469 11.6829 20.0524 11.8562 20.1369 12C20.0524 12.1438 19.9469 12.3171 19.8208 12.5125C19.4359 13.1091 18.866 13.9021 18.1265 14.6912C16.6295 16.2889 14.5555 17.75 12 17.75C9.44441 17.75 7.37045 16.2889 5.87343 14.6912C5.13397 13.9021 4.56408 13.1091 4.17916 12.5125ZM21.28 12C22.1747 11.5533 22.1745 11.553 22.1743 11.5526L21.28 12ZM22.1743 11.5526C22.3147 11.8339 22.3151 12.1654 22.1747 12.4467L21.28 12C22.1747 12.4467 22.1741 12.4479 22.1739 12.4482L22.1728 12.4504L22.1697 12.4565L22.1597 12.4761C22.1514 12.4923 22.1398 12.5147 22.1248 12.543C22.0949 12.5996 22.0517 12.6797 21.9955 12.7798C21.883 12.98 21.7178 13.2614 21.5014 13.5968C21.0697 14.2659 20.4277 15.1604 19.5859 16.0588C17.9204 17.8361 15.3544 19.75 12 19.75C8.64553 19.75 6.07949 17.8361 4.41401 16.0588C3.57222 15.1604 2.93024 14.2659 2.49859 13.5968C2.28214 13.2614 2.11695 12.98 2.00448 12.7798C1.94821 12.6797 1.90503 12.5996 1.87512 12.543C1.86016 12.5147 1.84852 12.4923 1.8402 12.4761L1.83024 12.4565L1.82713 12.4504L1.82528 12.4467L2.71782 12.0011C1.83132 12.4437 1.82514 12.4463 1.82528 12.4467L1.82528 12.4467C1.68487 12.1654 1.68487 11.8346 1.82528 11.5533L2.71997 12C1.82528 11.5533 1.82587 11.5521 1.82605 11.5518L1.82713 11.5496L1.83024 11.5435L1.8402 11.5239C1.84852 11.5077 1.86016 11.4853 1.87512 11.457C1.90503 11.4004 1.94821 11.3203 2.00448 11.2202C2.11695 11.02 2.28214 10.7386 2.49859 10.4032C2.93024 9.73414 3.57222 8.8396 4.41401 7.94124C6.07949 6.16385 8.64553 4.25 12 4.25C15.3544 4.25 17.9204 6.16385 19.5859 7.94124C20.4277 8.8396 21.0697 9.73414 21.5014 10.4032C21.7178 10.7386 21.883 11.02 21.9955 11.2202C22.0517 11.3203 22.0949 11.4004 22.1248 11.457C22.1398 11.4853 22.1514 11.5077 22.1597 11.5239L22.1697 11.5435L22.1728 11.5496L22.1743 11.5526ZM10.47 12C10.47 11.155 11.155 10.47 12 10.47C12.845 10.47 13.53 11.155 13.53 12C13.53 12.845 12.845 13.53 12 13.53C11.155 13.53 10.47 12.845 10.47 12ZM12 8.47C10.0504 8.47 8.46997 10.0504 8.46997 12C8.46997 13.9496 10.0504 15.53 12 15.53C13.9495 15.53 15.53 13.9496 15.53 12C15.53 10.0504 13.9495 8.47 12 8.47Z" fill="#545454"/>
</svg>
