<svg width="24" height="24" viewBox="0 0 24 24" fill="none" xmlns="http://www.w3.org/2000/svg">
<path fill-rule="evenodd" clip-rule="evenodd" d="M21.89 18.3C21.89 18.5359 21.8434 18.7695 21.7528 18.9874C21.6622 19.2052 21.5295 19.403 21.3622 19.5693C21.1949 19.7357 20.9964 19.8673 20.7781 19.9567C20.5597 20.046 20.3259 20.0914 20.09 20.09H3.90999C3.67408 20.0914 3.44024 20.046 3.22191 19.9567C3.00358 19.8673 2.80507 19.7357 2.63779 19.5693C2.47052 19.403 2.33777 19.2052 2.24719 18.9874C2.15661 18.7695 2.10998 18.5359 2.10999 18.3V8.40003C2.10999 7.92264 2.29963 7.46481 2.63719 7.12724C2.97476 6.78968 3.4326 6.60003 3.90999 6.60003H7.49999L9.29999 3.91003H14.7L16.5 6.60003H20.09C20.5674 6.60003 21.0252 6.78968 21.3628 7.12724C21.7003 7.46481 21.89 7.92264 21.89 8.40003V18.3ZM12 9.96501C10.3791 9.96501 9.06502 11.2791 9.06502 12.9C9.06502 14.521 10.3791 15.835 12 15.835C13.621 15.835 14.935 14.521 14.935 12.9C14.935 11.2791 13.621 9.96501 12 9.96501ZM7.73502 12.9C7.73502 10.5445 9.64453 8.63501 12 8.63501C14.3555 8.63501 16.265 10.5445 16.265 12.9C16.265 15.2555 14.3555 17.165 12 17.165C9.64453 17.165 7.73502 15.2555 7.73502 12.9ZM19.63 7.56H20.3C20.5209 7.56 20.7 7.73908 20.7 7.96V8.63C20.7 8.85091 20.5209 9.03 20.3 9.03H19.63C19.4091 9.03 19.23 8.85091 19.23 8.63V7.96C19.23 7.73908 19.4091 7.56 19.63 7.56Z" fill="#545454"/>
</svg>
