<svg width="24" height="24" viewBox="0 0 24 24" fill="none" xmlns="http://www.w3.org/2000/svg">
<path fill-rule="evenodd" clip-rule="evenodd" d="M8.87999 4.84998C7.28389 4.84998 5.98999 6.14387 5.98999 7.73998C5.98999 9.33608 7.28389 10.63 8.87999 10.63C10.4761 10.63 11.77 9.33608 11.77 7.73998C11.77 6.14387 10.4761 4.84998 8.87999 4.84998ZM3.98999 7.73998C3.98999 5.0393 6.17932 2.84998 8.87999 2.84998C11.5807 2.84998 13.77 5.0393 13.77 7.73998C13.77 10.4406 11.5807 12.63 8.87999 12.63C6.17932 12.63 3.98999 10.4406 3.98999 7.73998ZM1.54223 14.7322C2.45929 13.8152 3.70308 13.3 4.99999 13.3H12.77C13.8424 13.3 14.8787 13.6516 15.7246 14.291C15.7397 14.2903 15.7548 14.29 15.77 14.29H20.43C21.353 14.29 22.2381 14.6566 22.8908 15.3092C23.5434 15.9619 23.91 16.847 23.91 17.77V20.15C23.91 20.7023 23.4623 21.15 22.91 21.15C22.3577 21.15 21.91 20.7023 21.91 20.15V17.77C21.91 17.3775 21.7541 17.001 21.4765 16.7235C21.199 16.4459 20.8225 16.29 20.43 16.29H17.2824C17.5342 16.8847 17.6683 17.5291 17.67 18.1874L17.67 18.19L17.67 20.14C17.67 20.6923 17.2223 21.14 16.67 21.14C16.1177 21.14 15.67 20.6923 15.67 20.14V18.1915C15.6677 17.424 15.3614 16.6887 14.818 16.1467C14.2743 15.6045 13.5378 15.3 12.77 15.3H4.99999C4.23351 15.3 3.49843 15.6045 2.95645 16.1464C2.41447 16.6884 2.10999 17.4235 2.10999 18.19V20.14C2.10999 20.6923 1.66227 21.14 1.10999 21.14C0.557701 21.14 0.109985 20.6923 0.109985 20.14V18.19C0.109985 16.8931 0.62518 15.6493 1.54223 14.7322ZM18.74 7.06C17.652 7.06 16.77 7.942 16.77 9.03C16.77 10.118 17.652 11 18.74 11C19.828 11 20.71 10.118 20.71 9.03C20.71 7.942 19.828 7.06 18.74 7.06ZM14.77 9.03C14.77 6.83743 16.5474 5.06 18.74 5.06C20.9326 5.06 22.71 6.83743 22.71 9.03C22.71 11.2226 20.9326 13 18.74 13C16.5474 13 14.77 11.2226 14.77 9.03Z" fill="#545454"/>
</svg>
