<svg width="24" height="24" viewBox="0 0 24 24" fill="none" xmlns="http://www.w3.org/2000/svg">
<path d="M20.77 3.24C20.437 2.89541 20.0375 2.62201 19.5958 2.43637C19.154 2.25072 18.6792 2.1567 18.2 2.16C17.7167 2.15892 17.238 2.25383 16.7917 2.43922C16.3454 2.62462 15.9403 2.89681 15.6 3.24L3.67 15.24L2.19 20.6C2.14767 20.7673 2.14936 20.9428 2.19493 21.1092C2.24049 21.2757 2.32836 21.4275 2.45 21.55C2.54344 21.6427 2.65425 21.716 2.77609 21.7658C2.89793 21.8155 3.02839 21.8408 3.16 21.84C3.23971 21.8496 3.32029 21.8496 3.4 21.84L8.87 20.3L20.77 8.4C21.4539 7.71556 21.8381 6.78758 21.8381 5.82C21.8381 4.85242 21.4539 3.92443 20.77 3.24ZM7.65 18.69L5.31 16.35L14.93 6.74L17.27 9.08L7.65 18.69ZM19.35 7L18.69 7.67L16.34 5.32L17 4.65C17.1539 4.49352 17.3376 4.36952 17.5403 4.28536C17.743 4.20119 17.9605 4.15856 18.18 4.16C18.3964 4.15896 18.6108 4.20186 18.8102 4.28608C19.0096 4.3703 19.1898 4.49411 19.34 4.65C19.4962 4.80202 19.6201 4.98401 19.7043 5.18504C19.7885 5.38608 19.8312 5.60204 19.83 5.82C19.8333 6.03883 19.7925 6.2561 19.71 6.45883C19.6276 6.66156 19.5051 6.84561 19.35 7Z" fill="#545454"/>
</svg>
