<svg width="24" height="24" viewBox="0 0 24 24" fill="none" xmlns="http://www.w3.org/2000/svg">
<path fill-rule="evenodd" clip-rule="evenodd" d="M18.4271 6.98711C18.8177 6.59658 18.8177 5.96342 18.4271 5.57289C18.0366 5.18237 17.4034 5.18237 17.0129 5.57289L12 10.5858L6.98714 5.57289C6.59661 5.18237 5.96345 5.18237 5.57292 5.57289C5.1824 5.96342 5.1824 6.59658 5.57292 6.98711L10.5858 12L5.57292 17.0129C5.1824 17.4034 5.1824 18.0366 5.57292 18.4271C5.96345 18.8176 6.59661 18.8176 6.98714 18.4271L12 13.4142L17.0129 18.4271C17.4034 18.8176 18.0366 18.8176 18.4271 18.4271C18.8177 18.0366 18.8177 17.4034 18.4271 17.0129L13.4142 12L18.4271 6.98711Z" fill="#545454"/>
</svg>
