<svg width="24" height="24" viewBox="0 0 24 24" fill="none" xmlns="http://www.w3.org/2000/svg">
<path fill-rule="evenodd" clip-rule="evenodd" d="M3.52382 2.519C3.15439 2.34113 2.71381 2.40679 2.41231 2.68466C2.1108 2.96253 2.00947 3.39629 2.15666 3.77898L5.31859 12L2.15666 20.221C2.00947 20.6037 2.1108 21.0375 2.41231 21.3153C2.71381 21.5932 3.15439 21.6589 3.52382 21.481L21.3438 12.901C21.6899 12.7344 21.91 12.3842 21.91 12C21.91 11.6158 21.6899 11.2657 21.3438 11.099L3.52382 2.519ZM7.0768 11L4.92881 5.41523L18.6049 12L4.92881 18.5848L7.0768 13H12C12.5523 13 13 12.5523 13 12C13 11.4477 12.5523 11 12 11H7.0768Z" fill="#545454"/>
</svg>
