<svg width="24" height="24" viewBox="0 0 24 24" fill="none" xmlns="http://www.w3.org/2000/svg">
<path fill-rule="evenodd" clip-rule="evenodd" d="M13.9152 1.46002H10.09L10.0848 1.46004C9.31563 1.46406 8.57937 1.77243 8.03693 2.31772C7.4945 2.86301 7.19 3.60089 7.19001 4.37004V5.28001H3.41998C2.8677 5.28001 2.41998 5.72773 2.41998 6.28001C2.41998 6.8323 2.8677 7.28001 3.41998 7.28001H4.32001V19.63L4.32002 19.6352C4.32402 20.4044 4.63134 21.1409 5.17523 21.6848C5.71912 22.2287 6.45564 22.536 7.22481 22.54L7.23001 22.54H16.77L16.7752 22.54C17.5444 22.536 18.2809 22.2287 18.8248 21.6848C19.3687 21.1409 19.676 20.4044 19.68 19.6352L19.68 19.63V7.28001H20.58C21.1323 7.28001 21.58 6.8323 21.58 6.28001C21.58 5.72773 21.1323 5.28001 20.58 5.28001H16.81V4.37004C16.81 3.60089 16.5055 2.86302 15.9631 2.31772C15.4206 1.77243 14.6844 1.46405 13.9152 1.46002ZM14.81 5.28001V4.37001C14.81 4.12948 14.7148 3.89874 14.5452 3.72822C14.376 3.5582 14.1467 3.46184 13.9069 3.46002H10.0931C9.85336 3.46184 9.62398 3.5582 9.45485 3.72822C9.28522 3.89874 9.19 4.1295 9.19001 4.37002V5.28001H14.81ZM6.32001 19.6269V7.28002H17.68V19.6269C17.6782 19.8685 17.5814 20.0997 17.4106 20.2706C17.2397 20.4415 17.0085 20.5382 16.7669 20.54H7.2331C6.99152 20.5382 6.76031 20.4415 6.58944 20.2706C6.41858 20.0997 6.32182 19.8685 6.32001 19.6269ZM10.09 10.05C10.6423 10.05 11.09 10.4977 11.09 11.05V16.77C11.09 17.3223 10.6423 17.77 10.09 17.77C9.53774 17.77 9.09003 17.3223 9.09003 16.77V11.05C9.09003 10.4977 9.53774 10.05 10.09 10.05ZM14.91 11.05C14.91 10.4977 14.4623 10.05 13.91 10.05C13.3577 10.05 12.91 10.4977 12.91 11.05V16.77C12.91 17.3223 13.3577 17.77 13.91 17.77C14.4623 17.77 14.91 17.3223 14.91 16.77V11.05Z" fill="#545454"/>
</svg>
