<svg width="24" height="24" viewBox="0 0 24 24" fill="none" xmlns="http://www.w3.org/2000/svg">
<path d="M5.94678 3.40643L1.31132 8.24657C1.12738 8.43417 1.00781 8.72496 1.00781 8.97822C1.00781 9.56917 1.41249 9.97251 1.98273 9.97251C2.25865 9.97251 2.47938 9.87871 2.66333 9.68173L4.55798 7.67438L5.77203 6.24861L5.69845 8.23719V19.9342C5.69845 20.5251 6.11233 20.9473 6.68256 20.9473C7.2528 20.9473 7.65748 20.5251 7.65748 19.9342V8.23719L7.5931 6.24861L8.79795 7.67438L10.6926 9.68173C10.8765 9.87871 11.1065 9.97251 11.3824 9.97251C11.9434 9.97251 12.3481 9.56917 12.3481 8.97822C12.3481 8.72496 12.2285 8.43417 12.0446 8.24657L7.40915 3.40643C7.00447 2.97494 6.36066 2.96556 5.94678 3.40643ZM18.0688 20.6189L22.7043 15.7788C22.8882 15.5818 23.0078 15.291 23.0078 15.0378C23.0078 14.4562 22.6031 14.0529 22.0329 14.0529C21.757 14.0529 21.5362 14.1467 21.3523 14.3343L19.4576 16.3416L18.2436 17.7674L18.3172 15.7788V4.0818C18.3172 3.50961 17.9033 3.07812 17.3331 3.07812C16.772 3.07812 16.3581 3.50961 16.3581 4.0818V15.7788L16.4225 17.7674L15.2177 16.3416L13.323 14.3343C13.1391 14.1467 12.9092 14.0529 12.6424 14.0529C12.0722 14.0529 11.6675 14.4562 11.6675 15.0378C11.6675 15.291 11.7871 15.5818 11.971 15.7788L16.6065 20.6189C17.0112 21.0598 17.655 21.0692 18.0688 20.6189Z" fill="#545454"/>
</svg>
