<svg width="24" height="24" viewBox="0 0 24 24" fill="none" xmlns="http://www.w3.org/2000/svg">
<path fill-rule="evenodd" clip-rule="evenodd" d="M16.09 0.77002C16.6423 0.77002 17.09 1.21773 17.09 1.77002V2.81002H19.16C20.8444 2.81002 22.21 4.17555 22.21 5.86002V9.95002V20.18C22.21 21.8645 20.8444 23.23 19.16 23.23H4.83998C3.15551 23.23 1.78998 21.8645 1.78998 20.18V9.95002V5.86002C1.78998 4.17555 3.15551 2.81002 4.83998 2.81002H6.90997V1.77002C6.90997 1.21773 7.35769 0.77002 7.90997 0.77002C8.46226 0.77002 8.90997 1.21773 8.90997 1.77002V2.81002H15.09V1.77002C15.09 1.21773 15.5377 0.77002 16.09 0.77002ZM20.21 5.86002V8.95002H3.78998V5.86002C3.78998 5.28012 4.26008 4.81002 4.83998 4.81002H6.90997V5.86002C6.90997 6.4123 7.35769 6.86002 7.90997 6.86002C8.46226 6.86002 8.90997 6.4123 8.90997 5.86002V4.81002H15.09V5.86002C15.09 6.4123 15.5377 6.86002 16.09 6.86002C16.6423 6.86002 17.09 6.4123 17.09 5.86002V4.81002H19.16C19.7399 4.81002 20.21 5.28012 20.21 5.86002ZM20.21 10.95H3.78998V20.18C3.78998 20.7599 4.26008 21.23 4.83998 21.23H19.16C19.7399 21.23 20.21 20.7599 20.21 20.18V10.95ZM6.66001 12.84H9.15001C9.37092 12.84 9.55001 13.0191 9.55001 13.24V15.73C9.55001 15.9509 9.37092 16.13 9.15001 16.13H6.66001C6.4391 16.13 6.26001 15.9509 6.26001 15.73V13.24C6.26001 13.0191 6.4391 12.84 6.66001 12.84Z" fill="#545454"/>
</svg>
