<svg width="24" height="24" viewBox="0 0 24 24" fill="none" xmlns="http://www.w3.org/2000/svg">
<path fill-rule="evenodd" clip-rule="evenodd" d="M13.7977 4.51646L5.55512 12.7491C4.76436 13.5796 4.32899 14.6862 4.34202 15.8332C4.3551 16.9837 4.81835 18.0834 5.6325 18.8965C6.44666 19.7095 7.54692 20.1714 8.6975 20.1829C9.84479 20.1945 10.9511 19.7574 11.7806 18.9652L20.0329 10.7129C20.4234 10.3224 21.0566 10.3224 21.4471 10.7129C21.8376 11.1034 21.8376 11.7366 21.4471 12.1271L13.1871 20.3871L13.1723 20.4016C11.9645 21.5602 10.351 22.1997 8.67739 22.1828C7.00383 22.166 5.40344 21.4943 4.21922 20.3116C3.035 19.1289 2.36117 17.5294 2.34215 15.8559C2.32313 14.1823 2.96043 12.5679 4.11747 11.3587L4.13333 11.3424L12.4033 3.08245C12.415 3.07076 12.427 3.05937 12.4393 3.04828C13.3151 2.25627 14.4619 1.8314 15.6424 1.86162C16.8228 1.89183 17.9464 2.37484 18.7805 3.21062C19.6147 4.0464 20.0955 5.17095 20.1234 6.35143C20.1513 7.53191 19.7241 8.67792 18.9304 9.55217C18.9195 9.56422 18.9082 9.57601 18.8967 9.58752L10.6267 17.8475C10.6112 17.863 10.5952 17.8779 10.5788 17.8923C10.0442 18.3604 9.35167 18.6077 8.64154 18.5842C7.93141 18.5607 7.25679 18.268 6.75438 17.7656C6.25196 17.2632 5.95934 16.5886 5.93581 15.8785C5.91228 15.1683 6.1596 14.4758 6.62765 13.9412C6.64248 13.9243 6.65789 13.9079 6.67384 13.8919L14.2938 6.29195C14.6849 5.90194 15.318 5.90277 15.708 6.29381C16.0981 6.68484 16.0972 7.31801 15.7062 7.70802L8.11491 15.2794C7.99252 15.4291 7.92829 15.6183 7.93471 15.8122C7.94144 16.0151 8.02504 16.2079 8.16859 16.3514C8.31213 16.495 8.50489 16.5786 8.70778 16.5853C8.9019 16.5917 9.09142 16.5273 9.24122 16.4046L17.4646 8.19111C17.9036 7.69912 18.1395 7.05843 18.1239 6.39868C18.1081 5.73145 17.8364 5.09584 17.3649 4.62344C16.8935 4.15104 16.2584 3.87804 15.5912 3.86096C14.9316 3.84407 14.2905 4.07859 13.7977 4.51646Z" fill="#545454"/>
</svg>
