<svg width="24" height="24" viewBox="0 0 24 24" fill="none" xmlns="http://www.w3.org/2000/svg">
<path fill-rule="evenodd" clip-rule="evenodd" d="M10.01 4.23999C8.22062 4.23999 6.77002 5.69059 6.77002 7.47999C6.77002 9.26939 8.22062 10.72 10.01 10.72C11.7994 10.72 13.25 9.26939 13.25 7.47999C13.25 5.69059 11.7994 4.23999 10.01 4.23999ZM4.77002 7.47999C4.77002 4.58602 7.11605 2.23999 10.01 2.23999C12.904 2.23999 15.25 4.58602 15.25 7.47999C15.25 10.374 12.904 12.72 10.01 12.72C7.11605 12.72 4.77002 10.374 4.77002 7.47999ZM2.08968 15.1345C3.08193 14.152 4.42772 13.6 5.83098 13.6H14.2382C15.6419 13.6 16.9884 14.1512 17.9823 15.1329C18.9762 16.1146 19.5364 17.4465 19.54 18.8365L19.54 18.8393L19.54 20.9285C19.54 21.5203 19.0555 22 18.458 22C17.8604 22 17.376 21.5203 17.376 20.9285V18.8409C17.3735 18.0186 17.042 17.2308 16.4541 16.6501C15.8659 16.0691 15.069 15.7428 14.2382 15.7428H5.83098C5.00165 15.7428 4.20629 16.0691 3.61986 16.6498C3.03344 17.2304 2.70399 18.018 2.70399 18.8393V20.9285C2.70399 21.5203 2.21956 22 1.62198 22C1.02441 22 0.539978 21.5203 0.539978 20.9285V18.8393C0.539978 17.4497 1.09742 16.1171 2.08968 15.1345ZM19.64 6.52002C20.1923 6.52002 20.64 6.96773 20.64 7.52002V9.08002H22.19C22.7423 9.08002 23.19 9.52773 23.19 10.08C23.19 10.6323 22.7423 11.08 22.19 11.08H20.64V12.63C20.64 13.1823 20.1923 13.63 19.64 13.63C19.0877 13.63 18.64 13.1823 18.64 12.63V11.08H17.08C16.5277 11.08 16.08 10.6323 16.08 10.08C16.08 9.52773 16.5277 9.08002 17.08 9.08002H18.64V7.52002C18.64 6.96773 19.0877 6.52002 19.64 6.52002Z" fill="#545454"/>
</svg>
