<svg width="24" height="24" viewBox="0 0 24 24" fill="none" xmlns="http://www.w3.org/2000/svg">
<path d="M12 15.67C11.2741 15.67 10.5646 15.4548 9.96106 15.0515C9.35753 14.6482 8.88714 14.0751 8.60936 13.4045C8.33159 12.7339 8.25891 11.9959 8.40052 11.284C8.54213 10.5721 8.89166 9.9182 9.40492 9.40494C9.91818 8.89168 10.5721 8.54214 11.284 8.40054C11.9959 8.25893 12.7338 8.33161 13.4045 8.60938C14.0751 8.88715 14.6482 9.35755 15.0515 9.96108C15.4548 10.5646 15.67 11.2742 15.67 12C15.67 12.9734 15.2833 13.9068 14.5951 14.5951C13.9068 15.2834 12.9733 15.67 12 15.67ZM12 10.33C11.6697 10.33 11.3468 10.428 11.0722 10.6115C10.7976 10.795 10.5835 11.0558 10.4571 11.3609C10.3307 11.6661 10.2977 12.0019 10.3621 12.3258C10.4265 12.6498 10.5856 12.9473 10.8191 13.1809C11.0527 13.4144 11.3503 13.5735 11.6742 13.6379C11.9982 13.7024 12.3339 13.6693 12.6391 13.5429C12.9442 13.4165 13.2051 13.2025 13.3886 12.9278C13.5721 12.6532 13.67 12.3303 13.67 12C13.67 11.7807 13.6268 11.5636 13.5429 11.3609C13.459 11.1583 13.3359 10.9742 13.1809 10.8192C13.0258 10.6641 12.8417 10.5411 12.6391 10.4571C12.4365 10.3732 12.2193 10.33 12 10.33Z" fill="#545454"/>
<path d="M12.07 22.8C11.7032 22.8 11.3401 22.7274 11.0015 22.5865C10.6629 22.4455 10.3555 22.2389 10.0971 21.9787C9.83873 21.7184 9.63437 21.4096 9.49585 21.07C9.35732 20.7304 9.28736 20.3667 9.29 20C9.29189 19.9021 9.26555 19.8057 9.21412 19.7223C9.1627 19.639 9.08836 19.5722 9 19.53C8.90743 19.4822 8.80266 19.4633 8.69924 19.4758C8.59583 19.4883 8.49855 19.5316 8.42 19.6C8.16524 19.8626 7.86124 20.0725 7.52535 20.2177C7.18947 20.3628 6.82829 20.4404 6.46243 20.446C6.09656 20.4515 5.73319 20.385 5.39304 20.2501C5.0529 20.1153 4.74265 19.9147 4.48 19.66C4.21736 19.4052 4.00747 19.1012 3.86231 18.7653C3.71715 18.4294 3.63957 18.0683 3.634 17.7024C3.62843 17.3365 3.69497 16.9732 3.82984 16.633C3.9647 16.2929 4.16524 15.9826 4.42 15.72C4.50044 15.6518 4.5573 15.56 4.58244 15.4577C4.60758 15.3553 4.59973 15.2476 4.56 15.15C4.5241 15.0644 4.46463 14.9907 4.3885 14.9376C4.31238 14.8845 4.22273 14.8541 4.13 14.85H4C3.2627 14.85 2.5556 14.5571 2.03424 14.0357C1.51289 13.5144 1.22 12.8073 1.22 12.07C1.22 11.3327 1.51289 10.6256 2.03424 10.1042C2.5556 9.58286 3.2627 9.28997 4 9.28997C4.09792 9.29186 4.19431 9.26552 4.27765 9.21409C4.361 9.16267 4.42777 9.08833 4.47 8.99997C4.52226 8.90512 4.54361 8.79633 4.53106 8.68876C4.51851 8.5812 4.47269 8.48024 4.4 8.39997C3.99859 8.01644 3.72121 7.5215 3.6036 6.97892C3.48598 6.43634 3.53351 5.87097 3.74007 5.35565C3.94663 4.84032 4.30276 4.39865 4.76257 4.08752C5.22238 3.7764 5.76482 3.61007 6.32 3.60997C6.69099 3.60141 7.05981 3.66886 7.40376 3.80816C7.74771 3.94746 8.05952 4.15567 8.32 4.41997C8.38902 4.49917 8.48082 4.55513 8.58284 4.58019C8.68487 4.60524 8.79214 4.59818 8.89 4.55997L9 4.49997C9.05739 4.4565 9.10427 4.40067 9.13716 4.33662C9.17005 4.27257 9.18811 4.20195 9.19 4.12997V3.99997C9.19 3.26267 9.48289 2.55556 10.0042 2.03421C10.5256 1.51286 11.2327 1.21997 11.97 1.21997C12.7073 1.21997 13.4144 1.51286 13.9358 2.03421C14.4571 2.55556 14.75 3.26267 14.75 3.99997C14.7391 4.10329 14.7613 4.20741 14.8134 4.29728C14.8656 4.38716 14.9449 4.45814 15.04 4.49997C15.126 4.54224 15.2228 4.55723 15.3175 4.54293C15.4122 4.52863 15.5003 4.48573 15.57 4.41997C15.8275 4.14762 16.1374 3.93016 16.4811 3.78065C16.8248 3.63114 17.1952 3.55267 17.57 3.54997C18.1215 3.54711 18.6615 3.70777 19.1217 4.01164C19.582 4.31551 19.9418 4.74897 20.1558 5.25725C20.3698 5.76554 20.4284 6.32586 20.3241 6.86742C20.2199 7.40898 19.9574 7.90749 19.57 8.29997C19.4896 8.36809 19.4327 8.4599 19.4076 8.56227C19.3824 8.66464 19.3903 8.77233 19.43 8.86997L19.5 8.99997C19.545 9.05813 19.6026 9.10541 19.6683 9.1383C19.7341 9.17119 19.8065 9.18885 19.88 9.18997H20C20.7373 9.18997 21.4444 9.48286 21.9658 10.0042C22.4871 10.5256 22.78 11.2327 22.78 11.97C22.78 12.7073 22.4871 13.4144 21.9658 13.9357C21.4444 14.4571 20.7373 14.75 20 14.75C19.8967 14.7391 19.7926 14.7613 19.7027 14.8134C19.6128 14.8655 19.5418 14.9449 19.5 15.04C19.4626 15.126 19.4511 15.221 19.4671 15.3134C19.4831 15.4059 19.5258 15.4916 19.59 15.56C19.9914 15.9435 20.2688 16.4384 20.3864 16.981C20.504 17.5236 20.4565 18.089 20.2499 18.6043C20.0434 19.1196 19.6872 19.5613 19.2274 19.8724C18.7676 20.1835 18.2252 20.3499 17.67 20.35C17.299 20.3585 16.9302 20.2911 16.5862 20.1518C16.2423 20.0125 15.9305 19.8043 15.67 19.54C15.6019 19.4595 15.5101 19.4027 15.4077 19.3775C15.3053 19.3524 15.1976 19.3602 15.1 19.4C15.0144 19.4359 14.9408 19.4953 14.8877 19.5715C14.8345 19.6476 14.8041 19.7372 14.8 19.83V20C14.808 20.7329 14.5252 21.4392 14.0135 21.964C13.5018 22.4888 12.8029 22.7894 12.07 22.8ZM8.74 17.47C9.08439 17.4689 9.42513 17.5405 9.74 17.68C10.1929 17.8565 10.5831 18.1637 10.8609 18.5626C11.1387 18.9615 11.2915 19.434 11.3 19.92V20C11.3 20.2068 11.3822 20.4052 11.5285 20.5515C11.6747 20.6978 11.8731 20.78 12.08 20.78C12.2869 20.78 12.4853 20.6978 12.6315 20.5515C12.7778 20.4052 12.86 20.2068 12.86 20V19.85C12.8641 19.3672 13.008 18.8959 13.2741 18.493C13.5403 18.0902 13.9175 17.7731 14.36 17.58C14.8118 17.3838 15.3117 17.3266 15.7962 17.4156C16.2806 17.5047 16.7275 17.7359 17.08 18.08C17.1507 18.1642 17.2379 18.2329 17.3363 18.2819C17.4347 18.3309 17.5422 18.3591 17.6519 18.3648C17.7617 18.3704 17.8715 18.3533 17.9744 18.3147C18.0773 18.276 18.1711 18.2165 18.25 18.14C18.3953 17.9938 18.4769 17.7961 18.4769 17.59C18.4769 17.3839 18.3953 17.1861 18.25 17.04C17.8952 16.697 17.6504 16.2564 17.5465 15.774C17.4426 15.2916 17.4844 14.7892 17.6666 14.3306C17.8487 13.872 18.163 13.4779 18.5696 13.1982C18.9761 12.9186 19.4566 12.7661 19.95 12.76C20.0559 12.7667 20.1621 12.7523 20.2624 12.7177C20.3627 12.683 20.455 12.6287 20.5342 12.558C20.6133 12.4872 20.6775 12.4015 20.7231 12.3057C20.7688 12.2099 20.7949 12.106 20.8 12C20.8 11.7931 20.7178 11.5947 20.5715 11.4484C20.4253 11.3021 20.2269 11.22 20.02 11.22H19.87C19.3872 11.2159 18.9159 11.072 18.5131 10.8058C18.1102 10.5396 17.7931 10.1625 17.6 9.71997C17.572 9.638 17.5487 9.55454 17.53 9.46997C17.3814 9.03522 17.356 8.56784 17.4566 8.11955C17.5572 7.67126 17.7799 7.25955 18.1 6.92997C18.1837 6.8592 18.2521 6.7722 18.3011 6.67422C18.3502 6.57624 18.3789 6.46933 18.3854 6.35995C18.3919 6.25058 18.3762 6.14101 18.3392 6.03788C18.3022 5.93475 18.2446 5.84021 18.17 5.75997C18.0189 5.61553 17.819 5.5334 17.61 5.52997C17.4041 5.53393 17.2074 5.61617 17.06 5.75997C16.719 6.11972 16.2781 6.36905 15.7941 6.47579C15.3101 6.58254 14.8052 6.5418 14.3445 6.35883C13.8839 6.17587 13.4886 5.85907 13.2098 5.44931C12.9309 5.03954 12.7812 4.55562 12.78 4.05997C12.7882 3.95164 12.7742 3.84278 12.7389 3.74003C12.7037 3.63728 12.6478 3.54279 12.5748 3.46232C12.5019 3.38185 12.4133 3.31709 12.3144 3.27199C12.2156 3.22688 12.1086 3.20238 12 3.19997C11.8976 3.19997 11.7961 3.22015 11.7015 3.25934C11.6069 3.29854 11.5209 3.356 11.4485 3.42843C11.376 3.50086 11.3186 3.58684 11.2794 3.68148C11.2402 3.77611 11.22 3.87754 11.22 3.97997V4.12997C11.219 4.61224 11.0763 5.08358 10.8096 5.48539C10.5429 5.88721 10.164 6.20177 9.72 6.38997C9.63982 6.42562 9.55599 6.45245 9.47 6.46997C9.03525 6.61854 8.56787 6.64393 8.11958 6.54333C7.67129 6.44273 7.25958 6.22006 6.93 5.89997C6.85433 5.81157 6.76092 5.74008 6.65583 5.69011C6.55075 5.64015 6.43633 5.61285 6.32 5.60997C6.1122 5.6097 5.91205 5.68833 5.76 5.82997C5.6164 5.97905 5.53617 6.17798 5.53617 6.38497C5.53617 6.59196 5.6164 6.79089 5.76 6.93997C6.12842 7.29131 6.37979 7.74752 6.47998 8.24666C6.58016 8.7458 6.52431 9.26367 6.32 9.72997C6.1435 10.1829 5.83627 10.573 5.43739 10.8508C5.03851 11.1286 4.56601 11.2815 4.08 11.29H4C3.79313 11.29 3.59474 11.3721 3.44846 11.5184C3.30218 11.6647 3.22 11.8631 3.22 12.07C3.22 12.2768 3.30218 12.4752 3.44846 12.6215C3.59474 12.7678 3.79313 12.85 4 12.85H4.15C4.63533 12.8579 5.10778 13.0075 5.50922 13.2803C5.91066 13.5532 6.22359 13.9374 6.40952 14.3858C6.59546 14.8342 6.64629 15.3271 6.55577 15.804C6.46524 16.2809 6.23731 16.7209 5.9 17.07C5.81578 17.1406 5.74703 17.2279 5.69802 17.3263C5.64902 17.4247 5.62083 17.5321 5.6152 17.6419C5.60957 17.7517 5.62662 17.8615 5.6653 17.9644C5.70398 18.0673 5.76345 18.1611 5.84 18.24C5.98615 18.3853 6.18389 18.4669 6.39 18.4669C6.59612 18.4669 6.79385 18.3853 6.94 18.24C7.41491 17.7559 8.06191 17.4791 8.74 17.47Z" fill="#545454"/>
</svg>
