<svg width="24" height="24" viewBox="0 0 24 24" fill="none" xmlns="http://www.w3.org/2000/svg">
<path d="M21.5106 16.1713C21.2436 16.1713 21.0211 16.3937 21.0211 16.6607V18.7074C21.0211 19.9755 19.9978 20.9988 18.7297 20.9988H16.505C16.238 20.9988 16.0156 21.2213 16.0156 21.4883C16.0156 21.7552 16.238 21.9777 16.505 21.9777H18.7297C20.5317 21.9777 22 20.5094 22 18.7074V16.6607C22 16.3937 21.7775 16.1713 21.5106 16.1713Z" fill="#545454"/>
<path d="M18.7297 2H16.505C16.238 2 16.0156 2.22247 16.0156 2.48943C16.0156 2.7564 16.238 2.97887 16.505 2.97887H18.7297C19.9978 2.97887 21.0211 4.00222 21.0211 5.2703V7.65072C21.0211 7.91769 21.2436 8.14016 21.5106 8.14016C21.7775 8.14016 22 7.91769 22 7.65072V5.2703C22 3.4683 20.5317 2 18.7297 2Z" fill="#545454"/>
<path d="M16.2158 11.7442C16.5495 11.7442 16.8165 11.4772 16.8387 11.1435V9.54174C16.8387 9.18579 16.5717 8.91882 16.2158 8.91882C15.8598 8.91882 15.5929 9.20803 15.5929 9.54174V11.1213C15.5929 11.4772 15.8821 11.7442 16.2158 11.7442Z" fill="#545454"/>
<path d="M15.059 16.0601C14.2581 16.861 13.1902 17.3059 12.1001 17.3059H11.9221C10.8098 17.3059 9.76419 16.861 8.9633 16.0601C8.78532 15.8599 8.47386 15.8599 8.27364 16.0601C8.07342 16.2381 8.07342 16.5495 8.27364 16.7497C9.27475 17.7508 10.5651 18.2848 11.9221 18.2848H12.1001C13.4572 18.2848 14.7697 17.7508 15.7486 16.7497C15.9488 16.5718 15.9488 16.2603 15.7486 16.0601C15.5706 15.8599 15.2592 15.8599 15.059 16.0601Z" fill="#545454"/>
<path d="M10.7875 14.703H10.8988C11.8999 14.703 12.7008 13.9021 12.7008 12.9232V9.54168C12.7008 9.27472 12.4783 9.05225 12.2113 9.05225C11.9444 9.05225 11.7219 9.27472 11.7219 9.54168V12.901C11.7219 13.3682 11.3437 13.7241 10.8988 13.7241H10.7875C10.5206 13.7241 10.2981 13.9466 10.2981 14.2135C10.2981 14.4805 10.5206 14.703 10.7875 14.703Z" fill="#545454"/>
<path d="M7.49498 8.91882C7.13903 8.91882 6.87207 9.20803 6.87207 9.54174V11.1213C6.87207 11.4772 7.16128 11.7442 7.49498 11.7442C7.85094 11.7442 8.1179 11.4772 8.1179 11.1435V9.54174C8.1179 9.18579 7.82869 8.91882 7.49498 8.91882Z" fill="#545454"/>
<path d="M2.51168 8.14016C2.77864 8.14016 3.00111 7.91769 3.00111 7.65072V5.2703C3.00111 4.00222 4.02447 2.97887 5.29255 2.97887H7.51724C7.7842 2.97887 8.00667 2.7564 8.00667 2.48943C8.00667 2.22247 7.7842 2 7.51724 2H5.29255C3.49055 2 2.02225 3.4683 2.02225 5.2703V7.65072C2.02225 7.91769 2.24472 8.14016 2.51168 8.14016Z" fill="#545454"/>
<path d="M7.49499 20.9988H5.2703C4.00222 20.9988 2.97887 19.9755 2.97887 18.7074V16.6607C2.97887 16.3937 2.7564 16.1713 2.48943 16.1713C2.22247 16.1713 2 16.3937 2 16.6607V18.7074C2 20.5094 3.4683 21.9777 5.2703 21.9777H7.49499C7.7842 21.9777 7.98443 21.7552 7.98443 21.4883C7.98443 21.2213 7.76196 20.9988 7.49499 20.9988Z" fill="#545454"/>
</svg>
