<svg width="24" height="24" viewBox="0 0 24 24" fill="none" xmlns="http://www.w3.org/2000/svg">
<path fill-rule="evenodd" clip-rule="evenodd" d="M9.13946 2.42993C9.56995 2.42971 9.95228 2.70502 10.0886 3.11337L14.8583 17.406L16.7611 11.6844C16.897 11.2757 17.2793 10.9999 17.71 10.9999H21.52C22.0723 10.9999 22.52 11.4476 22.52 11.9999C22.52 12.5522 22.0723 12.9999 21.52 12.9999H18.4313L15.8089 20.8855C15.673 21.294 15.291 21.5697 14.8605 21.5699C14.43 21.5702 14.0477 21.2948 13.9114 20.8865L9.14164 6.59387L7.23888 12.3155C7.10298 12.7242 6.72067 12.9999 6.28998 12.9999H2.47998C1.9277 12.9999 1.47998 12.5522 1.47998 11.9999C1.47998 11.4476 1.9277 10.9999 2.47998 10.9999H5.56869L8.19108 3.11437C8.32692 2.70587 8.70896 2.43016 9.13946 2.42993Z" fill="#545454"/>
</svg>
