<svg width="24" height="24" viewBox="0 0 24 24" fill="none" xmlns="http://www.w3.org/2000/svg">
<path d="M12 22C10.0222 22 8.08879 21.4135 6.4443 20.3147C4.79981 19.2159 3.51809 17.6541 2.76121 15.8268C2.00433 13.9996 1.8063 11.9889 2.19215 10.0491C2.578 8.10929 3.53041 6.32746 4.92894 4.92894C6.32746 3.53041 8.10929 2.578 10.0491 2.19215C11.9889 1.8063 13.9996 2.00433 15.8268 2.76121C17.6541 3.51809 19.2159 4.79981 20.3147 6.4443C21.4135 8.08879 22 10.0222 22 12C22 14.6522 20.9464 17.1957 19.0711 19.0711C17.1957 20.9464 14.6522 22 12 22ZM12 4C10.4178 4 8.87104 4.4692 7.55544 5.34825C6.23985 6.2273 5.21447 7.47673 4.60897 8.93854C4.00347 10.4003 3.84504 12.0089 4.15372 13.5607C4.4624 15.1126 5.22433 16.538 6.34315 17.6569C7.46197 18.7757 8.88743 19.5376 10.4393 19.8463C11.9911 20.155 13.5997 19.9965 15.0615 19.391C16.5233 18.7855 17.7727 17.7602 18.6518 16.4446C19.5308 15.129 20 13.5823 20 12C19.9869 9.88232 19.1398 7.8551 17.6424 6.35764C16.1449 4.86018 14.1177 4.01312 12 4Z" fill="#545454"/>
<path fill-rule="evenodd" clip-rule="evenodd" d="M16.7771 8.49284C17.1676 8.88337 17.1676 9.51653 16.7771 9.90706L11.1771 15.5071C10.9893 15.6948 10.7346 15.8002 10.469 15.8C10.2035 15.7997 9.94891 15.6938 9.7615 15.5057L7.2215 12.9557C6.83174 12.5644 6.83299 11.9312 7.22428 11.5415C7.61557 11.1517 8.24873 11.1529 8.63849 11.5442L10.4714 13.3843L15.3629 8.49284C15.7534 8.10232 16.3866 8.10232 16.7771 8.49284Z" fill="#545454"/>
</svg>
