<svg width="24" height="24" viewBox="0 0 24 24" fill="none" xmlns="http://www.w3.org/2000/svg">
<path d="M12 22C10.0222 22 8.08879 21.4135 6.4443 20.3147C4.79981 19.2159 3.51809 17.6541 2.76121 15.8268C2.00433 13.9996 1.8063 11.9889 2.19215 10.0491C2.578 8.10929 3.53041 6.32746 4.92894 4.92894C6.32746 3.53041 8.10929 2.578 10.0491 2.19215C11.9889 1.8063 13.9996 2.00433 15.8268 2.76121C17.6541 3.51809 19.2159 4.79981 20.3147 6.4443C21.4135 8.08879 22 10.0222 22 12C22 14.6522 20.9464 17.1957 19.0711 19.0711C17.1957 20.9464 14.6522 22 12 22ZM12 4C10.4178 4 8.87104 4.4692 7.55544 5.34825C6.23985 6.2273 5.21447 7.47673 4.60897 8.93854C4.00347 10.4003 3.84504 12.0089 4.15372 13.5607C4.4624 15.1126 5.22433 16.538 6.34315 17.6569C7.46197 18.7757 8.88743 19.5376 10.4393 19.8463C11.9911 20.155 13.5997 19.9965 15.0615 19.391C16.5233 18.7855 17.7727 17.7602 18.6518 16.4446C19.5308 15.129 20 13.5823 20 12C19.9869 9.88232 19.1398 7.8551 17.6424 6.35764C16.1449 4.86018 14.1177 4.01312 12 4Z" fill="#545454"/>
<path d="M14.31 7.54005C12.68 6.13005 8.65 6.54005 8.83 9.38005C8.84437 9.6406 8.95434 9.88668 9.13885 10.0712C9.32337 10.2557 9.56945 10.3657 9.83 10.3801C9.96546 10.3868 10.1009 10.366 10.2281 10.3188C10.3552 10.2716 10.4714 10.199 10.5697 10.1054C10.6679 10.0119 10.746 9.89935 10.7994 9.77465C10.8527 9.64994 10.8802 9.51569 10.88 9.38005C10.88 9.11484 10.9854 8.86048 11.1729 8.67295C11.3604 8.48541 11.6148 8.38005 11.88 8.38005C13 8.31005 13.23 9.69005 12.74 10.4501C11.85 11.5601 10.47 11.8301 10.61 13.4501V13.5001C10.71 14.5801 12.77 14.5001 12.75 13.4501C12.59 12.1001 14.06 11.9501 14.64 10.9901C15.0005 10.4683 15.165 9.83607 15.1046 9.20483C15.0443 8.57359 14.7628 7.98397 14.31 7.54005Z" fill="#545454"/>
<path d="M11.73 17.24C12.3209 17.24 12.8 16.7609 12.8 16.17C12.8 15.579 12.3209 15.1 11.73 15.1C11.1391 15.1 10.66 15.579 10.66 16.17C10.66 16.7609 11.1391 17.24 11.73 17.24Z" fill="#545454"/>
</svg>
