<svg width="24" height="24" viewBox="0 0 24 24" fill="none" xmlns="http://www.w3.org/2000/svg">
<path fill-rule="evenodd" clip-rule="evenodd" d="M12 3.95996C7.55959 3.95996 3.95996 7.55959 3.95996 12C3.95996 16.4403 7.55959 20.04 12 20.04C16.4403 20.04 20.04 16.4403 20.04 12C20.04 7.55959 16.4403 3.95996 12 3.95996ZM1.95996 12C1.95996 6.45502 6.45502 1.95996 12 1.95996C17.5449 1.95996 22.04 6.45502 22.04 12C22.04 17.5449 17.5449 22.04 12 22.04C6.45502 22.04 1.95996 17.5449 1.95996 12ZM12 11.16C12.5523 11.16 13 11.6077 13 12.16V15.93C13 16.4823 12.5523 16.93 12 16.93C11.4477 16.93 11 16.4823 11 15.93V12.16C11 11.6077 11.4477 11.16 12 11.16ZM12 7.35995C12.2918 7.35995 12.5716 7.47585 12.7778 7.68214C12.9841 7.88843 13.1 8.16822 13.1 8.45996C13.1 8.75169 12.9841 9.03148 12.7778 9.23777C12.5716 9.44406 12.2918 9.55996 12 9.55996C11.7083 9.55996 11.4285 9.44406 11.2222 9.23777C11.0159 9.03148 10.9 8.75169 10.9 8.45996C10.9 8.16822 11.0159 7.88843 11.2222 7.68214C11.4285 7.47585 11.7083 7.35995 12 7.35995Z" fill="#545454"/>
</svg>
