<svg width="24" height="23" viewBox="0 0 24 23" fill="none" xmlns="http://www.w3.org/2000/svg">
<path fill-rule="evenodd" clip-rule="evenodd" d="M12.6719 2.37161C12.2996 2.28548 11.9131 2.27139 11.535 2.33017C11.1573 2.38889 10.7956 2.51916 10.471 2.71337C10.0827 2.94512 9.75942 3.26416 9.52909 3.64276L1.5329 16.3921L1.52252 16.409C1.27241 16.827 1.1404 17.3003 1.13953 17.7821C1.13866 18.2639 1.26897 18.7376 1.51758 19.1564C1.76618 19.5751 2.12449 19.9245 2.5571 20.17C2.98972 20.4155 3.48167 20.5486 3.98437 20.5561L3.99999 20.5562H20L20.0065 20.5562C20.512 20.553 21.0077 20.4224 21.4438 20.1775C21.8799 19.9326 22.241 19.582 22.491 19.161C22.7409 18.74 22.8708 18.2633 22.8676 17.7789C22.8645 17.2946 22.7284 16.8195 22.473 16.4015L14.4684 3.63878L14.4676 3.63752C14.2712 3.32297 14.0114 3.04904 13.7034 2.83175C13.3949 2.61417 13.0443 2.45773 12.6719 2.37161ZM11.2471 4.62406L10.39 4.13037L11.2555 4.61036C11.322 4.50021 11.4158 4.40743 11.5285 4.34017L11.5299 4.33935C11.6291 4.27992 11.7398 4.24006 11.8553 4.2221C11.9708 4.20414 12.0889 4.20845 12.2027 4.23477C12.3164 4.26108 12.4236 4.30888 12.5178 4.37537C12.6121 4.44185 12.6915 4.52568 12.7516 4.62196L12.7529 4.62406L20.7494 17.3739C20.826 17.5007 20.8667 17.6444 20.8677 17.791C20.8687 17.939 20.829 18.0846 20.7526 18.2133C20.6762 18.3419 20.5659 18.449 20.4326 18.5239C20.3001 18.5983 20.1496 18.6381 19.9961 18.6395H4.00926C3.85666 18.6362 3.70748 18.5953 3.57608 18.5208C3.44285 18.4452 3.33251 18.3376 3.25595 18.2086C3.17939 18.0796 3.13926 17.9337 3.13953 17.7854C3.13979 17.6397 3.179 17.4965 3.25335 17.3695L11.2471 4.62406ZM12 7.81035C12.5523 7.81035 13 8.23941 13 8.76869V12.372C13 12.9013 12.5523 13.3304 12 13.3304C11.4477 13.3304 11 12.9013 11 12.372V8.76869C11 8.23941 11.4477 7.81035 12 7.81035ZM11.548 16.9229C11.6934 16.9693 11.8474 16.986 12 16.972C12.1526 16.986 12.3065 16.9693 12.452 16.9229C12.5974 16.8766 12.7312 16.8016 12.8446 16.7028C12.958 16.604 13.0487 16.4835 13.1107 16.3492C13.1727 16.2148 13.2048 16.0696 13.2048 15.9227C13.2048 15.7758 13.1727 15.6305 13.1107 15.4961C13.0487 15.3618 12.958 15.2414 12.8446 15.1426C12.7312 15.0438 12.5974 14.9688 12.452 14.9224C12.3065 14.876 12.1526 14.8593 12 14.8733C11.8474 14.8593 11.6934 14.876 11.548 14.9224C11.4025 14.9688 11.2688 15.0438 11.1554 15.1426C11.0419 15.2414 10.9513 15.3618 10.8893 15.4961C10.8273 15.6305 10.7952 15.7758 10.7952 15.9227C10.7952 16.0696 10.8273 16.2148 10.8893 16.3492C10.9513 16.4835 11.0419 16.604 11.1554 16.7028C11.2688 16.8016 11.4025 16.8766 11.548 16.9229Z" fill="#545454"/>
</svg>
