<svg width="24" height="24" viewBox="0 0 24 24" fill="none" xmlns="http://www.w3.org/2000/svg">
<path fill-rule="evenodd" clip-rule="evenodd" d="M11.95 1.34998C9.97679 1.34998 8.0844 2.13383 6.68913 3.5291C5.29386 4.92437 4.51 6.81676 4.51 8.78998C4.51 12.3981 3.74024 14.6455 3.02643 15.9586C2.66816 16.6177 2.31858 17.0515 2.07427 17.3104C1.95185 17.4401 1.85517 17.5266 1.79614 17.576C1.76661 17.6008 1.74647 17.6162 1.7372 17.6231L1.73274 17.6264C1.37453 17.8731 1.21645 18.3237 1.34322 18.7408C1.47126 19.162 1.85973 19.45 2.3 19.45H8.30872C8.39352 20.2847 8.76336 21.0694 9.36197 21.668C10.0483 22.3543 10.9793 22.74 11.95 22.74C12.9207 22.74 13.8516 22.3543 14.538 21.668C15.1366 21.0694 15.5064 20.2847 15.5912 19.45H21.61C22.0505 19.45 22.4392 19.1617 22.567 18.7401C22.6935 18.3227 22.5349 17.8719 22.1761 17.6256L22.1715 17.6222C22.1622 17.6153 22.1419 17.5998 22.1123 17.5751C22.053 17.5256 21.956 17.439 21.8331 17.3092C21.588 17.0503 21.2373 16.6165 20.878 15.9575C20.162 14.6446 19.39 12.3975 19.39 8.78998C19.39 6.81676 18.6061 4.92437 17.2109 3.5291C15.8156 2.13383 13.9232 1.34998 11.95 1.34998ZM19.4355 17.45H4.47042C4.57439 17.2843 4.67922 17.1058 4.78358 16.9138C5.67477 15.2744 6.51 12.6919 6.51 8.78998C6.51 7.3472 7.08315 5.96351 8.10334 4.94331C9.12354 3.92312 10.5072 3.34998 11.95 3.34998C13.3928 3.34998 14.7765 3.92312 15.7967 4.94331C16.8169 5.96351 17.39 7.3472 17.39 8.78998C17.39 12.6924 18.228 15.2754 19.1221 16.915C19.2265 17.1065 19.3314 17.2846 19.4355 17.45ZM10.7762 20.2538C10.7215 20.1991 10.671 20.141 10.625 20.08H13.275C13.2289 20.141 13.1785 20.1991 13.1238 20.2538C12.8125 20.5651 12.3902 20.74 11.95 20.74C11.5097 20.74 11.0875 20.5651 10.7762 20.2538Z" fill="#545454"/>
</svg>
