<svg width="24" height="24" viewBox="0 0 24 24" fill="none" xmlns="http://www.w3.org/2000/svg">
<path d="M12 13C11.7348 13 11.4804 12.8946 11.2929 12.7071C11.1054 12.5195 11 12.2652 11 12V8.21997C11 7.95475 11.1054 7.7004 11.2929 7.51286C11.4804 7.32533 11.7348 7.21997 12 7.21997C12.2652 7.21997 12.5196 7.32533 12.7071 7.51286C12.8946 7.7004 13 7.95475 13 8.21997V12C13 12.2652 12.8946 12.5195 12.7071 12.7071C12.5196 12.8946 12.2652 13 12 13Z" fill="#545454"/>
<path d="M12 16.78C11.7276 16.7539 11.4748 16.6273 11.2907 16.4248C11.1067 16.2223 11.0048 15.9586 11.0048 15.685C11.0048 15.4114 11.1067 15.1476 11.2907 14.9451C11.4748 14.7426 11.7276 14.616 12 14.59C12.1526 14.5754 12.3065 14.5928 12.452 14.6412C12.5974 14.6896 12.7312 14.7678 12.8446 14.8709C12.958 14.974 13.0487 15.0997 13.1107 15.2399C13.1727 15.3801 13.2048 15.5317 13.2048 15.685C13.2048 15.8382 13.1727 15.9898 13.1107 16.13C13.0487 16.2702 12.958 16.3959 12.8446 16.499C12.7312 16.6021 12.5974 16.6803 12.452 16.7287C12.3065 16.7771 12.1526 16.7946 12 16.78Z" fill="#545454"/>
<path d="M12 22C10.0222 22 8.08879 21.4135 6.4443 20.3147C4.79981 19.2159 3.51809 17.6541 2.76121 15.8268C2.00433 13.9996 1.8063 11.9889 2.19215 10.0491C2.578 8.10929 3.53041 6.32746 4.92894 4.92894C6.32746 3.53041 8.10929 2.578 10.0491 2.19215C11.9889 1.8063 13.9996 2.00433 15.8268 2.76121C17.6541 3.51809 19.2159 4.79981 20.3147 6.4443C21.4135 8.08879 22 10.0222 22 12C22 14.6522 20.9464 17.1957 19.0711 19.0711C17.1957 20.9464 14.6522 22 12 22ZM12 4C10.4178 4 8.87104 4.4692 7.55544 5.34825C6.23985 6.2273 5.21447 7.47673 4.60897 8.93854C4.00347 10.4003 3.84504 12.0089 4.15372 13.5607C4.4624 15.1126 5.22433 16.538 6.34315 17.6569C7.46197 18.7757 8.88743 19.5376 10.4393 19.8463C11.9911 20.155 13.5997 19.9965 15.0615 19.391C16.5233 18.7855 17.7727 17.7602 18.6518 16.4446C19.5308 15.129 20 13.5823 20 12C19.9869 9.88232 19.1398 7.8551 17.6424 6.35764C16.1449 4.86018 14.1177 4.01312 12 4Z" fill="#545454"/>
</svg>
