<svg width="24" height="24" viewBox="0 0 24 24" fill="none" xmlns="http://www.w3.org/2000/svg">
<path fill-rule="evenodd" clip-rule="evenodd" d="M3.96002 12C3.96002 7.55959 7.55965 3.95996 12 3.95996C16.4404 3.95996 20.04 7.55959 20.04 12C20.04 16.4403 16.4404 20.04 12 20.04C7.55965 20.04 3.96002 16.4403 3.96002 12ZM12 1.95996C6.45508 1.95996 1.96002 6.45502 1.96002 12C1.96002 17.5449 6.45508 22.04 12 22.04C17.545 22.04 22.04 17.5449 22.04 12C22.04 6.45502 17.545 1.95996 12 1.95996ZM9.32001 8.88998H14.68C14.9175 8.88998 15.11 9.0825 15.11 9.31998V14.68C15.11 14.9175 14.9175 15.11 14.68 15.11H9.32001C9.08253 15.11 8.89001 14.9175 8.89001 14.68V9.31998C8.89001 9.0825 9.08253 8.88998 9.32001 8.88998Z" fill="#545454"/>
</svg>
