<svg width="24" height="24" viewBox="0 0 24 24" fill="none" xmlns="http://www.w3.org/2000/svg">
<path fill-rule="evenodd" clip-rule="evenodd" d="M8.1782 4.46795C8.04112 4.35045 7.86582 4.28712 7.6853 4.28988L7.67001 4.29H4.95296C4.86686 4.30158 4.78333 4.32806 4.70614 4.36832C4.61869 4.41393 4.5411 4.47634 4.47781 4.55197C4.41451 4.62761 4.36675 4.71499 4.33727 4.8091C4.30845 4.90111 4.29765 4.99779 4.30543 5.09385C4.57791 7.63698 5.44577 10.0802 6.83871 12.2254L6.84407 12.2337L6.84403 12.2337C8.10464 14.2176 9.7884 15.8981 11.7747 17.155L11.7845 17.1611L11.7844 17.1612C13.9254 18.5507 16.3599 19.4232 18.8955 19.71H18.9829C19.171 19.7019 19.3494 19.6232 19.4823 19.4895C19.6158 19.3552 19.6935 19.1754 19.7 18.9864V16.3346C19.6979 16.1556 19.6318 15.9832 19.5137 15.8487C19.3952 15.7138 19.2323 15.6258 19.0546 15.6008C18.1434 15.4778 17.2483 15.2557 16.3852 14.9387C16.3767 14.9355 16.3682 14.9323 16.3598 14.929C16.358 14.9282 16.3563 14.9275 16.3545 14.9268C16.2238 14.8739 16.0808 14.8593 15.9421 14.885C15.808 14.9097 15.6835 14.9711 15.5822 15.0621L14.4871 16.1571C14.1688 16.4754 13.677 16.5418 13.2857 16.3193C10.9386 14.9847 8.9953 13.0414 7.66071 10.6943C7.44156 10.3089 7.50235 9.82518 7.81005 9.50598L8.88005 8.39598L8.89318 8.38262C8.99362 8.28225 9.06307 8.15511 9.09323 8.01635C9.1234 7.8776 9.113 7.7331 9.06329 7.60009L9.05912 7.58892L9.05919 7.58889C8.74836 6.72601 8.53674 5.83057 8.4284 4.91985C8.402 4.74415 8.31324 4.58369 8.1782 4.46795ZM20.7 16.33H21.7V19L21.6998 19.0225C21.6839 19.7275 21.3979 20.3994 20.9007 20.8995C20.4035 21.3996 19.7332 21.6896 19.0283 21.7096L19.0094 21.71L19 21.71H18.84C18.8036 21.71 18.7671 21.708 18.7309 21.704C15.8674 21.3896 13.1173 20.4095 10.7004 18.842C8.46843 17.4287 6.57609 15.5399 5.15864 13.3105C3.59412 10.8996 2.62009 8.15382 2.31564 5.29593L2.31403 5.27954C2.28164 4.91936 2.32062 4.55634 2.42872 4.21124C2.53682 3.86615 2.71193 3.54576 2.94401 3.26843C3.1761 2.9911 3.4606 2.76226 3.78124 2.59503C4.10188 2.42779 4.45235 2.32544 4.8126 2.29383C4.84166 2.29128 4.87083 2.29 4.90001 2.29H7.66323C8.32864 2.28189 8.97438 2.51623 9.47978 2.94943C9.98734 3.38448 10.3183 3.99007 10.4105 4.65218L10.4131 4.67292C10.503 5.43494 10.6794 6.18422 10.9391 6.90623C11.1211 7.39697 11.1588 7.92964 11.0476 8.44121C10.9366 8.95158 10.6821 9.41953 10.3142 9.79L9.7842 10.3398C10.7798 11.8792 12.0898 13.1906 13.6279 14.1879L14.1829 13.6329C14.1911 13.6246 14.1995 13.6165 14.2081 13.6086C14.5899 13.2526 15.0654 13.0131 15.5787 12.9183C16.0859 12.8245 16.6091 12.8759 17.0882 13.0662C17.8112 13.3307 18.5607 13.5161 19.3237 13.619L19.3271 13.6194C19.9813 13.71 20.581 14.0329 21.0167 14.5292C21.4523 15.0255 21.6949 15.6619 21.7 16.3223L20.7 16.33ZM14.19 4.49001C14.7423 4.49001 15.19 4.93772 15.19 5.49001V7.15997L17.5738 4.78203C17.9648 4.39199 18.5979 4.39276 18.988 4.78376C19.378 5.17477 19.3772 5.80793 18.9862 6.19798L16.6084 8.57001H18.28C18.8323 8.57001 19.28 9.01772 19.28 9.57001C19.28 10.1223 18.8323 10.57 18.28 10.57H14.19C13.9148 10.57 13.6656 10.4588 13.4848 10.279C13.4818 10.276 13.4789 10.2731 13.476 10.2701C13.3834 10.1757 13.3133 10.0675 13.2656 9.95222C13.2169 9.83447 13.19 9.70538 13.19 9.57001V5.49001C13.19 4.93772 13.6377 4.49001 14.19 4.49001Z" fill="#545454"/>
</svg>
