<svg width="24" height="24" viewBox="0 0 24 24" fill="none" xmlns="http://www.w3.org/2000/svg">
<path fill-rule="evenodd" clip-rule="evenodd" d="M4.66289 4.44289C4.85042 4.25535 5.10478 4.14999 5.37 4.14999H19.07C19.3352 4.14999 19.5896 4.25535 19.7771 4.44289C19.9639 4.62972 20.0692 4.88287 20.07 5.147L20.07 5.14999L20 14.9929H20V15C20 15.2652 19.8946 15.5196 19.7071 15.7071C19.5196 15.8946 19.2652 16 19 16H7.3C7.03879 16 6.78795 16.1022 6.60113 16.2847L4.37 18.4648V5.14999C4.37 4.88478 4.47535 4.63042 4.66289 4.44289ZM5.37 2.14999C4.57435 2.14999 3.81128 2.46606 3.24867 3.02867C2.68607 3.59128 2.37 4.35434 2.37 5.14999V20.84C2.37 21.2423 2.61114 21.6055 2.98197 21.7616C3.3528 21.9178 3.78108 21.8364 4.06886 21.5552L7.70744 18H19C19.7956 18 20.5587 17.6839 21.1213 17.1213C21.683 16.5596 21.9989 15.7982 22 15.004L22 15L22.07 5.1571L22.07 5.1571V5.14999C22.07 4.35434 21.7539 3.59128 21.1913 3.02867C20.6287 2.46606 19.8656 2.14999 19.07 2.14999H5.37ZM13.54 10.15C13.54 10.8072 13.0072 11.34 12.35 11.34C11.6928 11.34 11.16 10.8072 11.16 10.15C11.16 9.49279 11.6928 8.96001 12.35 8.96001C13.0072 8.96001 13.54 9.49279 13.54 10.15ZM16.84 11.34C17.4972 11.34 18.03 10.8072 18.03 10.15C18.03 9.49279 17.4972 8.96001 16.84 8.96001C16.1828 8.96001 15.65 9.49279 15.65 10.15C15.65 10.8072 16.1828 11.34 16.84 11.34ZM9.05999 10.15C9.05999 10.8072 8.52721 11.34 7.86999 11.34C7.21277 11.34 6.67999 10.8072 6.67999 10.15C6.67999 9.49279 7.21277 8.96001 7.86999 8.96001C8.52721 8.96001 9.05999 9.49279 9.05999 10.15Z" fill="#545454"/>
</svg>
