<svg width="24" height="23" viewBox="0 0 24 23" fill="none" xmlns="http://www.w3.org/2000/svg">
<path fill-rule="evenodd" clip-rule="evenodd" d="M3.01069 4.22626H16.146C16.8459 4.23029 17.516 4.49856 18.0109 4.97287C18.5059 5.44718 18.7858 6.08933 18.79 6.76009C18.7933 7.28936 18.3483 7.72099 17.796 7.72416C17.2437 7.72734 16.7933 7.30087 16.79 6.7716C16.789 6.60517 16.7195 6.44584 16.5967 6.32816C16.4745 6.211 16.3091 6.14451 16.1363 6.14293H3L2.97576 6.14265C2.88908 6.14064 2.80286 6.15526 2.72217 6.18566C2.64148 6.21606 2.56795 6.26163 2.50592 6.31967C2.44388 6.37772 2.39459 6.44707 2.36094 6.52365C2.32729 6.60022 2.30997 6.68248 2.31 6.76557V16.2342C2.30997 16.3173 2.32729 16.3998 2.36094 16.4764C2.39459 16.553 2.44388 16.6223 2.50592 16.6804C2.56795 16.7384 2.64148 16.784 2.72217 16.8144C2.80286 16.8448 2.88908 16.8594 2.97576 16.8574L3 16.8571H16.14C16.6923 16.8571 17.14 17.2862 17.14 17.8154C17.14 18.3447 16.6923 18.7738 16.14 18.7738H3.0107C2.66189 18.7802 2.31515 18.7205 1.99039 18.5981C1.66143 18.4742 1.36166 18.2884 1.10874 18.0518C0.855817 17.8151 0.654855 17.5324 0.517682 17.2202C0.380539 16.9081 0.309926 16.5728 0.309998 16.2341C0.309998 16.2341 0.309998 16.2342 0.309998 16.2341L0.309998 6.76613C0.309998 6.76604 0.309998 6.76622 0.309998 6.76613C0.309933 6.42748 0.380546 6.09195 0.517682 5.77984C0.654856 5.46764 0.855819 5.1849 1.10874 4.94825C1.36166 4.71161 1.66142 4.52584 1.99039 4.4019C2.31515 4.27954 2.66189 4.21987 3.01069 4.22626Z" fill="#545454"/>
<path fill-rule="evenodd" clip-rule="evenodd" d="M0.490417 6.21676C0.806837 5.78297 1.4303 5.67713 1.88295 5.98036L9.55002 11.1166L17.2171 5.98036C17.6698 5.67713 18.2932 5.78297 18.6096 6.21676C18.926 6.65056 18.8156 7.24804 18.363 7.55128L10.123 13.0713C9.77887 13.3018 9.32118 13.3018 8.97709 13.0713L0.737095 7.55128C0.284439 7.24804 0.173998 6.65056 0.490417 6.21676Z" fill="#545454"/>
<path fill-rule="evenodd" clip-rule="evenodd" d="M19.4861 9.04846C19.8772 9.42218 19.8781 10.029 19.4881 10.4037L16.7032 13.0803L19.4871 15.7482C19.8776 16.1224 19.8776 16.7292 19.4871 17.1035C19.0966 17.4777 18.4634 17.4777 18.0729 17.1035L14.5829 13.7589C14.1927 13.385 14.1923 12.779 14.5819 12.4046L18.0719 9.0504C18.4618 8.67561 19.095 8.67474 19.4861 9.04846Z" fill="#545454"/>
<path fill-rule="evenodd" clip-rule="evenodd" d="M14.29 13.0813C14.29 12.552 14.7377 12.1229 15.29 12.1229H22.48C23.0323 12.1229 23.48 12.552 23.48 13.0813C23.48 13.6105 23.0323 14.0396 22.48 14.0396H15.29C14.7377 14.0396 14.29 13.6105 14.29 13.0813Z" fill="#545454"/>
</svg>
