<svg width="24" height="24" viewBox="0 0 24 24" fill="none" xmlns="http://www.w3.org/2000/svg">
  <path fill-rule="evenodd" clip-rule="evenodd" d="M3.53288 5.29289C3.72042 5.10536 3.97477 5 4.23999 5H20C20.2652 5 20.5196 5.10536 20.7071 5.29289C20.7791 5.3649 20.839 5.44675 20.8855 5.53529L12.1298 11.6598L3.35739 5.52986C3.40344 5.44341 3.46235 5.36342 3.53288 5.29289ZM3.23999 7.88774V17.81C3.23999 18.0752 3.34535 18.3296 3.53288 18.5171C3.72042 18.7046 3.97477 18.81 4.23999 18.81H20C20.2652 18.81 20.5196 18.7046 20.7071 18.5171C20.8946 18.3296 21 18.0752 21 17.81V7.8959L12.7032 13.6994C12.3592 13.9401 11.9014 13.9402 11.5573 13.6997L3.23999 7.88774ZM20 3H4.23999C3.44434 3 2.68128 3.31607 2.11867 3.87868C1.55606 4.44129 1.23999 5.20435 1.23999 6V17.81C1.23999 18.6056 1.55606 19.3687 2.11867 19.9313C2.68128 20.4939 3.44434 20.81 4.23999 20.81H20C20.7956 20.81 21.5587 20.4939 22.1213 19.9313C22.6839 19.3687 23 18.6056 23 17.81V6C23 5.20435 22.6839 4.44129 22.1213 3.87868C21.5587 3.31607 20.7956 3 20 3Z" fill="#545454" />
</svg>
