<svg width="24" height="25" viewBox="0 0 24 25" fill="none" xmlns="http://www.w3.org/2000/svg">
<path d="M20.9996 17.9738V20.9846C21.0008 21.2641 20.9434 21.5408 20.8312 21.7969C20.719 22.053 20.5544 22.2829 20.3481 22.4718C20.1417 22.6608 19.8981 22.8046 19.6328 22.8942C19.3675 22.9837 19.0864 23.017 18.8074 22.9918C15.713 22.6563 12.7407 21.601 10.1291 19.9108C7.69946 18.3699 5.63951 16.314 4.09558 13.8892C2.3961 11.271 1.33849 8.29005 1.00841 5.18792C0.983277 4.91039 1.01633 4.63068 1.10545 4.3666C1.19457 4.10251 1.33781 3.85984 1.52605 3.65404C1.71429 3.44823 1.94341 3.28379 2.19882 3.1712C2.45423 3.05861 2.73033 3.00033 3.00954 3.00007H6.02632C6.51434 2.99527 6.98746 3.16775 7.35749 3.48534C7.72752 3.80294 7.96921 4.24398 8.03751 4.72626C8.28891 5.66613 8.5 6.5 8.74143 7.54638C8.87672 7.9056 8.90601 8.29599 8.8258 8.6713C8.7456 9.04662 8.55928 9.39112 8.28891 9.66398L7.01181 10.9386C8.44333 13.4511 10.5278 15.5315 13.0454 16.9602L14.3225 15.6856C14.5959 15.4158 14.9411 15.2298 15.3171 15.1498C15.6932 15.0697 16.0844 15.0989 16.4443 15.234C17.5 15.5 18.295 15.6856 19.27 15.9365C19.7585 16.0053 20.2046 16.2508 20.5235 16.6265C20.8424 17.0021 21.0119 17.4816 20.9996 17.9738Z" stroke="#545454" stroke-width="1.5" stroke-linecap="round" stroke-linejoin="round"/>
<path d="M15 6C15.9767 6.19057 16.8744 6.66826 17.5781 7.37194C18.2817 8.07561 18.7594 8.97326 18.95 9.95M15 2C17.0293 2.22544 18.9216 3.13417 20.3662 4.57701C21.8109 6.01984 22.722 7.91101 22.95 9.94" stroke="#545454" stroke-width="1.5" stroke-linecap="round" stroke-linejoin="round"/>
</svg>
