<svg width="24" height="24" viewBox="0 0 24 24" fill="none" xmlns="http://www.w3.org/2000/svg">
<path fill-rule="evenodd" clip-rule="evenodd" d="M3.01069 4.41H16.146C16.8459 4.4142 17.516 4.69413 18.0109 5.18907C18.5059 5.684 18.7858 6.35406 18.79 7.05399C18.7933 7.60627 18.3483 8.05667 17.796 8.05998C17.2437 8.0633 16.7933 7.61828 16.79 7.06601C16.789 6.89234 16.7195 6.72608 16.5967 6.60328C16.4745 6.48102 16.3091 6.41164 16.1363 6.41H3L2.97576 6.40971C2.88908 6.4076 2.80286 6.42286 2.72217 6.45459C2.64148 6.48631 2.56795 6.53386 2.50592 6.59443C2.44388 6.65499 2.39459 6.72736 2.36094 6.80727C2.32729 6.88718 2.30997 6.97301 2.31 7.05971V16.94C2.30997 17.0267 2.32729 17.1128 2.36094 17.1927C2.39459 17.2726 2.44388 17.345 2.50592 17.4056C2.56795 17.4661 2.64148 17.5137 2.72217 17.5454C2.80286 17.5771 2.88908 17.5924 2.97576 17.5903L3 17.59H16.14C16.6923 17.59 17.14 18.0377 17.14 18.59C17.14 19.1423 16.6923 19.59 16.14 19.59H3.0107C2.66189 19.5967 2.31515 19.5344 1.99039 19.4067C1.66143 19.2774 1.36166 19.0836 1.10874 18.8366C0.855817 18.5897 0.654855 18.2947 0.517682 17.9689C0.380539 17.6432 0.309926 17.2933 0.309998 16.9399C0.309998 16.9399 0.309998 16.94 0.309998 16.9399L0.309998 7.06029C0.309998 7.0602 0.309998 7.06039 0.309998 7.06029C0.309933 6.70692 0.380546 6.3568 0.517682 6.03112C0.654856 5.70535 0.855819 5.41031 1.10874 5.16338C1.36166 4.91644 1.66142 4.7226 1.99039 4.59327C2.31515 4.46559 2.66189 4.40333 3.01069 4.41Z" fill="#545454"/>
<path fill-rule="evenodd" clip-rule="evenodd" d="M18.5897 6.48706C18.9061 6.93972 18.7957 7.56318 18.343 7.8796L10.103 13.6396C9.75874 13.8802 9.3008 13.8801 8.95668 13.6393L0.726678 7.87927C0.274203 7.56259 0.164117 6.93907 0.480795 6.4866C0.797473 6.03412 1.42099 5.92404 1.87347 6.24071L9.53042 11.5996L17.1971 6.24039C17.6498 5.92397 18.2733 6.03441 18.5897 6.48706Z" fill="#545454"/>
<path fill-rule="evenodd" clip-rule="evenodd" d="M18.3839 9.44188C18.775 9.05191 19.4082 9.05282 19.7981 9.4439L23.2881 12.9439C23.6777 13.3346 23.6773 13.967 23.2871 14.3571L19.7971 17.8471C19.4066 18.2376 18.7734 18.2376 18.3829 17.8471C17.9924 17.4566 17.9924 16.8234 18.3829 16.4329L21.1668 13.649L18.3819 10.8561C17.9919 10.465 17.9928 9.83184 18.3839 9.44188Z" fill="#545454"/>
<path fill-rule="evenodd" clip-rule="evenodd" d="M14.39 13.65C14.39 13.0977 14.8377 12.65 15.39 12.65H22.58C23.1323 12.65 23.58 13.0977 23.58 13.65C23.58 14.2023 23.1323 14.65 22.58 14.65H15.39C14.8377 14.65 14.39 14.2023 14.39 13.65Z" fill="#545454"/>
</svg>
