<svg width="48" height="48" viewBox="0 0 48 48" fill="none" xmlns="http://www.w3.org/2000/svg">
<path d="M42.06 29.3199C41.9229 29.3195 41.7873 29.2909 41.6617 29.2358C41.5362 29.1808 41.4232 29.1005 41.33 28.9999C41.1502 28.8061 41.0546 28.5489 41.0639 28.2846C41.0733 28.0204 41.187 27.7706 41.38 27.5899C42.1833 26.8492 42.8244 25.9501 43.2629 24.9493C43.7013 23.9484 43.9277 22.8676 43.9277 21.7749C43.9277 20.6823 43.7013 19.6015 43.2629 18.6006C42.8244 17.5998 42.1833 16.7007 41.38 15.9599C41.2835 15.8706 41.2055 15.7632 41.1505 15.6438C41.0955 15.5243 41.0645 15.3952 41.0594 15.2638C41.0543 15.1324 41.0752 15.0013 41.1207 14.878C41.1663 14.7546 41.2357 14.6415 41.325 14.5449C41.4143 14.4484 41.5217 14.3704 41.6412 14.3154C41.7606 14.2604 41.8897 14.2295 42.0211 14.2244C42.1525 14.2193 42.2836 14.2401 42.407 14.2857C42.5303 14.3312 42.6435 14.4006 42.74 14.4899C43.746 15.4171 44.549 16.5426 45.0982 17.7956C45.6474 19.0486 45.9309 20.4019 45.9309 21.7699C45.9309 23.138 45.6474 24.4913 45.0982 25.7443C44.549 26.9973 43.746 28.1228 42.74 29.0499C42.5556 29.2226 42.3126 29.3191 42.06 29.3199Z" fill="#E97C24"/>
<path d="M38.66 26.62C38.4592 26.6175 38.2639 26.5546 38.0993 26.4395C37.9348 26.3244 37.8087 26.1625 37.7375 25.9748C37.6663 25.787 37.6533 25.5822 37.7001 25.387C37.7469 25.1917 37.8514 25.0151 38 24.88C38.4321 24.4864 38.7773 24.0069 39.0135 23.4723C39.2497 22.9376 39.3717 22.3595 39.3717 21.775C39.3717 21.1905 39.2497 20.6124 39.0135 20.0778C38.7773 19.5431 38.4321 19.0636 38 18.67C37.9063 18.5771 37.8319 18.4665 37.7811 18.3446C37.7303 18.2227 37.7042 18.092 37.7042 17.96C37.7042 17.828 37.7303 17.6973 37.7811 17.5755C37.8319 17.4536 37.9063 17.343 38 17.25C38.1807 17.057 38.4304 16.9433 38.6947 16.934C38.9589 16.9246 39.2161 17.0203 39.41 17.2C40.0438 17.7817 40.5498 18.4888 40.8959 19.2763C41.242 20.0639 41.4208 20.9148 41.4208 21.775C41.4208 22.6353 41.242 23.4862 40.8959 24.2737C40.5498 25.0613 40.0438 25.7683 39.41 26.35C39.3102 26.4441 39.1921 26.5165 39.0631 26.563C38.934 26.6094 38.7968 26.6289 38.66 26.62Z" fill="#E97C24"/>
<path d="M34 28.0601H14C13.7348 28.0601 13.4804 27.9547 13.2929 27.7672C13.1054 27.5796 13 27.3253 13 27.0601C13 26.7948 13.1054 26.5405 13.2929 26.353C13.4804 26.1654 13.7348 26.0601 14 26.0601H34C34.2652 26.0601 34.5196 26.1654 34.7071 26.353C34.8946 26.5405 35 26.7948 35 27.0601C35 27.3253 34.8946 27.5796 34.7071 27.7672C34.5196 27.9547 34.2652 28.0601 34 28.0601Z" fill="#E97C24"/>
<path d="M35.24 32.08C35.0169 32.0889 34.7972 32.0228 34.6159 31.8923C34.4347 31.7618 34.3024 31.5744 34.24 31.36C33.4823 27.7969 33.1102 24.1627 33.13 20.52C33.13 19.3158 32.8928 18.1233 32.432 17.0108C31.9711 15.8982 31.2957 14.8873 30.4442 14.0358C29.5927 13.1843 28.5818 12.5088 27.4692 12.048C26.3567 11.5872 25.1642 11.35 23.96 11.35C22.7558 11.35 21.5634 11.5872 20.4508 12.048C19.3382 12.5088 18.3273 13.1843 17.4758 14.0358C16.6243 14.8873 15.9489 15.8982 15.488 17.0108C15.0272 18.1233 14.79 19.3158 14.79 20.52C14.8098 24.1627 14.4377 27.7969 13.68 31.36C13.6432 31.4867 13.5819 31.6049 13.4994 31.708C13.4169 31.811 13.315 31.8967 13.1994 31.9603C13.0838 32.0239 12.9568 32.0641 12.8256 32.0787C12.6945 32.0932 12.5617 32.0817 12.435 32.045C12.3083 32.0082 12.19 31.9468 12.087 31.8644C11.984 31.7819 11.8983 31.68 11.8347 31.5643C11.7711 31.4487 11.7308 31.3217 11.7163 31.1906C11.7018 31.0594 11.7132 30.9267 11.75 30.8C12.4503 27.419 12.7855 23.9726 12.75 20.52C12.75 17.5575 13.9268 14.7164 16.0216 12.6216C18.1164 10.5268 20.9575 9.34998 23.92 9.34998C26.8825 9.34998 29.7236 10.5268 31.8184 12.6216C33.9132 14.7164 35.09 17.5575 35.09 20.52C35.0539 23.9726 35.3892 27.4191 36.09 30.8C36.1584 31.0351 36.1381 31.2871 36.0331 31.5083C35.928 31.7295 35.7455 31.9044 35.52 32C35.4319 32.0424 35.3372 32.0694 35.24 32.08Z" fill="#C55328"/>
<path d="M24 44.12C22.619 44.1174 21.2954 43.5676 20.3189 42.5911C19.3424 41.6146 18.7927 40.291 18.79 38.91C18.79 38.6448 18.8954 38.3905 19.0829 38.2029C19.2704 38.0154 19.5248 37.91 19.79 37.91H28.21C28.4752 37.91 28.7296 38.0154 28.9171 38.2029C29.1047 38.3905 29.21 38.6448 29.21 38.91C29.2074 40.291 28.6576 41.6146 27.6811 42.5911C26.7046 43.5676 25.381 44.1174 24 44.12ZM21 39.91C21.2109 40.5526 21.6193 41.1122 22.167 41.5089C22.7147 41.9056 23.3737 42.1192 24.05 42.1192C24.7263 42.1192 25.3853 41.9056 25.933 41.5089C26.4807 41.1122 26.8892 40.5526 27.1 39.91H21Z" fill="#C55328"/>
<path d="M39.56 39.91H8.44C8.17479 39.91 7.92043 39.8046 7.7329 39.6171C7.54536 39.4295 7.44 39.1752 7.44 38.91V37.15C7.44265 35.2757 8.18837 33.4789 9.51368 32.1536C10.839 30.8283 12.6357 30.0826 14.51 30.08H33.51C35.3843 30.0826 37.181 30.8283 38.5063 32.1536C39.8316 33.4789 40.5774 35.2757 40.58 37.15V38.91C40.58 39.043 40.5535 39.1747 40.502 39.2973C40.4505 39.42 40.3751 39.5311 40.2801 39.6242C40.1851 39.7174 40.0725 39.7906 39.9488 39.8397C39.8252 39.8887 39.693 39.9126 39.56 39.91ZM9.44 37.91H38.56V37.15C38.56 35.8053 38.0258 34.5157 37.075 33.5649C36.1242 32.6141 34.8347 32.08 33.49 32.08H14.49C13.1454 32.08 11.8558 32.6141 10.905 33.5649C9.95416 34.5157 9.42 35.8053 9.42 37.15L9.44 37.91Z" fill="#C55328"/>
<path d="M25.79 10.59C25.6882 10.5955 25.5863 10.5801 25.4907 10.5449C25.395 10.5096 25.3076 10.4552 25.2336 10.385C25.1597 10.3148 25.1008 10.2303 25.0607 10.1366C25.0205 10.0429 24.9999 9.942 25 9.84005C25 9.56422 24.8904 9.2997 24.6954 9.10466C24.5004 8.90962 24.2358 8.80005 23.96 8.80005C23.6842 8.80005 23.4196 8.90962 23.2246 9.10466C23.0296 9.2997 22.92 9.56422 22.92 9.84005C22.92 10.039 22.841 10.2297 22.7003 10.3704C22.5597 10.511 22.3689 10.59 22.17 10.59C21.9711 10.59 21.7803 10.511 21.6397 10.3704C21.499 10.2297 21.42 10.039 21.42 9.84005C21.42 9.1664 21.6876 8.52034 22.1639 8.044C22.6403 7.56766 23.2863 7.30005 23.96 7.30005C24.6336 7.30005 25.2797 7.56766 25.7561 8.044C26.2324 8.52034 26.5 9.1664 26.5 9.84005C26.4979 10.0315 26.4236 10.2151 26.292 10.3542C26.1603 10.4932 25.9811 10.5775 25.79 10.59Z" fill="#C55328"/>
<path d="M27.78 10.8499C27.679 10.854 27.5783 10.8376 27.4838 10.8017C27.3893 10.7658 27.303 10.7112 27.2302 10.6412C27.1573 10.5711 27.0994 10.4871 27.0598 10.3941C27.0203 10.3011 26.9999 10.201 27 10.0999C27 9.70204 26.9216 9.30803 26.7694 8.94041C26.6171 8.5728 26.3939 8.23877 26.1125 7.95741C25.8312 7.67605 25.4971 7.45286 25.1295 7.30059C24.7619 7.14832 24.3679 7.06995 23.97 7.06995C23.5721 7.06995 23.1781 7.14832 22.8105 7.30059C22.4429 7.45286 22.1088 7.67605 21.8275 7.95741C21.5461 8.23877 21.3229 8.5728 21.1706 8.94041C21.0184 9.30803 20.94 9.70204 20.94 10.0999C20.94 10.2989 20.861 10.4896 20.7203 10.6303C20.5797 10.7709 20.3889 10.8499 20.19 10.8499C19.9911 10.8499 19.8003 10.7709 19.6597 10.6303C19.519 10.4896 19.44 10.2989 19.44 10.0999C19.44 8.89852 19.9173 7.74629 20.7668 6.89675C21.6163 6.04721 22.7686 5.56995 23.97 5.56995C25.1714 5.56995 26.3237 6.04721 27.1732 6.89675C28.0227 7.74629 28.5 8.89852 28.5 10.0999C28.5027 10.2945 28.4287 10.4823 28.2939 10.6227C28.1591 10.7631 27.9745 10.8447 27.78 10.8499Z" fill="#C55328"/>
<path d="M5.93999 29.32C5.68736 29.3191 5.44442 29.2226 5.25999 29.05C4.25397 28.1228 3.45103 26.9973 2.90182 25.7443C2.35261 24.4913 2.06906 23.138 2.06906 21.77C2.06906 20.4019 2.35261 19.0487 2.90182 17.7957C3.45103 16.5427 4.25397 15.4171 5.25999 14.49C5.46023 14.3096 5.72391 14.2162 5.99303 14.2303C6.26214 14.2443 6.51465 14.3647 6.69499 14.565C6.87534 14.7652 6.96876 15.0289 6.95469 15.298C6.94063 15.5671 6.82023 15.8196 6.61999 16C5.81672 16.7407 5.17563 17.6398 4.73713 18.6406C4.29864 19.6415 4.07226 20.7223 4.07226 21.815C4.07226 22.9076 4.29864 23.9885 4.73713 24.9893C5.17563 25.9901 5.81672 26.8892 6.61999 27.63C6.80624 27.8173 6.91079 28.0708 6.91079 28.335C6.91079 28.5992 6.80624 28.8526 6.61999 29.04C6.43712 29.2163 6.194 29.3164 5.93999 29.32Z" fill="#E97C24"/>
<path d="M9.34001 26.62C9.08737 26.6192 8.84443 26.5227 8.66001 26.35C8.02624 25.7683 7.52025 25.0613 7.17411 24.2737C6.82797 23.4862 6.64923 22.6353 6.64923 21.775C6.64923 20.9148 6.82797 20.0639 7.17411 19.2763C7.52025 18.4888 8.02624 17.7817 8.66001 17.2C8.8539 17.0203 9.11109 16.9246 9.37533 16.934C9.63957 16.9433 9.88934 17.057 10.07 17.25C10.1593 17.3475 10.2284 17.4618 10.2732 17.5862C10.3181 17.7105 10.3378 17.8426 10.3313 17.9746C10.3248 18.1067 10.2922 18.2361 10.2353 18.3555C10.1784 18.4749 10.0985 18.5818 10 18.67C9.56788 19.0636 9.22268 19.5431 8.98647 20.0778C8.75026 20.6124 8.62825 21.1905 8.62825 21.775C8.62825 22.3595 8.75026 22.9376 8.98647 23.4723C9.22268 24.0069 9.56788 24.4864 10 24.88C10.1498 25.0162 10.2548 25.1947 10.301 25.3918C10.3472 25.5889 10.3325 25.7955 10.2588 25.9841C10.1851 26.1726 10.0559 26.3344 9.88828 26.448C9.72064 26.5615 9.52248 26.6215 9.32001 26.62H9.34001Z" fill="#E97C24"/>
</svg>
