<svg width="48" height="48" viewBox="0 0 48 48" fill="none" xmlns="http://www.w3.org/2000/svg">
<path d="M46.56 43.08H1.71001C1.44479 43.08 1.19044 42.9747 1.0029 42.7871C0.815364 42.5996 0.710007 42.3453 0.710007 42.08V10.41C0.710007 10.1448 0.815364 9.89046 1.0029 9.70293C1.19044 9.51539 1.44479 9.41003 1.71001 9.41003H46.56C46.8252 9.41003 47.0796 9.51539 47.2671 9.70293C47.4547 9.89046 47.56 10.1448 47.56 10.41V42.08C47.56 42.3453 47.4547 42.5996 47.2671 42.7871C47.0796 42.9747 46.8252 43.08 46.56 43.08ZM2.71001 41.08H45.56V11.41H2.71001V41.08Z" fill="#C55328"/>
<path d="M46.56 16.79H1.71001C1.44479 16.79 1.19044 16.6847 1.0029 16.4971C0.815364 16.3096 0.710007 16.0553 0.710007 15.79C0.710007 15.5248 0.815364 15.2705 1.0029 15.0829C1.19044 14.8954 1.44479 14.79 1.71001 14.79H46.56C46.8252 14.79 47.0796 14.8954 47.2671 15.0829C47.4547 15.2705 47.56 15.5248 47.56 15.79C47.56 16.0553 47.4547 16.3096 47.2671 16.4971C47.0796 16.6847 46.8252 16.79 46.56 16.79Z" fill="#C55328"/>
<path d="M5.74 13.89C6.1984 13.89 6.57 13.5184 6.57 13.06C6.57 12.6016 6.1984 12.23 5.74 12.23C5.28161 12.23 4.91 12.6016 4.91 13.06C4.91 13.5184 5.28161 13.89 5.74 13.89Z" fill="#C55328"/>
<path d="M8.89 13.89C9.34839 13.89 9.72 13.5184 9.72 13.06C9.72 12.6016 9.34839 12.23 8.89 12.23C8.4316 12.23 8.06 12.6016 8.06 13.06C8.06 13.5184 8.4316 13.89 8.89 13.89Z" fill="#C55328"/>
<path d="M24.16 36.08C24.8007 36.08 25.32 35.5607 25.32 34.92C25.32 34.2794 24.8007 33.76 24.16 33.76C23.5193 33.76 23 34.2794 23 34.92C23 35.5607 23.5193 36.08 24.16 36.08Z" fill="#E97C24"/>
<path d="M24.16 33.06C23.8948 33.06 23.6404 32.9547 23.4529 32.7671C23.2654 32.5796 23.16 32.3252 23.16 32.06V27.27C23.16 27.0048 23.2654 26.7504 23.4529 26.5629C23.6404 26.3754 23.8948 26.27 24.16 26.27C24.4252 26.27 24.6796 26.3754 24.8671 26.5629C25.0546 26.7504 25.16 27.0048 25.16 27.27V32.06C25.16 32.3252 25.0546 32.5796 24.8671 32.7671C24.6796 32.9547 24.4252 33.06 24.16 33.06Z" fill="#E97C24"/>
<path d="M33.71 39H14.61C14.4376 38.9995 14.2682 38.9545 14.1184 38.8693C13.9685 38.7841 13.8432 38.6616 13.7547 38.5136C13.6661 38.3657 13.6173 38.1974 13.613 38.0251C13.6087 37.8527 13.649 37.6822 13.73 37.53L23.28 19.87C23.3657 19.7112 23.4927 19.5786 23.6476 19.4862C23.8026 19.3938 23.9796 19.345 24.16 19.345C24.3404 19.345 24.5174 19.3938 24.6724 19.4862C24.8273 19.5786 24.9543 19.7112 25.04 19.87L34.59 37.5C34.6784 37.653 34.7246 37.8268 34.724 38.0035C34.7234 38.1803 34.676 38.3537 34.5866 38.5061C34.4971 38.6586 34.3689 38.7846 34.2149 38.8713C34.0609 38.9581 33.8867 39.0025 33.71 39ZM16.29 37H32L24.16 22.42L16.29 37Z" fill="#E97C24"/>
</svg>
