<svg width="48" height="48" viewBox="0 0 48 48" fill="none" xmlns="http://www.w3.org/2000/svg">
<path d="M33.8 45.17H14.14C13.7198 45.17 13.3037 45.0873 12.9154 44.9265C12.5272 44.7656 12.1744 44.5299 11.8773 44.2328C11.5801 43.9356 11.3444 43.5829 11.1836 43.1946C11.0228 42.8064 10.94 42.3903 10.94 41.9701V6.00005C10.94 5.15136 11.2771 4.33742 11.8773 3.73731C12.4774 3.13719 13.2913 2.80005 14.14 2.80005H33.8C34.6487 2.80005 35.4626 3.13719 36.0627 3.73731C36.6629 4.33742 37 5.15136 37 6.00005V42C36.9921 42.8435 36.6515 43.6498 36.0522 44.2434C35.4529 44.8371 34.6435 45.1701 33.8 45.17ZM14.14 4.83005C13.8269 4.82995 13.5261 4.95225 13.3019 5.17085C13.0777 5.38944 12.9478 5.68702 12.94 6.00005V42C12.94 42.3183 13.0664 42.6235 13.2915 42.8486C13.5165 43.0736 13.8217 43.2001 14.14 43.2001H33.8C34.1183 43.2001 34.4235 43.0736 34.6485 42.8486C34.8736 42.6235 35 42.3183 35 42V6.00005C35 5.68179 34.8736 5.37656 34.6485 5.15152C34.4235 4.92648 34.1183 4.80005 33.8 4.80005L14.14 4.83005Z" fill="#C55328"/>
<path d="M36 11.91H11.94C11.6748 11.91 11.4204 11.8047 11.2329 11.6171C11.0454 11.4296 10.94 11.1753 10.94 10.91C10.94 10.6448 11.0454 10.3905 11.2329 10.2029C11.4204 10.0154 11.6748 9.91003 11.94 9.91003H36C36.2652 9.91003 36.5196 10.0154 36.7071 10.2029C36.8946 10.3905 37 10.6448 37 10.91C37 11.1753 36.8946 11.4296 36.7071 11.6171C36.5196 11.8047 36.2652 11.91 36 11.91Z" fill="#C55328"/>
<path d="M36 38.7H12C11.7348 38.7 11.4804 38.5946 11.2929 38.4071C11.1054 38.2195 11 37.9652 11 37.7C11 37.4347 11.1054 37.1804 11.2929 36.9928C11.4804 36.8053 11.7348 36.7 12 36.7H36C36.2652 36.7 36.5196 36.8053 36.7071 36.9928C36.8946 37.1804 37 37.4347 37 37.7C37 37.9652 36.8946 38.2195 36.7071 38.4071C36.5196 38.5946 36.2652 38.7 36 38.7Z" fill="#C55328"/>
<path d="M30 8.56006H21.52C21.2548 8.56006 21.0004 8.4547 20.8129 8.26717C20.6254 8.07963 20.52 7.82528 20.52 7.56006C20.52 7.29484 20.6254 7.04049 20.8129 6.85295C21.0004 6.66542 21.2548 6.56006 21.52 6.56006H30C30.2652 6.56006 30.5196 6.66542 30.7071 6.85295C30.8946 7.04049 31 7.29484 31 7.56006C31 7.82528 30.8946 8.07963 30.7071 8.26717C30.5196 8.4547 30.2652 8.56006 30 8.56006Z" fill="#C55328"/>
<path d="M27 41.86H21C20.7348 41.86 20.4804 41.7546 20.2929 41.5671C20.1054 41.3796 20 41.1252 20 40.86C20 40.5948 20.1054 40.3404 20.2929 40.1529C20.4804 39.9653 20.7348 39.86 21 39.86H27C27.2652 39.86 27.5196 39.9653 27.7071 40.1529C27.8946 40.3404 28 40.5948 28 40.86C28 41.1252 27.8946 41.3796 27.7071 41.5671C27.5196 41.7546 27.2652 41.86 27 41.86Z" fill="#C55328"/>
<path d="M31.22 18.13L30.32 18.04C28.2661 17.7774 26.2975 17.0563 24.56 15.93C24.4916 15.8867 24.4176 15.8531 24.34 15.83L24.2 15.78H23.82L23.68 15.83C23.5992 15.8529 23.5219 15.8866 23.45 15.93C21.7031 17.045 19.7276 17.7525 17.67 18L16.77 18.09V24.38C16.77 29.5 21.25 32.09 23.67 32.76H23.73C23.8097 32.7697 23.8903 32.7697 23.97 32.76H24.23C26.64 32.11 31.23 29.53 31.23 24.36L31.22 18.13ZM18.77 24.42V19.89C20.6141 19.5515 22.3844 18.8914 24 17.94V30.81C22.91 30.44 18.77 28.78 18.77 24.42Z" fill="#E97C24"/>
<path d="M17.77 8.56006C18.3223 8.56006 18.77 8.11234 18.77 7.56006C18.77 7.00777 18.3223 6.56006 17.77 6.56006C17.2177 6.56006 16.77 7.00777 16.77 7.56006C16.77 8.11234 17.2177 8.56006 17.77 8.56006Z" fill="#C55328"/>
<path d="M42.63 31C42.4912 31.001 42.3537 30.973 42.2263 30.9179C42.0989 30.8628 41.9844 30.7818 41.89 30.68C41.7238 30.4796 41.6422 30.2223 41.6628 29.9627C41.6833 29.7031 41.8043 29.4618 42 29.29C42.8033 28.5493 43.4444 27.6502 43.8829 26.6494C44.3213 25.6485 44.5477 24.5677 44.5477 23.475C44.5477 22.3824 44.3213 21.3016 43.8829 20.3007C43.4444 19.2999 42.8033 18.4008 42 17.66C41.8935 17.5742 41.8058 17.4675 41.7422 17.3464C41.6786 17.2253 41.6406 17.0925 41.6303 16.9562C41.6201 16.8198 41.638 16.6828 41.6828 16.5536C41.7277 16.4244 41.7985 16.3058 41.891 16.2051C41.9835 16.1043 42.0957 16.0237 42.2206 15.968C42.3455 15.9124 42.4805 15.8829 42.6173 15.8815C42.754 15.8801 42.8896 15.9068 43.0156 15.9598C43.1416 16.0129 43.2554 16.0913 43.35 16.19C44.3587 17.1156 45.1641 18.2406 45.715 19.4938C46.266 20.747 46.5505 22.1011 46.5505 23.47C46.5505 24.839 46.266 26.1931 45.715 27.4463C45.1641 28.6995 44.3587 29.8245 43.35 30.75C43.1524 30.9252 42.8936 31.015 42.63 31Z" fill="#E97C24"/>
<path d="M39.23 28.32C39.0929 28.3195 38.9573 28.2909 38.8317 28.2359C38.7062 28.1808 38.5932 28.1005 38.5 28C38.4063 27.907 38.3319 27.7964 38.2811 27.6746C38.2303 27.5527 38.2042 27.422 38.2042 27.29C38.2042 27.158 38.2303 27.0273 38.2811 26.9054C38.3319 26.7835 38.4063 26.6729 38.5 26.58C38.9294 26.1847 39.2722 25.7047 39.5066 25.1703C39.7411 24.6359 39.8621 24.0586 39.8621 23.475C39.8621 22.8914 39.7411 22.3141 39.5066 21.7797C39.2722 21.2452 38.9294 20.7652 38.5 20.37C38.3051 20.1896 38.1898 19.9392 38.1794 19.6739C38.1691 19.4085 38.2647 19.1499 38.445 18.955C38.6253 18.76 38.8757 18.6447 39.1411 18.6344C39.4065 18.6241 39.6651 18.7196 39.86 18.9C40.4911 19.4833 40.9947 20.1909 41.3391 20.9782C41.6835 21.7655 41.8613 22.6156 41.8613 23.475C41.8613 24.3343 41.6835 25.1844 41.3391 25.9718C40.9947 26.7591 40.4911 27.4667 39.86 28.05C39.6884 28.2114 39.4653 28.307 39.23 28.32Z" fill="#E97C24"/>
<path d="M5.34 31C5.4788 31.001 5.61627 30.973 5.74368 30.9179C5.87108 30.8628 5.98561 30.7818 6.08 30.68C6.2499 30.4834 6.33657 30.2283 6.32164 29.9688C6.3067 29.7094 6.19134 29.4659 6 29.29C5.19673 28.5493 4.55563 27.6502 4.11714 26.6494C3.67865 25.6485 3.45226 24.5677 3.45226 23.475C3.45226 22.3824 3.67865 21.3015 4.11714 20.3007C4.55563 19.2999 5.19673 18.4008 6 17.66C6.19444 17.4807 6.30992 17.2317 6.32116 16.9674C6.33241 16.7032 6.2385 16.4452 6.06 16.25C5.97106 16.1523 5.86363 16.0731 5.74391 16.0171C5.62419 15.9611 5.49456 15.9294 5.36251 15.9239C5.23047 15.9183 5.09862 15.9389 4.97461 15.9846C4.85059 16.0303 4.73686 16.1001 4.64 16.19C3.63398 17.1172 2.83103 18.2427 2.28182 19.4957C1.73262 20.7487 1.44907 22.102 1.44907 23.47C1.44907 24.8381 1.73262 26.1913 2.28182 27.4443C2.83103 28.6973 3.63398 29.8229 4.64 30.75C4.83254 30.9202 5.08321 31.0097 5.34 31Z" fill="#E97C24"/>
<path d="M8.74 28.32C8.87712 28.3195 9.01268 28.2909 9.13826 28.2359C9.26384 28.1808 9.37676 28.1005 9.47 28C9.64976 27.8061 9.74542 27.5489 9.73605 27.2847C9.72668 27.0204 9.61305 26.7707 9.42 26.59C8.98762 26.1955 8.64226 25.7151 8.40596 25.1797C8.16965 24.6442 8.04761 24.0653 8.04761 23.48C8.04761 22.8947 8.16965 22.3158 8.40596 21.7803C8.64226 21.2448 8.98762 20.7645 9.42 20.37C9.51652 20.2807 9.59451 20.1732 9.64951 20.0538C9.70451 19.9344 9.73545 19.8053 9.74056 19.6739C9.74566 19.5425 9.72484 19.4114 9.67928 19.288C9.63371 19.1647 9.5643 19.0515 9.475 18.955C9.3857 18.8585 9.27827 18.7805 9.15883 18.7255C9.03939 18.6705 8.91029 18.6395 8.77889 18.6344C8.6475 18.6293 8.51638 18.6501 8.39304 18.6957C8.26969 18.7413 8.15652 18.8107 8.06 18.9C7.42623 19.4817 6.92024 20.1887 6.5741 20.9763C6.22796 21.7638 6.04922 22.6147 6.04922 23.475C6.04922 24.3352 6.22796 25.1861 6.5741 25.9737C6.92024 26.7612 7.42623 27.4683 8.06 28.05C8.24443 28.2226 8.48737 28.3191 8.74 28.32Z" fill="#E97C24"/>
</svg>
