<svg width="48" height="48" viewBox="0 0 48 48" fill="none" xmlns="http://www.w3.org/2000/svg">
<path d="M40.22 10.3H2C1.73478 10.3 1.48043 10.4054 1.29289 10.5929C1.10536 10.7805 1 11.0348 1 11.3V38.3C1 38.5653 1.10536 38.8196 1.29289 39.0072C1.48043 39.1947 1.73478 39.3 2 39.3H40.22C40.4852 39.3 40.7396 39.1947 40.9271 39.0072C41.1146 38.8196 41.22 38.5653 41.22 38.3V35.0801C41.22 34.8148 41.1146 34.5605 40.9271 34.3729C40.7396 34.1854 40.4852 34.0801 40.22 34.0801C39.9548 34.0801 39.7004 34.1854 39.5129 34.3729C39.3254 34.5605 39.22 34.8148 39.22 35.0801V37.32H3V17.93H39.22V19.59C39.22 19.8553 39.3254 20.1096 39.5129 20.2972C39.7004 20.4847 39.9548 20.59 40.22 20.59C40.4852 20.59 40.7396 20.4847 40.9271 20.2972C41.1146 20.1096 41.22 19.8553 41.22 19.59V11.3C41.22 11.0348 41.1146 10.7805 40.9271 10.5929C40.7396 10.4054 40.4852 10.3 40.22 10.3ZM3 15.93V12.3H39.22V15.93H3Z" fill="#C55328"/>
<path d="M5.39 14.8501C5.78212 14.8501 6.1 14.5322 6.1 14.1401C6.1 13.7479 5.78212 13.4301 5.39 13.4301C4.99788 13.4301 4.68 13.7479 4.68 14.1401C4.68 14.5322 4.99788 14.8501 5.39 14.8501Z" fill="#C55328"/>
<path d="M8.07 14.8501C8.46212 14.8501 8.78 14.5322 8.78 14.1401C8.78 13.7479 8.46212 13.4301 8.07 13.4301C7.67788 13.4301 7.36 13.7479 7.36 14.1401C7.36 14.5322 7.67788 14.8501 8.07 14.8501Z" fill="#C55328"/>
<path d="M7.55 34.82C8.04706 34.82 8.45 34.4171 8.45 33.92C8.45 33.423 8.04706 33.02 7.55 33.02C7.05295 33.02 6.65 33.423 6.65 33.92C6.65 34.4171 7.05295 34.82 7.55 34.82Z" fill="#E97C24"/>
<path d="M10.52 34.82C11.0171 34.82 11.42 34.4171 11.42 33.92C11.42 33.423 11.0171 33.02 10.52 33.02C10.0229 33.02 9.62 33.423 9.62 33.92C9.62 34.4171 10.0229 34.82 10.52 34.82Z" fill="#E97C24"/>
<path d="M13.5 34.82C13.9971 34.82 14.4 34.4171 14.4 33.92C14.4 33.423 13.9971 33.02 13.5 33.02C13.0029 33.02 12.6 33.423 12.6 33.92C12.6 34.4171 13.0029 34.82 13.5 34.82Z" fill="#E97C24"/>
<path d="M27.23 21.1801H7.11C6.84478 21.1801 6.59043 21.2854 6.40289 21.4729C6.21536 21.6605 6.11 21.9148 6.11 22.1801C6.11 22.4453 6.21536 22.6996 6.40289 22.8872C6.59043 23.0747 6.84478 23.1801 7.11 23.1801H27.23C27.4952 23.1801 27.7496 23.0747 27.9371 22.8872C28.1246 22.6996 28.23 22.4453 28.23 22.1801C28.23 21.9148 28.1246 21.6605 27.9371 21.4729C27.7496 21.2854 27.4952 21.1801 27.23 21.1801Z" fill="#E97C24"/>
<path d="M27.23 25H7.11C6.84478 25 6.59043 25.1054 6.40289 25.2929C6.21536 25.4804 6.11 25.7348 6.11 26C6.11 26.2652 6.21536 26.5196 6.40289 26.7071C6.59043 26.8946 6.84478 27 7.11 27H27.23C27.4952 27 27.7496 26.8946 27.9371 26.7071C28.1246 26.5196 28.23 26.2652 28.23 26C28.23 25.7348 28.1246 25.4804 27.9371 25.2929C27.7496 25.1054 27.4952 25 27.23 25Z" fill="#E97C24"/>
<path d="M19.37 28.78H7.11C6.84478 28.78 6.59043 28.8854 6.40289 29.0729C6.21536 29.2605 6.11 29.5148 6.11 29.78C6.11 30.0452 6.21536 30.2996 6.40289 30.4871C6.59043 30.6747 6.84478 30.78 7.11 30.78H19.37C19.6352 30.78 19.8896 30.6747 20.0771 30.4871C20.2646 30.2996 20.37 30.0452 20.37 29.78C20.37 29.5148 20.2646 29.2605 20.0771 29.0729C19.8896 28.8854 19.6352 28.78 19.37 28.78Z" fill="#E97C24"/>
<path d="M46.88 20.93L40.57 18.56H40.42C40.2897 18.5199 40.1503 18.5199 40.02 18.56H39.87L33.56 20.93C33.3686 21.0015 33.2037 21.1299 33.0875 21.298C32.9713 21.466 32.9093 21.6657 32.91 21.87V27.39C32.91 32.68 39.49 36.04 39.77 36.18H39.9H39.97C40.053 36.1898 40.137 36.1898 40.22 36.18C40.303 36.1898 40.387 36.1898 40.47 36.18H40.54H40.67C40.95 36.04 47.53 32.68 47.53 27.39V21.87C47.5307 21.6657 47.4687 21.466 47.3525 21.298C47.2363 21.1299 47.0714 21.0015 46.88 20.93ZM45.53 27.39C45.53 30.78 41.53 33.39 40.22 34.14C38.88 33.36 34.91 30.78 34.91 27.39V22.56L40.22 20.56L45.53 22.56V27.39Z" fill="#C55328"/>
<path d="M39.27 29.83C39.1384 29.8308 39.0079 29.8055 38.8861 29.7558C38.7643 29.706 38.6534 29.6327 38.56 29.54L36.56 27.54C36.4663 27.447 36.3919 27.3364 36.3411 27.2146C36.2903 27.0927 36.2642 26.962 36.2642 26.83C36.2642 26.698 36.2903 26.5673 36.3411 26.4454C36.3919 26.3236 36.4663 26.213 36.56 26.12C36.7474 25.9338 37.0008 25.8292 37.265 25.8292C37.5292 25.8292 37.7826 25.9338 37.97 26.12L39.25 27.4L42.91 23.74C43.0974 23.5538 43.3508 23.4492 43.615 23.4492C43.8792 23.4492 44.1326 23.5538 44.32 23.74C44.4137 23.833 44.4881 23.9436 44.5389 24.0654C44.5897 24.1873 44.6158 24.318 44.6158 24.45C44.6158 24.582 44.5897 24.7127 44.5389 24.8346C44.4881 24.9564 44.4137 25.067 44.32 25.16L40 29.54C39.9042 29.6351 39.7901 29.7098 39.6647 29.7597C39.5392 29.8095 39.405 29.8334 39.27 29.83Z" fill="#E97C24"/>
</svg>
