<svg width="48" height="48" viewBox="0 0 48 48" fill="none" xmlns="http://www.w3.org/2000/svg">
<path d="M9.28 36.65C9.24766 36.6196 9.20898 36.5968 9.16676 36.5832C9.12453 36.5695 9.07981 36.5655 9.03581 36.5712C8.99181 36.5769 8.94963 36.5924 8.91231 36.6164C8.875 36.6404 8.84347 36.6723 8.82 36.71L6.28 40.31C6.23691 40.362 6.21333 40.4275 6.21333 40.495C6.21333 40.5626 6.23691 40.628 6.28 40.68L7.58 42C7.63608 42.055 7.71147 42.0858 7.79 42.0858C7.86853 42.0858 7.94392 42.055 8 42L11.61 39.48C11.6477 39.4565 11.6796 39.425 11.7036 39.3877C11.7276 39.3504 11.7431 39.3082 11.7488 39.2642C11.7546 39.2202 11.7505 39.1755 11.7368 39.1332C11.7232 39.091 11.7004 39.0523 11.67 39.02L22.14 28.47L19.8 26.13L9.28 36.65Z" fill="#C55328"/>
<path d="M41.55 7.22L41 6.66C40.2166 5.87959 39.1558 5.44141 38.05 5.44141C36.9442 5.44141 35.8834 5.87959 35.1 6.66L24.44 17.32C24.2994 17.4594 24.1878 17.6254 24.1117 17.8081C24.0355 17.9909 23.9963 18.187 23.9963 18.385C23.9963 18.583 24.0355 18.7791 24.1117 18.9619C24.1878 19.1447 24.2994 19.3106 24.44 19.45L25.44 20.45L27.78 22.79L28.78 23.79C28.92 23.931 29.0868 24.0425 29.2705 24.1181C29.4543 24.1937 29.6513 24.2317 29.85 24.23C30.0472 24.2315 30.2426 24.1933 30.4247 24.1177C30.6068 24.0421 30.7719 23.9307 30.91 23.79L41.55 13.12C42.3304 12.3366 42.7686 11.2758 42.7686 10.17C42.7686 9.06419 42.3304 8.00344 41.55 7.22ZM40.13 11.7L29.83 22L26.2 18.38L36.51 8.08C36.9232 7.68454 37.4731 7.4638 38.045 7.4638C38.6169 7.4638 39.1668 7.68454 39.58 8.08L40.13 8.63C40.333 8.83181 40.494 9.07177 40.6038 9.33607C40.7137 9.60037 40.7702 9.88379 40.77 10.17C40.7699 10.4547 40.7133 10.7366 40.6035 10.9992C40.4936 11.2618 40.3327 11.5001 40.13 11.7Z" fill="#C55328"/>
<path d="M38.88 10.8C39.0438 10.6087 39.1294 10.3626 39.1197 10.1109C39.11 9.85926 39.0057 9.62053 38.8276 9.44243C38.6495 9.26434 38.4107 9.16 38.1591 9.15028C37.9074 9.14056 37.6613 9.22617 37.47 9.38999L29 17.89C28.8137 18.0774 28.7092 18.3308 28.7092 18.595C28.7092 18.8592 28.8137 19.1126 29 19.3C29.1874 19.4862 29.4408 19.5908 29.705 19.5908C29.9692 19.5908 30.2226 19.4862 30.41 19.3L38.88 10.8Z" fill="#C55328"/>
<path d="M41.34 32.05C40.5379 31.2527 39.5562 30.6596 38.4774 30.3203C37.3985 29.981 36.2541 29.9054 35.14 30.1L27.81 22.8L25.47 20.46L17.29 12.32C17.4976 11.1974 17.4296 10.0413 17.0916 8.95084C16.7537 7.86042 16.156 6.86837 15.35 6.05997C13.9 4.60997 10.95 4.28997 9.35 4.22997C9.1089 4.22415 8.87156 4.29051 8.66844 4.42054C8.46533 4.55057 8.3057 4.73833 8.21005 4.95972C8.1144 5.18111 8.08709 5.42604 8.13163 5.66306C8.17616 5.90009 8.29051 6.11839 8.46 6.28997L11.52 9.34997L8.72 12.15L5.63 9.08997C5.45762 8.91848 5.23758 8.80291 4.99855 8.75832C4.75953 8.71373 4.51262 8.74218 4.29 8.83997C4.06632 8.93723 3.87759 9.10035 3.74895 9.30759C3.62032 9.51483 3.5579 9.75635 3.57 9.99997C3.64 11.63 3.96 14.58 5.4 16C6.20308 16.8159 7.19255 17.4243 8.2831 17.7727C9.37366 18.1212 10.5326 18.1992 11.66 18L19.8 26.18L22.14 28.52L29.44 35.85C29.2563 36.9562 29.3372 38.0903 29.6761 39.1592C30.015 40.2282 30.6024 41.2017 31.39 42C32.84 43.44 35.8 43.77 37.39 43.83C37.617 43.8199 37.8365 43.7455 38.0229 43.6155C38.2093 43.4856 38.355 43.3054 38.443 43.0958C38.531 42.8863 38.5577 42.6561 38.52 42.432C38.4823 42.2079 38.3817 41.9991 38.23 41.83L35.16 38.76L37.96 35.96L41.12 39C41.2908 39.1706 41.5091 39.2857 41.7464 39.3303C41.9837 39.3749 42.2289 39.3469 42.45 39.25C42.6712 39.1551 42.8585 38.9953 42.987 38.7918C43.1156 38.5882 43.1794 38.3505 43.17 38.11C43.11 36.45 42.79 33.5 41.34 32.05ZM39.13 34.16C38.9895 34.0176 38.8222 33.9045 38.6376 33.8273C38.4531 33.7501 38.255 33.7104 38.055 33.7104C37.855 33.7104 37.6569 33.7501 37.4724 33.8273C37.2878 33.9045 37.1205 34.0176 36.98 34.16L33.5 37.63C33.2166 37.918 33.0578 38.3059 33.0578 38.71C33.0578 39.114 33.2166 39.5019 33.5 39.79L35.3 41.59C34.3944 41.4897 33.5334 41.1439 32.81 40.59C32.1831 39.969 31.7317 39.1933 31.5016 38.3414C31.2716 37.4896 31.271 36.5921 31.5 35.74L31.65 35.19L23.55 27.07L21.22 24.72L12.27 15.72L11.71 15.87C10.853 16.1078 9.94799 16.1127 9.08842 15.8842C8.22885 15.6557 7.44579 15.202 6.82 14.57C6.26602 13.8466 5.92023 12.9856 5.82 12.08L7.62 13.88C7.90805 14.1633 8.29593 14.3222 8.7 14.3222C9.10407 14.3222 9.49195 14.1633 9.78 13.88L13.25 10.4C13.5327 10.1136 13.6913 9.72739 13.6913 9.32497C13.6913 8.92254 13.5327 8.53632 13.25 8.24997L11.45 6.44997C12.3582 6.55188 13.222 6.8974 13.95 7.44997C14.5803 8.0768 15.0321 8.86033 15.2588 9.71985C15.4856 10.5794 15.4791 11.4838 15.24 12.34L15.09 12.9L24.09 21.84L26.44 24.18L34.56 32.27L35.12 32.13C35.9698 31.9016 36.8648 31.9015 37.7146 32.1298C38.5645 32.3581 39.339 32.8065 39.96 33.43C40.5126 34.1579 40.8581 35.0217 40.96 35.93L39.13 34.16Z" fill="#E97C24"/>
</svg>
