<svg width="48" height="48" viewBox="0 0 48 48" fill="none" xmlns="http://www.w3.org/2000/svg">
<path d="M39.75 39.89L30.8 30.94C32.266 28.7591 32.8627 26.1085 32.4727 23.5098C32.0827 20.911 30.7343 18.5524 28.6927 16.8979C26.651 15.2434 24.0641 14.4129 21.441 14.5698C18.8179 14.7267 16.3484 15.8597 14.5186 17.7458C12.6888 19.6319 11.6312 22.1345 11.5538 24.7612C11.4764 27.3879 12.3849 29.9485 14.1005 31.939C15.8161 33.9296 18.2145 35.206 20.8239 35.5171C23.4332 35.8282 26.0645 35.1514 28.2 33.62L37.11 42.53C37.2793 42.7205 37.4857 42.8743 37.7166 42.9821C37.9475 43.09 38.198 43.1494 38.4528 43.1569C38.7075 43.1644 38.9611 43.1198 39.1979 43.0258C39.4347 42.9317 39.6499 42.7902 39.8301 42.61C40.0103 42.4299 40.1517 42.2147 40.2458 41.9779C40.3398 41.741 40.3845 41.4875 40.377 41.2327C40.3695 40.978 40.31 40.7275 40.2022 40.4966C40.0944 40.2657 39.9405 40.0593 39.75 39.89ZM27.57 31.58C27.3162 31.7966 27.049 31.997 26.77 32.18C25.021 33.3518 22.9012 33.8372 20.8165 33.5431C18.7319 33.249 16.8291 32.1961 15.4725 30.5862C14.116 28.9762 13.4011 26.9224 13.4648 24.8181C13.5286 22.7138 14.3664 20.707 15.8179 19.1821C17.2694 17.6572 19.2324 16.7214 21.331 16.554C23.4296 16.3866 25.5162 16.9993 27.1911 18.2748C28.866 19.5504 30.0114 21.399 30.4079 23.4666C30.8044 25.5341 30.4242 27.6753 29.34 29.48C29.1709 29.7736 28.9804 30.0544 28.77 30.32C28.4119 30.778 28.01 31.2 27.57 31.58Z" fill="#C55328"/>
<path d="M20.7 30C20.7098 29.7211 20.8016 29.4512 20.964 29.2242C21.1263 28.9971 21.3519 28.8229 21.6127 28.7234C21.8734 28.6239 22.1577 28.6034 22.4301 28.6645C22.7024 28.7256 22.9507 28.8656 23.1439 29.0671C23.3371 29.2685 23.4667 29.5224 23.5164 29.797C23.5661 30.0717 23.5338 30.3549 23.4235 30.6113C23.3132 30.8676 23.1298 31.0858 22.8961 31.2386C22.6625 31.3913 22.3891 31.4718 22.11 31.47C21.9197 31.4702 21.7313 31.4318 21.5562 31.3572C21.3811 31.2827 21.2229 31.1734 21.0911 31.036C20.9594 30.8987 20.8568 30.7361 20.7896 30.558C20.7224 30.38 20.6919 30.1902 20.7 30ZM20.48 22L20.43 20.73C20.4247 20.5056 20.4641 20.2823 20.5461 20.0733C20.628 19.8643 20.7507 19.6737 20.9071 19.5126C21.0635 19.3516 21.2504 19.2233 21.457 19.1353C21.6635 19.0472 21.8855 19.0013 22.11 19C22.3366 18.9998 22.561 19.0455 22.7695 19.1342C22.978 19.223 23.1664 19.3531 23.3234 19.5165C23.4803 19.68 23.6026 19.8736 23.6828 20.0856C23.763 20.2976 23.7994 20.5236 23.79 20.75L23.74 22L23.34 26.61C23.3151 26.8956 23.1843 27.1616 22.9734 27.3559C22.7626 27.5501 22.4867 27.6586 22.2 27.66H22C21.7116 27.6611 21.4332 27.5538 21.2202 27.3593C21.0072 27.1648 20.8751 26.8973 20.85 26.61L20.48 22Z" fill="#E97C24"/>
<path d="M22.07 6.31006H22.13C22.4695 6.31006 22.795 6.44492 23.0351 6.68496C23.2751 6.92501 23.41 7.25058 23.41 7.59006V11.3001C23.41 11.6395 23.2751 11.9651 23.0351 12.2052C22.795 12.4452 22.4695 12.5801 22.13 12.5801H22.07C21.9024 12.5801 21.7364 12.5469 21.5817 12.4824C21.4269 12.418 21.2865 12.3235 21.1684 12.2046C21.0504 12.0856 20.957 11.9444 20.8938 11.7891C20.8306 11.6339 20.7987 11.4677 20.8 11.3001V7.59006C20.7987 7.42244 20.8306 7.25622 20.8938 7.10098C20.957 6.94574 21.0504 6.80455 21.1684 6.68556C21.2865 6.56657 21.4269 6.47213 21.5817 6.40768C21.7364 6.34323 21.9024 6.31005 22.07 6.31006Z" fill="#E97C24"/>
<path d="M27.63 11.88L29 8.42997C29.0626 8.27468 29.1553 8.13331 29.2728 8.01398C29.3902 7.89466 29.5301 7.79973 29.6844 7.73468C29.8387 7.66962 30.0043 7.63571 30.1717 7.6349C30.3392 7.63409 30.5051 7.6664 30.66 7.72997C30.8158 7.79057 30.958 7.88158 31.0783 7.99768C31.1986 8.11378 31.2946 8.25267 31.3606 8.40623C31.4267 8.5598 31.4616 8.72499 31.4632 8.89216C31.4648 9.05933 31.4331 9.22516 31.37 9.37997L29.99 12.83C29.9294 12.9858 29.8384 13.128 29.7223 13.2483C29.6062 13.3685 29.4673 13.4645 29.3137 13.5306C29.1602 13.5967 28.995 13.6316 28.8278 13.6332C28.6606 13.6348 28.4948 13.6031 28.34 13.54H28.28C27.9754 13.4041 27.7364 13.1538 27.6148 12.8432C27.4932 12.5326 27.4986 12.1866 27.63 11.88Z" fill="#E97C24"/>
<path d="M33.48 15.16L36 12.41C36.2276 12.1607 36.5444 12.0114 36.8815 11.9945C37.2186 11.9777 37.5487 12.0946 37.8 12.32C38.0493 12.5476 38.1986 12.8644 38.2155 13.2015C38.2323 13.5386 38.1154 13.8687 37.89 14.12L35.38 16.86C35.1525 17.1093 34.8356 17.2586 34.4985 17.2755C34.1614 17.2923 33.8313 17.1754 33.58 16.95V16.9C33.3467 16.6762 33.2067 16.3724 33.1881 16.0497C33.1696 15.7269 33.2738 15.409 33.48 15.16Z" fill="#E97C24"/>
<path d="M13.48 7.72995H13.54C13.8546 7.6076 14.2046 7.61341 14.5149 7.74615C14.8252 7.87888 15.0712 8.12796 15.2 8.43995L16.58 11.89C16.6417 12.0449 16.6724 12.2105 16.6701 12.3773C16.6678 12.5441 16.6327 12.7088 16.5668 12.862C16.5009 13.0152 16.4054 13.154 16.2858 13.2703C16.1663 13.3866 16.025 13.4782 15.87 13.5399H15.81C15.655 13.6017 15.4894 13.6323 15.3227 13.63C15.1559 13.6278 14.9912 13.5927 14.8379 13.5267C14.6847 13.4608 14.546 13.3653 14.4297 13.2458C14.3133 13.1262 14.2217 12.9849 14.16 12.8299L12.78 9.38995C12.7164 9.23505 12.6841 9.06911 12.6849 8.90168C12.6857 8.73424 12.7197 8.56862 12.7847 8.41435C12.8498 8.26007 12.9447 8.12017 13.064 8.00272C13.1833 7.88526 13.3247 7.79256 13.48 7.72995Z" fill="#E97C24"/>
<path d="M6.38 12.3701C6.63129 12.1447 6.96141 12.0277 7.29853 12.0446C7.63564 12.0614 7.95245 12.2108 8.18 12.4601L10.69 15.2001C10.9154 15.4513 11.0323 15.7815 11.0155 16.1186C10.9986 16.4557 10.8493 16.7725 10.6 17.0001C10.4768 17.1135 10.3324 17.2014 10.1751 17.2588C10.0178 17.3162 9.85066 17.342 9.68336 17.3345C9.51606 17.3271 9.35189 17.2866 9.20029 17.2155C9.04868 17.1444 8.91265 17.044 8.8 16.9201L6.3 14.1601C6.07645 13.9106 5.95962 13.5834 5.97457 13.2487C5.98953 12.9141 6.13509 12.5986 6.38 12.3701Z" fill="#E97C24"/>
</svg>
