<svg width="48" height="48" viewBox="0 0 48 48" fill="none" xmlns="http://www.w3.org/2000/svg">
<path d="M25.28 3.45996H22.05C20.2553 3.47844 18.5411 4.20778 17.2833 5.48809C16.0255 6.7684 15.3267 8.49521 15.34 10.29V19.62C15.3355 19.6565 15.3355 19.6934 15.34 19.73C15.3296 19.7929 15.3296 19.8571 15.34 19.92L15.43 20.08C15.4283 20.1166 15.4283 20.1533 15.43 20.19C16.414 21.3137 17.5804 22.2637 18.88 23C19.0186 23.0844 19.1777 23.1294 19.34 23.13C19.4994 23.1298 19.656 23.0883 19.7945 23.0094C19.933 22.9305 20.0486 22.817 20.13 22.68C20.1907 22.5771 20.2304 22.4632 20.2467 22.3449C20.2629 22.2266 20.2555 22.1062 20.2248 21.9908C20.1941 21.8754 20.1407 21.7673 20.0678 21.6727C19.9948 21.5781 19.9038 21.499 19.8 21.44C18.8192 20.8528 17.9298 20.1251 17.16 19.28V10.28C17.1597 8.97272 17.6713 7.71734 18.5854 6.78276C19.4994 5.84817 20.7431 5.30872 22.05 5.27996H25.28C26.5869 5.30872 27.8306 5.84817 28.7446 6.78276C29.6587 7.71734 30.1703 8.97272 30.17 10.28V19.17C29.4136 20.0061 28.5532 20.7421 27.61 21.36C27.4596 21.4713 27.3472 21.6262 27.288 21.8037C27.2289 21.9812 27.2259 22.1727 27.2795 22.3519C27.333 22.5312 27.4405 22.6896 27.5874 22.8056C27.7342 22.9215 27.9132 22.9894 28.1 23C28.2703 23.0019 28.4374 22.9531 28.58 22.86C29.7686 22.0956 30.8398 21.1625 31.76 20.09C31.9096 19.9261 31.9917 19.7118 31.99 19.49V10.29C32.0033 8.49521 31.3045 6.7684 30.0467 5.48809C28.7889 4.20778 27.0747 3.47844 25.28 3.45996Z" fill="#E97C24"/>
<path d="M34.82 30.78C34.701 30.7814 34.5829 30.7591 34.4725 30.7144C34.3622 30.6698 34.2618 30.6037 34.1771 30.52C34.0925 30.4363 34.0253 30.3366 33.9794 30.2268C33.9336 30.1169 33.91 29.9991 33.91 29.88V25.79C33.9081 25.4838 33.8021 25.1874 33.6095 24.9493C33.4169 24.7113 33.1491 24.5458 32.85 24.48L31.05 24.09H30.95L25.8 22.31C25.5706 22.2331 25.3811 22.0682 25.2733 21.8516C25.1655 21.635 25.1481 21.3844 25.225 21.155C25.3019 20.9256 25.4668 20.7362 25.6834 20.6283C25.9 20.5205 26.1506 20.5031 26.38 20.58L31.49 22.32L33.24 22.7C33.943 22.8581 34.5718 23.2496 35.024 23.8107C35.4761 24.3718 35.725 25.0695 35.73 25.79V29.88C35.73 29.9991 35.7064 30.1169 35.6605 30.2268C35.6147 30.3366 35.5475 30.4363 35.4629 30.52C35.3782 30.6037 35.2778 30.6698 35.1675 30.7144C35.0571 30.7591 34.939 30.7814 34.82 30.78Z" fill="#C55328"/>
<path d="M13.15 30.69C12.9087 30.69 12.6772 30.5942 12.5065 30.4235C12.3359 30.2528 12.24 30.0214 12.24 29.78V25.7C12.2406 24.9639 12.4975 24.2509 12.9664 23.6834C13.4353 23.1159 14.0872 22.7294 14.81 22.59L16.24 22.32L21 20.69C21.1143 20.6453 21.2365 20.6242 21.3592 20.628C21.4818 20.6317 21.6025 20.6603 21.7139 20.7119C21.8252 20.7635 21.925 20.8371 22.0072 20.9282C22.0894 21.0194 22.1523 21.1262 22.1921 21.2423C22.2319 21.3584 22.2479 21.4813 22.2389 21.6038C22.23 21.7262 22.1964 21.8455 22.1401 21.9546C22.0839 22.0637 22.0062 22.1603 21.9116 22.2385C21.8171 22.3168 21.7077 22.3751 21.59 22.41L16.76 24.06H16.63L15.14 24.35C14.8329 24.4083 14.5558 24.5722 14.3567 24.8133C14.1577 25.0543 14.0492 25.3574 14.05 25.67V29.75C14.054 29.8712 14.0338 29.9919 13.9905 30.1052C13.9471 30.2184 13.8816 30.3218 13.7978 30.4094C13.714 30.497 13.6135 30.5669 13.5022 30.6151C13.391 30.6633 13.2712 30.6888 13.15 30.69Z" fill="#C55328"/>
<path d="M23.67 27C23.5168 26.9996 23.3662 26.961 23.2317 26.8876C23.0973 26.8143 22.9832 26.7085 22.9 26.58C22.3 25.64 20.33 22.46 20.33 21.01V19.13C20.33 18.8886 20.4259 18.6572 20.5965 18.4865C20.7672 18.3158 20.9987 18.22 21.24 18.22C21.4813 18.22 21.7128 18.3158 21.8835 18.4865C22.0541 18.6572 22.15 18.8886 22.15 19.13V21C22.4834 22.1812 22.996 23.3042 23.67 24.33C24.3422 23.3045 24.8515 22.1812 25.18 21V19.13C25.18 18.8886 25.2759 18.6572 25.4465 18.4865C25.6172 18.3158 25.8487 18.22 26.09 18.22C26.3313 18.22 26.5628 18.3158 26.7335 18.4865C26.9041 18.6572 27 18.8886 27 19.13V21C27 22.45 25 25.63 24.43 26.57C24.3509 26.7009 24.2395 26.8093 24.1064 26.8846C23.9732 26.9599 23.823 26.9996 23.67 27Z" fill="#C55328"/>
<path d="M23.94 20.38H23.39C21.8323 20.38 20.3382 19.7619 19.2357 18.6614C18.1333 17.5608 17.5126 16.0678 17.51 14.51V11.7C17.51 11.4587 17.6059 11.2272 17.7765 11.0566C17.9472 10.8859 18.1786 10.79 18.42 10.79C18.6613 10.79 18.8928 10.8859 19.0635 11.0566C19.2341 11.2272 19.33 11.4587 19.33 11.7V14.51C19.3432 15.5772 19.777 16.596 20.5373 17.3451C21.2976 18.0941 22.3227 18.5128 23.39 18.51H23.94C25.0072 18.5128 26.0324 18.0941 26.7927 17.3451C27.5529 16.596 27.9868 15.5772 28 14.51V11.7C28 11.4587 28.0959 11.2272 28.2665 11.0566C28.4372 10.8859 28.6686 10.79 28.91 10.79C29.1513 10.79 29.3828 10.8859 29.5535 11.0566C29.7241 11.2272 29.82 11.4587 29.82 11.7V14.51C29.8173 16.0678 29.1967 17.5608 28.0942 18.6614C26.9918 19.7619 25.4977 20.38 23.94 20.38Z" fill="#C55328"/>
<path d="M18.42 12.3199C18.2121 12.3181 18.011 12.246 17.8494 12.1152C17.6878 11.9845 17.5752 11.8029 17.53 11.5999C17.505 11.4831 17.5033 11.3624 17.525 11.2449C17.5467 11.1274 17.5913 11.0152 17.6563 10.915C17.7213 10.8147 17.8054 10.7282 17.9039 10.6604C18.0023 10.5926 18.1131 10.5449 18.23 10.5199C19.3298 10.0672 20.36 9.46124 21.29 8.71994C21.4484 8.59586 21.6438 8.52844 21.845 8.52844C22.0462 8.52844 22.2416 8.59586 22.4 8.71994C22.81 9.03994 24.25 9.86994 28.85 10.4599C29.73 10.5699 29.85 11.1199 29.85 11.4599C29.84 11.6892 29.7438 11.9062 29.5806 12.0675C29.4175 12.2289 29.1993 12.3226 28.97 12.3299H28.76H28.64C26.3063 12.1515 24.0218 11.566 21.89 10.5999C20.9104 11.3582 19.8123 11.9495 18.64 12.3499L18.42 12.3199Z" fill="#C55328"/>
<path d="M17.24 30.64C16.9987 30.64 16.7672 30.5442 16.5965 30.3735C16.4259 30.2029 16.33 29.9714 16.33 29.73V27.21C16.33 26.9687 16.4259 26.7372 16.5965 26.5666C16.7672 26.3959 16.9987 26.3 17.24 26.3C17.4813 26.3 17.7128 26.3959 17.8835 26.5666C18.0541 26.7372 18.15 26.9687 18.15 27.21V29.73C18.15 29.9714 18.0541 30.2029 17.8835 30.3735C17.7128 30.5442 17.4813 30.64 17.24 30.64Z" fill="#C55328"/>
<path d="M30.91 30.64C30.6687 30.64 30.4372 30.5442 30.2665 30.3735C30.0959 30.2029 30 29.9714 30 29.73V27.21C30 26.9687 30.0959 26.7372 30.2665 26.5666C30.4372 26.3959 30.6687 26.3 30.91 26.3C31.1513 26.3 31.3828 26.3959 31.5535 26.5666C31.7241 26.7372 31.82 26.9687 31.82 27.21V29.73C31.82 29.9714 31.7241 30.2029 31.5535 30.3735C31.3828 30.5442 31.1513 30.64 30.91 30.64Z" fill="#C55328"/>
<path d="M34.35 44.54H13.65C13.4277 44.5414 13.2127 44.4604 13.0465 44.3127C12.8803 44.165 12.7747 43.961 12.75 43.74L11.18 30C11.1646 29.8728 11.1763 29.7439 11.2142 29.6215C11.2521 29.4992 11.3154 29.3862 11.4 29.29C11.4866 29.1959 11.5917 29.1207 11.7087 29.0691C11.8257 29.0175 11.9521 28.9906 12.08 28.99H35.92C36.0479 28.9906 36.1743 29.0175 36.2913 29.0691C36.4083 29.1207 36.5134 29.1959 36.6 29.29C36.6846 29.3862 36.7479 29.4992 36.7858 29.6215C36.8237 29.7439 36.8354 29.8728 36.82 30L35.25 43.74C35.2253 43.961 35.1197 44.165 34.9535 44.3127C34.7873 44.4604 34.5723 44.5414 34.35 44.54ZM14.46 42.73H33.54L34.9 30.78H13.1L14.46 42.73Z" fill="#C55328"/>
<path d="M24 38.37C24.8892 38.37 25.61 37.6492 25.61 36.76C25.61 35.8708 24.8892 35.15 24 35.15C23.1108 35.15 22.39 35.8708 22.39 36.76C22.39 37.6492 23.1108 38.37 24 38.37Z" fill="#E97C24"/>
</svg>
