<svg width="48" height="48" viewBox="0 0 48 48" fill="none" xmlns="http://www.w3.org/2000/svg">
<path d="M36.61 42.55H35.75V43.23C35.7474 43.4086 35.6746 43.579 35.5473 43.7044C35.4201 43.8297 35.2486 43.9 35.07 43.9H37.28C37.3688 43.9013 37.457 43.885 37.5395 43.8519C37.6219 43.8188 37.697 43.7697 37.7602 43.7073C37.8235 43.645 37.8738 43.5707 37.9081 43.4887C37.9424 43.4068 37.96 43.3188 37.96 43.23V37.6H36.61V42.55Z" fill="#C55328"/>
<path d="M34.26 43.23V42.55H25.79V43.9001H34.93C34.7523 43.9001 34.5819 43.8295 34.4562 43.7038C34.3306 43.5782 34.26 43.4077 34.26 43.23Z" fill="#C55328"/>
<path d="M24.63 34.56L23.32 34.27L22.51 34L21.18 33.54L19.98 33.14V32.14C20.6177 31.7524 21.1455 31.2079 21.5131 30.5585C21.8807 29.909 22.0759 29.1763 22.08 28.43V27C22.2174 26.9578 22.3378 26.8731 22.4241 26.7581C22.5103 26.6431 22.5579 26.5037 22.56 26.36V23.69C22.5442 22.7104 22.1405 21.7771 21.4375 21.0947C20.7346 20.4124 19.7896 20.0367 18.81 20.05H16.18C15.2004 20.0367 14.2554 20.4124 13.5525 21.0947C12.8495 21.7771 12.4458 22.7104 12.43 23.69V27.08C12.4294 27.2233 12.4762 27.3627 12.563 27.4766C12.6498 27.5905 12.7718 27.6726 12.91 27.71V28.46C12.9102 29.2059 13.1026 29.9391 13.4687 30.589C13.8348 31.2388 14.3622 31.7833 15 32.17V33.23L12 34.23L10.93 34.44C10.382 34.5395 9.88714 34.8304 9.53365 35.2608C9.18017 35.6912 8.99104 36.2331 9 36.79V39.79C9.00295 39.9482 9.06181 40.1003 9.16614 40.2193C9.27046 40.3382 9.41353 40.4164 9.57 40.44V46.2C9.56865 46.2897 9.58532 46.3787 9.61901 46.4618C9.65271 46.545 9.70275 46.6205 9.76616 46.6839C9.82958 46.7473 9.90508 46.7973 9.98819 46.831C10.0713 46.8647 10.1603 46.8814 10.25 46.88H25.11C25.2903 46.88 25.4633 46.8084 25.5908 46.6809C25.7184 46.5533 25.79 46.3804 25.79 46.2V40.58C25.8788 40.58 25.9668 40.5624 26.0487 40.5281C26.1307 40.4938 26.205 40.4435 26.2673 40.3803C26.3297 40.317 26.3788 40.2419 26.4119 40.1595C26.445 40.0771 26.4613 39.9889 26.46 39.9V36.9C26.4692 36.3594 26.2925 35.8319 25.9594 35.406C25.6262 34.98 25.1569 34.6814 24.63 34.56ZM13.79 25.35V23.69C13.8057 23.0711 14.0661 22.4837 14.514 22.0563C14.962 21.629 15.561 21.3966 16.18 21.41H18.81C19.429 21.3966 20.028 21.629 20.476 22.0563C20.9239 22.4837 21.1843 23.0711 21.2 23.69V25.43C17.9 24.99 16.85 24.43 16.55 24.15C16.4311 24.0584 16.2851 24.0087 16.135 24.0087C15.9849 24.0087 15.8389 24.0584 15.72 24.15C15.1157 24.6096 14.4695 25.0114 13.79 25.35ZM14.26 28.46V26.62C14.9239 26.3111 15.5568 25.9394 16.15 25.51C17.5981 26.1688 19.1461 26.5811 20.73 26.73V28.46C20.73 29.2557 20.4139 30.0187 19.8513 30.5813C19.2887 31.144 18.5256 31.46 17.73 31.46H17.32C16.921 31.468 16.5244 31.3963 16.1535 31.2491C15.7826 31.1019 15.4447 30.8822 15.1598 30.6028C14.8748 30.3235 14.6485 29.9901 14.494 29.6221C14.3395 29.2542 14.2599 28.8591 14.26 28.46ZM17.26 32.83H17.67C17.9792 32.8275 18.2874 32.794 18.59 32.73V33.3C18.349 34.1852 17.9675 35.0259 17.46 35.79C16.9567 35.0235 16.5755 34.1835 16.33 33.3V32.73C16.6458 32.796 16.9674 32.8295 17.29 32.83H17.26ZM11.9 45.53H10.9V40.48H11.9V45.53ZM24.43 43.73V45.53H23.57V40.53H24.43V43.73ZM25.13 39.12H22.76C22.6703 39.1187 22.5813 39.1353 22.4982 39.169C22.4151 39.2027 22.3396 39.2528 22.2762 39.3162C22.2127 39.3796 22.1627 39.4551 22.129 39.5382C22.0953 39.6213 22.0787 39.7104 22.08 39.8V45.53H13.38V39.8C13.3813 39.7104 13.3647 39.6213 13.331 39.5382C13.2973 39.4551 13.2473 39.3796 13.1838 39.3162C13.1204 39.2528 13.0449 39.2027 12.9618 39.169C12.8787 39.1353 12.7897 39.1187 12.7 39.12H10.33V36.79C10.3261 36.5532 10.4064 36.3228 10.5566 36.1396C10.7068 35.9565 10.917 35.8326 11.15 35.79L12.26 35.57H12.35L15.35 34.57C15.7957 35.58 16.3207 36.553 16.92 37.48C16.9823 37.5745 17.0669 37.6521 17.1663 37.7062C17.2657 37.7603 17.3769 37.7891 17.49 37.79C17.6033 37.7899 17.7148 37.7615 17.8144 37.7074C17.9139 37.6533 17.9983 37.5751 18.06 37.48C18.6866 36.5293 19.2287 35.5254 19.68 34.48L21.15 34.98L22.51 35.44L22.92 35.58H23L24.34 35.87C24.5139 35.9139 24.6727 36.0037 24.8 36.13C24.8951 36.2206 24.9714 36.3291 25.0246 36.4492C25.0778 36.5693 25.1068 36.6987 25.11 36.83L25.13 39.12Z" fill="#C55328"/>
<path d="M27.86 28.24C27.9497 28.2387 28.0387 28.2554 28.1218 28.2891C28.2049 28.3228 28.2804 28.3728 28.3438 28.4362C28.4073 28.4996 28.4573 28.5751 28.491 28.6582C28.5247 28.7413 28.5413 28.8304 28.54 28.92V29.75C28.8459 29.814 29.1575 29.8475 29.47 29.85H29.88C30.1892 29.847 30.4974 29.8135 30.8 29.75V28.92C30.7883 28.8245 30.7971 28.7276 30.8257 28.6357C30.8543 28.5438 30.9021 28.459 30.9659 28.3869C31.0297 28.3149 31.1081 28.2572 31.1958 28.2177C31.2836 28.1782 31.3788 28.1577 31.475 28.1577C31.5712 28.1577 31.6664 28.1782 31.7542 28.2177C31.8419 28.2572 31.9203 28.3149 31.9841 28.3869C32.0479 28.459 32.0957 28.5438 32.1243 28.6357C32.1529 28.7276 32.1617 28.8245 32.15 28.92V29.19C32.7915 28.8058 33.3229 28.2624 33.6926 27.6123C34.0623 26.9623 34.2577 26.2278 34.26 25.48V24C34.3963 23.9574 34.5155 23.8723 34.6 23.7572C34.6846 23.642 34.7301 23.5029 34.73 23.36V20.71C34.7142 19.734 34.3133 18.8037 33.6146 18.1219C32.916 17.4401 31.9762 17.062 31 17.07H28.35C27.3721 17.0593 26.4297 17.4362 25.7289 18.1183C25.0281 18.8004 24.6258 19.7322 24.61 20.71V24.1C24.6114 24.2425 24.6576 24.3809 24.7419 24.4958C24.8262 24.6106 24.9445 24.6961 25.08 24.74V25.48C25.0833 26.2276 25.2791 26.9618 25.6487 27.6116C26.0183 28.2615 26.5491 28.8051 27.19 29.19V28.92C27.1887 28.8312 27.205 28.743 27.2381 28.6606C27.2712 28.5781 27.3203 28.5031 27.3827 28.4398C27.445 28.3765 27.5193 28.3263 27.6013 28.292C27.6832 28.2577 27.7712 28.24 27.86 28.24ZM26 22.37V20.71C26.0157 20.0911 26.2761 19.5037 26.724 19.0764C27.172 18.649 27.771 18.4166 28.39 18.43H31C31.619 18.4166 32.218 18.649 32.666 19.0764C33.1139 19.5037 33.3743 20.0911 33.39 20.71V22.45C30.09 22.01 29.04 21.45 28.74 21.18C28.6211 21.0884 28.4751 21.0387 28.325 21.0387C28.1749 21.0387 28.0289 21.0884 27.91 21.18C27.3114 21.6347 26.672 22.0331 26 22.37ZM26.48 23.64C27.1419 23.3333 27.7717 22.9615 28.36 22.53C29.8081 23.1888 31.3561 23.6012 32.94 23.75V25.48C32.94 26.2757 32.6239 27.0388 32.0613 27.6014C31.4987 28.164 30.7357 28.48 29.94 28.48H29.53C28.7344 28.48 27.9713 28.164 27.4087 27.6014C26.8461 27.0388 26.53 26.2757 26.53 25.48L26.48 23.64Z" fill="#C55328"/>
<path d="M36.8 31.58L35.5 31.3L32.15 30.16V28.92C32.1616 28.8245 32.1529 28.7276 32.1243 28.6357C32.0957 28.5438 32.0479 28.459 31.9841 28.3869C31.9203 28.3149 31.8419 28.2572 31.7542 28.2177C31.6664 28.1781 31.5712 28.1577 31.475 28.1577C31.3787 28.1577 31.2836 28.1781 31.1958 28.2177C31.1081 28.2572 31.0297 28.3149 30.9659 28.3869C30.9021 28.459 30.8543 28.5438 30.8257 28.6357C30.7971 28.7276 30.7883 28.8245 30.8 28.92V30.33C30.5514 31.2093 30.1704 32.0455 29.67 32.81C29.1696 32.0455 28.7886 31.2093 28.54 30.33V28.92C28.5516 28.8245 28.5429 28.7276 28.5143 28.6357C28.4857 28.5438 28.4379 28.459 28.3741 28.3869C28.3103 28.3149 28.2319 28.2572 28.1442 28.2177C28.0564 28.1781 27.9612 28.1577 27.865 28.1577C27.7687 28.1577 27.6736 28.1781 27.5858 28.2177C27.4981 28.2572 27.4197 28.3149 27.3559 28.3869C27.2921 28.459 27.2443 28.5438 27.2157 28.6357C27.1871 28.7276 27.1783 28.8245 27.19 28.92V30.26L24.14 31.26L23.07 31.47C22.5847 31.5624 22.1409 31.8054 21.8016 32.1645C21.4624 32.5235 21.2448 32.9803 21.18 33.47L22.51 33.93V33.74C22.5057 33.5047 22.5846 33.2753 22.7328 33.0924C22.8809 32.9095 23.0889 32.7847 23.32 32.74L24.44 32.52H24.53L27.53 31.52C27.9802 32.5296 28.5084 33.5026 29.11 34.43C29.1717 34.5249 29.2562 34.6029 29.3558 34.6569C29.4553 34.7109 29.5668 34.7392 29.68 34.7392C29.7932 34.7392 29.9047 34.7109 30.0042 34.6569C30.1038 34.6029 30.1882 34.5249 30.25 34.43C30.8688 33.4764 31.4074 32.4729 31.86 31.43L35.11 32.53H35.18L36.52 32.82C36.7474 32.8688 36.9507 32.9954 37.0949 33.1779C37.2391 33.3604 37.3152 33.5875 37.31 33.82V36.18H35.07C34.9803 36.1787 34.8913 36.1953 34.8082 36.229C34.7251 36.2627 34.6496 36.3128 34.5862 36.3762C34.5227 36.4396 34.4727 36.5151 34.439 36.5982C34.4053 36.6813 34.3886 36.7704 34.39 36.86V42.48H34.26V43.16C34.26 43.3377 34.3306 43.5081 34.4562 43.6338C34.5819 43.7594 34.7523 43.83 34.93 43.83H35.07C35.2486 43.83 35.4201 43.7598 35.5473 43.6344C35.6746 43.509 35.7474 43.3386 35.75 43.16V42.48H35.61V37.48H36.61V37.58H38C38.0888 37.5814 38.177 37.565 38.2595 37.5319C38.3419 37.4988 38.417 37.4497 38.4802 37.3874C38.5435 37.325 38.5938 37.2507 38.6281 37.1688C38.6623 37.0868 38.68 36.9989 38.68 36.91V33.91C38.6826 33.3646 38.497 32.835 38.1545 32.4106C37.812 31.9861 37.3336 31.6928 36.8 31.58Z" fill="#C55328"/>
<path d="M17.45 18.94C17.2887 18.9423 17.1322 18.8853 17.01 18.78L13.01 15.36H3.15001C2.97232 15.36 2.8019 15.2894 2.67625 15.1638C2.5506 15.0381 2.48001 14.8677 2.48001 14.69V4.82002C2.48001 4.64233 2.5506 4.47191 2.67625 4.34626C2.8019 4.22061 2.97232 4.15002 3.15001 4.15002H17.45C17.6277 4.15002 17.7981 4.22061 17.9238 4.34626C18.0494 4.47191 18.12 4.64233 18.12 4.82002V18.27C18.1203 18.3984 18.0836 18.5241 18.0145 18.6322C17.9454 18.7404 17.8466 18.8264 17.73 18.88C17.6417 18.9188 17.5465 18.9392 17.45 18.94ZM3.82001 14H13.22C13.3777 14.0011 13.53 14.0577 13.65 14.16L16.78 16.8V5.49002H3.78001L3.82001 14Z" fill="#C55328"/>
<path d="M14.75 8.90995H5.85001C5.66171 8.90995 5.48112 8.83515 5.34797 8.70199C5.21482 8.56884 5.14001 8.38825 5.14001 8.19995C5.14001 8.10718 5.15844 8.01533 5.19424 7.92974C5.23004 7.84415 5.2825 7.76654 5.34856 7.70141C5.41463 7.63627 5.49298 7.58492 5.57906 7.55034C5.66515 7.51575 5.75725 7.49862 5.85001 7.49995H14.75C14.9357 7.49995 15.1137 7.5737 15.245 7.70497C15.3763 7.83625 15.45 8.0143 15.45 8.19995C15.4513 8.29271 15.4342 8.38481 15.3996 8.4709C15.365 8.55699 15.3137 8.63534 15.2486 8.7014C15.1834 8.76747 15.1058 8.81992 15.0202 8.85573C14.9346 8.89153 14.8428 8.90996 14.75 8.90995Z" fill="#E97C24"/>
<path d="M14.75 11.55H8.41001C8.22171 11.55 8.04112 11.4752 7.90797 11.3421C7.77482 11.2089 7.70001 11.0283 7.70001 10.84C7.70001 10.6517 7.77482 10.4711 7.90797 10.338C8.04112 10.2048 8.22171 10.13 8.41001 10.13H14.75C14.9383 10.13 15.1189 10.2048 15.2521 10.338C15.3852 10.4711 15.46 10.6517 15.46 10.84C15.46 11.0283 15.3852 11.2089 15.2521 11.3421C15.1189 11.4752 14.9383 11.55 14.75 11.55Z" fill="#E97C24"/>
<path d="M29 16C29.1577 15.999 29.31 15.9423 29.43 15.84L33.43 12.42H43.25C43.3397 12.4214 43.4287 12.4047 43.5118 12.371C43.5949 12.3373 43.6704 12.2873 43.7338 12.2239C43.7973 12.1604 43.8473 12.0849 43.881 12.0018C43.9147 11.9187 43.9313 11.8297 43.93 11.74V1.87003C43.93 1.78119 43.9124 1.69324 43.8781 1.6113C43.8438 1.52935 43.7935 1.45504 43.7302 1.39269C43.667 1.33035 43.5919 1.2812 43.5095 1.24813C43.427 1.21505 43.3388 1.1987 43.25 1.20003H29C28.8223 1.20003 28.6519 1.27061 28.5262 1.39626C28.4006 1.52191 28.33 1.69233 28.33 1.87003V15.32C28.3292 15.4472 28.3657 15.5719 28.435 15.6785C28.5043 15.7852 28.6034 15.8691 28.72 15.92C28.8045 15.9714 28.9012 15.999 29 16ZM42.62 11.07H33.26C33.0993 11.0713 32.944 11.1278 32.82 11.23L29.7 13.87V2.54003H42.7L42.62 11.07Z" fill="#C55328"/>
<path d="M31.73 6.19999H40.62C40.8083 6.19999 40.9889 6.12519 41.1221 5.99203C41.2552 5.85888 41.33 5.67829 41.33 5.48999C41.33 5.39722 41.3116 5.30537 41.2758 5.21978C41.24 5.13419 41.1875 5.05658 41.1215 4.99144C41.0554 4.92631 40.977 4.87496 40.891 4.84037C40.8049 4.80579 40.7128 4.78866 40.62 4.78999H31.73C31.6372 4.78866 31.5451 4.80579 31.4591 4.84037C31.373 4.87496 31.2946 4.92631 31.2286 4.99144C31.1625 5.05658 31.11 5.13419 31.0742 5.21978C31.0384 5.30537 31.02 5.39722 31.02 5.48999C31.02 5.67829 31.0948 5.85888 31.228 5.99203C31.3611 6.12519 31.5417 6.19999 31.73 6.19999Z" fill="#E97C24"/>
<path d="M31.73 8.90995H38.07C38.2583 8.90995 38.4389 8.83515 38.572 8.70199C38.7052 8.56884 38.78 8.38825 38.78 8.19995C38.78 8.10718 38.7616 8.01533 38.7258 7.92974C38.69 7.84415 38.6375 7.76654 38.5715 7.70141C38.5054 7.63627 38.427 7.58492 38.341 7.55034C38.2549 7.51575 38.1628 7.49862 38.07 7.49995H31.73C31.6372 7.49862 31.5451 7.51575 31.4591 7.55034C31.373 7.58492 31.2946 7.63627 31.2286 7.70141C31.1625 7.76654 31.11 7.84415 31.0742 7.92974C31.0384 8.01533 31.02 8.10718 31.02 8.19995C31.02 8.38825 31.0948 8.56884 31.228 8.70199C31.3611 8.83515 31.5417 8.90995 31.73 8.90995Z" fill="#E97C24"/>
</svg>
