<svg width="24" height="24" viewBox="0 0 24 24" fill="none" xmlns="http://www.w3.org/2000/svg">
<path fill-rule="evenodd" clip-rule="evenodd" d="M5.62 0.309998C5.571 0.309998 5.52206 0.3136 5.47358 0.320774C4.66297 0.440753 3.93066 0.870931 3.43117 1.52054C2.94425 2.1538 2.7157 2.94731 2.79 3.74113V20.2589C2.7157 21.0527 2.94425 21.8462 3.43117 22.4795C3.93066 23.1291 4.66297 23.5592 5.47358 23.6792C5.52206 23.6864 5.571 23.69 5.62 23.69H18.38C18.429 23.69 18.4779 23.6864 18.5264 23.6792C19.337 23.5592 20.0693 23.1291 20.5688 22.4795C21.0557 21.8462 21.2843 21.0527 21.21 20.2589V3.74113C21.2843 2.94731 21.0557 2.1538 20.5688 1.52054C20.0693 0.87093 19.337 0.440753 18.5264 0.320774C18.4779 0.3136 18.429 0.309998 18.38 0.309998H5.62ZM5.01667 2.73964C5.18733 2.51769 5.43203 2.36552 5.70503 2.31H18.295C18.568 2.36552 18.8127 2.51769 18.9833 2.73964C19.1667 2.97811 19.2502 3.27847 19.2164 3.57737C19.2121 3.61476 19.21 3.65236 19.21 3.69V20.31C19.21 20.3476 19.2121 20.3852 19.2164 20.4226C19.2502 20.7215 19.1667 21.0219 18.9833 21.2604C18.8127 21.4823 18.568 21.6345 18.295 21.69H5.70503C5.43203 21.6345 5.18733 21.4823 5.01667 21.2604C4.83331 21.0219 4.74976 20.7215 4.78364 20.4226C4.78787 20.3852 4.79 20.3476 4.79 20.31V3.69C4.79 3.65236 4.78787 3.61476 4.78364 3.57737C4.74976 3.27847 4.83331 2.97811 5.01667 2.73964ZM8.13 6.13C7.57772 6.13 7.13 6.57772 7.13 7.13C7.13 7.68229 7.57772 8.13 8.13 8.13H15.87C16.4223 8.13 16.87 7.68229 16.87 7.13C16.87 6.57772 16.4223 6.13 15.87 6.13H8.13ZM7.13 10.81C7.13 10.2577 7.57772 9.81 8.13 9.81H15.87C16.4223 9.81 16.87 10.2577 16.87 10.81C16.87 11.3623 16.4223 11.81 15.87 11.81H8.13C7.57772 11.81 7.13 11.3623 7.13 10.81ZM8.13 13.48C7.57772 13.48 7.13 13.9277 7.13 14.48C7.13 15.0323 7.57772 15.48 8.13 15.48H13C13.5523 15.48 14 15.0323 14 14.48C14 13.9277 13.5523 13.48 13 13.48H8.13Z" fill="#545454"/>
</svg>
