<svg width="24" height="24" viewBox="0 0 24 24" fill="none" xmlns="http://www.w3.org/2000/svg">
<path fill-rule="evenodd" clip-rule="evenodd" d="M9.15283 0.592881C9.34037 0.405345 9.59472 0.299988 9.85994 0.299988H18.4199C19.2527 0.299988 20.0514 0.630808 20.6403 1.21967C21.2291 1.80854 21.5599 2.60721 21.5599 3.43999V20.56C21.5599 21.3928 21.2291 22.1914 20.6403 22.7803C20.0514 23.3692 19.2527 23.7 18.4199 23.7H5.57994C4.74716 23.7 3.94849 23.3692 3.35963 22.7803C2.77076 22.1914 2.43994 21.3928 2.43994 20.56V7.71999C2.43994 7.45477 2.5453 7.20042 2.73283 7.01288L9.15283 0.592881ZM10.2742 2.29999L4.43994 8.1342V20.56C4.43994 20.8623 4.56005 21.1523 4.77384 21.3661C4.98763 21.5799 5.2776 21.7 5.57994 21.7H18.4199C18.7223 21.7 19.0123 21.5799 19.226 21.3661C19.4398 21.1523 19.5599 20.8623 19.5599 20.56V3.43999C19.5599 3.13764 19.4398 2.84768 19.226 2.63389C19.0123 2.42009 18.7223 2.29999 18.4199 2.29999H10.2742Z" fill="#545454"/>
<path fill-rule="evenodd" clip-rule="evenodd" d="M10.8599 1.29999C10.8599 0.747703 10.4122 0.299988 9.85994 0.299988C9.30766 0.299988 8.85994 0.747703 8.85994 1.29999V2.29999L4.43994 6.71999H3.43994C2.88766 6.71999 2.43994 7.1677 2.43994 7.71999C2.43994 8.27227 2.88766 8.71999 3.43994 8.71999H9.85994C10.4122 8.71999 10.8599 8.27227 10.8599 7.71999V1.29999Z" fill="#545454"/>
<path fill-rule="evenodd" clip-rule="evenodd" d="M6.93005 13.07C6.93005 12.5177 7.37777 12.07 7.93005 12.07H16.4901C17.0423 12.07 17.4901 12.5177 17.4901 13.07C17.4901 13.6223 17.0423 14.07 16.4901 14.07H7.93005C7.37777 14.07 6.93005 13.6223 6.93005 13.07Z" fill="#545454"/>
<path fill-rule="evenodd" clip-rule="evenodd" d="M6.93005 17.35C6.93005 16.7977 7.37777 16.35 7.93005 16.35H16.4901C17.0423 16.35 17.4901 16.7977 17.4901 17.35C17.4901 17.9023 17.0423 18.35 16.4901 18.35H7.93005C7.37777 18.35 6.93005 17.9023 6.93005 17.35Z" fill="#545454"/>
<path fill-rule="evenodd" clip-rule="evenodd" d="M14.35 7.79001C13.7977 7.79001 13.35 8.23772 13.35 8.79001C13.35 9.34229 13.7977 9.79001 14.35 9.79001H16.49C17.0423 9.79001 17.49 9.34229 17.49 8.79001C17.49 8.23772 17.0423 7.79001 16.49 7.79001H14.35Z" fill="#545454"/>
</svg>
