<svg width="24" height="24" viewBox="0 0 24 24" fill="none" xmlns="http://www.w3.org/2000/svg">
<path fill-rule="evenodd" clip-rule="evenodd" d="M4.42879 3.63011C4.57639 3.58783 4.73092 3.57528 4.88341 3.59317C4.9221 3.59771 4.96102 3.59999 4.99998 3.59999H19.1C19.1243 3.59999 19.1486 3.5991 19.1729 3.59733C19.4688 3.57569 19.7618 3.6683 19.9916 3.8561C20.2074 4.0325 20.352 4.28027 20.4 4.55361V14.28H14.48C13.9277 14.28 13.48 14.7277 13.48 15.28V20.4H4.99998C4.96032 20.4 4.9207 20.4023 4.88133 20.4071C4.57663 20.4435 4.26993 20.3577 4.02836 20.1684C3.80049 19.9899 3.64809 19.7331 3.59998 19.4489V4.58037C3.61967 4.44324 3.66379 4.31063 3.73035 4.18886C3.804 4.05414 3.90366 3.93537 4.02355 3.83946C4.14344 3.74354 4.28119 3.67238 4.42879 3.63011ZM22.4 15.2834V15.76C22.4 16.0638 22.2619 16.3511 22.0247 16.5409L14.9747 22.1809C14.7974 22.3227 14.577 22.4 14.35 22.4H5.05385C4.24526 22.4798 3.43599 22.245 2.79504 21.7429C2.13697 21.2274 1.70997 20.4722 1.60752 19.6426C1.60249 19.6019 1.59998 19.561 1.59998 19.52V4.51999C1.59998 4.48515 1.6018 4.45034 1.60543 4.4157C1.64905 3.99972 1.77482 3.59654 1.97544 3.22953C2.17607 2.86253 2.44755 2.53901 2.77416 2.27772C3.10077 2.01644 3.47599 1.82259 3.87809 1.70742C4.25965 1.59813 4.65821 1.56176 5.0529 1.59999H19.0669C19.8596 1.5521 20.6418 1.80443 21.2573 2.30759C21.8832 2.81919 22.2892 3.55119 22.3919 4.35302C22.3973 4.39513 22.4 4.43754 22.4 4.47999V15.2766L22.4 15.28L22.4 15.2834ZM5.48999 7.62C5.48999 7.06771 5.93771 6.62 6.48999 6.62H17.51C18.0623 6.62 18.51 7.06771 18.51 7.62C18.51 8.17228 18.0623 8.62 17.51 8.62H6.48999C5.93771 8.62 5.48999 8.17228 5.48999 7.62ZM6.48999 10.76C5.93771 10.76 5.48999 11.2077 5.48999 11.76C5.48999 12.3123 5.93771 12.76 6.48999 12.76H12.44C12.9923 12.76 13.44 12.3123 13.44 11.76C13.44 11.2077 12.9923 10.76 12.44 10.76H6.48999Z" fill="#545454"/>
</svg>
