<svg width="24" height="24" viewBox="0 0 24 24" fill="none" xmlns="http://www.w3.org/2000/svg">
<path fill-rule="evenodd" clip-rule="evenodd" d="M5.6 0.329987C5.58107 0.329987 5.56215 0.330524 5.54326 0.331598C4.69114 0.380026 3.89173 0.759691 3.31574 1.38951C2.74373 2.01498 2.43709 2.83793 2.46 3.68474V22.67C2.46 23.0555 2.68158 23.4066 3.02953 23.5726C3.37748 23.7385 3.78983 23.6897 4.08939 23.4471L6.78019 21.2677L8.59445 23.2375C8.77429 23.4327 9.02439 23.5485 9.28963 23.5592C9.55487 23.5699 9.81348 23.4747 10.0085 23.2946L12.1688 21.2993L14.0495 23.2534C14.2404 23.4518 14.5046 23.5627 14.7799 23.5599C15.0552 23.5572 15.3172 23.4411 15.5042 23.239L17.3169 21.2789L19.8969 23.4457C20.1945 23.6957 20.6101 23.7506 20.9624 23.5864C21.3147 23.4222 21.54 23.0687 21.54 22.68V3.69674C21.5661 2.8483 21.2612 2.02265 20.6893 1.39466C20.1129 0.761713 19.3113 0.380033 18.4566 0.331589C18.4377 0.330521 18.4189 0.329987 18.4 0.329987H5.6ZM4.79162 2.73925C5.00985 2.50062 5.31066 2.35446 5.63249 2.32999H18.3676C18.6905 2.35447 18.9921 2.50142 19.2105 2.74126C19.4344 2.98708 19.5529 3.31089 19.5407 3.64314C19.5402 3.65542 19.54 3.6677 19.54 3.67999V20.5342L17.8731 19.1342C17.4644 18.791 16.8582 18.8292 16.4958 19.221L14.7555 21.1028L12.9305 19.2066C12.5531 18.8144 11.9313 18.7961 11.5315 19.1654L9.38713 21.1459L7.61554 19.2225C7.25809 18.8344 6.66061 18.7908 6.2506 19.1229L4.46 20.5732V3.66999C4.46 3.65917 4.45982 3.64835 4.45947 3.63754C4.44872 3.30624 4.56792 2.98386 4.79162 2.73925ZM7.72998 5.66C7.1777 5.66 6.72998 6.10772 6.72998 6.66C6.72998 7.21229 7.1777 7.66 7.72998 7.66H16.27C16.8223 7.66 17.27 7.21229 17.27 6.66C17.27 6.10772 16.8223 5.66 16.27 5.66H7.72998ZM7.72998 9.92999C7.1777 9.92999 6.72998 10.3777 6.72998 10.93C6.72998 11.4823 7.1777 11.93 7.72998 11.93H16.27C16.8223 11.93 17.27 11.4823 17.27 10.93C17.27 10.3777 16.8223 9.92999 16.27 9.92999H7.72998ZM13.13 15.2C13.13 14.6477 13.5777 14.2 14.13 14.2H16.27C16.8223 14.2 17.27 14.6477 17.27 15.2C17.27 15.7523 16.8223 16.2 16.27 16.2H14.13C13.5777 16.2 13.13 15.7523 13.13 15.2Z" fill="#545454"/>
</svg>
