<svg width="24" height="24" viewBox="0 0 24 24" fill="none" xmlns="http://www.w3.org/2000/svg">
<path fill-rule="evenodd" clip-rule="evenodd" d="M2.8515 4.89937C2.94614 4.86017 3.04756 4.84 3.15 4.84H7.07481L8.55795 7.0647C8.74341 7.3429 9.05564 7.51 9.39 7.51H17.39V7.51006L17.4012 7.50993C17.5053 7.50877 17.6086 7.5282 17.7052 7.5671C17.8018 7.606 17.8897 7.66361 17.9639 7.73662C18.0382 7.80963 18.0973 7.89659 18.1378 7.99251C18.178 8.08775 18.1991 8.18995 18.2 8.29332V8.57998H7.41V8.57996L7.40265 8.58001C6.73546 8.58492 6.08139 8.76587 5.50655 9.10457C4.9317 9.44328 4.45646 9.92773 4.12885 10.509C4.11315 10.5368 4.0988 10.5654 4.08584 10.5946L2.37 14.4643V5.62C2.37 5.51757 2.39017 5.41614 2.42937 5.3215C2.46857 5.22687 2.52602 5.14088 2.59845 5.06845C2.67088 4.99602 2.75687 4.93857 2.8515 4.89937ZM3.14137 20.88C3.14425 20.88 3.14712 20.88 3.15 20.88H17.41C17.492 20.88 17.5716 20.8701 17.6479 20.8515C18.0304 20.8167 18.4272 20.746 18.7996 20.6188C19.3828 20.4195 20.0502 20.0277 20.371 19.2696L20.3732 19.2643L23.599 11.5145C23.9473 10.7206 23.7135 9.92421 23.2257 9.39041C22.7521 8.87208 22.0411 8.57998 21.29 8.57998H20.2V8.29L20.2 8.28447C20.1979 7.91676 20.1232 7.55307 19.9802 7.21433C19.8371 6.87559 19.6285 6.56847 19.3663 6.31064C19.1041 6.05281 18.7936 5.84934 18.4525 5.71195C18.1133 5.57533 17.7506 5.50672 17.385 5.51H9.92518L8.44205 3.2853C8.25658 3.0071 7.94435 2.84 7.61 2.84H3.15C2.78492 2.84 2.42342 2.9119 2.08614 3.05161C1.74885 3.19132 1.44238 3.39609 1.18424 3.65424C0.926091 3.91239 0.721318 4.21885 0.58161 4.55614C0.441902 4.89342 0.369995 5.25492 0.369995 5.62V18.1C0.369995 18.4748 0.445667 18.8417 0.58855 19.1805C0.632542 19.5255 0.775444 19.8579 1.03009 20.1443C1.5018 20.675 2.20816 20.88 2.89 20.88H3.14137Z" fill="#545454"/>
</svg>
