<svg width="24" height="24" viewBox="0 0 24 24" fill="none" xmlns="http://www.w3.org/2000/svg">
<path d="M22.29 1.73999H16.11C15.3071 1.74259 14.5161 1.93511 13.8018 2.30183C13.0875 2.66854 12.4701 3.19904 12 3.84999C11.5299 3.19904 10.9125 2.66854 10.1982 2.30183C9.48387 1.93511 8.69294 1.74259 7.89 1.73999H1.71C1.44478 1.73999 1.19043 1.84535 1.00289 2.03288C0.815357 2.22042 0.71 2.47477 0.71 2.73999V18.17C0.71 18.4352 0.815357 18.6896 1.00289 18.8771C1.19043 19.0646 1.44478 19.17 1.71 19.17H8.91C9.46349 19.1726 9.99357 19.3937 10.3849 19.785C10.7763 20.1764 10.9974 20.7065 11 21.26C11 21.5252 11.1054 21.7796 11.2929 21.9671C11.4804 22.1546 11.7348 22.26 12 22.26C12.2652 22.26 12.5196 22.1546 12.7071 21.9671C12.8946 21.7796 13 21.5252 13 21.26C13.0026 20.7065 13.2237 20.1764 13.6151 19.785C14.0064 19.3937 14.5365 19.1726 15.09 19.17H22.29C22.5552 19.17 22.8096 19.0646 22.9971 18.8771C23.1846 18.6896 23.29 18.4352 23.29 18.17V2.73999C23.29 2.47477 23.1846 2.22042 22.9971 2.03288C22.8096 1.84535 22.5552 1.73999 22.29 1.73999ZM11 17.75C10.37 17.3679 9.64679 17.1671 8.91 17.17H2.71V3.73999H7.89C8.71574 3.74264 9.50676 4.07252 10.0897 4.65735C10.6727 5.24217 11 6.03424 11 6.85999V17.75ZM21.29 17.17H15.09C14.3532 17.1671 13.63 17.3679 13 17.75V6.85999C13 6.03424 13.3273 5.24217 13.9103 4.65735C14.4932 4.07252 15.2843 3.74264 16.11 3.73999H21.29V17.17Z" fill="#545454"/>
</svg>
