<svg width="24" height="24" viewBox="0 0 24 24" fill="none" xmlns="http://www.w3.org/2000/svg">
<path fill-rule="evenodd" clip-rule="evenodd" d="M3.77361 4.71362C3.9424 4.54483 4.17131 4.45001 4.41001 4.45001H8.61483L9.97481 6.48999H4.09999C3.89568 6.48999 3.69789 6.50954 3.51001 6.54621V5.35001C3.51001 5.11132 3.60483 4.8824 3.77361 4.71362ZM4.41001 2.45001C3.64088 2.45001 2.90326 2.75555 2.3594 3.2994C1.81554 3.84326 1.51001 4.58088 1.51001 5.35001V18.63C1.51001 19.3991 1.81554 20.1368 2.3594 20.6806C2.90326 21.2245 3.64088 21.53 4.41001 21.53H19.59C20.3591 21.53 21.0968 21.2245 21.6406 20.6806C22.1845 20.1368 22.49 19.3991 22.49 18.63V8.20001C22.49 7.43088 22.1845 6.69326 21.6406 6.1494C21.0968 5.60555 20.3591 5.30001 19.59 5.30001H11.5852L9.98206 2.89531C9.79659 2.61711 9.48436 2.45001 9.15001 2.45001H4.41001Z" fill="#545454"/>
</svg>
