<svg width="24" height="24" viewBox="0 0 24 24" fill="none" xmlns="http://www.w3.org/2000/svg">
<path fill-rule="evenodd" clip-rule="evenodd" d="M3.73999 3.29999C3.73999 2.7477 4.18771 2.29999 4.73999 2.29999H19.26C19.8123 2.29999 20.26 2.7477 20.26 3.29999V14.87H22.63C23.1823 14.87 23.63 15.3177 23.63 15.87V20.7C23.63 21.2523 23.1823 21.7 22.63 21.7H1.35999C0.807701 21.7 0.359985 21.2523 0.359985 20.7V15.87C0.359985 15.3177 0.807701 14.87 1.35999 14.87H3.73999V3.29999ZM5.73999 14.87H18.26V4.29999H5.73999V14.87ZM15.5364 7.09362C15.8879 7.44509 15.8879 8.01494 15.5364 8.36641L11.8264 12.0764C11.4749 12.4279 10.9051 12.4279 10.5536 12.0764L9.12359 10.6464C8.77212 10.2949 8.77212 9.72509 9.12359 9.37362C9.47506 9.02215 10.0449 9.02215 10.3964 9.37362L11.19 10.1672L14.2636 7.09362C14.6151 6.74215 15.1849 6.74215 15.5364 7.09362ZM2.35999 19.7V16.87H21.63V19.7H2.35999Z" fill="#545454"/>
</svg>
