<svg width="48" height="48" viewBox="0 0 48 48" fill="none" xmlns="http://www.w3.org/2000/svg">
<path d="M37.4 37C36.362 37.9788 35.2222 38.8438 34 39.58C33.8862 39.6524 33.759 39.7009 33.6259 39.7228C33.4928 39.7447 33.3567 39.7395 33.2257 39.7074C33.0947 39.6753 32.9715 39.617 32.8636 39.5361C32.7557 39.4552 32.6653 39.3533 32.5978 39.2365C32.5303 39.1198 32.4871 38.9906 32.4709 38.8567C32.4546 38.7228 32.4656 38.587 32.5032 38.4575C32.5407 38.3279 32.6041 38.2074 32.6895 38.103C32.7749 37.9986 32.8805 37.9125 33 37.85C34.0783 37.2105 35.0842 36.4561 36 35.6C36.1926 35.4556 36.4308 35.3855 36.6709 35.4025C36.911 35.4196 37.1369 35.5227 37.3072 35.6929C37.4774 35.8631 37.5805 36.089 37.5975 36.3291C37.6146 36.5692 37.5445 36.8074 37.4 37ZM40 34C39.8231 34.1717 39.5889 34.272 39.3424 34.2816C39.096 34.2911 38.8547 34.2093 38.665 34.0518C38.4752 33.8943 38.3504 33.6722 38.3144 33.4282C38.2784 33.1843 38.3338 32.9356 38.47 32.73C39.1883 31.6916 39.7918 30.5785 40.27 29.41C40.3708 29.1647 40.5649 28.9694 40.8097 28.8672C41.0544 28.765 41.3297 28.7642 41.575 28.865C41.8204 28.9658 42.0156 29.1599 42.1178 29.4046C42.22 29.6494 42.2208 29.9247 42.12 30.17C41.5888 31.4719 40.9182 32.7124 40.12 33.87C40.0858 33.9183 40.0455 33.962 40 34ZM30.52 41C30.4075 41.1104 30.2704 41.1927 30.12 41.24C28.7788 41.6706 27.3935 41.949 25.99 42.07C25.7248 42.0939 25.461 42.0114 25.2566 41.8408C25.0522 41.6701 24.9239 41.4252 24.9 41.16C24.8762 40.8948 24.9586 40.631 25.1293 40.4265C25.3 40.2221 25.5448 40.0939 25.81 40.07C27.0668 39.9597 28.3076 39.7115 29.51 39.33C29.7228 39.266 29.9508 39.2746 30.1582 39.3545C30.3655 39.4345 30.5402 39.5812 30.6549 39.7716C30.7695 39.9619 30.8176 40.185 30.7913 40.4056C30.7651 40.6263 30.6661 40.8319 30.51 40.99L30.52 41ZM43 26.68C42.8867 26.794 42.7475 26.8789 42.5943 26.9277C42.4411 26.9764 42.2784 26.9875 42.12 26.96C41.859 26.9159 41.626 26.7701 41.4723 26.5545C41.3186 26.339 41.2566 26.0712 41.3 25.81C41.4896 24.7174 41.57 23.6086 41.54 22.5C41.5368 22.3687 41.5594 22.238 41.6066 22.1154C41.6538 21.9928 41.7247 21.8808 41.8153 21.7856C41.9058 21.6904 42.0142 21.614 42.1343 21.5607C42.2543 21.5074 42.3837 21.4783 42.515 21.475C42.6464 21.4717 42.7771 21.4943 42.8996 21.5416C43.0222 21.5888 43.1343 21.6597 43.2295 21.7502C43.3247 21.8408 43.4011 21.9492 43.4544 22.0692C43.5076 22.1893 43.5368 22.3187 43.54 22.45C43.57 23.6859 43.4796 24.9217 43.27 26.14C43.2426 26.345 43.1476 26.535 43 26.68ZM22.64 41.75C22.5309 41.858 22.3984 41.9395 22.2527 41.9881C22.1071 42.0366 21.9522 42.051 21.8 42.03C20.4042 41.8475 19.0326 41.5121 17.71 41.03C17.4678 40.9346 17.2724 40.7485 17.1653 40.5112C17.0581 40.274 17.0477 40.0043 17.1363 39.7595C17.2248 39.5147 17.4053 39.3141 17.6394 39.2003C17.8736 39.0865 18.1428 39.0684 18.39 39.15C19.5782 39.5766 20.8085 39.875 22.06 40.04C22.3224 40.0749 22.5603 40.2123 22.7215 40.4223C22.8827 40.6322 22.9541 40.8975 22.92 41.16C22.8911 41.3812 22.7931 41.5877 22.64 41.75ZM15.18 39C15.0192 39.1629 14.8073 39.2657 14.5798 39.2912C14.3523 39.3166 14.123 39.2633 13.93 39.14C12.7436 38.3825 11.6437 37.4972 10.65 36.5C10.4638 36.3127 10.3593 36.0592 10.3593 35.795C10.3593 35.5308 10.4638 35.2774 10.65 35.09C10.743 34.9963 10.8536 34.9219 10.9755 34.8711C11.0973 34.8204 11.228 34.7942 11.36 34.7942C11.4921 34.7942 11.6228 34.8204 11.7446 34.8711C11.8665 34.9219 11.9771 34.9963 12.07 35.09C12.9548 35.996 13.9375 36.801 15 37.49C15.2225 37.6335 15.3791 37.8593 15.4353 38.118C15.4915 38.3767 15.4429 38.6471 15.3 38.87C15.2652 38.9179 15.225 38.9615 15.18 39Z" fill="#7284FF"/>
<path d="M40.6199 7.15001C40.3601 7.1001 40.091 7.15522 39.8717 7.30329C39.6524 7.45137 39.5008 7.68032 39.4499 7.94001L38.9999 10.24C35.9408 6.27507 31.4584 3.65676 26.5021 2.93975C21.5458 2.22275 16.5051 3.46337 12.4477 6.3988C8.39038 9.33424 5.63516 13.7339 4.76573 18.6657C3.8963 23.5975 4.98096 28.6741 7.78994 32.82C7.94125 33.0352 8.17128 33.1822 8.43018 33.229C8.68909 33.2758 8.956 33.2186 9.17307 33.07C9.39014 32.9213 9.53988 32.6931 9.58983 32.4348C9.63979 32.1765 9.58593 31.9089 9.43994 31.69C6.87502 27.9903 5.85614 23.4353 6.60037 18.9954C7.3446 14.5555 9.7931 10.5817 13.4242 7.92064C17.0554 5.25954 21.5821 4.12152 26.04 4.74902C30.4979 5.37652 34.5345 7.71993 37.2899 11.28L35.1299 10.87C34.8647 10.8196 34.5904 10.8766 34.3672 11.0286C34.144 11.1805 33.9903 11.4148 33.9399 11.68C33.8896 11.9452 33.9466 12.2196 34.0985 12.4428C34.2504 12.6659 34.4847 12.8196 34.7499 12.87L39.3499 13.76C39.4809 13.7854 39.6156 13.7843 39.7461 13.7568C39.8766 13.7293 40.0003 13.676 40.1099 13.6C40.3233 13.4513 40.4704 13.2253 40.5199 12.97L41.4099 8.36001C41.4406 8.2285 41.4443 8.09214 41.4208 7.95916C41.3974 7.82618 41.3472 7.69934 41.2734 7.58627C41.1996 7.4732 41.1036 7.37625 40.9913 7.30127C40.879 7.22629 40.7527 7.17484 40.6199 7.15001Z" fill="#2E42CC"/>
<path d="M11.5801 25.64C13.5801 23.97 15.1101 22.48 15.1101 21.36C15.1256 21.2197 15.1112 21.0778 15.068 20.9435C15.0247 20.8091 14.9535 20.6855 14.8591 20.5807C14.7646 20.4758 14.6491 20.3921 14.52 20.3352C14.3909 20.2782 14.2512 20.2492 14.1101 20.25C13.5624 20.3237 13.0662 20.6114 12.7301 21.05L11.5601 19.88C11.8932 19.4351 12.3269 19.0754 12.8257 18.8303C13.3245 18.5852 13.8743 18.4618 14.4301 18.47C14.8043 18.4391 15.1809 18.4872 15.5353 18.6111C15.8898 18.7351 16.2143 18.9321 16.4877 19.1895C16.7611 19.4469 16.9774 19.7589 17.1225 20.1053C17.2676 20.4516 17.3383 20.8246 17.3301 21.2C17.3301 22.69 15.9701 24.02 14.7001 25.2C15.1201 25.2 15.7001 25.09 16.1001 25.09H17.7201V27.01H11.6201L11.5801 25.64Z" fill="#7284FF"/>
<path d="M22.11 25.16H18.53V23.57L21.4 18.63H24.24V23.43H25.14V25.16H24.24V27.05H22.11V25.16ZM22.11 23.43V22.48C22.11 21.91 22.17 21.06 22.19 20.48H22.14C21.93 20.98 21.69 21.48 21.45 21.99L20.68 23.42L22.11 23.43Z" fill="#7284FF"/>
<path d="M28 17.62H29.46L27.08 29.17H25.62L28 17.62Z" fill="#7284FF"/>
<path d="M34.06 20.54H30.45V18.63H36.45V20C34.45 22.31 34.16 23.73 34 27H31.75C31.7885 24.6512 32.6005 22.3807 34.06 20.54Z" fill="#7284FF"/>
</svg>
