<svg width="48" height="48" viewBox="0 0 48 48" fill="none" xmlns="http://www.w3.org/2000/svg">
<path d="M4.60999 24C4.60879 27.6543 5.70285 31.225 7.75095 34.2514C9.79906 37.2778 12.7072 39.6208 16.1 40.9782C19.4929 42.3355 23.2146 42.6449 26.785 41.8662C30.3553 41.0876 33.6104 39.2567 36.13 36.61" stroke="#2E42CC" stroke-width="2" stroke-linecap="round" stroke-linejoin="round" stroke-dasharray="4 4"/>
<path d="M41.17 24C41.17 19.1518 39.2441 14.5023 35.8159 11.0741C32.3877 7.64592 27.7381 5.72 22.89 5.72C18.0418 5.72 13.3922 7.64592 9.96407 11.0741C6.53591 14.5023 4.60999 19.1518 4.60999 24" stroke="#2E42CC" stroke-width="2" stroke-linecap="round" stroke-linejoin="round"/>
<path d="M37.86 22L41.16 25.33L44.49 22.03" stroke="#2E42CC" stroke-width="2" stroke-linecap="round" stroke-linejoin="round"/>
<path d="M29.88 19.48H28.88V16.65C28.88 15.072 28.2531 13.5586 27.1373 12.4427C26.0214 11.3269 24.508 10.7 22.93 10.7C21.352 10.7 19.8386 11.3269 18.7227 12.4427C17.6069 13.5586 16.98 15.072 16.98 16.65V19.48H15.98C15.2895 19.48 14.6272 19.7536 14.138 20.2409C13.6488 20.7282 13.3726 21.3895 13.37 22.08V31.4C13.3724 32.0785 13.6389 32.7295 14.113 33.2148C14.5872 33.7002 15.2317 33.9818 15.91 34H29.91C30.6005 33.9974 31.2618 33.7212 31.7491 33.232C32.2364 32.7428 32.51 32.0805 32.51 31.39V22.08C32.5087 21.7364 32.4396 21.3965 32.3065 21.0796C32.1735 20.7628 31.9793 20.4754 31.7349 20.2338C31.4906 19.9923 31.201 19.8013 30.8826 19.672C30.5643 19.5426 30.2236 19.4774 29.88 19.48ZM26.88 19.48H18.98V16.65C18.98 15.6024 19.3962 14.5977 20.1369 13.8569C20.8777 13.1162 21.8824 12.7 22.93 12.7C23.9776 12.7 24.9823 13.1162 25.7231 13.8569C26.4638 14.5977 26.88 15.6024 26.88 16.65V19.48Z" fill="#7284FF"/>
<path d="M24.54 25.14C24.5577 24.9132 24.5283 24.6852 24.4537 24.4703C24.379 24.2554 24.2607 24.0582 24.1063 23.8912C23.9518 23.7242 23.7644 23.5909 23.556 23.4998C23.3475 23.4087 23.1225 23.3616 22.895 23.3616C22.6675 23.3616 22.4425 23.4087 22.234 23.4998C22.0256 23.5909 21.8382 23.7242 21.6837 23.8912C21.5293 24.0582 21.411 24.2554 21.3363 24.4703C21.2617 24.6852 21.2323 24.9132 21.25 25.14C21.2492 25.3914 21.3066 25.6395 21.4176 25.865C21.5286 26.0905 21.6903 26.2873 21.89 26.44V29.84C21.89 30.1052 21.9954 30.3596 22.1829 30.5471C22.3704 30.7346 22.6248 30.84 22.89 30.84C23.1552 30.84 23.4096 30.7346 23.5971 30.5471C23.7846 30.3596 23.89 30.1052 23.89 29.84V26.44C24.0927 26.2894 24.2571 26.0933 24.37 25.8675C24.483 25.6417 24.5412 25.3925 24.54 25.14Z" fill="white"/>
</svg>
