<svg width="48" height="48" viewBox="0 0 48 48" fill="none" xmlns="http://www.w3.org/2000/svg">
<path d="M42.06 28.64C41.9229 28.6396 41.7873 28.6109 41.6618 28.5559C41.5362 28.5008 41.4233 28.4205 41.33 28.32C41.2395 28.2238 41.1689 28.1106 41.1224 27.9869C41.0759 27.8633 41.0543 27.7316 41.059 27.5996C41.0636 27.4675 41.0944 27.3377 41.1495 27.2177C41.2046 27.0976 41.283 26.9896 41.38 26.9C42.1844 26.161 42.8265 25.263 43.2658 24.2629C43.7051 23.2628 43.9319 22.1823 43.9319 21.09C43.9319 19.9977 43.7051 18.9173 43.2658 17.9172C42.8265 16.917 42.1844 16.019 41.38 15.28C41.283 15.1904 41.2046 15.0824 41.1495 14.9623C41.0944 14.8423 41.0636 14.7125 41.059 14.5804C41.0543 14.4484 41.0759 14.3167 41.1224 14.1931C41.1689 14.0694 41.2395 13.9562 41.33 13.86C41.5174 13.6738 41.7708 13.5692 42.035 13.5692C42.2992 13.5692 42.5527 13.6738 42.74 13.86C43.7461 14.7871 44.549 15.9127 45.0982 17.1657C45.6474 18.4187 45.931 19.7719 45.931 21.14C45.931 22.5081 45.6474 23.8613 45.0982 25.1143C44.549 26.3673 43.7461 27.4929 42.74 28.42C42.5482 28.5746 42.3061 28.6529 42.06 28.64Z" fill="#7284FF"/>
<path d="M38.66 25.93C38.5228 25.9295 38.3873 25.9009 38.2617 25.8459C38.1361 25.7908 38.0232 25.7105 37.93 25.61C37.7437 25.4226 37.6392 25.1692 37.6392 24.905C37.6392 24.6408 37.7437 24.3873 37.93 24.2C38.3636 23.8105 38.7116 23.3352 38.952 22.8043C39.1924 22.2733 39.32 21.6982 39.3266 21.1154C39.3331 20.5325 39.2186 19.9547 38.9903 19.4184C38.7619 18.8822 38.4247 18.3991 38 18C37.805 17.8196 37.6897 17.5692 37.6794 17.3039C37.6691 17.0385 37.7646 16.7799 37.945 16.585C38.1253 16.39 38.3757 16.2747 38.6411 16.2644C38.9064 16.2541 39.165 16.3496 39.36 16.53C39.994 17.1126 40.5001 17.8205 40.8464 18.6089C41.1926 19.3972 41.3714 20.2489 41.3714 21.11C41.3714 21.971 41.1926 22.8227 40.8464 23.6111C40.5001 24.3995 39.994 25.1074 39.36 25.69C39.1659 25.8566 38.9154 25.9424 38.66 25.93Z" fill="#7284FF"/>
<path d="M34 27.38H14C13.7348 27.38 13.4804 27.2746 13.2929 27.0871C13.1054 26.8996 13 26.6452 13 26.38C13 26.1148 13.1054 25.8604 13.2929 25.6729C13.4804 25.4854 13.7348 25.38 14 25.38H34C34.2652 25.38 34.5196 25.4854 34.7071 25.6729C34.8946 25.8604 35 26.1148 35 26.38C35 26.6452 34.8946 26.8996 34.7071 27.0871C34.5196 27.2746 34.2652 27.38 34 27.38Z" fill="#7284FF"/>
<path d="M35.24 31.4C35.0168 31.4089 34.7971 31.3428 34.6159 31.2123C34.4347 31.0818 34.3023 30.8944 34.24 30.68C33.4818 27.1136 33.1097 23.476 33.13 19.83C33.13 17.398 32.1638 15.0655 30.4441 13.3458C28.7244 11.6261 26.392 10.66 23.96 10.66C21.5279 10.66 19.1955 11.6261 17.4758 13.3458C15.7561 15.0655 14.79 17.398 14.79 19.83C14.8103 23.4727 14.4382 27.107 13.68 30.67C13.6439 30.7967 13.5831 30.9151 13.5013 31.0184C13.4194 31.1216 13.318 31.2077 13.2029 31.2718C13.0877 31.3359 12.9611 31.3767 12.8302 31.3918C12.6993 31.4069 12.5667 31.3961 12.44 31.36C12.3132 31.3239 12.1949 31.2632 12.0916 31.1813C11.9884 31.0994 11.9022 30.9981 11.8382 30.8829C11.7741 30.7678 11.7333 30.6411 11.7182 30.5102C11.7031 30.3793 11.7139 30.2467 11.75 30.12C12.4507 26.7357 12.786 23.2859 12.75 19.83C12.75 16.8675 13.9268 14.0264 16.0216 11.9316C18.1164 9.83684 20.9575 8.66 23.92 8.66C26.8824 8.66 29.7236 9.83684 31.8183 11.9316C33.9131 14.0264 35.09 16.8675 35.09 19.83C35.054 23.2859 35.3892 26.7357 36.09 30.12C36.1266 30.2467 36.1377 30.3794 36.1228 30.5105C36.1079 30.6415 36.0672 30.7683 36.003 30.8836C35.9389 30.9989 35.8526 31.1003 35.7491 31.182C35.6456 31.2638 35.5269 31.3243 35.4 31.36C35.3476 31.3768 35.2941 31.3902 35.24 31.4Z" fill="#2E42CC"/>
<path d="M24 43.44C22.6191 43.4374 21.2954 42.8876 20.3189 41.9111C19.3424 40.9346 18.7927 39.611 18.79 38.23C18.79 37.9648 18.8954 37.7104 19.0829 37.5229C19.2705 37.3354 19.5248 37.23 19.79 37.23H28.21C28.4753 37.23 28.7296 37.3354 28.9171 37.5229C29.1047 37.7104 29.21 37.9648 29.21 38.23C29.2074 39.611 28.6576 40.9346 27.6811 41.9111C26.7047 42.8876 25.381 43.4374 24 43.44ZM21 39.23C21.2109 39.8726 21.6193 40.4322 22.167 40.8289C22.7147 41.2256 23.3737 41.4392 24.05 41.4392C24.7263 41.4392 25.3853 41.2256 25.9331 40.8289C26.4808 40.4322 26.8892 39.8726 27.1 39.23H21Z" fill="#2E42CC"/>
<path d="M39.5599 39.23H8.43994C8.17472 39.23 7.92037 39.1246 7.73283 38.9371C7.5453 38.7496 7.43994 38.4952 7.43994 38.23V36.47C7.44259 34.5957 8.18831 32.799 9.51362 31.4737C10.8389 30.1484 12.6357 29.4026 14.5099 29.4H33.5099C35.3842 29.4026 37.181 30.1484 38.5063 31.4737C39.8316 32.799 40.5773 34.5957 40.5799 36.47V38.23C40.58 38.363 40.5535 38.4947 40.502 38.6174C40.4505 38.74 40.375 38.8511 40.28 38.9443C40.185 39.0374 40.0724 39.1106 39.9488 39.1597C39.8251 39.2088 39.6929 39.2327 39.5599 39.23ZM9.43994 37.23H38.5599V36.47C38.5599 35.1253 38.0258 33.8358 37.075 32.885C36.1242 31.9342 34.8346 31.4 33.4899 31.4H14.4899C13.1453 31.4 11.8557 31.9342 10.9049 32.885C9.9541 33.8358 9.41994 35.1253 9.41994 36.47L9.43994 37.23Z" fill="#2E42CC"/>
<path d="M25.79 9.91C25.6882 9.91543 25.5864 9.90006 25.4907 9.86481C25.3951 9.82956 25.3076 9.77518 25.2337 9.70498C25.1597 9.63479 25.1009 9.55026 25.0607 9.45656C25.0205 9.36285 24.9999 9.26194 25 9.16C25 8.88417 24.8905 8.61964 24.6954 8.4246C24.5004 8.22957 24.2359 8.12 23.96 8.12C23.6842 8.12 23.4197 8.22957 23.2247 8.4246C23.0296 8.61964 22.92 8.88417 22.92 9.16C22.92 9.35891 22.841 9.54967 22.7004 9.69033C22.5597 9.83098 22.369 9.91 22.17 9.91C21.9711 9.91 21.7804 9.83098 21.6397 9.69033C21.4991 9.54967 21.42 9.35891 21.42 9.16C21.42 8.48635 21.6876 7.84029 22.164 7.36394C22.6403 6.8876 23.2864 6.62 23.96 6.62C24.6337 6.62 25.2798 6.8876 25.7561 7.36394C26.2324 7.84029 26.5 8.48635 26.5 9.16C26.4979 9.35146 26.4236 9.53507 26.292 9.67412C26.1604 9.81317 25.9811 9.89741 25.79 9.91Z" fill="#2E42CC"/>
<path d="M27.7799 10.17C27.6793 10.1727 27.5791 10.1553 27.4853 10.1189C27.3914 10.0826 27.3057 10.0279 27.2331 9.95811C27.1605 9.88834 27.1026 9.80483 27.0625 9.71246C27.0225 9.62009 27.0012 9.52068 26.9999 9.42001C26.9999 9.02211 26.9216 8.6281 26.7693 8.26048C26.617 7.89287 26.3938 7.55884 26.1125 7.27748C25.8311 6.99612 25.4971 6.77293 25.1295 6.62066C24.7619 6.46839 24.3678 6.39001 23.9699 6.39001C23.572 6.39001 23.178 6.46839 22.8104 6.62066C22.4428 6.77293 22.1088 6.99612 21.8274 7.27748C21.546 7.55884 21.3229 7.89287 21.1706 8.26048C21.0183 8.6281 20.9399 9.02211 20.9399 9.42001C20.9399 9.61893 20.8609 9.80969 20.7203 9.95034C20.5796 10.091 20.3889 10.17 20.1899 10.17C19.991 10.17 19.8003 10.091 19.6596 9.95034C19.519 9.80969 19.4399 9.61893 19.4399 9.42001C19.4399 8.21858 19.9172 7.06636 20.7667 6.21682C21.6163 5.36728 22.7685 4.89001 23.9699 4.89001C25.1714 4.89001 26.3236 5.36728 27.1731 6.21682C28.0227 7.06636 28.4999 8.21858 28.4999 9.42001C28.5001 9.61384 28.4252 9.80019 28.291 9.94001C28.1568 10.0798 27.9736 10.1623 27.7799 10.17Z" fill="#2E42CC"/>
<path d="M5.94002 28.64C5.68739 28.6391 5.44445 28.5427 5.26002 28.37C4.254 27.4429 3.45106 26.3173 2.90185 25.0643C2.35264 23.8113 2.06909 22.4581 2.06909 21.09C2.06909 19.7219 2.35264 18.3687 2.90185 17.1157C3.45106 15.8627 4.254 14.7371 5.26002 13.81C5.44739 13.6237 5.70084 13.5192 5.96502 13.5192C6.22921 13.5192 6.48266 13.6237 6.67002 13.81C6.76375 13.903 6.83815 14.0136 6.88891 14.1354C6.93968 14.2573 6.96582 14.388 6.96582 14.52C6.96582 14.652 6.93968 14.7827 6.88891 14.9046C6.83815 15.0264 6.76375 15.137 6.67002 15.23C5.86566 15.969 5.22352 16.867 4.78426 17.8671C4.345 18.8672 4.11819 19.9477 4.11819 21.04C4.11819 22.1323 4.345 23.2127 4.78426 24.2128C5.22352 25.2129 5.86566 26.111 6.67002 26.85C6.76375 26.943 6.83815 27.0536 6.88891 27.1754C6.93968 27.2973 6.96582 27.428 6.96582 27.56C6.96582 27.692 6.93968 27.8227 6.88891 27.9446C6.83815 28.0664 6.76375 28.177 6.67002 28.27C6.58132 28.3797 6.47042 28.4693 6.34461 28.5331C6.21879 28.5969 6.08091 28.6333 5.94002 28.64Z" fill="#7284FF"/>
<path d="M9.34 25.93C9.08871 25.9319 8.84594 25.839 8.66 25.67C8.02597 25.0874 7.51981 24.3795 7.17358 23.5911C6.82734 22.8027 6.64856 21.9511 6.64856 21.09C6.64856 20.229 6.82734 19.3773 7.17358 18.5889C7.51981 17.8005 8.02597 17.0926 8.66 16.51C8.75783 16.422 8.87204 16.3542 8.9961 16.3103C9.12015 16.2665 9.25163 16.2475 9.38303 16.2545C9.51442 16.2614 9.64316 16.2942 9.76189 16.3509C9.88062 16.4076 9.98701 16.4872 10.075 16.585C10.163 16.6828 10.2308 16.7971 10.2747 16.9211C10.3185 17.0452 10.3375 17.1767 10.3306 17.308C10.3236 17.4394 10.2908 17.5682 10.2341 17.6869C10.1774 17.8056 10.0978 17.912 10 18C9.56762 18.3945 9.22225 18.8749 8.98595 19.4103C8.74965 19.9458 8.6276 20.5247 8.6276 21.11C8.6276 21.6953 8.74965 22.2742 8.98595 22.8097C9.22225 23.3452 9.56762 23.8255 10 24.22C10.193 24.4007 10.3067 24.6505 10.316 24.9147C10.3254 25.1789 10.2298 25.4361 10.05 25.63C9.95738 25.7245 9.84694 25.7997 9.72506 25.8512C9.60319 25.9027 9.4723 25.9295 9.34 25.93Z" fill="#7284FF"/>
</svg>
