<svg width="48" height="48" viewBox="0 0 48 48" fill="none" xmlns="http://www.w3.org/2000/svg">
<path d="M33.83 45.49H14.17C13.3213 45.49 12.5073 45.1528 11.9072 44.5527C11.3071 43.9526 10.97 43.1387 10.97 42.29V6.34999C10.97 5.93023 11.0528 5.5146 11.2137 5.12691C11.3747 4.73923 11.6106 4.38713 11.9078 4.09078C12.2051 3.79443 12.558 3.55966 12.9461 3.39994C13.3343 3.24021 13.7502 3.15867 14.17 3.15999H33.83C34.6725 3.16527 35.4788 3.50369 36.0727 4.10136C36.6666 4.69903 37 5.5074 37 6.34999V42.29C37 43.1335 36.667 43.9429 36.0733 44.5422C35.4797 45.1415 34.6735 45.4821 33.83 45.49ZM14.17 5.15999C13.8578 5.16524 13.5603 5.29292 13.3414 5.51552C13.1226 5.73813 12.9999 6.03782 13 6.34999V42.29C13 42.6082 13.1264 42.9135 13.3514 43.1385C13.5765 43.3636 13.8817 43.49 14.2 43.49H33.83C33.9876 43.49 34.1436 43.459 34.2892 43.3986C34.4348 43.3383 34.5671 43.2499 34.6785 43.1385C34.7899 43.0271 34.8783 42.8948 34.9386 42.7492C34.9989 42.6036 35.03 42.4476 35.03 42.29V6.34999C35.03 6.19287 34.9989 6.03731 34.9384 5.89227C34.878 5.74724 34.7895 5.61561 34.6779 5.50498C34.5663 5.39434 34.434 5.3069 34.2884 5.24769C34.1429 5.18847 33.9871 5.15867 33.83 5.15999H14.17Z" fill="#2E42CC"/>
<path d="M36 12.23H12C11.7348 12.23 11.4804 12.1247 11.2929 11.9371C11.1054 11.7496 11 11.4952 11 11.23C11 10.9648 11.1054 10.7104 11.2929 10.5229C11.4804 10.3354 11.7348 10.23 12 10.23H36C36.2652 10.23 36.5196 10.3354 36.7071 10.5229C36.8946 10.7104 37 10.9648 37 11.23C37 11.4952 36.8946 11.7496 36.7071 11.9371C36.5196 12.1247 36.2652 12.23 36 12.23Z" fill="#2E42CC"/>
<path d="M36.06 39H12C11.7348 39 11.4804 38.8946 11.2929 38.7071C11.1054 38.5196 11 38.2652 11 38C11 37.7348 11.1054 37.4804 11.2929 37.2929C11.4804 37.1054 11.7348 37 12 37H36.06C36.3252 37 36.5796 37.1054 36.7671 37.2929C36.9546 37.4804 37.06 37.7348 37.06 38C37.06 38.2652 36.9546 38.5196 36.7671 38.7071C36.5796 38.8946 36.3252 39 36.06 39Z" fill="#2E42CC"/>
<path d="M30 8.88H21.55C21.2848 8.88 21.0305 8.77465 20.8429 8.58711C20.6554 8.39958 20.55 8.14522 20.55 7.88C20.55 7.61479 20.6554 7.36043 20.8429 7.1729C21.0305 6.98536 21.2848 6.88 21.55 6.88H30C30.2653 6.88 30.5196 6.98536 30.7072 7.1729C30.8947 7.36043 31 7.61479 31 7.88C31 8.14522 30.8947 8.39958 30.7072 8.58711C30.5196 8.77465 30.2653 8.88 30 8.88Z" fill="#2E42CC"/>
<path d="M27.05 42.18H21C20.7348 42.18 20.4804 42.0746 20.2929 41.8871C20.1054 41.6996 20 41.4452 20 41.18C20 40.9148 20.1054 40.6604 20.2929 40.4729C20.4804 40.2853 20.7348 40.18 21 40.18H27C27.2652 40.18 27.5196 40.2853 27.7071 40.4729C27.8946 40.6604 28 40.9148 28 41.18C28 41.4452 27.8946 41.6996 27.7071 41.8871C27.5196 42.0746 27.2652 42.18 27 42.18H27.05Z" fill="#2E42CC"/>
<path d="M31.2499 18.45L30.3499 18.36C28.296 18.0974 26.3275 17.3763 24.5899 16.25C24.5216 16.2067 24.4475 16.1731 24.3699 16.15H24.2299C24.1667 16.145 24.1032 16.145 24.0399 16.15C23.9767 16.145 23.9132 16.145 23.8499 16.15H23.6999C23.6231 16.1749 23.5493 16.2085 23.4799 16.25C21.7424 17.3763 19.7738 18.0974 17.7199 18.36L16.8199 18.45V24.74C16.8199 29.86 21.2999 32.45 23.7199 33.12H23.7799H24.0199C24.103 33.1298 24.1869 33.1298 24.2699 33.12C26.6899 32.47 31.2699 29.89 31.2699 24.72L31.2499 18.45ZM18.7999 24.74V20.22C20.6473 19.8659 22.4177 19.1889 24.0299 18.22V31.13C22.9399 30.76 18.7999 29.1 18.7999 24.74Z" fill="#7284FF"/>
<path d="M17.8 8.88C18.3523 8.88 18.8 8.43229 18.8 7.88C18.8 7.32772 18.3523 6.88 17.8 6.88C17.2478 6.88 16.8 7.32772 16.8 7.88C16.8 8.43229 17.2478 8.88 17.8 8.88Z" fill="#2E42CC"/>
</svg>
