<svg width="48" height="48" viewBox="0 0 48 48" fill="none" xmlns="http://www.w3.org/2000/svg">
<path d="M26.89 21C29.11 20.1277 30.9558 18.5078 32.1089 16.4199C33.262 14.332 33.65 11.9071 33.2061 9.5636C32.7622 7.22012 31.5142 5.1051 29.6774 3.58356C27.8405 2.06202 25.5302 1.2294 23.145 1.2294C20.7599 1.2294 18.4495 2.06202 16.6127 3.58356C14.7759 5.1051 13.5279 7.22012 13.084 9.5636C12.64 11.9071 13.0281 14.332 14.1812 16.4199C15.3343 18.5078 17.1801 20.1277 19.4 21V42.81C19.4497 43.7698 19.8659 44.6739 20.5627 45.3357C21.2596 45.9975 22.184 46.3664 23.145 46.3664C24.1061 46.3664 25.0305 45.9975 25.7273 45.3357C26.4242 44.6739 26.8404 43.7698 26.89 42.81V42.69H32.07V37.55H30.2V36.55H32.07V31.23H26.89V21ZM21.4 33.23H24.89V40.69H21.4V33.23ZM14.91 11.51C14.91 9.8803 15.3933 8.28718 16.2987 6.93211C17.2042 5.57705 18.4911 4.52091 19.9967 3.89725C21.5024 3.27358 23.1592 3.1104 24.7576 3.42834C26.356 3.74628 27.8242 4.53107 28.9766 5.68345C30.129 6.83584 30.9138 8.30407 31.2317 9.90247C31.5497 11.5009 31.3865 13.1577 30.7628 14.6633C30.1391 16.169 29.083 17.4559 27.7279 18.3613C26.3729 19.2667 24.7798 19.75 23.15 19.75C20.9647 19.75 18.8688 18.8819 17.3235 17.3366C15.7782 15.7913 14.91 13.6954 14.91 11.51ZM23.15 21.75C23.7336 21.7473 24.3158 21.6938 24.89 21.59V31.23H21.4V21.59C21.9776 21.6942 22.5632 21.7477 23.15 21.75ZM23.15 44.55C22.9207 44.5513 22.6934 44.5073 22.4811 44.4204C22.2688 44.3336 22.0758 44.2056 21.9132 44.0439C21.7506 43.8822 21.6215 43.69 21.5334 43.4782C21.4454 43.2664 21.4 43.0394 21.4 42.81V42.69H24.89V42.81C24.89 43.2715 24.7067 43.7141 24.3804 44.0404C24.0541 44.3667 23.6115 44.55 23.15 44.55ZM27 33.23H30.05V34.57H28.2V39.57H30.07V40.71H27V33.23Z" fill="#2E42CC"/>
<path d="M27.86 7.00001L23.5 5.35001C23.4468 5.34526 23.3933 5.34526 23.34 5.35001H23.15C23.0801 5.34447 23.0099 5.34447 22.94 5.35001H22.79L18.43 7.00001C18.2386 7.07152 18.0737 7.19995 17.9575 7.368C17.8413 7.53606 17.7794 7.73568 17.78 7.94001V11.76C17.78 15.61 22.5 18.01 22.7 18.11H22.82H22.89H23.14H23.39H23.46H23.58C23.78 18.01 28.5 15.61 28.5 11.76V7.92001C28.4974 7.72028 28.4351 7.5259 28.321 7.36193C28.207 7.19795 28.0464 7.0719 27.86 7.00001ZM19.78 11.76V8.61001L23.15 7.35001V16.05C21.91 15.31 19.78 13.64 19.78 11.74V11.76Z" fill="#7284FF"/>
</svg>
