<svg width="48" height="48" viewBox="0 0 48 48" fill="none" xmlns="http://www.w3.org/2000/svg">
<path d="M13.5701 34H13.1401C13.1498 33.9236 13.1498 33.8464 13.1401 33.77L9.35006 17.66C9.29971 17.4391 9.17581 17.2418 8.99867 17.1005C8.82154 16.9592 8.60166 16.8822 8.37506 16.8822C8.14846 16.8822 7.92858 16.9592 7.75144 17.1005C7.5743 17.2418 7.45041 17.4391 7.40006 17.66L3.62006 33.81C3.61 33.8863 3.61 33.9637 3.62006 34.04H3.18006C2.8158 34.0426 2.46735 34.1892 2.21071 34.4477C1.95407 34.7062 1.81005 35.0557 1.81006 35.42V36.06C1.8763 37.7568 2.59694 39.3621 3.82087 40.5392C5.04481 41.7162 6.67696 42.3737 8.37506 42.3737C10.0732 42.3737 11.7053 41.7162 12.9292 40.5392C14.1532 39.3621 14.8738 37.7568 14.9401 36.06V35.42C14.9454 35.2363 14.914 35.0533 14.8476 34.8819C14.7813 34.7105 14.6814 34.5541 14.5538 34.4218C14.4262 34.2895 14.2734 34.1841 14.1045 34.1116C13.9356 34.0392 13.7539 34.0013 13.5701 34ZM8.38006 22.27L11.1301 34H5.62006L8.38006 22.27ZM13.3801 36.06C13.3801 37.3861 12.8533 38.6579 11.9156 39.5955C10.9779 40.5332 9.70614 41.06 8.38006 41.06C7.05398 41.06 5.78221 40.5332 4.84452 39.5955C3.90684 38.6579 3.38006 37.3861 3.38006 36.06V35.59H13.3801V36.06Z" fill="#7284FF"/>
<path d="M43.64 28.79H43.21C43.2196 28.7103 43.2196 28.6297 43.21 28.55L39.42 12.4C39.42 12.1348 39.3147 11.8804 39.1271 11.6929C38.9396 11.5054 38.6852 11.4 38.42 11.4C38.1548 11.4 37.9004 11.5054 37.7129 11.6929C37.5254 11.8804 37.42 12.1348 37.42 12.4L33.69 28.55C33.6804 28.6297 33.6804 28.7103 33.69 28.79H33.26C32.8967 28.79 32.5482 28.9343 32.2913 29.1913C32.0344 29.4482 31.89 29.7966 31.89 30.16V30.8C32.0025 32.4619 32.742 34.019 33.9589 35.1563C35.1759 36.2936 36.7794 36.9263 38.445 36.9263C40.1107 36.9263 41.7142 36.2936 42.9311 35.1563C44.148 34.019 44.8875 32.4619 45 30.8V30.16C45 29.7984 44.8571 29.4514 44.6023 29.1948C44.3475 28.9381 44.0016 28.7926 43.64 28.79ZM38.44 17L41.2 28.79H35.69L38.44 17ZM43.44 30.78C43.44 32.1061 42.9132 33.3778 41.9755 34.3155C41.0379 35.2532 39.7661 35.78 38.44 35.78C37.1139 35.78 35.8422 35.2532 34.9045 34.3155C33.9668 33.3778 33.44 32.1061 33.44 30.78V30.32H43.44V30.78Z" fill="#7284FF"/>
<path d="M41.69 10.2C41.5752 9.55989 41.2127 8.99087 40.681 8.61644C40.1493 8.24201 39.4914 8.09236 38.85 8.19999L26.59 10.37L26.66 9.47999C26.6688 9.34781 26.6512 9.21522 26.6083 9.0899C26.5654 8.96458 26.498 8.84904 26.41 8.74999C27.058 8.02371 27.4142 7.08329 27.41 6.10999C27.41 5.04912 26.9886 4.0317 26.2385 3.28156C25.4883 2.53141 24.4709 2.10999 23.41 2.10999C22.3492 2.10999 21.3317 2.53141 20.5816 3.28156C19.8315 4.0317 19.41 5.04912 19.41 6.10999C19.4049 7.08347 19.7612 8.02421 20.41 8.74999C20.3221 8.84904 20.2547 8.96458 20.2118 9.0899C20.1689 9.21522 20.1513 9.34781 20.16 9.47999L20.31 11.48L7.20002 13.78C6.63606 13.8854 6.12696 14.1853 5.76147 14.6275C5.39599 15.0698 5.19729 15.6263 5.20002 16.2C5.18202 16.3394 5.18202 16.4806 5.20002 16.62C5.30326 17.1831 5.60124 17.692 6.04181 18.0577C6.48239 18.4233 7.0375 18.6223 7.61002 18.62C7.74964 18.6347 7.89041 18.6347 8.03002 18.62L20.73 16.39L22.41 38.19H18.06C17.7191 38.19 17.3814 38.2573 17.0666 38.3881C16.7517 38.5189 16.4657 38.7105 16.2251 38.9521C15.9844 39.1937 15.7939 39.4804 15.6643 39.7958C15.5347 40.1112 15.4687 40.449 15.47 40.79V41.5H14.93C14.2422 41.5 13.5824 41.7725 13.0951 42.258C12.6078 42.7434 12.3327 43.4022 12.33 44.09V45.67C12.33 45.9352 12.4354 46.1896 12.6229 46.3771C12.8105 46.5646 13.0648 46.67 13.33 46.67H33.54C33.8052 46.67 34.0596 46.5646 34.2471 46.3771C34.4347 46.1896 34.54 45.9352 34.54 45.67V44.07C34.54 43.729 34.4727 43.3914 34.3419 43.0765C34.2111 42.7616 34.0195 42.4757 33.7779 42.235C33.5363 41.9944 33.2496 41.8038 32.9342 41.6743C32.6189 41.5447 32.281 41.4787 31.94 41.48H31.67V40.77C31.67 40.4285 31.6028 40.0905 31.4721 39.775C31.3414 39.4596 31.1499 39.1729 30.9085 38.9315C30.6671 38.6901 30.3804 38.4986 30.065 38.3679C29.7496 38.2372 29.4115 38.17 29.07 38.17H24.46L26.21 15.41L39.69 13C40.3245 12.8898 40.89 12.5342 41.2643 12.0102C41.6386 11.4862 41.7915 10.8359 41.69 10.2ZM24.58 10.4V10.72L22.37 11.11L22.32 10.4H24.58ZM23.44 4.10999C23.8356 4.10999 24.2223 4.22728 24.5512 4.44705C24.8801 4.66681 25.1364 4.97917 25.2878 5.34462C25.4392 5.71007 25.4788 6.1122 25.4016 6.50017C25.3244 6.88813 25.1339 7.24449 24.8542 7.5242C24.5745 7.8039 24.2182 7.99439 23.8302 8.07156C23.4422 8.14873 23.0401 8.10912 22.6747 7.95774C22.3092 7.80637 21.9968 7.55002 21.7771 7.22113C21.5573 6.89223 21.44 6.50555 21.44 6.10999C21.44 5.57955 21.6507 5.07084 22.0258 4.69577C22.4009 4.3207 22.9096 4.10999 23.44 4.10999ZM32.54 44.11V44.69H14.33V44.11C14.33 44.0317 14.3456 43.9541 14.3759 43.8819C14.4061 43.8096 14.4505 43.7441 14.5064 43.6892C14.5622 43.6343 14.6284 43.591 14.7012 43.562C14.7739 43.5329 14.8517 43.5187 14.93 43.52H31.93C32.0832 43.5144 32.2326 43.5688 32.3464 43.6714C32.4603 43.7741 32.5297 43.917 32.54 44.07V44.11ZM29.67 40.81V41.38H17.47V40.81C17.4687 40.7317 17.483 40.6539 17.512 40.5811C17.5411 40.5084 17.5843 40.4422 17.6393 40.3863C17.6942 40.3305 17.7597 40.2861 17.8319 40.2558C17.9041 40.2256 17.9817 40.21 18.06 40.21H29.06C29.2142 40.2071 29.3635 40.2636 29.4771 40.3679C29.5907 40.4722 29.6598 40.6161 29.67 40.77V40.81ZM23.44 25.38L22.72 16L24.17 15.75L23.44 25.38ZM39.35 11.06L24 13.77L21.49 14.2L7.70002 16.64C7.582 16.6612 7.46039 16.6347 7.36193 16.5662C7.26347 16.4978 7.19624 16.393 7.17502 16.275C7.15381 16.157 7.18034 16.0353 7.24879 15.9369C7.31724 15.8384 7.422 15.7712 7.54002 15.75L39.18 10.18H39.26C39.3679 10.1779 39.4731 10.2138 39.5572 10.2815C39.6413 10.3491 39.6989 10.4441 39.72 10.55C39.7374 10.6665 39.7084 10.7852 39.6392 10.8805C39.57 10.9759 39.4662 11.0403 39.35 11.06Z" fill="#2E42CC"/>
</svg>
