<svg width="48" height="48" viewBox="0 0 48 48" fill="none" xmlns="http://www.w3.org/2000/svg">
<path d="M15.87 27.31C16.6432 27.31 17.27 26.6832 17.27 25.91C17.27 25.1368 16.6432 24.51 15.87 24.51C15.0968 24.51 14.47 25.1368 14.47 25.91C14.47 26.6832 15.0968 27.31 15.87 27.31Z" fill="#7284FF"/>
<path d="M20.8301 27.31C21.6033 27.31 22.2301 26.6832 22.2301 25.91C22.2301 25.1368 21.6033 24.51 20.8301 24.51C20.0569 24.51 19.4301 25.1368 19.4301 25.91C19.4301 26.6832 20.0569 27.31 20.8301 27.31Z" fill="#7284FF"/>
<path d="M25.78 27.31C26.5532 27.31 27.18 26.6832 27.18 25.91C27.18 25.1368 26.5532 24.51 25.78 24.51C25.0068 24.51 24.38 25.1368 24.38 25.91C24.38 26.6832 25.0068 27.31 25.78 27.31Z" fill="#7284FF"/>
<path d="M40.0601 7.75H15.2601C14.9948 7.75 14.7405 7.85536 14.5529 8.04289C14.3654 8.23043 14.2601 8.48478 14.2601 8.75V16.31H8.43005C8.16484 16.31 7.91048 16.4154 7.72295 16.6029C7.53541 16.7904 7.43005 17.0448 7.43005 17.31V40.64C7.42986 40.8403 7.48981 41.036 7.60214 41.2018C7.71446 41.3676 7.87399 41.4959 8.06005 41.57C8.1774 41.618 8.30326 41.6419 8.43005 41.64C8.56717 41.6396 8.70273 41.6109 8.82831 41.5559C8.9539 41.5008 9.06681 41.4205 9.16005 41.32L14.7001 35.43H33.2201C33.4853 35.43 33.7396 35.3246 33.9272 35.1371C34.1147 34.9496 34.2201 34.6952 34.2201 34.43V27.33L39.3301 32.76C39.4233 32.8605 39.5362 32.9408 39.6618 32.9959C39.7874 33.0509 39.9229 33.0796 40.0601 33.08C40.1863 33.0761 40.3111 33.0525 40.4301 33.01C40.6161 32.9359 40.7756 32.8076 40.888 32.6418C41.0003 32.476 41.0602 32.2803 41.0601 32.08V8.75C41.0601 8.48478 40.9547 8.23043 40.7672 8.04289C40.5796 7.85536 40.3253 7.75 40.0601 7.75ZM32.2201 33.43H14.2201C14.0854 33.4305 13.9521 33.4582 13.8284 33.5115C13.7047 33.5648 13.593 33.6425 13.5001 33.74L9.43005 38.11V18.31H32.2201V33.43ZM39.0601 29.55L35.0001 25.18C34.9068 25.0795 34.7939 24.9992 34.6683 24.9441C34.5427 24.8891 34.4072 24.8604 34.2701 24.86V17.31C34.2701 17.0448 34.1647 16.7904 33.9772 16.6029C33.7896 16.4154 33.5353 16.31 33.2701 16.31H16.2701V9.75H39.0701L39.0601 29.55Z" fill="#2E42CC"/>
</svg>
