<svg width="48" height="48" viewBox="0 0 48 48" fill="none" xmlns="http://www.w3.org/2000/svg">
<path d="M46.56 43.08H1.70996C1.44474 43.08 1.19039 42.9746 1.00285 42.7871C0.815318 42.5995 0.709961 42.3452 0.709961 42.08V10.41C0.709961 10.1448 0.815318 9.8904 1.00285 9.70287C1.19039 9.51533 1.44474 9.40997 1.70996 9.40997H46.56C46.8252 9.40997 47.0795 9.51533 47.2671 9.70287C47.4546 9.8904 47.56 10.1448 47.56 10.41V42.08C47.56 42.3452 47.4546 42.5995 47.2671 42.7871C47.0795 42.9746 46.8252 43.08 46.56 43.08ZM2.70996 41.08H45.56V11.41H2.70996V41.08Z" fill="#2E42CC"/>
<path d="M46.56 16.79H1.70996C1.44474 16.79 1.19039 16.6846 1.00285 16.4971C0.815318 16.3095 0.709961 16.0552 0.709961 15.79C0.709961 15.5248 0.815318 15.2704 1.00285 15.0829C1.19039 14.8953 1.44474 14.79 1.70996 14.79H46.56C46.8252 14.79 47.0795 14.8953 47.2671 15.0829C47.4546 15.2704 47.56 15.5248 47.56 15.79C47.56 16.0552 47.4546 16.3095 47.2671 16.4971C47.0795 16.6846 46.8252 16.79 46.56 16.79Z" fill="#2E42CC"/>
<path d="M5.74003 13.89C6.19843 13.89 6.57003 13.5184 6.57003 13.06C6.57003 12.6016 6.19843 12.23 5.74003 12.23C5.28164 12.23 4.91003 12.6016 4.91003 13.06C4.91003 13.5184 5.28164 13.89 5.74003 13.89Z" fill="#2E42CC"/>
<path d="M8.89006 13.89C9.34845 13.89 9.72006 13.5184 9.72006 13.06C9.72006 12.6016 9.34845 12.23 8.89006 12.23C8.43166 12.23 8.06006 12.6016 8.06006 13.06C8.06006 13.5184 8.43166 13.89 8.89006 13.89Z" fill="#2E42CC"/>
<path d="M24.16 36.08C24.8007 36.08 25.32 35.5607 25.32 34.92C25.32 34.2794 24.8007 33.76 24.16 33.76C23.5193 33.76 23 34.2794 23 34.92C23 35.5607 23.5193 36.08 24.16 36.08Z" fill="#7284FF"/>
<path d="M24.16 33.06C23.8948 33.06 23.6405 32.9547 23.4529 32.7671C23.2654 32.5796 23.16 32.3252 23.16 32.06V27.27C23.16 27.0048 23.2654 26.7504 23.4529 26.5629C23.6405 26.3754 23.8948 26.27 24.16 26.27C24.4253 26.27 24.6796 26.3754 24.8671 26.5629C25.0547 26.7504 25.16 27.0048 25.16 27.27V32.06C25.16 32.3252 25.0547 32.5796 24.8671 32.7671C24.6796 32.9547 24.4253 33.06 24.16 33.06Z" fill="#7284FF"/>
<path d="M33.71 39H14.61C14.4376 38.9995 14.2682 38.9545 14.1184 38.8693C13.9685 38.7841 13.8432 38.6616 13.7547 38.5136C13.6661 38.3657 13.6173 38.1974 13.613 38.0251C13.6087 37.8527 13.649 37.6822 13.73 37.53L23.28 19.87C23.3657 19.7112 23.4927 19.5786 23.6476 19.4862C23.8026 19.3938 23.9796 19.345 24.16 19.345C24.3404 19.345 24.5174 19.3938 24.6724 19.4862C24.8273 19.5786 24.9543 19.7112 25.04 19.87L34.59 37.5C34.6784 37.653 34.7246 37.8268 34.724 38.0035C34.7234 38.1803 34.676 38.3537 34.5866 38.5061C34.4971 38.6586 34.3689 38.7846 34.2149 38.8713C34.0609 38.9581 33.8867 39.0025 33.71 39ZM16.29 37H32L24.16 22.42L16.29 37Z" fill="#7284FF"/>
</svg>
