<svg width="48" height="48" viewBox="0 0 48 48" fill="none" xmlns="http://www.w3.org/2000/svg">
<path d="M36.6099 42.55H35.7499V43.23C35.7473 43.4086 35.6745 43.579 35.5473 43.7044C35.42 43.8297 35.2486 43.9 35.0699 43.9H37.2799C37.3688 43.9013 37.457 43.885 37.5394 43.8519C37.6219 43.8188 37.6969 43.7697 37.7602 43.7073C37.8235 43.645 37.8737 43.5707 37.908 43.4887C37.9423 43.4068 37.96 43.3188 37.9599 43.23V37.6H36.6099V42.55Z" fill="#2E42CC"/>
<path d="M34.26 43.23V42.55H25.79V43.9H34.93C34.7523 43.9 34.5819 43.8294 34.4563 43.7038C34.3306 43.5781 34.26 43.4077 34.26 43.23Z" fill="#2E42CC"/>
<path d="M24.6301 34.56L23.3201 34.27L22.5101 34L21.1801 33.54L19.9801 33.14V32.14C20.6177 31.7524 21.1455 31.2079 21.5132 30.5585C21.8808 29.909 22.0759 29.1763 22.0801 28.43V27C22.2174 26.9578 22.3379 26.8731 22.4241 26.7581C22.5104 26.6431 22.558 26.5037 22.5601 26.36V23.69C22.5443 22.7104 22.1406 21.7771 21.4376 21.0947C20.7346 20.4124 19.7897 20.0367 18.8101 20.05H16.1801C15.2004 20.0367 14.2555 20.4124 13.5525 21.0947C12.8495 21.7771 12.4459 22.7104 12.4301 23.69V27.08C12.4295 27.2233 12.4762 27.3627 12.563 27.4766C12.6498 27.5905 12.7718 27.6726 12.9101 27.71V28.46C12.9103 29.2059 13.1027 29.9391 13.4688 30.589C13.8349 31.2388 14.3623 31.7833 15.0001 32.17V33.23L12.0001 34.23L10.9301 34.44C10.3821 34.5395 9.8872 34.8304 9.53371 35.2608C9.18023 35.6912 8.99111 36.2331 9.00006 36.79V39.79C9.00302 39.9482 9.06187 40.1003 9.1662 40.2193C9.27052 40.3382 9.41359 40.4164 9.57006 40.44V46.2C9.56871 46.2897 9.58538 46.3787 9.61907 46.4618C9.65277 46.545 9.70281 46.6205 9.76622 46.6839C9.82964 46.7473 9.90514 46.7973 9.98825 46.831C10.0714 46.8647 10.1604 46.8814 10.2501 46.88H25.1101C25.2904 46.88 25.4634 46.8084 25.5909 46.6809C25.7184 46.5533 25.7901 46.3804 25.7901 46.2V40.58C25.8789 40.58 25.9668 40.5624 26.0488 40.5281C26.1307 40.4938 26.205 40.4435 26.2674 40.3803C26.3297 40.317 26.3789 40.2419 26.412 40.1595C26.445 40.0771 26.4614 39.9889 26.4601 39.9V36.9C26.4693 36.3594 26.2925 35.8319 25.9594 35.406C25.6263 34.98 25.157 34.6814 24.6301 34.56ZM13.7901 25.35V23.69C13.8058 23.0711 14.0661 22.4837 14.5141 22.0563C14.9621 21.629 15.5611 21.3966 16.1801 21.41H18.8101C19.429 21.3966 20.0281 21.629 20.476 22.0563C20.924 22.4837 21.1843 23.0711 21.2001 23.69V25.43C17.9001 24.99 16.8501 24.43 16.5501 24.15C16.4311 24.0584 16.2852 24.0087 16.1351 24.0087C15.9849 24.0087 15.839 24.0584 15.7201 24.15C15.1157 24.6096 14.4696 25.0114 13.7901 25.35ZM14.2601 28.46V26.62C14.924 26.3111 15.5569 25.9394 16.1501 25.51C17.5982 26.1688 19.1461 26.5811 20.7301 26.73V28.46C20.7301 29.2557 20.414 30.0187 19.8514 30.5813C19.2888 31.144 18.5257 31.46 17.7301 31.46H17.3201C16.9211 31.468 16.5245 31.3963 16.1536 31.2491C15.7826 31.1019 15.4448 30.8822 15.1598 30.6028C14.8749 30.3235 14.6485 29.9901 14.494 29.6221C14.3395 29.2542 14.26 28.8591 14.2601 28.46ZM17.2601 32.83H17.6701C17.9793 32.8275 18.2875 32.794 18.5901 32.73V33.3C18.3491 34.1852 17.9676 35.0259 17.4601 35.79C16.9568 35.0235 16.5756 34.1835 16.3301 33.3V32.73C16.6458 32.796 16.9675 32.8295 17.2901 32.83H17.2601ZM11.9001 45.53H10.9001V40.48H11.9001V45.53ZM24.4301 43.73V45.53H23.5701V40.53H24.4301V43.73ZM25.1301 39.12H22.7601C22.6704 39.1187 22.5814 39.1353 22.4982 39.169C22.4151 39.2027 22.3396 39.2528 22.2762 39.3162C22.2128 39.3796 22.1628 39.4551 22.1291 39.5382C22.0954 39.6213 22.0787 39.7104 22.0801 39.8V45.53H13.3801V39.8C13.3814 39.7104 13.3647 39.6213 13.331 39.5382C13.2973 39.4551 13.2473 39.3796 13.1839 39.3162C13.1205 39.2528 13.045 39.2027 12.9619 39.169C12.8788 39.1353 12.7897 39.1187 12.7001 39.12H10.3301V36.79C10.3262 36.5532 10.4065 36.3228 10.5567 36.1396C10.7068 35.9565 10.9171 35.8326 11.1501 35.79L12.2601 35.57H12.3501L15.3501 34.57C15.7958 35.58 16.3207 36.553 16.9201 37.48C16.9824 37.5745 17.0669 37.6521 17.1663 37.7062C17.2657 37.7603 17.3769 37.7891 17.4901 37.79C17.6034 37.7899 17.7149 37.7615 17.8144 37.7074C17.914 37.6533 17.9984 37.5751 18.0601 37.48C18.6867 36.5293 19.2287 35.5254 19.6801 34.48L21.1501 34.98L22.5101 35.44L22.9201 35.58H23.0001L24.3401 35.87C24.5139 35.9139 24.6728 36.0037 24.8001 36.13C24.8952 36.2206 24.9715 36.3291 25.0247 36.4492C25.0779 36.5693 25.1069 36.6987 25.1101 36.83L25.1301 39.12Z" fill="#2E42CC"/>
<path d="M27.86 28.24C27.9497 28.2386 28.0387 28.2553 28.1218 28.289C28.2049 28.3227 28.2804 28.3727 28.3438 28.4361C28.4072 28.4996 28.4573 28.5751 28.491 28.6582C28.5247 28.7413 28.5413 28.8303 28.54 28.92V29.75C28.8459 29.814 29.1574 29.8475 29.47 29.85H29.88C30.1892 29.8469 30.4973 29.8134 30.8 29.75V28.92C30.7883 28.8244 30.7971 28.7275 30.8257 28.6356C30.8543 28.5437 30.9021 28.4589 30.9659 28.3869C31.0297 28.3148 31.1081 28.2571 31.1958 28.2176C31.2836 28.1781 31.3787 28.1577 31.475 28.1577C31.5712 28.1577 31.6664 28.1781 31.7541 28.2176C31.8419 28.2571 31.9203 28.3148 31.9841 28.3869C32.0479 28.4589 32.0957 28.5437 32.1243 28.6356C32.1529 28.7275 32.1616 28.8244 32.15 28.92V29.19C32.7915 28.8058 33.3229 28.2623 33.6926 27.6123C34.0622 26.9623 34.2577 26.2278 34.26 25.48V24C34.3963 23.9573 34.5155 23.8722 34.6 23.7571C34.6846 23.642 34.7301 23.5028 34.73 23.36V20.71C34.7142 19.7339 34.3133 18.8036 33.6146 18.1218C32.916 17.44 31.9762 17.0619 31 17.07H28.35C27.3721 17.0593 26.4297 17.4362 25.7289 18.1183C25.0281 18.8003 24.6258 19.7322 24.61 20.71V24.1C24.6114 24.2425 24.6575 24.3809 24.7419 24.4957C24.8262 24.6105 24.9445 24.696 25.08 24.74V25.48C25.0832 26.2276 25.2791 26.9617 25.6487 27.6116C26.0183 28.2614 26.5491 28.805 27.19 29.19V28.92C27.1887 28.8312 27.205 28.743 27.2381 28.6605C27.2712 28.5781 27.3203 28.503 27.3827 28.4397C27.445 28.3765 27.5193 28.3262 27.6013 28.2919C27.6832 28.2576 27.7712 28.24 27.86 28.24ZM26 22.37V20.71C26.0157 20.0911 26.2761 19.5036 26.724 19.0763C27.172 18.649 27.771 18.4166 28.39 18.43H31C31.6189 18.4166 32.218 18.649 32.6659 19.0763C33.1139 19.5036 33.3743 20.0911 33.39 20.71V22.45C30.09 22.01 29.04 21.45 28.74 21.18C28.621 21.0884 28.4751 21.0387 28.325 21.0387C28.1748 21.0387 28.0289 21.0884 27.91 21.18C27.3113 21.6346 26.672 22.033 26 22.37ZM26.48 23.64C27.1419 23.3332 27.7717 22.9614 28.36 22.53C29.8081 23.1888 31.356 23.6011 32.94 23.75V25.48C32.94 26.2756 32.6239 27.0387 32.0613 27.6013C31.4987 28.1639 30.7356 28.48 29.94 28.48H29.53C28.7343 28.48 27.9713 28.1639 27.4087 27.6013C26.8461 27.0387 26.53 26.2756 26.53 25.48L26.48 23.64Z" fill="#2E42CC"/>
<path d="M36.8001 31.58L35.5001 31.3L32.1501 30.16V28.92C32.1617 28.8245 32.1529 28.7276 32.1243 28.6357C32.0957 28.5438 32.048 28.459 31.9842 28.3869C31.9204 28.3149 31.842 28.2572 31.7542 28.2177C31.6665 28.1781 31.5713 28.1577 31.4751 28.1577C31.3788 28.1577 31.2837 28.1781 31.1959 28.2177C31.1081 28.2572 31.0298 28.3149 30.966 28.3869C30.9021 28.459 30.8544 28.5438 30.8258 28.6357C30.7972 28.7276 30.7884 28.8245 30.8001 28.92V30.33C30.5515 31.2093 30.1704 32.0455 29.6701 32.81C29.1697 32.0455 28.7886 31.2093 28.5401 30.33V28.92C28.5517 28.8245 28.5429 28.7276 28.5143 28.6357C28.4857 28.5438 28.438 28.459 28.3742 28.3869C28.3104 28.3149 28.232 28.2572 28.1442 28.2177C28.0565 28.1781 27.9613 28.1577 27.8651 28.1577C27.7688 28.1577 27.6737 28.1781 27.5859 28.2177C27.4981 28.2572 27.4198 28.3149 27.356 28.3869C27.2921 28.459 27.2444 28.5438 27.2158 28.6357C27.1872 28.7276 27.1784 28.8245 27.1901 28.92V30.26L24.1401 31.26L23.0701 31.47C22.5848 31.5624 22.141 31.8054 21.8017 32.1645C21.4624 32.5235 21.2449 32.9803 21.1801 33.47L22.5101 33.93V33.74C22.5058 33.5047 22.5847 33.2753 22.7328 33.0924C22.881 32.9095 23.0889 32.7847 23.3201 32.74L24.4401 32.52H24.5301L27.5301 31.52C27.9802 32.5296 28.5085 33.5026 29.1101 34.43C29.1718 34.5249 29.2563 34.6029 29.3558 34.6569C29.4554 34.7109 29.5668 34.7392 29.6801 34.7392C29.7933 34.7392 29.9047 34.7109 30.0043 34.6569C30.1038 34.6029 30.1883 34.5249 30.2501 34.43C30.8689 33.4764 31.4074 32.4729 31.8601 31.43L35.1101 32.53H35.1801L36.5201 32.82C36.7475 32.8688 36.9508 32.9954 37.095 33.1779C37.2392 33.3604 37.3152 33.5875 37.3101 33.82V36.18H35.0701C34.9804 36.1787 34.8914 36.1953 34.8082 36.229C34.7251 36.2627 34.6496 36.3128 34.5862 36.3762C34.5228 36.4396 34.4728 36.5151 34.4391 36.5982C34.4054 36.6813 34.3887 36.7704 34.3901 36.86V42.48H34.2601V43.16C34.2601 43.3377 34.3306 43.5081 34.4563 43.6338C34.5819 43.7594 34.7524 43.83 34.9301 43.83H35.0701C35.2487 43.83 35.4201 43.7598 35.5474 43.6344C35.6746 43.509 35.7474 43.3386 35.7501 43.16V42.48H35.6101V37.48H36.6101V37.58H38.0001C38.0889 37.5814 38.1771 37.565 38.2595 37.5319C38.342 37.4988 38.417 37.4497 38.4803 37.3874C38.5436 37.325 38.5938 37.2507 38.6281 37.1688C38.6624 37.0868 38.6801 36.9989 38.6801 36.91V33.91C38.6826 33.3646 38.497 32.835 38.1545 32.4106C37.8121 31.9861 37.3337 31.6928 36.8001 31.58Z" fill="#2E42CC"/>
<path d="M17.45 18.94C17.2887 18.9423 17.1322 18.8853 17.01 18.78L13.01 15.36H3.14998C2.97229 15.36 2.80187 15.2894 2.67622 15.1638C2.55057 15.0381 2.47998 14.8677 2.47998 14.69V4.82002C2.47998 4.64233 2.55057 4.47191 2.67622 4.34626C2.80187 4.22061 2.97229 4.15002 3.14998 4.15002H17.45C17.6277 4.15002 17.7981 4.22061 17.9237 4.34626C18.0494 4.47191 18.12 4.64233 18.12 4.82002V18.27C18.1202 18.3984 18.0836 18.5241 18.0145 18.6322C17.9453 18.7404 17.8466 18.8264 17.73 18.88C17.6417 18.9188 17.5464 18.9392 17.45 18.94ZM3.81998 14H13.22C13.3777 14.0011 13.5299 14.0577 13.65 14.16L16.78 16.8V5.49002H3.77998L3.81998 14Z" fill="#2E42CC"/>
<path d="M14.75 8.91001H5.85001C5.66171 8.91001 5.48112 8.83521 5.34797 8.70206C5.21482 8.5689 5.14001 8.38831 5.14001 8.20001C5.14001 8.10724 5.15844 8.01539 5.19424 7.9298C5.23004 7.84422 5.2825 7.7666 5.34856 7.70147C5.41463 7.63633 5.49298 7.58498 5.57906 7.5504C5.66515 7.51581 5.75725 7.49869 5.85001 7.50001H14.75C14.9357 7.50001 15.1137 7.57376 15.245 7.70504C15.3763 7.83631 15.45 8.01436 15.45 8.20001C15.4513 8.29277 15.4342 8.38488 15.3996 8.47096C15.365 8.55705 15.3137 8.6354 15.2486 8.70146C15.1834 8.76753 15.1058 8.81998 15.0202 8.85579C14.9346 8.89159 14.8428 8.91002 14.75 8.91001Z" fill="#7284FF"/>
<path d="M14.75 11.55H8.40995C8.22165 11.55 8.04106 11.4752 7.90791 11.3421C7.77475 11.2089 7.69995 11.0283 7.69995 10.84C7.69995 10.6517 7.77475 10.4711 7.90791 10.338C8.04106 10.2048 8.22165 10.13 8.40995 10.13H14.75C14.9383 10.13 15.1188 10.2048 15.252 10.338C15.3851 10.4711 15.46 10.6517 15.46 10.84C15.46 11.0283 15.3851 11.2089 15.252 11.3421C15.1188 11.4752 14.9383 11.55 14.75 11.55Z" fill="#7284FF"/>
<path d="M29 16C29.1577 15.999 29.3099 15.9423 29.43 15.84L33.43 12.42H43.25C43.3396 12.4214 43.4287 12.4047 43.5118 12.371C43.5949 12.3373 43.6704 12.2873 43.7338 12.2239C43.7972 12.1604 43.8473 12.0849 43.881 12.0018C43.9147 11.9187 43.9313 11.8297 43.93 11.74V1.87003C43.93 1.78119 43.9123 1.69324 43.878 1.6113C43.8437 1.52935 43.7935 1.45504 43.7302 1.39269C43.6669 1.33035 43.5919 1.2812 43.5094 1.24813C43.427 1.21505 43.3388 1.1987 43.25 1.20003H29C28.8223 1.20003 28.6519 1.27061 28.5262 1.39626C28.4006 1.52191 28.33 1.69233 28.33 1.87003V15.32C28.3291 15.4472 28.3656 15.5719 28.435 15.6785C28.5043 15.7852 28.6034 15.8691 28.72 15.92C28.8044 15.9714 28.9011 15.999 29 16ZM42.62 11.07H33.26C33.0993 11.0713 32.9439 11.1278 32.82 11.23L29.7 13.87V2.54003H42.7L42.62 11.07Z" fill="#2E42CC"/>
<path d="M31.73 6.19999H40.62C40.8083 6.19999 40.9889 6.12519 41.1221 5.99203C41.2552 5.85888 41.33 5.67829 41.33 5.48999C41.33 5.39722 41.3116 5.30537 41.2758 5.21978C41.24 5.13419 41.1875 5.05658 41.1215 4.99144C41.0554 4.92631 40.9771 4.87496 40.891 4.84037C40.8049 4.80579 40.7128 4.78866 40.62 4.78999H31.73C31.6373 4.78866 31.5452 4.80579 31.4591 4.84037C31.373 4.87496 31.2946 4.92631 31.2286 4.99144C31.1625 5.05658 31.11 5.13419 31.0742 5.21978C31.0384 5.30537 31.02 5.39722 31.02 5.48999C31.02 5.67829 31.0948 5.85888 31.228 5.99203C31.3611 6.12519 31.5417 6.19999 31.73 6.19999Z" fill="#7284FF"/>
<path d="M31.73 8.91001H38.07C38.2583 8.91001 38.4389 8.83521 38.5721 8.70206C38.7052 8.5689 38.78 8.38831 38.78 8.20001C38.78 8.10724 38.7616 8.01539 38.7258 7.9298C38.69 7.84422 38.6375 7.7666 38.5715 7.70147C38.5054 7.63633 38.4271 7.58498 38.341 7.5504C38.2549 7.51581 38.1628 7.49869 38.07 7.50001H31.73C31.6373 7.49869 31.5452 7.51581 31.4591 7.5504C31.373 7.58498 31.2946 7.63633 31.2286 7.70147C31.1625 7.7666 31.11 7.84422 31.0742 7.9298C31.0384 8.01539 31.02 8.10724 31.02 8.20001C31.02 8.38831 31.0948 8.5689 31.228 8.70206C31.3611 8.83521 31.5417 8.91001 31.73 8.91001Z" fill="#7284FF"/>
</svg>
