<svg width="48" height="48" viewBox="0 0 48 48" fill="none" xmlns="http://www.w3.org/2000/svg">
<path d="M41.07 36.5C41.0639 35.768 41.0171 35.0369 40.93 34.31L45.63 33.72C45.742 34.6391 45.7988 35.5641 45.8 36.49L41.07 36.5ZM40.26 31.27C39.95 30.2782 39.5482 29.3174 39.06 28.4L43.24 26.17C43.8601 27.3457 44.3755 28.5738 44.78 29.84L40.26 31.27ZM37.35 25.78C36.7048 24.965 35.9887 24.2087 35.21 23.52L38.34 20C39.3353 20.8754 40.2491 21.8393 41.07 22.88L37.35 25.78ZM32.69 21.67C31.7951 21.1351 30.8548 20.68 29.88 20.31L31.56 15.88C32.8013 16.3482 33.9965 16.9307 35.13 17.62L32.69 21.67ZM26.88 19.48C25.8541 19.2915 24.8131 19.1977 23.77 19.2V14.46C25.1116 14.457 26.4506 14.5775 27.77 14.82L26.88 19.48Z" fill="#7284FF"/>
<path d="M6.47999 36.49H1.73999C1.75583 30.6601 4.07876 25.0735 8.20113 20.9511C12.3235 16.8288 17.9101 14.5058 23.74 14.49V19.2C19.1612 19.2132 14.7742 21.04 11.5393 24.2805C8.30446 27.521 6.48526 31.9112 6.47999 36.49Z" fill="#2E42CC"/>
<path d="M31.36 24.79L25.53 28.55L20.53 31.76C20.1162 31.9045 19.7402 32.1403 19.43 32.45C18.8651 33.0149 18.5477 33.7811 18.5477 34.58C18.5477 35.3789 18.8651 36.1451 19.43 36.71C19.9949 37.2749 20.7611 37.5923 21.56 37.5923C22.3589 37.5923 23.1251 37.2749 23.69 36.71C23.9976 36.3981 24.2331 36.0226 24.38 35.61L27.59 30.61L31.36 24.79Z" fill="#7284FF"/>
</svg>
