<svg width="48" height="48" viewBox="0 0 48 48" fill="none" xmlns="http://www.w3.org/2000/svg">
<path d="M34.33 34.75H19.39C19.1248 34.75 18.8704 34.6447 18.6829 34.4571C18.4954 34.2696 18.39 34.0152 18.39 33.75V29.57C18.39 29.3048 18.4954 29.0504 18.6829 28.8629C18.8704 28.6754 19.1248 28.57 19.39 28.57H34.33C34.5952 28.57 34.8496 28.6754 35.0371 28.8629C35.2247 29.0504 35.33 29.3048 35.33 29.57V33.75C35.33 34.0152 35.2247 34.2696 35.0371 34.4571C34.8496 34.6447 34.5952 34.75 34.33 34.75ZM20.39 32.75H33.33V30.57H20.39V32.75Z" fill="#2E42CC"/>
<path d="M39.64 37.77C39.6457 37.7269 39.6457 37.6832 39.64 37.64V6.10002C39.6401 5.25306 39.3043 4.44064 38.7063 3.84081C38.1084 3.24098 37.297 2.90267 36.4501 2.90002H16.75C15.9014 2.90002 15.0874 3.23717 14.4873 3.83728C13.8872 4.4374 13.55 5.25133 13.55 6.10002V17C13.55 17.2652 13.6554 17.5196 13.8429 17.7071C14.0305 17.8947 14.2848 18 14.55 18C14.8153 18 15.0696 17.8947 15.2572 17.7071C15.4447 17.5196 15.55 17.2652 15.55 17V12H37.6101V36.77H15.55V31.18C15.55 30.9148 15.4447 30.6605 15.2572 30.4729C15.0696 30.2854 14.8153 30.18 14.55 30.18C14.2848 30.18 14.0305 30.2854 13.8429 30.4729C13.6554 30.6605 13.55 30.9148 13.55 31.18V42C13.55 42.8487 13.8872 43.6626 14.4873 44.2628C15.0874 44.8629 15.9014 45.2 16.75 45.2H36.42C36.8398 45.2 37.2554 45.1172 37.6431 44.9562C38.0308 44.7953 38.3829 44.5594 38.6793 44.2622C38.9756 43.9649 39.2104 43.612 39.3701 43.2239C39.5298 42.8357 39.6114 42.4198 39.6101 42V37.9C39.6237 37.8576 39.6337 37.8141 39.64 37.77ZM15.55 10V6.10002C15.55 5.78176 15.6765 5.47654 15.9015 5.2515C16.1266 5.02645 16.4318 4.90002 16.75 4.90002H36.42C36.5772 4.90002 36.7327 4.93113 36.8778 4.99155C37.0228 5.05198 37.1544 5.14053 37.2651 5.2521C37.3757 5.36366 37.4631 5.49603 37.5224 5.64156C37.5816 5.78709 37.6114 5.94291 37.6101 6.10002V10H15.55ZM36.42 43.23H16.75C16.4318 43.23 16.1266 43.1036 15.9015 42.8786C15.6765 42.6535 15.55 42.3483 15.55 42.03V38.77H37.6101V42C37.6154 42.1596 37.5886 42.3187 37.5312 42.4677C37.4738 42.6167 37.387 42.7527 37.276 42.8675C37.1649 42.9822 37.0319 43.0735 36.8849 43.1358C36.7378 43.1981 36.5797 43.2301 36.42 43.23Z" fill="#2E42CC"/>
<path d="M32.6 8.63H24.13C23.8648 8.63 23.6104 8.52465 23.4229 8.33711C23.2354 8.14958 23.13 7.89522 23.13 7.63C23.13 7.36479 23.2354 7.11043 23.4229 6.9229C23.6104 6.73536 23.8648 6.63 24.13 6.63H32.6C32.8652 6.63 33.1196 6.73536 33.3071 6.9229C33.4946 7.11043 33.6 7.36479 33.6 7.63C33.6 7.89522 33.4946 8.14958 33.3071 8.33711C33.1196 8.52465 32.8652 8.63 32.6 8.63Z" fill="#2E42CC"/>
<path d="M30.64 16.71H19.39C19.1248 16.71 18.8704 16.6047 18.6829 16.4171C18.4954 16.2296 18.39 15.9752 18.39 15.71C18.39 15.4448 18.4954 15.1905 18.6829 15.0029C18.8704 14.8154 19.1248 14.71 19.39 14.71H30.64C30.9052 14.71 31.1596 14.8154 31.3471 15.0029C31.5347 15.1905 31.64 15.4448 31.64 15.71C31.64 15.9752 31.5347 16.2296 31.3471 16.4171C31.1596 16.6047 30.9052 16.71 30.64 16.71Z" fill="#2E42CC"/>
<path d="M34.08 21.25H19.39C19.1248 21.25 18.8704 21.1446 18.6829 20.9571C18.4954 20.7696 18.39 20.5152 18.39 20.25C18.39 19.9848 18.4954 19.7304 18.6829 19.5429C18.8704 19.3554 19.1248 19.25 19.39 19.25H34.08C34.3452 19.25 34.5996 19.3554 34.7871 19.5429C34.9747 19.7304 35.08 19.9848 35.08 20.25C35.08 20.5152 34.9747 20.7696 34.7871 20.9571C34.5996 21.1446 34.3452 21.25 34.08 21.25Z" fill="#2E42CC"/>
<path d="M29.63 41.93H23.63C23.3648 41.93 23.1104 41.8246 22.9229 41.6371C22.7354 41.4496 22.63 41.1952 22.63 40.93C22.63 40.6648 22.7354 40.4104 22.9229 40.2229C23.1104 40.0353 23.3648 39.93 23.63 39.93H29.63C29.8952 39.93 30.1496 40.0353 30.3371 40.2229C30.5246 40.4104 30.63 40.6648 30.63 40.93C30.63 41.1952 30.5246 41.4496 30.3371 41.6371C30.1496 41.8246 29.8952 41.93 29.63 41.93Z" fill="#2E42CC"/>
<path d="M21.13 8.63002H20.93C20.8019 8.60228 20.6799 8.55146 20.57 8.48002L20.42 8.35002C20.2353 8.16376 20.1311 7.91236 20.13 7.65002C20.1293 7.51842 20.1545 7.38795 20.2043 7.26612C20.254 7.14428 20.3273 7.03346 20.42 6.94002C20.6074 6.75377 20.8608 6.64923 21.125 6.64923C21.3892 6.64923 21.6427 6.75377 21.83 6.94002C21.9245 7.03264 21.9997 7.14308 22.0512 7.26496C22.1027 7.38683 22.1295 7.51772 22.13 7.65002C22.13 7.91524 22.0247 8.16959 21.8371 8.35713C21.6496 8.54467 21.3952 8.65002 21.13 8.65002V8.63002Z" fill="#2E42CC"/>
<path d="M34.07 16.71H33.88L33.69 16.65L33.52 16.56C33.4636 16.5247 33.4129 16.4809 33.37 16.43C33.1838 16.2426 33.0792 15.9892 33.0792 15.725C33.0792 15.4608 33.1838 15.2074 33.37 15.02C33.5087 14.8816 33.685 14.7869 33.877 14.7478C34.069 14.7087 34.2682 14.7268 34.45 14.8C34.5736 14.8506 34.6858 14.9254 34.78 15.02C34.8727 15.1134 34.946 15.2243 34.9958 15.3461C35.0455 15.4679 35.0708 15.5984 35.07 15.73C35.0798 15.793 35.0798 15.8571 35.07 15.92C35.0745 15.9833 35.0745 16.0468 35.07 16.11C35.0424 16.1698 35.0089 16.2268 34.97 16.28C34.9416 16.3382 34.9006 16.3895 34.85 16.43C34.7476 16.5297 34.6249 16.6063 34.4904 16.6546C34.3558 16.7029 34.2125 16.7218 34.07 16.71Z" fill="#2E42CC"/>
<path d="M19.77 25.91C19.5076 25.9089 19.2562 25.8047 19.07 25.62C18.9762 25.527 18.9018 25.4164 18.8511 25.2946C18.8003 25.1727 18.7742 25.042 18.7742 24.91C18.7742 24.778 18.8003 24.6473 18.8511 24.5254C18.9018 24.4036 18.9762 24.293 19.07 24.2C19.1621 24.1101 19.2708 24.0387 19.39 23.99C19.6036 23.9019 19.8411 23.8905 20.0621 23.9576C20.2832 24.0248 20.4742 24.1665 20.6026 24.3586C20.731 24.5506 20.789 24.7812 20.7666 25.0112C20.7443 25.2411 20.643 25.4563 20.48 25.62C20.3865 25.7127 20.2757 25.786 20.1539 25.8358C20.032 25.8855 19.9016 25.9108 19.77 25.91Z" fill="#2E42CC"/>
<path d="M33.9201 25.73H22.6801C22.4148 25.73 22.1605 25.6246 21.9729 25.4371C21.7854 25.2496 21.6801 24.9952 21.6801 24.73C21.6801 24.4648 21.7854 24.2104 21.9729 24.0229C22.1605 23.8353 22.4148 23.73 22.6801 23.73H33.9201C34.1853 23.73 34.4396 23.8353 34.6272 24.0229C34.8147 24.2104 34.9201 24.4648 34.9201 24.73C34.9201 24.9952 34.8147 25.2496 34.6272 25.4371C34.4396 25.6246 34.1853 25.73 33.9201 25.73Z" fill="#2E42CC"/>
<path d="M11.9 32.65L11.64 32.58C9.23001 31.93 4.64001 29.35 4.64001 24.18V17.89L5.54001 17.8C7.59392 17.5374 9.56248 16.8162 11.3 15.69L11.87 15.3L12.43 15.69C14.1665 16.8184 16.1355 17.5397 18.19 17.8L19.09 17.89V24.18C19.09 29.35 14.53 31.93 12.09 32.58L11.9 32.65ZM6.67001 19.65V24.17C6.67001 28.52 10.79 30.17 11.9 30.56C12.99 30.19 17.12 28.56 17.12 24.17V19.66C15.2798 19.3187 13.5133 18.6588 11.9 17.71C10.2826 18.6577 8.51304 19.3175 6.67001 19.66V19.65Z" fill="#7284FF"/>
<path d="M14.51 27.61H14.42C13.3514 27.5004 12.3237 27.1407 11.42 26.56C10.5667 26.0065 9.84632 25.2713 9.3104 24.4069C8.77448 23.5425 8.43627 22.5704 8.31998 21.56C8.30551 21.4367 8.3167 21.3118 8.35284 21.193C8.38898 21.0743 8.44929 20.9643 8.52998 20.87C8.60746 20.7755 8.70317 20.6976 8.81141 20.6409C8.91964 20.5842 9.03819 20.5499 9.15998 20.54H10.24C10.464 20.5402 10.6803 20.6212 10.8494 20.7682C11.0184 20.9152 11.1287 21.1182 11.16 21.34C11.1979 21.6335 11.2684 21.922 11.37 22.2C11.4364 22.369 11.4519 22.5537 11.4146 22.7314C11.3773 22.9091 11.2888 23.072 11.16 23.2L10.9 23.46C11.3169 24.089 11.8707 24.6155 12.52 25L12.79 24.73C12.9172 24.6001 13.0802 24.5108 13.2581 24.4734C13.4361 24.436 13.6212 24.4522 13.79 24.52C14.0673 24.6239 14.356 24.6944 14.65 24.73C14.8727 24.773 15.0742 24.8904 15.2214 25.063C15.3686 25.2357 15.4527 25.4532 15.46 25.68V26.68C15.46 26.8038 15.4353 26.9264 15.3873 27.0406C15.3393 27.1547 15.269 27.2581 15.1806 27.3448C15.0921 27.4314 14.9872 27.4995 14.872 27.545C14.7569 27.5906 14.6338 27.6126 14.51 27.61Z" fill="#7284FF"/>
</svg>
