<svg width="48" height="48" viewBox="0 0 48 48" fill="none" xmlns="http://www.w3.org/2000/svg">
<path d="M39.7499 39.89L30.7999 30.94C32.266 28.7591 32.8627 26.1085 32.4727 23.5098C32.0827 20.911 30.7342 18.5524 28.6926 16.8979C26.651 15.2434 24.0641 14.4129 21.441 14.5698C18.8178 14.7267 16.3484 15.8597 14.5186 17.7458C12.6888 19.6319 11.6311 22.1345 11.5538 24.7612C11.4764 27.3879 12.3849 29.9485 14.1004 31.939C15.816 33.9296 18.2145 35.206 20.8238 35.5171C23.4332 35.8282 26.0645 35.1514 28.1999 33.62L37.1099 42.53C37.2792 42.7205 37.4857 42.8743 37.7166 42.9821C37.9475 43.09 38.198 43.1494 38.4527 43.1569C38.7074 43.1644 38.961 43.1198 39.1979 43.0258C39.4347 42.9317 39.6498 42.7902 39.83 42.61C40.0102 42.4299 40.1517 42.2147 40.2457 41.9779C40.3398 41.741 40.3844 41.4875 40.3769 41.2327C40.3694 40.978 40.3099 40.7275 40.2021 40.4966C40.0943 40.2657 39.9404 40.0593 39.7499 39.89ZM27.5699 31.58C27.3162 31.7966 27.049 31.997 26.7699 32.18C25.021 33.3518 22.9011 33.8372 20.8165 33.5431C18.7319 33.249 16.829 32.1961 15.4725 30.5862C14.1159 28.9762 13.4011 26.9224 13.4648 24.8181C13.5285 22.7138 14.3664 20.707 15.8178 19.1821C17.2693 17.6572 19.2324 16.7214 21.331 16.554C23.4296 16.3866 25.5162 16.9993 27.1911 18.2748C28.8659 19.5504 30.0113 21.399 30.4078 23.4666C30.8044 25.5341 30.4241 27.6753 29.3399 29.48C29.1709 29.7736 28.9803 30.0544 28.7699 30.32C28.4119 30.778 28.01 31.2 27.5699 31.58Z" fill="#2E42CC"/>
<path d="M20.7 30C20.7099 29.7211 20.8017 29.4512 20.964 29.2242C21.1263 28.9971 21.352 28.8229 21.6127 28.7234C21.8735 28.6239 22.1578 28.6034 22.4301 28.6645C22.7025 28.7256 22.9507 28.8656 23.1439 29.0671C23.3371 29.2685 23.4667 29.5224 23.5164 29.797C23.5662 30.0717 23.5339 30.3549 23.4235 30.6113C23.3132 30.8676 23.1298 31.0858 22.8962 31.2386C22.6626 31.3913 22.3891 31.4718 22.11 31.47C21.9197 31.4702 21.7313 31.4318 21.5562 31.3572C21.3811 31.2827 21.2229 31.1734 21.0912 31.036C20.9594 30.8987 20.8569 30.7361 20.7896 30.558C20.7224 30.38 20.6919 30.1902 20.7 30ZM20.48 22L20.43 20.73C20.4247 20.5056 20.4642 20.2823 20.5461 20.0733C20.628 19.8643 20.7508 19.6737 20.9072 19.5126C21.0636 19.3516 21.2505 19.2233 21.457 19.1353C21.6635 19.0472 21.8855 19.0013 22.11 19C22.3367 18.9998 22.561 19.0455 22.7695 19.1342C22.9781 19.223 23.1665 19.3531 23.3234 19.5165C23.4804 19.68 23.6026 19.8736 23.6828 20.0856C23.763 20.2976 23.7995 20.5236 23.79 20.75L23.74 22L23.34 26.61C23.3151 26.8956 23.1844 27.1616 22.9735 27.3559C22.7626 27.5501 22.4868 27.6586 22.2 27.66H22C21.7116 27.6611 21.4333 27.5538 21.2203 27.3593C21.0073 27.1648 20.8751 26.8973 20.85 26.61L20.48 22Z" fill="#7284FF"/>
<path d="M22.07 6.31H22.13C22.4694 6.31 22.795 6.44485 23.0351 6.6849C23.2751 6.92495 23.41 7.25052 23.41 7.59V11.3C23.41 11.6395 23.2751 11.965 23.0351 12.2051C22.795 12.4451 22.4694 12.58 22.13 12.58H22.07C21.9023 12.58 21.7364 12.5468 21.5816 12.4824C21.4269 12.4179 21.2864 12.3235 21.1684 12.2045C21.0503 12.0855 20.957 11.9443 20.8938 11.7891C20.8305 11.6338 20.7986 11.4676 20.8 11.3V7.59C20.7986 7.42238 20.8305 7.25616 20.8938 7.10092C20.957 6.94568 21.0503 6.80449 21.1684 6.6855C21.2864 6.56651 21.4269 6.47207 21.5816 6.40762C21.7364 6.34317 21.9023 6.30999 22.07 6.31Z" fill="#7284FF"/>
<path d="M27.63 11.88L29 8.43003C29.0626 8.27474 29.1553 8.13337 29.2727 8.01404C29.3902 7.89472 29.5301 7.79979 29.6844 7.73474C29.8387 7.66968 30.0043 7.63577 30.1717 7.63496C30.3391 7.63416 30.5051 7.66646 30.66 7.73003C30.8158 7.79063 30.958 7.88164 31.0783 7.99774C31.1986 8.11385 31.2945 8.25273 31.3606 8.4063C31.4267 8.55986 31.4616 8.72505 31.4632 8.89222C31.4648 9.0594 31.4331 9.22522 31.37 9.38003L29.99 12.83C29.9294 12.9858 29.8384 13.128 29.7223 13.2483C29.6062 13.3686 29.4673 13.4646 29.3137 13.5307C29.1601 13.5968 28.995 13.6316 28.8278 13.6332C28.6606 13.6348 28.4948 13.6031 28.34 13.54H28.28C27.9753 13.4041 27.7364 13.1539 27.6148 12.8432C27.4931 12.5326 27.4986 12.1866 27.63 11.88Z" fill="#7284FF"/>
<path d="M33.48 15.16L36 12.41C36.2276 12.1607 36.5444 12.0114 36.8815 11.9945C37.2186 11.9777 37.5487 12.0946 37.8 12.32C38.0493 12.5476 38.1987 12.8644 38.2155 13.2015C38.2324 13.5386 38.1154 13.8687 37.89 14.12L35.38 16.86C35.1525 17.1093 34.8357 17.2586 34.4986 17.2755C34.1614 17.2923 33.8313 17.1754 33.58 16.95V16.9C33.3467 16.6762 33.2067 16.3724 33.1881 16.0497C33.1696 15.7269 33.2739 15.409 33.48 15.16Z" fill="#7284FF"/>
<path d="M13.48 7.73001H13.54C13.8546 7.60766 14.2046 7.61347 14.5149 7.74621C14.8253 7.87894 15.0712 8.12802 15.2 8.44001L16.58 11.89C16.6418 12.045 16.6724 12.2106 16.6701 12.3774C16.6678 12.5442 16.6327 12.7089 16.5668 12.8621C16.5009 13.0153 16.4054 13.154 16.2858 13.2704C16.1663 13.3867 16.025 13.4783 15.87 13.54H15.81C15.6551 13.6018 15.4895 13.6324 15.3227 13.6301C15.1559 13.6278 14.9912 13.5927 14.8379 13.5268C14.6847 13.4609 14.546 13.3654 14.4297 13.2458C14.3133 13.1263 14.2217 12.985 14.16 12.83L12.78 9.39001C12.7165 9.23511 12.6841 9.06917 12.685 8.90174C12.6858 8.73431 12.7197 8.56868 12.7847 8.41441C12.8498 8.26013 12.9447 8.12024 13.064 8.00278C13.1834 7.88532 13.3247 7.79262 13.48 7.73001Z" fill="#7284FF"/>
<path d="M6.37997 12.37C6.63126 12.1446 6.96138 12.0277 7.2985 12.0445C7.63561 12.0614 7.95242 12.2107 8.17997 12.46L10.69 15.2C10.9153 15.4513 11.0323 15.7814 11.0155 16.1185C10.9986 16.4556 10.8493 16.7724 10.6 17C10.4768 17.1134 10.3324 17.2014 10.1751 17.2588C10.0177 17.3162 9.85062 17.3419 9.68333 17.3345C9.51603 17.327 9.35186 17.2866 9.20026 17.2155C9.04865 17.1443 8.91262 17.0439 8.79997 16.92L6.29997 14.16C6.07642 13.9105 5.95959 13.5833 5.97454 13.2487C5.9895 12.914 6.13506 12.5985 6.37997 12.37Z" fill="#7284FF"/>
</svg>
