<svg width="48" height="48" viewBox="0 0 48 48" fill="none" xmlns="http://www.w3.org/2000/svg">
<path d="M34.16 26.82L32.16 26.38L26.91 24.6V22.6C26.91 22.3348 26.8046 22.0804 26.6171 21.8929C26.4296 21.7053 26.1752 21.6 25.91 21.6C25.6448 21.6 25.3904 21.7053 25.2029 21.8929C25.0154 22.0804 24.91 22.3348 24.91 22.6V24.78C24.5263 26.2005 23.9187 27.5507 23.11 28.78C22.3013 27.5507 21.6937 26.2005 21.31 24.78V22.64C21.31 22.3748 21.2046 22.1204 21.0171 21.9329C20.8296 21.7453 20.5752 21.64 20.31 21.64C20.0448 21.64 19.7904 21.7453 19.6029 21.9329C19.4154 22.1204 19.31 22.3748 19.31 22.64V24.75L14.54 26.37L12.88 26.69C12.0666 26.8598 11.3363 27.3044 10.8119 27.949C10.2875 28.5936 10.0008 29.399 10 30.23V34.9C10 35.1652 10.1054 35.4195 10.2929 35.6071C10.4804 35.7946 10.7348 35.9 11 35.9V44.83C11 45.0952 11.1054 45.3495 11.2929 45.5371C11.4804 45.7246 11.7348 45.83 12 45.83H35.1C35.3652 45.83 35.6196 45.7246 35.8071 45.5371C35.9946 45.3495 36.1 45.0952 36.1 44.83V36C36.3421 35.9682 36.5642 35.849 36.7245 35.6648C36.8847 35.4806 36.9721 35.2441 36.97 35V30.34C36.9681 29.5221 36.6894 28.7289 36.1791 28.0897C35.6688 27.4505 34.9572 27.003 34.16 26.82ZM13 35.9H14.65V43.83H13V35.9ZM16.65 34.9V32C16.65 31.7348 16.5446 31.4804 16.3571 31.2929C16.1696 31.1053 15.9152 31 15.65 31C15.3848 31 15.1304 31.1053 14.9429 31.2929C14.7554 31.4804 14.65 31.7348 14.65 32V33.9H12V30.23C12.0023 29.8559 12.1341 29.4941 12.3729 29.2061C12.6117 28.918 12.9428 28.7216 13.31 28.65L15 28.32H15.14L19.82 26.72C20.5196 28.3006 21.3456 29.8222 22.29 31.27C22.3807 31.4103 22.505 31.5257 22.6518 31.6056C22.7985 31.6855 22.9629 31.7274 23.13 31.7274C23.2971 31.7274 23.4615 31.6855 23.6082 31.6056C23.755 31.5257 23.8793 31.4103 23.97 31.27C24.9397 29.7833 25.7826 28.2178 26.49 26.59L31.56 28.32H31.67L33.76 28.77C34.1126 28.8551 34.4265 29.056 34.6513 29.3407C34.8761 29.6254 34.9989 29.9772 35 30.34V33.9H32.48V32C32.48 31.7348 32.3746 31.4804 32.1871 31.2929C31.9996 31.1053 31.7452 31 31.48 31C31.2148 31 30.9604 31.1053 30.7729 31.2929C30.5854 31.4804 30.48 31.7348 30.48 32V43.83H16.68L16.65 34.9ZM32.45 43.83V36.06H34.1V43.83H32.45Z" fill="#2E42CC"/>
<path d="M34.17 24.72H30.33C30.0647 24.72 29.8104 24.6146 29.6228 24.4271C29.4353 24.2395 29.33 23.9852 29.33 23.72C29.33 23.4548 29.4353 23.2004 29.6228 23.0129C29.8104 22.8253 30.0647 22.72 30.33 22.72H33.17V19.72C33.17 19.4548 33.2753 19.2004 33.4629 19.0129C33.6504 18.8253 33.9047 18.72 34.17 18.72C34.4352 18.72 34.6895 18.8253 34.8771 19.0129C35.0646 19.2004 35.17 19.4548 35.17 19.72V23.72C35.17 23.9852 35.0646 24.2395 34.8771 24.4271C34.6895 24.6146 34.4352 24.72 34.17 24.72Z" fill="#7284FF"/>
<path d="M34.17 8.46001C33.9048 8.46001 33.6504 8.35466 33.4629 8.16712C33.2753 7.97958 33.17 7.72523 33.17 7.46001V4.70001H30.36C30.0948 4.70001 29.8404 4.59466 29.6529 4.40712C29.4653 4.21958 29.36 3.96523 29.36 3.70001C29.36 3.4348 29.4653 3.18044 29.6529 2.99291C29.8404 2.80537 30.0948 2.70001 30.36 2.70001H34.17C34.4352 2.70001 34.6896 2.80537 34.8771 2.99291C35.0646 3.18044 35.17 3.4348 35.17 3.70001V7.46001C35.17 7.59133 35.1441 7.72137 35.0939 7.8427C35.0436 7.96402 34.9699 8.07426 34.8771 8.16712C34.7842 8.25998 34.674 8.33364 34.5527 8.38389C34.4313 8.43415 34.3013 8.46001 34.17 8.46001Z" fill="#7284FF"/>
<path d="M12.05 8.46001C11.7848 8.46001 11.5305 8.35466 11.3429 8.16712C11.1554 7.97958 11.05 7.72523 11.05 7.46001V3.70001C11.05 3.4348 11.1554 3.18044 11.3429 2.99291C11.5305 2.80537 11.7848 2.70001 12.05 2.70001H16C16.2653 2.70001 16.5196 2.80537 16.7072 2.99291C16.8947 3.18044 17 3.4348 17 3.70001C17 3.96523 16.8947 4.21958 16.7072 4.40712C16.5196 4.59466 16.2653 4.70001 16 4.70001H13.05V7.46001C13.05 7.59133 13.0242 7.72137 12.9739 7.8427C12.9237 7.96402 12.85 8.07426 12.7572 8.16712C12.6643 8.25998 12.5541 8.33364 12.4327 8.38389C12.3114 8.43415 12.1814 8.46001 12.05 8.46001Z" fill="#7284FF"/>
<path d="M16 24.72H12.05C11.7848 24.72 11.5305 24.6146 11.3429 24.4271C11.1554 24.2395 11.05 23.9852 11.05 23.72V19.72C11.05 19.4548 11.1554 19.2004 11.3429 19.0129C11.5305 18.8253 11.7848 18.72 12.05 18.72C12.3153 18.72 12.5696 18.8253 12.7572 19.0129C12.9447 19.2004 13.05 19.4548 13.05 19.72V22.72H16C16.2653 22.72 16.5196 22.8253 16.7072 23.0129C16.8947 23.2004 17 23.4548 17 23.72C17 23.9852 16.8947 24.2395 16.7072 24.4271C16.5196 24.6146 16.2653 24.72 16 24.72Z" fill="#7284FF"/>
<path d="M25.1501 4.31997H21.0601C19.557 4.30126 18.1078 4.87911 17.03 5.9269C15.9523 6.9747 15.3338 8.40699 15.3101 9.90997V15.17C15.315 15.3842 15.3886 15.5912 15.52 15.7604C15.6514 15.9296 15.8337 16.0522 16.0401 16.11V17.3C16.0533 19.0815 16.7702 20.7856 18.0347 22.0407C19.2991 23.2957 21.0085 24 22.7901 24H23.4301C25.2159 24 26.9287 23.2912 28.1924 22.0294C29.4561 20.7676 30.1674 19.0558 30.1701 17.27V15C30.3799 14.9435 30.5656 14.8203 30.6991 14.6488C30.8326 14.4774 30.9067 14.2672 30.9101 14.05V9.90997C30.8864 8.40524 30.2665 6.97141 29.1865 5.92333C28.1066 4.87525 26.6548 4.29859 25.1501 4.31997ZM21.0601 6.31997H25.1501C26.1244 6.2985 27.0675 6.66442 27.7724 7.33745C28.4773 8.01048 28.8865 8.93565 28.9101 9.90997V12.67C23.7401 11.98 22.0901 11.04 21.6201 10.67C21.4443 10.5329 21.2279 10.4585 21.0051 10.4585C20.7822 10.4585 20.5658 10.5329 20.3901 10.67C19.4245 11.4032 18.3935 12.0459 17.3101 12.59V9.90997C17.3337 8.93742 17.7414 8.01379 18.4441 7.34104C19.1469 6.66829 20.0874 6.30118 21.0601 6.31997ZM23.4301 22H22.7901C22.1668 22.0066 21.5483 21.8902 20.97 21.6574C20.3917 21.4247 19.8651 21.0801 19.4201 20.6436C18.9752 20.207 18.6208 19.6869 18.3771 19.1132C18.1334 18.5395 18.0053 17.9233 18.0001 17.3V14.42C19.0532 13.933 20.0578 13.347 21.0001 12.67C23.2568 13.7102 25.6751 14.3562 28.1501 14.58V17.3C28.1395 18.5467 27.6383 19.7391 26.7548 20.6188C25.8713 21.4985 24.6768 21.9948 23.4301 22Z" fill="#2E42CC"/>
</svg>
