<svg width="48" height="48" viewBox="0 0 48 48" fill="none" xmlns="http://www.w3.org/2000/svg">
<path d="M33.7999 45.17H14.1399C13.7197 45.17 13.3036 45.0872 12.9154 44.9264C12.5271 44.7656 12.1743 44.5299 11.8772 44.2327C11.5801 43.9356 11.3443 43.5828 11.1835 43.1946C11.0227 42.8063 10.9399 42.3902 10.9399 41.97V5.99999C10.9399 5.1513 11.2771 4.33736 11.8772 3.73725C12.4773 3.13713 13.2912 2.79999 14.1399 2.79999H33.7999C34.6486 2.79999 35.4626 3.13713 36.0627 3.73725C36.6628 4.33736 36.9999 5.1513 36.9999 5.99999V42C36.992 42.8435 36.6514 43.6497 36.0521 44.2434C35.4529 44.837 34.6435 45.17 33.7999 45.17ZM14.1399 4.82999C13.8268 4.82989 13.526 4.95219 13.3018 5.17079C13.0776 5.38938 12.9478 5.68696 12.9399 5.99999V42C12.9399 42.3182 13.0664 42.6235 13.2914 42.8485C13.5165 43.0736 13.8217 43.2 14.1399 43.2H33.7999C34.1182 43.2 34.4234 43.0736 34.6485 42.8485C34.8735 42.6235 34.9999 42.3182 34.9999 42V5.99999C34.9999 5.68173 34.8735 5.3765 34.6485 5.15146C34.4234 4.92642 34.1182 4.79999 33.7999 4.79999L14.1399 4.82999Z" fill="#2E42CC"/>
<path d="M35.9999 11.91H11.9399C11.6747 11.91 11.4204 11.8046 11.2328 11.6171C11.0453 11.4295 10.9399 11.1752 10.9399 10.91C10.9399 10.6448 11.0453 10.3904 11.2328 10.2029C11.4204 10.0153 11.6747 9.90997 11.9399 9.90997H35.9999C36.2652 9.90997 36.5195 10.0153 36.7071 10.2029C36.8946 10.3904 36.9999 10.6448 36.9999 10.91C36.9999 11.1752 36.8946 11.4295 36.7071 11.6171C36.5195 11.8046 36.2652 11.91 35.9999 11.91Z" fill="#2E42CC"/>
<path d="M36 38.7H12C11.7348 38.7 11.4804 38.5947 11.2929 38.4071C11.1054 38.2196 11 37.9652 11 37.7C11 37.4348 11.1054 37.1804 11.2929 36.9929C11.4804 36.8054 11.7348 36.7 12 36.7H36C36.2652 36.7 36.5196 36.8054 36.7071 36.9929C36.8946 37.1804 37 37.4348 37 37.7C37 37.9652 36.8946 38.2196 36.7071 38.4071C36.5196 38.5947 36.2652 38.7 36 38.7Z" fill="#2E42CC"/>
<path d="M30 8.56H21.52C21.2548 8.56 21.0004 8.45464 20.8129 8.2671C20.6254 8.07957 20.52 7.82521 20.52 7.56C20.52 7.29478 20.6254 7.04043 20.8129 6.85289C21.0004 6.66535 21.2548 6.56 21.52 6.56H30C30.2652 6.56 30.5196 6.66535 30.7071 6.85289C30.8947 7.04043 31 7.29478 31 7.56C31 7.82521 30.8947 8.07957 30.7071 8.2671C30.5196 8.45464 30.2652 8.56 30 8.56Z" fill="#2E42CC"/>
<path d="M27 41.86H21C20.7348 41.86 20.4804 41.7546 20.2929 41.5671C20.1054 41.3796 20 41.1252 20 40.86C20 40.5948 20.1054 40.3404 20.2929 40.1529C20.4804 39.9653 20.7348 39.86 21 39.86H27C27.2652 39.86 27.5196 39.9653 27.7071 40.1529C27.8946 40.3404 28 40.5948 28 40.86C28 41.1252 27.8946 41.3796 27.7071 41.5671C27.5196 41.7546 27.2652 41.86 27 41.86Z" fill="#2E42CC"/>
<path d="M31.22 18.13L30.32 18.04C28.2661 17.7774 26.2976 17.0563 24.56 15.93C24.4916 15.8867 24.4176 15.8531 24.34 15.83L24.2 15.78H23.82L23.68 15.83C23.5992 15.8529 23.5219 15.8866 23.45 15.93C21.7031 17.045 19.7276 17.7525 17.67 18L16.77 18.09V24.38C16.77 29.5 21.25 32.09 23.67 32.76H23.73C23.8097 32.7697 23.8903 32.7697 23.97 32.76H24.23C26.64 32.11 31.23 29.53 31.23 24.36L31.22 18.13ZM18.77 24.42V19.89C20.6141 19.5515 22.3844 18.8914 24 17.94V30.81C22.91 30.44 18.77 28.78 18.77 24.42Z" fill="#7284FF"/>
<path d="M17.77 8.56C18.3223 8.56 18.77 8.11228 18.77 7.56C18.77 7.00771 18.3223 6.56 17.77 6.56C17.2177 6.56 16.77 7.00771 16.77 7.56C16.77 8.11228 17.2177 8.56 17.77 8.56Z" fill="#2E42CC"/>
<path d="M42.63 31C42.4912 31.0009 42.3537 30.973 42.2263 30.9179C42.0989 30.8628 41.9844 30.7818 41.89 30.68C41.7238 30.4796 41.6423 30.2222 41.6628 29.9626C41.6833 29.7031 41.8043 29.4618 42 29.29C42.8033 28.5493 43.4444 27.6501 43.8829 26.6493C44.3214 25.6485 44.5477 24.5677 44.5477 23.475C44.5477 22.3823 44.3214 21.3015 43.8829 20.3007C43.4444 19.2998 42.8033 18.4007 42 17.66C41.8935 17.5742 41.8058 17.4674 41.7422 17.3464C41.6786 17.2253 41.6406 17.0925 41.6304 16.9561C41.6201 16.8197 41.638 16.6827 41.6828 16.5535C41.7277 16.4243 41.7985 16.3057 41.891 16.205C41.9835 16.1043 42.0957 16.0236 42.2206 15.968C42.3455 15.9123 42.4805 15.8829 42.6173 15.8815C42.754 15.8801 42.8896 15.9067 43.0156 15.9598C43.1417 16.0128 43.2555 16.0912 43.35 16.19C44.3587 17.1155 45.1641 18.2405 45.7151 19.4938C46.266 20.747 46.5505 22.101 46.5505 23.47C46.5505 24.839 46.266 26.193 45.7151 27.4462C45.1641 28.6994 44.3587 29.8245 43.35 30.75C43.1524 30.9251 42.8936 31.015 42.63 31Z" fill="#7284FF"/>
<path d="M39.23 28.32C39.0929 28.3195 38.9573 28.2909 38.8318 28.2359C38.7062 28.1808 38.5933 28.1005 38.5 28C38.4063 27.907 38.3319 27.7964 38.2811 27.6746C38.2304 27.5527 38.2042 27.422 38.2042 27.29C38.2042 27.158 38.2304 27.0273 38.2811 26.9054C38.3319 26.7835 38.4063 26.6729 38.5 26.58C38.9294 26.1847 39.2722 25.7047 39.5067 25.1703C39.7411 24.6359 39.8622 24.0586 39.8622 23.475C39.8622 22.8914 39.7411 22.3141 39.5067 21.7797C39.2722 21.2452 38.9294 20.7652 38.5 20.37C38.3051 20.1896 38.1898 19.9392 38.1795 19.6739C38.1692 19.4085 38.2647 19.1499 38.445 18.955C38.6254 18.76 38.8758 18.6447 39.1411 18.6344C39.4065 18.6241 39.6651 18.7196 39.86 18.9C40.4911 19.4833 40.9947 20.1909 41.3391 20.9782C41.6835 21.7655 41.8613 22.6156 41.8613 23.475C41.8613 24.3343 41.6835 25.1844 41.3391 25.9718C40.9947 26.7591 40.4911 27.4667 39.86 28.05C39.6884 28.2114 39.4653 28.307 39.23 28.32Z" fill="#7284FF"/>
<path d="M5.34003 31C5.47883 31.0009 5.6163 30.9729 5.74371 30.9179C5.87111 30.8628 5.98564 30.7818 6.08003 30.68C6.24993 30.4833 6.3366 30.2282 6.32167 29.9688C6.30673 29.7093 6.19137 29.4659 6.00003 29.29C5.19676 28.5492 4.55566 27.6501 4.11717 26.6493C3.67868 25.6485 3.45229 24.5676 3.45229 23.475C3.45229 22.3823 3.67868 21.3015 4.11717 20.3007C4.55566 19.2998 5.19676 18.4007 6.00003 17.66C6.19447 17.4807 6.30995 17.2316 6.32119 16.9674C6.33244 16.7031 6.23853 16.4452 6.06003 16.25C5.97109 16.1522 5.86366 16.0731 5.74394 16.0171C5.62422 15.9611 5.49459 15.9294 5.36254 15.9238C5.2305 15.9182 5.09866 15.9389 4.97464 15.9846C4.85062 16.0302 4.7369 16.1001 4.64003 16.19C3.63401 17.1171 2.83106 18.2427 2.28185 19.4957C1.73265 20.7487 1.4491 22.1019 1.4491 23.47C1.4491 24.8381 1.73265 26.1913 2.28185 27.4443C2.83106 28.6973 3.63401 29.8229 4.64003 30.75C4.83257 30.9202 5.08324 31.0097 5.34003 31Z" fill="#7284FF"/>
<path d="M8.73997 28.32C8.87709 28.3195 9.01265 28.2909 9.13823 28.2359C9.26381 28.1808 9.37673 28.1005 9.46997 28C9.64973 27.8061 9.74539 27.5489 9.73602 27.2847C9.72665 27.0204 9.61302 26.7707 9.41997 26.59C8.98759 26.1955 8.64223 25.7151 8.40593 25.1797C8.16962 24.6442 8.04758 24.0653 8.04758 23.48C8.04758 22.8947 8.16962 22.3158 8.40593 21.7803C8.64223 21.2448 8.98759 20.7645 9.41997 20.37C9.51649 20.2807 9.59448 20.1732 9.64948 20.0538C9.70448 19.9344 9.73542 19.8053 9.74053 19.6739C9.74563 19.5425 9.72481 19.4114 9.67925 19.288C9.63368 19.1647 9.56427 19.0515 9.47497 18.955C9.38567 18.8585 9.27824 18.7805 9.1588 18.7255C9.03936 18.6705 8.91026 18.6395 8.77886 18.6344C8.64747 18.6293 8.51635 18.6501 8.39301 18.6957C8.26966 18.7413 8.15649 18.8107 8.05997 18.9C7.4262 19.4817 6.92021 20.1887 6.57407 20.9763C6.22793 21.7638 6.04919 22.6147 6.04919 23.475C6.04919 24.3352 6.22793 25.1861 6.57407 25.9737C6.92021 26.7612 7.4262 27.4683 8.05997 28.05C8.24439 28.2226 8.48734 28.3191 8.73997 28.32Z" fill="#7284FF"/>
</svg>
