<svg width="48" height="48" viewBox="0 0 48 48" fill="none" xmlns="http://www.w3.org/2000/svg">
<path d="M28.84 35.06H13.9C13.6348 35.06 13.3805 34.9546 13.1929 34.7671C13.0054 34.5796 12.9 34.3252 12.9 34.06V29.87C12.9 29.6048 13.0054 29.3504 13.1929 29.1629C13.3805 28.9754 13.6348 28.87 13.9 28.87H28.84C29.1052 28.87 29.3596 28.9754 29.5471 29.1629C29.7347 29.3504 29.84 29.6048 29.84 29.87V34.06C29.84 34.3252 29.7347 34.5796 29.5471 34.7671C29.3596 34.9546 29.1052 35.06 28.84 35.06ZM14.9 33.06H27.84V30.87H14.9V33.06Z" fill="#2E42CC"/>
<path d="M33.1201 12.28H9.06006C8.79484 12.28 8.54049 12.1747 8.35295 11.9871C8.16541 11.7996 8.06006 11.5452 8.06006 11.28C8.06006 11.0148 8.16541 10.7605 8.35295 10.5729C8.54049 10.3854 8.79484 10.28 9.06006 10.28H33.1201C33.3853 10.28 33.6396 10.3854 33.8272 10.5729C34.0147 10.7605 34.1201 11.0148 34.1201 11.28C34.1201 11.5452 34.0147 11.7996 33.8272 11.9871C33.6396 12.1747 33.3853 12.28 33.1201 12.28Z" fill="#2E42CC"/>
<path d="M33.15 39.07H9.08997C8.82475 39.07 8.5704 38.9647 8.38286 38.7771C8.19532 38.5896 8.08997 38.3352 8.08997 38.07C8.08997 37.8048 8.19532 37.5504 8.38286 37.3629C8.5704 37.1754 8.82475 37.07 9.08997 37.07H33.15C33.4152 37.07 33.6695 37.1754 33.8571 37.3629C34.0446 37.5504 34.15 37.8048 34.15 38.07C34.15 38.3352 34.0446 38.5896 33.8571 38.7771C33.6695 38.9647 33.4152 39.07 33.15 39.07Z" fill="#2E42CC"/>
<path d="M27.1 8.92999H18.64C18.3748 8.92999 18.1204 8.82464 17.9329 8.6371C17.7454 8.44956 17.64 8.19521 17.64 7.92999C17.64 7.66478 17.7454 7.41042 17.9329 7.22289C18.1204 7.03535 18.3748 6.92999 18.64 6.92999H27.1C27.3652 6.92999 27.6196 7.03535 27.8071 7.22289C27.9947 7.41042 28.1 7.66478 28.1 7.92999C28.1 8.19521 27.9947 8.44956 27.8071 8.6371C27.6196 8.82464 27.3652 8.92999 27.1 8.92999Z" fill="#2E42CC"/>
<path d="M25.15 17H13.9C13.6348 17 13.3805 16.8946 13.1929 16.7071C13.0054 16.5196 12.9 16.2652 12.9 16C12.9 15.7348 13.0054 15.4804 13.1929 15.2929C13.3805 15.1054 13.6348 15 13.9 15H25.15C25.4152 15 25.6696 15.1054 25.8571 15.2929C26.0447 15.4804 26.15 15.7348 26.15 16C26.15 16.2652 26.0447 16.5196 25.8571 16.7071C25.6696 16.8946 25.4152 17 25.15 17Z" fill="#2E42CC"/>
<path d="M28.59 21.56H13.9C13.6348 21.56 13.3805 21.4546 13.1929 21.2671C13.0054 21.0796 12.9 20.8252 12.9 20.56C12.9 20.2948 13.0054 20.0404 13.1929 19.8529C13.3805 19.6654 13.6348 19.56 13.9 19.56H28.59C28.8552 19.56 29.1096 19.6654 29.2971 19.8529C29.4847 20.0404 29.59 20.2948 29.59 20.56C29.59 20.8252 29.4847 21.0796 29.2971 21.2671C29.1096 21.4546 28.8552 21.56 28.59 21.56Z" fill="#2E42CC"/>
<path d="M24.14 42.24H18.14C17.8748 42.24 17.6204 42.1346 17.4329 41.9471C17.2454 41.7596 17.14 41.5052 17.14 41.24C17.14 40.9748 17.2454 40.7204 17.4329 40.5329C17.6204 40.3453 17.8748 40.24 18.14 40.24H24.14C24.4052 40.24 24.6596 40.3453 24.8471 40.5329C25.0347 40.7204 25.14 40.9748 25.14 41.24C25.14 41.5052 25.0347 41.7596 24.8471 41.9471C24.6596 42.1346 24.4052 42.24 24.14 42.24Z" fill="#2E42CC"/>
<path d="M28.4299 26H17.1899C16.9247 26 16.6704 25.8946 16.4828 25.7071C16.2953 25.5196 16.1899 25.2652 16.1899 25C16.1899 24.7348 16.2953 24.4804 16.4828 24.2929C16.6704 24.1054 16.9247 24 17.1899 24H28.4299C28.6952 24 28.9495 24.1054 29.137 24.2929C29.3246 24.4804 29.4299 24.7348 29.4299 25C29.4299 25.2652 29.3246 25.5196 29.137 25.7071C28.9495 25.8946 28.6952 26 28.4299 26Z" fill="#2E42CC"/>
<path d="M32.1201 42.34C32.1214 42.4971 32.0916 42.653 32.0324 42.7985C31.9731 42.944 31.8857 43.0764 31.7751 43.188C31.6644 43.2995 31.5328 43.3881 31.3878 43.4485C31.2427 43.5089 31.0872 43.54 30.9301 43.54H11.2601C10.9418 43.54 10.6366 43.4136 10.4115 43.1886C10.1865 42.9635 10.0601 42.6583 10.0601 42.34V6.41002C10.0601 6.09176 10.1865 5.78654 10.4115 5.56149C10.6366 5.33645 10.9418 5.21002 11.2601 5.21002H30.9301C31.0872 5.21002 31.2427 5.24112 31.3878 5.30155C31.5328 5.36198 31.6644 5.45053 31.7751 5.56209C31.8857 5.67366 31.9731 5.80602 32.0324 5.95156C32.0916 6.09709 32.1214 6.25291 32.1201 6.41002V19.14C32.7311 18.6854 33.4048 18.3216 34.1201 18.06V6.41002C34.1214 5.99026 34.0398 5.57437 33.8801 5.18619C33.7204 4.79801 33.4856 4.44516 33.1893 4.14788C32.8929 3.8506 32.5408 3.61474 32.1531 3.4538C31.7655 3.29286 31.3498 3.21002 30.9301 3.21002H11.2601C10.4114 3.21002 9.59743 3.54716 8.99732 4.14728C8.3972 4.7474 8.06006 5.56133 8.06006 6.41002V42.34C8.06006 42.7603 8.14283 43.1764 8.30364 43.5646C8.46446 43.9529 8.70017 44.3056 8.99732 44.6028C9.29446 44.8999 9.64723 45.1356 10.0355 45.2964C10.4237 45.4573 10.8398 45.54 11.2601 45.54H30.9301C31.777 45.5374 32.5884 45.1991 33.1863 44.5992C33.7843 43.9994 34.1201 43.187 34.1201 42.34V33.23C33.4062 32.9609 32.7331 32.5941 32.1201 32.14V42.34Z" fill="#2E42CC"/>
<path d="M36.94 17.54C35.9763 17.5421 35.021 17.7182 34.12 18.06C33.4047 18.3216 32.731 18.6853 32.12 19.14C31.1027 19.8911 30.2759 20.8706 29.7062 21.9995C29.1364 23.1285 28.8396 24.3754 28.8396 25.64C28.8396 26.9045 29.1364 28.1515 29.7062 29.2804C30.2759 30.4094 31.1027 31.3888 32.12 32.14C33.5126 33.1781 35.203 33.7393 36.94 33.74C39.0882 33.74 41.1485 32.8866 42.6675 31.3675C44.1866 29.8485 45.04 27.7882 45.04 25.64C45.04 23.4917 44.1866 21.4315 42.6675 19.9124C41.1485 18.3934 39.0882 17.54 36.94 17.54ZM36.94 31.96C35.9604 31.9615 34.9942 31.7319 34.12 31.29C33.355 30.9057 32.6749 30.3718 32.12 29.72C31.1519 28.581 30.6203 27.1348 30.6203 25.64C30.6203 24.1451 31.1519 22.699 32.12 21.56C32.7134 20.86 33.4517 20.2972 34.2839 19.9105C35.1161 19.5238 36.0223 19.3223 36.94 19.32C38.6161 19.32 40.2237 19.9858 41.4089 21.1711C42.5941 22.3563 43.26 23.9638 43.26 25.64C43.26 27.3161 42.5941 28.9237 41.4089 30.1089C40.2237 31.2941 38.6161 31.96 36.94 31.96Z" fill="#7284FF"/>
<path d="M34.12 24.52V23.68C34.0508 23.8092 34.0146 23.9535 34.0146 24.1C34.0146 24.2465 34.0508 24.3908 34.12 24.52Z" fill="#CAAAF3"/>
<path d="M40.54 27.47H37.88V24.23L38.36 24.71C38.5282 24.8749 38.7544 24.9673 38.99 24.9673C39.2255 24.9673 39.4517 24.8749 39.62 24.71C39.7028 24.6273 39.7685 24.5291 39.8134 24.421C39.8582 24.3129 39.8813 24.197 39.8813 24.08C39.8813 23.963 39.8582 23.8471 39.8134 23.739C39.7685 23.6309 39.7028 23.5327 39.62 23.45L37.62 21.45C37.538 21.3656 37.4401 21.2983 37.332 21.2519C37.2239 21.2056 37.1076 21.1811 36.99 21.18C36.7544 21.1828 36.5289 21.2759 36.36 21.44L34.29 23.5C34.228 23.5607 34.1773 23.6317 34.14 23.71V24.55C34.1776 24.6256 34.2246 24.6962 34.28 24.76C34.3613 24.8445 34.4593 24.9112 34.5678 24.9559C34.6762 25.0006 34.7927 25.0225 34.91 25.02C35.1445 25.0219 35.3706 24.9322 35.54 24.77L36.12 24.19V27.5H33.35C33.1139 27.5 32.8875 27.5938 32.7206 27.7607C32.5537 27.9276 32.46 28.1539 32.46 28.39C32.46 28.626 32.5537 28.8524 32.7206 29.0193C32.8875 29.1862 33.1139 29.28 33.35 29.28H40.54C40.776 29.28 41.0024 29.1862 41.1693 29.0193C41.3362 28.8524 41.43 28.626 41.43 28.39C41.43 28.1539 41.3362 27.9276 41.1693 27.7607C41.0024 27.5938 40.776 27.5 40.54 27.5V27.47Z" fill="#7284FF"/>
<path d="M28.43 17.06C29.0099 17.06 29.48 16.5899 29.48 16.01C29.48 15.4301 29.0099 14.96 28.43 14.96C27.8501 14.96 27.38 15.4301 27.38 16.01C27.38 16.5899 27.8501 17.06 28.43 17.06Z" fill="#2E42CC"/>
<path d="M13.9 26.09C14.4799 26.09 14.95 25.6199 14.95 25.04C14.95 24.4601 14.4799 23.99 13.9 23.99C13.3201 23.99 12.85 24.4601 12.85 25.04C12.85 25.6199 13.3201 26.09 13.9 26.09Z" fill="#2E42CC"/>
<path d="M15.27 8.98C15.8499 8.98 16.32 8.5099 16.32 7.93C16.32 7.35011 15.8499 6.88 15.27 6.88C14.6901 6.88 14.22 7.35011 14.22 7.93C14.22 8.5099 14.6901 8.98 15.27 8.98Z" fill="#2E42CC"/>
</svg>
