<svg width="48" height="48" viewBox="0 0 48 48" fill="none" xmlns="http://www.w3.org/2000/svg">
<path d="M29.26 26.64C29.26 24.5412 30.0931 22.5283 31.5762 21.0433C33.0593 19.5583 35.0712 18.7227 37.17 18.72C37.7283 18.719 38.285 18.7793 38.83 18.9V10.9C38.8314 10.6827 38.7659 10.4702 38.6425 10.2914C38.5191 10.1125 38.3437 9.97588 38.14 9.90003L23.14 4.28003H22.98C23.1533 4.30962 23.3157 4.38436 23.4509 4.49672C23.5861 4.60908 23.6892 4.75509 23.75 4.92003C23.7998 5.04933 23.8235 5.18721 23.8198 5.32572C23.816 5.46422 23.7849 5.60062 23.7282 5.72704C23.6715 5.85346 23.5903 5.96741 23.4894 6.06232C23.3884 6.15723 23.2697 6.23122 23.14 6.28003L22.77 6.41003V41.55C23.05 41.71 23.22 41.79 23.24 41.8C23.4495 41.8704 23.6297 42.0082 23.7526 42.1918C23.8755 42.3755 23.9341 42.5947 23.9193 42.8152C23.9044 43.0356 23.817 43.245 23.6705 43.4105C23.5241 43.576 23.327 43.6884 23.11 43.73H23.24C27.7253 41.3872 31.6992 38.1747 34.93 34.28C33.2857 33.7912 31.8443 32.7823 30.822 31.4048C29.7997 30.0273 29.2516 28.3554 29.26 26.64Z" fill="#2E42CC"/>
<path d="M22.78 43.79C22.866 43.8051 22.954 43.8051 23.04 43.79C22.954 43.8051 22.866 43.8051 22.78 43.79Z" fill="#70468C"/>
<path d="M23.72 43.21C23.7892 43.0881 23.8319 42.953 23.8455 42.8136C23.8591 42.6741 23.8432 42.5333 23.7989 42.4004C23.7546 42.2674 23.6828 42.1453 23.5883 42.0419C23.4937 41.9384 23.3785 41.856 23.25 41.8C23.25 41.8 23.06 41.71 22.78 41.55C20.31 40.19 8.83001 33.38 8.83001 24V11.6L22.83 6.37L23.2 6.24C23.3297 6.19119 23.4484 6.1172 23.5494 6.02229C23.6503 5.92739 23.7315 5.81344 23.7882 5.68701C23.8449 5.56059 23.876 5.4242 23.8798 5.28569C23.8835 5.14718 23.8598 5.0093 23.81 4.88C23.746 4.70974 23.6367 4.56017 23.494 4.4474C23.3512 4.33463 23.1805 4.26292 23 4.24C22.9301 4.23516 22.8599 4.23516 22.79 4.24H22.58C22.5268 4.23437 22.4732 4.23437 22.42 4.24L7.42001 9.86C7.21303 9.92958 7.03451 10.065 6.91172 10.2456C6.78893 10.4261 6.72863 10.6419 6.74001 10.86V24C6.74001 35.76 21.68 43.36 22.32 43.68H22.45H22.53C22.616 43.6951 22.704 43.6951 22.79 43.68C22.876 43.6951 22.964 43.6951 23.05 43.68H23.13C23.3781 43.6018 23.5883 43.4343 23.72 43.21Z" fill="#2E42CC"/>
<path d="M38.83 18.9C38.2849 18.7793 37.7282 18.7189 37.17 18.72C35.2703 18.7277 33.4367 19.418 32.0035 20.6649C30.5703 21.9119 29.6331 23.6324 29.3627 25.5128C29.0924 27.3932 29.5069 29.3081 30.5307 30.9083C31.5545 32.5085 33.1194 33.6874 34.94 34.23C35.6651 34.4384 36.4155 34.546 37.17 34.55C39.1284 34.5572 41.0199 33.8376 42.4783 32.5306C43.9367 31.2235 44.8584 29.4219 45.065 27.4744C45.2716 25.5269 44.7483 23.572 43.5965 21.988C42.4448 20.4041 40.7463 19.3038 38.83 18.9ZM37.17 32.69C36.8111 32.6869 36.4532 32.6534 36.1 32.59C34.581 32.3091 33.2289 31.4532 32.3251 30.2004C31.4213 28.9476 31.0356 27.3945 31.2481 25.8645C31.4606 24.3345 32.2551 22.9453 33.4661 21.9863C34.6771 21.0273 36.2113 20.5723 37.7494 20.7161C39.2874 20.8598 40.7107 21.5912 41.7231 22.758C42.7354 23.9248 43.2587 25.4371 43.184 26.98C43.1094 28.5229 42.4425 29.9776 41.3223 31.0412C40.202 32.1048 38.7147 32.6954 37.17 32.69Z" fill="#7284FF"/>
<path d="M36.07 29.65C35.8231 29.6502 35.586 29.5532 35.41 29.38L33.57 27.53C33.482 27.4451 33.412 27.3434 33.3642 27.2309C33.3164 27.1183 33.2917 26.9973 33.2917 26.875C33.2917 26.7528 33.3164 26.6317 33.3642 26.5192C33.412 26.4067 33.482 26.3049 33.57 26.22C33.7442 26.0472 33.9796 25.9502 34.225 25.9502C34.4704 25.9502 34.7058 26.0472 34.88 26.22L36.07 27.41L39.47 24.01C39.5549 23.922 39.6567 23.852 39.7692 23.8042C39.8817 23.7564 40.0027 23.7318 40.125 23.7318C40.2473 23.7318 40.3683 23.7564 40.4809 23.8042C40.5934 23.852 40.6951 23.922 40.78 24.01C40.9528 24.1842 41.0498 24.4197 41.0498 24.665C41.0498 24.9104 40.9528 25.1458 40.78 25.32L36.72 29.38C36.5471 29.5517 36.3137 29.6487 36.07 29.65Z" fill="#7284FF"/>
</svg>
