<svg width="48" height="48" viewBox="0 0 48 48" fill="none" xmlns="http://www.w3.org/2000/svg">
<path d="M21.34 34.12H7.57001C6.39592 34.1226 5.27066 34.5902 4.44045 35.4204C3.61023 36.2506 3.14266 37.3759 3.14001 38.55V42.64H25.77V38.55C25.7674 37.3759 25.2998 36.2506 24.4696 35.4204C23.6394 34.5902 22.5141 34.1226 21.34 34.12ZM7.57001 36.12H21.34C21.8068 36.1209 22.2635 36.2562 22.6554 36.5098C23.0473 36.7634 23.3579 37.1245 23.55 37.55H5.36001C5.55212 37.1245 5.8627 36.7634 6.25462 36.5098C6.64654 36.2562 7.10321 36.1209 7.57001 36.12ZM5.14001 40.64V39.55H23.77V40.64H5.14001Z" fill="#7284FF"/>
<path d="M44.26 29.32L26.88 18.68L24.38 17.15L25.32 15.62C25.4571 15.3955 25.5002 15.1261 25.44 14.87C25.3725 14.6145 25.212 14.3934 24.99 14.25L24.45 13.92L24.82 13.32L25.19 13.55C25.3462 13.6469 25.5262 13.6988 25.71 13.7H25.95C26.0778 13.6694 26.1984 13.614 26.3048 13.5367C26.4112 13.4595 26.5013 13.3621 26.57 13.25L28 10.92C28.0694 10.8079 28.1159 10.6831 28.1369 10.5529C28.1578 10.4227 28.1528 10.2896 28.1221 10.1614C28.0915 10.0331 28.0357 9.91215 27.9581 9.80552C27.8805 9.69888 27.7826 9.60865 27.67 9.54002L17.93 3.60002C17.7043 3.46305 17.4336 3.42088 17.177 3.4827C16.9203 3.54452 16.6986 3.70532 16.56 3.93002L15.15 6.23002C15.0806 6.34217 15.0341 6.46694 15.0131 6.59715C14.9922 6.72735 14.9972 6.86042 15.0278 6.98868C15.0585 7.11695 15.1143 7.23788 15.1919 7.34452C15.2695 7.45115 15.3674 7.54138 15.48 7.61002L15.85 7.84002L15.49 8.44002L15 8.11002C14.7743 7.97305 14.5036 7.93088 14.247 7.9927C13.9903 8.05452 13.7686 8.21532 13.63 8.44002L8.8 16.25C8.66303 16.4757 8.62086 16.7464 8.68268 17.003C8.7445 17.2597 8.9053 17.4815 9.13 17.62L9.66 17.95L9.3 18.55L8.92 18.32C8.69432 18.1831 8.42364 18.1409 8.16699 18.2027C7.91035 18.2645 7.68856 18.4253 7.55 18.65L6.14 21C6.00303 21.2257 5.96086 21.4964 6.02268 21.753C6.0845 22.0097 6.2453 22.2315 6.47 22.37L16.18 28.31C16.2922 28.3794 16.4169 28.4259 16.5471 28.4469C16.6773 28.4678 16.8104 28.4628 16.9387 28.4322C17.0669 28.4015 17.1879 28.3458 17.2945 28.2682C17.4011 28.1906 17.4914 28.0926 17.56 27.98L19 25.64C19.0694 25.5279 19.1159 25.4031 19.1369 25.2729C19.1578 25.1427 19.1528 25.0096 19.1221 24.8813C19.0915 24.7531 19.0357 24.6322 18.9581 24.5255C18.8805 24.4189 18.7826 24.3287 18.67 24.26L18.26 24L18.63 23.4L19.16 23.72C19.3162 23.8169 19.4962 23.8688 19.68 23.87C19.8526 23.871 20.0225 23.8273 20.1732 23.7432C20.3239 23.6591 20.4503 23.5374 20.54 23.39L21.64 21.59L41.52 33.79C41.9194 34.0378 42.38 34.1694 42.85 34.17C43.0657 34.1681 43.2805 34.1412 43.49 34.09C43.9855 33.9608 44.4328 33.6903 44.7773 33.3115C45.1219 32.9326 45.3488 32.4617 45.4304 31.9561C45.512 31.4505 45.4448 30.9322 45.237 30.4641C45.0292 29.9961 44.6897 29.5985 44.26 29.32ZM17.74 5.83002L25.74 10.73L25.37 11.32L17.37 6.42002L17.74 5.83002ZM16.37 26.05L8.37 21.15L8.73 20.55L9.11 20.78L16.37 25.22L16.74 25.45L16.37 26.05ZM11 19.59L11.37 18.99L16.92 22.39L16.56 22.99L11 19.59ZM17.19 9.48002L17.56 8.88002L23.11 12.28L22.75 12.88L20 11.18L17.19 9.48002ZM19.35 21.54L18.82 21.21L18.36 20.93L11 16.44L14.73 10.34L15.27 10.66L22.52 15.11L23.05 15.43L19.35 21.54ZM23.35 18.86L24.99 19.86L24.34 20.92L22.7 19.92L23.35 18.86ZM43.35 31.86C43.3124 31.9288 43.2616 31.9895 43.2003 32.0384C43.139 32.0873 43.0687 32.1235 42.9933 32.145C42.9178 32.1664 42.8389 32.1725 42.7611 32.1631C42.6833 32.1537 42.6081 32.1288 42.54 32.09L26 22L26.65 20.94L43.22 31C43.289 31.0443 43.3482 31.1022 43.394 31.1702C43.4397 31.2382 43.4711 31.3148 43.4861 31.3954C43.5011 31.476 43.4994 31.5588 43.4811 31.6387C43.4629 31.7186 43.4285 31.7939 43.38 31.86H43.35Z" fill="#2E42CC"/>
</svg>
