<svg width="48" height="48" viewBox="0 0 48 48" fill="none" xmlns="http://www.w3.org/2000/svg">
<path d="M41.42 22L37.56 18.75V3.92999C37.56 3.66478 37.4546 3.41042 37.2671 3.22289C37.0795 3.03535 36.8252 2.92999 36.56 2.92999H13C12.7348 2.92999 12.4804 3.03535 12.2929 3.22289C12.1053 3.41042 12 3.66478 12 3.92999V15.14C12.694 15.3005 13.3657 15.5457 14 15.87V4.92999H35.56V19.07C35.55 19.1597 35.55 19.2503 35.56 19.34V27.2L25.23 32.59L16.51 28.31C16.0565 28.8668 15.5282 29.3581 14.94 29.77L24.8 34.61C24.9408 34.682 25.0968 34.7195 25.255 34.7195C25.4132 34.7195 25.5691 34.682 25.71 34.61L36.92 28.75H37.01L39.77 27.31V43.07H9.71997V31.29C9.04095 31.2605 8.36865 31.1429 7.71997 30.94V44.07C7.71997 44.3352 7.82533 44.5896 8.01286 44.7771C8.2004 44.9646 8.45475 45.07 8.71997 45.07H40.77C41.0352 45.07 41.2895 44.9646 41.4771 44.7771C41.6646 44.5896 41.77 44.3352 41.77 44.07V22.76C41.77 22.6156 41.7387 22.4728 41.6783 22.3416C41.6179 22.2104 41.5297 22.0939 41.42 22ZM37.56 26.16V21.36L39.77 23.23V25L37.56 26.16Z" fill="#2E42CC"/>
<path d="M18.55 11.44H31C31.2732 11.44 31.5352 11.3315 31.7283 11.1383C31.9215 10.9452 32.03 10.6832 32.03 10.41C32.03 10.1368 31.9215 9.87485 31.7283 9.68168C31.5352 9.48852 31.2732 9.38 31 9.38H18.55C18.2768 9.38 18.0149 9.48852 17.8217 9.68168C17.6285 9.87485 17.52 10.1368 17.52 10.41C17.52 10.6832 17.6285 10.9452 17.8217 11.1383C18.0149 11.3315 18.2768 11.44 18.55 11.44Z" fill="#2E42CC"/>
<path d="M31 16.69H18.55C18.2848 16.69 18.0305 16.7954 17.8429 16.9829C17.6554 17.1704 17.55 17.4248 17.55 17.69C17.55 17.9552 17.6554 18.2096 17.8429 18.3971C18.0305 18.5846 18.2848 18.69 18.55 18.69H31C31.2653 18.69 31.5196 18.5846 31.7072 18.3971C31.8947 18.2096 32 17.9552 32 17.69C32 17.4248 31.8947 17.1704 31.7072 16.9829C31.5196 16.7954 31.2653 16.69 31 16.69Z" fill="#2E42CC"/>
<path d="M17.56 15.09H32C32.2772 15.09 32.543 14.9799 32.739 14.7839C32.9349 14.588 33.045 14.3222 33.045 14.045C33.045 13.7678 32.9349 13.502 32.739 13.3061C32.543 13.1101 32.2772 13 32 13H17.56C17.2869 13 17.0249 13.1085 16.8317 13.3017C16.6385 13.4948 16.53 13.7568 16.53 14.03C16.53 14.3032 16.6385 14.5652 16.8317 14.7583C17.0249 14.9515 17.2869 15.06 17.56 15.06V15.09Z" fill="#2E42CC"/>
<path d="M31 26.05C31.2719 26.05 31.5326 25.942 31.7248 25.7498C31.917 25.5575 32.025 25.2968 32.025 25.025C32.025 24.7531 31.917 24.4924 31.7248 24.3002C31.5326 24.108 31.2719 24 31 24H18.55C18.4701 23.9944 18.3899 23.9944 18.31 24C18.2491 24.6073 18.1148 25.205 17.91 25.78C18.0886 25.9327 18.3151 26.0176 18.55 26.02L31 26.05Z" fill="#2E42CC"/>
<path d="M33 21.37C33 21.1048 32.8946 20.8504 32.7071 20.6629C32.5196 20.4754 32.2652 20.37 32 20.37H17.87C18.1147 21.0296 18.2695 21.7191 18.33 22.42H32C32.1356 22.4202 32.2699 22.3927 32.3946 22.3394C32.5193 22.286 32.6318 22.2079 32.7254 22.1096C32.8189 22.0114 32.8915 21.8952 32.9387 21.768C32.9859 21.6409 33.0068 21.5055 33 21.37Z" fill="#2E42CC"/>
<path d="M10.1799 31.32C11.8906 31.3196 13.5571 30.7769 14.9399 29.77C15.5281 29.3581 16.0565 28.8668 16.5099 28.31C17.1216 27.5666 17.5957 26.72 17.9099 25.81C18.1147 25.235 18.2491 24.6373 18.3099 24.03C18.3505 23.7284 18.3705 23.4243 18.3699 23.12C18.3699 22.88 18.3699 22.64 18.3699 22.39C18.3094 21.6891 18.1547 20.9996 17.9099 20.34C17.2058 18.4168 15.8124 16.8237 13.9999 15.87C13.3657 15.5457 12.694 15.3005 11.9999 15.14C9.94065 14.6807 7.78354 15.0338 5.97821 16.1258C4.17289 17.2178 2.85863 18.9644 2.30937 21.0015C1.76012 23.0387 2.01824 25.2092 3.02994 27.0607C4.04164 28.9122 5.72886 30.3019 7.73994 30.94C8.38862 31.1429 9.06092 31.2605 9.73994 31.29C9.86994 31.3 9.99994 31.32 10.1799 31.32ZM3.99994 23.12C4.00259 21.4774 4.65697 19.903 5.81941 18.7424C6.98185 17.5818 8.55733 16.93 10.1999 16.93C11.579 16.93 12.9178 17.3951 13.9999 18.25C14.6837 18.7801 15.2484 19.448 15.6572 20.2105C16.0661 20.973 16.31 21.8129 16.3732 22.6757C16.4364 23.5386 16.3174 24.4051 16.024 25.219C15.7305 26.0329 15.2692 26.776 14.6699 27.4C14.4391 27.6408 14.1882 27.8616 13.9199 28.06C13.6067 28.2945 13.2718 28.4988 12.9199 28.67H12.8099C11.9889 29.0634 11.0904 29.2684 10.1799 29.27C10.0268 29.2803 9.8731 29.2803 9.71994 29.27C9.03062 29.2263 8.35401 29.0639 7.71994 28.79C6.61697 28.3072 5.67812 27.5143 5.01766 26.5076C4.3572 25.5009 4.00362 24.324 3.99994 23.12Z" fill="#7284FF"/>
<path d="M9.74005 25.62C10.426 26.0597 11.1844 26.3745 11.98 26.55C12.22 26.5967 12.46 26.6367 12.7 26.67H12.79C12.8816 26.6631 12.9721 26.6463 13.06 26.62C13.2502 26.564 13.4171 26.4481 13.536 26.2895C13.655 26.131 13.7195 25.9382 13.72 25.74V24.74C13.7375 24.5016 13.6635 24.2655 13.513 24.0797C13.3625 23.8939 13.1469 23.7724 12.91 23.74C12.6169 23.6997 12.3288 23.6293 12.05 23.53H11.98C11.8216 23.4842 11.6538 23.4814 11.4939 23.5218C11.334 23.5622 11.1877 23.6444 11.07 23.76L10.8 24.03C10.427 23.7812 10.0905 23.4817 9.80005 23.14C9.58894 22.9273 9.40121 22.6927 9.24005 22.44L9.50005 22.18C9.62885 22.052 9.71737 21.8891 9.75469 21.7114C9.79201 21.5337 9.77649 21.349 9.71005 21.18C9.71005 21.04 9.64005 20.88 9.60005 20.73C9.56005 20.58 9.52005 20.46 9.50005 20.32C9.46874 20.0982 9.35844 19.8952 9.18942 19.7482C9.02041 19.6013 8.80403 19.5202 8.58005 19.52H7.48005C7.35826 19.5299 7.23971 19.5642 7.13147 19.6209C7.02324 19.6776 6.92752 19.7555 6.85005 19.85C6.76936 19.9443 6.70904 20.0543 6.6729 20.1731C6.63677 20.2918 6.62558 20.4167 6.64005 20.54C6.74319 21.61 7.10342 22.6392 7.69005 23.54V23.59C7.93279 23.9473 8.20723 24.282 8.51005 24.59C8.85936 24.9721 9.25587 25.3081 9.69005 25.59L9.74005 25.62Z" fill="#7284FF"/>
</svg>
