<svg width="48" height="48" viewBox="0 0 48 48" fill="none" xmlns="http://www.w3.org/2000/svg">
<path d="M29.9001 11.45H17.4601C17.1869 11.45 16.9249 11.3415 16.7317 11.1483C16.5386 10.9552 16.4301 10.6932 16.4301 10.42C16.4301 10.1468 16.5386 9.88486 16.7317 9.69169C16.9249 9.49853 17.1869 9.39001 17.4601 9.39001H29.9001C30.1732 9.39001 30.4352 9.49853 30.6284 9.69169C30.8215 9.88486 30.9301 10.1468 30.9301 10.42C30.9301 10.6932 30.8215 10.9552 30.6284 11.1483C30.4352 11.3415 30.1732 11.45 29.9001 11.45Z" fill="#7284FF"/>
<path d="M40.33 22L36.47 18.74V3.92999C36.47 3.66478 36.3646 3.41042 36.1771 3.22289C35.9896 3.03535 35.7352 2.92999 35.47 2.92999H11.89C11.6248 2.92999 11.3704 3.03535 11.1829 3.22289C10.9954 3.41042 10.89 3.66478 10.89 3.92999V18.93L7 22C6.88214 22.0931 6.78678 22.2116 6.72099 22.3466C6.65521 22.4817 6.62069 22.6298 6.62 22.78V44.07C6.62 44.3352 6.72535 44.5896 6.91289 44.7771C7.10042 44.9646 7.35478 45.07 7.62 45.07H39.68C39.9452 45.07 40.1996 44.9646 40.3871 44.7771C40.5746 44.5896 40.68 44.3352 40.68 44.07V22.76C40.68 22.6156 40.6487 22.4728 40.5883 22.3416C40.5279 22.2104 40.4398 22.0939 40.33 22ZM38.68 23.22V25L36.47 26.16V21.36L38.68 23.22ZM34.47 4.92999V19.07C34.46 19.1597 34.46 19.2503 34.47 19.34V27.2L24.14 32.6L12.89 27.07V4.92999H34.47ZM10.89 21.45V26.09L8.63 25V23.24L10.89 21.45ZM38.68 43.07H8.68V27.21L23.76 34.61C23.9009 34.682 24.0568 34.7195 24.215 34.7195C24.3732 34.7195 24.5291 34.682 24.67 34.61L35.88 28.76L35.97 28.71L38.73 27.27V43.07H38.68Z" fill="#2E42CC"/>
<path d="M29.9001 18.75H17.4601C17.1869 18.75 16.9249 18.6415 16.7317 18.4483C16.5386 18.2552 16.4301 17.9932 16.4301 17.72C16.4301 17.4468 16.5386 17.1848 16.7317 16.9917C16.9249 16.7985 17.1869 16.69 17.4601 16.69H29.9001C30.1732 16.69 30.4352 16.7985 30.6284 16.9917C30.8215 17.1848 30.9301 17.4468 30.9301 17.72C30.9301 17.9932 30.8215 18.2552 30.6284 18.4483C30.4352 18.6415 30.1732 18.75 29.9001 18.75Z" fill="#7284FF"/>
<path d="M30.8899 15.1H16.4699C16.1968 15.1 15.9348 14.9915 15.7416 14.7983C15.5485 14.6051 15.4399 14.3432 15.4399 14.07C15.4399 13.7968 15.5485 13.5348 15.7416 13.3417C15.9348 13.1485 16.1968 13.04 16.4699 13.04H30.8899C31.1631 13.04 31.4251 13.1485 31.6183 13.3417C31.8114 13.5348 31.9199 13.7968 31.9199 14.07C31.9199 14.3432 31.8114 14.6051 31.6183 14.7983C31.4251 14.9915 31.1631 15.1 30.8899 15.1Z" fill="#7284FF"/>
<path d="M29.9001 26.05H17.4601C17.1869 26.05 16.9249 25.9415 16.7317 25.7483C16.5386 25.5551 16.4301 25.2932 16.4301 25.02C16.4301 24.7468 16.5386 24.4848 16.7317 24.2917C16.9249 24.0985 17.1869 23.99 17.4601 23.99H29.9001C30.1732 23.99 30.4352 24.0985 30.6284 24.2917C30.8215 24.4848 30.9301 24.7468 30.9301 25.02C30.9301 25.2932 30.8215 25.5551 30.6284 25.7483C30.4352 25.9415 30.1732 26.05 29.9001 26.05Z" fill="#7284FF"/>
<path d="M30.8899 22.4H16.4699C16.1968 22.4 15.9348 22.2915 15.7416 22.0983C15.5485 21.9052 15.4399 21.6432 15.4399 21.37C15.4399 21.0969 15.5485 20.8349 15.7416 20.6417C15.9348 20.4485 16.1968 20.34 16.4699 20.34H30.8899C31.1631 20.34 31.4251 20.4485 31.6183 20.6417C31.8114 20.8349 31.9199 21.0969 31.9199 21.37C31.9199 21.6432 31.8114 21.9052 31.6183 22.0983C31.4251 22.2915 31.1631 22.4 30.8899 22.4Z" fill="#7284FF"/>
</svg>
