<svg width="48" height="48" viewBox="0 0 48 48" fill="none" xmlns="http://www.w3.org/2000/svg">
<path d="M23.63 31C23.4437 31.0013 23.2606 30.9505 23.1016 30.8533C22.9426 30.7561 22.8139 30.6165 22.73 30.45C22.04 29.06 19.78 24.45 19.78 22.77C19.78 22.5048 19.8854 22.2504 20.0729 22.0629C20.2605 21.8754 20.5148 21.77 20.78 21.77C21.0452 21.77 21.2996 21.8754 21.4871 22.0629C21.6747 22.2504 21.78 22.5048 21.78 22.77C22.1972 24.4783 22.8183 26.1301 23.63 27.69C24.4355 26.1284 25.0531 24.4769 25.47 22.77C25.47 22.5048 25.5754 22.2504 25.7629 22.0629C25.9505 21.8754 26.2048 21.77 26.47 21.77C26.7352 21.77 26.9896 21.8754 27.1771 22.0629C27.3647 22.2504 27.47 22.5048 27.47 22.77C27.47 24.41 25.21 29.06 24.52 30.45C24.4369 30.6149 24.3098 30.7536 24.1527 30.8507C23.9956 30.9478 23.8147 30.9995 23.63 31Z" fill="#2E42CC"/>
<path d="M24 23.84H23.36C22.4577 23.848 21.5627 23.6768 20.727 23.3363C19.8913 22.9959 19.1315 22.493 18.4916 21.8568C17.8517 21.2206 17.3443 20.4637 16.999 19.63C16.6538 18.7963 16.4773 17.9024 16.48 17V13.7C16.48 13.4348 16.5854 13.1804 16.7729 12.9929C16.9604 12.8054 17.2148 12.7 17.48 12.7C17.7452 12.7 17.9996 12.8054 18.1871 12.9929C18.3747 13.1804 18.48 13.4348 18.48 13.7V17C18.4813 17.633 18.6073 18.2595 18.8507 18.8438C19.0942 19.4281 19.4503 19.9587 19.8988 20.4053C20.3473 20.852 20.8794 21.2059 21.4647 21.4469C22.05 21.688 22.677 21.8113 23.31 21.81H24C25.2689 21.7969 26.4816 21.285 27.376 20.3849C28.2705 19.4848 28.7748 18.2689 28.78 17V13.7C28.78 13.4348 28.8854 13.1804 29.0729 12.9929C29.2604 12.8054 29.5148 12.7 29.78 12.7C30.0452 12.7 30.2996 12.8054 30.4871 12.9929C30.6747 13.1804 30.78 13.4348 30.78 13.7V17C30.7853 18.8053 30.0746 20.5391 28.8037 21.8213C27.5328 23.1035 25.8053 23.8294 24 23.84Z" fill="#2E42CC"/>
<path d="M21.81 23.12C21.7316 22.8691 21.5575 22.6591 21.3254 22.5356C21.0934 22.4121 20.822 22.3849 20.57 22.46L13.2 24.71C12.3803 24.8797 11.6438 25.326 11.114 25.9742C10.5842 26.6223 10.2933 27.4329 10.29 28.27V30.14C10.29 30.4052 10.3954 30.6595 10.5829 30.8471C10.7705 31.0346 11.0248 31.14 11.29 31.14C11.5553 31.14 11.8096 31.0346 11.9971 30.8471C12.1847 30.6595 12.29 30.4052 12.29 30.14V28.27C12.2944 27.8885 12.43 27.5202 12.674 27.2269C12.9181 26.9337 13.2557 26.7335 13.63 26.66H13.73L16.26 25.89L15 27.09C14.892 27.1838 14.8053 27.2998 14.7459 27.4301C14.6865 27.5603 14.6558 27.7018 14.6558 27.845C14.6558 27.9881 14.6865 28.1296 14.7459 28.2599C14.8053 28.3901 14.892 28.5061 15 28.6L18.79 31.6C18.969 31.7343 19.1863 31.8078 19.41 31.81C19.6269 31.8245 19.8426 31.7679 20.0244 31.6488C20.2063 31.5298 20.3444 31.3547 20.4178 31.1502C20.4913 30.9456 20.4961 30.7227 20.4316 30.5152C20.367 30.3076 20.2366 30.1268 20.06 30L17.18 27.73L20.56 24.54L21.15 24.36C21.401 24.2815 21.6109 24.1074 21.7344 23.8754C21.8579 23.6433 21.8851 23.3719 21.81 23.12Z" fill="#2E42CC"/>
<path d="M34.9201 24.84L26.7601 22.33C26.5095 22.261 26.2419 22.2922 26.014 22.4171C25.7861 22.5419 25.6158 22.7506 25.5391 22.9989C25.4624 23.2472 25.4853 23.5156 25.6031 23.7473C25.7209 23.979 25.9242 24.1557 26.1701 24.24L26.5101 24.34C26.5101 24.34 26.5101 24.41 26.5701 24.43L30.0601 27.73L27.4901 29.68C27.2794 29.8406 27.1411 30.0782 27.1055 30.3407C27.0699 30.6031 27.1399 30.869 27.3001 31.08C27.3932 31.2042 27.514 31.305 27.6528 31.3744C27.7917 31.4438 27.9448 31.48 28.1001 31.48C28.3176 31.4771 28.5282 31.4034 28.7001 31.27L32.2101 28.61C32.3246 28.5221 32.4188 28.4105 32.4862 28.2827C32.5535 28.155 32.5923 28.0142 32.6001 27.87C32.608 27.7253 32.5844 27.5806 32.5309 27.4459C32.4773 27.3112 32.3952 27.1898 32.2901 27.09L30.7801 25.66L34.4101 26.78C34.777 26.8615 35.1055 27.0651 35.3416 27.3576C35.5778 27.6501 35.7077 28.0141 35.7101 28.39V30.3C35.7101 30.5652 35.8154 30.8195 36.0029 31.0071C36.1905 31.1946 36.4448 31.3 36.7101 31.3C36.9753 31.3 37.2296 31.1946 37.4172 31.0071C37.6047 30.8195 37.7101 30.5652 37.7101 30.3V28.39C37.7107 27.571 37.4359 26.7757 36.9298 26.1318C36.4238 25.4879 35.7159 25.0329 34.9201 24.84Z" fill="#2E42CC"/>
<path d="M35.81 10.54C35.7458 10.3274 35.6127 10.1422 35.4316 10.0137C35.2506 9.88513 35.0319 9.82049 34.81 9.82998H31.7L31.43 7.44998C31.36 6.88998 31.32 6.35998 31.28 5.85998C31.16 3.82998 31 1.49998 27.83 1.34998C27.3559 1.36649 26.8905 1.48174 26.4634 1.68837C26.0364 1.89499 25.6572 2.18845 25.35 2.54998C25.3209 2.57406 25.2941 2.60085 25.27 2.62998C25.0918 2.92275 24.8501 3.17178 24.5628 3.3587C24.2755 3.54562 23.9499 3.66566 23.61 3.70998C23.2364 3.64718 22.8813 3.50255 22.5701 3.28645C22.2589 3.07035 21.9994 2.78812 21.81 2.45998L21.72 2.35998C21.4039 2.03178 21.0226 1.77328 20.6007 1.60107C20.1788 1.42887 19.7255 1.34674 19.27 1.35998C16.2 1.50998 16.07 3.75998 15.96 5.74998C15.96 6.28998 15.89 6.86998 15.81 7.50998L15.54 9.86998H12.44C12.2182 9.86049 11.9995 9.92513 11.8184 10.0537C11.6373 10.1822 11.5042 10.3674 11.44 10.58C11.3776 10.7884 11.3848 11.0115 11.4606 11.2154C11.5364 11.4193 11.6766 11.5929 11.86 11.71C15.4156 13.8623 19.4747 15.0418 23.63 15.13C27.7884 15.0255 31.8466 13.8325 35.4 11.67C35.5816 11.5515 35.7198 11.3773 35.7938 11.1735C35.8677 10.9696 35.8734 10.7473 35.81 10.54ZM17.81 7.73998C17.89 7.06998 17.93 6.43998 17.96 5.85998C18.09 3.61998 18.21 3.40998 19.32 3.34998C19.664 3.33998 19.998 3.4657 20.25 3.69998C20.6069 4.27777 21.0976 4.76116 21.6807 5.10928C22.2638 5.4574 22.9221 5.66 23.6 5.69998C24.2436 5.67821 24.8724 5.50137 25.433 5.18451C25.9936 4.86765 26.4694 4.42013 26.82 3.87998C27.0703 3.57662 27.4291 3.38288 27.82 3.33998C29.03 3.39998 29.17 3.64998 29.35 6.02998C29.35 6.55998 29.43 7.12998 29.51 7.71998L29.75 9.86998H23.66H17.56L17.81 7.73998ZM23.66 13.09C21.3871 13.0623 19.1352 12.6498 17 11.87C18.87 11.87 21.17 11.87 23.66 11.87C26.15 11.87 28.45 11.87 30.31 11.87C28.1686 12.6524 25.9097 13.0649 23.63 13.09H23.66Z" fill="#2E42CC"/>
<path d="M35.71 46.65H12.29C12.0458 46.6521 11.8093 46.5647 11.6251 46.4045C11.4409 46.2442 11.3217 46.0221 11.29 45.78L9.28996 30.93C9.27311 30.7873 9.28572 30.6427 9.327 30.5051C9.36828 30.3675 9.43736 30.2398 9.52996 30.13C9.62367 30.0233 9.73903 29.9378 9.86834 29.8792C9.99766 29.8206 10.138 29.7902 10.28 29.79H37.71C37.8519 29.7902 37.9923 29.8206 38.1216 29.8792C38.2509 29.9378 38.3663 30.0233 38.46 30.13C38.5526 30.2398 38.6217 30.3675 38.6629 30.5051C38.7042 30.6427 38.7168 30.7873 38.7 30.93L36.7 45.78C36.6684 46.0204 36.5507 46.2411 36.3686 46.4011C36.1865 46.5612 35.9524 46.6496 35.71 46.65ZM13.17 44.65H34.83L36.56 31.79H11.44L13.17 44.65Z" fill="#7284FF"/>
<path d="M23.5599 39.31C24.4491 39.31 25.17 38.5892 25.17 37.7C25.17 36.8108 24.4491 36.09 23.5599 36.09C22.6708 36.09 21.95 36.8108 21.95 37.7C21.95 38.5892 22.6708 39.31 23.5599 39.31Z" fill="#7284FF"/>
</svg>
