<svg width="48" height="48" viewBox="0 0 48 48" fill="none" xmlns="http://www.w3.org/2000/svg">
<path d="M24 38.66C23.9106 38.6745 23.8194 38.6745 23.73 38.66C21.29 38 9.22003 33.87 9.22003 19.89V8.75999C9.21055 8.53813 9.27518 8.31943 9.40373 8.13837C9.53229 7.95731 9.71745 7.82418 9.93003 7.75999C19.1162 4.96973 28.9239 4.96973 38.11 7.75999C38.3226 7.82418 38.5078 7.95731 38.6363 8.13837C38.7649 8.31943 38.8295 8.53813 38.82 8.75999V19.89C38.82 33.22 26.74 37.82 24.32 38.61C24.2166 38.6429 24.1086 38.6598 24 38.66ZM11.21 9.50999V19.89C11.21 31.94 21.21 35.79 23.95 36.61C26.67 35.67 36.78 31.38 36.78 19.89V9.50999C28.4251 7.11405 19.565 7.11405 11.21 9.50999Z" fill="#2E42CC"/>
<path d="M7.00006 24.82C6.22732 24.4514 5.39352 24.2277 4.54006 24.16C4.44531 25.5927 4.86754 27.012 5.73006 28.16C6.75771 29.151 8.10505 29.7431 9.53006 29.83C9.39006 29.56 9.24006 29.31 9.10006 29.03L7.00006 24.82Z" fill="#7284FF"/>
<path d="M6.43994 31.75C7.00166 33.0546 8.00801 34.1177 9.27994 34.75C10.5649 35.1673 11.9554 35.1213 13.2099 34.62C12.2243 33.677 11.3426 32.631 10.5799 31.5C9.2141 31.0886 7.74635 31.1772 6.43994 31.75Z" fill="#7284FF"/>
<path d="M14.1101 36.1C12.6968 36.2765 11.3923 36.95 10.4301 38C11.4852 38.9655 12.8506 39.5222 14.2801 39.57C15.6165 39.4146 16.8573 38.7995 17.7901 37.83C16.8123 37.3573 15.8786 36.7984 15.0001 36.16C14.7069 36.1038 14.4081 36.0836 14.1101 36.1Z" fill="#7284FF"/>
<path d="M19.28 38.51C19.0709 38.562 18.8668 38.6322 18.67 38.72C17.4335 39.4235 16.4872 40.5435 16 41.88C17.3423 42.3761 18.8177 42.3761 20.16 41.88C21.202 41.3403 22.0406 40.4771 22.55 39.42C21.4374 39.2045 20.3439 38.9002 19.28 38.51Z" fill="#7284FF"/>
<path d="M41 24.82C41.7727 24.4514 42.6065 24.2277 43.46 24.16C43.5547 25.5927 43.1325 27.012 42.27 28.16C41.2423 29.151 39.895 29.7431 38.47 29.83C38.61 29.56 38.76 29.31 38.9 29.03L41 24.82Z" fill="#7284FF"/>
<path d="M41.56 31.75C40.9983 33.0546 39.992 34.1177 38.72 34.75C37.4351 35.1673 36.0446 35.1213 34.79 34.62C35.7757 33.677 36.6574 32.631 37.42 31.5C38.7859 31.0886 40.2536 31.1772 41.56 31.75Z" fill="#7284FF"/>
<path d="M33.89 36.1C35.3033 36.2765 36.6077 36.95 37.57 38C36.5148 38.9655 35.1494 39.5222 33.72 39.57C32.3836 39.4146 31.1427 38.7995 30.21 37.83C31.1877 37.3573 32.1214 36.7984 33 36.16C33.2931 36.1038 33.592 36.0836 33.89 36.1Z" fill="#7284FF"/>
<path d="M28.7199 38.51C28.9291 38.562 29.1332 38.6322 29.33 38.72C30.5664 39.4235 31.5127 40.5435 32 41.88C30.6577 42.3761 29.1822 42.3761 27.84 41.88C26.798 41.3403 25.9593 40.4771 25.45 39.42C26.5625 39.2045 27.656 38.9002 28.7199 38.51Z" fill="#7284FF"/>
<path d="M19 18.12C18.4531 18.0737 17.9398 17.8365 17.55 17.45L18.17 16.59C18.4761 16.8612 18.8711 17.0106 19.2801 17.01C19.6901 17.01 19.85 16.86 19.85 16.57C19.85 15.9 17.75 15.81 17.75 14.39C17.7277 14.0201 17.843 13.6551 18.0738 13.3652C18.3046 13.0753 18.6346 12.8811 19 12.82V12H19.92V12.83C20.3996 12.9194 20.8357 13.1657 21.16 13.53L20.4501 14.3C20.2126 14.072 19.8991 13.9402 19.57 13.93C19.26 13.93 19.08 14.04 19.08 14.35C19.08 14.97 21.1901 15 21.1901 16.49C21.2108 16.867 21.0932 17.2386 20.8593 17.535C20.6255 17.8315 20.2915 18.0324 19.92 18.1V18.97H19V18.12Z" fill="#7284FF"/>
<path d="M21.26 22.79H24.26V15.63H21.61V13.32C22.8906 13.13 24.1189 12.6809 25.22 12H28V22.79H30.49V25.79H21.29L21.26 22.79Z" fill="#7284FF"/>
<path d="M17.5699 26.93H18.3699L18.7899 28.09C18.8499 28.24 18.8899 28.42 18.9399 28.58C18.9899 28.42 19.0299 28.24 19.0899 28.09L19.4999 26.93H20.2899V29.75H19.6199V28.92C19.6199 28.63 19.6799 28.11 19.7099 27.82L19.4799 28.59L19.1299 29.52H18.7299L18.3899 28.59L18.1599 27.82C18.2131 28.1846 18.2465 28.5518 18.2599 28.92V29.75H17.5899L17.5699 26.93Z" fill="#2E42CC"/>
<path d="M20.8501 26.94C20.8483 26.887 20.858 26.8343 20.8784 26.7854C20.8988 26.7364 20.9295 26.6925 20.9683 26.6564C21.0072 26.6204 21.0534 26.5931 21.1037 26.5765C21.154 26.5599 21.2074 26.5542 21.2601 26.56C21.3144 26.5511 21.3701 26.5541 21.4232 26.5689C21.4763 26.5836 21.5255 26.6097 21.5675 26.6454C21.6095 26.6811 21.6432 26.7254 21.6664 26.7754C21.6895 26.8255 21.7015 26.8799 21.7015 26.935C21.7015 26.9901 21.6895 27.0445 21.6664 27.0945C21.6432 27.1446 21.6095 27.1889 21.5675 27.2246C21.5255 27.2603 21.4763 27.2864 21.4232 27.3011C21.3701 27.3159 21.3144 27.3189 21.2601 27.31C21.2082 27.3156 21.1558 27.3102 21.1062 27.2942C21.0565 27.2781 21.0109 27.2518 20.9722 27.2168C20.9334 27.1819 20.9026 27.1392 20.8815 27.0915C20.8605 27.0438 20.8497 26.9921 20.8501 26.94ZM20.8501 27.58H21.6001V29.75H20.8501V27.58Z" fill="#2E42CC"/>
<path d="M22.13 29V26.73H22.88V29C22.88 29.14 22.95 29.19 23 29.19H23.08L23.17 29.74C23.0516 29.7831 22.926 29.8035 22.8 29.8C22.3 29.81 22.13 29.48 22.13 29Z" fill="#2E42CC"/>
<path d="M23.4301 29V26.73H24.1801V29C24.1801 29.14 24.2501 29.19 24.3001 29.19H24.3801L24.4701 29.74C24.3516 29.7831 24.2261 29.8035 24.1001 29.8C23.6001 29.81 23.4301 29.48 23.4301 29Z" fill="#2E42CC"/>
<path d="M24.6899 26.94C24.6819 26.8577 24.6989 26.7748 24.7388 26.7024C24.7786 26.6299 24.8395 26.5712 24.9133 26.5339C24.9872 26.4967 25.0706 26.4826 25.1526 26.4936C25.2345 26.5046 25.3113 26.5402 25.3727 26.5956C25.4341 26.651 25.4773 26.7237 25.4966 26.8041C25.516 26.8846 25.5105 26.969 25.481 27.0462C25.4515 27.1235 25.3993 27.19 25.3313 27.2371C25.2633 27.2842 25.1827 27.3096 25.0999 27.31C25.0484 27.3141 24.9966 27.3076 24.9476 27.291C24.8987 27.2744 24.8536 27.2479 24.8153 27.2133C24.7769 27.1787 24.746 27.1366 24.7244 27.0896C24.7029 27.0426 24.6911 26.9917 24.6899 26.94ZM24.6899 27.58H25.4399V29.75H24.6899V27.58Z" fill="#2E42CC"/>
<path d="M25.87 28.67C25.8819 28.4615 25.9539 28.261 26.0773 28.0926C26.2008 27.9242 26.3704 27.7953 26.5657 27.7213C26.7609 27.6473 26.9734 27.6315 27.1775 27.6758C27.3815 27.7202 27.5683 27.8227 27.7153 27.9709C27.8623 28.1192 27.9632 28.3069 28.0057 28.5114C28.0482 28.7158 28.0305 28.9281 27.9548 29.1227C27.8791 29.3173 27.7487 29.4858 27.5792 29.6078C27.4098 29.7298 27.2086 29.8 27 29.81C26.8489 29.8173 26.6978 29.7927 26.5568 29.7378C26.4157 29.6829 26.2878 29.599 26.1813 29.4915C26.0747 29.3841 25.9919 29.2554 25.9383 29.1139C25.8847 28.9723 25.8614 28.8211 25.87 28.67ZM27.26 28.67C27.26 28.34 27.17 28.13 26.95 28.13C26.73 28.13 26.63 28.34 26.63 28.67C26.63 29 26.72 29.21 26.95 29.21C27.18 29.21 27.26 29 27.26 28.67Z" fill="#2E42CC"/>
<path d="M28.42 27.58H29V27.84C29.1805 27.6503 29.4282 27.539 29.69 27.53C30.17 27.53 30.37 27.88 30.37 28.42V29.75H29.62V28.51C29.62 28.23 29.55 28.16 29.4 28.16C29.336 28.1633 29.2735 28.1801 29.2166 28.2094C29.1597 28.2387 29.1097 28.2799 29.07 28.33V29.75H28.33L28.42 27.58Z" fill="#2E42CC"/>
</svg>
