<svg width="48" height="48" viewBox="0 0 48 48" fill="none" xmlns="http://www.w3.org/2000/svg">
<path d="M44 40.4731H4C3.73478 40.4731 3.48043 40.3678 3.29289 40.1802C3.10536 39.9927 3 39.7383 3 39.4731V20.7031C3 20.4379 3.10536 20.1836 3.29289 19.996C3.48043 19.8085 3.73478 19.7031 4 19.7031H44C44.2652 19.7031 44.5196 19.8085 44.7071 19.996C44.8946 20.1836 45 20.4379 45 20.7031V39.4731C45 39.7383 44.8946 39.9927 44.7071 40.1802C44.5196 40.3678 44.2652 40.4731 44 40.4731ZM5 38.4731H43V21.7031H5V38.4731Z" fill="#2E42CC"/>
<path d="M8.84992 21.8631H8.67992C8.54965 21.8413 8.42498 21.794 8.31311 21.7238C8.20124 21.6535 8.10439 21.5619 8.02815 21.454C7.95191 21.3462 7.89779 21.2243 7.86891 21.0954C7.84004 20.9665 7.83698 20.8332 7.85992 20.7031L8.99992 13.9931C9.02202 13.8631 9.06962 13.7387 9.13999 13.6271C9.21036 13.5156 9.30209 13.4191 9.40992 13.3431C9.51953 13.2671 9.64323 13.2138 9.77376 13.1863C9.90428 13.1588 10.039 13.1577 10.1699 13.1831L44.1699 19.5031C44.4268 19.545 44.6573 19.6855 44.8122 19.8946C44.9672 20.1038 45.0346 20.3651 44.9999 20.6231C44.9759 20.7526 44.9265 20.8761 44.8547 20.9864C44.7828 21.0968 44.6898 21.1918 44.5811 21.2662C44.4724 21.3405 44.3501 21.3926 44.2212 21.4196C44.0923 21.4465 43.9593 21.4477 43.8299 21.4231L10.8299 15.2931L9.82992 21.0031C9.79644 21.24 9.67916 21.457 9.49935 21.6148C9.31955 21.7726 9.08913 21.8607 8.84992 21.8631Z" fill="#2E42CC"/>
<path d="M43.8201 21.4831C43.6863 21.4806 43.5541 21.4535 43.4301 21.4031L17.6301 10.4031L16.2101 15.4031C16.1796 15.5354 16.1226 15.6601 16.0423 15.7696C15.9621 15.8791 15.8605 15.9712 15.7435 16.0401C15.6266 16.1091 15.4968 16.1535 15.3621 16.1707C15.2275 16.1879 15.0907 16.1775 14.9602 16.1401C14.8297 16.1027 14.7082 16.0391 14.603 15.9532C14.4979 15.8674 14.4113 15.761 14.3486 15.6406C14.2859 15.5202 14.2484 15.3882 14.2383 15.2529C14.2283 15.1175 14.2459 14.9815 14.2901 14.8531L16.0001 8.72309C16.0395 8.58639 16.1076 8.45967 16.1999 8.35139C16.2922 8.2431 16.4065 8.15576 16.5352 8.09518C16.6639 8.0346 16.8041 8.00219 16.9463 8.00011C17.0886 7.99802 17.2297 8.02632 17.3601 8.08309L44.2101 19.5631C44.422 19.6534 44.5963 19.814 44.7034 20.0179C44.8106 20.2218 44.844 20.4564 44.7982 20.6822C44.7523 20.9079 44.63 21.1109 44.4518 21.2568C44.2736 21.4027 44.0504 21.4827 43.8201 21.4831Z" fill="#2E42CC"/>
<path d="M4 27.3331C3.73478 27.3331 3.48043 27.2278 3.29289 27.0402C3.10536 26.8527 3 26.5983 3 26.3331C3 26.0679 3.10536 25.8136 3.29289 25.626C3.48043 25.4385 3.73478 25.3331 4 25.3331C5.22795 25.3331 6.40561 24.8453 7.2739 23.977C8.1422 23.1087 8.63 21.9311 8.63 20.7031C8.63 20.4379 8.73536 20.1836 8.92289 19.996C9.11043 19.8085 9.36478 19.7031 9.63 19.7031C9.89522 19.7031 10.1496 19.8085 10.3371 19.996C10.5246 20.1836 10.63 20.4379 10.63 20.7031C10.6274 22.4607 9.92799 24.1455 8.6852 25.3883C7.4424 26.6311 5.75757 27.3305 4 27.3331Z" fill="#2E42CC"/>
<path d="M44.0001 27.3331C42.2425 27.3305 40.5577 26.6311 39.3149 25.3883C38.0721 24.1455 37.3728 22.4607 37.3701 20.7031C37.3701 20.4379 37.4755 20.1836 37.663 19.996C37.8505 19.8085 38.1049 19.7031 38.3701 19.7031C38.6353 19.7031 38.8897 19.8085 39.0772 19.996C39.2648 20.1836 39.3701 20.4379 39.3701 20.7031C39.3728 21.9303 39.8614 23.1064 40.7291 23.9741C41.5969 24.8418 42.773 25.3305 44.0001 25.3331C44.2653 25.3331 44.5197 25.4385 44.7072 25.626C44.8948 25.8136 45.0001 26.0679 45.0001 26.3331C45.0001 26.5983 44.8948 26.8527 44.7072 27.0402C44.5197 27.2278 44.2653 27.3331 44.0001 27.3331Z" fill="#2E42CC"/>
<path d="M9.62 40.4731C9.35478 40.4731 9.10043 40.3677 8.91289 40.1802C8.72536 39.9926 8.62 39.7383 8.62 39.4731C8.62 38.2469 8.13357 37.0707 7.26744 36.2027C6.40131 35.3347 5.22622 34.8457 4 34.8431C3.73478 34.8431 3.48043 34.7377 3.29289 34.5502C3.10536 34.3626 3 34.1083 3 33.8431C3 33.5779 3.10536 33.3235 3.29289 33.136C3.48043 32.9484 3.73478 32.8431 4 32.8431C5.75839 32.8431 7.44475 33.5416 8.68812 34.785C9.93148 36.0283 10.63 37.7147 10.63 39.4731C10.63 39.6052 10.6038 39.7361 10.5529 39.8581C10.5021 39.9801 10.4275 40.0908 10.3336 40.1837C10.2397 40.2767 10.1282 40.3502 10.0058 40.3998C9.88327 40.4495 9.75216 40.4744 9.62 40.4731Z" fill="#2E42CC"/>
<path d="M38.3601 40.4731C38.0949 40.4731 37.8405 40.3677 37.653 40.1802C37.4655 39.9927 37.3601 39.7383 37.3601 39.4731C37.3601 38.6016 37.5319 37.7386 37.8657 36.9336C38.1996 36.1285 38.6888 35.3972 39.3055 34.7814C39.9222 34.1656 40.6543 33.6775 41.4598 33.3449C42.2654 33.0123 43.1286 32.8418 44.0001 32.8431C44.2653 32.8431 44.5197 32.9484 44.7072 33.136C44.8948 33.3235 45.0001 33.5779 45.0001 33.8431C45.0001 34.1083 44.8948 34.3627 44.7072 34.5502C44.5197 34.7377 44.2653 34.8431 44.0001 34.8431C42.773 34.8457 41.5968 35.3344 40.7291 36.2021C39.8614 37.0698 39.3727 38.2459 39.3701 39.4731C39.3701 39.6053 39.3439 39.7361 39.293 39.8581C39.2422 39.9801 39.1676 40.0908 39.0737 40.1838C38.9798 40.2767 38.8683 40.3502 38.7459 40.3999C38.6234 40.4495 38.4923 40.4744 38.3601 40.4731Z" fill="#2E42CC"/>
<path d="M24.13 37.3731C22.6724 37.3731 21.2475 36.9409 20.0355 36.1311C18.8235 35.3212 17.8788 34.1702 17.321 32.8235C16.7632 31.4768 16.6173 29.9949 16.9016 28.5653C17.186 27.1357 17.8879 25.8225 18.9186 24.7917C19.9493 23.761 21.2626 23.0591 22.6922 22.7747C24.1218 22.4904 25.6037 22.6363 26.9504 23.1941C28.2971 23.7519 29.4481 24.6966 30.2579 25.9086C31.0678 27.1206 31.5 28.5455 31.5 30.0031C31.4974 31.957 30.72 33.83 29.3385 35.2116C27.9569 36.5931 26.0838 37.3705 24.13 37.3731ZM24.13 24.8531C23.109 24.8531 22.111 25.156 21.2622 25.7234C20.4135 26.2909 19.7521 27.0973 19.3618 28.0408C18.9716 28.9842 18.87 30.0223 19.0699 31.0235C19.2698 32.0247 19.7623 32.9441 20.4849 33.6653C21.2075 34.3866 22.1279 34.8772 23.1295 35.0752C24.1311 35.2732 25.1689 35.1695 26.1116 34.7775C27.0543 34.3854 27.8595 33.7225 28.4253 32.8726C28.991 32.0227 29.292 31.0241 29.29 30.0031C29.2874 28.6363 28.7426 27.3264 27.7752 26.3609C26.8078 25.3954 25.4968 24.8531 24.13 24.8531Z" fill="#2E42CC"/>
<path d="M25 29.4631H24.64V28.0431H25.89C25.9677 28.0537 26.0469 28.0475 26.122 28.0249C26.1972 28.0024 26.2667 27.964 26.3258 27.9124C26.3849 27.8608 26.4323 27.7971 26.4647 27.7256C26.4972 27.6542 26.514 27.5766 26.514 27.4981C26.514 27.4197 26.4972 27.3421 26.4647 27.2706C26.4323 27.1992 26.3849 27.1355 26.3258 27.0839C26.2667 27.0323 26.1972 26.9939 26.122 26.9713C26.0469 26.9488 25.9677 26.9426 25.89 26.9531H24.67V26.0631C24.67 25.9199 24.6131 25.7826 24.5118 25.6813C24.4105 25.58 24.2732 25.5231 24.13 25.5231C23.9868 25.5231 23.8494 25.58 23.7481 25.6813C23.6469 25.7826 23.59 25.9199 23.59 26.0631V26.9531H23.24C22.993 26.9347 22.7449 26.9674 22.5111 27.0493C22.2773 27.1311 22.063 27.2603 21.8814 27.4288C21.6999 27.5973 21.5551 27.8014 21.4561 28.0284C21.357 28.2554 21.3059 28.5005 21.3059 28.7481C21.3059 28.9958 21.357 29.2408 21.4561 29.4678C21.5551 29.6949 21.6999 29.899 21.8814 30.0675C22.063 30.236 22.2773 30.3652 22.5111 30.447C22.7449 30.5289 22.993 30.5616 23.24 30.5431H23.59V31.9731H22C21.8568 31.9731 21.7194 32.03 21.6181 32.1313C21.5169 32.2326 21.46 32.3699 21.46 32.5131C21.46 32.6563 21.5169 32.7937 21.6181 32.895C21.7194 32.9962 21.8568 33.0531 22 33.0531H23.61V33.9431C23.61 34.0863 23.6669 34.2237 23.7681 34.325C23.8694 34.4262 24.0068 34.4831 24.15 34.4831C24.2932 34.4831 24.4305 34.4262 24.5318 34.325C24.6331 34.2237 24.69 34.0863 24.69 33.9431V33.0531H25C25.4529 33.0193 25.8763 32.8155 26.1853 32.4826C26.4942 32.1497 26.6659 31.7123 26.6659 31.2581C26.6659 30.804 26.4942 30.3666 26.1853 30.0337C25.8763 29.7008 25.4529 29.497 25 29.4631ZM23.21 29.4631C23.0217 29.4631 22.8411 29.3883 22.7079 29.2552C22.5748 29.122 22.5 28.9414 22.5 28.7531C22.5 28.5648 22.5748 28.3842 22.7079 28.2511C22.8411 28.1179 23.0217 28.0431 23.21 28.0431H23.56V29.4631H23.21ZM25 31.9731H24.64V30.5431H25C25.175 30.5639 25.3364 30.6481 25.4535 30.7799C25.5706 30.9117 25.6353 31.0818 25.6353 31.2581C25.6353 31.4344 25.5706 31.6046 25.4535 31.7364C25.3364 31.8681 25.175 31.9524 25 31.9731Z" fill="#7284FF"/>
</svg>
