<svg width="48" height="48" viewBox="0 0 48 48" fill="none" xmlns="http://www.w3.org/2000/svg">
<path d="M12.92 41.42C10.8888 41.42 8.90322 40.8177 7.21432 39.6892C5.52543 38.5607 4.2091 36.9568 3.43179 35.0802C2.65447 33.2036 2.45109 31.1386 2.84736 29.1464C3.24363 27.1542 4.22176 25.3243 5.65804 23.888C7.09433 22.4517 8.92427 21.4736 10.9165 21.0773C12.9086 20.6811 14.9736 20.8845 16.8502 21.6618C18.7268 22.4391 20.3307 23.7554 21.4592 25.4443C22.5877 27.1332 23.19 29.1188 23.19 31.15C23.1847 33.8722 22.101 36.4813 20.1762 38.4062C18.2513 40.331 15.6422 41.4147 12.92 41.42ZM12.92 22.88C11.2844 22.88 9.68546 23.365 8.32546 24.2738C6.96547 25.1825 5.90548 26.4741 5.27955 27.9852C4.65361 29.4964 4.48983 31.1592 4.80893 32.7634C5.12803 34.3676 5.91568 35.8412 7.07226 36.9978C8.22884 38.1544 9.70241 38.942 11.3066 39.2611C12.9109 39.5802 14.5737 39.4164 16.0848 38.7905C17.596 38.1646 18.8876 37.1046 19.7963 35.7446C20.705 34.3846 21.19 32.7857 21.19 31.15C21.1874 28.9575 20.3152 26.8555 18.7649 25.3052C17.2145 23.7548 15.1126 22.8827 12.92 22.88Z" fill="#2E42CC"/>
<path d="M33 18.09C31.3525 18.09 29.742 17.6014 28.3721 16.6861C27.0023 15.7708 25.9346 14.4699 25.3041 12.9477C24.6737 11.4256 24.5087 9.75076 24.8301 8.13489C25.1515 6.51903 25.9449 5.03477 27.1098 3.8698C28.2748 2.70483 29.7591 1.91147 31.3749 1.59006C32.9908 1.26864 34.6657 1.4336 36.1878 2.06408C37.7099 2.69456 39.0109 3.76224 39.9262 5.1321C40.8415 6.50196 41.33 8.11248 41.33 9.76C41.33 10.8539 41.1146 11.9371 40.696 12.9477C40.2773 13.9584 39.6638 14.8767 38.8902 15.6502C38.1167 16.4237 37.1984 17.0373 36.1878 17.4559C35.1772 17.8745 34.094 18.09 33 18.09ZM33 3.44C31.7477 3.44 30.5234 3.8115 29.4823 4.50749C28.4411 5.20348 27.6297 6.19269 27.1509 7.34993C26.6721 8.50716 26.5474 9.78043 26.7924 11.0086C27.0375 12.2368 27.6413 13.3647 28.5276 14.2495C29.4139 15.1344 30.5427 15.7365 31.7713 15.9796C32.9998 16.2227 34.2729 16.0959 35.4294 15.6153C36.5859 15.1346 37.5738 14.3218 38.2681 13.2795C38.9625 12.2372 39.332 11.0124 39.33 9.76C39.3274 8.08291 38.6593 6.47542 37.4725 5.29047C36.2857 4.10553 34.6771 3.43999 33 3.44Z" fill="#2E42CC"/>
<path d="M37 42.4C35.6661 42.402 34.3616 42.0081 33.2517 41.2683C32.1418 40.5284 31.2763 39.4759 30.765 38.2439C30.2536 37.0119 30.1193 35.6559 30.379 34.3475C30.6388 33.0392 31.2809 31.8373 32.2241 30.8941C33.1673 29.9509 34.3692 29.3088 35.6775 29.049C36.9859 28.7893 38.3419 28.9236 39.5739 29.435C40.8059 29.9463 41.8584 30.8118 42.5983 31.9217C43.3381 33.0316 43.732 34.3361 43.73 35.67C43.7273 37.4541 43.0175 39.1643 41.7559 40.4259C40.4944 41.6874 38.7841 42.3973 37 42.4ZM37 30.93C36.0621 30.928 35.1447 31.2043 34.3639 31.7239C33.5831 32.2436 32.974 32.9832 32.6137 33.8491C32.2534 34.7151 32.1581 35.6684 32.3399 36.5886C32.5216 37.5087 32.9723 38.3542 33.6348 39.0181C34.2973 39.682 35.1418 40.1344 36.0616 40.3182C36.9813 40.5019 37.9349 40.4086 38.8016 40.0501C39.6683 39.6917 40.4092 39.0841 40.9305 38.3044C41.4517 37.5247 41.73 36.6079 41.73 35.67C41.73 34.4146 41.232 33.2105 40.3452 32.3218C39.4585 31.4332 38.2554 30.9326 37 30.93Z" fill="#2E42CC"/>
<path d="M26.7905 13.8509L17.6759 22.9655L19.0901 24.3797L28.2047 15.2651L26.7905 13.8509Z" fill="#2E42CC"/>
<path d="M20.603 35.874L20.403 37.874L31.443 38.978L31.643 36.978L20.603 35.874Z" fill="#2E42CC"/>
<path d="M12.92 29.93C12.3618 29.93 11.8162 29.7643 11.3522 29.454C10.8883 29.1437 10.5268 28.7027 10.3137 28.1868C10.1005 27.671 10.0453 27.1034 10.1549 26.5561C10.2645 26.0088 10.5341 25.5064 10.9295 25.1124C11.3249 24.7184 11.8283 24.4506 12.376 24.343C12.9236 24.2353 13.491 24.2925 14.0061 24.5075C14.5212 24.7225 14.9609 25.0855 15.2696 25.5506C15.5782 26.0156 15.7419 26.5618 15.74 27.12C15.74 27.4898 15.6669 27.8561 15.5251 28.1976C15.3833 28.5392 15.1754 28.8494 14.9134 29.1105C14.6514 29.3716 14.3405 29.5783 13.9984 29.719C13.6563 29.8596 13.2898 29.9313 12.92 29.93ZM12.92 26C12.6969 25.992 12.4766 26.0509 12.2872 26.169C12.0978 26.2871 11.9481 26.4591 11.8571 26.6629C11.7662 26.8668 11.7382 27.0931 11.7768 27.3129C11.8154 27.5328 11.9188 27.736 12.0737 27.8967C12.2287 28.0574 12.428 28.1681 12.6463 28.2146C12.8646 28.2612 13.0918 28.2415 13.2988 28.158C13.5058 28.0745 13.6831 27.9311 13.8081 27.7462C13.933 27.5612 13.9998 27.3432 14 27.12C14.0001 26.8297 13.8877 26.5508 13.6862 26.3418C13.4847 26.1329 13.21 26.0103 12.92 26Z" fill="#7284FF"/>
<path d="M17.7 36.89H8.14C8.02493 36.8901 7.91104 36.8669 7.80521 36.8217C7.69939 36.7765 7.60384 36.7103 7.52437 36.6271C7.44489 36.5438 7.38314 36.4454 7.34285 36.3376C7.30257 36.2298 7.28459 36.1149 7.29 36V34.58C7.29 33.3971 7.7599 32.2627 8.59631 31.4263C9.43272 30.5899 10.5671 30.12 11.75 30.12H14.1C15.2811 30.1226 16.413 30.5937 17.2472 31.4298C18.0815 32.266 18.55 33.3989 18.55 34.58V36C18.5554 36.1149 18.5374 36.2298 18.4972 36.3376C18.4569 36.4454 18.3951 36.5438 18.3156 36.6271C18.2362 36.7103 18.1406 36.7765 18.0348 36.8217C17.929 36.8669 17.8151 36.8901 17.7 36.89ZM9 35.19H16.86V34.58C16.86 33.8497 16.5706 33.1492 16.0552 32.6319C15.5397 32.1146 14.8403 31.8226 14.11 31.82H11.75C11.0206 31.8253 10.3226 32.118 9.80775 32.6348C9.29287 33.1515 9.00262 33.8505 9 34.58V35.19Z" fill="#7284FF"/>
<path d="M33 8.79001C32.5882 8.79 32.1857 8.66775 31.8434 8.43876C31.5011 8.20976 31.2345 7.88431 31.0774 7.50366C30.9203 7.12301 30.8797 6.70428 30.9607 6.30053C31.0418 5.89678 31.2409 5.52618 31.5328 5.23568C31.8247 4.94519 32.1963 4.74789 32.6004 4.66876C33.0045 4.58964 33.4231 4.63226 33.803 4.79122C34.1828 4.95019 34.507 5.21834 34.7344 5.56171C34.9617 5.90508 35.082 6.3082 35.08 6.72001C35.08 6.99269 35.0262 7.26268 34.9215 7.51448C34.8168 7.76627 34.6635 7.99492 34.4702 8.18726C34.2769 8.37961 34.0475 8.53188 33.7952 8.63532C33.5429 8.73875 33.2727 8.79132 33 8.79001ZM33 6.00001C32.8655 6.00001 32.7341 6.03989 32.6222 6.11461C32.5104 6.18933 32.4233 6.29553 32.3718 6.41978C32.3203 6.54404 32.3068 6.68076 32.3331 6.81267C32.3593 6.94457 32.4241 7.06574 32.5192 7.16084C32.6143 7.25594 32.7355 7.3207 32.8674 7.34694C32.9993 7.37318 33.136 7.35971 33.2602 7.30824C33.3845 7.25678 33.4907 7.16962 33.5654 7.05779C33.6401 6.94597 33.68 6.8145 33.68 6.68001C33.6814 6.59033 33.6647 6.5013 33.631 6.41819C33.5973 6.33508 33.5473 6.25958 33.4839 6.19617C33.4204 6.13275 33.3449 6.08272 33.2618 6.04902C33.1787 6.01532 33.0897 5.99866 33 6.00001Z" fill="#7284FF"/>
<path d="M36.38 14H29.68C29.4943 14 29.3163 13.9262 29.185 13.795C29.0537 13.6637 28.98 13.4857 28.98 13.3V11.89C28.9826 11.1243 29.2879 10.3908 29.8294 9.84937C30.3708 9.30796 31.1043 9.00264 31.87 9H34.2C34.9647 9.00265 35.6972 9.3083 36.2371 9.84999C36.7769 10.3917 37.08 11.1253 37.08 11.89V13.25C37.0869 13.346 37.0738 13.4425 37.0418 13.5333C37.0097 13.624 36.9592 13.7072 36.8935 13.7776C36.8278 13.848 36.7483 13.9041 36.6599 13.9424C36.5716 13.9806 36.4763 14.0002 36.38 14ZM30.38 12.6H35.68V11.94C35.6867 11.741 35.6534 11.5427 35.5821 11.3568C35.5109 11.1708 35.4031 11.0011 35.2651 10.8575C35.1272 10.714 34.9618 10.5995 34.7789 10.5209C34.5959 10.4423 34.3991 10.4012 34.2 10.4H31.87C31.4748 10.4 31.0958 10.557 30.8164 10.8364C30.537 11.1158 30.38 11.4948 30.38 11.89V12.6Z" fill="#7284FF"/>
<path d="M37 34.93C36.6634 34.932 36.3337 34.834 36.0529 34.6484C35.772 34.4628 35.5525 34.198 35.4223 33.8875C35.2921 33.5771 35.257 33.2349 35.3215 32.9045C35.386 32.5741 35.5471 32.2702 35.7844 32.0315C36.0218 31.7927 36.3247 31.6298 36.6547 31.5634C36.9847 31.497 37.3271 31.5301 37.6383 31.6585C37.9495 31.7868 38.2156 32.0047 38.4028 32.2845C38.5901 32.5643 38.69 32.8933 38.69 33.23C38.69 33.6791 38.5123 34.11 38.1957 34.4286C37.879 34.7471 37.4492 34.9274 37 34.93ZM37 32.74C36.9349 32.7387 36.8701 32.7504 36.8095 32.7744C36.7488 32.7984 36.6936 32.8343 36.6471 32.8799C36.6005 32.9256 36.5635 32.98 36.5383 33.0401C36.513 33.1003 36.5 33.1648 36.5 33.23C36.5 33.3626 36.5527 33.4898 36.6465 33.5836C36.7403 33.6773 36.8674 33.73 37 33.73C37.1326 33.73 37.2598 33.6773 37.3536 33.5836C37.4474 33.4898 37.5 33.3626 37.5 33.23C37.5001 33.1648 37.4871 33.1003 37.4618 33.0401C37.4366 32.98 37.3996 32.9256 37.353 32.8799C37.3064 32.8343 37.2512 32.7984 37.1906 32.7744C37.13 32.7504 37.0652 32.7387 37 32.74Z" fill="#7284FF"/>
<path d="M39.6199 39H34.2899C34.1308 39 33.9782 38.9368 33.8657 38.8243C33.7532 38.7117 33.6899 38.5591 33.6899 38.4V37.4C33.703 36.7607 33.9655 36.1517 34.4214 35.7033C34.8773 35.2549 35.4905 35.0025 36.1299 35H37.7799C38.4271 35 39.0477 35.2571 39.5053 35.7147C39.9629 36.1722 40.2199 36.7929 40.2199 37.44V38.44C40.2098 38.5921 40.1421 38.7346 40.0307 38.8386C39.9192 38.9426 39.7724 39.0003 39.6199 39ZM34.8899 37.8H38.9999V37.41C38.9999 37.0811 38.8693 36.7657 38.6368 36.5332C38.4042 36.3006 38.0888 36.17 37.7599 36.17H36.1299C35.8019 36.1726 35.488 36.3041 35.256 36.5361C35.024 36.7681 34.8926 37.0819 34.8899 37.41V37.8Z" fill="#7284FF"/>
</svg>
