<svg width="48" height="48" viewBox="0 0 48 48" fill="none" xmlns="http://www.w3.org/2000/svg">
<path d="M40.3499 9.06H2.06995C1.80473 9.06 1.55038 9.16535 1.36284 9.35289C1.1753 9.54043 1.06995 9.79478 1.06995 10.06V37.06C1.06995 37.3252 1.1753 37.5796 1.36284 37.7671C1.55038 37.9546 1.80473 38.06 2.06995 38.06H40.3499C40.6152 38.06 40.8695 37.9546 41.0571 37.7671C41.2446 37.5796 41.3499 37.3252 41.3499 37.06V33.85C41.3499 33.5848 41.2446 33.3304 41.0571 33.1429C40.8695 32.9554 40.6152 32.85 40.3499 32.85C40.0847 32.85 39.8304 32.9554 39.6428 33.1429C39.4553 33.3304 39.3499 33.5848 39.3499 33.85V36.09H3.06995V16.69H39.3499V18.35C39.3499 18.6152 39.4553 18.8696 39.6428 19.0571C39.8304 19.2446 40.0847 19.35 40.3499 19.35C40.6152 19.35 40.8695 19.2446 41.0571 19.0571C41.2446 18.8696 41.3499 18.6152 41.3499 18.35V10.06C41.3499 9.79478 41.2446 9.54043 41.0571 9.35289C40.8695 9.16535 40.6152 9.06 40.3499 9.06ZM3.06995 14.69V11.06H39.3499V14.69H3.06995Z" fill="#2E42CC"/>
<path d="M5.52006 13.62C5.91218 13.62 6.23006 13.3021 6.23006 12.91C6.23006 12.5179 5.91218 12.2 5.52006 12.2C5.12794 12.2 4.81006 12.5179 4.81006 12.91C4.81006 13.3021 5.12794 13.62 5.52006 13.62Z" fill="#2E42CC"/>
<path d="M8.19999 13.62C8.59211 13.62 8.90999 13.3021 8.90999 12.91C8.90999 12.5179 8.59211 12.2 8.19999 12.2C7.80787 12.2 7.48999 12.5179 7.48999 12.91C7.48999 13.3021 7.80787 13.62 8.19999 13.62Z" fill="#2E42CC"/>
<path d="M21.5899 30.55C22.087 30.55 22.4899 30.1471 22.4899 29.65C22.4899 29.1529 22.087 28.75 21.5899 28.75C21.0929 28.75 20.6899 29.1529 20.6899 29.65C20.6899 30.1471 21.0929 30.55 21.5899 30.55Z" fill="#7284FF"/>
<path d="M24.62 30.55C25.117 30.55 25.52 30.1471 25.52 29.65C25.52 29.1529 25.117 28.75 24.62 28.75C24.1229 28.75 23.72 29.1529 23.72 29.65C23.72 30.1471 24.1229 30.55 24.62 30.55Z" fill="#7284FF"/>
<path d="M11.6601 25.92C10.9733 25.922 10.3015 25.7202 9.72951 25.3401C9.15756 24.96 8.71124 24.4188 8.44707 23.7849C8.1829 23.151 8.11276 22.453 8.24552 21.7792C8.37827 21.1054 8.70797 20.4862 9.19286 19.9999C9.67774 19.5136 10.296 19.1822 10.9694 19.0475C11.6428 18.9128 12.341 18.9809 12.9756 19.2432C13.6103 19.5056 14.1528 19.9503 14.5346 20.5212C14.9163 21.092 15.1201 21.7633 15.1201 22.45C15.1201 23.3686 14.7558 24.2497 14.1073 24.9002C13.4587 25.5506 12.5786 25.9174 11.6601 25.92ZM11.6601 20.99C11.3685 20.9881 11.0829 21.0728 10.8396 21.2336C10.5964 21.3944 10.4064 21.6238 10.2939 21.8928C10.1814 22.1619 10.1514 22.4583 10.2079 22.7443C10.2643 23.0304 10.4045 23.2933 10.6106 23.4994C10.8168 23.7056 11.0797 23.8458 11.3658 23.9022C11.6518 23.9586 11.9482 23.9287 12.2172 23.8162C12.4862 23.7037 12.7157 23.5137 12.8765 23.2705C13.0372 23.0272 13.122 22.7416 13.1201 22.45C13.1174 22.0645 12.9624 21.6958 12.6889 21.4241C12.4154 21.1525 12.0455 21 11.6601 21V20.99Z" fill="#7284FF"/>
<path d="M16.81 34.06H6.51001C6.24479 34.06 5.99044 33.9546 5.8029 33.7671C5.61537 33.5796 5.51001 33.3252 5.51001 33.06V31.18C5.51265 29.8733 6.03291 28.6209 6.95689 27.6969C7.88087 26.7729 9.1333 26.2526 10.44 26.25H12.88C14.1875 26.25 15.4415 26.7694 16.366 27.694C17.2906 28.6185 17.81 29.8725 17.81 31.18V33.06C17.81 33.3252 17.7047 33.5796 17.5171 33.7671C17.3296 33.9546 17.0752 34.06 16.81 34.06ZM7.51001 32.06H15.81V31.18C15.8074 30.4037 15.4978 29.66 14.9489 29.1111C14.4 28.5622 13.6563 28.2526 12.88 28.25H10.44C9.66374 28.2526 8.92001 28.5622 8.3711 29.1111C7.82219 29.66 7.51265 30.4037 7.51001 31.18V32.06Z" fill="#7284FF"/>
<path d="M33.27 22.91H21.16C20.8948 22.91 20.6405 22.8046 20.4529 22.6171C20.2654 22.4295 20.16 22.1752 20.16 21.91C20.16 21.6448 20.2654 21.3904 20.4529 21.2029C20.6405 21.0153 20.8948 20.91 21.16 20.91H33.27C33.5353 20.91 33.7896 21.0153 33.9771 21.2029C34.1647 21.3904 34.27 21.6448 34.27 21.91C34.27 22.1752 34.1647 22.4295 33.9771 22.6171C33.7896 22.8046 33.5353 22.91 33.27 22.91Z" fill="#7284FF"/>
<path d="M32.05 27H21.24C20.9748 27 20.7204 26.8946 20.5329 26.7071C20.3453 26.5196 20.24 26.2652 20.24 26C20.24 25.7348 20.3453 25.4804 20.5329 25.2929C20.7204 25.1054 20.9748 25 21.24 25H32.05C32.3152 25 32.5696 25.1054 32.7571 25.2929C32.9446 25.4804 33.05 25.7348 33.05 26C33.05 26.2652 32.9446 26.5196 32.7571 26.7071C32.5696 26.8946 32.3152 27 32.05 27Z" fill="#7284FF"/>
<path d="M47 19.7L40.7 17.33C40.6502 17.3251 40.5999 17.3251 40.55 17.33C40.4837 17.3203 40.4163 17.3203 40.35 17.33C40.2838 17.3195 40.2163 17.3195 40.15 17.33C40.1002 17.3245 40.0499 17.3245 40 17.33L33.68 19.7C33.4886 19.7715 33.3237 19.8999 33.2075 20.068C33.0913 20.2361 33.0294 20.4357 33.03 20.64V26.16C33.03 31.45 39.62 34.8 39.9 34.94L40 35H40.08C40.1627 35.0152 40.2474 35.0152 40.33 35C40.4128 35.0136 40.4973 35.0136 40.58 35H40.65L40.77 34.95C41.05 34.81 47.64 31.46 47.64 26.17V20.64C47.6415 20.4369 47.581 20.2381 47.4667 20.0702C47.3523 19.9023 47.1896 19.7731 47 19.7ZM45.65 26.16C45.65 29.54 41.65 32.16 40.34 32.91C39 32.13 35 29.54 35 26.16V21.33L40.32 19.33L45.63 21.33L45.65 26.16Z" fill="#2E42CC"/>
<path d="M39.39 28.6C39.1276 28.5989 38.8762 28.4947 38.69 28.31L36.69 26.31C36.5037 26.1226 36.3992 25.8692 36.3992 25.605C36.3992 25.3408 36.5037 25.0873 36.69 24.9C36.7829 24.8063 36.8935 24.7319 37.0154 24.6811C37.1372 24.6303 37.268 24.6042 37.4 24.6042C37.532 24.6042 37.6627 24.6303 37.7845 24.6811C37.9064 24.7319 38.017 24.8063 38.11 24.9L39.38 26.18L43.04 22.52C43.1329 22.4263 43.2435 22.3519 43.3654 22.3011C43.4872 22.2503 43.6179 22.2242 43.75 22.2242C43.882 22.2242 44.0127 22.2503 44.1345 22.3011C44.2564 22.3519 44.367 22.4263 44.46 22.52C44.6462 22.7073 44.7508 22.9608 44.7508 23.225C44.7508 23.4892 44.6462 23.7426 44.46 23.93L40.1 28.31C40.0065 28.4027 39.8957 28.476 39.7739 28.5258C39.652 28.5755 39.5216 28.6007 39.39 28.6Z" fill="#7284FF"/>
</svg>
