<svg width="48" height="48" viewBox="0 0 48 48" fill="none" xmlns="http://www.w3.org/2000/svg">
<path d="M35.49 40.31L30.94 28.51L30.8 28.57C30.4722 29.1284 30.2486 29.7417 30.14 30.38C30.06 30.7 29.98 31.02 29.88 31.38L32.72 38.71L30.33 37.57C30.1994 37.5077 30.0568 37.4744 29.9121 37.4726C29.7674 37.4707 29.624 37.5003 29.4919 37.5592C29.3597 37.6182 29.2419 37.7051 29.1466 37.814C29.0514 37.9229 28.9808 38.0512 28.94 38.19L28.14 40.97L25.37 33.8L24.82 32.36L24.69 32.26C24.2771 31.8923 23.8357 31.5579 23.37 31.26V43.49L21.7 41.4C21.6064 41.2814 21.4871 41.1855 21.3511 41.1196C21.2152 41.0537 21.0661 41.0195 20.915 41.0195C20.7639 41.0195 20.6147 41.0537 20.4788 41.1196C20.3428 41.1855 20.2236 41.2814 20.13 41.4L18.46 43.49V33.73C18.2571 33.733 18.0549 33.7061 17.86 33.65C17.5424 33.5291 17.2537 33.3429 17.0126 33.1035C16.7714 32.8641 16.5832 32.5767 16.46 32.26V46.35C16.4612 46.5566 16.5263 46.7578 16.6465 46.9258C16.7666 47.0939 16.9359 47.2206 17.131 47.2886C17.3261 47.3566 17.5375 47.3624 17.7361 47.3054C17.9346 47.2483 18.1107 47.1312 18.24 46.97L20.92 43.63L23.59 47C23.6831 47.1179 23.8016 47.2132 23.9366 47.279C24.0716 47.3448 24.2198 47.3793 24.37 47.38C24.4826 47.3787 24.5941 47.3584 24.7 47.32C24.8951 47.2518 25.0643 47.1248 25.1843 46.9564C25.3043 46.7881 25.3691 46.5867 25.37 46.38V39.38L27.37 44.48C27.4425 44.6679 27.5701 44.8296 27.736 44.9438C27.902 45.058 28.0985 45.1194 28.3 45.12C28.5094 45.1116 28.7109 45.0375 28.876 44.9083C29.0411 44.7791 29.1614 44.6013 29.22 44.4L30.52 39.91L34.11 41.64C34.2907 41.726 34.4932 41.7558 34.6911 41.7255C34.889 41.6952 35.0732 41.6062 35.22 41.47C35.3834 41.3312 35.4979 41.1435 35.5465 40.9346C35.5951 40.7257 35.5753 40.5068 35.49 40.31Z" fill="#7284FF"/>
<path d="M37.12 14.89C36.63 14.58 35.72 14.01 35.63 13.73C35.6808 13.0649 35.8608 12.4161 36.16 11.82C36.66 10.56 37.23 9.12998 36.45 8.05998C35.67 6.98998 34.12 7.05998 32.76 7.16998C32.0944 7.27385 31.415 7.24667 30.76 7.08998C30.435 6.53026 30.2115 5.9175 30.1 5.27998C29.76 3.93998 29.38 2.42998 28.1 2.01998C26.82 1.60998 25.73 2.53998 24.65 3.43998C24.11 3.88998 23.31 4.54998 22.96 4.54998C22.61 4.54998 21.81 3.88998 21.27 3.44998C20.23 2.53998 19.1 1.61998 17.86 1.99998C16.62 2.37998 16.2 3.91998 15.86 5.25998C15.753 5.89874 15.5293 6.51233 15.2 7.06998C14.5449 7.22667 13.8655 7.25385 13.2 7.14998C11.84 7.05998 10.29 6.95998 9.50996 8.03998C8.72996 9.11998 9.29996 10.54 9.79996 11.8C10.0991 12.3961 10.2791 13.0449 10.33 13.71C10.24 13.99 9.32996 14.56 8.83996 14.87C7.66996 15.61 6.32996 16.44 6.32996 17.81C6.32996 19.18 7.66996 20.02 8.83996 20.81C9.32996 21.11 10.24 21.69 10.33 21.97C10.2789 22.6318 10.0988 23.2773 9.79996 23.87C9.29996 25.14 8.72996 26.57 9.50996 27.64C10.29 28.71 11.84 28.64 13.2 28.53C13.8649 28.4239 14.5441 28.4476 15.2 28.6C15.5232 29.1605 15.7466 29.7729 15.86 30.41C16.0024 31.0536 16.2032 31.6829 16.46 32.29C16.5831 32.6067 16.7714 32.894 17.0125 33.1334C17.2537 33.3729 17.5424 33.5591 17.86 33.68C18.0549 33.736 18.2571 33.763 18.46 33.76C19.5507 33.5853 20.5528 33.0543 21.31 32.25C21.61 32 21.99 31.69 22.31 31.46C22.502 31.2974 22.7328 31.1871 22.98 31.14C23.1113 31.1559 23.2375 31.2003 23.35 31.27C23.8157 31.5679 24.2571 31.9023 24.67 32.27L24.8 32.37C24.98 32.53 25.16 32.68 25.35 32.82C25.9402 33.3821 26.6995 33.7337 27.51 33.82C27.7165 33.8188 27.9219 33.7885 28.12 33.73C28.5774 33.5175 28.9755 33.1956 29.279 32.7927C29.5825 32.3898 29.782 31.9183 29.86 31.42C29.96 31.1 30.04 30.78 30.12 30.42C30.2286 29.7817 30.4522 29.1684 30.78 28.61L30.92 28.55C31.5209 28.4742 32.129 28.4742 32.73 28.55C34.1 28.63 35.65 28.73 36.43 27.66C37.21 26.59 36.64 25.16 36.14 23.89C35.8411 23.2973 35.661 22.6518 35.61 21.99C35.7 21.71 36.61 21.13 37.1 20.83C38.27 20.09 39.61 19.25 39.61 17.83C39.61 16.41 38.29 15.63 37.12 14.89ZM36.05 19.08C35.05 19.71 34.05 20.35 33.73 21.32C33.5492 22.4398 33.7499 23.5879 34.3 24.58C34.5831 25.1582 34.7657 25.7804 34.84 26.42C34.1849 26.5767 33.5055 26.6039 32.84 26.5C31.9514 26.3787 31.0476 26.433 30.18 26.66C29.9692 26.7295 29.7703 26.8307 29.59 26.96C29.1615 27.2949 28.8386 27.7463 28.66 28.26C28.459 28.7922 28.292 29.3366 28.16 29.89C28.0506 30.5393 27.8308 31.165 27.51 31.74C27.21 31.74 26.38 31.05 25.93 30.68C25.74 30.52 25.54 30.35 25.34 30.2C24.8254 29.7533 24.2271 29.4134 23.58 29.2L23.34 29.14C23.2168 29.1301 23.0931 29.1301 22.97 29.14C22.4749 29.1573 21.9927 29.3019 21.57 29.56C21.0153 29.8874 20.49 30.2621 20 30.68C19.5436 31.1169 19.0203 31.4782 18.45 31.75C18.1224 31.1843 17.8988 30.5645 17.79 29.92C17.6236 28.9575 17.2293 28.0489 16.64 27.27C16.5569 27.1669 16.463 27.073 16.36 26.99C15.7445 26.6065 15.0233 26.4279 14.3 26.48C13.91 26.48 13.51 26.48 13.11 26.53C12.4648 26.6239 11.8081 26.6036 11.17 26.47C11.2228 25.8224 11.3993 25.191 11.69 24.61C12.24 23.6179 12.4407 22.4698 12.26 21.35C11.95 20.35 10.93 19.74 9.93996 19.11C9.43996 18.8 8.40996 18.16 8.35996 17.87C8.30996 17.58 9.43996 16.92 9.93996 16.61C10.94 15.99 11.94 15.34 12.26 14.37C12.44 13.2501 12.2393 12.1023 11.69 11.11C11.4057 10.5322 11.223 9.90976 11.15 9.26998C11.805 9.11328 12.4844 9.08611 13.15 9.18998C14.2531 9.40981 15.3981 9.25127 16.4 8.73998C17.1876 7.9358 17.6809 6.88935 17.8 5.76998C17.9137 5.12184 18.1333 4.49683 18.45 3.91998C18.75 3.91998 19.58 4.60998 20.03 4.98998C20.8249 5.83407 21.8824 6.38396 23.03 6.54998C24.1665 6.38325 25.2132 5.83698 26 4.99998C26.459 4.56634 26.9817 4.20549 27.55 3.92998C27.8986 4.49929 28.1329 5.13105 28.24 5.78998C28.3737 6.90253 28.8773 7.93791 29.67 8.72998C30.6718 9.24127 31.8168 9.39981 32.92 9.17998C33.5651 9.08608 34.2218 9.10639 34.86 9.23998C34.8092 9.88788 34.6325 10.5197 34.34 11.1C33.7899 12.092 33.5892 13.2401 33.77 14.36C34.08 15.36 35.1 15.98 36.09 16.6C36.59 16.91 37.61 17.6 37.67 17.85C37.73 18.1 36.55 18.77 36.05 19.08Z" fill="#2E42CC"/>
<path d="M23 7.34998C20.2152 7.34998 17.5445 8.45622 15.5754 10.4254C13.6062 12.3945 12.5 15.0652 12.5 17.85C12.5 20.6347 13.6062 23.3055 15.5754 25.2746C17.5445 27.2437 20.2152 28.35 23 28.35H23.26C23.9735 28.3061 24.6805 28.1888 25.37 28C26.3565 27.7762 27.3038 27.4054 28.18 26.9C28.7834 26.5596 29.3498 26.1574 29.87 25.7C31.4717 24.2987 32.6084 22.4425 33.1286 20.3789C33.6487 18.3152 33.5276 16.1421 32.7814 14.149C32.0352 12.1559 30.6994 10.4375 28.9519 9.22281C27.2044 8.00813 25.1282 7.35484 23 7.34998ZM29.09 23.72C28.3025 24.5406 27.3568 25.1932 26.3101 25.6384C25.2634 26.0835 24.1374 26.312 23 26.31C22.4968 26.3089 21.9947 26.2621 21.5 26.17C19.6354 25.837 17.9357 24.89 16.6712 23.4797C15.4068 22.0694 14.6503 20.2768 14.5221 18.387C14.3938 16.4972 14.9012 14.6188 15.9635 13.0507C17.0258 11.4825 18.582 10.3146 20.3846 9.7327C22.1871 9.15086 24.1325 9.18849 25.9112 9.83963C27.6898 10.4908 29.1997 11.718 30.2006 13.3261C31.2014 14.9342 31.6358 16.8308 31.4345 18.7142C31.2333 20.5976 30.408 22.3596 29.09 23.72Z" fill="#2E42CC"/>
<path d="M29.93 15.66C29.8697 15.4827 29.7609 15.326 29.616 15.2075C29.471 15.0891 29.2957 15.0137 29.11 14.99L25.49 14.51L23.83 11.26C23.7461 11.0935 23.6174 10.9539 23.4584 10.8567C23.2994 10.7595 23.1164 10.7087 22.93 10.71C22.7432 10.7124 22.5609 10.7671 22.4036 10.8678C22.2463 10.9685 22.1203 11.1113 22.04 11.28L20.47 14.58L16.86 15.16C16.6755 15.1888 16.5028 15.2688 16.3615 15.3907C16.2201 15.5127 16.1156 15.6718 16.06 15.85C16.0094 16.0254 16.0078 16.2114 16.0554 16.3877C16.103 16.564 16.198 16.7238 16.33 16.85L19 19.38L18.41 23C18.3754 23.1884 18.3956 23.3829 18.4683 23.5601C18.541 23.7374 18.663 23.8901 18.82 24C18.9888 24.1222 19.1916 24.1886 19.4 24.19C19.5688 24.1905 19.7346 24.1456 19.88 24.06L23.09 22.32L26 23.76L26.35 23.94C26.5161 24.0242 26.7023 24.0604 26.8878 24.0445C27.0733 24.0286 27.2507 23.9612 27.4 23.85C27.5533 23.7376 27.6715 23.5839 27.7405 23.4067C27.8096 23.2296 27.8268 23.0365 27.79 22.85L27.13 19.28L29.71 16.7C29.8407 16.5648 29.9307 16.3956 29.9696 16.2116C30.0086 16.0277 29.9948 15.8365 29.93 15.66ZM25.05 19.12L25.44 21.24L23.52 20.24C23.3766 20.1647 23.217 20.1253 23.055 20.1253C22.893 20.1253 22.7334 20.1647 22.59 20.24L20.7 21.24L21 19.17C21.025 19.01 21.0108 18.8463 20.9585 18.693C20.9062 18.5397 20.8175 18.4014 20.7 18.29L19.14 16.81L21.26 16.47C21.4202 16.4459 21.5722 16.3833 21.7028 16.2875C21.8335 16.1917 21.9389 16.0656 22.01 15.92L23 14L24 15.92C24.0733 16.065 24.1808 16.1899 24.3132 16.284C24.4456 16.3781 24.599 16.4385 24.76 16.46L26.89 16.74L25.37 18.26C25.2519 18.3674 25.1612 18.5015 25.1055 18.6511C25.0499 18.8007 25.0308 18.9615 25.05 19.12Z" fill="#7284FF"/>
</svg>
