<svg width="48" height="48" viewBox="0 0 48 48" fill="none" xmlns="http://www.w3.org/2000/svg">
<path d="M31.38 41.16C28.4133 41.16 25.5132 40.2802 23.0465 38.632C20.5797 36.9838 18.6571 34.6411 17.5218 31.9002C16.3865 29.1593 16.0895 26.1433 16.6682 23.2336C17.247 20.3239 18.6756 17.6512 20.7734 15.5534C22.8712 13.4556 25.5439 12.027 28.4537 11.4482C31.3634 10.8694 34.3794 11.1665 37.1203 12.3018C39.8612 13.4371 42.2038 15.3597 43.8521 17.8264C45.5003 20.2932 46.38 23.1933 46.38 26.16C46.38 30.1382 44.7997 33.9535 41.9866 36.7666C39.1736 39.5796 35.3583 41.16 31.38 41.16ZM31.38 13.16C28.8089 13.16 26.2954 13.9224 24.1576 15.3509C22.0198 16.7793 20.3535 18.8097 19.3696 21.1851C18.3856 23.5605 18.1282 26.1744 18.6298 28.6962C19.1314 31.2179 20.3695 33.5343 22.1876 35.3524C24.0057 37.1704 26.3221 38.4086 28.8438 38.9102C31.3656 39.4118 33.9795 39.1544 36.3549 38.1704C38.7303 37.1865 40.7607 35.5202 42.1891 33.3824C43.6176 31.2446 44.38 28.7311 44.38 26.16C44.38 22.7122 43.0104 19.4056 40.5724 16.9676C38.1344 14.5296 34.8278 13.16 31.38 13.16Z" fill="#2E42CC"/>
<path d="M31.2899 37.49C29.0463 37.492 26.8524 36.8283 24.986 35.583C23.1196 34.3377 21.6646 32.5668 20.8051 30.4942C19.9455 28.4217 19.7201 26.1408 20.1574 23.9401C20.5946 21.7395 21.6748 19.7179 23.2614 18.1314C24.8479 16.5449 26.8694 15.4646 29.0701 15.0274C31.2708 14.5902 33.5517 14.8156 35.6242 15.6751C37.6967 16.5347 39.4677 17.9897 40.713 19.8561C41.9583 21.7225 42.6219 23.9163 42.6199 26.16C42.6147 29.1633 41.4193 32.042 39.2956 34.1657C37.172 36.2893 34.2932 37.4847 31.2899 37.49ZM31.2899 16.82C29.4422 16.818 27.6355 17.3641 26.0982 18.3892C24.5609 19.4143 23.3622 20.8723 22.6538 22.5788C21.9453 24.2853 21.7589 26.1636 22.1182 27.976C22.4774 29.7884 23.3662 31.4536 24.672 32.7608C25.9779 34.0681 27.6421 34.9586 29.4541 35.3198C31.2662 35.681 33.1446 35.4966 34.8519 34.79C36.5591 34.0834 38.0184 32.8862 39.0452 31.3501C40.0719 29.8139 40.6199 28.0077 40.6199 26.16C40.6173 23.6854 39.6338 21.3128 37.8849 19.5621C36.1361 17.8113 33.7645 16.8253 31.2899 16.82Z" fill="#2E42CC"/>
<path d="M31.15 29.34C30.9133 29.3439 30.6828 29.2636 30.4997 29.1134C30.3165 28.9633 30.1926 28.753 30.15 28.52L29.73 26.13C29.7077 25.9987 29.7115 25.8643 29.7411 25.7344C29.7707 25.6045 29.8257 25.4818 29.9027 25.3731C29.9798 25.2645 30.0775 25.1721 30.1903 25.1012C30.3031 25.0303 30.4287 24.9824 30.56 24.96C30.6914 24.9377 30.8258 24.9415 30.9557 24.9711C31.0855 25.0007 31.2083 25.0556 31.3169 25.1327C31.4256 25.2098 31.518 25.3075 31.5889 25.4203C31.6597 25.5331 31.7077 25.6587 31.73 25.79L32.15 28.17C32.173 28.3001 32.1699 28.4334 32.1411 28.5623C32.1122 28.6912 32.0581 28.8131 31.9818 28.9209C31.9056 29.0288 31.8087 29.1205 31.6969 29.1907C31.585 29.2609 31.4603 29.3083 31.33 29.33L31.15 29.34Z" fill="#7284FF"/>
<path d="M30.74 26.94C30.6029 26.9395 30.4674 26.9109 30.3418 26.8559C30.2162 26.8008 30.1033 26.7205 30.01 26.62C29.8238 26.4326 29.7192 26.1792 29.7192 25.915C29.7192 25.6508 29.8238 25.3973 30.01 25.21L33.22 22.21C33.4074 22.0237 33.6608 21.9192 33.925 21.9192C34.1892 21.9192 34.4427 22.0237 34.63 22.21C34.7238 22.3029 34.7982 22.4135 34.8489 22.5354C34.8997 22.6573 34.9258 22.788 34.9258 22.92C34.9258 23.052 34.8997 23.1827 34.8489 23.3046C34.7982 23.4264 34.7238 23.537 34.63 23.63L31.42 26.63C31.2419 26.8173 30.9982 26.9284 30.74 26.94Z" fill="#7284FF"/>
<path d="M13.2801 24.78H8.93005C8.66484 24.78 8.41048 24.6747 8.22295 24.4871C8.03541 24.2996 7.93005 24.0452 7.93005 23.78C7.93005 23.5148 8.03541 23.2605 8.22295 23.0729C8.41048 22.8854 8.66484 22.78 8.93005 22.78H13.2801C13.5453 22.78 13.7996 22.8854 13.9872 23.0729C14.1747 23.2605 14.2801 23.5148 14.2801 23.78C14.2801 24.0452 14.1747 24.2996 13.9872 24.4871C13.7996 24.6747 13.5453 24.78 13.2801 24.78Z" fill="#7284FF"/>
<path d="M15.21 19.81H7C6.73478 19.81 6.48043 19.7046 6.29289 19.5171C6.10536 19.3296 6 19.0752 6 18.81C6 18.5448 6.10536 18.2904 6.29289 18.1029C6.48043 17.9154 6.73478 17.81 7 17.81H15.22C15.4852 17.81 15.7396 17.9154 15.9271 18.1029C16.1146 18.2904 16.22 18.5448 16.22 18.81C16.22 19.0752 16.1146 19.3296 15.9271 19.5171C15.7396 19.7046 15.4852 19.81 15.22 19.81H15.21Z" fill="#7284FF"/>
<path d="M16 34.72H9.52002C9.2548 34.72 9.00045 34.6146 8.81291 34.4271C8.62538 34.2395 8.52002 33.9852 8.52002 33.72C8.52002 33.4548 8.62538 33.2004 8.81291 33.0129C9.00045 32.8253 9.2548 32.72 9.52002 32.72H16C16.2652 32.72 16.5196 32.8253 16.7071 33.0129C16.8947 33.2004 17 33.4548 17 33.72C17 33.9852 16.8947 34.2395 16.7071 34.4271C16.5196 34.6146 16.2652 34.72 16 34.72Z" fill="#7284FF"/>
<path d="M13.34 29.75H2.61999C2.35478 29.75 2.10042 29.6446 1.91289 29.4571C1.72535 29.2696 1.62 29.0152 1.62 28.75C1.62 28.4848 1.72535 28.2304 1.91289 28.0429C2.10042 27.8554 2.35478 27.75 2.61999 27.75H13.34C13.6052 27.75 13.8596 27.8554 14.0471 28.0429C14.2346 28.2304 14.34 28.4848 14.34 28.75C14.34 29.0152 14.2346 29.2696 14.0471 29.4571C13.8596 29.6446 13.6052 29.75 13.34 29.75Z" fill="#7284FF"/>
<path d="M24.89 26.63H24C23.7348 26.63 23.4804 26.5246 23.2929 26.3371C23.1054 26.1496 23 25.8952 23 25.63C23 25.3648 23.1054 25.1104 23.2929 24.9229C23.4804 24.7354 23.7348 24.63 24 24.63H24.91C25.1752 24.63 25.4296 24.7354 25.6171 24.9229C25.8046 25.1104 25.91 25.3648 25.91 25.63C25.91 25.8952 25.8046 26.1496 25.6171 26.3371C25.4296 26.5246 25.1752 26.63 24.91 26.63H24.89Z" fill="#2E42CC"/>
<path d="M38.78 26.72H37.86C37.5948 26.72 37.3404 26.6146 37.1529 26.4271C36.9653 26.2395 36.86 25.9852 36.86 25.72C36.86 25.4548 36.9653 25.2004 37.1529 25.0129C37.3404 24.8253 37.5948 24.72 37.86 24.72H38.78C39.0452 24.72 39.2996 24.8253 39.4871 25.0129C39.6746 25.2004 39.78 25.4548 39.78 25.72C39.78 25.9852 39.6746 26.2395 39.4871 26.4271C39.2996 26.6146 39.0452 26.72 38.78 26.72Z" fill="#2E42CC"/>
<path d="M31.38 20.65C31.1148 20.65 30.8604 20.5446 30.6729 20.3571C30.4854 20.1696 30.38 19.9152 30.38 19.65V18.74C30.38 18.4748 30.4854 18.2204 30.6729 18.0329C30.8604 17.8453 31.1148 17.74 31.38 17.74C31.6452 17.74 31.8996 17.8453 32.0871 18.0329C32.2747 18.2204 32.38 18.4748 32.38 18.74V19.65C32.38 19.9152 32.2747 20.1696 32.0871 20.3571C31.8996 20.5446 31.6452 20.65 31.38 20.65Z" fill="#2E42CC"/>
<path d="M31.29 34.53C31.0248 34.53 30.7705 34.4246 30.5829 34.2371C30.3954 34.0496 30.29 33.7952 30.29 33.53V32.62C30.29 32.3548 30.3954 32.1004 30.5829 31.9129C30.7705 31.7254 31.0248 31.62 31.29 31.62C31.5553 31.62 31.8096 31.7254 31.9971 31.9129C32.1847 32.1004 32.29 32.3548 32.29 32.62V33.53C32.29 33.7952 32.1847 34.0496 31.9971 34.2371C31.8096 34.4246 31.5553 34.53 31.29 34.53Z" fill="#2E42CC"/>
<path d="M33.08 13.26H29.08C28.8147 13.26 28.5604 13.1546 28.3728 12.9671C28.1853 12.7796 28.08 12.5252 28.08 12.26V9.41998C28.08 9.15477 28.1853 8.90041 28.3728 8.71288C28.5604 8.52534 28.8147 8.41998 29.08 8.41998H33.08C33.3452 8.41998 33.5995 8.52534 33.7871 8.71288C33.9746 8.90041 34.08 9.15477 34.08 9.41998V12.26C34.08 12.5252 33.9746 12.7796 33.7871 12.9671C33.5995 13.1546 33.3452 13.26 33.08 13.26ZM30.08 11.26H32.08V10.42H30.08V11.26Z" fill="#2E42CC"/>
</svg>
