<svg width="48" height="48" viewBox="0 0 48 48" fill="none" xmlns="http://www.w3.org/2000/svg">
<path d="M9.28005 36.65C9.24771 36.6196 9.20903 36.5968 9.16681 36.5832C9.12458 36.5695 9.07986 36.5655 9.03586 36.5712C8.99186 36.5769 8.94968 36.5924 8.91237 36.6164C8.87505 36.6404 8.84352 36.6723 8.82005 36.71L6.28005 40.31C6.23696 40.362 6.21338 40.4275 6.21338 40.495C6.21338 40.5626 6.23696 40.628 6.28005 40.68L7.58005 42C7.63613 42.055 7.71153 42.0858 7.79005 42.0858C7.86858 42.0858 7.94397 42.055 8.00005 42L11.6101 39.48C11.6477 39.4565 11.6797 39.425 11.7037 39.3877C11.7277 39.3504 11.7431 39.3082 11.7489 39.2642C11.7546 39.2202 11.7505 39.1755 11.7369 39.1332C11.7233 39.091 11.7004 39.0523 11.6701 39.02L22.1401 28.47L19.8001 26.13L9.28005 36.65Z" fill="#2E42CC"/>
<path d="M41.55 7.22L41 6.66C40.2166 5.87959 39.1558 5.44141 38.05 5.44141C36.9442 5.44141 35.8835 5.87959 35.1 6.66L24.44 17.32C24.2994 17.4594 24.1879 17.6254 24.1117 17.8081C24.0355 17.9909 23.9963 18.187 23.9963 18.385C23.9963 18.583 24.0355 18.7791 24.1117 18.9619C24.1879 19.1447 24.2994 19.3106 24.44 19.45L25.44 20.45L27.78 22.79L28.78 23.79C28.92 23.931 29.0868 24.0425 29.2706 24.1181C29.4543 24.1937 29.6514 24.2317 29.85 24.23C30.0472 24.2315 30.2426 24.1933 30.4248 24.1177C30.6069 24.0421 30.7719 23.9307 30.91 23.79L41.55 13.12C42.3305 12.3366 42.7686 11.2758 42.7686 10.17C42.7686 9.06419 42.3305 8.00344 41.55 7.22ZM40.13 11.7L29.83 22L26.2 18.38L36.51 8.08C36.9232 7.68454 37.4731 7.4638 38.045 7.4638C38.617 7.4638 39.1669 7.68454 39.58 8.08L40.13 8.63C40.333 8.83181 40.494 9.07177 40.6039 9.33607C40.7137 9.60037 40.7702 9.88379 40.77 10.17C40.77 10.4547 40.7134 10.7366 40.6035 10.9992C40.4936 11.2618 40.3327 11.5001 40.13 11.7Z" fill="#2E42CC"/>
<path d="M38.88 10.8C39.0438 10.6087 39.1295 10.3626 39.1197 10.1109C39.11 9.85926 39.0057 9.62053 38.8276 9.44243C38.6495 9.26434 38.4108 9.16 38.1591 9.15028C37.9074 9.14056 37.6613 9.22617 37.47 9.38999L29 17.89C28.8138 18.0774 28.7092 18.3308 28.7092 18.595C28.7092 18.8592 28.8138 19.1126 29 19.3C29.1874 19.4862 29.4408 19.5908 29.705 19.5908C29.9692 19.5908 30.2227 19.4862 30.41 19.3L38.88 10.8Z" fill="#2E42CC"/>
<path d="M41.34 32.05C40.5378 31.2528 39.5561 30.6597 38.4773 30.3203C37.3985 29.981 36.254 29.9055 35.14 30.1L27.81 22.8L25.47 20.46L17.29 12.32C17.4976 11.1975 17.4295 10.0413 17.0916 8.9509C16.7537 7.86048 16.156 6.86843 15.35 6.06003C13.9 4.61003 10.95 4.29003 9.34996 4.23003C9.10886 4.22421 8.87152 4.29057 8.6684 4.4206C8.46529 4.55063 8.30566 4.73839 8.21001 4.95978C8.11436 5.18117 8.08705 5.4261 8.13159 5.66312C8.17612 5.90015 8.29047 6.11845 8.45996 6.29003L11.52 9.35003L8.71996 12.15L5.62996 9.09003C5.45758 8.91855 5.23754 8.80297 4.99851 8.75838C4.75949 8.71379 4.51258 8.74224 4.28996 8.84003C4.06628 8.93729 3.87755 9.10041 3.74891 9.30765C3.62028 9.51489 3.55786 9.75641 3.56996 10C3.63996 11.63 3.95996 14.58 5.39996 16C6.20304 16.816 7.19251 17.4244 8.28306 17.7728C9.37362 18.1212 10.5326 18.1992 11.66 18L19.8 26.18L22.14 28.52L29.44 35.85C29.2562 36.9563 29.3371 38.0903 29.6761 39.1593C30.015 40.2283 30.6023 41.2018 31.39 42C32.84 43.44 35.8 43.77 37.39 43.83C37.617 43.8199 37.8365 43.7456 38.0229 43.6156C38.2093 43.4856 38.355 43.3054 38.443 43.0959C38.531 42.8864 38.5577 42.6562 38.52 42.4321C38.4822 42.208 38.3817 41.9992 38.23 41.83L35.16 38.76L37.96 35.96L41.12 39C41.2908 39.1707 41.5091 39.2858 41.7464 39.3304C41.9836 39.375 42.2289 39.347 42.45 39.25C42.6712 39.1551 42.8584 38.9954 42.987 38.7918C43.1155 38.5883 43.1793 38.3506 43.17 38.11C43.11 36.45 42.79 33.5 41.34 32.05ZM39.13 34.16C38.9895 34.0176 38.8221 33.9045 38.6376 33.8274C38.453 33.7502 38.255 33.7104 38.055 33.7104C37.8549 33.7104 37.6569 33.7502 37.4723 33.8274C37.2878 33.9045 37.1204 34.0176 36.98 34.16L33.5 37.63C33.2166 37.9181 33.0578 38.306 33.0578 38.71C33.0578 39.1141 33.2166 39.502 33.5 39.79L35.3 41.59C34.3943 41.4898 33.5333 41.144 32.81 40.59C32.1831 39.9691 31.7317 39.1933 31.5016 38.3415C31.2715 37.4897 31.271 36.5921 31.5 35.74L31.65 35.19L23.55 27.07L21.22 24.72L12.27 15.72L11.71 15.87C10.8529 16.1079 9.94795 16.1128 9.08838 15.8842C8.22881 15.6557 7.44575 15.2021 6.81996 14.57C6.26598 13.8466 5.92019 12.9856 5.81996 12.08L7.61996 13.88C7.90801 14.1634 8.29589 14.3222 8.69996 14.3222C9.10403 14.3222 9.49191 14.1634 9.77996 13.88L13.25 10.4C13.5327 10.1137 13.6913 9.72745 13.6913 9.32503C13.6913 8.9226 13.5327 8.53638 13.25 8.25003L11.45 6.45003C12.3582 6.55194 13.222 6.89746 13.95 7.45003C14.5803 8.07686 15.032 8.86039 15.2588 9.71991C15.4855 10.5794 15.479 11.4839 15.24 12.34L15.09 12.9L24.09 21.84L26.44 24.18L34.56 32.27L35.12 32.13C35.9698 31.9017 36.8648 31.9016 37.7146 32.1299C38.5644 32.3581 39.3389 32.8066 39.96 33.43C40.5125 34.158 40.858 35.0218 40.96 35.93L39.13 34.16Z" fill="#7284FF"/>
</svg>
