<svg width="48" height="48" viewBox="0 0 48 48" fill="none" xmlns="http://www.w3.org/2000/svg">
<path d="M37 8.87998H31.24V6.87998C31.24 6.61477 31.1346 6.36041 30.9471 6.17288C30.7596 5.98534 30.5052 5.87998 30.24 5.87998H28.8V5.81998C28.8 5.05086 28.4945 4.31323 27.9506 3.76937C27.4068 3.22552 26.6691 2.91998 25.9 2.91998H22.1C21.3309 2.91998 20.5932 3.22552 20.0494 3.76937C19.5055 4.31323 19.2 5.05086 19.2 5.81998V5.89998H17.76C17.4948 5.89998 17.2404 6.00534 17.0529 6.19288C16.8654 6.38041 16.76 6.63477 16.76 6.89998V8.89998H11C10.7348 8.89998 10.4804 9.00534 10.2929 9.19288C10.1054 9.38041 10 9.63477 10 9.89998V43.23C10 43.4952 10.1054 43.7495 10.2929 43.9371C10.4804 44.1246 10.7348 44.23 11 44.23H37C37.2652 44.23 37.5196 44.1246 37.7071 43.9371C37.8946 43.7495 38 43.4952 38 43.23V9.87998C38 9.61477 37.8946 9.36041 37.7071 9.17288C37.5196 8.98534 37.2652 8.87998 37 8.87998ZM21.2 5.81998C21.2 5.58129 21.2948 5.35237 21.4636 5.18359C21.6324 5.0148 21.8613 4.91998 22.1 4.91998H25.9C26.0182 4.91998 26.1352 4.94326 26.2444 4.98849C26.3536 5.03372 26.4528 5.10001 26.5364 5.18359C26.62 5.26716 26.6863 5.36637 26.7315 5.47557C26.7767 5.58476 26.8 5.70179 26.8 5.81998V5.89998H21.2V5.81998ZM18.76 7.89998H29.24V8.89998H18.76V7.89998ZM36 42.23H12V10.88H36V42.23Z" fill="#2E42CC"/>
<path d="M32.2701 24.36H27.1801C26.9811 24.36 26.7904 24.281 26.6497 24.1403C26.5091 23.9997 26.4301 23.8089 26.4301 23.61V18.52C26.4326 18.3219 26.5125 18.1326 26.6526 17.9926C26.7927 17.8525 26.9819 17.7726 27.1801 17.77H30.9001C31.099 17.77 31.2897 17.849 31.4304 17.9897C31.571 18.1303 31.6501 18.3211 31.6501 18.52C31.6501 18.7189 31.571 18.9097 31.4304 19.0503C31.2897 19.191 31.099 19.27 30.9001 19.27H27.9001V22.86H31.4901V22.36C31.4901 22.1611 31.5691 21.9703 31.7097 21.8297C31.8504 21.689 32.0411 21.61 32.2401 21.61C32.439 21.61 32.6297 21.689 32.7704 21.8297C32.911 21.9703 32.9901 22.1611 32.9901 22.36V23.61C32.9928 23.8046 32.9187 23.9924 32.784 24.1328C32.6492 24.2731 32.4646 24.3548 32.2701 24.36Z" fill="#2E42CC"/>
<path d="M30.26 22.59C30.0611 22.5898 29.8705 22.5107 29.73 22.37L28.4 21C28.3292 20.9311 28.273 20.8487 28.2346 20.7576C28.1962 20.6666 28.1764 20.5688 28.1764 20.47C28.1764 20.3712 28.1962 20.2734 28.2346 20.1824C28.273 20.0914 28.3292 20.009 28.4 19.94C28.5406 19.7996 28.7312 19.7207 28.93 19.7207C29.1287 19.7207 29.3193 19.7996 29.46 19.94L30.26 20.74L33.33 17.67C33.4706 17.5296 33.6612 17.4507 33.86 17.4507C34.0587 17.4507 34.2493 17.5296 34.39 17.67C34.4607 17.739 34.517 17.8214 34.5554 17.9124C34.5937 18.0034 34.6135 18.1012 34.6135 18.2C34.6135 18.2988 34.5937 18.3966 34.5554 18.4876C34.517 18.5787 34.4607 18.6611 34.39 18.73L30.79 22.33C30.7238 22.407 30.6427 22.4697 30.5516 22.5144C30.4605 22.5591 30.3613 22.5848 30.26 22.59Z" fill="#7284FF"/>
<path d="M23.69 19.46H14.25C14.0511 19.46 13.8603 19.381 13.7197 19.2404C13.579 19.0997 13.5 18.9089 13.5 18.71C13.5 18.5111 13.579 18.3203 13.7197 18.1797C13.8603 18.039 14.0511 17.96 14.25 17.96H23.69C23.8889 17.96 24.0797 18.039 24.2203 18.1797C24.361 18.3203 24.44 18.5111 24.44 18.71C24.44 18.9089 24.361 19.0997 24.2203 19.2404C24.0797 19.381 23.8889 19.46 23.69 19.46Z" fill="#7284FF"/>
<path d="M23.69 24.34H14.25C14.0511 24.34 13.8603 24.261 13.7197 24.1204C13.579 23.9797 13.5 23.7889 13.5 23.59C13.5 23.3911 13.579 23.2003 13.7197 23.0597C13.8603 22.919 14.0511 22.84 14.25 22.84H23.69C23.8889 22.84 24.0797 22.919 24.2203 23.0597C24.361 23.2003 24.44 23.3911 24.44 23.59C24.44 23.7889 24.361 23.9797 24.2203 24.1204C24.0797 24.261 23.8889 24.34 23.69 24.34Z" fill="#7284FF"/>
<path d="M22.11 21.9H14.25C14.0511 21.9 13.8603 21.821 13.7197 21.6804C13.579 21.5397 13.5 21.3489 13.5 21.15C13.5 20.9511 13.579 20.7603 13.7197 20.6197C13.8603 20.479 14.0511 20.4 14.25 20.4H22.11C22.3089 20.4 22.4997 20.479 22.6403 20.6197C22.781 20.7603 22.86 20.9511 22.86 21.15C22.86 21.3489 22.781 21.5397 22.6403 21.6804C22.4997 21.821 22.3089 21.9 22.11 21.9Z" fill="#7284FF"/>
<path d="M32.2701 35.62H27.1801C26.9819 35.6174 26.7927 35.5375 26.6526 35.3974C26.5125 35.2573 26.4326 35.0681 26.4301 34.87V29.78C26.4301 29.5811 26.5091 29.3903 26.6497 29.2496C26.7904 29.109 26.9811 29.03 27.1801 29.03H32.2701C32.3689 29.0286 32.467 29.0471 32.5587 29.0843C32.6503 29.1215 32.7335 29.1767 32.8034 29.2466C32.8733 29.3166 32.9285 29.3998 32.9657 29.4914C33.0029 29.583 33.0214 29.6811 33.0201 29.78V34.87C33.0201 35.0689 32.941 35.2597 32.8004 35.4003C32.6597 35.541 32.469 35.62 32.2701 35.62ZM27.9301 34.12H31.5201V30.53H27.9301V34.12Z" fill="#2E42CC"/>
<path d="M23.69 33H14.25C14.0511 33 13.8603 32.921 13.7197 32.7803C13.579 32.6397 13.5 32.4489 13.5 32.25C13.5 32.0511 13.579 31.8603 13.7197 31.7197C13.8603 31.579 14.0511 31.5 14.25 31.5H23.69C23.8889 31.5 24.0797 31.579 24.2203 31.7197C24.361 31.8603 24.44 32.0511 24.44 32.25C24.44 32.4489 24.361 32.6397 24.2203 32.7803C24.0797 32.921 23.8889 33 23.69 33Z" fill="#7284FF"/>
<path d="M22.11 30.5H14.25C14.0511 30.5 13.8603 30.421 13.7197 30.2803C13.579 30.1397 13.5 29.9489 13.5 29.75C13.5 29.5511 13.579 29.3603 13.7197 29.2197C13.8603 29.079 14.0511 29 14.25 29H22.11C22.3089 29 22.4997 29.079 22.6403 29.2197C22.781 29.3603 22.86 29.5511 22.86 29.75C22.86 29.9489 22.781 30.1397 22.6403 30.2803C22.4997 30.421 22.3089 30.5 22.11 30.5Z" fill="#7284FF"/>
<path d="M22.11 35.39H14.25C14.0511 35.39 13.8603 35.311 13.7197 35.1703C13.579 35.0297 13.5 34.8389 13.5 34.64C13.5 34.4411 13.579 34.2503 13.7197 34.1097C13.8603 33.969 14.0511 33.89 14.25 33.89H22.11C22.3089 33.89 22.4997 33.969 22.6403 34.1097C22.781 34.2503 22.86 34.4411 22.86 34.64C22.86 34.8389 22.781 35.0297 22.6403 35.1703C22.4997 35.311 22.3089 35.39 22.11 35.39Z" fill="#7284FF"/>
</svg>
