<svg width="48" height="48" viewBox="0 0 48 48" fill="none" xmlns="http://www.w3.org/2000/svg">
<path d="M26.78 14.19H14.33C14.0569 14.19 13.7949 14.0815 13.6017 13.8883C13.4086 13.6952 13.3 13.4332 13.3 13.16C13.3 12.8868 13.4086 12.6248 13.6017 12.4317C13.7949 12.2385 14.0569 12.13 14.33 12.13H26.78C27.0532 12.13 27.3152 12.2385 27.5084 12.4317C27.7015 12.6248 27.81 12.8868 27.81 13.16C27.81 13.4332 27.7015 13.6952 27.5084 13.8883C27.3152 14.0815 27.0532 14.19 26.78 14.19Z" fill="#7284FF"/>
<path d="M26.78 21.63H14.33C14.0569 21.63 13.7949 21.5215 13.6017 21.3283C13.4086 21.1352 13.3 20.8732 13.3 20.6C13.3 20.3268 13.4086 20.0648 13.6017 19.8717C13.7949 19.6785 14.0569 19.57 14.33 19.57H26.78C27.0532 19.57 27.3152 19.6785 27.5084 19.8717C27.7015 20.0648 27.81 20.3268 27.81 20.6C27.81 20.8732 27.7015 21.1352 27.5084 21.3283C27.3152 21.5215 27.0532 21.63 26.78 21.63Z" fill="#7284FF"/>
<path d="M28.76 17.91H14.33C14.0569 17.91 13.7949 17.8015 13.6017 17.6083C13.4086 17.4151 13.3 17.1531 13.3 16.88C13.3 16.6068 13.4086 16.3448 13.6017 16.1517C13.7949 15.9585 14.0569 15.85 14.33 15.85H28.76C29.0332 15.85 29.2952 15.9585 29.4884 16.1517C29.6815 16.3448 29.7901 16.6068 29.7901 16.88C29.7901 17.1531 29.6815 17.4151 29.4884 17.6083C29.2952 17.8015 29.0332 17.91 28.76 17.91Z" fill="#7284FF"/>
<path d="M28.76 25.35H14.33C14.0569 25.35 13.7949 25.2415 13.6017 25.0483C13.4086 24.8551 13.3 24.5931 13.3 24.32C13.3 24.0468 13.4086 23.7848 13.6017 23.5917C13.7949 23.3985 14.0569 23.29 14.33 23.29H28.76C29.0332 23.29 29.2952 23.3985 29.4884 23.5917C29.6815 23.7848 29.7901 24.0468 29.7901 24.32C29.7901 24.5931 29.6815 24.8551 29.4884 25.0483C29.2952 25.2415 29.0332 25.35 28.76 25.35Z" fill="#7284FF"/>
<path d="M26.78 29.07H14.33C14.0569 29.07 13.7949 28.9615 13.6017 28.7683C13.4086 28.5752 13.3 28.3132 13.3 28.04C13.3 27.7668 13.4086 27.5049 13.6017 27.3117C13.7949 27.1185 14.0569 27.01 14.33 27.01H26.78C27.0532 27.01 27.3152 27.1185 27.5084 27.3117C27.7015 27.5049 27.81 27.7668 27.81 28.04C27.81 28.3132 27.7015 28.5752 27.5084 28.7683C27.3152 28.9615 27.0532 29.07 26.78 29.07Z" fill="#7284FF"/>
<path d="M28.7601 35.7H14.3301C14.0582 35.7 13.7975 35.592 13.6053 35.3998C13.413 35.2076 13.3051 34.9469 13.3051 34.675C13.3051 34.4032 13.413 34.1425 13.6053 33.9502C13.7975 33.758 14.0582 33.65 14.3301 33.65H28.7601C29.0319 33.65 29.2926 33.758 29.4848 33.9502C29.6771 34.1425 29.7851 34.4032 29.7851 34.675C29.7851 34.9469 29.6771 35.2076 29.4848 35.3998C29.2926 35.592 29.0319 35.7 28.7601 35.7Z" fill="#7284FF"/>
<path d="M33.71 32.34L32.19 32.71V36.54C32.19 37.4241 31.8394 38.2721 31.2152 38.8982C30.591 39.5243 29.7441 39.8773 28.86 39.88H10.13C10.6606 38.9129 10.9262 37.8228 10.9 36.72V12.5V10.4C10.9226 9.31348 10.6569 8.2404 10.13 7.28997H28.86C29.7441 7.29262 30.591 7.64568 31.2152 8.27176C31.8394 8.89785 32.19 9.74588 32.19 10.63V24.26L34.25 22.21V10.61C34.2473 9.18127 33.6786 7.81183 32.6683 6.80159C31.6581 5.79134 30.2887 5.22261 28.86 5.21997H6.41996C3.63996 5.49997 2.17996 7.73997 2.24996 10.38V12.48C2.24996 12.7452 2.35532 12.9995 2.54286 13.1871C2.73039 13.3746 2.98475 13.48 3.24996 13.48H8.83996V33.65H3.27996C3.14317 33.6381 3.00552 33.6591 2.87852 33.7113C2.75151 33.7635 2.63886 33.8453 2.54996 33.95C2.45305 34.0449 2.37647 34.1586 2.3249 34.2841C2.27332 34.4096 2.24783 34.5443 2.24996 34.68V36.77C2.24996 39.57 3.95996 41.64 6.37996 41.86C6.44622 41.8705 6.51371 41.8705 6.57996 41.86H7.80996H28.86C30.2904 41.8573 31.6613 41.2872 32.6719 40.2748C33.6824 39.2624 34.25 37.8904 34.25 36.46V32V32.06C34.1005 32.2031 33.9131 32.3003 33.71 32.34ZM8.83996 36.72C8.83996 37.43 8.68996 39.66 6.83996 39.82C5.11996 39.82 4.34996 38.29 4.34996 36.82V35.71H8.83996V36.72ZM8.83996 11.45H4.30996V10.38C4.30996 8.77997 5.08996 7.37997 6.74996 7.30997C7.21441 7.33272 7.65642 7.51659 7.99996 7.82997C8.60006 8.53938 8.9044 9.45238 8.84996 10.38L8.83996 11.45Z" fill="#2E42CC"/>
<path d="M45.1299 16.24C44.5262 15.5896 43.689 15.2054 42.8022 15.1716C41.9154 15.1379 41.0514 15.4574 40.3999 16.06L34.2499 22.21L32.1899 24.26L29.2899 27.17C29.1568 27.3016 29.0632 27.4679 29.0199 27.65L27.9099 32.2C27.8606 32.3764 27.8606 32.5629 27.91 32.7392C27.9593 32.9155 28.0562 33.0749 28.1899 33.2C28.2829 33.2975 28.3946 33.3752 28.5183 33.4285C28.642 33.4818 28.7752 33.5095 28.9099 33.51C28.9929 33.5205 29.0769 33.5205 29.1599 33.51L32.1599 32.77L33.6799 32.4C33.8642 32.3546 34.0332 32.2615 34.1699 32.13V32.07L45.1699 21.07C45.4925 20.7547 45.7481 20.3776 45.9214 19.9611C46.0946 19.5447 46.182 19.0975 46.1783 18.6465C46.1746 18.1955 46.0798 17.7498 45.8996 17.3363C45.7195 16.9228 45.4577 16.5499 45.1299 16.24ZM43.8399 19.51L34.2499 29.1L32.9999 30.41L32.2399 30.59L30.3599 31.05L30.9999 28.42L32.2399 27.18L34.2999 25.12L41.8999 17.52C42.1754 17.3164 42.5148 17.2183 42.8563 17.2438C43.1979 17.2692 43.5191 17.4165 43.7613 17.6587C44.0035 17.9009 44.1507 18.222 44.1762 18.5636C44.2016 18.9052 44.1036 19.2446 43.8999 19.52L43.8399 19.51Z" fill="#2E42CC"/>
</svg>
