<svg width="48" height="48" viewBox="0 0 48 48" fill="none" xmlns="http://www.w3.org/2000/svg">
<path d="M18 13.93H9.47998C9.21476 13.93 8.96041 13.8246 8.77287 13.6371C8.58534 13.4496 8.47998 13.1952 8.47998 12.93C8.47998 12.6648 8.58534 12.4104 8.77287 12.2229C8.96041 12.0353 9.21476 11.93 9.47998 11.93H18C18.2652 11.93 18.5196 12.0353 18.7071 12.2229C18.8946 12.4104 19 12.6648 19 12.93C19 13.1952 18.8946 13.4496 18.7071 13.6371C18.5196 13.8246 18.2652 13.93 18 13.93Z" fill="#2E42CC"/>
<path d="M33.86 38.26C33.4792 38.4177 33.084 38.5383 32.68 38.62V42.62H6.39001V8.83002H32.68V25.35C33.3842 25.501 34.0595 25.7644 34.68 26.13V7.83002C34.68 7.5648 34.5747 7.31045 34.3871 7.12291C34.1996 6.93537 33.9452 6.83002 33.68 6.83002H5.39001C5.1248 6.83002 4.87044 6.93537 4.68291 7.12291C4.49537 7.31045 4.39001 7.5648 4.39001 7.83002V43.62C4.39001 43.8852 4.49537 44.1396 4.68291 44.3271C4.87044 44.5147 5.1248 44.62 5.39001 44.62H33.68C33.9452 44.62 34.1996 44.5147 34.3871 44.3271C34.5747 44.1396 34.68 43.8852 34.68 43.62V39.1L33.89 38.31C33.89 38.31 33.87 38.28 33.86 38.26Z" fill="#2E42CC"/>
<path d="M11.84 27.84L11.83 27.85H25.86L25.87 27.84H11.84Z" fill="#70468C"/>
<path d="M8.92998 29.29C8.85691 29.1293 8.82767 28.9522 8.84523 28.7765C8.8628 28.6009 8.92654 28.433 9.02998 28.29L10.48 26.35V17.55H28.6V25.77C29.2375 25.5011 29.9116 25.3292 30.6 25.26V16.51C30.6 16.2448 30.4946 15.9904 30.3071 15.8029C30.1196 15.6154 29.8652 15.51 29.6 15.51H9.47998C9.21476 15.51 8.96041 15.6154 8.77287 15.8029C8.58534 15.9904 8.47998 16.2448 8.47998 16.51V28.83C8.47998 29.0952 8.58534 29.3496 8.77287 29.5371C8.96041 29.7247 9.21476 29.83 9.47998 29.83H9.73998C9.57015 29.8165 9.40659 29.7597 9.26483 29.6652C9.12308 29.5707 9.00781 29.4416 8.92998 29.29Z" fill="#7284FF"/>
<path d="M8.47998 35.19C8.47998 35.4552 8.58534 35.7096 8.77287 35.8971C8.96041 36.0846 9.21476 36.19 9.47998 36.19H25.48C25.6186 36.1923 25.7557 36.1614 25.88 36.1C25.445 35.522 25.1072 34.8768 24.88 34.19H9.47998C9.21476 34.19 8.96041 34.2954 8.77287 34.4829C8.58534 34.6704 8.47998 34.9248 8.47998 35.19Z" fill="#2E42CC"/>
<path d="M21.54 37.49H9.47998C9.21476 37.49 8.96041 37.5953 8.77287 37.7829C8.58534 37.9704 8.47998 38.2248 8.47998 38.49C8.47998 38.7552 8.58534 39.0096 8.77287 39.1971C8.96041 39.3846 9.21476 39.49 9.47998 39.49H21.54C21.8052 39.49 22.0596 39.3846 22.2471 39.1971C22.4346 39.0096 22.54 38.7552 22.54 38.49C22.54 38.2248 22.4346 37.9704 22.2471 37.7829C22.0596 37.5953 21.8052 37.49 21.54 37.49Z" fill="#2E42CC"/>
<path d="M19.94 27C20.0228 27.1117 20.128 27.2049 20.2488 27.2737C20.3697 27.3425 20.5036 27.3853 20.6419 27.3994C20.7802 27.4135 20.92 27.3986 21.0522 27.3557C21.1845 27.3127 21.3063 27.2427 21.41 27.15L23.62 25.15L26.17 27.45L26.44 27.16C26.8272 26.7791 27.2567 26.4436 27.72 26.16L24.29 23.06C24.1062 22.8942 23.8675 22.8024 23.62 22.8024C23.3725 22.8024 23.1337 22.8942 22.95 23.06L20.88 25L17 19.77C16.9068 19.6458 16.7861 19.545 16.6472 19.4756C16.5083 19.4061 16.3552 19.37 16.2 19.37C16.0447 19.37 15.8916 19.4061 15.7528 19.4756C15.6139 19.545 15.4931 19.6458 15.4 19.77L10.49 26.31V27.83H11.85L16.19 22L19.94 27Z" fill="#7284FF"/>
<path d="M25.86 27.85H11.86H10.48V26.31L9.00001 28.25C8.89657 28.393 8.83283 28.5609 8.81527 28.7365C8.7977 28.9122 8.82694 29.0893 8.90001 29.25C8.97784 29.4016 9.09311 29.5307 9.23487 29.6252C9.37663 29.7197 9.54018 29.7764 9.71001 29.79H24.8C25.0468 29.0906 25.4047 28.4355 25.86 27.85Z" fill="#7284FF"/>
<path d="M25.45 19C25.1865 18.998 24.9284 19.0743 24.7084 19.2192C24.4883 19.3642 24.3163 19.5712 24.2141 19.814C24.1119 20.0569 24.0842 20.3246 24.1343 20.5833C24.1845 20.8419 24.3104 21.0798 24.496 21.2668C24.6816 21.4538 24.9186 21.5815 25.1768 21.6336C25.4351 21.6858 25.703 21.66 25.9466 21.5597C26.1902 21.4593 26.3985 21.2888 26.5451 21.0699C26.6917 20.851 26.77 20.5934 26.77 20.33C26.77 19.979 26.6312 19.6422 26.384 19.393C26.1367 19.1439 25.801 19.0026 25.45 19Z" fill="#2E42CC"/>
<path d="M10.34 32.62C10.5106 32.62 10.6772 32.5693 10.8189 32.4744C10.9605 32.3794 11.0707 32.2445 11.1355 32.0868C11.2003 31.9291 11.2167 31.7556 11.1827 31.5885C11.1487 31.4214 11.0658 31.2682 10.9445 31.1484C10.8233 31.0285 10.6691 30.9474 10.5016 30.9153C10.3341 30.8833 10.1609 30.9018 10.0039 30.9684C9.84698 31.035 9.71337 31.1468 9.62009 31.2895C9.5268 31.4323 9.47806 31.5995 9.48004 31.77C9.48267 31.9964 9.57444 32.2126 9.73544 32.3717C9.89643 32.5308 10.1137 32.62 10.34 32.62Z" fill="#2E42CC"/>
<path d="M12.94 32.63C13.4149 32.63 13.8 32.2449 13.8 31.77C13.8 31.295 13.4149 30.91 12.94 30.91C12.465 30.91 12.08 31.295 12.08 31.77C12.08 32.2449 12.465 32.63 12.94 32.63Z" fill="#2E42CC"/>
<path d="M44.7999 41.87L37.5699 34.64H37.5099C38.1508 33.1257 38.2169 31.4296 37.6958 29.8701C37.1748 28.3106 36.1023 26.9949 34.6799 26.17C34.0595 25.8043 33.3841 25.541 32.6799 25.39C31.3138 25.0854 29.8864 25.2184 28.5999 25.77C28.2977 25.902 28.0038 26.0522 27.7199 26.22C27.2566 26.5035 26.8272 26.839 26.4399 27.22L26.1699 27.51L25.8599 27.89C25.3989 28.4938 25.0408 29.1695 24.7999 29.89H26.9999C27.2215 29.4356 27.5153 29.0202 27.8699 28.66C28.2865 28.2343 28.7825 27.8946 29.3299 27.66C29.7408 27.4798 30.1751 27.3586 30.6199 27.3C30.8299 27.3 31.0499 27.24 31.2599 27.24C31.75 27.2484 32.2358 27.3327 32.6999 27.49C33.4552 27.6984 34.144 28.0979 34.6999 28.65C34.6999 28.65 34.6999 28.65 34.6999 28.71C35.5662 29.602 36.0507 30.7965 36.0507 32.04C36.0507 33.2834 35.5662 34.4779 34.6999 35.37V35.43C34.1413 35.9785 33.4535 36.3775 32.6999 36.59C31.7989 36.8867 30.8299 36.9074 29.917 36.6495C29.0041 36.3916 28.1892 35.8668 27.5766 35.1425C26.9641 34.4182 26.5819 33.5274 26.4792 32.5844C26.3764 31.6414 26.5578 30.6892 26.9999 29.85H24.7999C24.3252 31.2577 24.3252 32.7823 24.7999 34.19C25.0272 34.8768 25.3649 35.5219 25.7999 36.1C25.9808 36.346 26.1815 36.5767 26.3999 36.79C27.0277 37.4246 27.7753 37.9282 28.5993 38.2715C29.4233 38.6149 30.3073 38.7911 31.1999 38.79C31.6845 38.7923 32.1677 38.7386 32.6399 38.63C33.0439 38.5483 33.4391 38.4277 33.8199 38.27C33.8199 38.27 33.8199 38.27 33.8199 38.32L34.6099 39.11L41.0499 45.56C41.3063 45.8113 41.6119 46.0067 41.9475 46.1341C42.2831 46.2614 42.6414 46.3179 42.9999 46.3C43.3402 46.3013 43.6772 46.2347 43.9915 46.1042C44.3057 45.9737 44.5907 45.7819 44.8299 45.54C45.0696 45.2974 45.2589 45.0098 45.3872 44.6939C45.5154 44.3779 45.58 44.0397 45.5772 43.6988C45.5744 43.3578 45.5043 43.0207 45.3709 42.7069C45.2375 42.393 45.0435 42.1086 44.7999 41.87ZM36.4099 38L35.5999 37.2C35.7593 37.0739 35.9096 36.9369 36.0499 36.79C36.1899 36.65 36.3199 36.5 36.4499 36.35L37.2599 37.15L36.4099 38ZM43.4099 44.13C43.3546 44.1846 43.289 44.2277 43.2169 44.2569C43.1448 44.2861 43.0677 44.3007 42.9899 44.3C42.8361 44.2999 42.6887 44.2388 42.5799 44.13L37.8599 39.42L38.7099 38.57L43.4299 43.28C43.5384 43.393 43.5993 43.5434 43.5999 43.7C43.5856 43.8666 43.5066 44.0209 43.3799 44.13H43.4099Z" fill="#7284FF"/>
</svg>
