<svg width="48" height="48" viewBox="0 0 48 48" fill="none" xmlns="http://www.w3.org/2000/svg">
<path d="M40.8401 15.55H2.56006C2.29484 15.55 2.04049 15.4446 1.85295 15.2571C1.66542 15.0696 1.56006 14.8152 1.56006 14.55C1.56006 14.2848 1.66542 14.0304 1.85295 13.8429C2.04049 13.6553 2.29484 13.55 2.56006 13.55H40.8401C41.1053 13.55 41.3596 13.6553 41.5472 13.8429C41.7347 14.0304 41.8401 14.2848 41.8401 14.55C41.8401 14.8152 41.7347 15.0696 41.5472 15.2571C41.3596 15.4446 41.1053 15.55 40.8401 15.55Z" fill="#2E42CC"/>
<path d="M6.01005 12.47C6.40217 12.47 6.72005 12.1521 6.72005 11.76C6.72005 11.3679 6.40217 11.05 6.01005 11.05C5.61793 11.05 5.30005 11.3679 5.30005 11.76C5.30005 12.1521 5.61793 12.47 6.01005 12.47Z" fill="#2E42CC"/>
<path d="M8.68998 12.47C9.0821 12.47 9.39998 12.1521 9.39998 11.76C9.39998 11.3679 9.0821 11.05 8.68998 11.05C8.29786 11.05 7.97998 11.3679 7.97998 11.76C7.97998 12.1521 8.29786 12.47 8.68998 12.47Z" fill="#2E42CC"/>
<path d="M21.4501 32.28C21.9471 32.28 22.35 31.877 22.35 31.38C22.35 30.8829 21.9471 30.48 21.4501 30.48C20.953 30.48 20.55 30.8829 20.55 31.38C20.55 31.877 20.953 32.28 21.4501 32.28Z" fill="#2E42CC"/>
<path d="M24.37 32.28C24.867 32.28 25.27 31.877 25.27 31.38C25.27 30.8829 24.867 30.48 24.37 30.48C23.8729 30.48 23.47 30.8829 23.47 31.38C23.47 31.877 23.8729 32.28 24.37 32.28Z" fill="#2E42CC"/>
<path d="M35.19 20.74H21.55C21.2848 20.74 21.0305 20.6346 20.8429 20.4471C20.6554 20.2596 20.55 20.0052 20.55 19.74C20.55 19.4748 20.6554 19.2204 20.8429 19.0329C21.0305 18.8453 21.2848 18.74 21.55 18.74H35.19C35.4553 18.74 35.7096 18.8453 35.8972 19.0329C36.0847 19.2204 36.19 19.4748 36.19 19.74C36.19 20.0052 36.0847 20.2596 35.8972 20.4471C35.7096 20.6346 35.4553 20.74 35.19 20.74Z" fill="#2E42CC"/>
<path d="M32.3601 24.49H21.55C21.2848 24.49 21.0305 24.3846 20.8429 24.1971C20.6554 24.0096 20.55 23.7552 20.55 23.49C20.55 23.2248 20.6554 22.9704 20.8429 22.7829C21.0305 22.5953 21.2848 22.49 21.55 22.49H32.3601C32.6253 22.49 32.8796 22.5953 33.0672 22.7829C33.2547 22.9704 33.3601 23.2248 33.3601 23.49C33.3601 23.7552 33.2547 24.0096 33.0672 24.1971C32.8796 24.3846 32.6253 24.49 32.3601 24.49Z" fill="#2E42CC"/>
<path d="M16.88 18.74H7.58997V31.38H16.88V18.74Z" stroke="#7284FF" stroke-width="2" stroke-linecap="round" stroke-linejoin="round"/>
<path d="M7.58997 26.55L11.21 22.96L16.61 30.01" stroke="#7284FF" stroke-width="2" stroke-linecap="round" stroke-linejoin="round"/>
<path d="M35.1801 35.63C34.4054 35.931 33.5811 36.0836 32.7501 36.08C31.415 36.0781 30.1103 35.6814 29.0001 34.94H3.56006V9.94H39.8401V33L41.8401 35V9C41.8401 8.73478 41.7347 8.48043 41.5472 8.29289C41.3596 8.10536 41.1053 8 40.8401 8H2.56006C2.29484 8 2.04049 8.10536 1.85295 8.29289C1.66542 8.48043 1.56006 8.73478 1.56006 9V36C1.56006 36.2652 1.66542 36.5196 1.85295 36.7071C2.04049 36.8946 2.29484 37 2.56006 37H36.4801L35.1901 35.72L35.1801 35.63Z" fill="#2E42CC"/>
<path d="M21.55 26.47C21.2848 26.47 21.0305 26.5753 20.8429 26.7629C20.6554 26.9504 20.55 27.2048 20.55 27.47C20.55 27.7352 20.6554 27.9895 20.8429 28.1771C21.0305 28.3646 21.2848 28.47 21.55 28.47H26C26.0818 27.7783 26.2707 27.1035 26.56 26.47H21.55Z" fill="#2E42CC"/>
<path d="M46.1 39.22L41.84 35L39.84 33L39 32.07C39.3831 31.2556 39.6005 30.3731 39.6396 29.4739C39.6786 28.5747 39.5385 27.6768 39.2274 26.8322C38.9162 25.9877 38.4403 25.2134 37.8272 24.5544C37.2142 23.8955 36.4762 23.365 35.6563 22.9938C34.8363 22.6226 33.9508 22.4181 33.0511 22.3923C32.1515 22.3664 31.2556 22.5197 30.4157 22.8431C29.5758 23.1666 28.8086 23.6538 28.1587 24.2764C27.5088 24.8991 26.9891 25.6447 26.63 26.47C26.3407 27.1036 26.1517 27.7783 26.07 28.47C25.9439 29.4918 26.0521 30.5289 26.3865 31.5027C26.7209 32.4764 27.2727 33.3613 28 34.09C28.3032 34.407 28.6383 34.6918 29 34.94C30.1159 35.6852 31.4281 36.082 32.77 36.08C33.601 36.0836 34.4254 35.931 35.2 35.63L36.49 36.91L42.43 42.91C42.6695 43.1515 42.9547 43.343 43.2688 43.4735C43.5829 43.6039 43.9198 43.6707 44.26 43.67C44.7726 43.6686 45.2734 43.5158 45.6994 43.2306C46.1254 42.9454 46.4576 42.5407 46.6542 42.0673C46.8508 41.5939 46.9031 41.0729 46.8045 40.5699C46.7059 40.0668 46.4608 39.6041 46.1 39.24V39.22ZM36.1 32.68C35.2482 33.5379 34.1036 34.0419 32.8957 34.0911C31.6878 34.1403 30.506 33.7309 29.5873 32.9451C28.6686 32.1593 28.0811 31.0552 27.9425 29.8543C27.8039 28.6533 28.1245 27.4444 28.84 26.47C28.9825 26.2656 29.1396 26.0718 29.31 25.89C30.2104 24.9896 31.4316 24.4837 32.705 24.4837C33.9784 24.4837 35.1996 24.9896 36.1 25.89C37.0004 26.7904 37.5062 28.0116 37.5062 29.285C37.5062 30.5584 37.0004 31.7796 36.1 32.68ZM38.1 34.94L37.7 35.35L37.29 34.94L37 34.61C37.2082 34.4503 37.4054 34.2765 37.59 34.09C37.6885 33.9915 37.782 33.888 37.87 33.78L38.59 34.5L38.1 34.94ZM44.67 41.47C44.5523 41.5788 44.4001 41.6425 44.24 41.65C44.0862 41.6499 43.9387 41.5888 43.83 41.48L39.3 36.94L39.12 36.76L39.97 35.91L40.97 36.91L44.69 40.63C44.7986 40.7435 44.8584 40.895 44.8565 41.052C44.8547 41.2091 44.7913 41.3592 44.68 41.47H44.67Z" fill="#7284FF"/>
</svg>
