<svg width="24" height="24" viewBox="0 0 24 24" fill="none" xmlns="http://www.w3.org/2000/svg">
  <path fill-rule="evenodd" clip-rule="evenodd" d="M10.9389 7.86316H15.546C18.0193 7.86316 18.9506 9.07869 18.8068 10.8675C18.5697 13.8164 16.7333 15.447 14.2975 15.447H13.0678C12.734 15.447 12.5094 15.6613 12.4185 16.2435L11.8909 19.6241C11.8567 19.8437 11.7378 19.9726 11.5589 19.9882H8.67014C8.39832 19.9882 8.30164 19.7863 8.37275 19.349L10.1369 8.50469C10.2076 8.07004 10.4525 7.86316 10.9389 7.86316Z" fill="#009EE3" />
  <path fill-rule="evenodd" clip-rule="evenodd" d="M8.05869 4.1311H12.6704C13.9692 4.1311 15.5097 4.17209 16.5403 5.05444C17.2286 5.64391 17.5899 6.58306 17.5065 7.59125C17.2238 11.0101 15.1174 12.925 12.2928 12.925H10.0183C9.63115 12.925 9.37455 13.174 9.26539 13.8485L8.63065 17.7684C8.58951 18.0227 8.47595 18.1726 8.26869 18.1907H5.42794C5.11271 18.1907 5.00058 17.9566 5.0831 17.4495L7.1287 4.87492C7.21063 4.37112 7.49459 4.1311 8.05869 4.1311Z" fill="#113984" />
  <path fill-rule="evenodd" clip-rule="evenodd" d="M9.33148 13.4534L10.1369 8.50458C10.2075 8.07004 10.4524 7.86316 10.9389 7.86316H15.5459C16.3086 7.86316 16.9247 7.97872 17.4077 8.19183C16.9448 11.2344 14.9178 12.9251 12.2633 12.9251H9.98881C9.68952 12.925 9.46585 13.0736 9.33148 13.4534Z" fill="#172C70" />
</svg>
