<svg width="24" height="24" viewBox="0 0 24 24" fill="none" xmlns="http://www.w3.org/2000/svg">
  <path fill-rule="evenodd" clip-rule="evenodd" d="M3.03198 15.5404H20.9645V17.4346H3.03198V15.5404Z" fill="#F7B600" />
  <path fill-rule="evenodd" clip-rule="evenodd" d="M17.9558 13.4928C17.9558 13.3756 18.0498 13.2806 18.1658 13.2806C18.2819 13.2806 18.3757 13.3756 18.3757 13.4928C18.3757 13.6099 18.2819 13.705 18.1658 13.705C18.0498 13.705 17.9558 13.6099 17.9558 13.4928ZM18.1658 13.6539C18.2542 13.6539 18.3255 13.5818 18.3255 13.4928C18.3255 13.4035 18.2542 13.3316 18.1658 13.3316C18.0778 13.3316 18.0064 13.4035 18.0064 13.4928C18.0064 13.5818 18.0778 13.6539 18.1658 13.6539ZM18.1375 13.5858H18.0945V13.3995H18.1724C18.1887 13.3995 18.2051 13.3997 18.2195 13.4088C18.2344 13.4194 18.2428 13.4369 18.2428 13.4554C18.2428 13.4767 18.2308 13.4964 18.2111 13.5037L18.2448 13.5858H18.197L18.1691 13.512H18.1375V13.5858ZM18.1375 13.4801H18.1611C18.1701 13.4801 18.1796 13.481 18.1875 13.4767C18.1945 13.472 18.1982 13.4633 18.1982 13.455C18.1982 13.4482 18.1939 13.4399 18.1879 13.4362C18.1803 13.4318 18.1683 13.4327 18.1603 13.4327H18.1375V13.4801ZM16.9193 13.7183H17.8513L17.0388 9.80291H16.2229C15.846 9.80291 15.7541 10.0946 15.7541 10.0946L14.2405 13.7183H15.2984L15.5099 13.1368H16.8004L16.9193 13.7183ZM15.8024 12.3334L16.3357 10.8679L16.6359 12.3334H15.8024ZM14.3196 10.7444L14.4646 9.90357C14.4646 9.90357 14.0175 9.73287 13.5517 9.73287C13.0479 9.73287 11.8517 9.95398 11.8517 11.0291C11.8517 12.0408 13.2558 12.0534 13.2558 12.5843C13.2558 13.1155 11.9965 13.0207 11.5807 12.6856L11.4299 13.5645C11.4299 13.5645 11.883 13.7858 12.5758 13.7858C13.2682 13.7858 14.3135 13.4255 14.3135 12.4454C14.3135 11.4274 12.8968 11.3324 12.8968 10.8898C12.8968 10.4471 13.8855 10.504 14.3196 10.7444ZM10.8044 13.7183H9.7894L10.4237 9.80291H11.439L10.8044 13.7183ZM8.93544 9.80291L7.96783 12.496L7.8532 11.916V11.9162L7.51161 10.1555C7.51161 10.1555 7.47053 9.80291 7.03021 9.80291H5.43045L5.41173 9.86913C5.4119 9.86913 5.90109 9.97128 6.47376 10.3167L7.35539 13.7183H8.41295L10.028 9.80291H8.93544ZM3.03198 6.06958H20.9645V7.96375H3.03198V6.06958Z" fill="#1A1F71" />
</svg>
