<svg width="24" height="24" viewBox="0 0 24 24" fill="none" xmlns="http://www.w3.org/2000/svg">
  <path fill-rule="evenodd" clip-rule="evenodd" d="M20.5903 18.6071V18.6439H20.6235C20.6312 18.6439 20.6374 18.6424 20.6418 18.6394C20.6465 18.6364 20.6486 18.6317 20.6486 18.6253C20.6486 18.6192 20.6465 18.6147 20.6418 18.6117C20.6374 18.6087 20.6312 18.6071 20.6235 18.6071H20.5903ZM20.624 18.5813C20.6414 18.5813 20.6548 18.5852 20.6643 18.5931C20.6737 18.601 20.6785 18.6117 20.6785 18.6253C20.6785 18.6367 20.6746 18.6463 20.6671 18.6536C20.6595 18.661 20.6489 18.6655 20.6351 18.6673L20.6795 18.7194H20.6448L20.6035 18.6676H20.5903V18.7194H20.5612V18.5813H20.624ZM20.6154 18.7668C20.6311 18.7668 20.6458 18.7637 20.6594 18.7577C20.6731 18.7516 20.6849 18.7433 20.6952 18.7328C20.7055 18.7225 20.7135 18.7101 20.7194 18.6961C20.7252 18.682 20.7281 18.6669 20.7281 18.6508C20.7281 18.6349 20.7252 18.6198 20.7194 18.6057C20.7135 18.5917 20.7055 18.5793 20.6952 18.5688C20.6849 18.5585 20.6731 18.5502 20.6594 18.5442C20.6458 18.5383 20.6311 18.5353 20.6154 18.5353C20.5994 18.5353 20.5843 18.5383 20.5705 18.5442C20.5565 18.5502 20.5443 18.5585 20.534 18.5688C20.5238 18.5793 20.5157 18.5917 20.5098 18.6057C20.504 18.6198 20.5011 18.6349 20.5011 18.6508C20.5011 18.6669 20.504 18.682 20.5098 18.6961C20.5157 18.7101 20.5238 18.7225 20.534 18.7328C20.5443 18.7433 20.5565 18.7516 20.5705 18.7577C20.5843 18.7637 20.5994 18.7668 20.6154 18.7668ZM20.6154 18.5021C20.6358 18.5021 20.6552 18.506 20.6732 18.5139C20.6912 18.5215 20.7071 18.5322 20.7205 18.5458C20.734 18.5593 20.7446 18.5751 20.7525 18.5931C20.7602 18.6112 20.764 18.6305 20.764 18.6508C20.764 18.6713 20.7602 18.6904 20.7525 18.7084C20.7446 18.7264 20.734 18.7422 20.7205 18.7557C20.7071 18.7691 20.6912 18.7798 20.6732 18.7878C20.6552 18.7956 20.6358 18.7995 20.6154 18.7995C20.5943 18.7995 20.5748 18.7956 20.5565 18.7878C20.5381 18.7798 20.5223 18.7691 20.5089 18.7557C20.4955 18.7422 20.4851 18.7264 20.4772 18.7084C20.4695 18.6904 20.4657 18.6713 20.4657 18.6508C20.4657 18.6305 20.4695 18.6112 20.4772 18.5931C20.4851 18.5751 20.4955 18.5593 20.5089 18.5458C20.5223 18.5322 20.5381 18.5215 20.5565 18.5139C20.5748 18.506 20.5943 18.5021 20.6154 18.5021ZM6.89615 17.9709C6.89615 17.7079 7.06538 17.4921 7.34215 17.4921C7.60677 17.4921 7.78523 17.6985 7.78523 17.9709C7.78523 18.2432 7.60677 18.4498 7.34215 18.4498C7.06538 18.4498 6.89615 18.2338 6.89615 17.9709ZM8.08677 17.9709V17.2229H7.76677V17.4044C7.66523 17.2698 7.51138 17.1853 7.30215 17.1853C6.89 17.1853 6.56692 17.514 6.56692 17.9709C6.56692 18.4279 6.89 18.7566 7.30215 18.7566C7.51138 18.7566 7.66523 18.6721 7.76677 18.5375V18.7191H8.08677V17.9709ZM18.8914 17.9709C18.8914 17.7079 19.0606 17.4921 19.3375 17.4921C19.602 17.4921 19.7805 17.6985 19.7805 17.9709C19.7805 18.2432 19.602 18.4498 19.3375 18.4498C19.0606 18.4498 18.8914 18.2338 18.8914 17.9709ZM20.082 17.9709V16.6218H19.762V17.4044C19.6605 17.2698 19.5066 17.1853 19.2975 17.1853C18.8852 17.1853 18.5622 17.514 18.5622 17.9709C18.5622 18.4279 18.8852 18.7566 19.2975 18.7566C19.5066 18.7566 19.6605 18.6721 19.762 18.5375V18.7191H20.082V17.9709ZM12.0554 17.4764C12.2615 17.4764 12.3938 17.6078 12.4277 17.8394H11.6648C11.6985 17.6234 11.8277 17.4764 12.0554 17.4764ZM12.0615 17.1853C11.6308 17.1853 11.3294 17.5046 11.3294 17.9709C11.3294 18.4467 11.6431 18.7566 12.0831 18.7566C12.3046 18.7566 12.5077 18.7001 12.6862 18.5469L12.5292 18.3058C12.4062 18.406 12.2492 18.4624 12.1015 18.4624C11.8954 18.4624 11.7077 18.3653 11.6615 18.0961H12.7538C12.7569 18.0554 12.7598 18.0147 12.7598 17.9709C12.7569 17.5046 12.4738 17.1853 12.0615 17.1853ZM15.9226 17.9709C15.9226 17.7079 16.0917 17.4921 16.3686 17.4921C16.6332 17.4921 16.8117 17.6985 16.8117 17.9709C16.8117 18.2432 16.6332 18.4498 16.3686 18.4498C16.0917 18.4498 15.9226 18.2338 15.9226 17.9709ZM17.1132 17.9709V17.2229H16.7932V17.4044C16.6917 17.2698 16.5378 17.1853 16.3286 17.1853C15.9165 17.1853 15.5934 17.514 15.5934 17.9709C15.5934 18.4279 15.9165 18.7566 16.3286 18.7566C16.5378 18.7566 16.6917 18.6721 16.7932 18.5375V18.7191H17.1132V17.9709ZM14.1166 17.9709C14.1166 18.4248 14.4274 18.7566 14.9012 18.7566C15.1228 18.7566 15.2703 18.7065 15.4303 18.5782L15.2765 18.3152C15.1565 18.4029 15.0303 18.4498 14.892 18.4498C14.6366 18.4467 14.4489 18.2589 14.4489 17.9709C14.4489 17.683 14.6366 17.4952 14.892 17.4921C15.0303 17.4921 15.1565 17.5389 15.2765 17.6267L15.4303 17.3637C15.2703 17.2354 15.1228 17.1853 14.9012 17.1853C14.4274 17.1853 14.1166 17.5171 14.1166 17.9709ZM18.2392 17.1853C18.0546 17.1853 17.9346 17.273 17.8515 17.4044V17.2229H17.5346V18.7191H17.8546V17.8801C17.8546 17.633 17.9592 17.4952 18.1685 17.4952C18.2331 17.4952 18.3008 17.5046 18.3685 17.5328L18.4669 17.226C18.396 17.1978 18.3037 17.1853 18.2392 17.1853ZM9.668 17.3418C9.51415 17.2385 9.30184 17.1853 9.06815 17.1853C8.69584 17.1853 8.45584 17.3669 8.45584 17.6641C8.45584 17.9083 8.63431 18.0585 8.96354 18.1055L9.11431 18.1274C9.28954 18.1525 9.37277 18.1994 9.37277 18.2839C9.37277 18.3998 9.25569 18.4655 9.03738 18.4655C8.81584 18.4655 8.65584 18.3935 8.54815 18.309L8.39738 18.5625C8.57277 18.6939 8.7943 18.7566 9.0343 18.7566C9.45877 18.7566 9.70492 18.5531 9.70492 18.2683C9.70492 18.0053 9.51107 17.8676 9.19123 17.8206L9.04046 17.7987C8.902 17.7799 8.79123 17.7519 8.79123 17.6517C8.79123 17.5422 8.89584 17.4764 9.07123 17.4764C9.25892 17.4764 9.44031 17.5484 9.52954 17.6048L9.668 17.3418ZM13.7937 17.1853C13.6091 17.1853 13.4891 17.273 13.406 17.4044V17.2229H13.0891V18.7191H13.4091V17.8801C13.4091 17.633 13.5137 17.4952 13.7229 17.4952C13.7875 17.4952 13.8552 17.5046 13.9228 17.5328L14.0212 17.226C13.9505 17.1978 13.8582 17.1853 13.7937 17.1853ZM11.0648 17.2229H10.5417V16.769H10.2188V17.2229H9.9203V17.5203H10.2188V18.2025C10.2188 18.55 10.3511 18.7566 10.7294 18.7566C10.8678 18.7566 11.0278 18.7126 11.1294 18.6408L11.0371 18.3622C10.9417 18.4185 10.8371 18.4467 10.754 18.4467C10.594 18.4467 10.5417 18.3465 10.5417 18.1963V17.5203H11.0648V17.2229ZM6.28384 18.7191V17.7799C6.28384 17.4263 6.0623 17.1884 5.70554 17.1853C5.51784 17.1822 5.324 17.2417 5.18861 17.4514C5.08707 17.2855 4.92707 17.1853 4.70261 17.1853C4.54569 17.1853 4.39184 17.2323 4.27184 17.4076V17.2229H3.95184V18.7191H4.27492V17.8895C4.27492 17.6297 4.41646 17.4921 4.63492 17.4921C4.84707 17.4921 4.95477 17.633 4.95477 17.8864V18.7191H5.27784V17.8895C5.27784 17.6297 5.42554 17.4921 5.63784 17.4921C5.8563 17.4921 5.96077 17.633 5.96077 17.8864V18.7191H6.28384Z" fill="black" />
  <path fill-rule="evenodd" clip-rule="evenodd" d="M9.56171 14.6809H14.4079V5.8208H9.56171V14.6809Z" fill="#FF5F00" />
  <path fill-rule="evenodd" clip-rule="evenodd" d="M9.86937 10.2507C9.86937 8.45325 10.6966 6.85251 11.9848 5.82071C11.0428 5.06612 9.85399 4.61597 8.56199 4.61597C5.50353 4.61597 3.02399 7.13878 3.02399 10.2507C3.02399 13.3627 5.50353 15.8855 8.56199 15.8855C9.85399 15.8855 11.0428 15.4354 11.9848 14.6808C10.6966 13.649 9.86937 12.0482 9.86937 10.2507Z" fill="#EB001B" />
  <path fill-rule="evenodd" clip-rule="evenodd" d="M20.7726 13.7424V13.5236H20.7166L20.652 13.6742L20.5874 13.5236H20.5312V13.7424H20.5709V13.5775L20.6314 13.7196H20.6724L20.733 13.5771V13.7424H20.7726ZM20.4172 13.7424V13.561H20.489V13.5241H20.306V13.561H20.3778V13.7424H20.4172ZM20.9455 10.2507C20.9455 13.3627 18.4661 15.8855 15.4075 15.8855C14.1155 15.8855 12.9269 15.4354 11.9847 14.6808C13.2729 13.649 14.1001 12.0482 14.1001 10.2507C14.1001 8.45325 13.2729 6.85251 11.9847 5.82071C12.9269 5.06612 14.1155 4.61597 15.4075 4.61597C18.4661 4.61597 20.9455 7.13878 20.9455 10.2507Z" fill="#F79E1B" />
</svg>
