<svg width="24" height="24" viewBox="0 0 24 24" fill="none" xmlns="http://www.w3.org/2000/svg">
  <path d="M18.8164 4C19.4693 4 20 4.51644 20 5.15378V18.8453C20 19.4827 19.4693 20 18.8164 20H5.18048C4.52935 20 4 19.4827 4 18.8453V5.15378C4 4.51644 4.52935 4 5.18048 4H18.8164ZM8.74635 9.99822H6.37118V17.6338H8.74635V9.99822ZM14.7883 9.80889C13.6336 9.80889 12.8589 10.4418 12.5425 11.0422H12.51V9.99822H10.2353V17.6338H12.6056V13.8573C12.6056 12.8609 12.794 11.896 14.0287 11.896C15.2465 11.896 15.2621 13.0351 15.2621 13.9204V17.6338H17.6346V13.4462C17.6346 11.3898 17.1906 9.80889 14.7883 9.80889ZM7.55921 6.20267C6.79697 6.20267 6.18273 6.81911 6.18273 7.57867C6.18273 8.33867 6.79697 8.95511 7.55921 8.95511C8.31834 8.95511 8.9348 8.33867 8.9348 7.57867C8.9348 6.81911 8.31834 6.20267 7.55921 6.20267Z" fill="#2867B2" />
</svg>
