<svg width="24" height="24" viewBox="0 0 24 24" fill="none" xmlns="http://www.w3.org/2000/svg">
  <path fill-rule="evenodd" clip-rule="evenodd" d="M20.6238 7.0912C20.4168 6.26803 19.807 5.61981 19.0325 5.39982C17.6288 5 12 5 12 5C12 5 6.37122 5 4.96752 5.39982C4.19311 5.61981 3.58316 6.26803 3.37616 7.0912C3 8.58312 3 11.696 3 11.696C3 11.696 3 14.8088 3.37616 16.3009C3.58316 17.124 4.19311 17.7722 4.96752 17.9923C6.37122 18.392 12 18.392 12 18.392C12 18.392 17.6288 18.392 19.0325 17.9923C19.807 17.7722 20.4168 17.124 20.6238 16.3009C21 14.8088 21 11.696 21 11.696C21 11.696 21 8.58312 20.6238 7.0912Z" fill="#D9252A" />
  <path fill-rule="evenodd" clip-rule="evenodd" d="M10.875 14L15.375 11.1876L10.875 8.375V14Z" fill="white" />
</svg>
