<svg width="24" height="24" viewBox="0 0 24 24" fill="none" xmlns="http://www.w3.org/2000/svg">
  <path fill-rule="evenodd" clip-rule="evenodd" d="M11.9972 3.00562C9.55368 3.00562 9.24729 3.01597 8.28764 3.05976C7.33 3.10344 6.67596 3.25554 6.10368 3.47797C5.51204 3.70787 5.01029 4.01551 4.51007 4.51569C4.00989 5.0159 3.70225 5.51765 3.47236 6.10929C3.24993 6.68158 3.09782 7.33562 3.05414 8.29326C3.01036 9.2529 3 9.55929 3 12.0028C3 14.4463 3.01036 14.7527 3.05414 15.7123C3.09782 16.6699 3.24993 17.324 3.47236 17.8963C3.70225 18.4879 4.00989 18.9897 4.51007 19.4899C5.01029 19.99 5.51204 20.2977 6.10368 20.5276C6.67596 20.75 7.33 20.9021 8.28764 20.9458C9.24729 20.9896 9.55368 20.9999 11.9972 20.9999C14.4406 20.9999 14.747 20.9896 15.7067 20.9458C16.6643 20.9021 17.3184 20.75 17.8906 20.5276C18.4823 20.2977 18.984 19.99 19.4842 19.4899C19.9844 18.9897 20.2921 18.4879 20.522 17.8963C20.7444 17.324 20.8965 16.6699 20.9402 15.7123C20.984 14.7527 20.9943 14.4463 20.9943 12.0028C20.9943 9.55929 20.984 9.2529 20.9402 8.29326C20.8965 7.33562 20.7444 6.68158 20.522 6.10929C20.2921 5.51765 19.9844 5.0159 19.4842 4.51569C18.984 4.01551 18.4823 3.70787 17.8906 3.47797C17.3184 3.25554 16.6643 3.10344 15.7067 3.05976C14.747 3.01597 14.4406 3.00562 11.9972 3.00562ZM11.9972 4.62672C14.3995 4.62672 14.6841 4.6359 15.6328 4.67919C16.51 4.71919 16.9864 4.86576 17.3034 4.98897C17.7234 5.15219 18.0231 5.34715 18.3379 5.66201C18.6528 5.97683 18.8477 6.27654 19.011 6.69651C19.1342 7.01354 19.2807 7.48994 19.3207 8.36715C19.364 9.31587 19.3732 9.60044 19.3732 12.0028C19.3732 14.4051 19.364 14.6897 19.3207 15.6384C19.2807 16.5156 19.1342 16.992 19.011 17.309C18.8477 17.729 18.6528 18.0287 18.3379 18.3435C18.0231 18.6584 17.7234 18.8534 17.3034 19.0166C16.9864 19.1398 16.51 19.2864 15.6328 19.3264C14.6842 19.3697 14.3997 19.3788 11.9972 19.3788C9.59464 19.3788 9.31014 19.3697 8.36154 19.3264C7.48432 19.2864 7.00793 19.1398 6.69089 19.0166C6.27093 18.8534 5.97121 18.6584 5.65639 18.3435C5.34157 18.0287 5.14657 17.729 4.98336 17.309C4.86014 16.992 4.71357 16.5156 4.67357 15.6384C4.63029 14.6897 4.62111 14.4051 4.62111 12.0028C4.62111 9.60044 4.63029 9.31587 4.67357 8.36715C4.71357 7.48994 4.86014 7.01354 4.98336 6.69651C5.14657 6.27654 5.34154 5.97683 5.65639 5.66201C5.97121 5.34715 6.27093 5.15219 6.69089 4.98897C7.00793 4.86576 7.48432 4.71919 8.36154 4.67919C9.31025 4.6359 9.59482 4.62672 11.9972 4.62672Z" fill="#545454" />
  <path fill-rule="evenodd" clip-rule="evenodd" d="M11.9972 15.0019C10.3408 15.0019 8.99812 13.6592 8.99812 12.0029C8.99812 10.3465 10.3408 9.0038 11.9972 9.0038C13.6535 9.0038 14.9962 10.3465 14.9962 12.0029C14.9962 13.6592 13.6535 15.0019 11.9972 15.0019ZM11.9972 7.38269C9.44551 7.38269 7.37701 9.45119 7.37701 12.0029C7.37701 14.5545 9.44551 16.623 11.9972 16.623C14.5488 16.623 16.6173 14.5545 16.6173 12.0029C16.6173 9.45119 14.5488 7.38269 11.9972 7.38269Z" fill="#545454" />
  <path fill-rule="evenodd" clip-rule="evenodd" d="M17.8795 7.20016C17.8795 7.79645 17.3961 8.2798 16.7999 8.2798C16.2036 8.2798 15.7202 7.79645 15.7202 7.20016C15.7202 6.60388 16.2036 6.12048 16.7999 6.12048C17.3961 6.12048 17.8795 6.60388 17.8795 7.20016Z" fill="#545454" />
</svg>
