<svg width="24" height="24" viewBox="0 0 24 24" fill="none" xmlns="http://www.w3.org/2000/svg">
  <path d="M12.1176 3.57583C6.98372 3.57583 3.6298 7.80229 3.6298 11.7367C3.6298 13.9965 4.1794 15.1217 4.78211 16.2002C5.54236 14.1543 7.06178 10.0838 7.06178 10.0838C7.06178 10.0838 7.76963 9.71756 7.76963 9.77111L8.79007 7.1729L9.44624 6.83197L10.2596 5.09948L12.0381 5.38829L15.6547 7.40816L19.7147 8.53734C18.6686 5.86131 15.7079 3.57583 12.1176 3.57583ZM12.0642 21C9.83795 21 7.11417 20.2143 5.14851 17.7992H18.9566C17.3567 19.8726 14.6083 21 12.0642 21ZM14.7904 17.3819H13.5315L15.8675 14.4674L16.1024 14.9133L14.7904 17.3819ZM16.0226 8.11644L12.0157 5.78241L10.5476 5.51931V6.59493L11.6746 7.64592L10.1021 7.51276C10.1021 7.51276 10.153 7.59273 11.4618 8.98322L17.4365 9.97995L18.4826 10.6625L15.761 10.7935L14.635 14.9133L10.9396 17.3819H8.52845L9.34181 15.7793L9.20993 15.7265L7.03469 17.3826H6.51182L8.73803 14.2567C8.84318 13.3657 8.79007 13.7591 8.92194 12.1573L8.58156 11.686L7.69051 15.1489L5.82999 17.3822H5.35773L6.458 15.8322L8.0038 11.0834L7.61031 11.2655L6.92884 13.1554L6.458 13.4171C6.458 13.4171 5.35773 16.0942 4.78139 17.4036C3.94416 16.2013 3 14.5738 3 11.7371C3 7.48599 6.64227 3 12.1176 3C17.3834 3 20.1891 7.19861 20.6589 9.3752L16.0226 8.11644ZM18.6155 14.2564L17.8532 14.9133L16.3373 17.3819H15.34L16.3373 15.619L17.1218 14.9664L18.252 11.791L19.4531 12.2893L18.6155 14.2564ZM19.3245 17.3819H17.3078L19.2183 14.3628L19.7946 12.3939L21 12.8145C20.8938 14.3363 20.3973 15.8814 19.3245 17.3819ZM16.8602 13.7591L16.2575 13.8662L16.4171 12.657L16.2575 12.4207L16.4171 11.0556L17.9597 11.686L16.8602 13.7591Z" fill="#007AC1" />
</svg>
