<svg width="24" height="24" viewBox="0 0 24 24" fill="none" xmlns="http://www.w3.org/2000/svg">
  <path d="M8.66064 19.306C15.4531 19.306 19.1683 13.6785 19.1683 8.79831C19.1683 8.63847 19.1683 8.47935 19.1575 8.32095C19.8803 7.79817 20.5042 7.15086 21 6.40935C20.326 6.70801 19.611 6.90387 18.8789 6.99039C19.6498 6.52886 20.2268 5.80295 20.5025 4.94775C19.7776 5.37792 18.9845 5.68108 18.1574 5.84415C17.6006 5.25208 16.8642 4.86003 16.0621 4.72866C15.2601 4.5973 14.4371 4.73394 13.7205 5.11744C13.0039 5.50094 12.4337 6.10993 12.0981 6.85016C11.7624 7.59039 11.6802 8.4206 11.8639 9.21231C10.3957 9.1387 8.95929 8.75715 7.64806 8.09242C6.33683 7.42768 5.18004 6.49463 4.2528 5.35383C3.78055 6.16683 3.6359 7.12925 3.84832 8.04515C4.06075 8.96104 4.61426 9.76155 5.39616 10.2837C4.80845 10.2663 4.23356 10.1077 3.72 9.82143C3.72 9.83655 3.72 9.85239 3.72 9.86823C3.72023 10.7209 4.01539 11.5472 4.5554 12.207C5.09542 12.8668 5.84705 13.3196 6.6828 13.4884C6.13911 13.6367 5.56866 13.6583 5.01528 13.5518C5.25127 14.2856 5.7107 14.9272 6.32933 15.3871C6.94796 15.8469 7.69484 16.1019 8.46552 16.1164C7.15781 17.1441 5.54236 17.7021 3.87912 17.7004C3.58529 17.6998 3.29175 17.682 3 17.6471C4.68886 18.7309 6.65394 19.3058 8.66064 19.3031" fill="#1DA1F2" />
</svg>
