<svg width="24" height="24" viewBox="0 0 24 24" fill="none" xmlns="http://www.w3.org/2000/svg">
  <path d="M10.5049 8.02025C11.3632 8.29085 11.8014 8.5646 12.3597 8.51582C12.918 8.46704 13.1909 8.24258 13.9611 8.02025C14.711 7.8038 15.8714 7.71213 16.679 8.02025C17.8201 8.45561 18.5072 9.3988 18.5072 9.3988C18.5072 9.3988 16.6017 10.3016 16.679 12.5427C16.7563 14.7838 19.0278 15.7388 19.0278 15.7388C19.0278 15.7388 18.1571 17.5583 17.292 18.6193C16.822 19.1958 15.8167 19.9807 15.0881 19.9807C14.6157 19.9807 14.1734 19.7252 13.6735 19.5414C13.2278 19.3776 13.0941 19.2688 12.4619 19.2373C11.9531 19.2119 11.2525 19.4056 10.8759 19.597C10.4715 19.8025 9.66601 20.1571 8.86816 19.859C7.96062 19.52 7.144 18.6075 6.47928 17.5107C5.23019 15.4498 4.99532 13.7447 4.97189 12.7076C4.96335 12.3295 4.93234 11.0351 5.79392 9.69301C6.6555 8.3509 7.87763 8.02025 7.87763 8.02025C7.87763 8.02025 9.01051 7.54907 10.5049 8.02025ZM15.178 3.995C15.178 3.995 15.39 5.23164 14.4757 6.63334C13.5613 8.03504 11.7194 7.99171 11.7194 7.99171C11.7194 7.99171 11.4116 6.55275 12.5833 5.27387C13.7549 3.99499 15.178 3.995 15.178 3.995Z" fill="#545454" />
</svg>
