<svg width="48" height="48" viewBox="0 0 48 48" fill="none" xmlns="http://www.w3.org/2000/svg">
<path d="M36.9 38.9C35.8667 39.8555 34.7335 40.697 33.52 41.41C33.2915 41.5296 33.0256 41.5562 32.7779 41.4843C32.5302 41.4125 32.3198 41.2477 32.1908 41.0244C32.0617 40.8011 32.0239 40.5365 32.0852 40.286C32.1466 40.0355 32.3024 39.8184 32.52 39.68C33.5983 39.0405 34.6042 38.2861 35.52 37.43C35.6166 37.3394 35.73 37.2687 35.8538 37.2219C35.9777 37.1751 36.1095 37.1532 36.2419 37.1574C36.3742 37.1616 36.5044 37.1918 36.625 37.2463C36.7457 37.3007 36.8544 37.3785 36.945 37.475C37.0357 37.5715 37.1064 37.6849 37.1531 37.8088C37.1999 37.9326 37.2219 38.0645 37.2177 38.1968C37.2135 38.3291 37.1833 38.4593 37.1288 38.58C37.0743 38.7007 36.9966 38.8094 36.9 38.9ZM39.52 35.9C39.3416 36.0688 39.1073 36.166 38.8617 36.173C38.6162 36.1801 38.3767 36.0966 38.1888 35.9384C38.0009 35.7802 37.8778 35.5583 37.843 35.3152C37.8082 35.072 37.8641 34.8246 38 34.62C38.7183 33.5816 39.3218 32.4685 39.8 31.3C39.8499 31.1785 39.9233 31.0681 40.0159 30.9749C40.1085 30.8818 40.2185 30.8078 40.3397 30.7572C40.4609 30.7066 40.5908 30.6804 40.7221 30.68C40.8535 30.6796 40.9836 30.7051 41.105 30.755C41.2265 30.8049 41.337 30.8782 41.4301 30.9708C41.5232 31.0634 41.5972 31.1734 41.6478 31.2946C41.6984 31.4158 41.7247 31.5458 41.7251 31.6771C41.7254 31.8084 41.6999 31.9385 41.65 32.06C41.1224 33.3636 40.4516 34.6045 39.65 35.76C39.6127 35.8089 39.569 35.8527 39.52 35.89V35.9ZM30 42.9C29.8875 43.0104 29.7504 43.0927 29.6 43.14C28.2588 43.5706 26.8735 43.849 25.47 43.97C25.3387 43.9812 25.2065 43.9663 25.0809 43.9264C24.9553 43.8865 24.8388 43.8222 24.738 43.7372C24.6373 43.6522 24.5543 43.5483 24.4937 43.4312C24.4331 43.3142 24.3962 43.1863 24.385 43.055C24.3739 42.9237 24.3887 42.7914 24.4286 42.6658C24.4686 42.5403 24.5329 42.4237 24.6178 42.323C24.7028 42.2222 24.8068 42.1392 24.9238 42.0786C25.0409 42.0181 25.1687 41.9812 25.3 41.97C26.5564 41.8626 27.7971 41.6178 29 41.24C29.1254 41.1996 29.2576 41.1844 29.3889 41.1952C29.5202 41.206 29.6481 41.2427 29.7651 41.3031C29.8822 41.3635 29.9862 41.4465 30.0712 41.5472C30.1561 41.6479 30.2203 41.7644 30.26 41.89C30.3138 42.066 30.318 42.2534 30.2721 42.4316C30.2263 42.6098 30.1321 42.7719 30 42.9ZM42.52 28.54C42.4067 28.654 42.2675 28.7389 42.1143 28.7877C41.9611 28.8364 41.7984 28.8475 41.64 28.82C41.379 28.7759 41.146 28.6301 40.9923 28.4145C40.8386 28.1989 40.7766 27.9312 40.82 27.67C41.0096 26.5774 41.09 25.4686 41.06 24.36C41.0568 24.2287 41.0794 24.098 41.1266 23.9754C41.1738 23.8528 41.2447 23.7408 41.3353 23.6456C41.4258 23.5504 41.5342 23.474 41.6543 23.4207C41.7743 23.3674 41.9037 23.3383 42.035 23.335C42.1664 23.3317 42.2971 23.3543 42.4196 23.4016C42.5422 23.4488 42.6543 23.5197 42.7495 23.6102C42.8447 23.7008 42.9211 23.8092 42.9744 23.9292C43.0276 24.0493 43.0568 24.1787 43.06 24.31C43.0884 25.5454 43.0013 26.7808 42.8 28C42.765 28.2047 42.6672 28.3934 42.52 28.54ZM22.14 43.6C22.0319 43.7098 21.8997 43.7931 21.754 43.8434C21.6083 43.8937 21.4529 43.9097 21.3 43.89C19.9042 43.7075 18.5326 43.3721 17.21 42.89C17.0859 42.8454 16.9719 42.7767 16.8743 42.688C16.7767 42.5992 16.6976 42.4921 16.6414 42.3728C16.5852 42.2535 16.5531 42.1243 16.5469 41.9925C16.5406 41.8608 16.5604 41.7291 16.605 41.605C16.6497 41.4809 16.7184 41.3668 16.8071 41.2692C16.8958 41.1717 17.0029 41.0925 17.1222 41.0364C17.2416 40.9802 17.3708 40.9481 17.5025 40.9418C17.6343 40.9356 17.7659 40.9554 17.89 41C19.0782 41.4266 20.3085 41.725 21.56 41.89C21.7437 41.915 21.9167 41.9906 22.0599 42.1082C22.2031 42.2258 22.3108 42.381 22.3709 42.5562C22.4311 42.7315 22.4413 42.9201 22.4006 43.1008C22.3598 43.2816 22.2696 43.4475 22.14 43.58V43.6ZM14.68 40.9C14.5192 41.0629 14.3073 41.1657 14.0798 41.1911C13.8523 41.2166 13.623 41.1633 13.43 41.04C12.2459 40.2793 11.1463 39.3942 10.15 38.4C9.96379 38.2126 9.85925 37.9592 9.85925 37.695C9.85925 37.4308 9.96379 37.1774 10.15 36.99C10.243 36.8963 10.3536 36.8219 10.4755 36.7711C10.5973 36.7203 10.728 36.6942 10.86 36.6942C10.9921 36.6942 11.1228 36.7203 11.2446 36.7711C11.3665 36.8219 11.4771 36.8963 11.57 36.99C12.4601 37.8826 13.4461 38.6741 14.51 39.35C14.621 39.4202 14.7171 39.5117 14.7927 39.619C14.8684 39.7264 14.9221 39.8476 14.9509 39.9758C14.9797 40.1039 14.983 40.2365 14.9605 40.3659C14.938 40.4953 14.8903 40.619 14.82 40.73C14.7815 40.7929 14.7344 40.8501 14.68 40.9Z" fill="#8124BB"/>
<path d="M40.12 9C39.8664 8.96459 39.6088 9.02782 39.4005 9.17666C39.1921 9.3255 39.0487 9.54861 39 9.8L38.55 12.1C35.5557 7.95467 31.0373 5.16859 25.9888 4.35469C20.9403 3.54078 15.7753 4.76571 11.63 7.76C7.48465 10.7543 4.69857 15.2727 3.88467 20.3212C3.07076 25.3696 4.29569 30.5347 7.28998 34.68C7.36342 34.7901 7.45799 34.8845 7.5682 34.9578C7.67841 35.0311 7.80208 35.0818 7.93202 35.1069C8.06197 35.132 8.19561 35.1311 8.3252 35.1042C8.45479 35.0773 8.57774 35.025 8.68694 34.9502C8.79614 34.8754 8.88941 34.7797 8.96134 34.6686C9.03327 34.5575 9.08242 34.4332 9.10596 34.3029C9.1295 34.1727 9.12695 34.0391 9.09845 33.9098C9.06996 33.7806 9.0161 33.6583 8.93998 33.55C6.37506 29.8503 5.35618 25.2953 6.10041 20.8554C6.84463 16.4155 9.29314 12.4417 12.9243 9.78063C16.5554 7.11954 21.0821 5.98151 25.54 6.60901C29.9979 7.23651 34.0345 9.57993 36.79 13.14L34.63 12.73C34.3648 12.6796 34.0904 12.7366 33.8672 12.8885C33.6441 13.0404 33.4904 13.2748 33.44 13.54C33.3896 13.8052 33.4466 14.0796 33.5985 14.3028C33.7504 14.5259 33.9848 14.6796 34.25 14.73L38.85 15.62C38.9809 15.6454 39.1156 15.6443 39.2461 15.6168C39.3767 15.5893 39.5004 15.536 39.61 15.46C39.8234 15.3113 39.9704 15.0853 40.02 14.83L40.91 10.22C40.9422 10.0878 40.9471 9.95043 40.9243 9.81628C40.9016 9.68214 40.8517 9.55404 40.7778 9.43984C40.7038 9.32563 40.6073 9.22772 40.4942 9.15209C40.3811 9.07646 40.2538 9.02471 40.12 9Z" fill="#480076"/>
<path d="M11.08 27.5C13.08 25.83 14.61 24.34 14.61 23.22C14.6255 23.0797 14.6112 22.9378 14.5679 22.8035C14.5247 22.6691 14.4535 22.5455 14.359 22.4406C14.2646 22.3358 14.149 22.2521 14.0199 22.1951C13.8908 22.1382 13.7511 22.1091 13.61 22.11C13.0649 22.1843 12.5701 22.4676 12.23 22.9L11 21.74C11.3331 21.2951 11.7668 20.9354 12.2657 20.6903C12.7645 20.4452 13.3143 20.3218 13.87 20.33C14.2442 20.2991 14.6208 20.3472 14.9753 20.4711C15.3297 20.5951 15.6542 20.7921 15.9276 21.0495C16.2011 21.3069 16.4173 21.6189 16.5625 21.9652C16.7076 22.3116 16.7783 22.6846 16.77 23.06C16.77 24.55 15.41 25.88 14.14 27.06C14.56 27.01 15.14 26.95 15.54 26.95H17.17V28.87H11.08V27.5Z" fill="#8124BB"/>
<path d="M21.62 27H18V25.43L20.87 20.49H23.71V25.29H24.61V27H23.71V28.89H21.62V27ZM21.62 25.27V24.32C21.62 23.75 21.67 22.9 21.7 22.32H21.64C21.43 22.82 21.19 23.32 20.95 23.83L20.18 25.26L21.62 25.27Z" fill="#8124BB"/>
<path d="M27.46 19.48H28.92L26.58 31H25.12L27.46 19.48Z" fill="#8124BB"/>
<path d="M33.56 22.4H30V20.49H36V21.9C34 24.21 33.71 25.63 33.55 28.9H31.25C31.2798 26.5375 32.0922 24.2515 33.56 22.4Z" fill="#8124BB"/>
</svg>
