<svg width="48" height="48" viewBox="0 0 48 48" fill="none" xmlns="http://www.w3.org/2000/svg">
<path d="M4.62 22.83C4.6188 26.4843 5.71286 30.055 7.76096 33.0814C9.80907 36.1078 12.7172 38.4508 16.11 39.8082C19.5029 41.1655 23.2246 41.4749 26.795 40.6962C30.3653 39.9176 33.6204 38.0867 36.14 35.44" stroke="#480076" stroke-width="2" stroke-linecap="round" stroke-linejoin="round" stroke-dasharray="4 4"/>
<path d="M41.18 22.83C41.18 17.9818 39.2541 13.3323 35.8259 9.90409C32.3977 6.47592 27.7482 4.55 22.9 4.55C18.0518 4.55 13.4022 6.47592 9.97408 9.90409C6.54592 13.3323 4.62 17.9818 4.62 22.83" stroke="#480076" stroke-width="2" stroke-linecap="round" stroke-linejoin="round"/>
<path d="M37.87 20.83L41.17 24.16L44.5 20.86" stroke="#480076" stroke-width="2" stroke-linecap="round" stroke-linejoin="round"/>
<path d="M29.89 18.3H28.89V15.48C28.7022 14.0347 27.9949 12.7072 26.8999 11.7453C25.805 10.7835 24.3974 10.253 22.94 10.253C21.4826 10.253 20.075 10.7835 18.9801 11.7453C17.8852 12.7072 17.1778 14.0347 16.99 15.48V18.3H15.99C15.2978 18.3 14.6339 18.575 14.1445 19.0645C13.655 19.5539 13.38 20.2178 13.38 20.91V30.23C13.38 30.9222 13.655 31.5861 14.1445 32.0756C14.6339 32.565 15.2978 32.84 15.99 32.84H29.99C30.6805 32.8374 31.3418 32.5612 31.8291 32.072C32.3164 31.5828 32.59 30.9205 32.59 30.23V20.91C32.5902 20.5595 32.5198 20.2126 32.3831 19.89C32.2463 19.5673 32.046 19.2755 31.794 19.0319C31.542 18.7883 31.2436 18.598 30.9165 18.4722C30.5893 18.3465 30.2403 18.2879 29.89 18.3ZM26.89 18.3H19V15.48C19 14.4324 19.4162 13.4277 20.1569 12.6869C20.8977 11.9462 21.9024 11.53 22.95 11.53C23.9976 11.53 25.0023 11.9462 25.7431 12.6869C26.4838 13.4277 26.9 14.4324 26.9 15.48L26.89 18.3Z" fill="#8124BB"/>
<path d="M24.55 24C24.5677 23.7732 24.5383 23.5452 24.4637 23.3303C24.389 23.1154 24.2707 22.9182 24.1163 22.7512C23.9618 22.5842 23.7744 22.451 23.566 22.3598C23.3575 22.2687 23.1325 22.2216 22.905 22.2216C22.6775 22.2216 22.4525 22.2687 22.244 22.3598C22.0356 22.451 21.8482 22.5842 21.6937 22.7512C21.5393 22.9182 21.421 23.1154 21.3463 23.3303C21.2717 23.5452 21.2423 23.7732 21.26 24C21.2592 24.2514 21.3166 24.4995 21.4276 24.725C21.5386 24.9505 21.7003 25.1473 21.9 25.3V28.7C21.9 28.9652 22.0054 29.2196 22.1929 29.4071C22.3804 29.5946 22.6348 29.7 22.9 29.7C23.1652 29.7 23.4196 29.5946 23.6071 29.4071C23.7946 29.2196 23.9 28.9652 23.9 28.7V25.3C24.1015 25.1484 24.2651 24.952 24.3779 24.7265C24.4907 24.5009 24.5496 24.2522 24.55 24Z" fill="white"/>
</svg>
