<svg width="48" height="48" viewBox="0 0 48 48" fill="none" xmlns="http://www.w3.org/2000/svg">
<path d="M26.89 21.46C29.11 20.5877 30.9558 18.9678 32.1089 16.8799C33.262 14.792 33.65 12.3671 33.2061 10.0236C32.7622 7.68011 31.5142 5.56509 29.6774 4.04355C27.8405 2.522 25.5302 1.68939 23.145 1.68939C20.7599 1.68939 18.4495 2.522 16.6127 4.04355C14.7759 5.56509 13.5279 7.68011 13.084 10.0236C12.64 12.3671 13.0281 14.792 14.1812 16.8799C15.3343 18.9678 17.1801 20.5877 19.4 21.46V43.23C19.3738 43.7381 19.4512 44.2462 19.6275 44.7234C19.8039 45.2006 20.0755 45.637 20.4258 46.0059C20.7762 46.3748 21.1979 46.6686 21.6654 46.8693C22.1329 47.0701 22.6363 47.1736 23.145 47.1736C23.6538 47.1736 24.1572 47.0701 24.6247 46.8693C25.0922 46.6686 25.5139 46.3748 25.8643 46.0059C26.2146 45.637 26.4862 45.2006 26.6626 44.7234C26.8389 44.2462 26.9163 43.7381 26.89 43.23V43.12H32.07V38H30.2V37H32.07V31.66H26.89V21.46ZM21.4 33.66H24.89V41.12H21.4V33.66ZM14.91 11.94C14.9081 10.3099 15.3897 8.71576 16.2939 7.35938C17.1981 6.00301 18.4843 4.94531 19.9898 4.32011C21.4953 3.69491 23.1524 3.5303 24.7515 3.84711C26.3505 4.16392 27.8197 4.94792 28.9731 6.0999C30.1264 7.25189 30.9122 8.7201 31.231 10.3188C31.5497 11.9175 31.3871 13.5748 30.7638 15.081C30.1404 16.5872 29.0843 17.8747 27.729 18.7806C26.3737 19.6865 24.7802 20.17 23.15 20.17C20.9672 20.1674 18.8744 19.2997 17.3299 17.7572C15.7855 16.2146 14.9153 14.1228 14.91 11.94ZM23.15 22.17C23.7339 22.164 24.3161 22.1071 24.89 22V31.65H21.4V22C21.9773 22.1075 22.5629 22.1644 23.15 22.17ZM23.15 44.98C22.6859 44.98 22.2408 44.7956 21.9126 44.4674C21.5844 44.1392 21.4 43.6941 21.4 43.23V43.12H24.89V43.23C24.894 43.461 24.852 43.6905 24.7663 43.9051C24.6807 44.1197 24.5531 44.315 24.3911 44.4798C24.2292 44.6446 24.036 44.7754 23.8229 44.8647C23.6098 44.9541 23.3811 45 23.15 45V44.98ZM27 33.66H30.05V35H28.2V40H30.07V41.15H27V33.66Z" fill="#480076"/>
<path d="M27.86 7.41L23.5 5.77C23.4468 5.76514 23.3933 5.76514 23.34 5.77H23.15C23.0801 5.76447 23.0099 5.76447 22.94 5.77H22.79L18.43 7.41C18.2386 7.48151 18.0737 7.60994 17.9575 7.778C17.8413 7.94606 17.7794 8.14568 17.78 8.35V12.16C17.78 16.01 22.5 18.41 22.7 18.51H22.82H22.89C22.9728 18.5236 23.0573 18.5236 23.14 18.51C23.2228 18.5236 23.3073 18.5236 23.39 18.51H23.46H23.58C23.78 18.41 28.5 16.01 28.5 12.16V8.35C28.5015 8.14686 28.441 7.9481 28.3267 7.78017C28.2123 7.61225 28.0496 7.48313 27.86 7.41ZM19.78 12.16V9L23.15 7.74V16.44C21.91 15.74 19.78 14.07 19.78 12.16Z" fill="#8124BB"/>
</svg>
