<svg width="48" height="48" viewBox="0 0 48 48" fill="none" xmlns="http://www.w3.org/2000/svg">
<path d="M33.82 45.33H14.15C13.31 45.3169 12.5089 44.9739 11.9195 44.3752C11.3302 43.7765 10.9999 42.9701 11 42.13V6.19C10.9999 5.35084 11.3305 4.54546 11.9201 3.94835C12.5098 3.35125 13.3109 3.01052 14.15 3H33.82C34.6635 3.00527 35.4708 3.34336 36.0663 3.94075C36.6618 4.53814 36.9974 5.34649 37 6.19V42.13C36.9974 42.9744 36.6622 43.7838 36.0669 44.3828C35.4717 44.9818 34.6644 45.3221 33.82 45.33ZM14.15 5C13.8414 5.01038 13.5489 5.14032 13.3343 5.36238C13.1197 5.58443 12.9998 5.8812 13 6.19V42.13C12.9987 42.2871 13.0285 42.4429 13.0877 42.5885C13.1469 42.734 13.2344 42.8664 13.345 42.9779C13.4556 43.0895 13.5873 43.178 13.7323 43.2385C13.8773 43.2989 14.0329 43.33 14.19 43.33H33.82C33.9776 43.33 34.1336 43.299 34.2792 43.2387C34.4248 43.1783 34.5571 43.09 34.6685 42.9785C34.78 42.8671 34.8683 42.7348 34.9287 42.5892C34.989 42.4436 35.02 42.2876 35.02 42.13V6.19C35.02 6.03288 34.9889 5.87732 34.9285 5.73229C34.868 5.58725 34.7795 5.45562 34.6679 5.34499C34.5564 5.23435 34.424 5.14691 34.2785 5.0877C34.1329 5.02849 33.9771 4.99868 33.82 5H14.15Z" fill="#480076"/>
<path d="M36 12.07H12C11.7348 12.07 11.4804 11.9646 11.2929 11.7771C11.1054 11.5896 11 11.3352 11 11.07C11 10.8048 11.1054 10.5504 11.2929 10.3629C11.4804 10.1754 11.7348 10.07 12 10.07H36C36.2652 10.07 36.5196 10.1754 36.7071 10.3629C36.8946 10.5504 37 10.8048 37 11.07C37 11.3352 36.8946 11.5896 36.7071 11.7771C36.5196 11.9646 36.2652 12.07 36 12.07Z" fill="#480076"/>
<path d="M36 38.86H12C11.7348 38.86 11.4804 38.7546 11.2929 38.5671C11.1054 38.3796 11 38.1252 11 37.86C11 37.5948 11.1054 37.3404 11.2929 37.1529C11.4804 36.9654 11.7348 36.86 12 36.86H36C36.2652 36.86 36.5196 36.9654 36.7071 37.1529C36.8946 37.3404 37 37.5948 37 37.86C37 38.1252 36.8946 38.3796 36.7071 38.5671C36.5196 38.7546 36.2652 38.86 36 38.86Z" fill="#480076"/>
<path d="M30 8.72H21.54C21.2748 8.72 21.0205 8.61464 20.8329 8.42711C20.6454 8.23957 20.54 7.98522 20.54 7.72C20.54 7.45478 20.6454 7.20043 20.8329 7.01289C21.0205 6.82536 21.2748 6.72 21.54 6.72H30C30.2653 6.72 30.5196 6.82536 30.7071 7.01289C30.8947 7.20043 31 7.45478 31 7.72C31 7.98522 30.8947 8.23957 30.7071 8.42711C30.5196 8.61464 30.2653 8.72 30 8.72Z" fill="#480076"/>
<path d="M27 42H21C20.7348 42 20.4804 41.8946 20.2929 41.7071C20.1054 41.5196 20 41.2652 20 41C20 40.7348 20.1054 40.4804 20.2929 40.2929C20.4804 40.1054 20.7348 40 21 40H27C27.2652 40 27.5196 40.1054 27.7071 40.2929C27.8946 40.4804 28 40.7348 28 41C28 41.2652 27.8946 41.5196 27.7071 41.7071C27.5196 41.8946 27.2652 42 27 42Z" fill="#480076"/>
<path d="M31.2401 18.29L30.3401 18.2C28.2875 17.9381 26.3195 17.2206 24.5801 16.1C24.517 16.0559 24.4455 16.0252 24.3701 16.01L24.2201 15.95H23.8401L23.7001 16C23.6232 16.0249 23.5494 16.0585 23.4801 16.1C21.7406 17.2206 19.7726 17.9381 17.7201 18.2L16.8101 18.29V24.58C16.8101 29.7 21.2901 32.29 23.7201 32.96H23.7701C23.8449 32.9823 23.9221 32.9957 24.0001 33C24.0864 33.0098 24.1737 33.0098 24.2601 33C26.6701 32.35 31.2601 29.77 31.2601 24.6L31.2401 18.29ZM18.7801 24.58V20.06C20.6282 19.7086 22.399 19.0314 24.0101 18.06V31C22.9201 30.6 18.7801 28.94 18.7801 24.58Z" fill="#8124BB"/>
<path d="M17.78 8.72C18.3323 8.72 18.78 8.27229 18.78 7.72C18.78 7.16772 18.3323 6.72 17.78 6.72C17.2277 6.72 16.78 7.16772 16.78 7.72C16.78 8.27229 17.2277 8.72 17.78 8.72Z" fill="#480076"/>
</svg>
