<svg width="48" height="48" viewBox="0 0 48 48" fill="none" xmlns="http://www.w3.org/2000/svg">
<path d="M15.73 27.05C16.5032 27.05 17.13 26.4232 17.13 25.65C17.13 24.8768 16.5032 24.25 15.73 24.25C14.9568 24.25 14.33 24.8768 14.33 25.65C14.33 26.4232 14.9568 27.05 15.73 27.05Z" fill="#8124BB"/>
<path d="M20.68 27.05C21.4532 27.05 22.08 26.4232 22.08 25.65C22.08 24.8768 21.4532 24.25 20.68 24.25C19.9068 24.25 19.28 24.8768 19.28 25.65C19.28 26.4232 19.9068 27.05 20.68 27.05Z" fill="#8124BB"/>
<path d="M25.64 27.05C26.4132 27.05 27.04 26.4232 27.04 25.65C27.04 24.8768 26.4132 24.25 25.64 24.25C24.8668 24.25 24.24 24.8768 24.24 25.65C24.24 26.4232 24.8668 27.05 25.64 27.05Z" fill="#8124BB"/>
<path d="M39.92 7.49001H15.12C14.8548 7.49001 14.6005 7.59536 14.4129 7.7829C14.2254 7.97044 14.12 8.22479 14.12 8.49001V16.05H8.29004C8.02482 16.05 7.77047 16.1554 7.58293 16.3429C7.3954 16.5304 7.29004 16.7848 7.29004 17.05V40.38C7.28985 40.5803 7.34979 40.776 7.46212 40.9418C7.57445 41.1076 7.73397 41.2359 7.92004 41.31C8.03739 41.3581 8.16325 41.3819 8.29004 41.38C8.42377 41.3769 8.55552 41.3469 8.67747 41.292C8.79943 41.237 8.90911 41.1581 9.00004 41.06L14.53 35.17H33.08C33.3453 35.17 33.5996 35.0646 33.7871 34.8771C33.9747 34.6896 34.08 34.4352 34.08 34.17V27.07L39.19 32.5C39.2841 32.5987 39.3974 32.6772 39.523 32.7305C39.6485 32.7838 39.7836 32.8108 39.92 32.81C40.0436 32.8119 40.1662 32.7881 40.28 32.74C40.468 32.6675 40.6296 32.5399 40.7438 32.374C40.858 32.208 40.9194 32.0114 40.92 31.81V8.49001C40.92 8.22479 40.8147 7.97044 40.6271 7.7829C40.4396 7.59536 40.1853 7.49001 39.92 7.49001ZM32.08 33.17H14.08C13.9437 33.1692 13.8085 33.1962 13.683 33.2495C13.5575 33.3029 13.4441 33.3813 13.35 33.48L9.25004 37.85V18.05H32.08V33.17ZM38.92 29.29L34.81 24.92C34.7168 24.8195 34.6039 24.7392 34.4783 24.6841C34.3527 24.6291 34.2172 24.6004 34.08 24.6V17.05C34.08 16.7848 33.9747 16.5304 33.7871 16.3429C33.5996 16.1554 33.3453 16.05 33.08 16.05H16.08V9.49001H38.88L38.92 29.29Z" fill="#480076"/>
</svg>
