<svg width="48" height="48" viewBox="0 0 48 48" fill="none" xmlns="http://www.w3.org/2000/svg">
<path d="M41.29 32.39C41.2924 31.658 41.249 30.9266 41.16 30.2L45.86 29.61C45.962 30.5297 46.0087 31.4547 46 32.38L41.29 32.39ZM40.49 27.16C40.1766 26.1647 39.7715 25.2005 39.28 24.28L43.47 22.06C44.0867 23.2361 44.5987 24.4641 45 25.73L40.49 27.16ZM37.58 21.67C36.9341 20.8524 36.2144 20.0958 35.43 19.41L38.56 15.85C39.5531 16.7313 40.4666 17.6984 41.29 18.74L37.58 21.67ZM32.91 17.56C32.0207 17.0212 31.0833 16.5659 30.11 16.2L31.78 11.77C33.0245 12.2382 34.223 12.8206 35.36 13.51L32.91 17.56ZM27.11 15.37C26.0841 15.1815 25.0431 15.0877 24 15.09V10.35C25.3249 10.3489 26.6471 10.4694 27.95 10.71L27.11 15.37Z" fill="#8124BB"/>
<path d="M6.71 32.38H2C2.01321 26.5493 4.3353 20.9612 8.45824 16.8382C12.5812 12.7153 18.1693 10.3932 24 10.38V15.12C19.4212 15.1253 15.031 16.9445 11.7905 20.1794C8.55004 23.4142 6.72322 27.8012 6.71 32.38Z" fill="#480076"/>
<path d="M31.58 20.68L25.76 24.43L20.76 27.65C20.3492 27.7946 19.9765 28.0305 19.67 28.34C19.1051 28.9036 18.7872 29.6685 18.7863 30.4665C18.7853 31.2644 19.1014 32.0301 19.665 32.595C20.2286 33.1599 20.9935 33.4778 21.7915 33.4787C22.5894 33.4797 23.3551 33.1636 23.92 32.6C24.2327 32.2903 24.4719 31.9144 24.62 31.5L27.83 26.5L31.58 20.68Z" fill="#8124BB"/>
</svg>
