<svg width="48" height="48" viewBox="0 0 48 48" fill="none" xmlns="http://www.w3.org/2000/svg">
<path d="M22.81 33.19C19.67 33.19 16.56 33.19 13.75 33.19V31.19C19.98 31.25 27.75 31.24 33.94 31.19V33.19C30.55 33.17 26.66 33.19 22.81 33.19Z" fill="#480076"/>
<path d="M47.41 22.9C47.11 22.12 47.02 22.12 42.46 22.25H41.6C41.36 22.09 40.87 21.66 40.47 21.31C39.04 20.06 36.87 18.16 34.73 17.59C31.59 16.74 23.24 16.54 19.9 17.84C17.528 18.9396 15.3709 20.4533 13.53 22.31C8.89005 22.59 3.66005 23.76 2.21005 24.84C0.760047 25.92 0.470047 29.47 0.490047 30.68C0.449596 31.0445 0.491492 31.4134 0.612645 31.7596C0.733798 32.1057 0.931117 32.4203 1.19005 32.68C1.50005 32.92 1.81005 33.06 6.77005 33.18L6.82005 31.18C4.18005 31.09 3.00005 31 2.50005 31C2.37005 29.89 2.84005 27 3.38005 26.51C4.38005 25.8 9.20005 24.58 14 24.34H36.41C36.5852 24.3412 36.7576 24.2964 36.91 24.21L39.14 22.9C40.27 23.9 40.79 24.34 41.4 24.34H42.51C43.2 24.34 44.51 24.28 45.44 24.28C45.3477 26.5557 45.1139 28.8234 44.74 31.07C43.85 31.13 41.99 31.18 41.09 31.21L41.15 33.21C45.62 33 45.67 33 46 32.74L46.13 32.64C47.21 31.61 47.57 23.32 47.41 22.9ZM20.62 19.72C22.5961 19.1782 24.6421 18.9355 26.69 19V22.34H16.56C17.7739 21.2674 19.1426 20.3841 20.62 19.72ZM36.13 22.27H28.69V19C30.5449 19.0064 32.3944 19.2007 34.21 19.58C35.4247 20.0052 36.5479 20.6567 37.52 21.5L36.13 22.27Z" fill="#480076"/>
<path d="M27.39 27.14H25.22C24.9548 27.14 24.7004 27.0346 24.5129 26.8471C24.3253 26.6596 24.22 26.4052 24.22 26.14C24.22 25.8748 24.3253 25.6204 24.5129 25.4329C24.7004 25.2454 24.9548 25.14 25.22 25.14H27.39C27.6552 25.14 27.9095 25.2454 28.0971 25.4329C28.2846 25.6204 28.39 25.8748 28.39 26.14C28.39 26.4052 28.2846 26.6596 28.0971 26.8471C27.9095 27.0346 27.6552 27.14 27.39 27.14Z" fill="#480076"/>
<path d="M10.28 35.76C9.39113 35.762 8.52166 35.5001 7.78175 35.0075C7.04185 34.5149 6.4648 33.8137 6.12373 32.9929C5.78265 32.172 5.69289 31.2684 5.86582 30.3965C6.03875 29.5246 6.46658 28.7236 7.09512 28.0951C7.72366 27.4666 8.52462 27.0387 9.39653 26.8658C10.2684 26.6929 11.172 26.7826 11.9929 27.1237C12.8137 27.4648 13.5149 28.0418 14.0075 28.7817C14.5001 29.5216 14.762 30.3911 14.76 31.28C14.7574 32.4674 14.2845 33.6053 13.4449 34.4449C12.6054 35.2845 11.4674 35.7574 10.28 35.76ZM10.28 28.76C9.78712 28.758 9.30473 28.9024 8.89394 29.1748C8.48314 29.4472 8.16244 29.8354 7.97244 30.2902C7.78245 30.745 7.73171 31.246 7.82665 31.7296C7.9216 32.2133 8.15795 32.6579 8.50579 33.0071C8.85362 33.3564 9.29727 33.5945 9.78056 33.6914C10.2638 33.7883 10.765 33.7396 11.2206 33.5514C11.6761 33.3632 12.0656 33.0441 12.3397 32.6344C12.6137 32.2247 12.76 31.7429 12.76 31.25C12.7496 30.5974 12.4843 29.9747 12.0209 29.515C11.5575 29.0553 10.9327 28.7951 10.28 28.79V28.76Z" fill="#8124BB"/>
<path d="M37.46 35.76C36.5711 35.762 35.7016 35.5001 34.9617 35.0075C34.2218 34.5149 33.6447 33.8137 33.3037 32.9929C32.9626 32.172 32.8728 31.2684 33.0458 30.3965C33.2187 29.5246 33.6465 28.7236 34.2751 28.0951C34.9036 27.4666 35.7045 27.0387 36.5765 26.8658C37.4484 26.6929 38.352 26.7826 39.1728 27.1237C39.9937 27.4648 40.6948 28.0418 41.1874 28.7817C41.68 29.5216 41.9419 30.3911 41.9399 31.28C41.9373 32.4674 41.4645 33.6053 40.6249 34.4449C39.7853 35.2845 38.6473 35.7574 37.46 35.76ZM37.46 28.76C36.9671 28.758 36.4847 28.9024 36.0739 29.1748C35.6631 29.4472 35.3424 29.8354 35.1524 30.2902C34.9624 30.745 34.9116 31.246 35.0066 31.7296C35.1015 32.2133 35.3379 32.6579 35.6857 33.0071C36.0335 33.3564 36.4772 33.5945 36.9605 33.6914C37.4438 33.7883 37.9449 33.7396 38.4005 33.5514C38.8561 33.3632 39.2456 33.0441 39.5196 32.6344C39.7937 32.2247 39.9399 31.7429 39.9399 31.25C39.9295 30.5974 39.6643 29.9747 39.2009 29.515C38.7375 29.0553 38.1127 28.7951 37.46 28.79V28.76Z" fill="#8124BB"/>
</svg>
