<svg width="48" height="48" viewBox="0 0 48 48" fill="none" xmlns="http://www.w3.org/2000/svg">
<path d="M41.4 7.41C41.4023 6.5127 41.2267 5.62385 40.8834 4.79481C40.5401 3.96577 40.0359 3.213 39.4 2.58C39.2126 2.39375 38.9591 2.28921 38.695 2.28921C38.4308 2.28921 38.1773 2.39375 37.99 2.58C37.8969 2.67362 37.8233 2.78475 37.7733 2.90696C37.7234 3.02918 37.6982 3.16007 37.6991 3.29208C37.7001 3.4241 37.7271 3.55462 37.7788 3.67612C37.8304 3.79762 37.9056 3.9077 38 4C38.9025 4.90536 39.4093 6.13161 39.4093 7.41C39.4093 8.68839 38.9025 9.91464 38 10.82L36.69 12.13L24.4 12.32C24.1376 12.3211 23.8862 12.4253 23.7 12.61L5.17995 31.12C5.08623 31.213 5.01183 31.3236 4.96106 31.4454C4.91029 31.5673 4.88416 31.698 4.88416 31.83C4.88416 31.962 4.91029 32.0927 4.96106 32.2146C5.01183 32.3364 5.08623 32.447 5.17995 32.54L18.06 45.42C18.1534 45.5127 18.2642 45.586 18.386 45.6358C18.5079 45.6855 18.6383 45.7108 18.77 45.71C19.0323 45.7089 19.2837 45.6047 19.47 45.42L38 26.9C38.1823 26.7162 38.2863 26.4689 38.29 26.21L38.49 13.21L39.41 12.29C40.0501 11.6503 40.556 10.889 40.8977 10.0509C41.2395 9.2129 41.4102 8.31499 41.4 7.41ZM36.29 25.78L18.77 43.29L7.29995 31.83L24.82 14.31L34.65 14.16L33.38 15.43C32.7026 15.1267 31.9394 15.0741 31.2268 15.2814C30.5142 15.4887 29.8984 15.9424 29.4893 16.5617C29.0803 17.181 28.9046 17.9255 28.9937 18.6623C29.0827 19.3991 29.4306 20.0803 29.9754 20.5843C30.5202 21.0884 31.2264 21.3824 31.9679 21.414C32.7094 21.4455 33.438 21.2126 34.0236 20.7567C34.6093 20.3008 35.0139 19.6517 35.1653 18.9251C35.3166 18.1985 35.2049 17.4418 34.85 16.79L36.45 15.19L36.29 25.78ZM32.29 17.19C32.3213 17.3888 32.4119 17.5735 32.55 17.72C32.7313 17.9 32.9746 18.0037 33.23 18.01C33.2403 18.0897 33.2403 18.1703 33.23 18.25C33.2295 18.3915 33.201 18.5316 33.1461 18.6621C33.0912 18.7925 33.0109 18.9108 32.91 19.01C32.7041 19.2034 32.4324 19.311 32.15 19.311C31.8676 19.311 31.5958 19.2034 31.39 19.01C31.2896 18.9105 31.2099 18.7921 31.1555 18.6617C31.1011 18.5312 31.0731 18.3913 31.0731 18.25C31.0731 18.1087 31.1011 17.9688 31.1555 17.8383C31.2099 17.7079 31.2896 17.5895 31.39 17.49C31.5916 17.2879 31.8645 17.173 32.15 17.17L32.29 17.19Z" fill="#480076"/>
<path d="M22.54 26.66L22.15 27.05L20.58 25.47L22 24.09C22.144 23.928 22.2206 23.717 22.2142 23.5003C22.2079 23.2837 22.1189 23.0776 21.9656 22.9243C21.8124 22.771 21.6063 22.6821 21.3896 22.6757C21.1729 22.6693 20.962 22.746 20.8 22.89L19.41 24.27L18.41 23.27C18.2495 23.1109 18.0324 23.022 17.8064 23.0229C17.5804 23.0239 17.3641 23.1145 17.205 23.275C17.0458 23.4355 16.957 23.6526 16.9579 23.8785C16.9588 24.1045 17.0495 24.3209 17.21 24.48L18.21 25.48L17.82 25.87C17.2895 26.4004 16.9915 27.1199 16.9915 27.87C16.9915 28.6201 17.2895 29.3396 17.82 29.87C18.3504 30.4004 19.0698 30.6984 19.82 30.6984C20.5701 30.6984 21.2895 30.4004 21.82 29.87L22.21 29.48L23.72 31L22 32.8C21.9134 32.8769 21.8434 32.9708 21.7944 33.0757C21.7454 33.1807 21.7184 33.2946 21.715 33.4103C21.7116 33.5261 21.7319 33.6414 21.7746 33.749C21.8174 33.8567 21.8817 33.9545 21.9636 34.0364C22.0455 34.1183 22.1433 34.1826 22.2509 34.2254C22.3586 34.2681 22.4738 34.2884 22.5896 34.285C22.7054 34.2816 22.8193 34.2545 22.9242 34.2055C23.0292 34.1565 23.123 34.0866 23.2 34L24.98 32.23L25.98 33.23C26.1393 33.3888 26.355 33.4779 26.58 33.4779C26.8049 33.4779 27.0206 33.3888 27.18 33.23C27.261 33.1525 27.3256 33.0594 27.3696 32.9563C27.4137 32.8531 27.4365 32.7422 27.4365 32.63C27.4365 32.5178 27.4137 32.4069 27.3696 32.3037C27.3256 32.2006 27.261 32.1075 27.18 32.03L26.18 31.03L26.57 30.64C26.8326 30.3774 27.0409 30.0656 27.1831 29.7224C27.3252 29.3792 27.3984 29.0114 27.3984 28.64C27.3984 28.2686 27.3252 27.9008 27.1831 27.5576C27.0409 27.2144 26.8326 26.9026 26.57 26.64C26.3073 26.3774 25.9955 26.169 25.6523 26.0269C25.3092 25.8847 24.9414 25.8116 24.57 25.8116C24.1985 25.8116 23.8307 25.8847 23.4876 26.0269C23.1444 26.169 22.8326 26.3774 22.57 26.64L22.54 26.66ZM20.54 28.66C20.4405 28.7847 20.3156 28.8867 20.1736 28.9592C20.0316 29.0317 19.8757 29.073 19.7164 29.0805C19.5571 29.0879 19.3981 29.0612 19.2499 29.0022C19.1018 28.9432 18.9679 28.8533 18.8574 28.7384C18.7468 28.6235 18.662 28.4863 18.6087 28.336C18.5554 28.1857 18.5348 28.0258 18.5483 27.8669C18.5618 27.708 18.6091 27.5538 18.687 27.4147C18.7649 27.2755 18.8716 27.1546 19 27.06L19.39 26.67L21 28.25L20.54 28.66ZM25.3 29.45L24.91 29.84L23.33 28.27L23.72 27.88C23.9281 27.6705 24.2111 27.5522 24.5064 27.5513C24.8018 27.5504 25.0854 27.6668 25.295 27.875C25.5045 28.0832 25.6227 28.3661 25.6236 28.6615C25.6246 28.9568 25.5082 29.2405 25.3 29.45Z" fill="#8124BB"/>
</svg>
