<svg width="48" height="48" viewBox="0 0 48 48" fill="none" xmlns="http://www.w3.org/2000/svg">
<path d="M40.77 39.77L31.77 30.77C33.2361 28.5891 33.8328 25.9385 33.4428 23.3398C33.0528 20.7411 31.7043 18.3824 29.6627 16.7279C27.6211 15.0734 25.0342 14.2429 22.4111 14.3998C19.7879 14.5568 17.3185 15.6898 15.4887 17.5759C13.6589 19.462 12.6012 21.9646 12.5239 24.5913C12.4465 27.218 13.3549 29.7785 15.0705 31.7691C16.7861 33.7596 19.1846 35.036 21.7939 35.3471C24.4033 35.6582 27.0346 34.9814 29.17 33.45L38.08 42.36C38.2493 42.5505 38.4558 42.7044 38.6867 42.8122C38.9176 42.92 39.1681 42.9795 39.4228 42.987C39.6775 42.9945 39.9311 42.9498 40.1679 42.8558C40.4048 42.7617 40.6199 42.6203 40.8001 42.4401C40.9803 42.2599 41.1218 42.0448 41.2158 41.8079C41.3099 41.5711 41.3545 41.3175 41.347 41.0628C41.3395 40.808 41.28 40.5575 41.1722 40.3266C41.0644 40.0957 40.9105 39.8893 40.72 39.72L40.77 39.77ZM28.59 31.45C28.337 31.6706 28.0697 31.8744 27.79 32.06C26.0411 33.2318 23.9212 33.7172 21.8366 33.4231C19.752 33.129 17.8491 32.0762 16.4926 30.4662C15.136 28.8563 14.4211 26.8024 14.4849 24.6981C14.5486 22.5938 15.3865 20.587 16.8379 19.0621C18.2894 17.5372 20.2525 16.6014 22.3511 16.434C24.4497 16.2666 26.5363 16.8794 28.2111 18.1549C29.886 19.4304 31.0314 21.279 31.4279 23.3466C31.8245 25.4142 31.4442 27.5554 30.36 29.36C30.1886 29.6521 29.9982 29.9327 29.79 30.2C29.4344 30.6571 29.0323 31.076 28.59 31.45Z" fill="#480076"/>
<path d="M21.72 29.87C21.7299 29.5911 21.8217 29.3212 21.984 29.0942C22.1463 28.8671 22.372 28.6929 22.6327 28.5934C22.8935 28.4939 23.1778 28.4734 23.4501 28.5345C23.7225 28.5956 23.9707 28.7356 24.1639 28.9371C24.3572 29.1385 24.4867 29.3924 24.5364 29.667C24.5862 29.9417 24.5539 30.2249 24.4435 30.4813C24.3332 30.7377 24.1498 30.9558 23.9162 31.1086C23.6826 31.2613 23.4091 31.3418 23.13 31.34C22.9397 31.3402 22.7513 31.3018 22.5762 31.2272C22.4011 31.1527 22.2429 31.0434 22.1112 30.906C21.9794 30.7687 21.8769 30.6061 21.8096 30.428C21.7424 30.25 21.7119 30.0602 21.72 29.87ZM21.5 21.87L21.45 20.6C21.442 20.3739 21.4794 20.1485 21.5601 19.9372C21.6408 19.7258 21.7632 19.5328 21.9198 19.3696C22.0765 19.2064 22.2644 19.0763 22.4722 18.9871C22.6801 18.8978 22.9038 18.8512 23.13 18.85C23.3567 18.8498 23.581 18.8955 23.7895 18.9842C23.9981 19.073 24.1865 19.2031 24.3434 19.3666C24.5004 19.53 24.6226 19.7236 24.7028 19.9356C24.783 20.1476 24.8195 20.3736 24.81 20.6V21.87L24.41 26.47C24.3873 26.7591 24.2562 27.029 24.043 27.2256C23.8297 27.4222 23.5501 27.5309 23.26 27.53H23.1C22.81 27.5309 22.5304 27.4222 22.3171 27.2256C22.1038 27.029 21.9727 26.7591 21.95 26.47L21.5 21.87Z" fill="#8124BB"/>
<path d="M23.0899 6.19H23.1499C23.3176 6.18868 23.4838 6.22055 23.639 6.28378C23.7943 6.34702 23.9355 6.44035 24.0544 6.55842C24.1734 6.67648 24.2679 6.81693 24.3323 6.97167C24.3968 7.12641 24.43 7.29237 24.4299 7.46V11.18C24.43 11.3476 24.3968 11.5136 24.3323 11.6683C24.2679 11.8231 24.1734 11.9635 24.0544 12.0816C23.9355 12.1996 23.7943 12.293 23.639 12.3562C23.4838 12.4194 23.3176 12.4513 23.1499 12.45H23.0899C22.7531 12.45 22.4301 12.3162 22.1919 12.078C21.9538 11.8399 21.8199 11.5168 21.8199 11.18V7.46C21.8199 7.12317 21.9538 6.80014 22.1919 6.56197C22.4301 6.3238 22.7531 6.19 23.0899 6.19Z" fill="#8124BB"/>
<path d="M28.65 11.76L30 8.31C30.1267 7.9963 30.3725 7.74551 30.6835 7.61247C30.9946 7.47942 31.3457 7.47494 31.66 7.6C31.8158 7.6606 31.958 7.7516 32.0783 7.86771C32.1986 7.98381 32.2946 8.1227 32.3607 8.27626C32.4268 8.42983 32.4616 8.59502 32.4632 8.76219C32.4648 8.92936 32.4331 9.09519 32.37 9.25L30.99 12.7C30.8633 13.0137 30.6176 13.2645 30.3065 13.3975C29.9955 13.5306 29.6444 13.5351 29.33 13.41H29.28C28.9832 13.2685 28.7522 13.0183 28.6349 12.7111C28.5176 12.4039 28.523 12.0633 28.65 11.76Z" fill="#8124BB"/>
<path d="M34.5 15L37 12.29C37.2258 12.0413 37.5409 11.8923 37.8764 11.8754C38.2119 11.8585 38.5404 11.9752 38.79 12.2L38.84 12.25C39.0791 12.473 39.2222 12.7802 39.239 13.1068C39.2558 13.4333 39.145 13.7536 38.93 14L36.43 16.75C36.3173 16.8739 36.1813 16.9743 36.0297 17.0455C35.8781 17.1166 35.7139 17.157 35.5466 17.1645C35.3793 17.1719 35.2122 17.1462 35.0549 17.0888C34.8976 17.0314 34.7532 16.9434 34.63 16.83H34.58C34.4528 16.7162 34.3496 16.5781 34.2765 16.4239C34.2035 16.2697 34.162 16.1024 34.1545 15.9318C34.1471 15.7613 34.1738 15.5911 34.2331 15.431C34.2925 15.271 34.3832 15.1244 34.5 15Z" fill="#8124BB"/>
<path d="M14.5 7.61001H14.56C14.8744 7.48495 15.2255 7.48943 15.5365 7.62248C15.8476 7.75552 16.0933 8.0063 16.22 8.32L17.6 11.77C17.6618 11.925 17.6924 12.0906 17.6901 12.2574C17.6879 12.4241 17.6528 12.5889 17.5868 12.7421C17.5209 12.8953 17.4254 13.034 17.3059 13.1504C17.1863 13.2667 17.045 13.3583 16.89 13.42H16.83C16.6758 13.4834 16.5106 13.5156 16.3439 13.5146C16.1772 13.5137 16.0123 13.4797 15.8589 13.4146C15.7054 13.3495 15.5664 13.2545 15.4498 13.1353C15.3333 13.0161 15.2416 12.8749 15.18 12.72L13.8 9.27001C13.7365 9.11511 13.7042 8.94917 13.705 8.78173C13.7058 8.6143 13.7397 8.44868 13.8047 8.2944C13.8698 8.14012 13.9647 8.00023 14.084 7.88277C14.2034 7.76532 14.3447 7.67262 14.5 7.61001Z" fill="#8124BB"/>
<path d="M7.40002 12.25V12.2C7.65131 11.9746 7.98143 11.8577 8.31855 11.8745C8.65566 11.8914 8.97247 12.0407 9.20002 12.29L11.75 15C11.8635 15.1232 11.9514 15.2676 12.0088 15.4249C12.0662 15.5822 12.0919 15.7493 12.0845 15.9166C12.0771 16.0839 12.0366 16.2481 11.9655 16.3997C11.8943 16.5513 11.7939 16.6873 11.67 16.8H11.62C11.4977 16.9131 11.3541 17.0009 11.1976 17.0581C11.0411 17.1154 10.8748 17.1411 10.7083 17.1336C10.5418 17.1262 10.3785 17.0858 10.2277 17.0148C10.077 16.9438 9.94179 16.8436 9.83002 16.72L7.32002 14C7.10611 13.7538 6.9951 13.4348 7.00999 13.109C7.02489 12.7832 7.16454 12.4756 7.40002 12.25Z" fill="#8124BB"/>
</svg>
