<svg width="48" height="48" viewBox="0 0 48 48" fill="none" xmlns="http://www.w3.org/2000/svg">
<path d="M34.16 26.82L32.16 26.38L26.91 24.6V22.6C26.91 22.3348 26.8046 22.0804 26.6171 21.8929C26.4296 21.7054 26.1752 21.6 25.91 21.6C25.6448 21.6 25.3904 21.7054 25.2029 21.8929C25.0154 22.0804 24.91 22.3348 24.91 22.6V24.78C24.5263 26.2005 23.9187 27.5508 23.11 28.78C22.3013 27.5508 21.6937 26.2005 21.31 24.78V22.64C21.31 22.3748 21.2046 22.1204 21.0171 21.9329C20.8296 21.7454 20.5752 21.64 20.31 21.64C20.0448 21.64 19.7904 21.7454 19.6029 21.9329C19.4154 22.1204 19.31 22.3748 19.31 22.64V24.75L14.54 26.37L12.88 26.69C12.0666 26.8599 11.3363 27.3044 10.8119 27.949C10.2875 28.5936 10.0008 29.399 10 30.23V34.9C10 35.1652 10.1054 35.4196 10.2929 35.6071C10.4804 35.7946 10.7348 35.9 11 35.9V44.83C11 45.0952 11.1054 45.3496 11.2929 45.5371C11.4804 45.7246 11.7348 45.83 12 45.83H35.1C35.3652 45.83 35.6196 45.7246 35.8071 45.5371C35.9946 45.3496 36.1 45.0952 36.1 44.83V36C36.3421 35.9683 36.5642 35.8491 36.7245 35.6649C36.8847 35.4806 36.9721 35.2442 36.97 35V30.34C36.9681 29.5221 36.6894 28.729 36.1791 28.0898C35.6688 27.4506 34.9572 27.003 34.16 26.82ZM13 35.9H14.65V43.83H13V35.9ZM16.65 34.9V32C16.65 31.7348 16.5446 31.4804 16.3571 31.2929C16.1696 31.1054 15.9152 31 15.65 31C15.3848 31 15.1304 31.1054 14.9429 31.2929C14.7554 31.4804 14.65 31.7348 14.65 32V33.9H12V30.23C12.0023 29.8559 12.1341 29.4941 12.3729 29.2061C12.6117 28.9181 12.9428 28.7216 13.31 28.65L15 28.32H15.14L19.82 26.72C20.5196 28.3007 21.3456 29.8223 22.29 31.27C22.3807 31.4104 22.505 31.5257 22.6518 31.6057C22.7985 31.6856 22.9629 31.7274 23.13 31.7274C23.2971 31.7274 23.4615 31.6856 23.6082 31.6057C23.755 31.5257 23.8793 31.4104 23.97 31.27C24.9397 29.7834 25.7826 28.2179 26.49 26.59L31.56 28.32H31.67L33.76 28.77C34.1126 28.8551 34.4265 29.0561 34.6513 29.3407C34.8761 29.6254 34.9989 29.9773 35 30.34V33.9H32.48V32C32.48 31.7348 32.3746 31.4804 32.1871 31.2929C31.9996 31.1054 31.7452 31 31.48 31C31.2148 31 30.9604 31.1054 30.7729 31.2929C30.5854 31.4804 30.48 31.7348 30.48 32V43.83H16.68L16.65 34.9ZM32.45 43.83V36.06H34.1V43.83H32.45Z" fill="#480076"/>
<path d="M34.17 24.72H30.33C30.0647 24.72 29.8104 24.6146 29.6228 24.4271C29.4353 24.2396 29.33 23.9852 29.33 23.72C29.33 23.4548 29.4353 23.2004 29.6228 23.0129C29.8104 22.8254 30.0647 22.72 30.33 22.72H33.17V19.72C33.17 19.4548 33.2753 19.2004 33.4629 19.0129C33.6504 18.8254 33.9047 18.72 34.17 18.72C34.4352 18.72 34.6895 18.8254 34.8771 19.0129C35.0646 19.2004 35.17 19.4548 35.17 19.72V23.72C35.17 23.9852 35.0646 24.2396 34.8771 24.4271C34.6895 24.6146 34.4352 24.72 34.17 24.72Z" fill="#8124BB"/>
<path d="M34.17 8.46C33.9048 8.46 33.6504 8.35464 33.4629 8.1671C33.2753 7.97957 33.17 7.72521 33.17 7.46V4.7H30.36C30.0948 4.7 29.8404 4.59464 29.6529 4.4071C29.4653 4.21957 29.36 3.96521 29.36 3.7C29.36 3.43478 29.4653 3.18043 29.6529 2.99289C29.8404 2.80535 30.0948 2.7 30.36 2.7H34.17C34.4352 2.7 34.6896 2.80535 34.8771 2.99289C35.0646 3.18043 35.17 3.43478 35.17 3.7V7.46C35.17 7.59132 35.1441 7.72135 35.0939 7.84268C35.0436 7.96401 34.9699 8.07424 34.8771 8.1671C34.7842 8.25996 34.674 8.33362 34.5527 8.38388C34.4313 8.43413 34.3013 8.46 34.17 8.46Z" fill="#8124BB"/>
<path d="M12.05 8.46C11.7848 8.46 11.5305 8.35464 11.3429 8.1671C11.1554 7.97957 11.05 7.72521 11.05 7.46V3.7C11.05 3.43478 11.1554 3.18043 11.3429 2.99289C11.5305 2.80535 11.7848 2.7 12.05 2.7H16C16.2653 2.7 16.5196 2.80535 16.7072 2.99289C16.8947 3.18043 17 3.43478 17 3.7C17 3.96521 16.8947 4.21957 16.7072 4.4071C16.5196 4.59464 16.2653 4.7 16 4.7H13.05V7.46C13.05 7.59132 13.0242 7.72135 12.9739 7.84268C12.9237 7.96401 12.85 8.07424 12.7572 8.1671C12.6643 8.25996 12.5541 8.33362 12.4327 8.38388C12.3114 8.43413 12.1814 8.46 12.05 8.46Z" fill="#8124BB"/>
<path d="M16 24.72H12.05C11.7848 24.72 11.5305 24.6146 11.3429 24.4271C11.1554 24.2396 11.05 23.9852 11.05 23.72V19.72C11.05 19.4548 11.1554 19.2004 11.3429 19.0129C11.5305 18.8254 11.7848 18.72 12.05 18.72C12.3153 18.72 12.5696 18.8254 12.7572 19.0129C12.9447 19.2004 13.05 19.4548 13.05 19.72V22.72H16C16.2653 22.72 16.5196 22.8254 16.7072 23.0129C16.8947 23.2004 17 23.4548 17 23.72C17 23.9852 16.8947 24.2396 16.7072 24.4271C16.5196 24.6146 16.2653 24.72 16 24.72Z" fill="#8124BB"/>
<path d="M25.1501 4.32H21.0601C19.557 4.30129 18.1078 4.87914 17.03 5.92693C15.9523 6.97473 15.3338 8.40703 15.3101 9.91V15.17C15.315 15.3842 15.3886 15.5912 15.52 15.7604C15.6514 15.9297 15.8337 16.0522 16.0401 16.11V17.3C16.0533 19.0815 16.7702 20.7856 18.0347 22.0407C19.2991 23.2958 21.0085 24.0001 22.7901 24H23.4301C25.2159 24 26.9287 23.2913 28.1924 22.0294C29.4561 20.7676 30.1674 19.0558 30.1701 17.27V15C30.3799 14.9435 30.5656 14.8203 30.6991 14.6489C30.8326 14.4775 30.9067 14.2672 30.9101 14.05V9.91C30.8864 8.40527 30.2665 6.97144 29.1865 5.92336C28.1066 4.87528 26.6548 4.29862 25.1501 4.32ZM21.0601 6.32H25.1501C26.1244 6.29853 27.0675 6.66445 27.7724 7.33748C28.4773 8.01051 28.8865 8.93568 28.9101 9.91V12.67C23.7401 11.98 22.0901 11.04 21.6201 10.67C21.4443 10.533 21.2279 10.4585 21.0051 10.4585C20.7822 10.4585 20.5658 10.533 20.3901 10.67C19.4245 11.4032 18.3935 12.0459 17.3101 12.59V9.91C17.3337 8.93745 17.7414 8.01382 18.4441 7.34107C19.1469 6.66833 20.0874 6.30121 21.0601 6.32ZM23.4301 22H22.7901C22.1668 22.0066 21.5483 21.8902 20.97 21.6574C20.3917 21.4247 19.8651 21.0802 19.4201 20.6436C18.9752 20.207 18.6208 19.687 18.3771 19.1132C18.1334 18.5395 18.0053 17.9233 18.0001 17.3V14.42C19.0532 13.933 20.0578 13.3471 21.0001 12.67C23.2568 13.7103 25.6751 14.3563 28.1501 14.58V17.3C28.1395 18.5467 27.6383 19.7391 26.7548 20.6188C25.8713 21.4986 24.6768 21.9948 23.4301 22Z" fill="#480076"/>
</svg>
