<svg width="48" height="48" viewBox="0 0 48 48" fill="none" xmlns="http://www.w3.org/2000/svg">
<path d="M6.91002 45.09H3.15002C2.88481 45.09 2.63045 44.9846 2.44292 44.7971C2.25538 44.6096 2.15002 44.3552 2.15002 44.09V33.83C2.15002 33.5648 2.25538 33.3104 2.44292 33.1229C2.63045 32.9354 2.88481 32.83 3.15002 32.83H6.91002C7.17524 32.83 7.42959 32.9354 7.61713 33.1229C7.80467 33.3104 7.91002 33.5648 7.91002 33.83V44.09C7.91002 44.3552 7.80467 44.6096 7.61713 44.7971C7.42959 44.9846 7.17524 45.09 6.91002 45.09ZM4.15002 43.09H5.91002V34.83H4.15002V43.09Z" fill="#480076"/>
<path d="M25.79 27.49H25.57L23.42 27H23.31L17.16 24.91C16.9095 24.8236 16.7035 24.6414 16.5872 24.4033C16.471 24.1652 16.454 23.8906 16.54 23.64C16.5807 23.5142 16.646 23.3976 16.7321 23.2972C16.8181 23.1968 16.9233 23.1144 17.0414 23.0549C17.1595 22.9954 17.2882 22.9599 17.4202 22.9504C17.5521 22.941 17.6846 22.9579 17.81 23L23.9 25.08L26 25.53C26.1313 25.5438 26.2586 25.5833 26.3747 25.6463C26.4907 25.7093 26.5932 25.7945 26.6763 25.8971C26.7594 25.9997 26.8215 26.1177 26.859 26.2443C26.8966 26.3709 26.9088 26.5037 26.895 26.635C26.8812 26.7663 26.8417 26.8936 26.7787 27.0097C26.7157 27.1257 26.6305 27.2282 26.5278 27.3113C26.4252 27.3945 26.3073 27.4565 26.1807 27.4941C26.0541 27.5316 25.9213 27.5438 25.79 27.53V27.49Z" fill="#8124BB"/>
<path d="M23.24 45.09H6.91C6.64478 45.09 6.39043 44.9846 6.20289 44.7971C6.01536 44.6096 5.91 44.3552 5.91 44.09V34.83H2C1.73478 34.83 1.48043 34.7246 1.29289 34.5371C1.10536 34.3496 1 34.0952 1 33.83V29C1.00074 28.1407 1.30054 27.3085 1.84794 26.6461C2.39535 25.9837 3.15623 25.5326 4 25.37L5.71 25.04L11.42 23.1C11.5448 23.056 11.677 23.037 11.809 23.0441C11.9411 23.0512 12.0705 23.0843 12.1899 23.1414C12.3092 23.1985 12.4161 23.2785 12.5045 23.377C12.5929 23.4754 12.661 23.5902 12.705 23.715C12.749 23.8398 12.768 23.972 12.7609 24.104C12.7538 24.2361 12.7207 24.3655 12.6636 24.4849C12.6065 24.6042 12.5265 24.7111 12.428 24.7995C12.3296 24.8879 12.2148 24.956 12.09 25L6.32 27H6.19L4.4 27.35C4.01049 27.4178 3.65709 27.6201 3.40129 27.9216C3.1455 28.223 3.0035 28.6046 3 29V32.82H6.91C7.17522 32.82 7.42957 32.9254 7.61711 33.1129C7.80464 33.3004 7.91 33.5548 7.91 33.82V43.08H23.24C23.5052 43.08 23.7596 43.1854 23.9471 43.3729C24.1346 43.5604 24.24 43.8148 24.24 44.08C24.24 44.3452 24.1346 44.5996 23.9471 44.7871C23.7596 44.9746 23.5052 45.08 23.24 45.08V45.09Z" fill="#8124BB"/>
<path d="M34.4 5.69H30.85C28.8749 5.71112 26.9889 6.51464 25.6054 7.92435C24.2219 9.33407 23.454 11.2349 23.47 13.21V23.47C23.4664 23.5133 23.4664 23.5567 23.47 23.6C23.4662 23.6666 23.4662 23.7334 23.47 23.8C23.496 23.8619 23.526 23.9221 23.56 23.98C23.5761 24.0187 23.5962 24.0555 23.62 24.09C24.666 25.3205 25.9097 26.3682 27.3 27.19C27.5284 27.3212 27.7994 27.357 28.054 27.2896C28.3086 27.2222 28.5264 27.057 28.66 26.83C28.7952 26.6019 28.8343 26.3294 28.7687 26.0725C28.703 25.8156 28.538 25.5953 28.31 25.46C27.2306 24.8188 26.2503 24.0238 25.4 23.1V13.21C25.384 11.7653 25.9412 10.3732 26.9496 9.33852C27.958 8.30387 29.3354 7.71108 30.78 7.69H34.4C35.8446 7.71108 37.222 8.30387 38.2304 9.33852C39.2388 10.3732 39.796 11.7653 39.78 13.21V23C38.9605 23.9134 38.026 24.7168 37 25.39C36.8188 25.507 36.6804 25.6794 36.6052 25.8816C36.5301 26.0837 36.5223 26.3047 36.583 26.5116C36.6438 26.7185 36.7697 26.9003 36.9422 27.0297C37.1147 27.1592 37.3243 27.2294 37.54 27.23C37.7272 27.2306 37.9108 27.1786 38.07 27.08C39.3662 26.2459 40.5407 25.2363 41.56 24.08C41.7244 23.8992 41.8169 23.6644 41.82 23.42V13.21C41.8279 12.2287 41.6421 11.2554 41.2732 10.346C40.9044 9.43657 40.3597 8.60887 39.6704 7.91031C38.9812 7.21174 38.1608 6.65604 37.2564 6.27504C36.352 5.89404 35.3814 5.69523 34.4 5.69Z" fill="#8124BB"/>
<path d="M16.54 3H12.64C11.1953 2.98397 9.80316 3.54119 8.76851 4.5496C7.73387 5.558 7.14108 6.93538 7.12 8.38V12V15.65C7.12666 16.8774 7.46111 18.0808 8.08875 19.1357C8.71638 20.1905 9.61443 21.0586 10.69 21.65V23.43C10.7406 24.4289 11.1731 25.3701 11.898 26.0592C12.6229 26.7483 13.5848 27.1326 14.585 27.1326C15.5852 27.1326 16.5471 26.7483 17.272 26.0592C17.9969 25.3701 18.4294 24.4289 18.48 23.43V21.64C19.5581 21.0507 20.4588 20.1834 21.0883 19.1283C21.7179 18.0731 22.0534 16.8687 22.06 15.64V8.38C22.0389 6.93538 21.4461 5.558 20.4115 4.5496C19.3768 3.54119 17.9847 2.98397 16.54 3ZM16.48 23.41C16.4452 23.8888 16.2304 24.3367 15.8789 24.6636C15.5273 24.9905 15.0651 25.1723 14.585 25.1723C14.1049 25.1723 13.6427 24.9905 13.2911 24.6636C12.9396 24.3367 12.7248 23.8888 12.69 23.41V22.41C13.2025 22.5219 13.7254 22.5789 14.25 22.58H14.93C15.4513 22.5795 15.971 22.5225 16.48 22.41V23.41ZM20.06 15.64C20.0496 16.3009 19.9083 16.9533 19.6443 17.5592C19.3802 18.1652 18.9986 18.7128 18.5215 19.1703C18.0444 19.6279 17.4814 19.9863 16.8649 20.2248C16.2484 20.4633 15.5908 20.5773 14.93 20.56H14.25C13.5892 20.5773 12.9316 20.4633 12.3151 20.2248C11.6986 19.9863 11.1356 19.6279 10.6585 19.1703C10.1814 18.7128 9.7998 18.1652 9.53572 17.5592C9.27165 16.9533 9.13035 16.3009 9.12 15.64V12.82C12.73 12.33 15.32 11.66 16.82 10.82C17.8389 11.5379 18.9238 12.1574 20.06 12.67V15.64ZM20.06 10.11V10.45C19.1533 9.95482 18.2783 9.40376 17.44 8.8C17.266 8.6678 17.0535 8.59623 16.835 8.59623C16.6165 8.59623 16.404 8.6678 16.23 8.8C15.75 9.18 14.11 10.09 9.12 10.8V8.38C9.12909 7.92691 9.22737 7.48006 9.40921 7.06496C9.59105 6.64986 9.85289 6.27465 10.1798 5.96077C10.5067 5.64689 10.8922 5.40049 11.3143 5.23564C11.7364 5.07078 12.1869 4.99071 12.64 5H16.54C17.4534 4.98122 18.3369 5.32547 18.9967 5.95723C19.6566 6.589 20.039 7.45669 20.06 8.37V10.11Z" fill="#480076"/>
<path d="M6.91003 34.83C6.64482 34.83 6.39046 34.7246 6.20293 34.5371C6.01539 34.3496 5.91003 34.0952 5.91003 33.83V30.83C5.91003 30.5648 6.01539 30.3104 6.20293 30.1229C6.39046 29.9354 6.64482 29.83 6.91003 29.83C7.17525 29.83 7.4296 29.9354 7.61714 30.1229C7.80468 30.3104 7.91003 30.5648 7.91003 30.83V33.83C7.91003 34.0952 7.80468 34.3496 7.61714 34.5371C7.4296 34.7246 7.17525 34.83 6.91003 34.83Z" fill="#8124BB"/>
<path d="M43.15 26.85L41.22 26.44L36.29 24.76V23.35C37.2372 22.7777 38.0211 21.971 38.5658 21.0076C39.1106 20.0442 39.3979 18.9567 39.4 17.85V14.76C39.4 14.76 39.4 14.66 39.4 14.61C39.3953 14.5668 39.3953 14.5232 39.4 14.48C39.4 14.14 39.29 13.54 38.32 13.42C33.32 12.77 31.68 11.86 31.24 11.5C31.0642 11.363 30.8478 11.2885 30.625 11.2885C30.4021 11.2885 30.1857 11.363 30.01 11.5C28.9892 12.3261 27.8541 12.9998 26.64 13.5C26.3816 13.5574 26.1565 13.7149 26.014 13.938C25.8716 14.161 25.8234 14.4314 25.88 14.69C25.8752 14.7265 25.8752 14.7635 25.88 14.8V17.89C25.881 18.9958 26.1668 20.0826 26.7097 21.0459C27.2527 22.0092 28.0345 22.8165 28.98 23.39V24.9L24.48 26.43L22.9 26.73C22.1074 26.887 21.3935 27.3133 20.8795 27.9367C20.3655 28.56 20.083 29.3421 20.08 30.15V34.59C20.08 34.8552 20.1853 35.1096 20.3728 35.2971C20.5604 35.4846 20.8147 35.59 21.08 35.59V44C21.08 44.2652 21.1853 44.5196 21.3728 44.7071C21.5604 44.8946 21.8147 45 22.08 45H44.08C44.3452 45 44.5995 44.8946 44.7871 44.7071C44.9746 44.5196 45.08 44.2652 45.08 44V35.71C45.3148 35.6695 45.5274 35.5465 45.6795 35.3632C45.8317 35.1799 45.9134 34.9482 45.91 34.71V30.26C45.9057 29.4626 45.63 28.6905 45.1283 28.0707C44.6267 27.4509 43.9289 27.0204 43.15 26.85ZM27.86 15.14C28.8381 14.6858 29.7693 14.1365 30.64 13.5C32.7762 14.4772 35.0612 15.089 37.4 15.31V17.85C37.3986 18.4357 37.282 19.0154 37.0566 19.556C36.8313 20.0966 36.5017 20.5876 36.0866 21.0008C35.6715 21.414 35.1791 21.7414 34.6375 21.9643C34.0959 22.1873 33.5157 22.3013 32.93 22.3H32.33C31.7443 22.3013 31.164 22.1873 30.6224 21.9643C30.0808 21.7414 29.5884 21.414 29.1733 21.0008C28.7583 20.5876 28.4286 20.0966 28.2033 19.556C27.9779 19.0154 27.8613 18.4357 27.86 17.85V15.14ZM32.33 24.3H32.93C33.3869 24.2995 33.8425 24.2526 34.29 24.16V25C33.9312 26.3041 33.3675 27.5428 32.62 28.67C31.8925 27.5383 31.3459 26.3001 31 25V24.15C31.4366 24.2479 31.8825 24.2982 32.33 24.3ZM23.09 35.59H24.56V43H23.09V35.59ZM26.56 34.59V31.81C26.56 31.5448 26.4546 31.2904 26.2671 31.1029C26.0795 30.9154 25.8252 30.81 25.56 30.81C25.2947 30.81 25.0404 30.9154 24.8528 31.1029C24.6653 31.2904 24.56 31.5448 24.56 31.81V33.59H22.06V30.15C22.0607 29.8066 22.1808 29.4742 22.3998 29.2097C22.6187 28.9451 22.9228 28.765 23.26 28.7L24.9 28.38H25.04L29.45 26.88C30.1176 28.3666 30.8964 29.8007 31.78 31.17C31.8701 31.3125 31.9949 31.4299 32.1427 31.5112C32.2904 31.5926 32.4563 31.6352 32.625 31.6352C32.7936 31.6352 32.9595 31.5926 33.1073 31.5112C33.255 31.4299 33.3798 31.3125 33.47 31.17C34.3787 29.7618 35.1745 28.2838 35.85 26.75L40.63 28.38H40.74L42.74 28.81C43.0689 28.8847 43.3627 29.0688 43.5735 29.3322C43.7842 29.5956 43.8993 29.9227 43.9 30.26V33.59H41.6V31.81C41.6 31.5448 41.4946 31.2904 41.3071 31.1029C41.1195 30.9154 40.8652 30.81 40.6 30.81C40.3347 30.81 40.0804 30.9154 39.8929 31.1029C39.7053 31.2904 39.6 31.5448 39.6 31.81V43H26.6L26.56 34.59ZM41.56 43.04V35.74H43.03V43L41.56 43.04Z" fill="#480076"/>
</svg>
