<svg width="48" height="48" viewBox="0 0 48 48" fill="none" xmlns="http://www.w3.org/2000/svg">
<path d="M28.14 26.53C28.1427 24.4303 28.9779 22.4174 30.4626 20.9326C31.9474 19.4479 33.9603 18.6126 36.06 18.61C36.6147 18.6139 37.1675 18.6742 37.71 18.79V10.79C37.7121 10.5739 37.6481 10.3623 37.5266 10.1835C37.4051 10.0048 37.2318 9.86748 37.03 9.79L22 4.16C21.9468 4.15514 21.8932 4.15514 21.84 4.16C22.1052 4.13878 22.368 4.22379 22.5705 4.39633C22.7731 4.56886 22.8988 4.81478 22.92 5.08C22.9412 5.34522 22.8562 5.608 22.6837 5.81054C22.5111 6.01308 22.2652 6.13878 22 6.16L21.63 6.3V41.44L22.1 41.7C22.2285 41.756 22.3437 41.8384 22.4383 41.9419C22.5328 42.0453 22.6046 42.1674 22.6489 42.3004C22.6932 42.4333 22.7091 42.5741 22.6955 42.7136C22.6819 42.853 22.6391 42.9881 22.57 43.11C22.4421 43.3501 22.2276 43.5325 21.97 43.62C22.0128 43.6298 22.0572 43.6298 22.1 43.62C26.5915 41.2823 30.5697 38.0692 33.8 34.17C32.1576 33.6793 30.7184 32.6697 29.698 31.2924C28.6776 29.915 28.131 28.2441 28.14 26.53Z" fill="#480076"/>
<path d="M21.66 43.69C21.7498 43.6997 21.8403 43.6997 21.93 43.69C21.8403 43.6997 21.7498 43.6997 21.66 43.69Z" fill="#480076"/>
<path d="M22.6 43.11C22.6692 42.9881 22.7119 42.853 22.7255 42.7136C22.7391 42.5741 22.7232 42.4333 22.6789 42.3004C22.6346 42.1674 22.5628 42.0453 22.4683 41.9419C22.3737 41.8384 22.2585 41.756 22.13 41.7L21.66 41.44C19.19 40.09 7.72005 33.27 7.72005 23.89V11.5L21.5001 6.5L22.0001 6C21.0001 6.5 22.8275 6.20254 23.0001 6C23.1726 5.79746 22.9413 5.31522 22.92 5.05C22.8988 4.78478 22.7731 4.53886 22.5706 4.36632C22.368 4.19379 21.84 4.13 21.84 4.13C21.7051 4.07654 21.5549 4.07654 21.42 4.13C21.6007 4.09066 21.551 4.09542 21.26 4.13L6.30005 9.78C6.09827 9.85747 5.92499 9.99478 5.80345 10.1735C5.68191 10.3522 5.61792 10.5639 5.62005 10.78V23.89C5.62005 35.65 20.56 43.26 21.19 43.57C21.233 43.5781 21.2771 43.5781 21.32 43.57H21.4C21.4864 43.5797 21.5736 43.5797 21.66 43.57C21.7498 43.5797 21.8403 43.5797 21.93 43.57H22C22.2494 43.4948 22.4627 43.3312 22.6 43.11Z" fill="#480076"/>
<path d="M37.71 18.79C37.1675 18.6742 36.6147 18.6139 36.06 18.61C34.1507 18.6009 32.3026 19.2828 30.8567 20.5296C29.4108 21.7765 28.4647 23.5043 28.193 25.3942C27.9212 27.2841 28.3423 29.2084 29.3783 30.8122C30.4144 32.4159 31.9955 33.5908 33.83 34.12C34.554 34.3339 35.3051 34.4417 36.06 34.44C38.0176 34.4447 39.9073 33.7234 41.3638 32.4155C42.8204 31.1076 43.7402 29.3061 43.9454 27.3594C44.1507 25.4126 43.6268 23.4589 42.475 21.8761C41.3233 20.2932 39.6255 19.1936 37.71 18.79ZM36.06 32.59C35.6978 32.5874 35.3365 32.5539 34.98 32.49C33.4615 32.2092 32.1096 31.3537 31.2058 30.1015C30.302 28.8493 29.9158 27.2968 30.1276 25.7671C30.3394 24.2374 31.1329 22.8483 32.343 21.8887C33.553 20.9292 35.0864 20.4732 36.6241 20.6156C38.1619 20.7579 39.5855 21.4878 40.5988 22.6532C41.6121 23.8185 42.137 25.3298 42.0643 26.8724C41.9916 28.415 41.327 29.8701 40.2086 30.9351C39.0902 32.0001 37.6043 32.5928 36.06 32.59Z" fill="#8124BB"/>
<path d="M35 29.54C34.7543 29.5342 34.5194 29.438 34.34 29.27L32.5 27.43C32.3266 27.2541 32.2294 27.017 32.2294 26.77C32.2294 26.523 32.3266 26.2859 32.5 26.11C32.6742 25.9372 32.9097 25.8402 33.155 25.8402C33.4004 25.8402 33.6359 25.9372 33.81 26.11L35 27.3L38.4 23.9C38.5742 23.7272 38.8097 23.6302 39.055 23.6302C39.3004 23.6302 39.5358 23.7272 39.71 23.9C39.7981 23.9849 39.8681 24.0866 39.9159 24.1992C39.9637 24.3117 39.9883 24.4327 39.9883 24.555C39.9883 24.6773 39.9637 24.7983 39.9159 24.9108C39.8681 25.0234 39.7981 25.1251 39.71 25.21L35.71 29.27C35.5181 29.4499 35.263 29.5469 35 29.54Z" fill="#8124BB"/>
</svg>
