<svg width="48" height="48" viewBox="0 0 48 48" fill="none" xmlns="http://www.w3.org/2000/svg">
<path d="M27.9999 34.69H13.0699C12.8047 34.69 12.5504 34.5846 12.3628 34.3971C12.1753 34.2096 12.0699 33.9552 12.0699 33.69V29.5C12.0699 29.2348 12.1753 28.9804 12.3628 28.7929C12.5504 28.6054 12.8047 28.5 13.0699 28.5H27.9999C28.2652 28.5 28.5195 28.6054 28.7071 28.7929C28.8946 28.9804 28.9999 29.2348 28.9999 29.5V33.69C28.9999 33.9552 28.8946 34.2096 28.7071 34.3971C28.5195 34.5846 28.2652 34.69 27.9999 34.69ZM14.0599 32.69H26.9999V30.5H14.0699L14.0599 32.69Z" fill="#480076"/>
<path d="M32.29 11.91H8.22998C7.96476 11.91 7.71041 11.8046 7.52287 11.6171C7.33534 11.4296 7.22998 11.1752 7.22998 10.91C7.22998 10.6448 7.33534 10.3904 7.52287 10.2029C7.71041 10.0154 7.96476 9.91 8.22998 9.91H32.29C32.5552 9.91 32.8096 10.0154 32.9971 10.2029C33.1846 10.3904 33.29 10.6448 33.29 10.91C33.29 11.1752 33.1846 11.4296 32.9971 11.6171C32.8096 11.8046 32.5552 11.91 32.29 11.91Z" fill="#480076"/>
<path d="M32.31 38.7H8.25C7.98478 38.7 7.73043 38.5946 7.54289 38.4071C7.35536 38.2196 7.25 37.9652 7.25 37.7C7.25 37.4348 7.35536 37.1804 7.54289 36.9929C7.73043 36.8054 7.98478 36.7 8.25 36.7H32.31C32.5752 36.7 32.8296 36.8054 33.0171 36.9929C33.2046 37.1804 33.31 37.4348 33.31 37.7C33.31 37.9652 33.2046 38.2196 33.0171 38.4071C32.8296 38.5946 32.5752 38.7 32.31 38.7Z" fill="#480076"/>
<path d="M26.2701 8.56H17.8101C17.5448 8.56 17.2905 8.45464 17.103 8.2671C16.9154 8.07957 16.8101 7.82521 16.8101 7.56C16.8101 7.29478 16.9154 7.04043 17.103 6.85289C17.2905 6.66535 17.5448 6.56 17.8101 6.56H26.2701C26.5353 6.56 26.7896 6.66535 26.9772 6.85289C27.1647 7.04043 27.2701 7.29478 27.2701 7.56C27.2701 7.82521 27.1647 8.07957 26.9772 8.2671C26.7896 8.45464 26.5353 8.56 26.2701 8.56Z" fill="#480076"/>
<path d="M24.3099 16.64H13.0699C12.8047 16.64 12.5504 16.5346 12.3628 16.3471C12.1753 16.1596 12.0699 15.9052 12.0699 15.64C12.0699 15.3748 12.1753 15.1204 12.3628 14.9329C12.5504 14.7454 12.8047 14.64 13.0699 14.64H24.3099C24.5752 14.64 24.8295 14.7454 25.0171 14.9329C25.2046 15.1204 25.3099 15.3748 25.3099 15.64C25.3099 15.9052 25.2046 16.1596 25.0171 16.3471C24.8295 16.5346 24.5752 16.64 24.3099 16.64Z" fill="#480076"/>
<path d="M27.7499 21.19H13.0699C12.8047 21.19 12.5504 21.0846 12.3628 20.8971C12.1753 20.7096 12.0699 20.4552 12.0699 20.19C12.0699 19.9248 12.1753 19.6704 12.3628 19.4829C12.5504 19.2954 12.8047 19.19 13.0699 19.19H27.7499C28.0152 19.19 28.2695 19.2954 28.4571 19.4829C28.6446 19.6704 28.7499 19.9248 28.7499 20.19C28.7499 20.4552 28.6446 20.7096 28.4571 20.8971C28.2695 21.0846 28.0152 21.19 27.7499 21.19Z" fill="#480076"/>
<path d="M23.3 41.86H17.3C17.0348 41.86 16.7805 41.7546 16.5929 41.5671C16.4054 41.3796 16.3 41.1252 16.3 40.86C16.3 40.5948 16.4054 40.3404 16.5929 40.1529C16.7805 39.9654 17.0348 39.86 17.3 39.86H23.3C23.5653 39.86 23.8196 39.9654 24.0072 40.1529C24.1947 40.3404 24.3 40.5948 24.3 40.86C24.3 41.1252 24.1947 41.3796 24.0072 41.5671C23.8196 41.7546 23.5653 41.86 23.3 41.86Z" fill="#480076"/>
<path d="M27.6 25.66H16.36C16.0948 25.66 15.8404 25.5546 15.6529 25.3671C15.4653 25.1796 15.36 24.9252 15.36 24.66C15.36 24.3948 15.4653 24.1404 15.6529 23.9529C15.8404 23.7654 16.0948 23.66 16.36 23.66H27.6C27.8652 23.66 28.1196 23.7654 28.3071 23.9529C28.4946 24.1404 28.6 24.3948 28.6 24.66C28.6 24.9252 28.4946 25.1796 28.3071 25.3671C28.1196 25.5546 27.8652 25.66 27.6 25.66Z" fill="#480076"/>
<path d="M31.29 42C31.29 42.3183 31.1636 42.6235 30.9385 42.8485C30.7135 43.0736 30.4082 43.2 30.09 43.2H10.42C10.2629 43.2 10.1073 43.1689 9.96227 43.1085C9.81723 43.048 9.6856 42.9595 9.57497 42.8479C9.46433 42.7364 9.37689 42.604 9.31768 42.4585C9.25847 42.3129 9.22866 42.1571 9.22998 42V6C9.22998 5.68439 9.35535 5.38171 9.57852 5.15854C9.80169 4.93537 10.1044 4.81 10.42 4.81H30.09C30.2471 4.80868 30.4029 4.83848 30.5484 4.89769C30.694 4.95691 30.8263 5.04435 30.9379 5.15498C31.0495 5.26562 31.138 5.39725 31.1985 5.54228C31.2589 5.68732 31.29 5.84288 31.29 6V18.77C31.903 18.3159 32.5761 17.9491 33.29 17.68V6C33.2873 5.15304 32.949 4.34167 32.3492 3.74372C31.7494 3.14576 30.9369 2.80999 30.09 2.81H10.42C9.57394 2.81 8.76255 3.14609 8.16431 3.74433C7.56607 4.34257 7.22998 5.15396 7.22998 6V42C7.22998 42.847 7.56575 43.6594 8.1637 44.2592C8.76166 44.859 9.57302 45.1973 10.42 45.2H30.09C30.9379 45.1974 31.7503 44.8594 32.3498 44.2598C32.9494 43.6603 33.2873 42.8479 33.29 42V32.85C32.5743 32.5849 31.9006 32.2178 31.29 31.76V42Z" fill="#480076"/>
<path d="M36.11 17.17C34.373 17.1707 32.6826 17.7318 31.29 18.77C30.2709 19.5199 29.4424 20.4989 28.8714 21.628C28.3003 22.7571 28.0028 24.0047 28.0028 25.27C28.0028 26.5353 28.3003 27.7829 28.8714 28.912C29.4424 30.0411 30.2709 31.0201 31.29 31.77C31.9007 32.2278 32.5743 32.5949 33.29 32.86C34.191 33.2018 35.1464 33.3779 36.11 33.38C38.2583 33.38 40.3186 32.5266 41.8376 31.0076C43.3566 29.4885 44.21 27.4283 44.21 25.28C44.21 23.1317 43.3566 21.0715 41.8376 19.5524C40.3186 18.0334 38.2583 17.18 36.11 17.18V17.17ZM36.11 31.59C35.1924 31.5877 34.2862 31.3862 33.454 30.9995C32.6218 30.6127 31.8835 30.05 31.29 29.35C30.5278 28.4292 30.0423 27.3111 29.8899 26.1255C29.7375 24.9399 29.9245 23.7354 30.4291 22.6517C30.9338 21.5681 31.7354 20.6498 32.7409 20.0034C33.7465 19.3571 34.9147 19.0091 36.11 19C37.7862 19 39.3937 19.6659 40.579 20.8511C41.7642 22.0363 42.43 23.6438 42.43 25.32C42.43 26.9962 41.7642 28.6037 40.579 29.7889C39.3937 30.9741 37.7862 31.64 36.11 31.64V31.59Z" fill="#8124BB"/>
<path d="M33.29 24.15V23.31C33.2191 23.4386 33.1819 23.5831 33.1819 23.73C33.1819 23.8769 33.2191 24.0214 33.29 24.15Z" fill="#8124BB"/>
<path d="M39.7 27.09H37.05V23.86L37.53 24.34C37.6996 24.4868 37.9185 24.5641 38.1427 24.5565C38.3669 24.5488 38.5799 24.4568 38.7392 24.2988C38.8984 24.1408 38.9921 23.9285 39.0016 23.7044C39.011 23.4802 38.9354 23.2608 38.79 23.09L36.79 21.04C36.6199 20.8776 36.3951 20.7848 36.16 20.78C36.0444 20.7789 35.9298 20.8014 35.8232 20.8461C35.7166 20.8908 35.6202 20.9568 35.54 21.04L33.43 23.1C33.3746 23.1638 33.3276 23.2344 33.29 23.31V24.15C33.3236 24.2279 33.371 24.2991 33.43 24.36C33.5118 24.4425 33.6092 24.5081 33.7164 24.5528C33.8237 24.5975 33.9388 24.6205 34.055 24.6205C34.1712 24.6205 34.2863 24.5975 34.3936 24.5528C34.5008 24.5081 34.5982 24.4425 34.68 24.36L35.27 23.78V27.09H32.51C32.2739 27.09 32.0476 27.1838 31.8807 27.3507C31.7138 27.5176 31.62 27.744 31.62 27.98C31.62 28.216 31.7138 28.4424 31.8807 28.6093C32.0476 28.7762 32.2739 28.87 32.51 28.87H39.7C39.936 28.87 40.1624 28.7762 40.3293 28.6093C40.4962 28.4424 40.59 28.216 40.59 27.98C40.59 27.744 40.4962 27.5176 40.3293 27.3507C40.1624 27.1838 39.936 27.09 39.7 27.09Z" fill="#8124BB"/>
<path d="M27.6 16.69C28.1799 16.69 28.65 16.2199 28.65 15.64C28.65 15.0601 28.1799 14.59 27.6 14.59C27.0202 14.59 26.55 15.0601 26.55 15.64C26.55 16.2199 27.0202 16.69 27.6 16.69Z" fill="#480076"/>
<path d="M13.07 25.71C13.6499 25.71 14.12 25.2399 14.12 24.66C14.12 24.0801 13.6499 23.61 13.07 23.61C12.4901 23.61 12.02 24.0801 12.02 24.66C12.02 25.2399 12.4901 25.71 13.07 25.71Z" fill="#480076"/>
<path d="M14.44 8.60999C15.0199 8.60999 15.49 8.13989 15.49 7.55999C15.49 6.9801 15.0199 6.50999 14.44 6.50999C13.8601 6.50999 13.39 6.9801 13.39 7.55999C13.39 8.13989 13.8601 8.60999 14.44 8.60999Z" fill="#480076"/>
</svg>
