<svg width="48" height="48" viewBox="0 0 48 48" fill="none" xmlns="http://www.w3.org/2000/svg">
<path d="M29.71 34.08C29.8397 34.1686 29.993 34.2159 30.15 34.2159C30.3071 34.2159 30.4604 34.1686 30.59 34.08C30.7404 33.9818 30.8518 33.834 30.9047 33.6623C30.9577 33.4907 30.949 33.3059 30.88 33.14C30.8349 33.0272 30.7639 32.9265 30.6729 32.8459C30.5819 32.7654 30.4733 32.7072 30.3558 32.6761C30.2383 32.6449 30.1152 32.6417 29.9962 32.6666C29.8773 32.6915 29.7658 32.7438 29.6706 32.8194C29.5755 32.8951 29.4993 32.9919 29.4482 33.1022C29.3971 33.2124 29.3725 33.3331 29.3764 33.4546C29.3802 33.5761 29.4124 33.695 29.4703 33.8018C29.5282 33.9087 29.6103 34.0005 29.71 34.07V34.08Z" fill="#480076"/>
<path d="M26.5999 22.85C27.1817 23.2693 27.8829 23.4901 28.5999 23.48C29.2677 23.4798 29.9209 23.2852 30.4799 22.92C31.1287 22.4852 31.6074 21.8397 31.8352 21.0926C32.0629 20.3456 32.0258 19.5428 31.7299 18.82C31.5352 18.3337 31.2299 17.8994 30.838 17.5517C30.4461 17.204 29.9786 16.9525 29.4726 16.817C28.9665 16.6816 28.4358 16.666 27.9227 16.7715C27.4096 16.877 26.9281 17.1006 26.5165 17.4247C26.1049 17.7488 25.7745 18.1644 25.5516 18.6385C25.3287 19.1126 25.2194 19.6321 25.2324 20.1558C25.2453 20.6795 25.3802 21.193 25.6263 21.6554C25.8723 22.1179 26.2228 22.5167 26.6499 22.82L26.5999 22.85ZM27.2399 19.73C27.3199 19.4585 27.4802 19.2177 27.6998 19.0391C27.9194 18.8606 28.1879 18.7528 28.4699 18.73H28.5599C28.8326 18.7327 29.0987 18.8145 29.3259 18.9653C29.5531 19.1162 29.7316 19.3297 29.8399 19.58C29.9586 19.8747 29.9727 20.2012 29.8799 20.5051C29.7871 20.8089 29.593 21.0718 29.3299 21.25C29.0955 21.4047 28.8194 21.4842 28.5385 21.4778C28.2577 21.4714 27.9854 21.3794 27.7583 21.2142C27.5311 21.049 27.3597 20.8183 27.2671 20.5531C27.1745 20.2879 27.165 20.0007 27.2399 19.73Z" fill="#8124BB"/>
<path d="M14.33 24.4H6.67004C6.40483 24.4 6.15047 24.5054 5.96294 24.6929C5.7754 24.8804 5.67004 25.1348 5.67004 25.4V30.66C5.67004 30.9252 5.7754 31.1796 5.96294 31.3671C6.15047 31.5546 6.40483 31.66 6.67004 31.66H14.33C14.5953 31.66 14.8496 31.5546 15.0372 31.3671C15.2247 31.1796 15.33 30.9252 15.33 30.66V25.4C15.33 25.1348 15.2247 24.8804 15.0372 24.6929C14.8496 24.5054 14.5953 24.4 14.33 24.4ZM13.33 29.66H11.5V30.66C11.5 30.9252 11.3947 31.1796 11.2072 31.3671C11.0196 31.5546 10.7653 31.66 10.5 31.66C10.2348 31.66 9.98047 31.5546 9.79294 31.3671C9.6054 31.1796 9.50004 30.9252 9.50004 30.66V29.66H7.67004V26.4H9.50004V25.4C9.50004 25.1348 9.6054 24.8804 9.79294 24.6929C9.98047 24.5054 10.2348 24.4 10.5 24.4C10.7653 24.4 11.0196 24.5054 11.2072 24.6929C11.3947 24.8804 11.5 25.1348 11.5 25.4V26.4H13.33V29.66Z" fill="#480076"/>
<path d="M11.5 25.41C11.5 25.1448 11.3946 24.8904 11.2071 24.7029C11.0196 24.5154 10.7652 24.41 10.5 24.41C10.2348 24.41 9.98043 24.5154 9.79289 24.7029C9.60536 24.8904 9.5 25.1448 9.5 25.41V30.64C9.5 30.9052 9.60536 31.1596 9.79289 31.3471C9.98043 31.5346 10.2348 31.64 10.5 31.64C10.7652 31.64 11.0196 31.5346 11.2071 31.3471C11.3946 31.1596 11.5 30.9052 11.5 30.64V25.41Z" fill="#480076"/>
<path d="M47.77 20.22L45.35 11.61C45.2895 11.3937 45.158 11.2041 44.9766 11.0716C44.7952 10.9392 44.5745 10.8717 44.35 10.88H31.93L28.84 7.66C28.7467 7.56322 28.6349 7.48624 28.5112 7.43365C28.3875 7.38107 28.2544 7.35397 28.12 7.35397C27.9856 7.35397 27.8526 7.38107 27.7288 7.43365C27.6051 7.48624 27.4933 7.56322 27.4 7.66L24.31 10.88H3.61001C3.38557 10.8717 3.16486 10.9392 2.98345 11.0716C2.80205 11.2041 2.6705 11.3937 2.61001 11.61L0.230014 20.22C0.200347 20.3517 0.200347 20.4883 0.230014 20.62V20.73C0.261747 20.9721 0.380957 21.1942 0.565167 21.3545C0.749377 21.5147 0.985856 21.6021 1.23001 21.6H3.00001V40.09C3.00001 40.3552 3.10537 40.6096 3.29291 40.7971C3.48044 40.9846 3.7348 41.09 4.00001 41.09H17.4C17.1348 41.09 16.8804 40.9846 16.6929 40.7971C16.5054 40.6096 16.4 40.3552 16.4 40.09V39.09H5.00001V21.6H16.4V19.53C16.4 19.2648 16.5054 19.0104 16.6929 18.8229C16.8804 18.6354 17.1348 18.53 17.4 18.53C17.6652 18.53 17.9196 18.6354 18.1071 18.8229C18.2947 19.0104 18.4 19.2648 18.4 19.53V19.93L28.12 9.8L38.18 20.28V20.23C38.18 19.9648 38.2854 19.7104 38.4729 19.5229C38.6604 19.3354 38.9148 19.23 39.18 19.23C39.4452 19.23 39.6996 19.3354 39.8871 19.5229C40.0747 19.7104 40.18 19.9648 40.18 20.23V21.6H42.81V39.09H40.18V39.78C40.18 40.0452 40.0747 40.2996 39.8871 40.4871C39.6996 40.6746 39.4452 40.78 39.18 40.78C38.9148 40.78 38.6604 40.6746 38.4729 40.4871C38.2854 40.2996 38.18 40.0452 38.18 39.78V39.09H33.48V26.45C33.48 26.1848 33.3747 25.9304 33.1871 25.7429C32.9996 25.5554 32.7452 25.45 32.48 25.45H23.76C23.4948 25.45 23.2404 25.5554 23.0529 25.7429C22.8654 25.9304 22.76 26.1848 22.76 26.45V39.09H18.4V40.09C18.4 40.3552 18.2947 40.6096 18.1071 40.7971C17.9196 40.9846 17.6652 41.09 17.4 41.09H43.81C44.0752 41.09 44.3296 40.9846 44.5171 40.7971C44.7047 40.6096 44.81 40.3552 44.81 40.09V21.6H46.81C47.0542 21.6021 47.2907 21.5147 47.4749 21.3545C47.6591 21.1942 47.7783 20.9721 47.81 20.73V20.62C47.8267 20.4854 47.813 20.3487 47.77 20.22ZM15.94 19.6H2.48001L4.37001 12.88H22.37L15.94 19.6ZM31.48 38.78H24.76V27.45H31.48V38.78ZM40.3 19.6L33.84 12.88H43.63L45.52 19.6H40.3Z" fill="#480076"/>
<path d="M18.4 40.09V19.53C18.4 19.2648 18.2947 19.0104 18.1071 18.8229C17.9196 18.6354 17.6652 18.53 17.4 18.53C17.1348 18.53 16.8805 18.6354 16.6929 18.8229C16.5054 19.0104 16.4 19.2648 16.4 19.53V40.09C16.4 40.3552 16.5054 40.6096 16.6929 40.7971C16.8805 40.9846 17.1348 41.09 17.4 41.09C17.6652 41.09 17.9196 40.9846 18.1071 40.7971C18.2947 40.6096 18.4 40.3552 18.4 40.09Z" fill="#480076"/>
<path d="M38.1801 39.78C38.1801 40.0452 38.2854 40.2996 38.4729 40.4871C38.6605 40.6746 38.9148 40.78 39.1801 40.78C39.4453 40.78 39.6996 40.6746 39.8872 40.4871C40.0747 40.2996 40.1801 40.0452 40.1801 39.78V20.23C40.1801 19.9648 40.0747 19.7104 39.8872 19.5229C39.6996 19.3354 39.4453 19.23 39.1801 19.23C38.9148 19.23 38.6605 19.3354 38.4729 19.5229C38.2854 19.7104 38.1801 19.9648 38.1801 20.23V39.78Z" fill="#480076"/>
</svg>
