<svg width="48" height="48" viewBox="0 0 48 48" fill="none" xmlns="http://www.w3.org/2000/svg">
<path d="M10.43 26.29V21.05C10.4248 20.6705 10.4943 20.2936 10.6347 19.941C10.775 19.5883 10.9835 19.2668 11.2481 18.9947C11.5128 18.7226 11.8285 18.5053 12.1771 18.3552C12.5257 18.2052 12.9005 18.1252 13.28 18.12H15.17C15.9331 18.1358 16.6588 18.4527 17.189 19.0016C17.7192 19.5506 18.0108 20.2869 18 21.05V26.23C17.6072 26.6509 17.1715 27.0296 16.7 27.36L17.91 27.77C18.2679 27.4621 18.6022 27.1278 18.91 26.77C18.9936 26.6725 19.0397 26.5484 19.04 26.42V21.05C19.0403 20.0045 18.6313 19.0005 17.9005 18.2529C17.1697 17.5053 16.1752 17.0735 15.13 17.05H13.28C12.2349 17.0735 11.2404 17.5053 10.5096 18.2529C9.77883 19.0005 9.36978 20.0045 9.37005 21.05V26.48C9.36412 26.503 9.36412 26.527 9.37005 26.55C9.36534 26.5865 9.36534 26.6235 9.37005 26.66C9.38286 26.692 9.39966 26.7222 9.42005 26.75C9.42005 26.75 9.42005 26.8 9.42005 26.82C9.72363 27.1818 10.0582 27.5164 10.42 27.82L11.66 27.39C11.2081 27.0731 10.7952 26.7039 10.43 26.29Z" fill="#8124BB"/>
<path d="M21.2601 30.08C21.2586 29.6599 21.1143 29.2528 20.8508 28.9257C20.5872 28.5985 20.2202 28.3708 19.8101 28.28L18.8101 28.06L17.9501 27.77L16.7401 27.36L16.1901 27.17V26.41C16.6905 26.1085 17.105 25.6834 17.394 25.1756C17.6829 24.6678 17.8365 24.0942 17.8401 23.51V21.87C17.8401 21.87 17.8401 21.81 17.8401 21.79C17.8401 21.77 17.8401 21.74 17.8401 21.72C17.8401 21.54 17.7801 21.22 17.2701 21.15C14.5901 20.81 13.7501 20.33 13.5101 20.15C13.4171 20.0778 13.3027 20.0387 13.1851 20.0387C13.0674 20.0387 12.953 20.0778 12.8601 20.15C12.3181 20.5859 11.715 20.9397 11.0701 21.2C10.9338 21.2311 10.8153 21.3147 10.7404 21.4327C10.6655 21.5507 10.6402 21.6935 10.6701 21.83C10.6701 21.83 10.6701 21.83 10.6701 21.89V23.53C10.6716 24.1135 10.8233 24.6867 11.1105 25.1946C11.3977 25.7025 11.8108 26.128 12.3101 26.43V27.26L11.8101 27.43L10.5701 27.86L9.93006 28.08L9.09006 28.24C8.67097 28.3114 8.28955 28.5258 8.01063 28.8467C7.73171 29.1675 7.5725 29.575 7.56006 30V32.38V33.23H21.2601V32.44V30.08ZM11.7001 22.08C12.2172 21.8385 12.7095 21.5471 13.1701 21.21C14.3048 21.7262 15.5185 22.0474 16.7601 22.16V23.52C16.7574 24.1468 16.5066 24.7471 16.0624 25.1894C15.6182 25.6317 15.0169 25.88 14.3901 25.88H14.0701C13.4432 25.88 12.8419 25.6317 12.3977 25.1894C11.9536 24.7471 11.7027 24.1468 11.7001 23.52V22.08ZM14.0701 26.94H14.3901C14.6322 26.9387 14.8735 26.9119 15.1101 26.86V27.31C14.9157 27.9971 14.619 28.6511 14.2301 29.25C13.8351 28.6531 13.5349 27.9987 13.3401 27.31V26.86C13.5803 26.9085 13.825 26.9319 14.0701 26.93V26.94ZM9.26006 29.26L10.1301 29.09H10.2001L12.5501 28.29C12.8922 29.0847 13.3038 29.8477 13.7801 30.57C13.8295 30.644 13.8964 30.7046 13.9749 30.7465C14.0534 30.7883 14.1411 30.8102 14.2301 30.81C14.3179 30.8113 14.4045 30.7898 14.4816 30.7478C14.5587 30.7057 14.6236 30.6445 14.6701 30.57C15.1579 29.8268 15.5827 29.0441 15.9401 28.23L18.4701 29.09H18.5301L19.5301 29.32C19.7048 29.3566 19.8616 29.452 19.9745 29.5904C20.0873 29.7287 20.1493 29.9015 20.1501 30.08V32H19.0001V30.9C19.0001 30.7594 18.9442 30.6246 18.8448 30.5252C18.7454 30.4258 18.6106 30.37 18.4701 30.37C18.3295 30.37 18.1947 30.4258 18.0953 30.5252C17.9959 30.6246 17.9401 30.7594 17.9401 30.9V32H11.0001V30.9C11.0001 30.7594 10.9442 30.6246 10.8448 30.5252C10.7454 30.4258 10.6106 30.37 10.4701 30.37C10.3295 30.37 10.1947 30.4258 10.0953 30.5252C9.9959 30.6246 9.94006 30.7594 9.94006 30.9V32H8.62006V30C8.62631 29.8221 8.6932 29.6518 8.80961 29.5172C8.92603 29.3826 9.08497 29.2918 9.26006 29.26Z" fill="#480076"/>
<path d="M35.6 21.23H24.13C23.8648 21.23 23.6104 21.1246 23.4229 20.9371C23.2354 20.7496 23.13 20.4952 23.13 20.23C23.13 19.9648 23.2354 19.7104 23.4229 19.5229C23.6104 19.3354 23.8648 19.23 24.13 19.23H35.6C35.8652 19.23 36.1196 19.3354 36.3071 19.5229C36.4946 19.7104 36.6 19.9648 36.6 20.23C36.6 20.4952 36.4946 20.7496 36.3071 20.9371C36.1196 21.1246 35.8652 21.23 35.6 21.23Z" fill="#8124BB"/>
<path d="M39.44 27.16H24.13C23.8648 27.16 23.6104 27.0546 23.4229 26.8671C23.2354 26.6796 23.13 26.4252 23.13 26.16C23.13 25.8948 23.2354 25.6404 23.4229 25.4529C23.6104 25.2654 23.8648 25.16 24.13 25.16H39.44C39.7052 25.16 39.9596 25.2654 40.1471 25.4529C40.3346 25.6404 40.44 25.8948 40.44 26.16C40.44 26.4252 40.3346 26.6796 40.1471 26.8671C39.9596 27.0546 39.7052 27.16 39.44 27.16Z" fill="#8124BB"/>
<path d="M39.44 33H24.13C23.8648 33 23.6104 32.8946 23.4229 32.7071C23.2354 32.5196 23.13 32.2652 23.13 32C23.13 31.7348 23.2354 31.4804 23.4229 31.2929C23.6104 31.1054 23.8648 31 24.13 31H39.44C39.7052 31 39.9596 31.1054 40.1471 31.2929C40.3346 31.4804 40.44 31.7348 40.44 32C40.44 32.2652 40.3346 32.5196 40.1471 32.7071C39.9596 32.8946 39.7052 33 39.44 33Z" fill="#8124BB"/>
<path d="M35.6 30.09H24.13C23.8648 30.09 23.6104 29.9846 23.4229 29.7971C23.2354 29.6096 23.13 29.3552 23.13 29.09C23.13 28.8248 23.2354 28.5704 23.4229 28.3829C23.6104 28.1954 23.8648 28.09 24.13 28.09H35.6C35.8652 28.09 36.1196 28.1954 36.3071 28.3829C36.4946 28.5704 36.6 28.8248 36.6 29.09C36.6 29.3552 36.4946 29.6096 36.3071 29.7971C36.1196 29.9846 35.8652 30.09 35.6 30.09Z" fill="#8124BB"/>
<path d="M43.54 9.88H31.48V8.63C31.48 8.36478 31.3746 8.11043 31.1871 7.92289C30.9995 7.73536 30.7452 7.63 30.48 7.63H17.48C17.2147 7.63 16.9604 7.73536 16.7729 7.92289C16.5853 8.11043 16.48 8.36478 16.48 8.63V9.88H4.45996C4.19474 9.88 3.94039 9.98536 3.75285 10.1729C3.56532 10.3604 3.45996 10.6148 3.45996 10.88V37.36C3.45996 37.6252 3.56532 37.8796 3.75285 38.0671C3.94039 38.2546 4.19474 38.36 4.45996 38.36H43.54C43.8052 38.36 44.0595 38.2546 44.2471 38.0671C44.4346 37.8796 44.54 37.6252 44.54 37.36V10.88C44.54 10.6148 44.4346 10.3604 44.2471 10.1729C44.0595 9.98536 43.8052 9.88 43.54 9.88ZM18.54 9.63H29.54V12.12H18.54V9.63ZM42.54 36.36H5.45996V11.88H16.52V13.12C16.52 13.3852 16.6253 13.6396 16.8129 13.8271C17.0004 14.0146 17.2547 14.12 17.52 14.12H30.52C30.7852 14.12 31.0395 14.0146 31.2271 13.8271C31.4146 13.6396 31.52 13.3852 31.52 13.12V11.88H42.54V36.36Z" fill="#480076"/>
</svg>
