<svg width="48" height="48" viewBox="0 0 48 48" fill="none" xmlns="http://www.w3.org/2000/svg">
<path d="M25.6099 44.55C22.8469 44.5611 20.1109 44.006 17.5707 42.919C15.0304 41.8321 12.7398 40.2363 10.8399 38.23C10.6225 38.0006 10.505 37.6942 10.5135 37.3782C10.5219 37.0622 10.6555 36.7625 10.8849 36.545C11.1144 36.3275 11.4208 36.2101 11.7368 36.2185C12.0528 36.227 12.3525 36.3606 12.5699 36.59C14.2418 38.3574 16.2576 39.7641 18.4932 40.7237C20.7288 41.6833 23.1371 42.1755 25.5699 42.17C29.13 42.17 32.6101 41.1143 35.5702 39.1365C38.5303 37.1586 40.8374 34.3474 42.1998 31.0583C43.5622 27.7692 43.9186 24.15 43.2241 20.6584C42.5295 17.1667 40.8152 13.9594 38.2979 11.4421C35.7805 8.92474 32.5732 7.2104 29.0816 6.51587C25.5899 5.82133 21.9707 6.17779 18.6816 7.54017C15.3926 8.90255 12.5814 11.2097 10.6035 14.1697C8.62563 17.1298 7.56994 20.6099 7.56994 24.17C7.56994 24.4856 7.44457 24.7883 7.2214 25.0115C6.99823 25.2346 6.69555 25.36 6.37994 25.36C6.06434 25.36 5.76165 25.2346 5.53849 25.0115C5.31532 24.7883 5.18994 24.4856 5.18994 24.17C5.18797 20.1348 6.38272 16.1897 8.6231 12.8336C10.8635 9.47757 14.0488 6.86129 17.7763 5.31573C21.5037 3.77017 25.6058 3.36476 29.5637 4.15077C33.5215 4.93677 37.1574 6.8789 40.0114 9.73149C42.8654 12.5841 44.8093 16.219 45.5972 20.1765C46.3852 24.134 45.9818 28.2362 44.438 31.9644C42.8943 35.6926 40.2796 38.8793 36.9246 41.1213C33.5696 43.3633 29.6251 44.56 25.5899 44.56L25.6099 44.55Z" fill="#480076"/>
<path d="M6.42 26.75C6.26379 26.7502 6.1091 26.7193 5.9649 26.6592C5.82071 26.5991 5.68988 26.511 5.58 26.4L2.08 22.93C1.85772 22.7069 1.73291 22.4049 1.73291 22.09C1.73291 21.7751 1.85772 21.473 2.08 21.25C2.30475 21.0271 2.60846 20.902 2.925 20.902C3.24153 20.902 3.54525 21.0271 3.77 21.25L6.42 23.88L9 21.22C9.11031 21.109 9.2414 21.0209 9.38577 20.9606C9.53015 20.9003 9.685 20.869 9.84146 20.8685C9.99793 20.8681 10.153 20.8984 10.2977 20.9579C10.4424 21.0173 10.574 21.1047 10.685 21.215C10.796 21.3253 10.8841 21.4564 10.9444 21.6008C11.0047 21.7452 11.036 21.9 11.0365 22.0565C11.0369 22.2129 11.0066 22.368 10.9471 22.5127C10.8877 22.6574 10.8003 22.789 10.69 22.9L7.26 26.4C7.03681 26.6224 6.73509 26.7481 6.42 26.75Z" fill="#480076"/>
<path d="M21.18 32.42C20.4183 30.9829 20.033 29.3763 20.06 27.75C20.107 26.3238 20.7177 24.9744 21.7581 23.9978C22.7985 23.0211 24.1837 22.4969 25.61 22.54C27.0364 22.4969 28.4216 23.0211 29.462 23.9978C30.5024 24.9744 31.113 26.3238 31.16 27.75C31.16 27.8677 31.1834 27.9843 31.2287 28.0929C31.2741 28.2016 31.3405 28.3001 31.4242 28.3829C31.5079 28.4657 31.6072 28.531 31.7164 28.5751C31.8255 28.6193 31.9423 28.6413 32.06 28.64C32.1764 28.64 32.2917 28.6169 32.3991 28.5721C32.5065 28.5272 32.604 28.4615 32.6859 28.3787C32.7677 28.296 32.8323 28.1978 32.8759 28.0898C32.9196 27.9819 32.9414 27.8664 32.94 27.75C32.8955 25.85 32.0984 24.0454 30.7239 22.7328C29.3494 21.4203 27.5101 20.7071 25.61 20.75C23.71 20.7071 21.8706 21.4203 20.4962 22.7328C19.1217 24.0454 18.3246 25.85 18.28 27.75C18.2531 29.6844 18.7176 31.5941 19.63 33.3C20.2965 34.5422 21.1574 35.6697 22.18 36.64C22.3462 36.8096 22.5726 36.9066 22.81 36.91C22.9255 36.91 23.0397 36.8869 23.1462 36.8423C23.2526 36.7977 23.3491 36.7323 23.43 36.65C23.6017 36.4771 23.6987 36.2437 23.7 36C23.7008 35.883 23.6781 35.767 23.6335 35.6588C23.5889 35.5506 23.5231 35.4524 23.44 35.37C22.5306 34.5168 21.7671 33.5202 21.18 32.42Z" fill="#8124BB"/>
<path d="M18.38 15.31C18.5275 15.3127 18.6729 15.2747 18.8 15.2C20.8921 14.061 23.2381 13.4693 25.62 13.48C28.0083 13.464 30.3605 14.0633 32.45 15.22C32.6609 15.3274 32.9058 15.3467 33.1308 15.2735C33.3559 15.2004 33.5426 15.0408 33.65 14.83C33.7575 14.6192 33.7767 14.3743 33.7036 14.1492C33.6304 13.9242 33.4709 13.7374 33.26 13.63C30.9066 12.36 28.2743 11.6951 25.6 11.6951C22.9258 11.6951 20.2935 12.36 17.94 13.63C17.7668 13.7252 17.6302 13.8753 17.5518 14.0567C17.4733 14.2381 17.4575 14.4405 17.5068 14.6319C17.556 14.8233 17.6676 14.9929 17.8239 15.1139C17.9803 15.2348 18.1724 15.3003 18.37 15.3L18.38 15.31Z" fill="#8124BB"/>
<path d="M25.57 17.72C23.5849 17.7088 21.6364 18.2536 19.945 19.2928C18.2536 20.332 16.887 21.8241 16 23.6C15.3999 24.9001 15.0992 26.3183 15.12 27.75C15.1286 29.4589 15.4436 31.1524 16.05 32.75C16.1322 32.9715 16.2991 33.1512 16.5138 33.2496C16.7285 33.3481 16.9736 33.3572 17.195 33.275C17.4165 33.1928 17.5962 33.026 17.6947 32.8112C17.7931 32.5965 17.8022 32.3515 17.72 32.13C17.1788 30.723 16.9041 29.2275 16.91 27.72C16.8849 26.5549 17.1243 25.3993 17.61 24.34C18.3531 22.8593 19.4968 21.617 20.9111 20.7543C22.3254 19.8916 23.9535 19.4431 25.61 19.46C27.8668 19.398 30.0563 20.2322 31.6997 21.78C33.3432 23.3279 34.3069 25.4636 34.38 27.72C34.3262 28.3007 34.0574 28.8404 33.6264 29.2332C33.1954 29.6261 32.6332 29.8439 32.05 29.8439C31.4668 29.8439 30.9047 29.6261 30.4737 29.2332C30.0427 28.8404 29.7739 28.3007 29.72 27.72C29.72 26.63 29.287 25.5846 28.5162 24.8138C27.7455 24.043 26.7001 23.61 25.61 23.61C24.52 23.61 23.4746 24.043 22.7038 24.8138C21.933 25.5846 21.5 26.63 21.5 27.72C21.4954 28.9654 21.7389 30.1993 22.2162 31.3496C22.6935 32.4999 23.3951 33.5437 24.28 34.42C25.5625 35.7553 27.2003 36.6956 29 37.13C29.0859 37.1467 29.1742 37.1467 29.26 37.13C29.4539 37.1318 29.6428 37.0689 29.7968 36.9511C29.9508 36.8334 30.061 36.6676 30.11 36.48C30.1715 36.2533 30.1407 36.0114 30.0246 35.8073C29.9085 35.6031 29.7163 35.4531 29.49 35.39C27.9722 35.0411 26.5849 34.2677 25.49 33.16C24.7739 32.4471 24.2062 31.5992 23.82 30.6654C23.4338 29.7316 23.2367 28.7305 23.24 27.72C23.2788 27.1297 23.5406 26.5763 23.9723 26.1719C24.4041 25.7676 24.9735 25.5426 25.565 25.5426C26.1566 25.5426 26.726 25.7676 27.1577 26.1719C27.5895 26.5763 27.8513 27.1297 27.89 27.72C27.89 28.81 28.323 29.8554 29.0938 30.6262C29.8646 31.397 30.91 31.83 32 31.83C33.0901 31.83 34.1355 31.397 34.9062 30.6262C35.677 29.8554 36.11 28.81 36.11 27.72C36.0289 24.9994 34.8753 22.4213 32.9008 20.548C30.9263 18.6746 28.2911 17.6581 25.57 17.72Z" fill="#8124BB"/>
<path d="M36.94 20.41C35.7028 18.672 34.0671 17.2558 32.17 16.28C30.1335 15.2663 27.8897 14.7388 25.615 14.7388C23.3402 14.7388 21.0964 15.2663 19.06 16.28C17.1539 17.2645 15.514 18.6951 14.28 20.45C14.2129 20.5458 14.1654 20.654 14.1402 20.7682C14.115 20.8824 14.1125 21.0004 14.1329 21.1156C14.1534 21.2308 14.1963 21.3408 14.2593 21.4393C14.3223 21.5379 14.404 21.6231 14.5 21.69C14.6506 21.7921 14.828 21.8477 15.01 21.85C15.1521 21.8496 15.2921 21.8159 15.4189 21.7517C15.5457 21.6874 15.6556 21.5944 15.74 21.48C16.8078 19.9571 18.2282 18.7151 19.88 17.86C21.6638 16.9745 23.6284 16.5138 25.62 16.5138C27.6115 16.5138 29.5761 16.9745 31.36 17.86C33.0061 18.7059 34.4231 19.9377 35.49 21.45C35.6355 21.6067 35.8325 21.7057 36.045 21.729C36.2576 21.7523 36.4714 21.6984 36.6474 21.577C36.8234 21.4556 36.9498 21.2749 37.0035 21.068C37.0573 20.861 37.0347 20.6417 36.94 20.45V20.41Z" fill="#8124BB"/>
<path d="M33 32.7C32.5842 32.7756 32.1627 32.8158 31.74 32.82C31.0562 32.8427 30.3748 32.7288 29.7354 32.4852C29.0961 32.2416 28.5118 31.873 28.0165 31.401C27.5212 30.929 27.1249 30.363 26.8508 29.7361C26.5767 29.1093 26.4303 28.4341 26.42 27.75C26.42 27.514 26.3262 27.2876 26.1593 27.1207C25.9924 26.9538 25.7661 26.86 25.53 26.86C25.294 26.86 25.0676 26.9538 24.9007 27.1207C24.7338 27.2876 24.64 27.514 24.64 27.75C24.651 28.879 24.9373 29.9882 25.474 30.9815C26.0108 31.9748 26.7817 32.8221 27.72 33.45C28.9075 34.2266 30.3014 34.6273 31.72 34.6C32.2463 34.5969 32.7715 34.5501 33.29 34.46C33.5234 34.4215 33.732 34.2919 33.8698 34.0997C34.0076 33.9075 34.0635 33.6684 34.025 33.435C33.9866 33.2016 33.857 32.9931 33.6647 32.8552C33.4725 32.7174 33.2334 32.6615 33 32.7Z" fill="#8124BB"/>
</svg>
