<svg width="48" height="48" viewBox="0 0 48 48" fill="none" xmlns="http://www.w3.org/2000/svg">
<path d="M27.35 21C29.5699 20.1277 31.4157 18.5078 32.5688 16.4199C33.7219 14.332 34.11 11.9071 33.6661 9.56359C33.2222 7.2201 31.9741 5.10509 30.1373 3.58354C28.3005 2.062 25.9902 1.22939 23.605 1.22939C21.2198 1.22939 18.9095 2.062 17.0727 3.58354C15.2359 5.10509 13.9878 7.2201 13.5439 9.56359C13.1 11.9071 13.4881 14.332 14.6412 16.4199C15.7943 18.5078 17.6401 20.1277 19.86 21V42.77C19.9096 43.7298 20.3258 44.6339 21.0227 45.2956C21.7196 45.9574 22.644 46.3264 23.605 46.3264C24.5661 46.3264 25.4904 45.9574 26.1873 45.2956C26.8842 44.6339 27.3004 43.7298 27.35 42.77V42.65H32.53V37.51H30.66V36.51H32.53V31.19H27.35V21ZM21.86 33.2H25.35V40.66H21.86V33.2ZM15.37 11.47C15.37 9.83986 15.8535 8.24634 16.7594 6.89106C17.6653 5.53578 18.9528 4.47965 20.459 3.85628C21.9653 3.23291 23.6226 3.07031 25.2212 3.38907C26.8199 3.70782 28.2881 4.4936 29.4401 5.64698C30.5921 6.80037 31.3761 8.26953 31.6929 9.86859C32.0097 11.4677 31.8451 13.1248 31.2199 14.6302C30.5947 16.1357 29.537 17.422 28.1806 18.3262C26.8243 19.2304 25.2302 19.712 23.6 19.71C21.4164 19.7073 19.323 18.838 17.7799 17.293C16.2368 15.748 15.37 13.6537 15.37 11.47ZM23.6 21.71C24.1869 21.7077 24.7724 21.6542 25.35 21.55V31.19H21.86V21.55C22.4343 21.6537 23.0165 21.7073 23.6 21.71ZM23.6 44.51C23.1385 44.51 22.696 44.3267 22.3696 44.0004C22.0433 43.674 21.86 43.2315 21.86 42.77V42.65H25.35V42.77C25.35 42.9993 25.3047 43.2264 25.2166 43.4382C25.1285 43.6499 24.9995 43.8422 24.8368 44.0039C24.6742 44.1656 24.4812 44.2936 24.2689 44.3804C24.0567 44.4673 23.8293 44.5113 23.6 44.51ZM27.48 33.19H30.53V34.53H28.66V39.53H30.53V40.67H27.48V33.19Z" fill="#480076"/>
<path d="M27.67 15.25V11.25C27.8855 11.2882 28.1075 11.2547 28.3021 11.1547C28.4967 11.0546 28.6531 10.8934 28.7473 10.6959C28.8415 10.4984 28.8683 10.2755 28.8237 10.0613C28.779 9.84704 28.6653 9.65339 28.5 9.51L24.29 6C24.1096 5.84772 23.8811 5.76418 23.645 5.76418C23.4089 5.76418 23.1804 5.84772 23 6L18.7 9.57C18.5958 9.65414 18.5096 9.75834 18.4464 9.87644C18.3833 9.99453 18.3445 10.1241 18.3324 10.2575C18.3202 10.3909 18.335 10.5253 18.3758 10.6529C18.4167 10.7804 18.4827 10.8985 18.57 11C18.664 11.1129 18.7818 11.2037 18.9149 11.2659C19.0479 11.3281 19.1931 11.3602 19.34 11.36C19.4032 11.3656 19.4668 11.3656 19.53 11.36V15.3C19.53 15.5652 19.6354 15.8196 19.8229 16.0071C20.0104 16.1946 20.2648 16.3 20.53 16.3H26.67C26.8056 16.3002 26.9399 16.2727 27.0646 16.2194C27.1893 16.166 27.3019 16.0879 27.3954 15.9897C27.4889 15.8914 27.5615 15.7752 27.6087 15.6481C27.6559 15.5209 27.6768 15.3855 27.67 15.25ZM25.67 14.25H24.8V12.54C24.7167 12.2917 24.5574 12.0759 24.3448 11.923C24.1322 11.7701 23.8769 11.6878 23.615 11.6878C23.3531 11.6878 23.0978 11.7701 22.8852 11.923C22.6726 12.0759 22.5134 12.2917 22.43 12.54V14.25H21.55V9.93C21.55 9.93 21.55 9.87 21.55 9.84L23.69 8.08L25.74 9.76C25.7352 9.81656 25.7352 9.87344 25.74 9.93L25.67 14.25Z" fill="#8124BB"/>
</svg>
