<svg width="48" height="48" viewBox="0 0 48 48" fill="none" xmlns="http://www.w3.org/2000/svg">
<path d="M23.63 31.59C23.4437 31.5913 23.2606 31.5405 23.1016 31.4433C22.9426 31.3461 22.8139 31.2064 22.73 31.04C22.04 29.65 19.78 25.04 19.78 23.36C19.78 23.0948 19.8854 22.8404 20.0729 22.6529C20.2605 22.4653 20.5148 22.36 20.78 22.36C21.0452 22.36 21.2996 22.4653 21.4871 22.6529C21.6747 22.8404 21.78 23.0948 21.78 23.36C22.1972 25.0682 22.8183 26.7201 23.63 28.28C24.4355 26.7184 25.0531 25.0669 25.47 23.36C25.47 23.0948 25.5754 22.8404 25.7629 22.6529C25.9505 22.4653 26.2048 22.36 26.47 22.36C26.7352 22.36 26.9896 22.4653 27.1771 22.6529C27.3647 22.8404 27.47 23.0948 27.47 23.36C27.47 25 25.21 29.65 24.52 31.04C24.4369 31.2049 24.3098 31.3436 24.1527 31.4407C23.9956 31.5377 23.8147 31.5894 23.63 31.59Z" fill="#480076"/>
<path d="M24 24.42H23.36C21.5521 24.42 19.8178 23.7032 18.5375 22.4266C17.2572 21.1501 16.5353 19.418 16.53 17.61V14.31C16.53 14.0448 16.6354 13.7904 16.8229 13.6029C17.0105 13.4154 17.2648 13.31 17.53 13.31C17.7952 13.31 18.0496 13.4154 18.2371 13.6029C18.4247 13.7904 18.53 14.0448 18.53 14.31V17.61C18.5313 18.243 18.6573 18.8695 18.9008 19.4538C19.1442 20.0381 19.5003 20.5687 19.9488 21.0153C20.3973 21.462 20.9294 21.8159 21.5147 22.0569C22.1 22.2979 22.7271 22.4213 23.36 22.42H24C25.2776 22.42 26.5031 21.9139 27.4083 21.0124C28.3135 20.1109 28.8247 18.8875 28.83 17.61V14.31C28.83 14.0448 28.9354 13.7904 29.1229 13.6029C29.3105 13.4154 29.5648 13.31 29.83 13.31C30.0952 13.31 30.3496 13.4154 30.5371 13.6029C30.7247 13.7904 30.83 14.0448 30.83 14.31V17.61C30.8247 19.418 30.1028 21.1501 28.8225 22.4266C27.5422 23.7032 25.808 24.42 24 24.42Z" fill="#480076"/>
<path d="M21.81 23.7C21.7754 23.5721 21.7157 23.4524 21.6344 23.3478C21.5531 23.2432 21.4518 23.1558 21.3364 23.0907C21.2211 23.0255 21.0939 22.984 20.9623 22.9684C20.8308 22.9528 20.6974 22.9636 20.57 23L13.2 25.28C12.3795 25.4518 11.6428 25.9001 11.1131 26.5499C10.5834 27.1997 10.2929 28.0116 10.29 28.85V30.71C10.29 30.9752 10.3954 31.2296 10.5829 31.4171C10.7705 31.6046 11.0248 31.71 11.29 31.71C11.5553 31.71 11.8096 31.6046 11.9971 31.4171C12.1847 31.2296 12.29 30.9752 12.29 30.71V28.85C12.2906 28.4675 12.4248 28.0972 12.6695 27.8032C12.9142 27.5092 13.254 27.31 13.63 27.24H13.73L16.26 26.47L15 27.67C14.8962 27.7686 14.8149 27.8885 14.7614 28.0213C14.7079 28.1541 14.6836 28.2969 14.69 28.44C14.6966 28.5834 14.7339 28.7237 14.7994 28.8514C14.865 28.9791 14.9573 29.0911 15.07 29.18L18.86 32.18C19.039 32.3143 19.2563 32.3878 19.48 32.39C19.6891 32.3914 19.8934 32.3273 20.0641 32.2067C20.2348 32.086 20.3635 31.9149 20.4319 31.7173C20.5003 31.5197 20.5051 31.3057 20.4456 31.1053C20.3861 30.9049 20.2652 30.7282 20.1 30.6L17.22 28.34L20.6 25.15L21.19 24.97C21.4406 24.8836 21.6466 24.7014 21.7628 24.4633C21.8791 24.2251 21.896 23.9506 21.81 23.7Z" fill="#480076"/>
<path d="M34.92 25.42L26.76 22.91C26.5067 22.8319 26.2328 22.8575 25.9984 22.9813C25.764 23.1051 25.5883 23.3168 25.51 23.57C25.4319 23.8233 25.4575 24.0972 25.5813 24.3316C25.705 24.566 25.9168 24.7417 26.17 24.82L26.51 24.92C26.5265 24.9522 26.5466 24.9824 26.57 25.01L30.06 28.31L27.49 30.31C27.2794 30.4706 27.1411 30.7082 27.1054 30.9707C27.0698 31.2332 27.1398 31.4991 27.3 31.71C27.3931 31.8342 27.5139 31.935 27.6528 32.0044C27.7916 32.0739 27.9447 32.11 28.1 32.11C28.3175 32.1071 28.5281 32.0334 28.7 31.9L32.21 29.24C32.3246 29.1521 32.4188 29.0405 32.4861 28.9127C32.5534 28.785 32.5923 28.6442 32.6 28.5C32.6079 28.3553 32.5843 28.2106 32.5308 28.0759C32.4773 27.9412 32.3951 27.8198 32.29 27.72L30.78 26.29L34.41 27.41C34.7761 27.4895 35.1043 27.6912 35.3406 27.982C35.5769 28.2728 35.7072 28.6353 35.71 29.01V30.93C35.71 31.1952 35.8153 31.4496 36.0029 31.6371C36.1904 31.8246 36.4448 31.93 36.71 31.93C36.9752 31.93 37.2296 31.8246 37.4171 31.6371C37.6046 31.4496 37.71 31.1952 37.71 30.93V29C37.7192 28.1755 37.4482 27.3723 36.9413 26.7219C36.4344 26.0715 35.7218 25.6125 34.92 25.42Z" fill="#480076"/>
<path d="M35.81 11.12C35.7458 10.9074 35.6126 10.7223 35.4316 10.5937C35.2505 10.4652 35.0318 10.4005 34.81 10.41H31.7L31.43 8.03001C31.36 7.47001 31.32 6.93001 31.28 6.44001C31.13 4.38001 30.96 2.05001 27.8 1.90001C27.3268 1.91648 26.8623 2.03071 26.4354 2.23551C26.0086 2.44032 25.6288 2.73125 25.32 3.09001L25.24 3.18001C25.0601 3.47137 24.818 3.71931 24.531 3.90603C24.244 4.09276 23.9192 4.21364 23.58 4.26001C23.2072 4.19472 22.8535 4.04792 22.5441 3.83012C22.2347 3.61231 21.9772 3.32886 21.79 3.00001L21.7 2.89001C21.3827 2.56329 21.0012 2.30578 20.5796 2.13368C20.1579 1.96158 19.7052 1.87862 19.25 1.89001C16.18 2.04001 16.05 4.29001 15.94 6.28001C15.94 6.82001 15.87 7.40001 15.79 8.04001L15.52 10.4H12.42C12.1981 10.3905 11.9794 10.4552 11.7983 10.5837C11.6173 10.7123 11.4842 10.8974 11.42 11.11C11.3599 11.317 11.3684 11.5379 11.444 11.7397C11.5197 11.9416 11.6586 12.1135 11.84 12.23C15.3938 14.3876 19.4534 15.5706 23.61 15.66C27.7718 15.5729 31.8376 14.3935 35.4 12.24C35.5795 12.1221 35.7164 11.9495 35.7902 11.7478C35.8641 11.5461 35.871 11.326 35.81 11.12ZM17.81 8.32001C17.89 7.64001 17.93 7.01001 17.96 6.44001C18.09 4.20001 18.21 3.98001 19.32 3.93001C19.4905 3.92284 19.6608 3.95014 19.8206 4.01028C19.9804 4.07042 20.1264 4.16215 20.25 4.28001C20.6068 4.85781 21.0975 5.3412 21.6806 5.68931C22.2637 6.03743 22.922 6.24004 23.6 6.28001C24.2435 6.25824 24.8724 6.08141 25.433 5.76455C25.9936 5.44769 26.4694 5.00016 26.82 4.46001C27.0703 4.15665 27.429 3.96292 27.82 3.92001C29.03 3.98001 29.17 4.23001 29.35 6.61001C29.35 7.13001 29.43 7.70001 29.51 8.29001L29.75 10.44H23.66H17.56L17.81 8.32001ZM23.66 13.67C21.387 13.6423 19.1352 13.2298 17 12.45H23.66H30.31C28.1686 13.2324 25.9097 13.6449 23.63 13.67H23.66Z" fill="#480076"/>
<path d="M35.71 47.22H12.29C12.0473 47.2224 11.8121 47.1365 11.6281 46.9782C11.4441 46.82 11.324 46.6003 11.29 46.36L9.29999 31.5C9.2814 31.3582 9.29343 31.2141 9.33529 31.0773C9.37715 30.9405 9.44785 30.8143 9.54263 30.7072C9.63741 30.6001 9.75407 30.5146 9.88472 30.4564C10.0154 30.3983 10.157 30.3688 10.3 30.37H37.71C37.853 30.3688 37.9946 30.3983 38.1253 30.4564C38.2559 30.5146 38.3726 30.6001 38.4674 30.7072C38.5621 30.8143 38.6328 30.9405 38.6747 31.0773C38.7166 31.2141 38.7286 31.3582 38.71 31.5L36.71 46.36C36.676 46.6003 36.5559 46.82 36.3719 46.9782C36.1879 47.1365 35.9526 47.2224 35.71 47.22ZM13.17 45.22H34.83L36.56 32.37H11.44L13.17 45.22Z" fill="#8124BB"/>
<path d="M23.5599 39.89C24.4491 39.89 25.17 39.1692 25.17 38.28C25.17 37.3908 24.4491 36.67 23.5599 36.67C22.6708 36.67 21.95 37.3908 21.95 38.28C21.95 39.1692 22.6708 39.89 23.5599 39.89Z" fill="#8124BB"/>
</svg>
