<svg width="48" height="48" viewBox="0 0 48 48" fill="none" xmlns="http://www.w3.org/2000/svg">
<path d="M26.21 3H23C21.2036 3.01848 19.4879 3.74919 18.2298 5.03167C16.9717 6.31415 16.274 8.04353 16.29 9.84V19.16C16.29 19.16 16.29 19.23 16.29 19.27C16.2843 19.3332 16.2843 19.3968 16.29 19.46C16.3101 19.5183 16.3406 19.5725 16.38 19.62C16.38 19.62 16.38 19.7 16.38 19.73C17.3262 20.8518 18.4555 21.8053 19.72 22.55C19.8615 22.6264 20.0193 22.6676 20.18 22.67C20.3394 22.6698 20.496 22.6283 20.6345 22.5494C20.773 22.4705 20.8886 22.357 20.97 22.22C21.0947 22.0248 21.1393 21.7891 21.0946 21.5619C21.0499 21.3347 20.9193 21.1334 20.73 21C19.7502 20.4155 18.8608 19.6912 18.09 18.85V9.85C18.0897 8.54276 18.6014 7.28738 19.5154 6.3528C20.4294 5.41821 21.6731 4.87876 22.98 4.85H26.21C27.517 4.87876 28.7606 5.41821 29.6747 6.3528C30.5887 7.28738 31.1003 8.54276 31.1 9.85V18.73C30.3436 19.5662 29.4833 20.3022 28.54 20.92C28.3791 21.0256 28.2557 21.1796 28.1878 21.3597C28.1199 21.5398 28.1108 21.7369 28.1619 21.9225C28.213 22.1081 28.3217 22.2727 28.4723 22.3927C28.6229 22.5126 28.8077 22.5817 29 22.59C29.1727 22.5864 29.3415 22.5382 29.49 22.45C30.6766 21.6789 31.7473 20.7429 32.67 19.67C32.8196 19.5061 32.9017 19.2918 32.9 19.07V9.84C32.9161 8.04695 32.2211 6.32057 30.9673 5.03866C29.7135 3.75676 28.003 3.02373 26.21 3Z" fill="#8124BB"/>
<path d="M35.75 30.33C35.5086 30.33 35.2772 30.2341 35.1065 30.0635C34.9359 29.8928 34.84 29.6613 34.84 29.42V25.34C34.8431 25.0291 34.7396 24.7266 34.5467 24.4828C34.3538 24.2389 34.0832 24.0686 33.78 24L32 23.63H31.9L26.75 21.88C26.6289 21.8488 26.5155 21.7929 26.4169 21.7159C26.3183 21.6389 26.2367 21.5424 26.1771 21.4324C26.1175 21.3224 26.0812 21.2013 26.0705 21.0767C26.0598 20.9521 26.0749 20.8266 26.1148 20.708C26.1548 20.5895 26.2188 20.4805 26.3028 20.3878C26.3868 20.2951 26.489 20.2207 26.603 20.1693C26.717 20.1178 26.8405 20.0905 26.9655 20.0889C27.0906 20.0873 27.2147 20.1115 27.33 20.16L32.44 21.89L34.19 22.27C34.8938 22.4301 35.5229 22.8236 35.9749 23.3863C36.4269 23.9491 36.6754 24.6482 36.68 25.37V29.45C36.6722 29.6896 36.5701 29.9164 36.3959 30.0812C36.2218 30.246 35.9897 30.3354 35.75 30.33Z" fill="#480076"/>
<path d="M14.08 30.23C13.8387 30.23 13.6072 30.1341 13.4366 29.9635C13.2659 29.7928 13.17 29.5613 13.17 29.32V25.24C13.1726 24.5044 13.4301 23.7923 13.8987 23.2253C14.3673 22.6582 15.0181 22.2711 15.74 22.13L17.17 21.86L21.94 20.23C22.1748 20.1518 22.4309 20.17 22.6522 20.2806C22.8735 20.3913 23.0418 20.5853 23.12 20.82C23.1983 21.0547 23.1801 21.3109 23.0694 21.5322C22.9588 21.7535 22.7648 21.9218 22.53 22L17.7 23.6H17.57L16.08 23.89C15.7705 23.9531 15.4929 24.1228 15.2956 24.3694C15.0983 24.6161 14.9937 24.9242 15 25.24V29.32C15.0001 29.4404 14.9762 29.5595 14.9298 29.6706C14.8835 29.7816 14.8155 29.8824 14.73 29.967C14.6444 30.0517 14.5429 30.1185 14.4314 30.1636C14.3198 30.2088 14.2004 30.2313 14.08 30.23Z" fill="#480076"/>
<path d="M24.6 26.55C24.4476 26.5516 24.2972 26.5149 24.1627 26.4433C24.0281 26.3716 23.9137 26.2674 23.83 26.14C23.23 25.2 21.26 22.01 21.26 20.56V18.67C21.26 18.4286 21.3559 18.1972 21.5265 18.0265C21.6972 17.8559 21.9287 17.76 22.17 17.76C22.4114 17.76 22.6428 17.8559 22.8135 18.0265C22.9841 18.1972 23.08 18.4286 23.08 18.67V20.56C23.4134 21.7412 23.926 22.8643 24.6 23.89C25.2722 22.8646 25.7815 21.7413 26.11 20.56V18.67C26.11 18.4286 26.2059 18.1972 26.3765 18.0265C26.5472 17.8559 26.7787 17.76 27.02 17.76C27.2614 17.76 27.4928 17.8559 27.6635 18.0265C27.8341 18.1972 27.93 18.4286 27.93 18.67V20.56C27.93 22.01 25.93 25.2 25.36 26.14C25.2779 26.2666 25.1652 26.3705 25.0324 26.4421C24.8996 26.5137 24.7509 26.5508 24.6 26.55Z" fill="#480076"/>
<path d="M24.8699 19.92H24.3199C22.7639 19.92 21.2713 19.3033 20.1692 18.2049C19.0671 17.1065 18.4452 15.616 18.4399 14.06V11.24C18.4399 10.9987 18.5358 10.7672 18.7065 10.5965C18.8771 10.4259 19.1086 10.33 19.3499 10.33C19.5913 10.33 19.8228 10.4259 19.9934 10.5965C20.1641 10.7672 20.2599 10.9987 20.2599 11.24V14.06C20.2731 15.1272 20.707 16.146 21.4672 16.895C22.2275 17.6441 23.2527 18.0627 24.3199 18.06H24.8699C25.9372 18.0627 26.9624 17.6441 27.7226 16.895C28.4829 16.146 28.9168 15.1272 28.9299 14.06V11.24C28.9299 10.9987 29.0258 10.7672 29.1965 10.5965C29.3671 10.4259 29.5986 10.33 29.8399 10.33C30.0813 10.33 30.3127 10.4259 30.4834 10.5965C30.6541 10.7672 30.7499 10.9987 30.7499 11.24V14.06C30.7446 15.616 30.1228 17.1065 29.0207 18.2049C27.9185 19.3033 26.426 19.92 24.8699 19.92Z" fill="#480076"/>
<path d="M19.35 11.86C19.1251 11.8601 18.9082 11.7769 18.741 11.6265C18.5739 11.4761 18.4683 11.2691 18.4447 11.0455C18.4211 10.8219 18.4811 10.5975 18.6132 10.4155C18.7453 10.2335 18.9401 10.1069 19.16 10.06C20.2617 9.61126 21.2925 9.00493 22.22 8.26C22.3784 8.13592 22.5738 8.0685 22.775 8.0685C22.9762 8.0685 23.1716 8.13592 23.33 8.26C23.74 8.59 25.18 9.41 29.78 10C30.66 10.12 30.78 10.66 30.78 11C30.77 11.2292 30.6738 11.4463 30.5106 11.6076C30.3474 11.7689 30.1293 11.8626 29.9 11.87H29.69H29.57C27.2368 11.6881 24.953 11.1027 22.82 10.14C21.8363 10.8895 20.7391 11.4769 19.57 11.88L19.35 11.86Z" fill="#480076"/>
<path d="M18.17 30.19C17.9287 30.19 17.6972 30.0941 17.5265 29.9235C17.3559 29.7528 17.26 29.5213 17.26 29.28V26.75C17.26 26.5086 17.3559 26.2772 17.5265 26.1065C17.6972 25.9359 17.9287 25.84 18.17 25.84C18.4114 25.84 18.6428 25.9359 18.8135 26.1065C18.9841 26.2772 19.08 26.5086 19.08 26.75V29.28C19.08 29.5213 18.9841 29.7528 18.8135 29.9235C18.6428 30.0941 18.4114 30.19 18.17 30.19Z" fill="#480076"/>
<path d="M31.8401 30.19C31.5987 30.19 31.3672 30.0941 31.1966 29.9235C31.0259 29.7528 30.9301 29.5213 30.9301 29.28V26.75C30.9301 26.5086 31.0259 26.2772 31.1966 26.1065C31.3672 25.9359 31.5987 25.84 31.8401 25.84C32.0814 25.84 32.3129 25.9359 32.4835 26.1065C32.6542 26.2772 32.7501 26.5086 32.7501 26.75V29.28C32.7501 29.5213 32.6542 29.7528 32.4835 29.9235C32.3129 30.0941 32.0814 30.19 31.8401 30.19Z" fill="#480076"/>
<path d="M35.28 44.09H14.58C14.3567 44.0889 14.1417 44.0058 13.9757 43.8564C13.8098 43.707 13.7045 43.5019 13.68 43.28L12.11 29.52C12.0953 29.3929 12.1072 29.264 12.1451 29.1418C12.183 29.0195 12.246 28.9065 12.33 28.81C12.4166 28.7159 12.5217 28.6407 12.6387 28.5891C12.7557 28.5375 12.8821 28.5106 13.01 28.51H36.85C36.9766 28.5108 37.1017 28.538 37.2172 28.5898C37.3327 28.6417 37.4362 28.7171 37.5209 28.8112C37.6056 28.9053 37.6697 29.0161 37.7092 29.1364C37.7486 29.2568 37.7625 29.384 37.75 29.51L36.18 43.28C36.1555 43.5019 36.0502 43.707 35.8843 43.8564C35.7183 44.0058 35.5033 44.0889 35.28 44.09ZM15.39 42.27H34.47L35.83 30.33H14L15.39 42.27Z" fill="#480076"/>
<path d="M24.9299 37.91C25.8191 37.91 26.5399 37.1892 26.5399 36.3C26.5399 35.4108 25.8191 34.69 24.9299 34.69C24.0408 34.69 23.3199 35.4108 23.3199 36.3C23.3199 37.1892 24.0408 37.91 24.9299 37.91Z" fill="#8124BB"/>
</svg>
