<svg width="48" height="48" viewBox="0 0 48 48" fill="none" xmlns="http://www.w3.org/2000/svg">
<path d="M40.67 22L36.82 18.75V3.92999C36.82 3.66478 36.7146 3.41042 36.5271 3.22289C36.3396 3.03535 36.0852 2.92999 35.82 2.92999H12.23C11.9648 2.92999 11.7104 3.03535 11.5229 3.22289C11.3354 3.41042 11.23 3.66478 11.23 3.92999V15.14C11.925 15.2972 12.5971 15.5425 13.23 15.87V4.92999H34.82V19.07C34.8051 19.1594 34.8051 19.2506 34.82 19.34V27.2L24.49 32.59L15.77 28.31C15.3116 28.8621 14.7839 29.3528 14.2 29.77L24.06 34.61C24.1996 34.6803 24.3537 34.717 24.51 34.717C24.6663 34.717 24.8204 34.6803 24.96 34.61L36.17 28.75H36.27L39 27.25V43.07H9V31.29C8.32098 31.2605 7.64868 31.1429 7 30.94V44.07C7 44.3352 7.10536 44.5896 7.29289 44.7771C7.48043 44.9646 7.73478 45.07 8 45.07H40C40.2652 45.07 40.5196 44.9646 40.7071 44.7771C40.8946 44.5896 41 44.3352 41 44.07V22.76C41.0025 22.6171 40.9743 22.4753 40.9174 22.3442C40.8605 22.2131 40.7761 22.0957 40.67 22ZM36.82 26.16V21.36L39 23.22V25L36.82 26.16Z" fill="#480076"/>
<path d="M17.8 11.44H30.25C30.5232 11.44 30.7852 11.3315 30.9783 11.1383C31.1715 10.9452 31.28 10.6832 31.28 10.41C31.28 10.1368 31.1715 9.87485 30.9783 9.68168C30.7852 9.48852 30.5232 9.38 30.25 9.38H17.8C17.5268 9.38 17.2649 9.48852 17.0717 9.68168C16.8785 9.87485 16.77 10.1368 16.77 10.41C16.77 10.6832 16.8785 10.9452 17.0717 11.1383C17.2649 11.3315 17.5268 11.44 17.8 11.44Z" fill="#480076"/>
<path d="M30.25 16.69H17.8C17.5348 16.69 17.2805 16.7954 17.0929 16.9829C16.9054 17.1704 16.8 17.4248 16.8 17.69C16.8 17.9552 16.9054 18.2096 17.0929 18.3971C17.2805 18.5846 17.5348 18.69 17.8 18.69H30.25C30.5153 18.69 30.7696 18.5846 30.9572 18.3971C31.1447 18.2096 31.25 17.9552 31.25 17.69C31.25 17.4248 31.1447 17.1704 30.9572 16.9829C30.7696 16.7954 30.5153 16.69 30.25 16.69Z" fill="#480076"/>
<path d="M16.81 15.09H31.24C31.5132 15.09 31.7752 14.9815 31.9683 14.7883C32.1615 14.5952 32.27 14.3332 32.27 14.06C32.27 13.7868 32.1615 13.5248 31.9683 13.3317C31.7752 13.1385 31.5132 13.03 31.24 13.03H16.81C16.5369 13.03 16.2749 13.1385 16.0817 13.3317C15.8885 13.5248 15.78 13.7868 15.78 14.06C15.78 14.3332 15.8885 14.5952 16.0817 14.7883C16.2749 14.9815 16.5369 15.09 16.81 15.09Z" fill="#480076"/>
<path d="M30.25 26.05C30.5232 26.05 30.7852 25.9415 30.9784 25.7483C31.1715 25.5552 31.28 25.2932 31.28 25.02C31.28 24.7468 31.1715 24.4848 30.9784 24.2917C30.7852 24.0985 30.5232 23.99 30.25 23.99H17.8C17.7234 23.9852 17.6466 23.9852 17.57 23.99C17.501 24.5969 17.3635 25.194 17.16 25.77C17.3406 25.9191 17.5659 26.0036 17.8 26.01L30.25 26.05Z" fill="#480076"/>
<path d="M32.27 21.37C32.27 21.1048 32.1646 20.8504 31.9771 20.6629C31.7896 20.4754 31.5352 20.37 31.27 20.37H17.13C17.3654 21.0323 17.5199 21.7206 17.59 22.42H31.24C31.3781 22.4243 31.5157 22.4 31.6439 22.3485C31.7722 22.297 31.8884 22.2194 31.9852 22.1208C32.0819 22.0221 32.1572 21.9044 32.2062 21.7752C32.2553 21.646 32.277 21.508 32.27 21.37Z" fill="#480076"/>
<path d="M9.42996 31.32C11.1437 31.3196 12.8134 30.7771 14.2 29.77C15.6016 28.7915 16.653 27.3896 17.2 25.77C17.3891 25.1957 17.5132 24.602 17.57 24C17.6021 23.6977 17.6188 23.394 17.62 23.09C17.62 22.85 17.62 22.61 17.62 22.36C17.5498 21.6606 17.3954 20.9723 17.16 20.31C16.4567 18.3895 15.0674 16.7972 13.26 15.84C12.6271 15.5125 11.955 15.2672 11.26 15.11C9.16077 14.5451 6.92315 14.8372 5.03935 15.9221C3.15555 17.007 1.77987 18.7958 1.21496 20.895C0.650051 22.9942 0.942177 25.2318 2.02707 27.1156C3.11197 28.9994 4.90077 30.3751 6.99996 30.94C7.64864 31.1429 8.32094 31.2605 8.99996 31.29L9.42996 31.32ZM3.23996 23.12C3.24261 21.4791 3.89562 19.9062 5.05589 18.7459C6.21617 17.5857 7.78909 16.9327 9.42996 16.93C10.8091 16.93 12.1478 17.3951 13.23 18.25C13.9137 18.7801 14.4784 19.448 14.8872 20.2105C15.2961 20.973 15.5401 21.8129 15.6032 22.6758C15.6664 23.5386 15.5474 24.4051 15.254 25.219C14.9606 26.0329 14.4992 26.776 13.9 27.4C13.6702 27.6383 13.4229 27.8589 13.16 28.06C12.8464 28.2941 12.5116 28.4983 12.16 28.67H12.05C11.2289 29.0635 10.3304 29.2685 9.41996 29.27H8.95996C7.39842 29.1655 5.93571 28.4687 4.87071 27.322C3.80572 26.1752 3.21883 24.665 3.22996 23.1L3.23996 23.12Z" fill="#8124BB"/>
<path d="M9.00001 25.62C9.68382 26.0569 10.4384 26.3716 11.23 26.55C11.47 26.6 11.71 26.64 11.96 26.67H12.05C12.1384 26.6639 12.2257 26.6472 12.31 26.62C12.5001 26.564 12.6671 26.4481 12.786 26.2895C12.9049 26.1309 12.9695 25.9382 12.97 25.74V24.74C12.9902 24.5025 12.9184 24.2664 12.7696 24.0804C12.6207 23.8943 12.4061 23.7724 12.17 23.74C11.8765 23.702 11.588 23.6316 11.31 23.53H11.23C11.0716 23.4842 10.9038 23.4813 10.7439 23.5218C10.584 23.5622 10.4377 23.6444 10.32 23.76L10.06 24.03C9.68938 23.7781 9.35321 23.4789 9.06001 23.14C8.85179 22.9248 8.66429 22.6904 8.50001 22.44L8.77001 22.18C8.89882 22.052 8.98734 21.8891 9.02466 21.7114C9.06197 21.5337 9.04645 21.349 8.98001 21.18C8.98001 21.04 8.91001 20.88 8.87001 20.73C8.82231 20.5972 8.78879 20.4598 8.77001 20.32C8.73675 20.0991 8.62589 19.8972 8.4573 19.7506C8.28871 19.604 8.07342 19.5223 7.85001 19.52H6.74001C6.61796 19.5287 6.49902 19.5625 6.39062 19.6193C6.28222 19.6761 6.1867 19.7546 6.11001 19.85C6.02954 19.9447 5.96866 20.0545 5.9309 20.173C5.89313 20.2914 5.87924 20.4161 5.89001 20.54C6.00286 21.6078 6.36232 22.6348 6.94001 23.54V23.59C7.18591 23.9449 7.46014 24.2793 7.76001 24.59C8.13193 24.9745 8.54817 25.3136 9.00001 25.6V25.62Z" fill="#8124BB"/>
</svg>
