<svg width="48" height="48" viewBox="0 0 48 48" fill="none" xmlns="http://www.w3.org/2000/svg">
<path d="M23.93 39.8C23.8406 39.8146 23.7494 39.8146 23.66 39.8C21.24 39.08 9.16998 35 9.16998 21V9.87001C9.1605 9.64815 9.22513 9.42945 9.35369 9.24839C9.48224 9.06732 9.6674 8.9342 9.87998 8.87001C19.0544 6.1147 28.8394 6.13906 38 8.94001C38.2126 9.0042 38.3977 9.13732 38.5263 9.31839C38.6548 9.49945 38.7195 9.71815 38.71 9.94001V21C38.71 34.33 26.63 38.93 24.21 39.72C24.1208 39.7594 24.0265 39.7864 23.93 39.8ZM11.16 10.65V21C11.16 33 21.16 36.9 23.9 37.72C26.62 36.78 36.73 32.49 36.73 21V10.65C28.375 8.25407 19.5149 8.25407 11.16 10.65Z" fill="#480076"/>
<path d="M7.00002 26C6.21763 25.6128 5.36971 25.3754 4.50002 25.3C4.40528 26.7328 4.8275 28.152 5.69002 29.3C6.71321 30.302 8.06106 30.905 9.49002 31C9.35002 30.73 9.20002 30.48 9.06002 30.2L7.00002 26Z" fill="#8124BB"/>
<path d="M6.39001 32.89C6.95173 34.1946 7.95808 35.2577 9.23001 35.89C10.5149 36.3073 11.9055 36.2613 13.16 35.76C12.1743 34.817 11.2926 33.771 10.53 32.64C9.16417 32.2285 7.69642 32.3172 6.39001 32.89Z" fill="#8124BB"/>
<path d="M14.06 37.24C12.644 37.4218 11.3392 38.1026 10.38 39.16C11.4352 40.1255 12.8006 40.6823 14.23 40.73C15.5639 40.5733 16.8033 39.9625 17.74 39C16.7581 38.5214 15.821 37.9558 14.94 37.31C14.6506 37.2512 14.3551 37.2277 14.06 37.24Z" fill="#8124BB"/>
<path d="M19.23 39.65C19.0209 39.702 18.8168 39.7722 18.62 39.86C17.3721 40.5512 16.4114 41.6644 15.91 43C17.2523 43.4961 18.7277 43.4961 20.07 43C21.1098 42.4574 21.9477 41.595 22.46 40.54C21.3616 40.329 20.2815 40.0314 19.23 39.65Z" fill="#8124BB"/>
<path d="M40.94 26C41.7128 25.6314 42.5466 25.4077 43.4 25.34C43.4948 26.7728 43.0726 28.192 42.21 29.34C41.1809 30.3274 39.8337 30.9159 38.41 31C38.55 30.73 38.7 30.48 38.84 30.2L40.94 26Z" fill="#8124BB"/>
<path d="M41.51 32.89C40.9483 34.1946 39.9419 35.2577 38.67 35.89C37.3851 36.3073 35.9945 36.2613 34.74 35.76C35.7257 34.817 36.6074 33.771 37.37 32.64C38.7358 32.2285 40.2036 32.3172 41.51 32.89Z" fill="#8124BB"/>
<path d="M33.84 37.24C35.2561 37.4218 36.5609 38.1026 37.52 39.16C36.4648 40.1255 35.0995 40.6823 33.67 40.73C32.3361 40.5734 31.0968 39.9625 30.16 39C31.1561 38.5203 32.1067 37.9513 33 37.3C33.2767 37.2474 33.5587 37.2273 33.84 37.24Z" fill="#8124BB"/>
<path d="M28.66 39.65C28.8728 39.7004 29.0803 39.7707 29.28 39.86C30.5316 40.5494 31.4961 41.6628 32 43C30.6577 43.4961 29.1822 43.4961 27.84 43C26.8002 42.4574 25.9623 41.595 25.45 40.54C26.5421 40.3297 27.6155 40.0321 28.66 39.65Z" fill="#8124BB"/>
<path d="M18.94 19.26C18.393 19.2136 17.8798 18.9765 17.49 18.59L18.11 17.73C18.4151 18.0028 18.8107 18.1525 19.22 18.15C19.63 18.15 19.79 18 19.79 17.71C19.79 17.04 17.69 16.95 17.69 15.52C17.678 15.158 17.7983 14.804 18.0283 14.5243C18.2584 14.2445 18.5825 14.0581 18.94 14V13.15H19.86V13.98C20.3408 14.0657 20.7782 14.3126 21.1 14.68L20.39 15.45C20.1535 15.2192 19.8401 15.0838 19.51 15.07C19.2 15.07 19.02 15.19 19.02 15.5C19.02 16.12 21.13 16.15 21.13 17.64C21.1507 18.017 21.0331 18.3886 20.7993 18.685C20.5654 18.9815 20.2314 19.1824 19.86 19.25V20.11H18.94V19.26Z" fill="#8124BB"/>
<path d="M21.21 23.93H24.21V16.77H21.56V14.46C22.8416 14.2563 24.0692 13.7972 25.17 13.11H27.92V23.93H30.41V26.93H21.21V23.93Z" fill="#8124BB"/>
<path d="M17.52 28.07H18.32L18.74 29.22C18.8 29.38 18.84 29.55 18.89 29.72C18.94 29.55 18.98 29.38 19.04 29.22L19.44 28.07H20.24V30.89H19.57V30.06C19.57 29.77 19.63 29.25 19.66 28.96L19.43 29.73L19.08 30.66H18.68L18.33 29.73L18.11 29C18.1632 29.3646 18.1965 29.7318 18.21 30.1V30.93H17.54L17.52 28.07Z" fill="#480076"/>
<path d="M20.8 28.08C20.8153 27.9835 20.8644 27.8956 20.9387 27.8322C21.0129 27.7687 21.1074 27.7338 21.205 27.7338C21.3027 27.7338 21.3972 27.7687 21.4714 27.8322C21.5457 27.8956 21.5948 27.9835 21.6101 28.08C21.5948 28.1765 21.5457 28.2644 21.4714 28.3278C21.3972 28.3913 21.3027 28.4262 21.205 28.4262C21.1074 28.4262 21.0129 28.3913 20.9387 28.3278C20.8644 28.2644 20.8153 28.1765 20.8 28.08ZM20.8 28.72H21.55V30.89H20.8V28.72Z" fill="#480076"/>
<path d="M22.08 30.13V27.87H22.83V30.15C22.83 30.3 22.9 30.35 22.95 30.35H23L23.09 30.89C22.9736 30.9414 22.847 30.9653 22.72 30.96C22.25 31 22.08 30.61 22.08 30.13Z" fill="#480076"/>
<path d="M23.38 30.13V27.87H24.13V30.15C24.13 30.3 24.2 30.35 24.25 30.35H24.33L24.42 30.89C24.3033 30.9401 24.177 30.964 24.05 30.96C23.55 31 23.38 30.61 23.38 30.13Z" fill="#480076"/>
<path d="M24.64 28.08C24.6319 27.9977 24.649 27.9148 24.6888 27.8424C24.7287 27.7699 24.7896 27.7112 24.8634 27.6739C24.9373 27.6367 25.0207 27.6226 25.1026 27.6337C25.1846 27.6447 25.2613 27.6802 25.3227 27.7356C25.3842 27.791 25.4274 27.8637 25.4467 27.9442C25.466 28.0246 25.4606 28.109 25.4311 28.1862C25.4016 28.2635 25.3494 28.3301 25.2814 28.3771C25.2134 28.4242 25.1327 28.4496 25.05 28.45C24.9985 28.4541 24.9467 28.4476 24.8977 28.431C24.8488 28.4144 24.8037 28.3879 24.7653 28.3533C24.727 28.3187 24.696 28.2766 24.6745 28.2296C24.6529 28.1826 24.6412 28.1317 24.64 28.08ZM24.64 28.72H25.38V30.89H24.64V28.72Z" fill="#480076"/>
<path d="M25.8199 29.81C25.8412 29.602 25.9225 29.4046 26.0538 29.2419C26.1851 29.0791 26.3608 28.958 26.5596 28.8932C26.7584 28.8284 26.9717 28.8227 27.1737 28.8768C27.3757 28.9308 27.5576 29.0424 27.6974 29.1979C27.8372 29.3534 27.9289 29.5461 27.9613 29.7527C27.9937 29.9593 27.9654 30.1708 27.8799 30.3616C27.7944 30.5524 27.6554 30.7143 27.4796 30.8276C27.3039 30.941 27.099 31.0008 26.8899 31C26.7392 30.9994 26.5903 30.9672 26.4527 30.9056C26.3152 30.8439 26.192 30.7542 26.0912 30.6421C25.9905 30.53 25.9142 30.3981 25.8675 30.2548C25.8208 30.1114 25.8046 29.9599 25.8199 29.81ZM27.2099 29.81C27.2099 29.48 27.1199 29.27 26.8899 29.27C26.6599 29.27 26.5799 29.48 26.5799 29.81C26.5799 30.14 26.6699 30.35 26.8899 30.35C27.1099 30.35 27.2099 30.14 27.2099 29.81Z" fill="#480076"/>
<path d="M28.37 28.72H29V29C29.1805 28.8103 29.4282 28.699 29.69 28.69C30.17 28.69 30.37 29.04 30.37 29.57V30.91H29.62V29.65C29.62 29.37 29.55 29.3 29.4 29.3C29.336 29.3032 29.2735 29.3201 29.2166 29.3494C29.1597 29.3787 29.1097 29.4198 29.07 29.47V30.89H28.33L28.37 28.72Z" fill="#480076"/>
</svg>
