<svg width="48" height="48" viewBox="0 0 48 48" fill="none" xmlns="http://www.w3.org/2000/svg">
<path d="M44 40.4731H4C3.73478 40.4731 3.48043 40.3677 3.29289 40.1802C3.10536 39.9927 3 39.7383 3 39.4731V20.7031C3 20.4379 3.10536 20.1835 3.29289 19.996C3.48043 19.8085 3.73478 19.7031 4 19.7031H44C44.2652 19.7031 44.5196 19.8085 44.7071 19.996C44.8946 20.1835 45 20.4379 45 20.7031V39.4731C45 39.7383 44.8946 39.9927 44.7071 40.1802C44.5196 40.3677 44.2652 40.4731 44 40.4731ZM5 38.4731H43V21.7031H5V38.4731Z" fill="#480076"/>
<path d="M8.84992 21.8631H8.67992C8.54965 21.8413 8.42498 21.794 8.31311 21.7237C8.20124 21.6535 8.10439 21.5618 8.02815 21.454C7.95191 21.3461 7.89779 21.2243 7.86891 21.0954C7.84004 20.9665 7.83698 20.8332 7.85992 20.7031L8.99992 13.9931C9.02202 13.8631 9.06962 13.7387 9.13999 13.6271C9.21036 13.5156 9.30209 13.419 9.40992 13.3431C9.51759 13.2632 9.64124 13.2076 9.77242 13.18C9.9036 13.1523 10.0392 13.1534 10.1699 13.1831L44.1699 19.5031C44.3011 19.5237 44.4268 19.5702 44.5398 19.6399C44.6529 19.7096 44.7508 19.8011 44.8281 19.9091C44.9054 20.0171 44.9604 20.1394 44.9898 20.2688C45.0193 20.3983 45.0228 20.5323 44.9999 20.6631C44.9759 20.7926 44.9265 20.916 44.8547 21.0264C44.7828 21.1368 44.6898 21.2318 44.5811 21.3062C44.4724 21.3805 44.3501 21.4326 44.2212 21.4596C44.0923 21.4865 43.9593 21.4877 43.8299 21.4631L10.8299 15.3331L9.82992 21.0331C9.79001 21.2645 9.66995 21.4744 9.49077 21.6262C9.31159 21.7779 9.08473 21.8618 8.84992 21.8631Z" fill="#480076"/>
<path d="M43.82 21.4831C43.6862 21.4806 43.554 21.4535 43.43 21.4031L17.63 10.4031L16.21 15.4031C16.1278 15.6577 15.9478 15.8692 15.7096 15.9911C15.4715 16.113 15.1946 16.1353 14.94 16.0531C14.6854 15.9709 14.4739 15.7909 14.352 15.5527C14.2301 15.3145 14.2078 15.0377 14.29 14.7831L16 8.72309C16.0394 8.58639 16.1075 8.45967 16.1998 8.35139C16.2921 8.2431 16.4064 8.15576 16.5351 8.09518C16.6638 8.0346 16.804 8.00219 16.9463 8.00011C17.0885 7.99802 17.2296 8.02632 17.36 8.08309L44.21 19.5631C44.4219 19.6534 44.5962 19.814 44.7033 20.0179C44.8105 20.2218 44.8439 20.4564 44.7981 20.6822C44.7522 20.9079 44.6299 21.1109 44.4517 21.2568C44.2735 21.4027 44.0504 21.4827 43.82 21.4831Z" fill="#480076"/>
<path d="M4 27.3331C3.73478 27.3331 3.48043 27.2277 3.29289 27.0402C3.10536 26.8527 3 26.5983 3 26.3331C3 26.0679 3.10536 25.8135 3.29289 25.626C3.48043 25.4385 3.73478 25.3331 4 25.3331C5.22795 25.3331 6.40561 24.8453 7.2739 23.977C8.1422 23.1087 8.63 21.931 8.63 20.7031C8.63 20.4379 8.73536 20.1835 8.92289 19.996C9.11043 19.8085 9.36478 19.7031 9.63 19.7031C9.89522 19.7031 10.1496 19.8085 10.3371 19.996C10.5246 20.1835 10.63 20.4379 10.63 20.7031C10.6274 22.4607 9.92799 24.1455 8.6852 25.3883C7.4424 26.6311 5.75757 27.3304 4 27.3331Z" fill="#480076"/>
<path d="M44.0001 27.3331C42.2425 27.3304 40.5577 26.6311 39.3149 25.3883C38.0721 24.1455 37.3728 22.4607 37.3701 20.7031C37.3701 20.4379 37.4755 20.1835 37.663 19.996C37.8505 19.8085 38.1049 19.7031 38.3701 19.7031C38.6353 19.7031 38.8897 19.8085 39.0772 19.996C39.2648 20.1835 39.3701 20.4379 39.3701 20.7031C39.3728 21.9302 39.8614 23.1064 40.7291 23.9741C41.5969 24.8418 42.773 25.3305 44.0001 25.3331C44.2653 25.3331 44.5197 25.4385 44.7072 25.626C44.8948 25.8135 45.0001 26.0679 45.0001 26.3331C45.0001 26.5983 44.8948 26.8527 44.7072 27.0402C44.5197 27.2277 44.2653 27.3331 44.0001 27.3331Z" fill="#480076"/>
<path d="M9.62 40.4731C9.35478 40.4731 9.10043 40.3677 8.91289 40.1802C8.72536 39.9926 8.62 39.7383 8.62 39.4731C8.62 38.2469 8.13357 37.0707 7.26744 36.2027C6.40131 35.3347 5.22622 34.8457 4 34.8431C3.73478 34.8431 3.48043 34.7377 3.29289 34.5502C3.10536 34.3626 3 34.1083 3 33.8431C3 33.5779 3.10536 33.3235 3.29289 33.136C3.48043 32.9484 3.73478 32.8431 4 32.8431C5.75839 32.8431 7.44475 33.5416 8.68812 34.785C9.93148 36.0283 10.63 37.7147 10.63 39.4731C10.63 39.6052 10.6038 39.7361 10.5529 39.8581C10.5021 39.9801 10.4275 40.0908 10.3336 40.1837C10.2397 40.2767 10.1282 40.3502 10.0058 40.3998C9.88327 40.4495 9.75216 40.4744 9.62 40.4731Z" fill="#480076"/>
<path d="M38.3601 40.4731C38.0949 40.4731 37.8405 40.3677 37.653 40.1802C37.4655 39.9927 37.3601 39.7383 37.3601 39.4731C37.3601 38.6016 37.5319 37.7386 37.8657 36.9336C38.1996 36.1285 38.6888 35.3972 39.3055 34.7814C39.9222 34.1656 40.6543 33.6775 41.4598 33.3449C42.2654 33.0123 43.1286 32.8418 44.0001 32.8431C44.2653 32.8431 44.5197 32.9484 44.7072 33.136C44.8948 33.3235 45.0001 33.5779 45.0001 33.8431C45.0001 34.1083 44.8948 34.3627 44.7072 34.5502C44.5197 34.7377 44.2653 34.8431 44.0001 34.8431C42.7722 34.8431 41.5945 35.3309 40.7262 36.1992C39.8579 37.0675 39.3701 38.2451 39.3701 39.4731C39.3701 39.6053 39.3439 39.7361 39.293 39.8581C39.2422 39.9801 39.1676 40.0908 39.0737 40.1838C38.9798 40.2767 38.8683 40.3502 38.7459 40.3999C38.6234 40.4495 38.4923 40.4744 38.3601 40.4731Z" fill="#480076"/>
<path d="M24.13 37.3731C22.6724 37.3731 21.2475 36.9408 20.0355 36.131C18.8235 35.3212 17.8788 34.1702 17.321 32.8235C16.7632 31.4768 16.6173 29.9949 16.9016 28.5653C17.186 27.1356 17.8879 25.8224 18.9186 24.7917C19.9493 23.761 21.2626 23.0591 22.6922 22.7747C24.1218 22.4903 25.6037 22.6363 26.9504 23.1941C28.2971 23.7519 29.4481 24.6965 30.2579 25.9085C31.0678 27.1205 31.5 28.5454 31.5 30.0031C31.4974 31.9569 30.72 33.83 29.3385 35.2115C27.9569 36.5931 26.0838 37.3704 24.13 37.3731ZM24.13 24.8531C23.109 24.8531 22.111 25.156 21.2622 25.7234C20.4135 26.2908 19.7521 27.0973 19.3618 28.0408C18.9716 28.9842 18.87 30.0222 19.0699 31.0234C19.2698 32.0247 19.7623 32.9441 20.4849 33.6653C21.2075 34.3865 22.1279 34.8772 23.1295 35.0752C24.1311 35.2731 25.1689 35.1695 26.1116 34.7774C27.0543 34.3854 27.8595 33.7224 28.4253 32.8726C28.991 32.0227 29.292 31.0241 29.29 30.0031C29.2874 28.6363 28.7426 27.3264 27.7752 26.3609C26.8078 25.3954 25.4968 24.8531 24.13 24.8531Z" fill="#480076"/>
<path d="M25 29.4631H24.64V28.0431H25.89C25.9622 28.0431 26.0337 28.0288 26.1005 28.0012C26.1672 27.9736 26.2278 27.9331 26.2789 27.882C26.33 27.8309 26.3705 27.7703 26.3981 27.7035C26.4258 27.6368 26.44 27.5653 26.44 27.4931C26.4374 27.3489 26.3783 27.2116 26.2754 27.1106C26.1725 27.0096 26.0341 26.953 25.89 26.9531H24.67V26.0631C24.67 25.9199 24.6131 25.7825 24.5118 25.6812C24.4105 25.58 24.2732 25.5231 24.13 25.5231C23.9868 25.5231 23.8494 25.58 23.7481 25.6812C23.6469 25.7825 23.59 25.9199 23.59 26.0631V26.9531H23.24C22.993 26.9346 22.7449 26.9673 22.5111 27.0492C22.2773 27.131 22.063 27.2602 21.8814 27.4287C21.6999 27.5972 21.5551 27.8014 21.4561 28.0284C21.357 28.2554 21.3059 28.5004 21.3059 28.7481C21.3059 28.9957 21.357 29.2408 21.4561 29.4678C21.5551 29.6948 21.6999 29.8989 21.8814 30.0674C22.063 30.2359 22.2773 30.3651 22.5111 30.447C22.7449 30.5288 22.993 30.5615 23.24 30.5431H23.59V31.9731H22C21.8568 31.9731 21.7194 32.03 21.6181 32.1312C21.5169 32.2325 21.46 32.3699 21.46 32.5131C21.46 32.6563 21.5169 32.7936 21.6181 32.8949C21.7194 32.9962 21.8568 33.0531 22 33.0531H23.61V33.9431C23.61 34.0863 23.6669 34.2236 23.7681 34.3249C23.8694 34.4262 24.0068 34.4831 24.15 34.4831C24.2932 34.4831 24.4305 34.4262 24.5318 34.3249C24.6331 34.2236 24.69 34.0863 24.69 33.9431V33.0531H25C25.4529 33.0192 25.8763 32.8154 26.1853 32.4825C26.4942 32.1496 26.6659 31.7123 26.6659 31.2581C26.6659 30.8039 26.4942 30.3665 26.1853 30.0336C25.8763 29.7007 25.4529 29.4969 25 29.4631ZM23.21 29.4631C23.0217 29.4631 22.8411 29.3883 22.7079 29.2551C22.5748 29.122 22.5 28.9414 22.5 28.7531C22.5 28.5648 22.5748 28.3842 22.7079 28.251C22.8411 28.1179 23.0217 28.0431 23.21 28.0431H23.56V29.4631H23.21ZM25 31.9731H24.64V30.5431H25C25.175 30.5638 25.3364 30.6481 25.4535 30.7798C25.5706 30.9116 25.6353 31.0818 25.6353 31.2581C25.6353 31.4344 25.5706 31.6045 25.4535 31.7363C25.3364 31.8681 25.175 31.9523 25 31.9731Z" fill="#8124BB"/>
</svg>
