<svg width="48" height="48" viewBox="0 0 48 48" fill="none" xmlns="http://www.w3.org/2000/svg">
<path d="M13.16 42.9C11.1288 42.9 9.14321 42.2977 7.45431 41.1692C5.76542 40.0407 4.44909 38.4367 3.67178 36.5601C2.89446 34.6835 2.69108 32.6186 3.08735 30.6264C3.48362 28.6342 4.46175 26.8043 5.89803 25.368C7.33432 23.9317 9.16426 22.9536 11.1564 22.5573C13.1486 22.1611 15.2136 22.3644 17.0902 23.1417C18.9668 23.9191 20.5707 25.2354 21.6992 26.9243C22.8277 28.6132 23.43 30.5988 23.43 32.63C23.4274 35.353 22.3445 37.9636 20.4191 39.8891C18.4937 41.8145 15.883 42.8973 13.16 42.9ZM13.16 24.36C11.5244 24.36 9.92545 24.845 8.56545 25.7537C7.20546 26.6625 6.14547 27.9541 5.51954 29.4652C4.8936 30.9763 4.72983 32.6392 5.04893 34.2434C5.36802 35.8476 6.15567 37.3212 7.31225 38.4778C8.46883 39.6343 9.9424 40.422 11.5466 40.7411C13.1508 41.0602 14.8137 40.8964 16.3248 40.2705C17.836 39.6445 19.1276 38.5846 20.0363 37.2246C20.945 35.8646 21.43 34.2656 21.43 32.63C21.4274 30.4375 20.5552 28.3355 19.0049 26.7851C17.4545 25.2348 15.3525 24.3626 13.16 24.36Z" fill="#480076"/>
<path d="M33.2701 19.57C31.6217 19.572 30.0098 19.0849 28.6384 18.1703C27.267 17.2558 26.1978 15.9549 25.5661 14.4324C24.9343 12.9099 24.7685 11.2341 25.0896 9.61736C25.4107 8.00056 26.2043 6.51538 27.3699 5.34981C28.5354 4.18423 30.0206 3.39067 31.6374 3.06958C33.2542 2.74848 34.9299 2.91429 36.4524 3.546C37.9749 4.17772 39.2758 5.24695 40.1904 6.61834C41.1049 7.98973 41.592 9.60163 41.5901 11.25C41.5874 13.4558 40.71 15.5705 39.1503 17.1302C37.5905 18.6899 35.4758 19.5674 33.2701 19.57ZM33.2701 4.92C32.0177 4.91802 30.7929 5.28759 29.7506 5.98193C28.7083 6.67628 27.8954 7.6642 27.4148 8.82068C26.9341 9.97716 26.8074 11.2502 27.0505 12.4788C27.2936 13.7073 27.8957 14.8362 28.7805 15.7224C29.6654 16.6087 30.7933 17.2126 32.0214 17.4576C33.2496 17.7027 34.5229 17.5779 35.6801 17.0991C36.8374 16.6203 37.8266 15.809 38.5226 14.7678C39.2185 13.7266 39.59 12.5024 39.5901 11.25C39.5874 9.57372 38.921 7.96671 37.7367 6.78046C36.5523 5.59421 34.9463 4.92529 33.2701 4.92Z" fill="#480076"/>
<path d="M37.1899 43.88C35.8565 43.88 34.553 43.4844 33.4444 42.7434C32.3358 42.0024 31.4719 40.9491 30.962 39.717C30.4522 38.4848 30.3193 37.1291 30.5802 35.8214C30.8411 34.5137 31.484 33.3128 32.4276 32.3706C33.3712 31.4284 34.5731 30.7872 35.8812 30.5283C37.1893 30.2694 38.5448 30.4043 39.7762 30.9159C41.0076 31.4276 42.0595 32.293 42.7989 33.4027C43.5383 34.5124 43.9319 35.8165 43.9299 37.15C43.9273 38.9358 43.216 40.6476 41.9523 41.9094C40.6886 43.1713 38.9758 43.88 37.1899 43.88ZM37.1899 32.41C36.2525 32.41 35.336 32.688 34.5565 33.2088C33.7771 33.7297 33.1695 34.47 32.8108 35.3361C32.452 36.2022 32.3581 37.1553 32.541 38.0747C32.7239 38.9942 33.1754 39.8388 33.8383 40.5017C34.5012 41.1646 35.3457 41.616 36.2652 41.7989C37.1847 41.9818 38.1377 41.8879 39.0039 41.5292C39.87 41.1704 40.6103 40.5629 41.1311 39.7834C41.6519 39.0039 41.9299 38.0875 41.9299 37.15C41.9299 36.5275 41.8073 35.9112 41.5691 35.3361C41.3309 34.761 40.9818 34.2385 40.5416 33.7983C40.1015 33.3582 39.5789 33.009 39.0039 32.7708C38.4288 32.5326 37.8124 32.41 37.1899 32.41Z" fill="#480076"/>
<path d="M27.0267 15.3277L17.9121 24.4423L19.3263 25.8565L28.4409 16.7419L27.0267 15.3277Z" fill="#480076"/>
<path d="M20.5645 36.3225L20.3745 38.3134L31.3646 39.362L31.5546 37.371L20.5645 36.3225Z" fill="#480076"/>
<path d="M13.16 31.42C12.6031 31.416 12.0599 31.2473 11.5988 30.935C11.1377 30.6228 10.7793 30.181 10.5689 29.6654C10.3586 29.1497 10.3056 28.5834 10.4166 28.0377C10.5277 27.492 10.7978 26.9914 11.193 26.599C11.5882 26.2066 12.0907 25.94 12.6371 25.8328C13.1836 25.7256 13.7496 25.7826 14.2637 25.9966C14.7778 26.2106 15.2171 26.5721 15.5261 27.0354C15.8351 27.4987 16 28.0431 16 28.6C15.9987 28.9716 15.9242 29.3394 15.7807 29.6822C15.6373 30.0251 15.4278 30.3363 15.164 30.5982C14.9003 30.86 14.5876 31.0674 14.2437 31.2084C13.8999 31.3494 13.5316 31.4213 13.16 31.42ZM13.16 27.49C12.9376 27.488 12.7197 27.5523 12.534 27.6746C12.3483 27.7969 12.2032 27.9717 12.1172 28.1767C12.0312 28.3818 12.0082 28.6078 12.0511 28.826C12.094 29.0442 12.2008 29.2447 12.3581 29.4019C12.5153 29.5591 12.7158 29.666 12.934 29.7089C13.1522 29.7518 13.3782 29.7288 13.5832 29.6428C13.7883 29.5568 13.9631 29.4117 14.0854 29.226C14.2077 29.0403 14.272 28.8223 14.27 28.6C14.2674 28.3064 14.1496 28.0256 13.942 27.818C13.7344 27.6104 13.4536 27.4926 13.16 27.49Z" fill="#8124BB"/>
<path d="M17.94 38.37H8.38003C8.1546 38.37 7.93839 38.2804 7.77899 38.121C7.61958 37.9616 7.53003 37.7454 7.53003 37.52V36.06C7.53002 35.4739 7.64579 34.8936 7.87067 34.3524C8.09555 33.8112 8.42513 33.3198 8.84047 32.9063C9.25581 32.4928 9.74874 32.1654 10.2909 31.943C10.8332 31.7205 11.414 31.6074 12 31.61H14.35C15.5312 31.61 16.6641 32.0785 17.5002 32.9128C18.3363 33.747 18.8074 34.8789 18.81 36.06V37.52C18.8101 37.6333 18.7874 37.7455 18.7435 37.85C18.6995 37.9544 18.6351 38.049 18.554 38.1282C18.473 38.2074 18.3769 38.2696 18.2715 38.3111C18.166 38.3527 18.0533 38.3727 17.94 38.37ZM9.23003 36.67H17.09V36.06C17.0874 35.3297 16.7954 34.6303 16.2781 34.1148C15.7608 33.5994 15.0603 33.31 14.33 33.31H12C11.2707 33.31 10.5712 33.5997 10.0555 34.1155C9.53976 34.6312 9.25003 35.3307 9.25003 36.06L9.23003 36.67Z" fill="#8124BB"/>
<path d="M33.2699 10.28C32.8586 10.28 32.4564 10.158 32.1144 9.92945C31.7723 9.7009 31.5057 9.37605 31.3483 8.99598C31.1908 8.61591 31.1497 8.19769 31.2299 7.79421C31.3102 7.39073 31.5083 7.02011 31.7992 6.72921C32.0901 6.43832 32.4607 6.24022 32.8642 6.15996C33.2676 6.07971 33.6859 6.1209 34.0659 6.27833C34.446 6.43576 34.7708 6.70236 34.9994 7.04441C35.228 7.38646 35.3499 7.78861 35.3499 8.2C35.3499 8.75165 35.1308 9.2807 34.7407 9.67078C34.3506 10.0609 33.8216 10.28 33.2699 10.28ZM33.2699 7.52C33.138 7.52972 33.0118 7.57772 32.9067 7.6581C32.8017 7.73848 32.7223 7.84776 32.6785 7.97255C32.6346 8.09734 32.628 8.23222 32.6597 8.36067C32.6913 8.48912 32.7597 8.60556 32.8565 8.69573C32.9532 8.78589 33.0742 8.84587 33.2046 8.8683C33.335 8.89074 33.4691 8.87467 33.5904 8.82205C33.7118 8.76943 33.8152 8.68256 33.8879 8.57207C33.9607 8.46158 33.9996 8.33228 33.9999 8.2C33.9987 8.10676 33.9787 8.01474 33.9409 7.92948C33.9032 7.84422 33.8485 7.7675 33.7803 7.70394C33.7121 7.64039 33.6317 7.59132 33.544 7.55971C33.4562 7.52809 33.363 7.51458 33.2699 7.52Z" fill="#8124BB"/>
<path d="M36.62 15.44H29.92C29.7343 15.44 29.5563 15.3663 29.425 15.235C29.2937 15.1037 29.22 14.9257 29.22 14.74V13.37C29.22 12.6035 29.5245 11.8685 30.0664 11.3265C30.6084 10.7845 31.3435 10.48 32.11 10.48H34.43C35.1956 10.4826 35.9292 10.788 36.4706 11.3294C37.012 11.8708 37.3173 12.6043 37.32 13.37V14.74C37.32 14.8319 37.3019 14.923 37.2667 15.0079C37.2315 15.0928 37.1799 15.17 37.1149 15.235C37.0499 15.3 36.9728 15.3515 36.8878 15.3867C36.8029 15.4219 36.7119 15.44 36.62 15.44ZM30.62 14.04H35.92V13.37C35.92 12.9748 35.763 12.5959 35.4836 12.3164C35.2041 12.037 34.8251 11.88 34.43 11.88H32.11C31.7148 11.88 31.3358 12.037 31.0564 12.3164C30.777 12.5959 30.62 12.9748 30.62 13.37V14.04Z" fill="#8124BB"/>
<path d="M37.19 36.41C36.8533 36.41 36.5242 36.31 36.2445 36.1228C35.9647 35.9356 35.7468 35.6695 35.6184 35.3582C35.4901 35.047 35.457 34.7047 35.5234 34.3747C35.5898 34.0446 35.7527 33.7417 35.9915 33.5044C36.2302 33.267 36.5341 33.1059 36.8645 33.0415C37.1949 32.977 37.537 33.0121 37.8475 33.1423C38.1579 33.2725 38.4227 33.492 38.6083 33.7728C38.7939 34.0537 38.8919 34.3834 38.89 34.72C38.89 34.9428 38.8459 35.1634 38.7604 35.3691C38.6748 35.5748 38.5494 35.7615 38.3914 35.9186C38.2334 36.0756 38.046 36.1999 37.8398 36.2842C37.6336 36.3686 37.4127 36.4113 37.19 36.41ZM37.19 34.22C37.0574 34.22 36.9302 34.2727 36.8364 34.3665C36.7426 34.4602 36.69 34.5874 36.69 34.72C36.69 34.8526 36.7426 34.9798 36.8364 35.0736C36.9302 35.1673 37.0574 35.22 37.19 35.22C37.3226 35.22 37.4497 35.1673 37.5435 35.0736C37.6373 34.9798 37.69 34.8526 37.69 34.72C37.69 34.5874 37.6373 34.4602 37.5435 34.3665C37.4497 34.2727 37.3226 34.22 37.19 34.22Z" fill="#8124BB"/>
<path d="M39.86 40.51H34.53C34.4509 40.5114 34.3722 40.4968 34.2988 40.4671C34.2254 40.4374 34.1587 40.3933 34.1027 40.3373C34.0468 40.2813 34.0026 40.2146 33.9729 40.1412C33.9433 40.0678 33.9287 39.9892 33.93 39.91V38.91C33.9287 38.59 33.9906 38.273 34.1121 37.977C34.2336 37.681 34.4124 37.412 34.6382 37.1853C34.864 36.9586 35.1323 36.7787 35.4278 36.6559C35.7233 36.5332 36.0401 36.47 36.36 36.47H38C38.6471 36.47 39.2678 36.7271 39.7254 37.1847C40.1829 37.6422 40.44 38.2629 40.44 38.91V39.91C40.4401 40.0657 40.3796 40.2154 40.2714 40.3273C40.1632 40.4393 40.0157 40.5048 39.86 40.51ZM35.12 39.31H39.26V38.93C39.26 38.7655 39.2273 38.6026 39.1638 38.4508C39.1002 38.299 39.0071 38.1614 38.8898 38.046C38.7725 37.9306 38.6334 37.8397 38.4807 37.7786C38.3279 37.7175 38.1645 37.6873 38 37.69H36.36C36.0311 37.69 35.7158 37.8206 35.4832 38.0532C35.2507 38.2857 35.12 38.6011 35.12 38.93V39.31Z" fill="#8124BB"/>
</svg>
