<svg width="48" height="48" viewBox="0 0 48 48" fill="none" xmlns="http://www.w3.org/2000/svg">
<path d="M35.2431 12.1229L39.2737 5.14209C39.3615 4.99005 39.4077 4.81758 39.4076 4.64202C39.4076 4.46646 39.3614 4.294 39.2736 4.14197C39.1858 3.98994 39.0595 3.86371 38.9075 3.77596C38.7554 3.68821 38.5829 3.64204 38.4074 3.64209H25.9211C25.7455 3.64206 25.5731 3.68824 25.421 3.776C25.269 3.86375 25.1427 3.98999 25.0549 4.14201C24.9671 4.29404 24.9209 4.46649 24.9209 4.64205C24.9209 4.8176 24.9671 4.99006 25.0549 5.14209L29.0854 12.1227C31.1106 11.6491 33.2178 11.6491 35.2431 12.1227V12.1229ZM27.6531 5.64209H36.675L33.145 11.8871H31.1613L27.6531 5.64209Z" fill="#8124BB"/>
<path d="M25.3647 28.7015C25.245 28.0693 25.0602 27.4513 24.8131 26.8572C24.9152 27.4935 25.1007 28.1136 25.3647 28.7015Z" fill="#480076"/>
<path d="M22.874 27.4237C22.9937 28.0561 23.1786 28.6743 23.4258 29.2685C23.3236 28.632 23.138 28.0118 22.874 27.4237Z" fill="#480076"/>
<path d="M27.8993 31.78C27.8203 32.489 27.6773 33.1893 27.472 33.8725C28.0553 34.2087 28.6732 34.4808 29.3149 34.6842C29.516 34.0431 29.6699 33.3883 29.7755 32.7248C29.1081 32.5013 28.4763 32.1831 27.8993 31.78Z" fill="#480076"/>
<path d="M21.7147 19.9756C22.038 19.3905 22.41 18.8335 22.8266 18.3107C22.2298 17.9811 21.6095 17.6961 20.9707 17.4579C20.5638 18.0056 20.1977 18.5826 19.8755 19.1841C20.5098 19.3956 21.125 19.6604 21.7147 19.9756Z" fill="#480076"/>
<path d="M24.4852 34.7521C24.8937 33.9522 25.1856 33.0978 25.3518 32.2151C25.397 31.9743 25.441 31.7329 25.4681 31.4868C25.571 30.5583 25.5362 29.6198 25.3648 28.7015C25.1007 28.1136 24.9153 27.4935 24.8132 26.8572C24.5926 25.5183 24.7461 24.1444 25.2567 22.8872C27.018 25.0151 27.9805 27.6916 27.9779 30.4539C27.9762 30.8968 27.9501 31.3393 27.8995 31.7794C28.4764 32.1825 29.1082 32.5007 29.7757 32.7242C30.1377 30.6464 30.0129 28.5129 29.4111 26.4915C28.8093 24.47 27.7469 22.6157 26.3074 21.0742C26.6584 20.6249 27.0596 20.2172 27.5032 19.859C28.819 18.7972 30.4592 18.2187 32.1501 18.22C32.4267 18.2201 32.7032 18.2353 32.9783 18.2654C34.9423 18.4813 36.7401 19.4686 37.9762 21.01C39.2123 22.5515 39.7855 24.5209 39.5696 26.4849C39.3536 28.4489 38.3664 30.2467 36.8249 31.4829C35.2835 32.719 33.3141 33.2921 31.3501 33.0762C30.8142 33.0158 30.2864 32.8979 29.7759 32.7244C29.6702 33.3879 29.5163 34.0427 29.3153 34.6838C29.9068 34.8694 30.5151 34.9969 31.1314 35.0645C31.4803 35.1028 31.8311 35.122 32.1822 35.1221C33.6918 35.1192 35.1789 34.7547 36.5187 34.0591C37.8586 33.3635 39.0123 32.357 39.8833 31.1239C40.7543 29.8909 41.3173 28.4671 41.525 26.9717C41.7327 25.4764 41.5792 23.9531 41.0772 22.5293C40.5753 21.1055 39.7396 19.8227 38.64 18.7882C37.5405 17.7537 36.2091 16.9977 34.7574 16.5835C33.3057 16.1692 31.7758 16.1088 30.2959 16.4072C28.816 16.7057 27.4292 17.3543 26.2515 18.2988C25.7388 18.7112 25.2703 19.1757 24.8535 19.6848C23.8556 20.908 23.1795 22.3613 22.8867 23.9125C22.8416 24.1525 22.7979 24.3932 22.771 24.6387C22.668 25.567 22.7028 26.5055 22.8743 27.4237C23.1383 28.0118 23.3238 28.632 23.4261 29.2685C23.6467 30.6075 23.4928 31.9815 22.9815 33.2385C21.4724 31.4059 20.5455 29.1642 20.3198 26.801C20.0942 24.4378 20.58 22.0611 21.715 19.9761C21.1253 19.6609 20.51 19.3961 19.8758 19.1846C19.4906 19.9095 19.1708 20.6673 18.9204 21.449C17.6628 21.0516 16.336 20.922 15.0253 21.0683C13.7147 21.2147 12.4492 21.6339 11.3103 22.2989C10.1714 22.9638 9.18432 23.8599 8.41263 24.9294C7.64094 25.9989 7.10172 27.2181 6.82967 28.5085C6.55762 29.799 6.55876 31.1321 6.83303 32.4221C7.10729 33.7121 7.64861 34.9303 8.42212 35.9985C9.19564 37.0667 10.1842 37.961 11.3243 38.6241C12.4643 39.2871 13.7305 39.7041 15.0415 39.8482C15.3904 39.8865 15.7412 39.9057 16.0923 39.9058C18.2369 39.9069 20.3172 39.1734 21.9868 37.8272C22.4994 37.4143 22.9678 36.9494 23.3847 36.44C23.817 35.9229 24.1865 35.3563 24.4852 34.7521ZM25.4113 37.8146C24.0625 39.533 22.267 40.8473 20.2214 41.6138C18.1758 42.3803 15.9588 42.5693 13.8129 42.1604C11.667 41.7514 9.67493 40.7601 8.0546 39.295C6.43428 37.8299 5.24813 35.9473 4.62591 33.8533C4.0037 31.7593 3.96939 29.5345 4.52674 27.4222C5.0841 25.31 6.21164 23.3918 7.78602 21.8774C9.36039 20.363 11.321 19.3108 13.4532 18.8358C15.5855 18.3609 17.8073 18.4816 19.8756 19.1846C20.1978 18.5831 20.5638 18.0061 20.9708 17.4584C18.5489 16.5417 15.9191 16.3198 13.3778 16.8177C10.8366 17.3156 8.48498 18.5135 6.58807 20.2763C4.69117 22.0391 3.32441 24.2968 2.64189 26.7948C1.95936 29.2928 1.98821 31.9318 2.72518 34.4142C3.46214 36.8967 4.87792 39.1239 6.81291 40.8449C8.7479 42.5658 11.1251 43.712 13.6767 44.1542C16.2282 44.5964 18.8525 44.3171 21.2538 43.3477C23.655 42.3784 25.7378 40.7575 27.2672 38.6678C29.6882 39.583 32.3168 39.8039 34.8566 39.3054C37.3964 38.807 39.7466 37.6091 41.6422 35.8468C43.5378 34.0845 44.9035 31.8277 45.5854 29.3309C46.2674 26.8341 46.2384 24.1964 45.5018 21.7152C44.7652 19.234 43.3502 17.0078 41.4164 15.2875C39.4825 13.5672 37.1066 12.4212 34.5565 11.9787C32.0063 11.5362 29.3833 11.8147 26.9829 12.7829C24.5825 13.751 22.5002 15.3704 20.9708 17.4584C21.6095 17.6966 22.2299 17.9816 22.8267 18.3112C24.1755 16.5929 25.9709 15.2787 28.0166 14.5123C30.0622 13.7459 32.2792 13.5568 34.425 13.9659C36.5708 14.3749 38.5629 15.3662 40.1831 16.8313C41.8034 18.2964 42.9895 20.179 43.6117 22.273C44.2339 24.367 44.2682 26.5917 43.7109 28.7039C43.1535 30.8161 42.026 32.7343 40.4517 34.2487C38.8773 35.7631 36.9168 36.8153 34.7846 37.2903C32.6524 37.7653 30.4306 37.6447 28.3624 36.9417C28.7461 36.2189 29.0649 35.4635 29.3151 34.6843C28.6733 34.4809 28.0554 34.2088 27.4722 33.8726C27.236 34.6628 26.918 35.4261 26.5233 36.1502C26.206 36.7389 25.8337 37.2962 25.4113 37.8146ZM20.7347 36.2661C19.8063 37.0118 18.7126 37.5241 17.5454 37.7601C16.3782 37.996 15.1715 37.9488 14.0263 37.6222C12.8811 37.2957 11.8309 36.6994 10.9637 35.8833C10.0965 35.0672 9.43753 34.0552 9.04206 32.9319C8.64659 31.8087 8.52614 30.607 8.6908 29.4277C8.85545 28.2483 9.30042 27.1256 9.98841 26.1536C10.6764 25.1816 11.5873 24.3888 12.6449 23.8414C13.7025 23.2941 14.8758 23.0082 16.0667 23.0078C16.8812 23.0081 17.6903 23.1408 18.4622 23.4009C18.1002 25.4787 18.225 27.6122 18.8268 29.6336C19.4286 31.655 20.491 33.5094 21.9305 35.0509C21.5794 35.5001 21.1782 35.9078 20.7347 36.2661Z" fill="#480076"/>
</svg>
