<svg width="48" height="48" viewBox="0 0 48 48" fill="none" xmlns="http://www.w3.org/2000/svg">
<path d="M40.0899 8.85001H1.81995C1.55473 8.85001 1.30038 8.95536 1.11284 9.1429C0.925303 9.33043 0.819946 9.58479 0.819946 9.85001V15.48C0.819946 15.2148 0.925303 14.9604 1.11284 14.7729C1.30038 14.5854 1.55473 14.48 1.81995 14.48H2.81995V10.85H39.0899V14.48H40.0899C40.3552 14.48 40.6095 14.5854 40.7971 14.7729C40.9846 14.9604 41.0899 15.2148 41.0899 15.48V9.85001C41.0899 9.58479 40.9846 9.33043 40.7971 9.1429C40.6095 8.95536 40.3552 8.85001 40.0899 8.85001Z" fill="#480076"/>
<path d="M40.09 16.48H39.09V18.14C39.09 18.4052 39.1953 18.6596 39.3829 18.8471C39.5704 19.0347 39.8247 19.14 40.09 19.14C40.3552 19.14 40.6095 19.0347 40.7971 18.8471C40.9846 18.6596 41.09 18.4052 41.09 18.14V15.48C41.09 15.7452 40.9846 15.9996 40.7971 16.1871C40.6095 16.3747 40.3552 16.48 40.09 16.48Z" fill="#480076"/>
<path d="M0.819946 15.48V36.87C0.819946 37.1352 0.925303 37.3896 1.11284 37.5771C1.30038 37.7647 1.55473 37.87 1.81995 37.87H40.0899C40.3552 37.87 40.6095 37.7647 40.7971 37.5771C40.9846 37.3896 41.0899 37.1352 41.0899 36.87V33.63C41.0899 33.3648 40.9846 33.1104 40.7971 32.9229C40.6095 32.7354 40.3552 32.63 40.0899 32.63C39.8247 32.63 39.5704 32.7354 39.3828 32.9229C39.1953 33.1104 39.0899 33.3648 39.0899 33.63V35.87H2.81995V16.48H1.81995C1.55473 16.48 1.30038 16.3747 1.11284 16.1871C0.925303 15.9996 0.819946 15.7452 0.819946 15.48Z" fill="#480076"/>
<path d="M40.0899 14.48H1.81995C1.55473 14.48 1.30038 14.5854 1.11284 14.7729C0.925303 14.9604 0.819946 15.2148 0.819946 15.48C0.819946 15.7452 0.925303 15.9996 1.11284 16.1871C1.30038 16.3747 1.55473 16.48 1.81995 16.48H40.0899C40.3552 16.48 40.6095 16.3747 40.7971 16.1871C40.9846 15.9996 41.0899 15.7452 41.0899 15.48C41.0899 15.2148 40.9846 14.9604 40.7971 14.7729C40.6095 14.5854 40.3552 14.48 40.0899 14.48Z" fill="#480076"/>
<path d="M5.26005 13.4C5.65217 13.4 5.97005 13.0821 5.97005 12.69C5.97005 12.2979 5.65217 11.98 5.26005 11.98C4.86793 11.98 4.55005 12.2979 4.55005 12.69C4.55005 13.0821 4.86793 13.4 5.26005 13.4Z" fill="#480076"/>
<path d="M7.94999 13.4C8.34211 13.4 8.65999 13.0821 8.65999 12.69C8.65999 12.2979 8.34211 11.98 7.94999 11.98C7.55787 11.98 7.23999 12.2979 7.23999 12.69C7.23999 13.0821 7.55787 13.4 7.94999 13.4Z" fill="#480076"/>
<path d="M21.3399 30.33C21.837 30.33 22.2399 29.9271 22.2399 29.43C22.2399 28.9329 21.837 28.53 21.3399 28.53C20.8429 28.53 20.4399 28.9329 20.4399 29.43C20.4399 29.9271 20.8429 30.33 21.3399 30.33Z" fill="#8124BB"/>
<path d="M24.37 30.33C24.867 30.33 25.27 29.9271 25.27 29.43C25.27 28.9329 24.867 28.53 24.37 28.53C23.8729 28.53 23.47 28.9329 23.47 29.43C23.47 29.9271 23.8729 30.33 24.37 30.33Z" fill="#8124BB"/>
<path d="M11.41 25.7C10.7229 25.702 10.0506 25.4999 9.47846 25.1194C8.90629 24.7388 8.45998 24.197 8.19611 23.5625C7.93223 22.9281 7.86267 22.2295 7.99624 21.5555C8.12982 20.8815 8.46051 20.2622 8.94639 19.7764C9.43228 19.2905 10.0515 18.9598 10.7255 18.8262C11.3996 18.6926 12.0981 18.7622 12.7326 19.0261C13.367 19.2899 13.9089 19.7362 14.2894 20.3084C14.6699 20.8806 14.872 21.5528 14.87 22.24C14.8674 23.1568 14.502 24.0354 13.8537 24.6837C13.2054 25.332 12.3269 25.6974 11.41 25.7ZM11.41 20.77C11.1189 20.768 10.8337 20.8525 10.5906 21.0129C10.3476 21.1732 10.1576 21.4021 10.0448 21.6705C9.93203 21.9389 9.90149 22.2348 9.95708 22.5206C10.0127 22.8064 10.1519 23.0693 10.3571 23.2759C10.5622 23.4824 10.8241 23.6234 11.1096 23.681C11.395 23.7385 11.6911 23.71 11.9603 23.599C12.2294 23.4881 12.4596 23.2997 12.6216 23.0577C12.7836 22.8158 12.87 22.5312 12.87 22.24C12.87 21.8519 12.7165 21.4795 12.443 21.2041C12.1695 20.9287 11.7982 20.7726 11.41 20.77Z" fill="#8124BB"/>
<path d="M16.56 33.85H6.26002C5.9948 33.85 5.74045 33.7446 5.55291 33.5571C5.36538 33.3696 5.26002 33.1152 5.26002 32.85V31C5.25074 30.3467 5.37141 29.6981 5.61501 29.0919C5.85861 28.4856 6.22028 27.9339 6.679 27.4686C7.13772 27.0034 7.68434 26.634 8.28708 26.3819C8.88982 26.1297 9.53667 25.9999 10.19 26H12.62C13.2738 26 13.9211 26.1297 14.5244 26.3817C15.1277 26.6337 15.675 27.0029 16.1345 27.468C16.594 27.9331 16.9566 28.4848 17.2013 29.0911C17.446 29.6974 17.568 30.3462 17.56 31V32.88C17.5522 33.14 17.4434 33.3867 17.2567 33.5678C17.07 33.7489 16.8201 33.8501 16.56 33.85ZM7.26002 31.85H15.56V31C15.568 30.6089 15.4979 30.2201 15.3537 29.8565C15.2095 29.4928 14.9942 29.1616 14.7204 28.8822C14.4466 28.6028 14.1198 28.3809 13.7591 28.2294C13.3985 28.0779 13.0112 27.9999 12.62 28H10.19C9.79928 27.9999 9.41247 28.0779 9.05235 28.2295C8.69222 28.3811 8.36606 28.6032 8.09305 28.8828C7.82004 29.1623 7.6057 29.4936 7.46263 29.8572C7.31957 30.2208 7.25068 30.6094 7.26002 31V31.85Z" fill="#8124BB"/>
<path d="M33 22.7H20.9C20.6348 22.7 20.3805 22.5947 20.1929 22.4071C20.0054 22.2196 19.9 21.9652 19.9 21.7C19.9 21.4348 20.0054 21.1804 20.1929 20.9929C20.3805 20.8054 20.6348 20.7 20.9 20.7H33C33.2652 20.7 33.5196 20.8054 33.7071 20.9929C33.8947 21.1804 34 21.4348 34 21.7C34 21.9652 33.8947 22.2196 33.7071 22.4071C33.5196 22.5947 33.2652 22.7 33 22.7Z" fill="#8124BB"/>
<path d="M31.8 26.74H21C20.7348 26.74 20.4804 26.6346 20.2929 26.4471C20.1054 26.2596 20 26.0052 20 25.74C20 25.4748 20.1054 25.2204 20.2929 25.0329C20.4804 24.8453 20.7348 24.74 21 24.74H31.8C32.0652 24.74 32.3196 24.8453 32.5071 25.0329C32.6946 25.2204 32.8 25.4748 32.8 25.74C32.8 26.0052 32.6946 26.2596 32.5071 26.4471C32.3196 26.6346 32.0652 26.74 31.8 26.74Z" fill="#8124BB"/>
<path d="M46.76 19.48L40.44 17.12H40.29C40.2235 17.1144 40.1566 17.1144 40.09 17.12C40.0235 17.1152 39.9566 17.1152 39.89 17.12H39.74L33.43 19.48C33.2386 19.5515 33.0737 19.6799 32.9575 19.848C32.8413 20.016 32.7794 20.2157 32.78 20.42V25.94C32.78 31.23 39.37 34.59 39.65 34.73H39.77H39.84C39.9231 34.7398 40.007 34.7398 40.09 34.73C40.173 34.7404 40.257 34.7404 40.34 34.73H40.42H40.54C40.82 34.59 47.41 31.23 47.41 25.94V20.42C47.4107 20.2157 47.3488 20.016 47.2325 19.848C47.1163 19.6799 46.9514 19.5515 46.76 19.48ZM45.41 25.94C45.41 29.33 41.41 31.94 40.09 32.69C38.75 31.91 34.78 29.33 34.78 25.94V21.11L40.09 19.11L45.41 21.11V25.94Z" fill="#480076"/>
<path d="M39.14 28.39C38.8762 28.3862 38.6246 28.2784 38.44 28.09L36.44 26.09C36.2537 25.9026 36.1492 25.6492 36.1492 25.385C36.1492 25.1208 36.2537 24.8673 36.44 24.68C36.6273 24.4937 36.8808 24.3892 37.145 24.3892C37.4091 24.3892 37.6626 24.4937 37.85 24.68L39.14 26L42.8 22.34C42.9873 22.1537 43.2408 22.0492 43.505 22.0492C43.7691 22.0492 44.0226 22.1537 44.21 22.34C44.3037 22.4329 44.3781 22.5436 44.4289 22.6654C44.4796 22.7873 44.5058 22.918 44.5058 23.05C44.5058 23.182 44.4796 23.3127 44.4289 23.4346C44.3781 23.5564 44.3037 23.667 44.21 23.76L39.85 28.12C39.658 28.2999 39.4029 28.3969 39.14 28.39Z" fill="#8124BB"/>
</svg>
