<svg width="48" height="48" viewBox="0 0 48 48" fill="none" xmlns="http://www.w3.org/2000/svg">
<path d="M35.51 39.53L31 27.73L30.86 27.79C30.535 28.3497 30.3116 28.9625 30.2 29.6C30.12 29.92 30.04 30.24 29.94 30.6L32.78 37.93L30.39 36.79C30.2594 36.7277 30.1168 36.6944 29.9721 36.6926C29.8274 36.6907 29.6841 36.7203 29.5519 36.7792C29.4197 36.8382 29.302 36.9251 29.2067 37.034C29.1114 37.1429 29.0409 37.2712 29 37.41L28.2 40.18L25.39 33L24.84 31.56L24.71 31.46C24.3023 31.086 23.8604 30.7512 23.39 30.46V42.71L21.72 40.62C21.6259 40.504 21.507 40.4105 21.372 40.3465C21.237 40.2825 21.0894 40.2495 20.94 40.25C20.7906 40.2495 20.643 40.2825 20.508 40.3465C20.373 40.4105 20.2541 40.504 20.16 40.62L18.48 42.71V33C18.2772 33.0023 18.0751 32.9754 17.88 32.92C17.5624 32.7991 17.2737 32.6129 17.0326 32.3735C16.7914 32.1341 16.6032 31.8467 16.48 31.53V45.56C16.4791 45.7675 16.5428 45.9701 16.6622 46.1397C16.7816 46.3094 16.9508 46.4377 17.1463 46.5069C17.3419 46.5762 17.5542 46.5828 17.7537 46.5261C17.9532 46.4693 18.1302 46.3518 18.26 46.19L20.94 42.85L23.61 46.19C23.7041 46.306 23.823 46.3995 23.958 46.4635C24.093 46.5275 24.2406 46.5605 24.39 46.56C24.502 46.562 24.6136 46.545 24.72 46.51C24.9167 46.4412 25.0871 46.3127 25.2072 46.1424C25.3273 45.972 25.3912 45.7684 25.39 45.56V38.56L27.39 43.66C27.4625 43.8479 27.5901 44.0096 27.756 44.1238C27.922 44.238 28.1185 44.2994 28.32 44.3C28.5295 44.2916 28.731 44.2175 28.8961 44.0883C29.0612 43.9591 29.1815 43.7813 29.24 43.58L30.54 39.09L34.13 40.82C34.312 40.9083 34.5164 40.9392 34.7164 40.9089C34.9163 40.8785 35.1024 40.7883 35.25 40.65C35.4033 40.5128 35.5105 40.3316 35.5571 40.1311C35.6036 39.9307 35.5871 39.7208 35.51 39.53Z" fill="#8124BB"/>
<path d="M37.14 14.11C36.65 13.8 35.74 13.22 35.65 12.95C35.6995 12.2719 35.8795 11.6098 36.18 11C36.68 9.74 37.25 8.3 36.47 7.24C35.69 6.18 34.14 6.24 32.78 6.35C32.1146 6.45517 31.4349 6.42799 30.78 6.27C30.4468 5.71325 30.2196 5.09955 30.11 4.46C29.77 3.12 29.39 1.61 28.11 1.19C26.83 0.769998 25.75 1.72 24.66 2.62C24.13 3.07 23.32 3.73 22.97 3.73C22.62 3.73 21.82 3.07 21.28 2.62C20.2 1.72 19.07 0.789998 17.83 1.19C16.59 1.59 16.17 3.12 15.83 4.46C15.7231 5.09876 15.4994 5.71235 15.17 6.27C14.5151 6.42773 13.8355 6.45491 13.17 6.35C11.8 6.26 10.26 6.16 9.47002 7.24C8.68002 8.32 9.26002 9.74 9.76002 11C10.1066 11.6157 10.3211 12.2968 10.39 13C10.3 13.27 9.39002 13.85 8.90002 14.16C7.73002 14.89 6.40002 15.73 6.40002 17.1C6.40002 18.47 7.73002 19.26 8.90002 20C9.39002 20.3 10.3 20.88 10.39 21.15C10.3402 21.8152 10.1601 22.4642 9.86002 23.06C9.36002 24.32 8.79002 25.76 9.57002 26.82C10.35 27.88 11.9 27.82 13.27 27.71C13.9358 27.6106 14.6143 27.6377 15.27 27.79C15.5994 28.3477 15.8231 28.9612 15.93 29.6C16.0724 30.2436 16.2733 30.8729 16.53 31.48C16.6532 31.7967 16.8415 32.084 17.0826 32.3235C17.3238 32.5629 17.6124 32.7491 17.93 32.87C18.1251 32.9254 18.3272 32.9523 18.53 32.95C19.6207 32.7753 20.6229 32.2443 21.38 31.44C21.68 31.19 22.06 30.88 22.38 30.65C22.573 30.4889 22.8034 30.3788 23.05 30.33C23.1813 30.3459 23.3076 30.3903 23.42 30.46C23.8904 30.7512 24.3324 31.086 24.74 31.46L24.87 31.56C25.05 31.71 25.23 31.87 25.42 32.01C26.0102 32.5721 26.7695 32.9237 27.58 33.01C27.7866 33.0095 27.9921 32.9791 28.19 32.92C28.6475 32.7075 29.0456 32.3856 29.3491 31.9827C29.6526 31.5798 29.8521 31.1084 29.93 30.61C30.03 30.29 30.11 29.97 30.19 29.61C30.3016 28.9725 30.5251 28.3597 30.85 27.8L30.99 27.74C31.5946 27.6687 32.2055 27.6687 32.81 27.74C34.17 27.83 35.72 27.93 36.5 26.85C37.28 25.77 36.71 24.35 36.21 23.09C35.9099 22.4942 35.7298 21.8452 35.68 21.18C35.77 20.91 36.68 20.33 37.17 20.03C38.35 19.29 39.68 18.45 39.68 17.08C39.68 15.71 38.32 14.85 37.14 14.11ZM36.08 18.3C35.08 18.93 34.08 19.57 33.75 20.54C33.5692 21.6598 33.77 22.8079 34.32 23.8C34.6032 24.3782 34.7858 25.0005 34.86 25.64C34.2049 25.7967 33.5255 25.8239 32.86 25.72C31.9714 25.5987 31.0677 25.653 30.2 25.88C29.9876 25.9455 29.7881 26.0469 29.61 26.18C29.1844 26.5177 28.8621 26.9681 28.68 27.48C28.4791 28.0122 28.3121 28.5566 28.18 29.11C28.0857 29.7701 27.8794 30.4093 27.57 31C26.9861 30.7284 26.4547 30.3561 26 29.9C25.81 29.73 25.61 29.57 25.41 29.41C24.8948 28.9642 24.2967 28.6243 23.65 28.41L23.41 28.35C23.2869 28.3397 23.1631 28.3397 23.04 28.35C22.545 28.3673 22.0628 28.5119 21.64 28.77C21.0855 29.1041 20.5632 29.4891 20.08 29.92C19.6156 30.3589 19.086 30.7232 18.51 31C18.1842 30.4335 17.9608 29.814 17.85 29.17C17.6836 28.2076 17.2893 27.2989 16.7 26.52C16.617 26.4169 16.5231 26.323 16.42 26.24C15.8045 25.8565 15.0833 25.678 14.36 25.73C13.97 25.73 13.57 25.73 13.17 25.73C12.5248 25.8239 11.8682 25.8036 11.23 25.67C11.2828 25.0224 11.4593 24.391 11.75 23.81C12.3001 22.8179 12.5008 21.6698 12.32 20.55C12 19.57 11 18.93 10 18.3C9.50002 17.99 8.48002 17.3 8.43002 17.05C8.38002 16.8 9.47002 16.11 10 15.8C11 15.17 12 14.53 12.32 13.56C12.5008 12.4402 12.3001 11.2921 11.75 10.3C11.4669 9.72177 11.2843 9.09954 11.21 8.46C11.8651 8.3033 12.5445 8.27613 13.21 8.38C14.3143 8.59676 15.4593 8.43469 16.46 7.92C17.2231 7.12334 17.7012 6.09671 17.82 5C17.9309 4.34968 18.1543 3.72366 18.48 3.15C18.78 3.15 19.61 3.84 20.06 4.21C20.8516 5.06035 21.9102 5.61436 23.06 5.78C24.1898 5.59874 25.2255 5.04213 26 4.2C26.4591 3.76635 26.9818 3.40551 27.55 3.13C27.8945 3.70305 28.1222 4.33858 28.22 5C28.3559 6.10901 28.8594 7.14054 29.65 7.93C30.6536 8.44696 31.8026 8.60908 32.91 8.39C33.5552 8.29672 34.2118 8.31703 34.85 8.45C34.7894 9.09734 34.6097 9.72792 34.32 10.31C33.77 11.3021 33.5692 12.4502 33.75 13.57C34.06 14.57 35.09 15.18 36.07 15.81C36.57 16.12 37.59 16.76 37.65 17.06C37.71 17.36 36.57 18 36.08 18.3Z" fill="#480076"/>
<path d="M23 6.56999C20.7155 6.57578 18.4956 7.32859 16.6789 8.71361C14.8621 10.0986 13.5482 12.0398 12.9375 14.2412C12.3269 16.4426 12.4529 18.7832 13.2965 20.9063C14.1401 23.0293 15.655 24.8181 17.61 26C18.672 26.6517 19.8449 27.1026 21.07 27.33C21.7126 27.4541 22.3655 27.5177 23.02 27.52H23.28C23.9907 27.5023 24.6977 27.4118 25.39 27.25C27.0556 26.863 28.6008 26.0733 29.89 24.95C31.5043 23.5501 32.6516 21.6898 33.178 19.6189C33.7043 17.548 33.5844 15.3656 32.8344 13.3649C32.0843 11.3641 30.7401 9.64067 28.9822 8.42605C27.2242 7.21143 25.1367 6.56376 23 6.56999ZM29.09 22.94C28.3025 23.7607 27.3568 24.4132 26.3101 24.8584C25.2634 25.3035 24.1374 25.532 23 25.53C22.4968 25.5289 21.9947 25.4821 21.5 25.39C19.6354 25.057 17.9357 24.11 16.6712 22.6997C15.4068 21.2894 14.6503 19.4968 14.5221 17.607C14.3938 15.7172 14.9012 13.8389 15.9635 12.2707C17.0258 10.7025 18.582 9.53457 20.3846 8.95272C22.1871 8.37087 24.1325 8.40851 25.9112 9.05964C27.6898 9.71078 29.1997 10.938 30.2006 12.5461C31.2014 14.1542 31.6358 16.0508 31.4345 17.9342C31.2333 19.8176 30.408 21.5797 29.09 22.94Z" fill="#480076"/>
<path d="M30 14.88C29.9398 14.7027 29.831 14.546 29.686 14.4275C29.541 14.3091 29.3657 14.2337 29.18 14.21L25.56 13.73L23.9 10.48C23.8162 10.3136 23.6875 10.1739 23.5284 10.0767C23.3694 9.9795 23.1864 9.92869 23 9.92999C22.8133 9.93239 22.6309 9.98706 22.4736 10.0878C22.3163 10.1885 22.1903 10.3313 22.11 10.5L20.54 13.8L16.93 14.37C16.7444 14.3985 16.5705 14.4787 16.4284 14.6014C16.2862 14.7242 16.1814 14.8844 16.1261 15.0639C16.0708 15.2434 16.0672 15.4349 16.1156 15.6163C16.1641 15.7978 16.2626 15.9619 16.4 16.09L19 18.6L18.43 22.21C18.3954 22.3984 18.4156 22.5929 18.4883 22.7701C18.561 22.9474 18.6831 23.1001 18.84 23.21C19.01 23.3287 19.2127 23.3916 19.42 23.39C19.5876 23.3908 19.7526 23.3496 19.9 23.27L23.11 21.53L26 23L26.35 23.18C26.5161 23.2642 26.7023 23.3004 26.8879 23.2845C27.0734 23.2686 27.2507 23.2012 27.4 23.09C27.5534 22.9776 27.6715 22.8239 27.7406 22.6467C27.8096 22.4696 27.8268 22.2765 27.79 22.09L27.13 18.52L29.71 15.94C29.8566 15.8109 29.9622 15.6418 30.0137 15.4534C30.0652 15.265 30.0605 15.0657 30 14.88ZM25.12 18.34L25.51 20.45L23.59 19.45C23.4466 19.3747 23.287 19.3353 23.125 19.3353C22.963 19.3353 22.8035 19.3747 22.66 19.45L20.77 20.45L21.11 18.32C21.135 18.16 21.1208 17.9963 21.0685 17.843C21.0163 17.6897 20.9276 17.5514 20.81 17.44L19.2 16L21.32 15.66C21.4802 15.6359 21.6322 15.5733 21.7629 15.4775C21.8935 15.3817 21.9989 15.2556 22.07 15.11L22.99 13.11L23.99 15.03C24.0633 15.175 24.1708 15.2999 24.3033 15.394C24.4357 15.4881 24.589 15.5485 24.75 15.57L26.89 15.85L25.36 17.37C25.2298 17.4912 25.1342 17.6451 25.0832 17.8156C25.0322 17.9861 25.0277 18.1671 25.07 18.34H25.12Z" fill="#8124BB"/>
</svg>
