<svg width="48" height="48" viewBox="0 0 48 48" fill="none" xmlns="http://www.w3.org/2000/svg">
<path d="M23.77 16.44H12.27C12.0662 16.3767 11.888 16.2499 11.7615 16.078C11.6349 15.9062 11.5667 15.6984 11.5667 15.485C11.5667 15.2716 11.6349 15.0638 11.7615 14.892C11.888 14.7201 12.0662 14.5933 12.27 14.53H23.77C23.9738 14.5933 24.1521 14.7201 24.2786 14.892C24.4052 15.0638 24.4734 15.2716 24.4734 15.485C24.4734 15.6984 24.4052 15.9062 24.2786 16.078C24.1521 16.2499 23.9738 16.3767 23.77 16.44Z" fill="#8124BB"/>
<path d="M24 23.54H12.29C12.1417 23.5803 11.986 23.5859 11.8352 23.5563C11.6844 23.5267 11.5425 23.4628 11.4204 23.3694C11.2983 23.2761 11.1993 23.1559 11.1312 23.0181C11.0631 22.8803 11.0277 22.7287 11.0277 22.575C11.0277 22.4213 11.0631 22.2697 11.1312 22.1319C11.1993 21.9941 11.2983 21.8739 11.4204 21.7806C11.5425 21.6872 11.6844 21.6233 11.8352 21.5937C11.986 21.5641 12.1417 21.5697 12.29 21.61H24C24.2118 21.6676 24.3988 21.7933 24.5321 21.9677C24.6655 22.1421 24.7377 22.3555 24.7377 22.575C24.7377 22.7945 24.6655 23.008 24.5321 23.1824C24.3988 23.3568 24.2118 23.4824 24 23.54Z" fill="#8124BB"/>
<path d="M25.81 20.05H12.29C12.1417 20.0903 11.986 20.0959 11.8352 20.0663C11.6844 20.0367 11.5425 19.9728 11.4204 19.8794C11.2983 19.7861 11.1993 19.6659 11.1312 19.5281C11.0631 19.3903 11.0277 19.2387 11.0277 19.085C11.0277 18.9313 11.0631 18.7797 11.1312 18.6419C11.1993 18.5041 11.2983 18.3839 11.4204 18.2906C11.5425 18.1972 11.6844 18.1333 11.8352 18.1037C11.986 18.0741 12.1417 18.0797 12.29 18.12H25.81C25.9583 18.0797 26.1139 18.0741 26.2647 18.1037C26.4155 18.1333 26.5575 18.1972 26.6796 18.2906C26.8017 18.3839 26.9006 18.5041 26.9687 18.6419C27.0368 18.7797 27.0722 18.9313 27.0722 19.085C27.0722 19.2387 27.0368 19.3903 26.9687 19.5281C26.9006 19.6659 26.8017 19.7861 26.6796 19.8794C26.5575 19.9728 26.4155 20.0367 26.2647 20.0663C26.1139 20.0959 25.9583 20.0903 25.81 20.05Z" fill="#8124BB"/>
<path d="M25.81 27H12.29C12.1417 27.0403 11.986 27.0459 11.8352 27.0163C11.6844 26.9867 11.5425 26.9228 11.4204 26.8294C11.2983 26.7361 11.1993 26.6159 11.1312 26.4781C11.0631 26.3403 11.0277 26.1887 11.0277 26.035C11.0277 25.8813 11.0631 25.7297 11.1312 25.5919C11.1993 25.4541 11.2983 25.3339 11.4204 25.2406C11.5425 25.1472 11.6844 25.0833 11.8352 25.0537C11.986 25.0241 12.1417 25.0297 12.29 25.07H25.81C25.9583 25.0297 26.1139 25.0241 26.2647 25.0537C26.4155 25.0833 26.5575 25.1472 26.6796 25.2406C26.8017 25.3339 26.9006 25.4541 26.9687 25.5919C27.0368 25.7297 27.0722 25.8813 27.0722 26.035C27.0722 26.1887 27.0368 26.3403 26.9687 26.4781C26.9006 26.6159 26.8017 26.7361 26.6796 26.8294C26.5575 26.9228 26.4155 26.9867 26.2647 27.0163C26.1139 27.0459 25.9583 27.0403 25.81 27Z" fill="#8124BB"/>
<path d="M24 30.52H12.29C12.1417 30.5603 11.986 30.5659 11.8352 30.5363C11.6844 30.5067 11.5425 30.4428 11.4204 30.3494C11.2983 30.2561 11.1993 30.1359 11.1312 29.9981C11.0631 29.8603 11.0277 29.7087 11.0277 29.555C11.0277 29.4013 11.0631 29.2497 11.1312 29.1119C11.1993 28.9741 11.2983 28.8539 11.4204 28.7606C11.5425 28.6672 11.6844 28.6033 11.8352 28.5737C11.986 28.5441 12.1417 28.5497 12.29 28.59H24C24.2118 28.6476 24.3988 28.7732 24.5321 28.9476C24.6655 29.122 24.7377 29.3355 24.7377 29.555C24.7377 29.7745 24.6655 29.9879 24.5321 30.1623C24.3988 30.3367 24.2118 30.4624 24 30.52Z" fill="#8124BB"/>
<path d="M28.48 33.52H14.88C14.6413 33.5353 14.4173 33.641 14.2538 33.8157C14.0903 33.9903 13.9996 34.2207 14 34.46V36.37C14 37.75 13.29 39.14 11.72 39.14C10.9974 39.0403 10.3358 38.6808 9.8591 38.1286C9.38238 37.5764 9.1232 36.8695 9.13004 36.14V14.26V12.33C9.1497 11.3415 8.90824 10.3653 8.43004 9.5H25.44C26.2357 9.5 26.9988 9.81607 27.5614 10.3787C28.124 10.9413 28.44 11.7043 28.44 12.5V20.2C28.9989 19.7523 29.6365 19.4132 30.32 19.2V12.54C30.3174 11.2359 29.7982 9.98606 28.8761 9.06395C27.954 8.14184 26.7041 7.62264 25.4 7.62H6.40004C6.40004 7.62 4.84004 7.62 4.74004 7.7C3.67097 7.90222 2.70944 8.48004 2.02908 9.32912C1.34872 10.1782 0.994379 11.2425 1.03004 12.33V14.24C1.03004 14.4866 1.12802 14.7232 1.30243 14.8976C1.47684 15.072 1.71339 15.17 1.96004 15.17H4.58004H7.20004V36.17C7.20269 37.4731 7.72221 38.722 8.64461 39.6425C9.567 40.563 10.8169 41.08 12.12 41.08H31.34H31.83H31.93C32.08 41.08 32.21 41.08 32.35 41.08H32.46C33.5317 40.9097 34.4997 40.3415 35.1707 39.4888C35.8418 38.6361 36.1665 37.5616 36.08 36.48V34.48C36.08 34.2307 35.981 33.9916 35.8047 33.8153C35.6284 33.639 35.3893 33.54 35.14 33.54H30.36V30.54C29.6756 30.3291 29.0375 29.9897 28.48 29.54V33.52ZM7.20004 13.3H3.00004V12.3C2.98673 11.6348 3.21416 10.9872 3.64045 10.4764C4.06674 9.96556 4.6632 9.62593 5.32004 9.52C5.73512 9.54386 6.12835 9.71391 6.43004 10C6.97576 10.6493 7.25139 11.4834 7.20004 12.33V13.3ZM34.2 35.4V36.4C34.2672 37.0065 34.1129 37.6167 33.7655 38.1184C33.4182 38.6201 32.9013 38.9794 32.31 39.13H15.06C15.5948 38.2876 15.8727 37.3077 15.86 36.31V35.31H34.21L34.2 35.4Z" fill="#480076"/>
<path d="M46.37 34.37L39.19 27.18H39.13C39.7085 25.806 39.8137 24.2786 39.4289 22.8382C39.0442 21.3979 38.1914 20.1264 37.0048 19.2238C35.8182 18.3212 34.3651 17.8389 32.8744 17.8527C31.3836 17.8665 29.9397 18.3756 28.77 19.3C28.547 19.4534 28.3364 19.6239 28.14 19.81C26.8778 21.0786 26.1692 22.7954 26.1692 24.585C26.1692 26.3746 26.8778 28.0914 28.14 29.36C28.3382 29.5502 28.5487 29.7272 28.77 29.89C29.405 30.3889 30.1273 30.7653 30.9 31C32.4093 31.4754 34.0377 31.4046 35.5 30.8L42.72 38C42.9597 38.2397 43.2442 38.4298 43.5573 38.5595C43.8704 38.6892 44.2061 38.7559 44.545 38.7559C44.8839 38.7559 45.2195 38.6892 45.5327 38.5595C45.8458 38.4298 46.1303 38.2397 46.37 38C46.6097 37.7603 46.7998 37.4758 46.9295 37.1627C47.0592 36.8496 47.1259 36.5139 47.1259 36.175C47.1259 35.8361 47.0592 35.5005 46.9295 35.1873C46.7998 34.8742 46.6097 34.5897 46.37 34.35V34.37ZM30.9 28.85C30.3975 28.6188 29.9377 28.3044 29.54 27.92C29.2344 27.605 28.9751 27.2481 28.77 26.86C28.3768 26.1554 28.1704 25.3619 28.1704 24.555C28.1704 23.7481 28.3768 22.9546 28.77 22.25C28.9751 21.862 29.2344 21.5051 29.54 21.19C29.9325 20.7993 30.3935 20.4841 30.9 20.26C31.624 19.9181 32.4226 19.7647 33.2218 19.8141C34.0209 19.8635 34.7946 20.1141 35.4709 20.5426C36.1473 20.9711 36.7043 21.5637 37.0903 22.2652C37.4763 22.9667 37.6787 23.7543 37.6787 24.555C37.6787 25.3557 37.4763 26.1434 37.0903 26.8448C36.7043 27.5463 36.1473 28.1389 35.4709 28.5674C34.7946 28.9959 34.0209 29.2465 33.2218 29.296C32.4226 29.3454 31.624 29.192 30.9 28.85ZM38 30.53L37.18 29.7C37.3401 29.5853 37.4936 29.4618 37.64 29.33C37.7751 29.1803 37.9019 29.0234 38.02 28.86L38.84 29.68L38 30.53ZM45 36.6C44.946 36.6553 44.8814 36.6993 44.8102 36.7293C44.7389 36.7594 44.6623 36.7748 44.585 36.7748C44.5077 36.7748 44.4311 36.7594 44.3598 36.7293C44.2886 36.6993 44.224 36.6553 44.17 36.6L39.48 31.92L40.33 31.08L45 35.77C45.1093 35.8805 45.1706 36.0296 45.1706 36.185C45.1706 36.3404 45.1093 36.4895 45 36.6Z" fill="#480076"/>
</svg>
