<svg width="48" height="48" viewBox="0 0 48 48" fill="none" xmlns="http://www.w3.org/2000/svg">
<path d="M31.38 40.37C28.4133 40.37 25.5132 39.4903 23.0465 37.842C20.5797 36.1938 18.6571 33.8511 17.5218 31.1103C16.3865 28.3694 16.0895 25.3534 16.6682 22.4436C17.247 19.5339 18.6756 16.8612 20.7734 14.7634C22.8712 12.6656 25.5439 11.237 28.4537 10.6582C31.3634 10.0794 34.3794 10.3765 37.1203 11.5118C39.8612 12.6471 42.2038 14.5697 43.8521 17.0364C45.5003 19.5032 46.38 22.4033 46.38 25.37C46.38 29.3482 44.7997 33.1636 41.9866 35.9766C39.1736 38.7896 35.3583 40.37 31.38 40.37ZM31.38 12.37C28.8089 12.37 26.2954 13.1324 24.1576 14.5609C22.0198 15.9894 20.3535 18.0197 19.3696 20.3951C18.3856 22.7706 18.1282 25.3844 18.6298 27.9062C19.1314 30.4279 20.3695 32.7443 22.1876 34.5624C24.0057 36.3805 26.3221 37.6186 28.8438 38.1202C31.3656 38.6218 33.9795 38.3644 36.3549 37.3804C38.7303 36.3965 40.7607 34.7303 42.1891 32.5924C43.6176 30.4546 44.38 27.9412 44.38 25.37C44.38 21.9222 43.0104 18.6156 40.5724 16.1776C38.1344 13.7396 34.8278 12.37 31.38 12.37Z" fill="#480076"/>
<path d="M31.2899 36.7C29.0463 36.702 26.8524 36.0383 24.986 34.793C23.1196 33.5477 21.6646 31.7768 20.8051 29.7042C19.9455 27.6317 19.7201 25.3508 20.1574 23.1501C20.5946 20.9494 21.6748 18.9279 23.2614 17.3414C24.8479 15.7549 26.8694 14.6746 29.0701 14.2374C31.2708 13.8002 33.5517 14.0256 35.6242 14.8851C37.6967 15.7447 39.4677 17.1997 40.713 19.0661C41.9583 20.9324 42.6219 23.1263 42.6199 25.37C42.6147 28.3733 41.4193 31.252 39.2956 33.3757C37.172 35.4993 34.2932 36.6947 31.2899 36.7ZM31.2899 16.03C29.4422 16.028 27.6355 16.5741 26.0982 17.5992C24.5609 18.6243 23.3622 20.0823 22.6538 21.7888C21.9453 23.4953 21.7589 25.3736 22.1182 27.186C22.4774 28.9984 23.3662 30.6636 24.672 31.9708C25.9779 33.278 27.6421 34.1686 29.4541 34.5298C31.2662 34.891 33.1446 34.7066 34.8519 34C36.5591 33.2934 38.0184 32.0962 39.0452 30.5601C40.0719 29.0239 40.6199 27.2177 40.6199 25.37C40.6226 24.1421 40.3833 22.9258 39.9159 21.7904C39.4484 20.655 38.7619 19.6228 37.8955 18.7527C37.0292 17.8826 35.9999 17.1917 34.8665 16.7194C33.7331 16.2471 32.5178 16.0026 31.2899 16V16.03Z" fill="#480076"/>
<path d="M31.15 28.55C30.9133 28.5538 30.6828 28.4735 30.4997 28.3234C30.3165 28.1732 30.1926 27.9629 30.15 27.73L29.73 25.34C29.7077 25.2087 29.7115 25.0742 29.7411 24.9444C29.7707 24.8145 29.8257 24.6917 29.9027 24.5831C29.9798 24.4744 30.0775 24.382 30.1903 24.3112C30.3031 24.2403 30.4287 24.1923 30.56 24.17C30.6914 24.1477 30.8258 24.1514 30.9557 24.1811C31.0855 24.2107 31.2083 24.2656 31.3169 24.3427C31.4256 24.4197 31.518 24.5175 31.5889 24.6302C31.6597 24.743 31.7077 24.8687 31.73 25L32.15 27.38C32.173 27.5101 32.1699 27.6434 32.1411 27.7723C32.1122 27.9012 32.0581 28.023 31.9818 28.1309C31.9056 28.2387 31.8087 28.3304 31.6969 28.4006C31.585 28.4709 31.4603 28.5182 31.33 28.54L31.15 28.55Z" fill="#8124BB"/>
<path d="M30.74 26.14C30.6036 26.1408 30.4685 26.1138 30.343 26.0605C30.2174 26.0072 30.1041 25.9287 30.01 25.83C29.8238 25.6426 29.7192 25.3892 29.7192 25.125C29.7192 24.8608 29.8238 24.6074 30.01 24.42L33.22 21.42C33.4074 21.2338 33.6608 21.1292 33.925 21.1292C34.1892 21.1292 34.4427 21.2338 34.63 21.42C34.7238 21.513 34.7982 21.6236 34.8489 21.7454C34.8997 21.8673 34.9258 21.998 34.9258 22.13C34.9258 22.262 34.8997 22.3927 34.8489 22.5146C34.7982 22.6364 34.7238 22.747 34.63 22.84L31.42 25.84C31.2403 26.0237 30.9968 26.1311 30.74 26.14Z" fill="#8124BB"/>
<path d="M13.2801 24H8.93005C8.66484 24 8.41048 23.8946 8.22295 23.7071C8.03541 23.5196 7.93005 23.2652 7.93005 23C7.93005 22.7348 8.03541 22.4804 8.22295 22.2929C8.41048 22.1054 8.66484 22 8.93005 22H13.2801C13.5453 22 13.7996 22.1054 13.9872 22.2929C14.1747 22.4804 14.2801 22.7348 14.2801 23C14.2801 23.2652 14.1747 23.5196 13.9872 23.7071C13.7996 23.8946 13.5453 24 13.2801 24Z" fill="#8124BB"/>
<path d="M15.21 19H7C6.73478 19 6.48043 18.8946 6.29289 18.7071C6.10536 18.5196 6 18.2652 6 18C6 17.7348 6.10536 17.4804 6.29289 17.2929C6.48043 17.1054 6.73478 17 7 17H15.22C15.4852 17 15.7396 17.1054 15.9271 17.2929C16.1146 17.4804 16.22 17.7348 16.22 18C16.22 18.2652 16.1146 18.5196 15.9271 18.7071C15.7396 18.8946 15.4852 19 15.22 19H15.21Z" fill="#8124BB"/>
<path d="M16 33.93H9.52002C9.2548 33.93 9.00045 33.8246 8.81291 33.6371C8.62538 33.4496 8.52002 33.1952 8.52002 32.93C8.52002 32.6648 8.62538 32.4104 8.81291 32.2229C9.00045 32.0353 9.2548 31.93 9.52002 31.93H16C16.2652 31.93 16.5196 32.0353 16.7071 32.2229C16.8947 32.4104 17 32.6648 17 32.93C17 33.1952 16.8947 33.4496 16.7071 33.6371C16.5196 33.8246 16.2652 33.93 16 33.93Z" fill="#8124BB"/>
<path d="M13.34 29H2.61999C2.35478 29 2.10042 28.8946 1.91289 28.7071C1.72535 28.5196 1.62 28.2652 1.62 28C1.62 27.7348 1.72535 27.4804 1.91289 27.2929C2.10042 27.1054 2.35478 27 2.61999 27H13.34C13.6052 27 13.8596 27.1054 14.0471 27.2929C14.2346 27.4804 14.34 27.7348 14.34 28C14.34 28.2652 14.2346 28.5196 14.0471 28.7071C13.8596 28.8946 13.6052 29 13.34 29Z" fill="#8124BB"/>
<path d="M24.89 25.84H24C23.7348 25.84 23.4804 25.7346 23.2929 25.5471C23.1054 25.3596 23 25.1052 23 24.84C23 24.5748 23.1054 24.3204 23.2929 24.1329C23.4804 23.9454 23.7348 23.84 24 23.84H24.91C25.1752 23.84 25.4296 23.9454 25.6171 24.1329C25.8046 24.3204 25.91 24.5748 25.91 24.84C25.91 25.1052 25.8046 25.3596 25.6171 25.5471C25.4296 25.7346 25.1752 25.84 24.91 25.84H24.89Z" fill="#480076"/>
<path d="M38.78 25.93H37.86C37.5948 25.93 37.3404 25.8246 37.1529 25.6371C36.9653 25.4496 36.86 25.1952 36.86 24.93C36.86 24.6648 36.9653 24.4104 37.1529 24.2229C37.3404 24.0353 37.5948 23.93 37.86 23.93H38.78C39.0452 23.93 39.2996 24.0353 39.4871 24.2229C39.6746 24.4104 39.78 24.6648 39.78 24.93C39.78 25.1952 39.6746 25.4496 39.4871 25.6371C39.2996 25.8246 39.0452 25.93 38.78 25.93Z" fill="#480076"/>
<path d="M31.38 19.86C31.1148 19.86 30.8604 19.7546 30.6729 19.5671C30.4854 19.3796 30.38 19.1252 30.38 18.86V17.94C30.38 17.6748 30.4854 17.4204 30.6729 17.2329C30.8604 17.0454 31.1148 16.94 31.38 16.94C31.6452 16.94 31.8996 17.0454 32.0871 17.2329C32.2747 17.4204 32.38 17.6748 32.38 17.94V18.86C32.38 19.1252 32.2747 19.3796 32.0871 19.5671C31.8996 19.7546 31.6452 19.86 31.38 19.86Z" fill="#480076"/>
<path d="M31.29 33.74C31.0248 33.74 30.7705 33.6346 30.5829 33.4471C30.3954 33.2596 30.29 33.0052 30.29 32.74V31.83C30.29 31.5648 30.3954 31.3104 30.5829 31.1229C30.7705 30.9353 31.0248 30.83 31.29 30.83C31.5553 30.83 31.8096 30.9353 31.9971 31.1229C32.1847 31.3104 32.29 31.5648 32.29 31.83V32.74C32.29 33.0052 32.1847 33.2596 31.9971 33.4471C31.8096 33.6346 31.5553 33.74 31.29 33.74Z" fill="#480076"/>
<path d="M33.08 12.47H29.08C28.8147 12.47 28.5604 12.3646 28.3728 12.1771C28.1853 11.9896 28.08 11.7352 28.08 11.47V8.63C28.08 8.36479 28.1853 8.11043 28.3728 7.9229C28.5604 7.73536 28.8147 7.63 29.08 7.63H33.08C33.3452 7.63 33.5995 7.73536 33.7871 7.9229C33.9746 8.11043 34.08 8.36479 34.08 8.63V11.47C34.08 11.7352 33.9746 11.9896 33.7871 12.1771C33.5995 12.3646 33.3452 12.47 33.08 12.47ZM30.08 10.47H32.08V9.63H30.08V10.47Z" fill="#480076"/>
</svg>
