<svg width="48" height="48" viewBox="0 0 48 48" fill="none" xmlns="http://www.w3.org/2000/svg">
<path d="M18.2 12.76H9.65002C9.38481 12.76 9.13045 12.6547 8.94292 12.4671C8.75538 12.2796 8.65002 12.0252 8.65002 11.76C8.65002 11.4948 8.75538 11.2404 8.94292 11.0529C9.13045 10.8654 9.38481 10.76 9.65002 10.76H18.2C18.4652 10.76 18.7196 10.8654 18.9071 11.0529C19.0947 11.2404 19.2 11.4948 19.2 11.76C19.2 12.0252 19.0947 12.2796 18.9071 12.4671C18.7196 12.6547 18.4652 12.76 18.2 12.76Z" fill="#480076"/>
<path d="M33.9999 37.09C33.6183 37.2479 33.2234 37.3717 32.8199 37.46V41.46H6.56995V7.66H32.8499V24.19C33.5542 24.341 34.2295 24.6044 34.8499 24.97V6.66C34.8499 6.39479 34.7446 6.14043 34.5571 5.9529C34.3695 5.76536 34.1152 5.66 33.8499 5.66H5.56995C5.30473 5.66 5.05038 5.76536 4.86284 5.9529C4.6753 6.14043 4.56995 6.39479 4.56995 6.66V42.46C4.56995 42.7252 4.6753 42.9796 4.86284 43.1671C5.05038 43.3546 5.30473 43.46 5.56995 43.46H33.8499C34.1152 43.46 34.3695 43.3546 34.5571 43.1671C34.7446 42.9796 34.8499 42.7252 34.8499 42.46V37.94L34.0599 37.15L33.9999 37.09Z" fill="#480076"/>
<path d="M12.01 26.67L12 26.68H26.03L26.04 26.67H12.01Z" fill="#480076"/>
<path d="M9.10003 28.13C9.01719 27.963 8.98267 27.7763 9.00033 27.5907C9.018 27.4052 9.08717 27.2283 9.20002 27.08L10.65 25.14V16.34H28.77V24.56C29.4064 24.2896 30.0813 24.1209 30.77 24.06V15.34C30.77 15.0748 30.6647 14.8204 30.4771 14.6329C30.2896 14.4454 30.0352 14.34 29.77 14.34H9.65002C9.38481 14.34 9.13045 14.4454 8.94292 14.6329C8.75538 14.8204 8.65002 15.0748 8.65002 15.34V27.67C8.65002 27.9352 8.75538 28.1896 8.94292 28.3771C9.13045 28.5646 9.38481 28.67 9.65002 28.67H9.91002C9.74019 28.6564 9.57664 28.5997 9.43488 28.5052C9.29312 28.4107 9.17786 28.2816 9.10003 28.13Z" fill="#8124BB"/>
<path d="M8.65002 34C8.65002 34.2652 8.75538 34.5196 8.94292 34.7071C9.13045 34.8946 9.38481 35 9.65002 35H25.65C25.7841 34.9997 25.9167 34.9725 26.04 34.92C25.5909 34.3411 25.2395 33.6925 25 33H9.65002C9.38481 33 9.13045 33.1054 8.94292 33.2929C8.75538 33.4804 8.65002 33.7348 8.65002 34Z" fill="#480076"/>
<path d="M21.71 36.32H9.65002C9.38481 36.32 9.13045 36.4254 8.94292 36.6129C8.75538 36.8004 8.65002 37.0548 8.65002 37.32C8.65002 37.5852 8.75538 37.8396 8.94292 38.0271C9.13045 38.2147 9.38481 38.32 9.65002 38.32H21.71C21.9752 38.32 22.2296 38.2147 22.4171 38.0271C22.6047 37.8396 22.71 37.5852 22.71 37.32C22.71 37.0548 22.6047 36.8004 22.4171 36.6129C22.2296 36.4254 21.9752 36.32 21.71 36.32Z" fill="#480076"/>
<path d="M20.11 25.86C20.1946 25.9709 20.3015 26.0629 20.4238 26.1301C20.546 26.1973 20.681 26.2381 20.82 26.25C20.9571 26.2629 21.0953 26.2473 21.2261 26.2043C21.3569 26.1613 21.4774 26.0917 21.58 26L23.79 24L26.34 26.31C26.43 26.21 26.51 26.11 26.61 26.01C26.9987 25.6265 27.4318 25.2908 27.9 25.01L24.46 21.91C24.2763 21.7442 24.0375 21.6524 23.79 21.6524C23.5425 21.6524 23.3038 21.7442 23.12 21.91L21.05 23.78L17.16 18.61C17.0667 18.4877 16.9464 18.3886 16.8085 18.3203C16.6706 18.2521 16.5189 18.2166 16.365 18.2166C16.2112 18.2166 16.0594 18.2521 15.9215 18.3203C15.7836 18.3886 15.6633 18.4877 15.57 18.61L10.65 25.14V26.67H12L16.36 20.87L20.11 25.86Z" fill="#8124BB"/>
<path d="M26 26.68H10.65V25.14L9.20004 27.08C9.08719 27.2283 9.01802 27.4052 9.00035 27.5908C8.98269 27.7763 9.01721 27.9631 9.10005 28.13C9.17788 28.2816 9.29314 28.4107 9.4349 28.5052C9.57666 28.5997 9.74021 28.6565 9.91004 28.67H25C25.2177 27.9546 25.5559 27.2816 26 26.68Z" fill="#8124BB"/>
<path d="M25.62 17.88C25.3593 17.8898 25.1072 17.9761 24.8952 18.128C24.6831 18.28 24.5205 18.491 24.4274 18.7347C24.3344 18.9784 24.3151 19.2442 24.3719 19.4988C24.4287 19.7534 24.5592 19.9857 24.747 20.1667C24.9349 20.3477 25.1718 20.4695 25.4283 20.5169C25.6849 20.5643 25.9497 20.5352 26.1898 20.4333C26.4299 20.3313 26.6348 20.161 26.7788 19.9434C26.9229 19.7259 26.9998 19.4709 27 19.21C27.0015 19.0306 26.9665 18.8529 26.897 18.6875C26.8276 18.5221 26.7252 18.3727 26.596 18.2482C26.4669 18.1237 26.3137 18.0269 26.1459 17.9636C25.9781 17.9003 25.7991 17.8718 25.62 17.88Z" fill="#480076"/>
<path d="M10.51 31.46C10.6801 31.46 10.8464 31.4096 10.9878 31.3151C11.1292 31.2206 11.2395 31.0862 11.3046 30.9291C11.3697 30.772 11.3867 30.599 11.3535 30.4322C11.3203 30.2654 11.2384 30.1122 11.1181 29.9919C10.9979 29.8716 10.8446 29.7897 10.6778 29.7565C10.511 29.7233 10.3381 29.7404 10.1809 29.8055C10.0238 29.8705 9.88946 29.9808 9.79496 30.1222C9.70046 30.2636 9.65002 30.4299 9.65002 30.6C9.65002 30.8281 9.74063 31.0468 9.90191 31.2081C10.0632 31.3694 10.2819 31.46 10.51 31.46Z" fill="#480076"/>
<path d="M13.12 31.46C13.595 31.46 13.98 31.075 13.98 30.6C13.98 30.125 13.595 29.74 13.12 29.74C12.645 29.74 12.26 30.125 12.26 30.6C12.26 31.075 12.645 31.46 13.12 31.46Z" fill="#480076"/>
<path d="M45 40.7L37.77 33.47C37.77 33.47 37.77 33.47 37.72 33.47C38.3642 31.952 38.4277 30.2501 37.8985 28.6883C37.3693 27.1265 36.2843 25.8137 34.85 25C34.2295 24.6344 33.5542 24.371 32.85 24.22C31.4844 23.919 30.0592 24.0483 28.77 24.59C28.4701 24.72 28.1794 24.8703 27.9 25.04C27.4317 25.3208 26.9987 25.6565 26.61 26.04C26.51 26.14 26.43 26.24 26.34 26.34L26.03 26.71C25.5672 27.3111 25.2119 27.9877 24.98 28.71H27.15C27.3626 28.2404 27.6496 27.8082 28 27.43C28.422 27.0108 28.9167 26.672 29.46 26.43C29.8717 26.2542 30.3059 26.1364 30.75 26.08C30.9617 26.0452 31.1755 26.0251 31.39 26.02C32.6582 26.0467 33.8707 26.546 34.79 27.42V27.48C35.6563 28.3721 36.1408 29.5666 36.1408 30.81C36.1408 32.0534 35.6563 33.2479 34.79 34.14V34.2C34.2316 34.7489 33.5437 35.1479 32.79 35.36C31.8946 35.6531 30.9322 35.6732 30.0253 35.4179C29.1184 35.1626 28.3079 34.6434 27.6968 33.9262C27.0858 33.2091 26.7019 32.3264 26.5938 31.3904C26.4857 30.4545 26.6585 29.5075 27.09 28.67H25C24.5325 30.0755 24.5325 31.5945 25 33C25.2272 33.6899 25.565 34.3383 26 34.92C26.1863 35.1615 26.3867 35.3919 26.6 35.61C27.2291 36.2428 27.977 36.7453 28.8006 37.0885C29.6243 37.4317 30.5077 37.6089 31.4 37.61C31.8843 37.6073 32.3669 37.5537 32.84 37.45C33.2364 37.3638 33.6245 37.2434 34 37.09V37.15L34.79 37.94L41.24 44.38C41.477 44.6221 41.7603 44.8141 42.0729 44.9447C42.3855 45.0752 42.7212 45.1416 43.06 45.14C43.4188 45.1508 43.776 45.0881 44.1097 44.9557C44.4433 44.8233 44.7463 44.6239 45 44.37C45.4855 43.8827 45.7581 43.2229 45.7581 42.535C45.7581 41.8471 45.4855 41.1873 45 40.7ZM36.61 36.84L35.77 36C35.9268 35.8745 36.077 35.741 36.22 35.6L36.62 35.15L37.43 35.96L36.61 36.84ZM43.61 42.96C43.4992 43.0731 43.3483 43.1377 43.19 43.14C43.0362 43.1399 42.8887 43.0788 42.78 42.97L38 38.25L38.85 37.4L43.57 42.12C43.6256 42.1749 43.6698 42.2403 43.7 42.3124C43.7301 42.3845 43.7456 42.4619 43.7456 42.54C43.7456 42.6182 43.7301 42.6955 43.7 42.7676C43.6698 42.8397 43.6256 42.9051 43.57 42.96H43.61Z" fill="#8124BB"/>
</svg>
