<svg width="48" height="48" viewBox="0 0 48 48" fill="none" xmlns="http://www.w3.org/2000/svg">
<path d="M26.5315 19.9478H13.3582C13.0693 19.9478 12.7923 19.833 12.588 19.6287C12.3837 19.4245 12.2689 19.1474 12.2689 18.8585C12.2689 18.5696 12.3837 18.2925 12.588 18.0882C12.7923 17.884 13.0693 17.7692 13.3582 17.7692H26.5315C26.8204 17.7692 27.0975 17.884 27.3018 18.0882C27.5061 18.2925 27.6208 18.5696 27.6208 18.8585C27.6208 19.1474 27.5061 19.4245 27.3018 19.6287C27.0975 19.833 26.8204 19.9478 26.5315 19.9478Z" fill="#8124BB"/>
<path d="M26.5316 27.6776H13.3583C13.0712 27.6749 12.7967 27.5589 12.5947 27.3549C12.3926 27.1509 12.2793 26.8754 12.2793 26.5883C12.2793 26.3011 12.3926 26.0256 12.5947 25.8216C12.7967 25.6176 13.0712 25.5017 13.3583 25.4989H26.5316C26.8187 25.5017 27.0931 25.6176 27.2951 25.8216C27.4972 26.0256 27.6105 26.3011 27.6105 26.5883C27.6105 26.8754 27.4972 27.1509 27.2951 27.3549C27.0931 27.5589 26.8187 27.6749 26.5316 27.6776Z" fill="#8124BB"/>
<path d="M27.5785 23.8127H12.3112C12.0223 23.8127 11.7453 23.6979 11.541 23.4936C11.3367 23.2894 11.2219 23.0123 11.2219 22.7234C11.2219 22.4345 11.3367 22.1574 11.541 21.9531C11.7453 21.7489 12.0223 21.6341 12.3112 21.6341H27.5785C27.8674 21.6341 28.1445 21.7489 28.3488 21.9531C28.5531 22.1574 28.6678 22.4345 28.6678 22.7234C28.6678 23.0123 28.5531 23.2894 28.3488 23.4936C28.1445 23.6979 27.8674 23.8127 27.5785 23.8127Z" fill="#8124BB"/>
<path d="M26.5316 35.4074H13.3583C13.0712 35.4046 12.7967 35.2887 12.5947 35.0847C12.3926 34.8807 12.2793 34.6052 12.2793 34.3181C12.2793 34.0309 12.3926 33.7554 12.5947 33.5514C12.7967 33.3474 13.0712 33.2314 13.3583 33.2287H26.5316C26.8187 33.2314 27.0931 33.3474 27.2951 33.5514C27.4972 33.7554 27.6105 34.0309 27.6105 34.3181C27.6105 34.6052 27.4972 34.8807 27.2951 35.0847C27.0931 35.2887 26.8187 35.4046 26.5316 35.4074Z" fill="#8124BB"/>
<path d="M27.5784 31.5425H12.3111C12.024 31.5397 11.7496 31.4238 11.5476 31.2198C11.3455 31.0158 11.2322 30.7403 11.2322 30.4531C11.2322 30.166 11.3455 29.8905 11.5476 29.6865C11.7496 29.4825 12.024 29.3666 12.3111 29.3638H27.5784C27.8655 29.3666 28.14 29.4825 28.342 29.6865C28.5441 29.8905 28.6574 30.166 28.6574 30.4531C28.6574 30.7403 28.5441 31.0158 28.342 31.2198C28.14 31.4238 27.8655 31.5397 27.5784 31.5425Z" fill="#8124BB"/>
<path d="M23.6886 12.9233C22.3186 10.6168 23.6886 9.2727 23.6886 9.2727L19.9449 7.7088L16.2011 9.2727C16.2011 9.2727 17.5711 10.6168 16.2011 12.9233C16.2011 12.9233 15.7331 15.0625 19.9449 15.9985C24.1565 15.0625 23.6886 12.9233 23.6886 12.9233Z" fill="#8124BB"/>
<path d="M32.6058 33.5816V40.7693C30.5233 40.7693 30.5233 43.9448 28.4407 43.9448C26.3581 43.9448 26.3582 40.7693 24.2756 40.7693C22.1964 40.7693 22.1964 43.9448 20.1172 43.9448C18.038 43.9448 18.0385 40.7693 15.9599 40.7693C13.8813 40.7693 13.8815 43.9448 11.8031 43.9448C9.72474 43.9448 9.72414 40.7693 7.64514 40.7693V3.86789H32.6058V25.9079" stroke="#480076" stroke-width="2" stroke-linecap="round" stroke-linejoin="round"/>
<path d="M44.2 18.055C43.5948 17.4065 42.7575 17.024 41.871 16.9914C40.9846 16.9587 40.1213 17.2784 39.47 17.8806L33.326 24.0247L31.2678 26.0829L28.3668 28.9838C28.2332 29.1173 28.139 29.2851 28.0945 29.4687L26.989 34.0228C26.9473 34.1943 26.9504 34.3737 26.998 34.5437C27.0457 34.7137 27.1363 34.8686 27.2611 34.9934C27.3859 35.1182 27.5408 35.2088 27.7108 35.2565C27.8808 35.3042 28.0602 35.3072 28.2317 35.2655L31.2678 34.5288L32.7858 34.1605C32.9694 34.116 33.1372 34.0218 33.2707 33.8882L33.326 33.8329L44.3752 22.7845C44.9769 22.133 45.2962 21.2698 45.2633 20.3836C45.2305 19.4974 44.8482 18.6602 44.2 18.055ZM42.9191 21.3293L33.3263 30.922L32.02 32.2284L31.2683 32.4108L29.3883 32.8671L30.0275 30.235L31.2687 28.9938L33.3269 26.9355L40.9261 19.3355C41.2024 19.1486 41.5351 19.0638 41.8671 19.0955C42.1991 19.1273 42.5097 19.2736 42.7456 19.5094C42.9815 19.7452 43.1279 20.0558 43.1597 20.3878C43.1916 20.7198 43.1068 21.0526 42.92 21.3289L42.9191 21.3293Z" fill="#480076"/>
</svg>
