<svg width="48" height="48" viewBox="0 0 48 48" fill="none" xmlns="http://www.w3.org/2000/svg">
<path d="M47.42 19.93C47.12 19.15 47.03 19.16 42.48 19.28H41.6101C41.37 19.12 40.89 18.69 40.48 18.34C40.07 17.99 39.7401 17.69 39.3101 17.34V15.8C39.3288 15.4051 39.2694 15.0104 39.1352 14.6386C39.0009 14.2668 38.7945 13.9251 38.5278 13.6334C38.2611 13.3416 37.9394 13.1053 37.5811 12.9383C37.2228 12.7713 36.835 12.6767 36.44 12.66H25.5601C25.0506 12.6714 24.5538 12.8206 24.1225 13.0918C23.6911 13.3629 23.3412 13.7459 23.1101 14.2C22.0197 14.3016 20.9454 14.5332 19.9101 14.89C17.5415 15.9907 15.3879 17.5043 13.5501 19.36C8.90005 19.65 3.67005 20.81 2.22005 21.89C0.770051 22.97 0.480051 26.5 0.510051 27.71C0.468869 28.0745 0.510421 28.4437 0.631615 28.79C0.752809 29.1362 0.950524 29.4507 1.21005 29.71C1.51005 29.95 1.81005 30.08 6.21005 30.2C6.56752 30.9761 7.13994 31.6334 7.8595 32.0942C8.57906 32.555 9.4156 32.7999 10.2701 32.7999C11.1245 32.7999 11.961 32.555 12.6806 32.0942C13.4002 31.6334 13.9726 30.9761 14.3301 30.2C16.9401 30.2 19.7801 30.2 22.6701 30.2V32.59C22.6648 32.7977 22.7195 33.0025 22.8277 33.1799C22.9359 33.3573 23.093 33.4997 23.2801 33.59C23.4229 33.6487 23.5757 33.6792 23.7301 33.68C23.98 33.6846 24.2226 33.5954 24.4101 33.43L26.5201 31.65L27.9201 33.23C28.0119 33.3403 28.1264 33.4296 28.2558 33.4917C28.3853 33.5538 28.5265 33.5873 28.6701 33.59C28.8134 33.5938 28.9561 33.5692 29.0899 33.5177C29.2238 33.4662 29.3462 33.3889 29.4501 33.29L31.1201 31.69L32.5601 33.25C32.6571 33.3605 32.7773 33.4483 32.9121 33.5071C33.0469 33.5659 33.193 33.5942 33.34 33.59C33.4886 33.5917 33.6357 33.5603 33.7707 33.498C33.9056 33.4358 34.025 33.3442 34.12 33.23L34.75 32.51L35.1 32.11C35.6055 32.4274 36.1703 32.6383 36.76 32.73L37.53 33.41C37.6834 33.5449 37.8724 33.6326 38.0744 33.6625C38.2764 33.6925 38.4828 33.6635 38.6687 33.579C38.8546 33.4945 39.0121 33.3581 39.1224 33.1862C39.2326 33.0143 39.2908 32.8142 39.2901 32.61V32.39C40.2869 31.9394 41.0839 31.1388 41.53 30.14C45.62 30 45.7001 30 46 29.77L46.14 29.67C47.2201 28.65 47.58 20.35 47.42 19.93ZM10.2901 30.79C9.79955 30.79 9.32007 30.6446 8.91224 30.372C8.5044 30.0995 8.18654 29.7122 7.99883 29.2591C7.81112 28.8059 7.76201 28.3073 7.8577 27.8262C7.95339 27.3451 8.18959 26.9032 8.53643 26.5564C8.88326 26.2095 9.32515 25.9733 9.80623 25.8777C10.2873 25.782 10.7859 25.8311 11.2391 26.0188C11.6923 26.2065 12.0796 26.5244 12.3521 26.9322C12.6246 27.34 12.7701 27.8195 12.7701 28.31C12.7701 28.9677 12.5088 29.5985 12.0437 30.0636C11.5786 30.5287 10.9478 30.79 10.2901 30.79ZM22.6901 22.11V28.22C19.9601 28.22 17.2601 28.22 14.7601 28.22C14.7601 27.0345 14.2891 25.8975 13.4508 25.0592C12.6125 24.2209 11.4756 23.75 10.2901 23.75C9.10453 23.75 7.96757 24.2209 7.12928 25.0592C6.291 25.8975 5.82005 27.0345 5.82005 28.22C3.89005 28.11 3.00005 28.05 2.52005 28C2.39005 26.88 2.85005 24 3.40005 23.5C4.34005 22.8 9.21005 21.58 14.0201 21.33H22.6901V22.11ZM22.6901 16.6V19.33H16.5801C17.7926 18.2712 19.1579 17.4014 20.6301 16.75C21.2966 16.5113 21.9874 16.347 22.6901 16.26V16.6ZM37.19 17.86V30.28L36.53 29.7L36.14 29.36C36.0066 29.24 35.8434 29.1581 35.6675 29.1229C35.4915 29.0878 35.3093 29.1006 35.14 29.16C34.9437 29.2063 34.7659 29.3108 34.6301 29.46L33.94 30.24L33.6301 30.59L33.3301 30.93L32.6301 30.18L32.0001 29.44C31.9044 29.3357 31.7887 29.2518 31.6598 29.1934C31.5309 29.135 31.3915 29.1032 31.2501 29.1C31.1085 29.091 30.9666 29.1121 30.8338 29.1621C30.7011 29.2121 30.5805 29.2898 30.4801 29.39L30.0501 29.81L29.6501 30.2L28.8001 31L28.1101 30.23L27.7801 29.85L27.4501 29.48C27.2694 29.2794 27.0195 29.1545 26.7506 29.1304C26.4816 29.1063 26.2136 29.1847 26.0001 29.35L25.4201 29.84L24.9801 30.22L24.8501 30.32V15.8C24.8501 15.26 25.2001 14.8 25.6001 14.8H36.44C36.83 14.8 37.18 15.27 37.19 15.8V17.88V17.86ZM39.3101 30V26.7C39.7276 27.148 39.9598 27.7376 39.9598 28.35C39.9598 28.9624 39.7276 29.552 39.3101 30ZM45.41 22.21H44.3301C44.0648 22.21 43.8105 22.3154 43.6229 22.5029C43.4354 22.6904 43.3301 22.9448 43.3301 23.21C43.3301 23.4752 43.4354 23.7296 43.6229 23.9171C43.8105 24.1046 44.0648 24.21 44.3301 24.21H45.26C45.171 25.4818 45.0074 26.7473 44.7701 28C44.1001 28 42.88 28.08 41.94 28.11C41.9056 27.2815 41.6414 26.4788 41.177 25.7919C40.7125 25.1049 40.0661 24.5606 39.3101 24.22V20C40.3101 20.9 40.84 21.32 41.43 21.32H42.53C43.23 21.32 44.53 21.26 45.46 21.26C45.4501 21.5 45.43 21.82 45.41 22.17V22.21Z" fill="#480076"/>
<path d="M35.1299 21.31C34.9766 21.2149 34.8004 21.1631 34.6199 21.16H27.3699C27.2426 21.1629 27.1171 21.19 26.9999 21.24L26.8499 21.32C26.6947 21.4026 26.5639 21.5246 26.4708 21.6739C26.3778 21.8231 26.3257 21.9942 26.3199 22.17C26.3199 22.4521 26.4313 22.7227 26.6298 22.9231C26.8283 23.1235 27.0979 23.2374 27.3799 23.24H34.6299C34.777 23.2384 34.9222 23.2065 35.0564 23.1463C35.1906 23.0861 35.311 22.9988 35.4099 22.89C35.5917 22.6937 35.6949 22.4375 35.6999 22.17C35.6921 21.9884 35.6349 21.8123 35.5344 21.6608C35.434 21.5093 35.2942 21.388 35.1299 21.31Z" fill="#8124BB"/>
<path d="M34.62 17.38H27.37C27.1256 17.3831 26.8908 17.4756 26.71 17.64C26.5844 17.7342 26.4828 17.8565 26.4133 17.9973C26.3438 18.138 26.3084 18.2931 26.31 18.45C26.3192 18.6962 26.4107 18.9321 26.57 19.12C26.6117 19.1684 26.6586 19.212 26.71 19.25C26.8908 19.4144 27.1256 19.5069 27.37 19.51H34.62C34.8321 19.5033 35.0375 19.4337 35.21 19.31C35.3574 19.2203 35.4791 19.0939 35.5632 18.9432C35.6473 18.7925 35.691 18.6226 35.69 18.45C35.69 18.3095 35.6623 18.1704 35.6085 18.0405C35.5548 17.9107 35.476 17.7928 35.3766 17.6934C35.2772 17.594 35.1593 17.5152 35.0295 17.4615C34.8996 17.4077 34.7605 17.38 34.62 17.38Z" fill="#8124BB"/>
<path d="M35.0499 25C34.9151 24.9385 34.7682 24.9078 34.6199 24.91H32.8099C32.6686 24.9113 32.5289 24.9406 32.3989 24.9962C32.2689 25.0518 32.1512 25.1326 32.0527 25.234C31.9541 25.3353 31.8766 25.4552 31.8246 25.5867C31.7727 25.7182 31.7473 25.8586 31.7499 26C31.7479 26.1716 31.7901 26.3409 31.8724 26.4915C31.9547 26.6421 32.0744 26.769 32.2199 26.86C32.3903 26.9878 32.597 27.0579 32.8099 27.06H34.6199C34.76 27.0613 34.8989 27.0349 35.0287 26.9822C35.1584 26.9295 35.2765 26.8517 35.376 26.7531C35.4754 26.6545 35.5544 26.5372 35.6083 26.408C35.6622 26.2787 35.6899 26.14 35.6899 26C35.6926 25.789 35.6334 25.5819 35.5197 25.4042C35.4059 25.2264 35.2426 25.0859 35.0499 25Z" fill="#8124BB"/>
</svg>
