<svg width="24" height="24" viewBox="0 0 24 24" fill="none" xmlns="http://www.w3.org/2000/svg">
<path fill-rule="evenodd" clip-rule="evenodd" d="M21.54 9.69002C21.2748 9.69002 21.0204 9.58467 20.8329 9.39713C20.6454 9.20959 20.54 8.95524 20.54 8.69002V4.87003L10.83 14.58C10.6437 14.7648 10.3923 14.8689 10.13 14.87C9.9984 14.8708 9.86794 14.8456 9.7461 14.7958C9.62426 14.746 9.51344 14.6727 9.42 14.58C9.23375 14.3927 9.12921 14.1392 9.12921 13.875C9.12921 13.6108 9.23375 13.3574 9.42 13.17L19.13 3.46002H15.31C15.0448 3.46002 14.7904 3.35467 14.6029 3.16713C14.4154 2.97959 14.31 2.72524 14.31 2.46002C14.31 2.19481 14.4154 1.94045 14.6029 1.75292C14.7904 1.56538 15.0448 1.46002 15.31 1.46002H21.54C21.8052 1.46002 22.0596 1.56538 22.2471 1.75292C22.4346 1.94045 22.54 2.19481 22.54 2.46002V8.69002C22.54 8.95524 22.4346 9.20959 22.2471 9.39713C22.0596 9.58467 21.8052 9.69002 21.54 9.69002ZM16.64 22.54H4.64001C3.79397 22.54 2.98258 22.2039 2.38434 21.6057C1.7861 21.0074 1.45001 20.1961 1.45001 19.35V7.35001C1.45132 6.9311 1.53513 6.51654 1.69666 6.13001C1.85818 5.74349 2.09426 5.39256 2.39141 5.09727C2.68856 4.80198 3.04096 4.56811 3.42849 4.40901C3.81602 4.24991 4.23109 4.1687 4.65001 4.17001H11.19C11.4552 4.17001 11.7096 4.27537 11.8971 4.46291C12.0847 4.65044 12.19 4.9048 12.19 5.17001C12.19 5.43523 12.0847 5.68958 11.8971 5.87712C11.7096 6.06466 11.4552 6.17001 11.19 6.17001H4.65001C4.3344 6.17001 4.03172 6.29539 3.80856 6.51856C3.58539 6.74172 3.46001 7.04441 3.46001 7.36001V19.36C3.46262 19.6748 3.58884 19.976 3.81144 20.1986C4.03405 20.4212 4.33521 20.5474 4.65001 20.55H16.65C16.8063 20.55 16.961 20.5192 17.1054 20.4594C17.2498 20.3996 17.381 20.312 17.4915 20.2015C17.602 20.091 17.6896 19.9598 17.7494 19.8154C17.8092 19.671 17.84 19.5163 17.84 19.36V12.81C17.84 12.5448 17.9454 12.2904 18.1329 12.1029C18.3204 11.9154 18.5748 11.81 18.84 11.81C19.1052 11.81 19.3596 11.9154 19.5471 12.1029C19.7347 12.2904 19.84 12.5448 19.84 12.81V19.35C19.84 19.7698 19.7572 20.1854 19.5962 20.5731C19.4353 20.9608 19.1994 21.3129 18.9021 21.6092C18.6049 21.9056 18.252 22.1403 17.8638 22.3001C17.4757 22.4598 17.0598 22.5413 16.64 22.54Z" fill="#545454"/>
</svg>
