<svg width="24" height="24" viewBox="0 0 24 24" fill="none" xmlns="http://www.w3.org/2000/svg">
<path fill-rule="evenodd" clip-rule="evenodd" d="M1.92999 1.39001C1.37771 1.39001 0.929993 1.83773 0.929993 2.39001C0.929993 2.9423 1.37771 3.39001 1.92999 3.39001H4.77084L5.51409 7.09112C5.52068 7.16406 5.53509 7.23474 5.5565 7.30231L7.06947 14.8364C7.19938 15.4869 7.55285 16.0713 8.06859 16.4884C8.58255 16.9041 9.22536 17.1274 9.88617 17.12H18.7638C19.4246 17.1274 20.0674 16.9041 20.5814 16.4884C21.0974 16.0711 21.4509 15.4863 21.5807 14.8356L23.052 7.18896C23.1083 6.89602 23.031 6.59321 22.841 6.3632C22.651 6.1332 22.3683 6.00001 22.07 6.00001H7.3349L6.57042 2.19313C6.47663 1.72607 6.06638 1.39001 5.58999 1.39001H1.92999ZM9.03069 14.4445L7.73654 8.00001H20.8592L19.6193 14.4445L19.6187 14.4473C19.5799 14.6386 19.4756 14.8105 19.3237 14.9333C19.1711 15.0567 18.9801 15.1227 18.7839 15.12L9.87999 15.1199L9.86612 15.1201C9.66987 15.1228 9.47886 15.0567 9.32625 14.9333C9.17364 14.8099 9.06907 14.6369 9.03069 14.4445ZM7.33002 20.69C7.33002 19.6296 8.18963 18.77 9.25002 18.77C10.3104 18.77 11.17 19.6296 11.17 20.69C11.17 21.7504 10.3104 22.61 9.25002 22.61C8.18963 22.61 7.33002 21.7504 7.33002 20.69ZM17.4 20.69C17.4 19.6296 18.2596 18.77 19.32 18.77C20.3804 18.77 21.24 19.6296 21.24 20.69C21.24 21.7504 20.3804 22.61 19.32 22.61C18.2596 22.61 17.4 21.7504 17.4 20.69Z" fill="#545454"/>
</svg>
