<svg width="24" height="24" viewBox="0 0 24 24" fill="none" xmlns="http://www.w3.org/2000/svg">
<path fill-rule="evenodd" clip-rule="evenodd" d="M20.2817 12.7026C20.6724 12.3123 20.6729 11.6791 20.2826 11.2884C19.8923 10.8976 19.2592 10.8972 18.8684 11.2874L12.995 17.153L12.995 4.42499C12.995 3.8727 12.5473 3.42499 11.995 3.42499C11.4427 3.42499 10.995 3.8727 10.995 4.42499L10.995 17.1508L5.13212 11.2879C4.74159 10.8974 4.10843 10.8974 3.7179 11.2879C3.32738 11.6784 3.32738 12.3116 3.7179 12.7021L11.2879 20.2721C11.386 20.3702 11.4995 20.4437 11.6206 20.4925C11.7262 20.5352 11.8408 20.5604 11.9607 20.5644C11.9835 20.5652 12.0062 20.5652 12.0289 20.5644C12.1489 20.5604 12.2635 20.5353 12.3691 20.4927C12.4901 20.4439 12.6035 20.3706 12.7017 20.2726L20.2817 12.7026Z" fill="#545454"/>
</svg>
