<svg width="24" height="24" viewBox="0 0 24 24" fill="none" xmlns="http://www.w3.org/2000/svg">
<path fill-rule="evenodd" clip-rule="evenodd" d="M12.6674 9.51957L15.2274 13.6296C15.2676 13.6952 15.2939 13.7684 15.3046 13.8446C15.3153 13.9208 15.3101 13.9984 15.2895 14.0725C15.2688 14.1466 15.2331 14.2157 15.1846 14.2754C15.1361 14.3351 15.0758 14.3842 15.0074 14.4196C14.916 14.4717 14.8127 14.4992 14.7074 14.4996L9.59743 14.4996C9.44079 14.4971 9.29111 14.4344 9.17941 14.3246C9.0677 14.2148 9.00254 14.0661 8.99743 13.9096C8.99795 13.8107 9.02562 13.7138 9.07743 13.6296L11.6374 9.51957C11.7254 9.38813 11.8596 9.29459 12.0134 9.25754C12.1672 9.22049 12.3292 9.24263 12.4674 9.31957C12.5482 9.37049 12.6165 9.43882 12.6674 9.51957Z" fill="#545454"/>
</svg>
