<svg width="24" height="23" viewBox="0 0 24 23" fill="none" xmlns="http://www.w3.org/2000/svg">
<path fill-rule="evenodd" clip-rule="evenodd" d="M11.82 2.41498C10.732 2.41498 9.84998 3.26023 9.84998 4.30289C9.84998 5.34556 10.732 6.19081 11.82 6.19081C12.908 6.19081 13.79 5.34556 13.79 4.30289C13.79 3.26023 12.908 2.41498 11.82 2.41498ZM11.82 9.45873C10.732 9.45873 9.84998 10.304 9.84998 11.3467C9.84998 12.3893 10.732 13.2346 11.82 13.2346C12.908 13.2346 13.79 12.3893 13.79 11.3467C13.79 10.304 12.908 9.45873 11.82 9.45873ZM9.84998 18.3904C9.84998 17.3477 10.732 16.5025 11.82 16.5025C12.908 16.5025 13.79 17.3477 13.79 18.3904C13.79 19.4331 12.908 20.2783 11.82 20.2783C10.732 20.2783 9.84998 19.4331 9.84998 18.3904Z" fill="#545454"/>
</svg>
