<svg width="24" height="24" viewBox="0 0 24 24" fill="none" xmlns="http://www.w3.org/2000/svg">
<path fill-rule="evenodd" clip-rule="evenodd" d="M2.67999 11.84C2.67999 10.752 3.56199 9.87 4.64999 9.87C5.73799 9.87 6.61999 10.752 6.61999 11.84C6.61999 12.928 5.73799 13.81 4.64999 13.81C3.56199 13.81 2.67999 12.928 2.67999 11.84ZM12 9.87C10.912 9.87 10.03 10.752 10.03 11.84C10.03 12.928 10.912 13.81 12 13.81C13.088 13.81 13.97 12.928 13.97 11.84C13.97 10.752 13.088 9.87 12 9.87ZM19.35 9.87C18.262 9.87 17.38 10.752 17.38 11.84C17.38 12.928 18.262 13.81 19.35 13.81C20.438 13.81 21.32 12.928 21.32 11.84C21.32 10.752 20.438 9.87 19.35 9.87Z" fill="#545454"/>
</svg>
