<svg width="24" height="24" viewBox="0 0 24 24" fill="none" xmlns="http://www.w3.org/2000/svg">
<path fill-rule="evenodd" clip-rule="evenodd" d="M11.64 14.22L9.08001 10.11C9.03979 10.0444 9.01353 9.9712 9.00285 9.895C8.99218 9.81879 8.99732 9.74121 9.01796 9.66708C9.03861 9.59295 9.07431 9.52387 9.12283 9.46416C9.17136 9.40444 9.23167 9.35536 9.30001 9.31999C9.39143 9.26789 9.49478 9.24034 9.60001 9.23999H14.71C14.8666 9.24247 15.0163 9.30513 15.128 9.41497C15.2397 9.52481 15.3049 9.67341 15.31 9.82999C15.3095 9.92889 15.2818 10.0257 15.23 10.11L12.67 14.22C12.582 14.3514 12.4478 14.445 12.294 14.482C12.1403 14.5191 11.9782 14.4969 11.84 14.42C11.7593 14.3691 11.6909 14.3007 11.64 14.22Z" fill="#545454"/>
</svg>
