<svg width="24" height="24" viewBox="0 0 24 24" fill="none" xmlns="http://www.w3.org/2000/svg">
<path fill-rule="evenodd" clip-rule="evenodd" d="M21.0676 5.12662C21.4578 4.73584 21.4574 4.10268 21.0666 3.71241C20.6758 3.32214 20.0427 3.32256 19.6524 3.71334L12.0824 11.2933C11.6923 11.6839 11.6925 12.3167 12.0829 12.7071L19.6529 20.2771C20.0434 20.6676 20.6766 20.6676 21.0671 20.2771C21.4576 19.8866 21.4576 19.2534 21.0671 18.8629L14.2037 11.9995L21.0676 5.12662ZM11.9176 5.12662C12.3079 4.73584 12.3074 4.10268 11.9167 3.71241C11.5259 3.32214 10.8927 3.32256 10.5024 3.71334L2.93244 11.2933C2.54236 11.6839 2.54257 12.3167 2.93291 12.7071L10.5029 20.2771C10.8934 20.6676 11.5266 20.6676 11.9171 20.2771C12.3076 19.8866 12.3076 19.2534 11.9171 18.8629L5.05376 11.9995L11.9176 5.12662Z" fill="#545454"/>
</svg>
