<svg width="24" height="24" viewBox="0 0 24 24" fill="none" xmlns="http://www.w3.org/2000/svg">
<path fill-rule="evenodd" clip-rule="evenodd" d="M2.80943 6.91397C2.96569 6.97476 3.13243 7.00401 3.30005 7.00003C3.61342 6.96962 3.90404 6.823 4.11471 6.58904C4.32538 6.35507 4.44083 6.05071 4.43832 5.73588C4.43581 5.42105 4.31553 5.11857 4.10116 4.88799C3.88679 4.65741 3.59386 4.51544 3.28005 4.49003C3.11218 4.48459 2.94495 4.51331 2.78852 4.57445C2.63208 4.63558 2.48969 4.72787 2.37 4.84569C2.2503 4.96352 2.15579 5.10443 2.09219 5.25989C2.0286 5.41534 1.99725 5.5821 2.00005 5.75003C2.00264 5.91767 2.03841 6.08314 2.10527 6.2369C2.17214 6.39065 2.26879 6.52964 2.38965 6.64585C2.51051 6.76206 2.65318 6.85318 2.80943 6.91397ZM8.09998 4.75003C7.54769 4.75003 7.09998 5.19775 7.09998 5.75003C7.09998 6.30232 7.54769 6.75003 8.09998 6.75003H21.48C22.0323 6.75003 22.48 6.30232 22.48 5.75003C22.48 5.19775 22.0323 4.75003 21.48 4.75003H8.09998ZM8.09998 11.19C7.54769 11.19 7.09998 11.6377 7.09998 12.19C7.09998 12.7423 7.54769 13.19 8.09998 13.19H21.48C22.0323 13.19 22.48 12.7423 22.48 12.19C22.48 11.6377 22.0323 11.19 21.48 11.19H8.09998ZM7.09998 18.63C7.09998 18.0777 7.54769 17.63 8.09998 17.63H21.48C22.0323 17.63 22.48 18.0777 22.48 18.63C22.48 19.1823 22.0323 19.63 21.48 19.63H8.09998C7.54769 19.63 7.09998 19.1823 7.09998 18.63ZM3.41002 13.45C3.07585 13.45 2.75537 13.3173 2.51907 13.081C2.28277 12.8447 2.15002 12.5242 2.15002 12.19C2.15002 11.8559 2.28277 11.5354 2.51907 11.2991C2.75537 11.0628 3.07585 10.93 3.41002 10.93C3.7442 10.93 4.06468 11.0628 4.30098 11.2991C4.53727 11.5354 4.67002 11.8559 4.67002 12.19C4.67002 12.5242 4.53727 12.8447 4.30098 13.081C4.06468 13.3173 3.7442 13.45 3.41002 13.45ZM2.51899 19.521C2.75528 19.7573 3.07577 19.89 3.40994 19.89H3.39994C3.57417 19.9056 3.74973 19.8847 3.91544 19.8287C4.08115 19.7727 4.23339 19.6828 4.36247 19.5648C4.49154 19.4467 4.59462 19.3031 4.66514 19.143C4.73566 18.983 4.77208 18.81 4.77208 18.635C4.77208 18.4601 4.73566 18.2871 4.66514 18.127C4.59462 17.967 4.49154 17.8233 4.36247 17.7053C4.23339 17.5872 4.08115 17.4973 3.91544 17.4413C3.74973 17.3853 3.57417 17.3645 3.39994 17.38C3.23542 17.3787 3.07228 17.4101 2.92002 17.4725C2.76776 17.5348 2.62943 17.6268 2.51309 17.7432C2.39675 17.8595 2.30473 17.9978 2.24238 18.1501C2.18003 18.3024 2.14861 18.4655 2.14994 18.63C2.14994 18.9642 2.28269 19.2847 2.51899 19.521Z" fill="#545454"/>
</svg>
