<svg width="24" height="24" viewBox="0 0 24 24" fill="none" xmlns="http://www.w3.org/2000/svg">
<path fill-rule="evenodd" clip-rule="evenodd" d="M3.71838 11.2874C3.3276 11.6777 3.32718 12.3109 3.71745 12.7016C4.10771 13.0924 4.74088 13.0928 5.13166 12.7026L11.005 6.83696L11.005 19.565C11.005 20.1173 11.4527 20.565 12.005 20.565C12.5573 20.565 13.005 20.1173 13.005 19.565L13.005 6.83921L18.8679 12.7021C19.2584 13.0926 19.8916 13.0926 20.2821 12.7021C20.6727 12.3116 20.6727 11.6784 20.2821 11.2879L12.7121 3.71789C12.614 3.61975 12.5005 3.54627 12.3794 3.49745C12.2738 3.45478 12.1592 3.42962 12.0393 3.42558C12.0166 3.4248 11.9938 3.4248 11.9711 3.42557C11.8511 3.42957 11.7366 3.45469 11.6309 3.49733C11.5099 3.54606 11.3965 3.61943 11.2984 3.71742L3.71838 11.2874Z" fill="#545454"/>
</svg>
