<svg width="24" height="24" viewBox="0 0 24 24" fill="none" xmlns="http://www.w3.org/2000/svg">
<path fill-rule="evenodd" clip-rule="evenodd" d="M11.3861 1.72056C11.7472 1.43983 12.2527 1.43983 12.6138 1.72056L21.1538 8.36056C21.3974 8.55001 21.54 8.84136 21.54 9.15001V19.59C21.54 20.3591 21.2344 21.0968 20.6906 21.6406C20.1467 22.1845 19.4091 22.49 18.64 22.49H14.85C14.2977 22.49 13.85 22.0423 13.85 21.49V13H10.15V21.49C10.15 22.0423 9.70225 22.49 9.14996 22.49H5.35996C4.59083 22.49 3.85321 22.1845 3.30935 21.6406C2.7655 21.0968 2.45996 20.3591 2.45996 19.59V9.15001C2.45996 8.84136 2.60249 8.55001 2.84615 8.36056L11.3861 1.72056ZM12 3.77671L4.45996 9.63919V19.59C4.45996 19.8287 4.55478 20.0576 4.72356 20.2264C4.89235 20.3952 5.12127 20.49 5.35996 20.49H8.14996V12C8.14996 11.4477 8.59768 11 9.14996 11H14.85C15.4022 11 15.85 11.4477 15.85 12V20.49H18.64C18.8787 20.49 19.1076 20.3952 19.2764 20.2264C19.4451 20.0576 19.54 19.8287 19.54 19.59V9.63919L12 3.77671Z" fill="#545454"/>
</svg>
