<svg width="24" height="24" viewBox="0 0 24 24" fill="none" xmlns="http://www.w3.org/2000/svg">
<path fill-rule="evenodd" clip-rule="evenodd" d="M12.7076 3.71336C12.3173 3.32258 11.6841 3.32216 11.2934 3.71242C10.9026 4.10269 10.9022 4.73586 11.2924 5.12664L17.158 11H4.42999C3.87771 11 3.42999 11.4477 3.42999 12C3.42999 12.5523 3.87771 13 4.42999 13H17.1558L11.2929 18.8629C10.9024 19.2534 10.9024 19.8866 11.2929 20.2771C11.6834 20.6676 12.3166 20.6676 12.7071 20.2771L20.2771 12.7071C20.3752 12.609 20.4487 12.4955 20.4975 12.3744C20.5402 12.2688 20.5654 12.1542 20.5694 12.0343C20.5702 12.0115 20.5702 11.9888 20.5694 11.9661C20.5654 11.8461 20.5403 11.7315 20.4977 11.6259C20.4489 11.5049 20.3756 11.3915 20.2776 11.2934L12.7076 3.71336Z" fill="#545454"/>
</svg>
