<svg width="24" height="24" viewBox="0 0 24 24" fill="none" xmlns="http://www.w3.org/2000/svg">
<path fill-rule="evenodd" clip-rule="evenodd" d="M2.45001 1.45001C1.89773 1.45001 1.45001 1.89773 1.45001 2.45001V9.87001C1.45001 10.4223 1.89773 10.87 2.45001 10.87H9.87001C10.4223 10.87 10.87 10.4223 10.87 9.87001V2.45001C10.87 1.89773 10.4223 1.45001 9.87001 1.45001H2.45001ZM3.45001 8.87001V3.45001H8.87001V8.87001H3.45001ZM14.12 1.45001C13.5677 1.45001 13.12 1.89773 13.12 2.45001V9.87001C13.12 10.4223 13.5677 10.87 14.12 10.87H21.54C22.0923 10.87 22.54 10.4223 22.54 9.87001V2.45001C22.54 1.89773 22.0923 1.45001 21.54 1.45001H14.12ZM15.12 8.87001V3.45001H20.54V8.87001H15.12ZM13.12 14.12C13.12 13.5677 13.5677 13.12 14.12 13.12H21.54C22.0923 13.12 22.54 13.5677 22.54 14.12V21.54C22.54 22.0923 22.0923 22.54 21.54 22.54H14.12C13.5677 22.54 13.12 22.0923 13.12 21.54V14.12ZM15.12 15.12V20.54H20.54V15.12H15.12ZM2.45001 13.12C1.89773 13.12 1.45001 13.5677 1.45001 14.12V21.54C1.45001 22.0923 1.89773 22.54 2.45001 22.54H9.87001C10.4223 22.54 10.87 22.0923 10.87 21.54V14.12C10.87 13.5677 10.4223 13.12 9.87001 13.12H2.45001ZM3.45001 20.54V15.12H8.87001V20.54H3.45001Z" fill="#545454"/>
</svg>
