<svg width="24" height="23" viewBox="0 0 24 23" fill="none" xmlns="http://www.w3.org/2000/svg">
<path d="M19.37 1.2937H4.63002C3.80784 1.2937 3.01935 1.6067 2.43798 2.16384C1.85662 2.72098 1.53001 3.47662 1.53001 4.26453V18.3808C1.5287 18.7717 1.60791 19.1591 1.76311 19.5206C1.91831 19.8822 2.14645 20.2108 2.43444 20.4877C2.72243 20.7646 3.06462 20.9843 3.44138 21.1341C3.81814 21.284 4.22207 21.3612 4.63002 21.3612H19.37C19.778 21.3612 20.1819 21.284 20.5586 21.1341C20.9354 20.9843 21.2776 20.7646 21.5656 20.4877C21.8536 20.2108 22.0817 19.8822 22.2369 19.5206C22.3921 19.1591 22.4713 18.7717 22.47 18.3808V4.26453C22.47 3.47662 22.1434 2.72098 21.562 2.16384C20.9807 1.6067 20.1922 1.2937 19.37 1.2937ZM20.47 18.3808C20.47 18.6613 20.3545 18.9304 20.1484 19.1296C19.9424 19.3288 19.6627 19.442 19.37 19.4445H9.37001V3.21037H19.37C19.6618 3.21037 19.9415 3.32143 20.1478 3.51913C20.3541 3.71682 20.47 3.98495 20.47 4.26453V18.3808Z" fill="#545454"/>
</svg>
