<svg width="24" height="24" viewBox="0 0 24 24" fill="none" xmlns="http://www.w3.org/2000/svg">
<path fill-rule="evenodd" clip-rule="evenodd" d="M12.7072 5.12711C13.0977 4.73658 13.0977 4.10342 12.7072 3.71289C12.3166 3.32237 11.6835 3.32237 11.2929 3.71289L3.71294 11.2929C3.52532 11.4805 3.41996 11.735 3.42004 12.0003C3.42013 12.2657 3.52566 12.5201 3.7134 12.7076L11.2934 20.2776C11.6842 20.6678 12.3174 20.6674 12.7076 20.2766C13.0979 19.8859 13.0975 19.2527 12.7067 18.8624L6.83651 13H19.5701C20.1223 13 20.5701 12.5523 20.5701 12C20.5701 11.4477 20.1223 11 19.5701 11H6.83426L12.7072 5.12711Z" fill="#545454"/>
</svg>
