<svg width="24" height="24" viewBox="0 0 24 24" fill="none" xmlns="http://www.w3.org/2000/svg">
<path fill-rule="evenodd" clip-rule="evenodd" d="M13.4976 3.71334C13.1073 3.32256 12.4741 3.32214 12.0833 3.71241C11.6926 4.10268 11.6921 4.73584 12.0824 5.12662L18.9462 11.9995L12.0829 18.8629C11.6923 19.2534 11.6923 19.8866 12.0829 20.2771C12.4734 20.6676 13.1066 20.6676 13.4971 20.2771L21.0671 12.7071C21.4574 12.3167 21.4576 11.6839 21.0676 11.2933L13.4976 3.71334ZM4.34759 3.71334C3.95732 3.32256 3.32416 3.32214 2.93337 3.71241C2.54259 4.10268 2.54217 4.73584 2.93244 5.12662L9.79627 11.9995L2.93291 18.8629C2.54238 19.2534 2.54238 19.8866 2.93291 20.2771C3.32343 20.6676 3.9566 20.6676 4.34712 20.2771L11.9171 12.7071C12.3075 12.3167 12.3077 11.6839 11.9176 11.2933L4.34759 3.71334Z" fill="#545454"/>
</svg>
