<svg width="24" height="24" viewBox="0 0 24 24" fill="none" xmlns="http://www.w3.org/2000/svg">
<path d="M20.8493 6H3.15075C2.84555 6 2.55285 5.89464 2.33705 5.70711C2.12124 5.51957 2 5.26522 2 5C2 4.73478 2.12124 4.48043 2.33705 4.29289C2.55285 4.10536 2.84555 4 3.15075 4H20.8493C21.1544 4 21.4471 4.10536 21.663 4.29289C21.8788 4.48043 22 4.73478 22 5C22 5.26522 21.8788 5.51957 21.663 5.70711C21.4471 5.89464 21.1544 6 20.8493 6Z" fill="#545454"/>
<path d="M20.8493 13H3.15075C2.84555 13 2.55285 12.8946 2.33705 12.7071C2.12124 12.5196 2 12.2652 2 12C2 11.7348 2.12124 11.4804 2.33705 11.2929C2.55285 11.1054 2.84555 11 3.15075 11H20.8493C21.1544 11 21.4471 11.1054 21.663 11.2929C21.8788 11.4804 22 11.7348 22 12C22 12.2652 21.8788 12.5196 21.663 12.7071C21.4471 12.8946 21.1544 13 20.8493 13Z" fill="#545454"/>
<path d="M20.8493 20H3.15075C2.84555 20 2.55285 19.8946 2.33705 19.7071C2.12124 19.5196 2 19.2652 2 19C2 18.7348 2.12124 18.4804 2.33705 18.2929C2.55285 18.1054 2.84555 18 3.15075 18H20.8493C21.1544 18 21.4471 18.1054 21.663 18.2929C21.8788 18.4804 22 18.7348 22 19C22 19.2652 21.8788 19.5196 21.663 19.7071C21.4471 19.8946 21.1544 20 20.8493 20Z" fill="#545454"/>
</svg>
