<svg width="24" height="24" viewBox="0 0 24 24" fill="none" xmlns="http://www.w3.org/2000/svg">
<path fill-rule="evenodd" clip-rule="evenodd" d="M12 4.23001C10.9396 4.23001 10.08 5.08962 10.08 6.15001C10.08 7.2104 10.9396 8.07001 12 8.07001C13.0603 8.07001 13.92 7.2104 13.92 6.15001C13.92 5.08962 13.0603 4.23001 12 4.23001ZM8.07996 6.15001C8.07996 3.98505 9.835 2.23001 12 2.23001C14.1649 2.23001 15.92 3.98505 15.92 6.15001C15.92 7.23322 15.4806 8.21381 14.7704 8.9233L17.7778 14.0701C18.1097 13.9788 18.4592 13.93 18.82 13.93C20.985 13.93 22.74 15.6851 22.74 17.85C22.74 20.015 20.985 21.77 18.82 21.77C16.6551 21.77 14.9 20.015 14.9 17.85C14.9 16.7668 15.3394 15.7862 16.0496 15.0767L13.0422 9.92995C12.7103 10.0212 12.3608 10.07 12 10.07C11.6393 10.07 11.2901 10.0213 10.9584 9.93014L7.95371 15.08C8.66201 15.7892 9.10001 16.7685 9.10001 17.85C9.10001 20.015 7.34497 21.77 5.18001 21.77C3.01505 21.77 1.26001 20.015 1.26001 17.85C1.26001 15.6851 3.01505 13.93 5.18001 13.93C5.5425 13.93 5.89351 13.9792 6.2267 14.0713L9.23005 8.92382C8.51952 8.21428 8.07996 7.23348 8.07996 6.15001ZM6.14611 16.1937C6.12803 16.1832 6.11041 16.1722 6.09325 16.1607C5.82166 16.0136 5.51059 15.93 5.18001 15.93C4.11962 15.93 3.26001 16.7896 3.26001 17.85C3.26001 18.9104 4.11962 19.77 5.18001 19.77C6.2404 19.77 7.10001 18.9104 7.10001 17.85C7.10001 17.1644 6.74062 16.5627 6.19994 16.223C6.18183 16.2139 6.16388 16.2041 6.14611 16.1937ZM18.82 15.93C17.7596 15.93 16.9 16.7896 16.9 17.85C16.9 18.9104 17.7596 19.77 18.82 19.77C19.8804 19.77 20.74 18.9104 20.74 17.85C20.74 16.7896 19.8804 15.93 18.82 15.93Z" fill="#545454"/>
</svg>
