<svg width="24" height="24" viewBox="0 0 24 24" fill="none" xmlns="http://www.w3.org/2000/svg">
<path fill-rule="evenodd" clip-rule="evenodd" d="M10.75 0.26001H10.7502H20.68C21.0858 0.26001 21.475 0.421207 21.7619 0.708136C22.0488 0.995067 22.21 1.38423 22.21 1.79001V22.21C22.21 22.6158 22.0488 23.005 21.7619 23.2919C21.475 23.5788 21.0858 23.74 20.68 23.74H13.58H10.75H3.51999C2.70813 23.74 2.04999 23.0819 2.04999 22.27V6.96001C2.04999 6.14815 2.70813 5.49001 3.51999 5.49001H9.21002V1.79001L9.21019 1.77149C9.21767 1.36802 9.38321 0.983604 9.67121 0.700936C9.95917 0.418309 10.3465 0.259985 10.75 0.26001ZM10.211 7.49001C10.2107 7.49001 10.2104 7.49001 10.21 7.49001C10.2097 7.49001 10.2094 7.49001 10.209 7.49001H4.04999V21.74H10.75H13.05V7.49001H10.211ZM15.05 21.74V6.96001C15.05 6.14815 14.3918 5.49001 13.58 5.49001H11.21V2.26001H20.21V21.74H15.05ZM19.6 4.94001C19.6 4.7191 19.4209 4.54001 19.2 4.54001H16.02C15.7991 4.54001 15.62 4.7191 15.62 4.94001V6.09001C15.62 6.31092 15.7991 6.49001 16.02 6.49001H19.2C19.4209 6.49001 19.6 6.31092 19.6 6.09001V4.94001ZM19.61 8.91001C19.61 8.6891 19.4309 8.51001 19.21 8.51001H16.03C15.8091 8.51001 15.63 8.6891 15.63 8.91001V10.06C15.63 10.2809 15.8091 10.46 16.03 10.46H19.21C19.4309 10.46 19.61 10.2809 19.61 10.06V8.91001ZM19.21 12.49C19.4309 12.49 19.61 12.6691 19.61 12.89V14.04C19.61 14.2609 19.4309 14.44 19.21 14.44H16.03C15.8091 14.44 15.63 14.2609 15.63 14.04V12.89C15.63 12.6691 15.8091 12.49 16.03 12.49H19.21ZM19.61 16.86C19.61 16.6391 19.4309 16.46 19.21 16.46H16.03C15.8091 16.46 15.63 16.6391 15.63 16.86V18.01C15.63 18.2309 15.8091 18.41 16.03 18.41H19.21C19.4309 18.41 19.61 18.2309 19.61 18.01V16.86ZM5.61002 8.89001C5.38911 8.89001 5.21002 9.06909 5.21002 9.29001V11.21C5.21002 11.4309 5.38911 11.61 5.61002 11.61H7.53002C7.75094 11.61 7.93002 11.4309 7.93002 11.21V9.29001C7.93002 9.06909 7.75094 8.89001 7.53002 8.89001H5.61002ZM9.15002 9.29001C9.15002 9.06909 9.32911 8.89001 9.55002 8.89001H11.47C11.6909 8.89001 11.87 9.06909 11.87 9.29001V11.21C11.87 11.4309 11.6909 11.61 11.47 11.61H9.55002C9.32911 11.61 9.15002 11.4309 9.15002 11.21V9.29001ZM9.16998 13.66C9.16998 13.4391 9.34907 13.26 9.56998 13.26H11.49C11.7109 13.26 11.89 13.4391 11.89 13.66V15.58C11.89 15.8009 11.7109 15.98 11.49 15.98H9.56998C9.34907 15.98 9.16998 15.8009 9.16998 15.58V13.66ZM5.62998 17.63C5.40907 17.63 5.22998 17.8091 5.22998 18.03V19.95C5.22998 20.1709 5.40907 20.35 5.62998 20.35H7.54998C7.77089 20.35 7.94998 20.1709 7.94998 19.95V18.03C7.94998 17.8091 7.77089 17.63 7.54998 17.63H5.62998ZM9.56998 17.63C9.34907 17.63 9.16998 17.8091 9.16998 18.03V19.95C9.16998 20.1709 9.34907 20.35 9.56998 20.35H11.49C11.7109 20.35 11.89 20.1709 11.89 19.95V18.03C11.89 17.8091 11.7109 17.63 11.49 17.63H9.56998ZM5.62998 13.26C5.40907 13.26 5.22998 13.4391 5.22998 13.66V15.58C5.22998 15.8009 5.40907 15.98 5.62998 15.98H7.54998C7.77089 15.98 7.94998 15.8009 7.94998 15.58V13.66C7.94998 13.4391 7.77089 13.26 7.54998 13.26H5.62998Z" fill="#545454"/>
</svg>
