<svg width="24" height="24" viewBox="0 0 24 24" fill="none" xmlns="http://www.w3.org/2000/svg">
<path fill-rule="evenodd" clip-rule="evenodd" d="M5.07003 4.50999C4.52879 4.50999 4.09003 4.94876 4.09003 5.48999V19.34C4.09003 19.7607 4.35511 20.1195 4.72737 20.2584L15.2529 9.73289C15.4404 9.54535 15.6948 9.43999 15.96 9.43999C16.2252 9.43999 16.4796 9.54535 16.6671 9.73289L19.9 12.9658V5.48999C19.9 4.94876 19.4613 4.50999 18.92 4.50999H5.07003ZM21.9 15.2486V5.48999C21.9 3.84419 20.5658 2.50999 18.92 2.50999H5.07003C3.42422 2.50999 2.09003 3.84419 2.09003 5.48999V19.34C2.09003 20.9279 3.33196 22.2257 4.89747 22.3151C5.00123 22.3332 5.1073 22.3348 5.21148 22.32H18.92C20.5658 22.32 21.9 20.9858 21.9 19.34V15.5313C21.9133 15.4376 21.9133 15.3424 21.9 15.2486ZM19.9 15.7942L15.96 11.8542L7.49422 20.32H18.92C19.4613 20.32 19.9 19.8812 19.9 19.34V15.7942ZM9.79002 8.93999C9.79002 9.92858 8.98861 10.73 8.00002 10.73C7.01143 10.73 6.21002 9.92858 6.21002 8.93999C6.21002 7.9514 7.01143 7.14999 8.00002 7.14999C8.98861 7.14999 9.79002 7.9514 9.79002 8.93999Z" fill="#545454"/>
</svg>
