<svg width="24" height="24" viewBox="0 0 24 24" fill="none" xmlns="http://www.w3.org/2000/svg">
<path d="M14.5 20.2H9.54999C9.28477 20.2 9.03042 20.0946 8.84288 19.9071C8.65534 19.7196 8.54999 19.4652 8.54999 19.2V13.61C8.54999 13.3448 8.65534 13.0904 8.84288 12.9029C9.03042 12.7153 9.28477 12.61 9.54999 12.61H14.5C14.7652 12.61 15.0196 12.7153 15.2071 12.9029C15.3946 13.0904 15.5 13.3448 15.5 13.61V19.2C15.5 19.4652 15.3946 19.7196 15.2071 19.9071C15.0196 20.0946 14.7652 20.2 14.5 20.2ZM10.55 18.2H13.5V14.61H10.55V18.2Z" fill="#545454"/>
<path d="M21.36 0.830017H2.69C2.42479 0.830017 2.17043 0.935374 1.9829 1.12291C1.79536 1.31045 1.69 1.5648 1.69 1.83002V4.92002C1.69 5.18523 1.79536 5.43959 1.9829 5.62712C2.17043 5.81466 2.42479 5.92002 2.69 5.92002H3.8V9.59002C3.8 9.85523 3.90536 10.1096 4.0929 10.2971C4.28043 10.4847 4.53479 10.59 4.8 10.59H5.46V21.36H3.54C3.27479 21.36 3.02043 21.4654 2.8329 21.6529C2.64536 21.8404 2.54 22.0948 2.54 22.36C2.54 22.6252 2.64536 22.8796 2.8329 23.0671C3.02043 23.2547 3.27479 23.36 3.54 23.36H20.54C20.8052 23.36 21.0596 23.2547 21.2471 23.0671C21.4346 22.8796 21.54 22.6252 21.54 22.36C21.54 22.0948 21.4346 21.8404 21.2471 21.6529C21.0596 21.4654 20.8052 21.36 20.54 21.36H18.59V10.59H19.25C19.5152 10.59 19.7696 10.4847 19.9571 10.2971C20.1446 10.1096 20.25 9.85523 20.25 9.59002V5.92002H21.36C21.6252 5.92002 21.8796 5.81466 22.0671 5.62712C22.2546 5.43959 22.36 5.18523 22.36 4.92002V1.83002C22.36 1.5648 22.2546 1.31045 22.0671 1.12291C21.8796 0.935374 21.6252 0.830017 21.36 0.830017ZM16.59 21.36H7.46V10.59H16.59V21.36ZM18.25 8.59002H5.8V5.92002H18.25V8.59002ZM20.36 3.92002H3.69V2.83002H20.36V3.92002Z" fill="#545454"/>
</svg>
