<svg width="24" height="23" viewBox="0 0 24 23" fill="none" xmlns="http://www.w3.org/2000/svg">
<path fill-rule="evenodd" clip-rule="evenodd" d="M14.1547 1.69623H9.99997L9.99521 1.69624C9.1756 1.69998 8.39089 2.01463 7.81272 2.57136C7.23455 3.12809 6.90997 3.88161 6.90997 4.66707V5.71164H3.68003C1.97347 5.71164 0.590027 7.03744 0.590027 8.67289V18.7066C0.590027 20.3421 1.97347 21.6679 3.68003 21.6679H20.42C22.1266 21.6679 23.51 20.3421 23.51 18.7066V8.67289C23.51 7.91176 23.2104 7.2177 22.718 6.69314C22.6759 6.64142 22.6281 6.59366 22.5752 6.55082C22.0185 6.03151 21.2583 5.71164 20.42 5.71164H17.24V4.66707C17.24 3.8816 16.9154 3.1281 16.3372 2.57136C15.7591 2.01463 14.9743 1.69997 14.1547 1.69623ZM20.42 7.62831C20.5377 7.62831 20.651 7.64618 20.7572 7.67924L19.1409 12.7266H13.77V12.4296C13.77 12.2179 13.5909 12.0462 13.37 12.0462H10.75C10.5291 12.0462 10.35 12.2179 10.35 12.4296V12.7266H4.7551L3.32923 7.68358C3.43931 7.64775 3.5573 7.62831 3.68003 7.62831H7.62904C7.71816 7.65326 7.81244 7.66665 7.90997 7.66665C8.00751 7.66665 8.10179 7.65326 8.19091 7.62831H15.959C16.0482 7.65326 16.1424 7.66665 16.24 7.66665C16.3375 7.66665 16.4318 7.65326 16.5209 7.62831H20.42ZM10.35 14.6433H3.99C3.53844 14.6433 3.1429 14.3533 3.0248 13.9356L2.59003 12.3979V18.7066C2.59003 19.2836 3.07804 19.7512 3.68003 19.7512H20.42C21.022 19.7512 21.51 19.2836 21.51 18.7066V11.8613L20.836 13.9661C20.7071 14.3686 20.3193 14.6433 19.88 14.6433H13.77V14.9404C13.77 15.1521 13.5909 15.3237 13.37 15.3237H10.75C10.5291 15.3237 10.35 15.1521 10.35 14.9404V14.6433ZM15.24 5.71164V4.66705C15.24 4.38834 15.1248 4.12096 14.9196 3.92341C14.715 3.72631 14.4373 3.61472 14.1472 3.61289H10.0027C9.71263 3.61472 9.43499 3.72631 9.2303 3.92341C9.02514 4.12096 8.90997 4.38834 8.90997 4.66705V5.71164H15.24Z" fill="#545454"/>
</svg>
