<svg width="24" height="23" viewBox="0 0 24 23" fill="none" xmlns="http://www.w3.org/2000/svg">
<path fill-rule="evenodd" clip-rule="evenodd" d="M11.0587 1.11906C11.2452 0.5992 11.8178 0.328921 12.3376 0.515374L20.7276 3.52454C21.125 3.66705 21.39 4.04371 21.39 4.46583V11.5C21.39 14.9786 18.9886 17.7462 16.8372 19.5487C15.7371 20.4704 14.6421 21.1906 13.8244 21.6799C13.4145 21.9251 13.0715 22.114 12.8288 22.2426C12.7073 22.307 12.6108 22.3564 12.5433 22.3903C12.5095 22.4072 12.483 22.4204 12.4642 22.4296L12.442 22.4404L12.4353 22.4436L12.4331 22.4447L12.4323 22.4451C12.432 22.4452 12.4317 22.4453 12 21.5433L12.4317 22.4453C11.9336 22.6838 11.3364 22.4732 11.098 21.975C10.8597 21.477 11.07 20.8801 11.5679 20.6415L11.5683 20.6413L11.5702 20.6404L11.5839 20.6337C11.5969 20.6273 11.6175 20.6172 11.6452 20.6032C11.7006 20.5754 11.7843 20.5326 11.8923 20.4754C12.1084 20.3609 12.4209 20.189 12.7975 19.9636C13.553 19.5116 14.5554 18.8512 15.5528 18.0156C17.5965 16.3034 19.39 14.0493 19.39 11.5V5.16954L11.6624 2.39795C11.1426 2.2115 10.8723 1.63892 11.0587 1.11906Z" fill="#545454"/>
<path d="M12 20.6521C12 20.6521 19.65 16.9912 19.65 11.4904V5.06957L12 2.31915" fill="#545454"/>
<path fill-rule="evenodd" clip-rule="evenodd" d="M12.9413 1.11906C13.1277 1.63892 12.8574 2.2115 12.3376 2.39795L4.60999 5.16954V11.5C4.60999 14.0493 6.40353 16.3034 8.4472 18.0156C9.44457 18.8512 10.447 19.5116 11.2025 19.9636C11.5791 20.189 11.8916 20.3609 12.1077 20.4754C12.2157 20.5326 12.2994 20.5754 12.3548 20.6032C12.3825 20.6172 12.4031 20.6273 12.4161 20.6337L12.4298 20.6404L12.4317 20.6413C12.4318 20.6414 12.432 20.6414 12.4321 20.6415M12.4321 20.6415C12.93 20.8801 13.1404 21.477 12.902 21.975C12.6636 22.4732 12.0665 22.6838 11.5683 22.4453L12 21.5433C11.5683 22.4453 11.568 22.4452 11.5677 22.4451L11.5669 22.4447L11.5647 22.4436L11.558 22.4404L11.5358 22.4296C11.517 22.4204 11.4905 22.4072 11.4567 22.3903C11.3892 22.3564 11.2927 22.307 11.1712 22.2426C10.9285 22.114 10.5855 21.9251 10.1756 21.6799C9.35794 21.1906 8.26291 20.4704 7.16277 19.5487C5.01144 17.7462 2.60999 14.9786 2.60999 11.5V4.46583C2.60999 4.04371 2.87505 3.66705 3.27238 3.52454L11.6624 0.515374C12.1822 0.328921 12.7548 0.5992 12.9413 1.11906" fill="#545454"/>
</svg>
