<svg width="24" height="24" viewBox="0 0 24 24" fill="none" xmlns="http://www.w3.org/2000/svg">
<path fill-rule="evenodd" clip-rule="evenodd" d="M1.66998 2.73999C1.1177 2.73999 0.669983 3.18771 0.669983 3.73999V16.14C0.669983 16.6923 1.1177 17.14 1.66998 17.14H4.14867C3.79271 17.5874 3.58002 18.1538 3.58002 18.77C3.58002 20.217 4.75303 21.39 6.20002 21.39C7.647 21.39 8.82002 20.217 8.82002 18.77C8.82002 18.1538 8.60733 17.5874 8.25137 17.14H15.838C15.8844 17.1466 15.9318 17.15 15.98 17.15H16.0707C15.7195 17.5958 15.51 18.1584 15.51 18.77C15.51 20.217 16.683 21.39 18.13 21.39C19.577 21.39 20.75 20.217 20.75 18.77C20.75 18.1584 20.5405 17.5958 20.1893 17.15H22.66C23.2123 17.15 23.66 16.7023 23.66 16.15V11.38C23.66 11.1148 23.5546 10.8604 23.3671 10.6729L20.5071 7.81288C20.3195 7.62535 20.0652 7.51999 19.8 7.51999H16.98V3.73999C16.98 3.18771 16.5323 2.73999 15.98 2.73999H1.66998ZM16.98 9.51999V15.15H21.66V11.7942L19.3858 9.51999H16.98ZM14.98 8.51802V4.73999H2.66998V15.14H14.98L14.98 8.51999L14.98 8.51802Z" fill="#545454"/>
</svg>
