<svg width="24" height="24" viewBox="0 0 24 24" fill="none" xmlns="http://www.w3.org/2000/svg">
<path fill-rule="evenodd" clip-rule="evenodd" d="M6.35999 8.2C6.35999 5.08511 8.8851 2.56 12 2.56C15.1149 2.56 17.64 5.08511 17.64 8.2C17.64 10.1788 16.6209 11.9197 15.0789 12.9262C15.0645 12.935 15.0505 12.9441 15.0366 12.9535C14.3726 13.3786 13.6137 13.6684 12.7986 13.7839L11.217 13.7861C8.4727 13.4049 6.35999 11.0492 6.35999 8.2ZM7.33105 14.2478C5.52377 12.8506 4.35999 10.6612 4.35999 8.2C4.35999 3.98054 7.78053 0.559998 12 0.559998C16.2194 0.559998 19.64 3.98054 19.64 8.2C19.64 10.6606 18.4767 12.8496 16.6701 14.2469L17.7315 22.3095C17.7816 22.6902 17.6093 23.0659 17.2882 23.2764C16.9671 23.4868 16.5538 23.4949 16.2247 23.297L12 20.7568L7.77533 23.297C7.44625 23.4949 7.03294 23.4868 6.71181 23.2763C6.39067 23.0658 6.21844 22.69 6.26861 22.3093L7.33105 14.2478Z" fill="#545454"/>
</svg>
