<svg width="24" height="24" viewBox="0 0 24 24" fill="none" xmlns="http://www.w3.org/2000/svg">
<path d="M19.7 1.07001H4.3C3.4256 1.07265 2.58776 1.42117 1.96946 2.03947C1.35116 2.65777 1.00264 3.4956 1 4.37001V19.78C1.00265 20.6561 1.35255 21.4955 1.97301 22.1141C2.59346 22.7327 3.43386 23.08 4.31 23.08H19.7C20.5744 23.0774 21.4122 22.7288 22.0305 22.1105C22.6488 21.4922 22.9974 20.6544 23 19.78V4.37001C22.9974 3.4956 22.6488 2.65777 22.0305 2.03947C21.4122 1.42117 20.5744 1.07265 19.7 1.07001ZM3.2 19.78V4.37001C3.2 4.07827 3.31589 3.79848 3.52218 3.59219C3.72847 3.3859 4.00826 3.27001 4.3 3.27001H8.3C8.10549 3.4512 7.89829 3.61829 7.68 3.77001C7.16959 4.03483 6.73646 4.42731 6.42278 4.90923C6.10909 5.39115 5.92554 5.94609 5.89 6.52001C5.92538 7.09021 6.10556 7.64197 6.41352 8.12316C6.72148 8.60434 7.14704 8.99906 7.65 9.27001C8.31 9.73001 8.48 9.91001 8.48 10.27C8.48 10.63 8.31 10.76 7.65 11.27C7.14659 11.5378 6.72038 11.9304 6.41221 12.4102C6.10404 12.89 5.92422 13.4408 5.89 14.01C5.92372 14.5819 6.10312 15.1358 6.41117 15.6188C6.71921 16.1019 7.14566 16.4982 7.65 16.77C8.31 17.24 8.48 17.41 8.48 17.72C8.48 18.03 8.31 18.21 7.65 18.72C7.2215 18.9632 6.84766 19.2921 6.55175 19.6861C6.25584 20.08 6.0442 20.5307 5.93 21.01H4.3C4.14393 21.0111 3.9894 20.979 3.8467 20.9157C3.704 20.8525 3.57639 20.7597 3.47235 20.6433C3.3683 20.527 3.29021 20.3898 3.24325 20.241C3.19629 20.0921 3.18155 19.935 3.2 19.78ZM13.35 20.88H8.35C8.54267 20.6997 8.75005 20.5358 8.97 20.39C9.47434 20.1182 9.90079 19.7219 10.2088 19.2388C10.5169 18.7558 10.6963 18.2019 10.73 17.63C10.6946 17.0598 10.5144 16.508 10.2065 16.0269C9.89852 15.5457 9.47296 15.151 8.97 14.88C8.31 14.41 8.13 14.24 8.13 13.88C8.13 13.52 8.31 13.4 8.97 12.93C9.47418 12.6606 9.90077 12.2662 10.2089 11.7847C10.5171 11.3032 10.6965 10.7507 10.73 10.18C10.6858 9.61232 10.4973 9.06534 10.1823 8.59103C9.86722 8.11672 9.43615 7.73083 8.93 7.47001C8.27 7.00001 8.09 6.83001 8.09 6.47001C8.09 6.11001 8.27 5.98001 8.93 5.47001C9.35777 5.22715 9.73058 4.89828 10.0249 4.50414C10.3192 4.11 10.5286 3.65914 10.64 3.18001H15.64C15.4473 3.36031 15.2399 3.52422 15.02 3.67001C14.5158 3.93945 14.0892 4.3338 13.7811 4.81529C13.4729 5.29679 13.2935 5.84932 13.26 6.42001C13.2935 6.99069 13.4729 7.54322 13.7811 8.02472C14.0892 8.50622 14.5158 8.90056 15.02 9.17001C15.68 9.64001 15.86 9.81001 15.86 10.17C15.86 10.53 15.68 10.66 15.02 11.17C14.5152 11.4387 14.0881 11.8328 13.7798 12.3145C13.4716 12.7962 13.2926 13.3491 13.26 13.92C13.2935 14.4907 13.4729 15.0432 13.7811 15.5247C14.0892 16.0062 14.5158 16.4006 15.02 16.67C15.68 17.14 15.86 17.31 15.86 17.67C15.86 18.03 15.68 18.16 15.02 18.67C14.6084 18.9085 14.2487 19.2269 13.9619 19.6064C13.6751 19.986 13.4671 20.419 13.35 20.88ZM20.8 19.78C20.8 19.9245 20.7715 20.0675 20.7163 20.201C20.661 20.3344 20.58 20.4557 20.4778 20.5578C20.3757 20.66 20.2544 20.741 20.121 20.7963C19.9875 20.8516 19.8445 20.88 19.7 20.88H15.7C15.8985 20.6993 16.1089 20.5322 16.33 20.38C16.8342 20.1106 17.2608 19.7162 17.5689 19.2347C17.8771 18.7532 18.0565 18.2007 18.09 17.63C18.0574 17.0591 17.8784 16.5062 17.5702 16.0245C17.2619 15.5428 16.8348 15.1487 16.33 14.88C15.67 14.41 15.49 14.23 15.49 13.88C15.49 13.53 15.67 13.39 16.33 12.88C16.8348 12.6113 17.2619 12.2172 17.5702 11.7355C17.8784 11.2539 18.0574 10.7009 18.09 10.13C18.0558 9.56082 17.876 9.00995 17.5678 8.53018C17.2596 8.05042 16.8334 7.65782 16.33 7.39001C15.67 6.92001 15.49 6.74001 15.49 6.39001C15.49 6.04001 15.67 5.90001 16.33 5.39001C16.7578 5.14834 17.1313 4.82121 17.4272 4.42895C17.7231 4.0367 17.9351 3.58774 18.05 3.11001H19.7C19.9917 3.11001 20.2715 3.2259 20.4778 3.43219C20.6841 3.63848 20.8 3.91827 20.8 4.21001V19.78Z" fill="#545454"/>
</svg>
