<svg width="24" height="24" viewBox="0 0 24 24" fill="none" xmlns="http://www.w3.org/2000/svg">
<path d="M22.0543 6.59994C21.7882 6.14576 21.406 5.77064 20.947 5.51315L13.7701 1.41208C13.3025 1.14212 12.7721 1 12.2322 1C11.6923 1 11.1619 1.14212 10.6943 1.41208L3.5174 5.51315C3.09466 5.76299 2.74197 6.11568 2.49213 6.53842C2.17422 7.03055 2.00348 7.60324 2 8.1891V16.3913C1.99965 16.9315 2.14161 17.4623 2.41159 17.9303C2.68156 18.3982 3.07003 18.7868 3.5379 19.0569L10.7148 23.158C11.1826 23.4273 11.7129 23.5687 12.2527 23.5681H12.3245C12.8363 23.5547 13.3367 23.4138 13.7803 23.158L20.9572 19.0569C21.4251 18.7868 21.8136 18.3982 22.0835 17.9303C22.3535 17.4623 22.4955 16.9315 22.4951 16.3913V8.1891C22.4956 7.62913 22.3431 7.07965 22.0543 6.59994ZM11.7298 3.16529C11.8857 3.0753 12.0625 3.02793 12.2424 3.02793C12.4224 3.02793 12.5992 3.0753 12.7551 3.16529L19.3886 6.95878L16.9997 8.34289L9.88432 4.24182L11.7298 3.16529ZM12.2937 11.0394L7.37241 8.20961L5.16808 6.93828L7.82353 5.42088L15.0004 9.52195L14.0469 10.0653L12.2937 11.0394ZM20.4958 16.3502C20.4966 16.5309 20.4495 16.7085 20.3595 16.8652C20.2695 17.0218 20.1397 17.1519 19.9832 17.2422L13.36 21.0152V12.8131L20.5369 8.71199L20.4958 16.3502Z" fill="#545454"/>
</svg>
