<svg width="24" height="24" viewBox="0 0 24 24" fill="none" xmlns="http://www.w3.org/2000/svg">
<path fill-rule="evenodd" clip-rule="evenodd" d="M6.86639 5.02641C8.22791 3.66489 10.0745 2.9 12 2.9C13.9255 2.9 15.7721 3.66489 17.1336 5.02641C18.4951 6.38792 19.26 8.23453 19.26 10.16C19.26 12.9731 17.4291 15.7119 15.4042 17.8483C14.4121 18.8951 13.4166 19.752 12.668 20.3476C12.4121 20.5512 12.186 20.7235 12 20.8616C11.8139 20.7235 11.5878 20.5512 11.332 20.3476C10.5834 19.752 9.58788 18.8951 8.59579 17.8483C6.57084 15.7119 4.73999 12.9731 4.73999 10.16C4.73999 8.23453 5.50488 6.38792 6.86639 5.02641ZM11.4452 22.922C11.4455 22.9222 11.4458 22.9224 12 22.09L12.5542 22.9224C12.2185 23.1459 11.7809 23.1455 11.4452 22.922ZM11.4452 22.922L12 22.09C12.5542 22.9224 12.5552 22.9217 12.5555 22.9215L12.5575 22.9202L12.5638 22.916L12.5851 22.9016C12.6032 22.8893 12.6289 22.8717 12.6617 22.849C12.7273 22.8037 12.8214 22.7376 12.94 22.6521C13.177 22.4811 13.5123 22.2316 13.9132 21.9127C14.7134 21.2761 15.7829 20.3562 16.8558 19.2242C18.9608 17.0032 21.26 13.7769 21.26 10.16C21.26 7.7041 20.2844 5.34878 18.5478 3.61219C16.8112 1.87561 14.4559 0.900002 12 0.900002C9.54409 0.900002 7.18877 1.87561 5.45218 3.61219C3.71559 5.34878 2.73999 7.7041 2.73999 10.16C2.73999 13.7769 5.03914 17.0032 7.14419 19.2242C8.2171 20.3562 9.28661 21.2761 10.0868 21.9127C10.4876 22.2316 10.823 22.4811 11.06 22.6521C11.1785 22.7376 11.2727 22.8037 11.3383 22.849C11.3711 22.8717 11.3968 22.8893 11.4149 22.9016L11.4362 22.916L11.4425 22.9202L11.4452 22.922ZM14.75 10.16C14.75 11.6788 13.5188 12.91 12 12.91C10.4812 12.91 9.25 11.6788 9.25 10.16C9.25 8.64122 10.4812 7.41 12 7.41C13.5188 7.41 14.75 8.64122 14.75 10.16Z" fill="#545454"/>
</svg>
