<svg width="24" height="24" viewBox="0 0 24 24" fill="none" xmlns="http://www.w3.org/2000/svg">
<path fill-rule="evenodd" clip-rule="evenodd" d="M13 2.29999C13 1.7477 12.5523 1.29999 12 1.29999C11.4477 1.29999 11 1.7477 11 2.29999V4.83001H9.82648C9.28081 4.80301 8.73515 4.88559 8.22174 5.07302C7.69881 5.26392 7.22035 5.55957 6.81567 5.94185C6.41099 6.32414 6.08861 6.78501 5.86828 7.29625C5.64795 7.80749 5.5343 8.35832 5.5343 8.91501C5.5343 9.47171 5.64795 10.0225 5.86828 10.5338C6.08861 11.045 6.41099 11.5059 6.81567 11.8882C7.22035 12.2705 7.69881 12.5661 8.22174 12.757C8.73515 12.9444 9.28081 13.027 9.82648 13H11V17.17H6.71001C6.15773 17.17 5.71001 17.6177 5.71001 18.17C5.71001 18.7223 6.15773 19.17 6.71001 19.17H11V21.7C11 22.2523 11.4477 22.7 12 22.7C12.5523 22.7 13 22.2523 13 21.7V19.17H14.1736C14.7192 19.197 15.2649 19.1144 15.7783 18.927C16.3012 18.7361 16.7797 18.4405 17.1844 18.0582C17.589 17.6759 17.9114 17.215 18.1318 16.7038C18.3521 16.1925 18.4657 15.6417 18.4657 15.085C18.4657 14.5283 18.3521 13.9775 18.1318 13.4663C17.9114 12.955 17.589 12.4941 17.1844 12.1119C16.7797 11.7296 16.3012 11.4339 15.7783 11.243C15.2649 11.0556 14.7192 10.973 14.1735 11H13V6.83001H16.41C16.9623 6.83001 17.41 6.3823 17.41 5.83001C17.41 5.27773 16.9623 4.83001 16.41 4.83001H13V2.29999ZM11 6.83001H9.80001C9.78105 6.83001 9.76209 6.82947 9.74315 6.82839C9.45914 6.81222 9.17481 6.85419 8.90759 6.95174C8.64037 7.04929 8.39587 7.20037 8.18908 7.39572C7.98229 7.59107 7.81755 7.82658 7.70497 8.08782C7.59238 8.34906 7.5343 8.63054 7.5343 8.91501C7.5343 9.19948 7.59238 9.48096 7.70497 9.7422C7.81756 10.0034 7.98229 10.239 8.18908 10.4343C8.39587 10.6297 8.64037 10.7807 8.90759 10.8783C9.17481 10.9758 9.45914 11.0178 9.74315 11.0016C9.76209 11.0006 9.78105 11 9.80001 11H11V6.83001ZM13 13V17.17H14.2C14.219 17.17 14.2379 17.1706 14.2569 17.1716C14.5409 17.1878 14.8252 17.1458 15.0924 17.0483C15.3597 16.9507 15.6042 16.7997 15.8109 16.6043C16.0177 16.409 16.1825 16.1734 16.2951 15.9122C16.4077 15.651 16.4657 15.3695 16.4657 15.085C16.4657 14.8005 16.4077 14.5191 16.2951 14.2578C16.1825 13.9966 16.0177 13.7611 15.8109 13.5657C15.6042 13.3704 15.3597 13.2193 15.0924 13.1217C14.8252 13.0242 14.5409 12.9822 14.2569 12.9984C14.2379 12.9995 14.219 13 14.2 13H13Z" fill="#545454"/>
</svg>
