<svg width="24" height="24" viewBox="0 0 24 24" fill="none" xmlns="http://www.w3.org/2000/svg">
<path fill-rule="evenodd" clip-rule="evenodd" d="M11.3755 1.56458C11.7159 1.33182 12.1642 1.33182 12.5045 1.56458L22.3745 8.31458C22.7365 8.56211 22.8949 9.01655 22.7654 9.43545C22.6358 9.85436 22.2485 10.14 21.81 10.14H20.45V19.6H22.04C22.5923 19.6 23.04 20.0477 23.04 20.6C23.04 21.1523 22.5923 21.6 22.04 21.6H2.29999C1.7477 21.6 1.29999 21.1523 1.29999 20.6C1.29999 20.0477 1.7477 19.6 2.29999 19.6H3.89001V10.14H2.07002C1.63154 10.14 1.2442 9.85436 1.11466 9.43545C0.985115 9.01655 1.14358 8.56211 1.50552 8.31458L11.3755 1.56458ZM5.89001 10.14V19.6H8.73999V10.18C8.73999 10.1666 8.74025 10.1533 8.74077 10.14H5.89001ZM10.7392 10.14C10.7397 10.1533 10.74 10.1666 10.74 10.18V19.6H13.6V10.18C13.6 10.1666 13.6002 10.1533 13.6008 10.14H10.7392ZM15.5992 10.14C15.5997 10.1533 15.6 10.1666 15.6 10.18V19.6H18.45V10.14H15.5992Z" fill="#545454"/>
</svg>
