<svg width="24" height="24" viewBox="0 0 24 24" fill="none" xmlns="http://www.w3.org/2000/svg">
<path fill-rule="evenodd" clip-rule="evenodd" d="M2.38 6.18C2.38 5.66638 2.79638 5.25 3.31 5.25H20.73C21.2436 5.25 21.66 5.66638 21.66 6.18V8.05987C21.5942 8.05333 21.5275 8.04999 21.4599 8.04999H2.56995C2.50588 8.04999 2.44253 8.053 2.38 8.05889V6.18ZM2.38 12.0411V17.8C2.38 18.3136 2.79638 18.73 3.31 18.73H20.73C21.2436 18.73 21.66 18.3136 21.66 17.8V12.0401C21.5942 12.0466 21.5275 12.05 21.4599 12.05H2.56995C2.50588 12.05 2.44253 12.047 2.38 12.0411ZM3.31 3.25C1.69181 3.25 0.380005 4.56181 0.380005 6.18V17.8C0.380005 19.4182 1.69181 20.73 3.31 20.73H20.73C22.3482 20.73 23.66 19.4182 23.66 17.8V6.18C23.66 4.56181 22.3482 3.25 20.73 3.25H3.31Z" fill="#545454"/>
</svg>
